%TF.GenerationSoftware,KiCad,Pcbnew,7.0.11*%
%TF.CreationDate,2025-04-08T01:22:05+09:00*%
%TF.ProjectId,Panel,50616e65-6c2e-46b6-9963-61645f706362,rev?*%
%TF.SameCoordinates,Original*%
%TF.FileFunction,Soldermask,Bot*%
%TF.FilePolarity,Negative*%
%FSLAX46Y46*%
G04 Gerber Fmt 4.6, Leading zero omitted, Abs format (unit mm)*
G04 Created by KiCad (PCBNEW 7.0.11) date 2025-04-08 01:22:05*
%MOMM*%
%LPD*%
G01*
G04 APERTURE LIST*
%ADD10C,0.100000*%
%ADD11C,4.000000*%
%ADD12C,2.000000*%
G04 APERTURE END LIST*
%TO.C,H32*%
D10*
X65361276Y-76533376D02*
X62361276Y-76533376D01*
X62361276Y-74533376D01*
X65361276Y-74533376D01*
X65361276Y-76533376D01*
G36*
X65361276Y-76533376D02*
G01*
X62361276Y-76533376D01*
X62361276Y-74533376D01*
X65361276Y-74533376D01*
X65361276Y-76533376D01*
G37*
X62977301Y-80662541D02*
X61245251Y-81662541D01*
X59745251Y-79064465D01*
X61477301Y-78064465D01*
X62977301Y-80662541D01*
G36*
X62977301Y-80662541D02*
G01*
X61245251Y-81662541D01*
X59745251Y-79064465D01*
X61477301Y-78064465D01*
X62977301Y-80662541D01*
G37*
X62977301Y-70404211D02*
X61477301Y-73002287D01*
X59745251Y-72002287D01*
X61245251Y-69404211D01*
X62977301Y-70404211D01*
G36*
X62977301Y-70404211D02*
G01*
X61477301Y-73002287D01*
X59745251Y-72002287D01*
X61245251Y-69404211D01*
X62977301Y-70404211D01*
G37*
X57977301Y-79064465D02*
X56477301Y-81662541D01*
X54745251Y-80662541D01*
X56245251Y-78064465D01*
X57977301Y-79064465D01*
G36*
X57977301Y-79064465D02*
G01*
X56477301Y-81662541D01*
X54745251Y-80662541D01*
X56245251Y-78064465D01*
X57977301Y-79064465D01*
G37*
X57977301Y-72002287D02*
X56245251Y-73002287D01*
X54745251Y-70404211D01*
X56477301Y-69404211D01*
X57977301Y-72002287D01*
G36*
X57977301Y-72002287D02*
G01*
X56245251Y-73002287D01*
X54745251Y-70404211D01*
X56477301Y-69404211D01*
X57977301Y-72002287D01*
G37*
X55361276Y-76533376D02*
X52361276Y-76533376D01*
X52361276Y-74533376D01*
X55361276Y-74533376D01*
X55361276Y-76533376D01*
G36*
X55361276Y-76533376D02*
G01*
X52361276Y-76533376D01*
X52361276Y-74533376D01*
X55361276Y-74533376D01*
X55361276Y-76533376D01*
G37*
%TO.C,H31*%
X107033376Y-177138724D02*
X104033376Y-177138724D01*
X104033376Y-175138724D01*
X107033376Y-175138724D01*
X107033376Y-177138724D01*
G36*
X107033376Y-177138724D02*
G01*
X104033376Y-177138724D01*
X104033376Y-175138724D01*
X107033376Y-175138724D01*
X107033376Y-177138724D01*
G37*
X104649401Y-181267889D02*
X102917351Y-182267889D01*
X101417351Y-179669813D01*
X103149401Y-178669813D01*
X104649401Y-181267889D01*
G36*
X104649401Y-181267889D02*
G01*
X102917351Y-182267889D01*
X101417351Y-179669813D01*
X103149401Y-178669813D01*
X104649401Y-181267889D01*
G37*
X104649401Y-171009559D02*
X103149401Y-173607635D01*
X101417351Y-172607635D01*
X102917351Y-170009559D01*
X104649401Y-171009559D01*
G36*
X104649401Y-171009559D02*
G01*
X103149401Y-173607635D01*
X101417351Y-172607635D01*
X102917351Y-170009559D01*
X104649401Y-171009559D01*
G37*
X99649401Y-179669813D02*
X98149401Y-182267889D01*
X96417351Y-181267889D01*
X97917351Y-178669813D01*
X99649401Y-179669813D01*
G36*
X99649401Y-179669813D02*
G01*
X98149401Y-182267889D01*
X96417351Y-181267889D01*
X97917351Y-178669813D01*
X99649401Y-179669813D01*
G37*
X99649401Y-172607635D02*
X97917351Y-173607635D01*
X96417351Y-171009559D01*
X98149401Y-170009559D01*
X99649401Y-172607635D01*
G36*
X99649401Y-172607635D02*
G01*
X97917351Y-173607635D01*
X96417351Y-171009559D01*
X98149401Y-170009559D01*
X99649401Y-172607635D01*
G37*
X97033376Y-177138724D02*
X94033376Y-177138724D01*
X94033376Y-175138724D01*
X97033376Y-175138724D01*
X97033376Y-177138724D01*
G36*
X97033376Y-177138724D02*
G01*
X94033376Y-177138724D01*
X94033376Y-175138724D01*
X97033376Y-175138724D01*
X97033376Y-177138724D01*
G37*
%TO.C,H30*%
X207638724Y-135466624D02*
X204638724Y-135466624D01*
X204638724Y-133466624D01*
X207638724Y-133466624D01*
X207638724Y-135466624D01*
G36*
X207638724Y-135466624D02*
G01*
X204638724Y-135466624D01*
X204638724Y-133466624D01*
X207638724Y-133466624D01*
X207638724Y-135466624D01*
G37*
X205254749Y-139595789D02*
X203522699Y-140595789D01*
X202022699Y-137997713D01*
X203754749Y-136997713D01*
X205254749Y-139595789D01*
G36*
X205254749Y-139595789D02*
G01*
X203522699Y-140595789D01*
X202022699Y-137997713D01*
X203754749Y-136997713D01*
X205254749Y-139595789D01*
G37*
X205254749Y-129337459D02*
X203754749Y-131935535D01*
X202022699Y-130935535D01*
X203522699Y-128337459D01*
X205254749Y-129337459D01*
G36*
X205254749Y-129337459D02*
G01*
X203754749Y-131935535D01*
X202022699Y-130935535D01*
X203522699Y-128337459D01*
X205254749Y-129337459D01*
G37*
X200254749Y-137997713D02*
X198754749Y-140595789D01*
X197022699Y-139595789D01*
X198522699Y-136997713D01*
X200254749Y-137997713D01*
G36*
X200254749Y-137997713D02*
G01*
X198754749Y-140595789D01*
X197022699Y-139595789D01*
X198522699Y-136997713D01*
X200254749Y-137997713D01*
G37*
X200254749Y-130935535D02*
X198522699Y-131935535D01*
X197022699Y-129337459D01*
X198754749Y-128337459D01*
X200254749Y-130935535D01*
G36*
X200254749Y-130935535D02*
G01*
X198522699Y-131935535D01*
X197022699Y-129337459D01*
X198754749Y-128337459D01*
X200254749Y-130935535D01*
G37*
X197638724Y-135466624D02*
X194638724Y-135466624D01*
X194638724Y-133466624D01*
X197638724Y-133466624D01*
X197638724Y-135466624D01*
G36*
X197638724Y-135466624D02*
G01*
X194638724Y-135466624D01*
X194638724Y-133466624D01*
X197638724Y-133466624D01*
X197638724Y-135466624D01*
G37*
%TO.C,H29*%
X165966624Y-34861276D02*
X162966624Y-34861276D01*
X162966624Y-32861276D01*
X165966624Y-32861276D01*
X165966624Y-34861276D01*
G36*
X165966624Y-34861276D02*
G01*
X162966624Y-34861276D01*
X162966624Y-32861276D01*
X165966624Y-32861276D01*
X165966624Y-34861276D01*
G37*
X163582649Y-38990441D02*
X161850599Y-39990441D01*
X160350599Y-37392365D01*
X162082649Y-36392365D01*
X163582649Y-38990441D01*
G36*
X163582649Y-38990441D02*
G01*
X161850599Y-39990441D01*
X160350599Y-37392365D01*
X162082649Y-36392365D01*
X163582649Y-38990441D01*
G37*
X163582649Y-28732111D02*
X162082649Y-31330187D01*
X160350599Y-30330187D01*
X161850599Y-27732111D01*
X163582649Y-28732111D01*
G36*
X163582649Y-28732111D02*
G01*
X162082649Y-31330187D01*
X160350599Y-30330187D01*
X161850599Y-27732111D01*
X163582649Y-28732111D01*
G37*
X158582649Y-37392365D02*
X157082649Y-39990441D01*
X155350599Y-38990441D01*
X156850599Y-36392365D01*
X158582649Y-37392365D01*
G36*
X158582649Y-37392365D02*
G01*
X157082649Y-39990441D01*
X155350599Y-38990441D01*
X156850599Y-36392365D01*
X158582649Y-37392365D01*
G37*
X158582649Y-30330187D02*
X156850599Y-31330187D01*
X155350599Y-28732111D01*
X157082649Y-27732111D01*
X158582649Y-30330187D01*
G36*
X158582649Y-30330187D02*
G01*
X156850599Y-31330187D01*
X155350599Y-28732111D01*
X157082649Y-27732111D01*
X158582649Y-30330187D01*
G37*
X155966624Y-34861276D02*
X152966624Y-34861276D01*
X152966624Y-32861276D01*
X155966624Y-32861276D01*
X155966624Y-34861276D01*
G36*
X155966624Y-34861276D02*
G01*
X152966624Y-34861276D01*
X152966624Y-32861276D01*
X155966624Y-32861276D01*
X155966624Y-34861276D01*
G37*
%TD*%
D11*
%TO.C,H18*%
X116468240Y-62082738D03*
%TD*%
%TO.C,H24*%
X172917262Y-118531760D03*
%TD*%
%TO.C,H17*%
X109221313Y-65084513D03*
%TD*%
%TO.C,H5*%
X169915487Y-84221313D03*
%TD*%
D12*
%TO.C,H6*%
X123504810Y-101250001D03*
%TD*%
%TO.C,H13*%
X136495190Y-108750000D03*
%TD*%
D11*
%TO.C,H26*%
X109221313Y-144915487D03*
%TD*%
D12*
%TO.C,H8*%
X123504810Y-108750000D03*
%TD*%
D11*
%TO.C,H20*%
X90084513Y-84221313D03*
%TD*%
D12*
%TO.C,H4*%
X175552512Y-33217730D03*
%TD*%
D11*
%TO.C,H21*%
X90084513Y-125778687D03*
%TD*%
%TO.C,H28*%
X169915487Y-125778687D03*
%TD*%
%TO.C,H10*%
X172917262Y-91468240D03*
%TD*%
%TO.C,H22*%
X116468240Y-147917262D03*
%TD*%
D12*
%TO.C,H12*%
X164350639Y-182975085D03*
%TD*%
D11*
%TO.C,H19*%
X87082738Y-91468240D03*
%TD*%
D12*
%TO.C,H11*%
X130000000Y-112500000D03*
%TD*%
%TO.C,H9*%
X44922962Y-104388060D03*
%TD*%
%TO.C,H1*%
X136495190Y-101250001D03*
%TD*%
D11*
%TO.C,H15*%
X143531760Y-62082738D03*
%TD*%
D12*
%TO.C,H2*%
X179547708Y-35836867D03*
%TD*%
D11*
%TO.C,H27*%
X143531760Y-147917262D03*
%TD*%
%TO.C,H16*%
X150778687Y-65084513D03*
%TD*%
D12*
%TO.C,H7*%
X44951152Y-99140683D03*
%TD*%
%TO.C,H14*%
X168703564Y-180922308D03*
%TD*%
D11*
%TO.C,H25*%
X87082738Y-118531760D03*
%TD*%
D12*
%TO.C,H3*%
X130000000Y-97500000D03*
%TD*%
D11*
%TO.C,H23*%
X150778687Y-144915487D03*
%TD*%
M02*
