%TF.GenerationSoftware,KiCad,Pcbnew,7.0.11*%
%TF.CreationDate,2025-04-08T01:22:05+09:00*%
%TF.ProjectId,Panel,50616e65-6c2e-46b6-9963-61645f706362,rev?*%
%TF.SameCoordinates,Original*%
%TF.FileFunction,Legend,Bot*%
%TF.FilePolarity,Positive*%
%FSLAX46Y46*%
G04 Gerber Fmt 4.6, Leading zero omitted, Abs format (unit mm)*
G04 Created by KiCad (PCBNEW 7.0.11) date 2025-04-08 01:22:05*
%MOMM*%
%LPD*%
G01*
G04 APERTURE LIST*
%ADD10C,0.200000*%
%ADD11C,0.250000*%
%ADD12C,0.270000*%
%ADD13C,0.470000*%
%ADD14C,0.130000*%
%ADD15C,0.120000*%
%ADD16C,0.100000*%
%ADD17C,4.000000*%
%ADD18C,2.000000*%
G04 APERTURE END LIST*
D10*
X114785713Y-154683528D02*
X115499999Y-154683528D01*
X115499999Y-154683528D02*
X115571427Y-155397814D01*
X115571427Y-155397814D02*
X115499999Y-155326385D01*
X115499999Y-155326385D02*
X115357142Y-155254957D01*
X115357142Y-155254957D02*
X114999999Y-155254957D01*
X114999999Y-155254957D02*
X114857142Y-155326385D01*
X114857142Y-155326385D02*
X114785713Y-155397814D01*
X114785713Y-155397814D02*
X114714284Y-155540671D01*
X114714284Y-155540671D02*
X114714284Y-155897814D01*
X114714284Y-155897814D02*
X114785713Y-156040671D01*
X114785713Y-156040671D02*
X114857142Y-156112100D01*
X114857142Y-156112100D02*
X114999999Y-156183528D01*
X114999999Y-156183528D02*
X115357142Y-156183528D01*
X115357142Y-156183528D02*
X115499999Y-156112100D01*
X115499999Y-156112100D02*
X115571427Y-156040671D01*
X114285713Y-154683528D02*
X113785713Y-156183528D01*
X113785713Y-156183528D02*
X113285713Y-154683528D01*
X107142856Y-151254957D02*
X107285714Y-151183528D01*
X107285714Y-151183528D02*
X107499999Y-151183528D01*
X107499999Y-151183528D02*
X107714285Y-151254957D01*
X107714285Y-151254957D02*
X107857142Y-151397814D01*
X107857142Y-151397814D02*
X107928571Y-151540671D01*
X107928571Y-151540671D02*
X107999999Y-151826385D01*
X107999999Y-151826385D02*
X107999999Y-152040671D01*
X107999999Y-152040671D02*
X107928571Y-152326385D01*
X107928571Y-152326385D02*
X107857142Y-152469242D01*
X107857142Y-152469242D02*
X107714285Y-152612100D01*
X107714285Y-152612100D02*
X107499999Y-152683528D01*
X107499999Y-152683528D02*
X107357142Y-152683528D01*
X107357142Y-152683528D02*
X107142856Y-152612100D01*
X107142856Y-152612100D02*
X107071428Y-152540671D01*
X107071428Y-152540671D02*
X107071428Y-152040671D01*
X107071428Y-152040671D02*
X107357142Y-152040671D01*
X106428571Y-152683528D02*
X106428571Y-151183528D01*
X106428571Y-151183528D02*
X105571428Y-152683528D01*
X105571428Y-152683528D02*
X105571428Y-151183528D01*
X104857142Y-152683528D02*
X104857142Y-151183528D01*
X104857142Y-151183528D02*
X104499999Y-151183528D01*
X104499999Y-151183528D02*
X104285713Y-151254957D01*
X104285713Y-151254957D02*
X104142856Y-151397814D01*
X104142856Y-151397814D02*
X104071427Y-151540671D01*
X104071427Y-151540671D02*
X103999999Y-151826385D01*
X103999999Y-151826385D02*
X103999999Y-152040671D01*
X103999999Y-152040671D02*
X104071427Y-152326385D01*
X104071427Y-152326385D02*
X104142856Y-152469242D01*
X104142856Y-152469242D02*
X104285713Y-152612100D01*
X104285713Y-152612100D02*
X104499999Y-152683528D01*
X104499999Y-152683528D02*
X104857142Y-152683528D01*
X82785713Y-128683528D02*
X83499999Y-128683528D01*
X83499999Y-128683528D02*
X83571427Y-129397814D01*
X83571427Y-129397814D02*
X83499999Y-129326385D01*
X83499999Y-129326385D02*
X83357142Y-129254957D01*
X83357142Y-129254957D02*
X82999999Y-129254957D01*
X82999999Y-129254957D02*
X82857142Y-129326385D01*
X82857142Y-129326385D02*
X82785713Y-129397814D01*
X82785713Y-129397814D02*
X82714284Y-129540671D01*
X82714284Y-129540671D02*
X82714284Y-129897814D01*
X82714284Y-129897814D02*
X82785713Y-130040671D01*
X82785713Y-130040671D02*
X82857142Y-130112100D01*
X82857142Y-130112100D02*
X82999999Y-130183528D01*
X82999999Y-130183528D02*
X83357142Y-130183528D01*
X83357142Y-130183528D02*
X83499999Y-130112100D01*
X83499999Y-130112100D02*
X83571427Y-130040671D01*
X82285713Y-128683528D02*
X81785713Y-130183528D01*
X81785713Y-130183528D02*
X81285713Y-128683528D01*
X80142856Y-121254957D02*
X80285714Y-121183528D01*
X80285714Y-121183528D02*
X80499999Y-121183528D01*
X80499999Y-121183528D02*
X80714285Y-121254957D01*
X80714285Y-121254957D02*
X80857142Y-121397814D01*
X80857142Y-121397814D02*
X80928571Y-121540671D01*
X80928571Y-121540671D02*
X80999999Y-121826385D01*
X80999999Y-121826385D02*
X80999999Y-122040671D01*
X80999999Y-122040671D02*
X80928571Y-122326385D01*
X80928571Y-122326385D02*
X80857142Y-122469242D01*
X80857142Y-122469242D02*
X80714285Y-122612100D01*
X80714285Y-122612100D02*
X80499999Y-122683528D01*
X80499999Y-122683528D02*
X80357142Y-122683528D01*
X80357142Y-122683528D02*
X80142856Y-122612100D01*
X80142856Y-122612100D02*
X80071428Y-122540671D01*
X80071428Y-122540671D02*
X80071428Y-122040671D01*
X80071428Y-122040671D02*
X80357142Y-122040671D01*
X79428571Y-122683528D02*
X79428571Y-121183528D01*
X79428571Y-121183528D02*
X78571428Y-122683528D01*
X78571428Y-122683528D02*
X78571428Y-121183528D01*
X77857142Y-122683528D02*
X77857142Y-121183528D01*
X77857142Y-121183528D02*
X77499999Y-121183528D01*
X77499999Y-121183528D02*
X77285713Y-121254957D01*
X77285713Y-121254957D02*
X77142856Y-121397814D01*
X77142856Y-121397814D02*
X77071427Y-121540671D01*
X77071427Y-121540671D02*
X76999999Y-121826385D01*
X76999999Y-121826385D02*
X76999999Y-122040671D01*
X76999999Y-122040671D02*
X77071427Y-122326385D01*
X77071427Y-122326385D02*
X77142856Y-122469242D01*
X77142856Y-122469242D02*
X77285713Y-122612100D01*
X77285713Y-122612100D02*
X77499999Y-122683528D01*
X77499999Y-122683528D02*
X77857142Y-122683528D01*
X153785713Y-151683528D02*
X154499999Y-151683528D01*
X154499999Y-151683528D02*
X154571427Y-152397814D01*
X154571427Y-152397814D02*
X154499999Y-152326385D01*
X154499999Y-152326385D02*
X154357142Y-152254957D01*
X154357142Y-152254957D02*
X153999999Y-152254957D01*
X153999999Y-152254957D02*
X153857142Y-152326385D01*
X153857142Y-152326385D02*
X153785713Y-152397814D01*
X153785713Y-152397814D02*
X153714284Y-152540671D01*
X153714284Y-152540671D02*
X153714284Y-152897814D01*
X153714284Y-152897814D02*
X153785713Y-153040671D01*
X153785713Y-153040671D02*
X153857142Y-153112100D01*
X153857142Y-153112100D02*
X153999999Y-153183528D01*
X153999999Y-153183528D02*
X154357142Y-153183528D01*
X154357142Y-153183528D02*
X154499999Y-153112100D01*
X154499999Y-153112100D02*
X154571427Y-153040671D01*
X153285713Y-151683528D02*
X152785713Y-153183528D01*
X152785713Y-153183528D02*
X152285713Y-151683528D01*
X146142856Y-155254957D02*
X146285714Y-155183528D01*
X146285714Y-155183528D02*
X146499999Y-155183528D01*
X146499999Y-155183528D02*
X146714285Y-155254957D01*
X146714285Y-155254957D02*
X146857142Y-155397814D01*
X146857142Y-155397814D02*
X146928571Y-155540671D01*
X146928571Y-155540671D02*
X146999999Y-155826385D01*
X146999999Y-155826385D02*
X146999999Y-156040671D01*
X146999999Y-156040671D02*
X146928571Y-156326385D01*
X146928571Y-156326385D02*
X146857142Y-156469242D01*
X146857142Y-156469242D02*
X146714285Y-156612100D01*
X146714285Y-156612100D02*
X146499999Y-156683528D01*
X146499999Y-156683528D02*
X146357142Y-156683528D01*
X146357142Y-156683528D02*
X146142856Y-156612100D01*
X146142856Y-156612100D02*
X146071428Y-156540671D01*
X146071428Y-156540671D02*
X146071428Y-156040671D01*
X146071428Y-156040671D02*
X146357142Y-156040671D01*
X145428571Y-156683528D02*
X145428571Y-155183528D01*
X145428571Y-155183528D02*
X144571428Y-156683528D01*
X144571428Y-156683528D02*
X144571428Y-155183528D01*
X143857142Y-156683528D02*
X143857142Y-155183528D01*
X143857142Y-155183528D02*
X143499999Y-155183528D01*
X143499999Y-155183528D02*
X143285713Y-155254957D01*
X143285713Y-155254957D02*
X143142856Y-155397814D01*
X143142856Y-155397814D02*
X143071427Y-155540671D01*
X143071427Y-155540671D02*
X142999999Y-155826385D01*
X142999999Y-155826385D02*
X142999999Y-156040671D01*
X142999999Y-156040671D02*
X143071427Y-156326385D01*
X143071427Y-156326385D02*
X143142856Y-156469242D01*
X143142856Y-156469242D02*
X143285713Y-156612100D01*
X143285713Y-156612100D02*
X143499999Y-156683528D01*
X143499999Y-156683528D02*
X143857142Y-156683528D01*
X180785713Y-120683528D02*
X181499999Y-120683528D01*
X181499999Y-120683528D02*
X181571427Y-121397814D01*
X181571427Y-121397814D02*
X181499999Y-121326385D01*
X181499999Y-121326385D02*
X181357142Y-121254957D01*
X181357142Y-121254957D02*
X180999999Y-121254957D01*
X180999999Y-121254957D02*
X180857142Y-121326385D01*
X180857142Y-121326385D02*
X180785713Y-121397814D01*
X180785713Y-121397814D02*
X180714284Y-121540671D01*
X180714284Y-121540671D02*
X180714284Y-121897814D01*
X180714284Y-121897814D02*
X180785713Y-122040671D01*
X180785713Y-122040671D02*
X180857142Y-122112100D01*
X180857142Y-122112100D02*
X180999999Y-122183528D01*
X180999999Y-122183528D02*
X181357142Y-122183528D01*
X181357142Y-122183528D02*
X181499999Y-122112100D01*
X181499999Y-122112100D02*
X181571427Y-122040671D01*
X180285713Y-120683528D02*
X179785713Y-122183528D01*
X179785713Y-122183528D02*
X179285713Y-120683528D01*
X179142856Y-128254957D02*
X179285714Y-128183528D01*
X179285714Y-128183528D02*
X179499999Y-128183528D01*
X179499999Y-128183528D02*
X179714285Y-128254957D01*
X179714285Y-128254957D02*
X179857142Y-128397814D01*
X179857142Y-128397814D02*
X179928571Y-128540671D01*
X179928571Y-128540671D02*
X179999999Y-128826385D01*
X179999999Y-128826385D02*
X179999999Y-129040671D01*
X179999999Y-129040671D02*
X179928571Y-129326385D01*
X179928571Y-129326385D02*
X179857142Y-129469242D01*
X179857142Y-129469242D02*
X179714285Y-129612100D01*
X179714285Y-129612100D02*
X179499999Y-129683528D01*
X179499999Y-129683528D02*
X179357142Y-129683528D01*
X179357142Y-129683528D02*
X179142856Y-129612100D01*
X179142856Y-129612100D02*
X179071428Y-129540671D01*
X179071428Y-129540671D02*
X179071428Y-129040671D01*
X179071428Y-129040671D02*
X179357142Y-129040671D01*
X178428571Y-129683528D02*
X178428571Y-128183528D01*
X178428571Y-128183528D02*
X177571428Y-129683528D01*
X177571428Y-129683528D02*
X177571428Y-128183528D01*
X176857142Y-129683528D02*
X176857142Y-128183528D01*
X176857142Y-128183528D02*
X176499999Y-128183528D01*
X176499999Y-128183528D02*
X176285713Y-128254957D01*
X176285713Y-128254957D02*
X176142856Y-128397814D01*
X176142856Y-128397814D02*
X176071427Y-128540671D01*
X176071427Y-128540671D02*
X175999999Y-128826385D01*
X175999999Y-128826385D02*
X175999999Y-129040671D01*
X175999999Y-129040671D02*
X176071427Y-129326385D01*
X176071427Y-129326385D02*
X176142856Y-129469242D01*
X176142856Y-129469242D02*
X176285713Y-129612100D01*
X176285713Y-129612100D02*
X176499999Y-129683528D01*
X176499999Y-129683528D02*
X176857142Y-129683528D01*
X146285713Y-54683528D02*
X146999999Y-54683528D01*
X146999999Y-54683528D02*
X147071427Y-55397814D01*
X147071427Y-55397814D02*
X146999999Y-55326385D01*
X146999999Y-55326385D02*
X146857142Y-55254957D01*
X146857142Y-55254957D02*
X146499999Y-55254957D01*
X146499999Y-55254957D02*
X146357142Y-55326385D01*
X146357142Y-55326385D02*
X146285713Y-55397814D01*
X146285713Y-55397814D02*
X146214284Y-55540671D01*
X146214284Y-55540671D02*
X146214284Y-55897814D01*
X146214284Y-55897814D02*
X146285713Y-56040671D01*
X146285713Y-56040671D02*
X146357142Y-56112100D01*
X146357142Y-56112100D02*
X146499999Y-56183528D01*
X146499999Y-56183528D02*
X146857142Y-56183528D01*
X146857142Y-56183528D02*
X146999999Y-56112100D01*
X146999999Y-56112100D02*
X147071427Y-56040671D01*
X145785713Y-54683528D02*
X145285713Y-56183528D01*
X145285713Y-56183528D02*
X144785713Y-54683528D01*
X155642856Y-57754957D02*
X155785714Y-57683528D01*
X155785714Y-57683528D02*
X155999999Y-57683528D01*
X155999999Y-57683528D02*
X156214285Y-57754957D01*
X156214285Y-57754957D02*
X156357142Y-57897814D01*
X156357142Y-57897814D02*
X156428571Y-58040671D01*
X156428571Y-58040671D02*
X156499999Y-58326385D01*
X156499999Y-58326385D02*
X156499999Y-58540671D01*
X156499999Y-58540671D02*
X156428571Y-58826385D01*
X156428571Y-58826385D02*
X156357142Y-58969242D01*
X156357142Y-58969242D02*
X156214285Y-59112100D01*
X156214285Y-59112100D02*
X155999999Y-59183528D01*
X155999999Y-59183528D02*
X155857142Y-59183528D01*
X155857142Y-59183528D02*
X155642856Y-59112100D01*
X155642856Y-59112100D02*
X155571428Y-59040671D01*
X155571428Y-59040671D02*
X155571428Y-58540671D01*
X155571428Y-58540671D02*
X155857142Y-58540671D01*
X154928571Y-59183528D02*
X154928571Y-57683528D01*
X154928571Y-57683528D02*
X154071428Y-59183528D01*
X154071428Y-59183528D02*
X154071428Y-57683528D01*
X153357142Y-59183528D02*
X153357142Y-57683528D01*
X153357142Y-57683528D02*
X152999999Y-57683528D01*
X152999999Y-57683528D02*
X152785713Y-57754957D01*
X152785713Y-57754957D02*
X152642856Y-57897814D01*
X152642856Y-57897814D02*
X152571427Y-58040671D01*
X152571427Y-58040671D02*
X152499999Y-58326385D01*
X152499999Y-58326385D02*
X152499999Y-58540671D01*
X152499999Y-58540671D02*
X152571427Y-58826385D01*
X152571427Y-58826385D02*
X152642856Y-58969242D01*
X152642856Y-58969242D02*
X152785713Y-59112100D01*
X152785713Y-59112100D02*
X152999999Y-59183528D01*
X152999999Y-59183528D02*
X153357142Y-59183528D01*
X107285713Y-57183528D02*
X107999999Y-57183528D01*
X107999999Y-57183528D02*
X108071427Y-57897814D01*
X108071427Y-57897814D02*
X107999999Y-57826385D01*
X107999999Y-57826385D02*
X107857142Y-57754957D01*
X107857142Y-57754957D02*
X107499999Y-57754957D01*
X107499999Y-57754957D02*
X107357142Y-57826385D01*
X107357142Y-57826385D02*
X107285713Y-57897814D01*
X107285713Y-57897814D02*
X107214284Y-58040671D01*
X107214284Y-58040671D02*
X107214284Y-58397814D01*
X107214284Y-58397814D02*
X107285713Y-58540671D01*
X107285713Y-58540671D02*
X107357142Y-58612100D01*
X107357142Y-58612100D02*
X107499999Y-58683528D01*
X107499999Y-58683528D02*
X107857142Y-58683528D01*
X107857142Y-58683528D02*
X107999999Y-58612100D01*
X107999999Y-58612100D02*
X108071427Y-58540671D01*
X106785713Y-57183528D02*
X106285713Y-58683528D01*
X106285713Y-58683528D02*
X105785713Y-57183528D01*
X115642856Y-54754957D02*
X115785714Y-54683528D01*
X115785714Y-54683528D02*
X115999999Y-54683528D01*
X115999999Y-54683528D02*
X116214285Y-54754957D01*
X116214285Y-54754957D02*
X116357142Y-54897814D01*
X116357142Y-54897814D02*
X116428571Y-55040671D01*
X116428571Y-55040671D02*
X116499999Y-55326385D01*
X116499999Y-55326385D02*
X116499999Y-55540671D01*
X116499999Y-55540671D02*
X116428571Y-55826385D01*
X116428571Y-55826385D02*
X116357142Y-55969242D01*
X116357142Y-55969242D02*
X116214285Y-56112100D01*
X116214285Y-56112100D02*
X115999999Y-56183528D01*
X115999999Y-56183528D02*
X115857142Y-56183528D01*
X115857142Y-56183528D02*
X115642856Y-56112100D01*
X115642856Y-56112100D02*
X115571428Y-56040671D01*
X115571428Y-56040671D02*
X115571428Y-55540671D01*
X115571428Y-55540671D02*
X115857142Y-55540671D01*
X114928571Y-56183528D02*
X114928571Y-54683528D01*
X114928571Y-54683528D02*
X114071428Y-56183528D01*
X114071428Y-56183528D02*
X114071428Y-54683528D01*
X113357142Y-56183528D02*
X113357142Y-54683528D01*
X113357142Y-54683528D02*
X112999999Y-54683528D01*
X112999999Y-54683528D02*
X112785713Y-54754957D01*
X112785713Y-54754957D02*
X112642856Y-54897814D01*
X112642856Y-54897814D02*
X112571427Y-55040671D01*
X112571427Y-55040671D02*
X112499999Y-55326385D01*
X112499999Y-55326385D02*
X112499999Y-55540671D01*
X112499999Y-55540671D02*
X112571427Y-55826385D01*
X112571427Y-55826385D02*
X112642856Y-55969242D01*
X112642856Y-55969242D02*
X112785713Y-56112100D01*
X112785713Y-56112100D02*
X112999999Y-56183528D01*
X112999999Y-56183528D02*
X113357142Y-56183528D01*
X80285713Y-88183528D02*
X80999999Y-88183528D01*
X80999999Y-88183528D02*
X81071427Y-88897814D01*
X81071427Y-88897814D02*
X80999999Y-88826385D01*
X80999999Y-88826385D02*
X80857142Y-88754957D01*
X80857142Y-88754957D02*
X80499999Y-88754957D01*
X80499999Y-88754957D02*
X80357142Y-88826385D01*
X80357142Y-88826385D02*
X80285713Y-88897814D01*
X80285713Y-88897814D02*
X80214284Y-89040671D01*
X80214284Y-89040671D02*
X80214284Y-89397814D01*
X80214284Y-89397814D02*
X80285713Y-89540671D01*
X80285713Y-89540671D02*
X80357142Y-89612100D01*
X80357142Y-89612100D02*
X80499999Y-89683528D01*
X80499999Y-89683528D02*
X80857142Y-89683528D01*
X80857142Y-89683528D02*
X80999999Y-89612100D01*
X80999999Y-89612100D02*
X81071427Y-89540671D01*
X79785713Y-88183528D02*
X79285713Y-89683528D01*
X79285713Y-89683528D02*
X78785713Y-88183528D01*
X84142856Y-79254957D02*
X84285714Y-79183528D01*
X84285714Y-79183528D02*
X84499999Y-79183528D01*
X84499999Y-79183528D02*
X84714285Y-79254957D01*
X84714285Y-79254957D02*
X84857142Y-79397814D01*
X84857142Y-79397814D02*
X84928571Y-79540671D01*
X84928571Y-79540671D02*
X84999999Y-79826385D01*
X84999999Y-79826385D02*
X84999999Y-80040671D01*
X84999999Y-80040671D02*
X84928571Y-80326385D01*
X84928571Y-80326385D02*
X84857142Y-80469242D01*
X84857142Y-80469242D02*
X84714285Y-80612100D01*
X84714285Y-80612100D02*
X84499999Y-80683528D01*
X84499999Y-80683528D02*
X84357142Y-80683528D01*
X84357142Y-80683528D02*
X84142856Y-80612100D01*
X84142856Y-80612100D02*
X84071428Y-80540671D01*
X84071428Y-80540671D02*
X84071428Y-80040671D01*
X84071428Y-80040671D02*
X84357142Y-80040671D01*
X83428571Y-80683528D02*
X83428571Y-79183528D01*
X83428571Y-79183528D02*
X82571428Y-80683528D01*
X82571428Y-80683528D02*
X82571428Y-79183528D01*
X81857142Y-80683528D02*
X81857142Y-79183528D01*
X81857142Y-79183528D02*
X81499999Y-79183528D01*
X81499999Y-79183528D02*
X81285713Y-79254957D01*
X81285713Y-79254957D02*
X81142856Y-79397814D01*
X81142856Y-79397814D02*
X81071427Y-79540671D01*
X81071427Y-79540671D02*
X80999999Y-79826385D01*
X80999999Y-79826385D02*
X80999999Y-80040671D01*
X80999999Y-80040671D02*
X81071427Y-80326385D01*
X81071427Y-80326385D02*
X81142856Y-80469242D01*
X81142856Y-80469242D02*
X81285713Y-80612100D01*
X81285713Y-80612100D02*
X81499999Y-80683528D01*
X81499999Y-80683528D02*
X81857142Y-80683528D01*
D11*
X180000000Y-105000000D02*
G75*
G03*
X80000000Y-105000000I-50000000J0D01*
G01*
X80000000Y-105000000D02*
G75*
G03*
X180000000Y-105000000I50000000J0D01*
G01*
D10*
X177785713Y-81683528D02*
X178499999Y-81683528D01*
X178499999Y-81683528D02*
X178571427Y-82397814D01*
X178571427Y-82397814D02*
X178499999Y-82326385D01*
X178499999Y-82326385D02*
X178357142Y-82254957D01*
X178357142Y-82254957D02*
X177999999Y-82254957D01*
X177999999Y-82254957D02*
X177857142Y-82326385D01*
X177857142Y-82326385D02*
X177785713Y-82397814D01*
X177785713Y-82397814D02*
X177714284Y-82540671D01*
X177714284Y-82540671D02*
X177714284Y-82897814D01*
X177714284Y-82897814D02*
X177785713Y-83040671D01*
X177785713Y-83040671D02*
X177857142Y-83112100D01*
X177857142Y-83112100D02*
X177999999Y-83183528D01*
X177999999Y-83183528D02*
X178357142Y-83183528D01*
X178357142Y-83183528D02*
X178499999Y-83112100D01*
X178499999Y-83112100D02*
X178571427Y-83040671D01*
X177285713Y-81683528D02*
X176785713Y-83183528D01*
X176785713Y-83183528D02*
X176285713Y-81683528D01*
X47535714Y-99790671D02*
X47607142Y-99862100D01*
X47607142Y-99862100D02*
X47821428Y-99933528D01*
X47821428Y-99933528D02*
X47964285Y-99933528D01*
X47964285Y-99933528D02*
X48178571Y-99862100D01*
X48178571Y-99862100D02*
X48321428Y-99719242D01*
X48321428Y-99719242D02*
X48392857Y-99576385D01*
X48392857Y-99576385D02*
X48464285Y-99290671D01*
X48464285Y-99290671D02*
X48464285Y-99076385D01*
X48464285Y-99076385D02*
X48392857Y-98790671D01*
X48392857Y-98790671D02*
X48321428Y-98647814D01*
X48321428Y-98647814D02*
X48178571Y-98504957D01*
X48178571Y-98504957D02*
X47964285Y-98433528D01*
X47964285Y-98433528D02*
X47821428Y-98433528D01*
X47821428Y-98433528D02*
X47607142Y-98504957D01*
X47607142Y-98504957D02*
X47535714Y-98576385D01*
X182142856Y-89254957D02*
X182285714Y-89183528D01*
X182285714Y-89183528D02*
X182499999Y-89183528D01*
X182499999Y-89183528D02*
X182714285Y-89254957D01*
X182714285Y-89254957D02*
X182857142Y-89397814D01*
X182857142Y-89397814D02*
X182928571Y-89540671D01*
X182928571Y-89540671D02*
X182999999Y-89826385D01*
X182999999Y-89826385D02*
X182999999Y-90040671D01*
X182999999Y-90040671D02*
X182928571Y-90326385D01*
X182928571Y-90326385D02*
X182857142Y-90469242D01*
X182857142Y-90469242D02*
X182714285Y-90612100D01*
X182714285Y-90612100D02*
X182499999Y-90683528D01*
X182499999Y-90683528D02*
X182357142Y-90683528D01*
X182357142Y-90683528D02*
X182142856Y-90612100D01*
X182142856Y-90612100D02*
X182071428Y-90540671D01*
X182071428Y-90540671D02*
X182071428Y-90040671D01*
X182071428Y-90040671D02*
X182357142Y-90040671D01*
X181428571Y-90683528D02*
X181428571Y-89183528D01*
X181428571Y-89183528D02*
X180571428Y-90683528D01*
X180571428Y-90683528D02*
X180571428Y-89183528D01*
X179857142Y-90683528D02*
X179857142Y-89183528D01*
X179857142Y-89183528D02*
X179499999Y-89183528D01*
X179499999Y-89183528D02*
X179285713Y-89254957D01*
X179285713Y-89254957D02*
X179142856Y-89397814D01*
X179142856Y-89397814D02*
X179071427Y-89540671D01*
X179071427Y-89540671D02*
X178999999Y-89826385D01*
X178999999Y-89826385D02*
X178999999Y-90040671D01*
X178999999Y-90040671D02*
X179071427Y-90326385D01*
X179071427Y-90326385D02*
X179142856Y-90469242D01*
X179142856Y-90469242D02*
X179285713Y-90612100D01*
X179285713Y-90612100D02*
X179499999Y-90683528D01*
X179499999Y-90683528D02*
X179857142Y-90683528D01*
D12*
X139107142Y-175642507D02*
X137678571Y-175642507D01*
X138392857Y-178142507D02*
X138392857Y-175642507D01*
X136488095Y-178142507D02*
X136726190Y-178023460D01*
X136726190Y-178023460D02*
X136845237Y-177904412D01*
X136845237Y-177904412D02*
X136964285Y-177666317D01*
X136964285Y-177666317D02*
X136964285Y-176952031D01*
X136964285Y-176952031D02*
X136845237Y-176713936D01*
X136845237Y-176713936D02*
X136726190Y-176594888D01*
X136726190Y-176594888D02*
X136488095Y-176475840D01*
X136488095Y-176475840D02*
X136130952Y-176475840D01*
X136130952Y-176475840D02*
X135892856Y-176594888D01*
X135892856Y-176594888D02*
X135773809Y-176713936D01*
X135773809Y-176713936D02*
X135654761Y-176952031D01*
X135654761Y-176952031D02*
X135654761Y-177666317D01*
X135654761Y-177666317D02*
X135773809Y-177904412D01*
X135773809Y-177904412D02*
X135892856Y-178023460D01*
X135892856Y-178023460D02*
X136130952Y-178142507D01*
X136130952Y-178142507D02*
X136488095Y-178142507D01*
X134583332Y-178142507D02*
X134583332Y-176475840D01*
X134583332Y-176713936D02*
X134464285Y-176594888D01*
X134464285Y-176594888D02*
X134226190Y-176475840D01*
X134226190Y-176475840D02*
X133869047Y-176475840D01*
X133869047Y-176475840D02*
X133630951Y-176594888D01*
X133630951Y-176594888D02*
X133511904Y-176832983D01*
X133511904Y-176832983D02*
X133511904Y-178142507D01*
X133511904Y-176832983D02*
X133392856Y-176594888D01*
X133392856Y-176594888D02*
X133154761Y-176475840D01*
X133154761Y-176475840D02*
X132797618Y-176475840D01*
X132797618Y-176475840D02*
X132559523Y-176594888D01*
X132559523Y-176594888D02*
X132440475Y-176832983D01*
X132440475Y-176832983D02*
X132440475Y-178142507D01*
X130892857Y-178142507D02*
X131130952Y-178023460D01*
X131130952Y-178023460D02*
X131249999Y-177904412D01*
X131249999Y-177904412D02*
X131369047Y-177666317D01*
X131369047Y-177666317D02*
X131369047Y-176952031D01*
X131369047Y-176952031D02*
X131249999Y-176713936D01*
X131249999Y-176713936D02*
X131130952Y-176594888D01*
X131130952Y-176594888D02*
X130892857Y-176475840D01*
X130892857Y-176475840D02*
X130535714Y-176475840D01*
X130535714Y-176475840D02*
X130297618Y-176594888D01*
X130297618Y-176594888D02*
X130178571Y-176713936D01*
X130178571Y-176713936D02*
X130059523Y-176952031D01*
X130059523Y-176952031D02*
X130059523Y-177666317D01*
X130059523Y-177666317D02*
X130178571Y-177904412D01*
X130178571Y-177904412D02*
X130297618Y-178023460D01*
X130297618Y-178023460D02*
X130535714Y-178142507D01*
X130535714Y-178142507D02*
X130892857Y-178142507D01*
X129107142Y-178023460D02*
X128869047Y-178142507D01*
X128869047Y-178142507D02*
X128392856Y-178142507D01*
X128392856Y-178142507D02*
X128154761Y-178023460D01*
X128154761Y-178023460D02*
X128035713Y-177785364D01*
X128035713Y-177785364D02*
X128035713Y-177666317D01*
X128035713Y-177666317D02*
X128154761Y-177428221D01*
X128154761Y-177428221D02*
X128392856Y-177309174D01*
X128392856Y-177309174D02*
X128749999Y-177309174D01*
X128749999Y-177309174D02*
X128988094Y-177190126D01*
X128988094Y-177190126D02*
X129107142Y-176952031D01*
X129107142Y-176952031D02*
X129107142Y-176832983D01*
X129107142Y-176832983D02*
X128988094Y-176594888D01*
X128988094Y-176594888D02*
X128749999Y-176475840D01*
X128749999Y-176475840D02*
X128392856Y-176475840D01*
X128392856Y-176475840D02*
X128154761Y-176594888D01*
X126964284Y-178142507D02*
X126964284Y-175642507D01*
X125892856Y-178142507D02*
X125892856Y-176832983D01*
X125892856Y-176832983D02*
X126011903Y-176594888D01*
X126011903Y-176594888D02*
X126249999Y-176475840D01*
X126249999Y-176475840D02*
X126607142Y-176475840D01*
X126607142Y-176475840D02*
X126845237Y-176594888D01*
X126845237Y-176594888D02*
X126964284Y-176713936D01*
X124702379Y-178142507D02*
X124702379Y-176475840D01*
X124702379Y-175642507D02*
X124821427Y-175761555D01*
X124821427Y-175761555D02*
X124702379Y-175880602D01*
X124702379Y-175880602D02*
X124583332Y-175761555D01*
X124583332Y-175761555D02*
X124702379Y-175642507D01*
X124702379Y-175642507D02*
X124702379Y-175880602D01*
X123511903Y-178142507D02*
X123511903Y-175642507D01*
X123511903Y-176594888D02*
X123273808Y-176475840D01*
X123273808Y-176475840D02*
X122797618Y-176475840D01*
X122797618Y-176475840D02*
X122559522Y-176594888D01*
X122559522Y-176594888D02*
X122440475Y-176713936D01*
X122440475Y-176713936D02*
X122321427Y-176952031D01*
X122321427Y-176952031D02*
X122321427Y-177666317D01*
X122321427Y-177666317D02*
X122440475Y-177904412D01*
X122440475Y-177904412D02*
X122559522Y-178023460D01*
X122559522Y-178023460D02*
X122797618Y-178142507D01*
X122797618Y-178142507D02*
X123273808Y-178142507D01*
X123273808Y-178142507D02*
X123511903Y-178023460D01*
X121249998Y-178142507D02*
X121249998Y-176475840D01*
X121249998Y-175642507D02*
X121369046Y-175761555D01*
X121369046Y-175761555D02*
X121249998Y-175880602D01*
X121249998Y-175880602D02*
X121130951Y-175761555D01*
X121130951Y-175761555D02*
X121249998Y-175642507D01*
X121249998Y-175642507D02*
X121249998Y-175880602D01*
D13*
X130166666Y-168930561D02*
X127499999Y-168930561D01*
X130499999Y-171930561D02*
X126833332Y-171930561D01*
X131499999Y-174263894D02*
X126166666Y-174263894D01*
X130499999Y-170263894D02*
X130499999Y-171930561D01*
X130499999Y-170263894D02*
X126833332Y-170263894D01*
X126833332Y-170263894D02*
X126833332Y-171930561D01*
X132833332Y-166597227D02*
X132833332Y-171597227D01*
X132833332Y-171597227D02*
X131499999Y-172930561D01*
X128166666Y-167597227D02*
X126166666Y-169597227D01*
X126166666Y-167597227D02*
X127499999Y-168263894D01*
X130833332Y-167597227D02*
X130166666Y-168263894D01*
X130166666Y-168263894D02*
X131833332Y-169930561D01*
X127166666Y-166597227D02*
X128166666Y-167597227D01*
X129833332Y-172597227D02*
X129833332Y-173597227D01*
X128499999Y-166263894D02*
X127833332Y-168263894D01*
X127499999Y-172263894D02*
X128166666Y-173597227D01*
X131833332Y-167930561D02*
X132499999Y-169263894D01*
X133166666Y-171597227D02*
X134166666Y-174263894D01*
X131166666Y-166930561D02*
X129166666Y-166597227D01*
X129166666Y-166597227D02*
X130166666Y-168597227D01*
X133833332Y-168263894D02*
X134499999Y-169930561D01*
X132833332Y-169930561D02*
X133499999Y-173263894D01*
D10*
X48392857Y-105183528D02*
X48392857Y-103683528D01*
X48392857Y-103683528D02*
X48035714Y-103683528D01*
X48035714Y-103683528D02*
X47821428Y-103754957D01*
X47821428Y-103754957D02*
X47678571Y-103897814D01*
X47678571Y-103897814D02*
X47607142Y-104040671D01*
X47607142Y-104040671D02*
X47535714Y-104326385D01*
X47535714Y-104326385D02*
X47535714Y-104540671D01*
X47535714Y-104540671D02*
X47607142Y-104826385D01*
X47607142Y-104826385D02*
X47678571Y-104969242D01*
X47678571Y-104969242D02*
X47821428Y-105112100D01*
X47821428Y-105112100D02*
X48035714Y-105183528D01*
X48035714Y-105183528D02*
X48392857Y-105183528D01*
X166785714Y-177897814D02*
X167285714Y-177897814D01*
X167285714Y-178683528D02*
X167285714Y-177183528D01*
X167285714Y-177183528D02*
X166571428Y-177183528D01*
X173892857Y-35897814D02*
X173678571Y-35969242D01*
X173678571Y-35969242D02*
X173607142Y-36040671D01*
X173607142Y-36040671D02*
X173535714Y-36183528D01*
X173535714Y-36183528D02*
X173535714Y-36397814D01*
X173535714Y-36397814D02*
X173607142Y-36540671D01*
X173607142Y-36540671D02*
X173678571Y-36612100D01*
X173678571Y-36612100D02*
X173821428Y-36683528D01*
X173821428Y-36683528D02*
X174392857Y-36683528D01*
X174392857Y-36683528D02*
X174392857Y-35183528D01*
X174392857Y-35183528D02*
X173892857Y-35183528D01*
X173892857Y-35183528D02*
X173750000Y-35254957D01*
X173750000Y-35254957D02*
X173678571Y-35326385D01*
X173678571Y-35326385D02*
X173607142Y-35469242D01*
X173607142Y-35469242D02*
X173607142Y-35612100D01*
X173607142Y-35612100D02*
X173678571Y-35754957D01*
X173678571Y-35754957D02*
X173750000Y-35826385D01*
X173750000Y-35826385D02*
X173892857Y-35897814D01*
X173892857Y-35897814D02*
X174392857Y-35897814D01*
X130321428Y-115397814D02*
X129821428Y-115397814D01*
X129607142Y-116183528D02*
X130321428Y-116183528D01*
X130321428Y-116183528D02*
X130321428Y-114683528D01*
X130321428Y-114683528D02*
X129607142Y-114683528D01*
X163321428Y-179897814D02*
X162821428Y-179897814D01*
X162607142Y-180683528D02*
X163321428Y-180683528D01*
X163321428Y-180683528D02*
X163321428Y-179183528D01*
X163321428Y-179183528D02*
X162607142Y-179183528D01*
X129892857Y-94397814D02*
X129678571Y-94469242D01*
X129678571Y-94469242D02*
X129607142Y-94540671D01*
X129607142Y-94540671D02*
X129535714Y-94683528D01*
X129535714Y-94683528D02*
X129535714Y-94897814D01*
X129535714Y-94897814D02*
X129607142Y-95040671D01*
X129607142Y-95040671D02*
X129678571Y-95112100D01*
X129678571Y-95112100D02*
X129821428Y-95183528D01*
X129821428Y-95183528D02*
X130392857Y-95183528D01*
X130392857Y-95183528D02*
X130392857Y-93683528D01*
X130392857Y-93683528D02*
X129892857Y-93683528D01*
X129892857Y-93683528D02*
X129750000Y-93754957D01*
X129750000Y-93754957D02*
X129678571Y-93826385D01*
X129678571Y-93826385D02*
X129607142Y-93969242D01*
X129607142Y-93969242D02*
X129607142Y-94112100D01*
X129607142Y-94112100D02*
X129678571Y-94254957D01*
X129678571Y-94254957D02*
X129750000Y-94326385D01*
X129750000Y-94326385D02*
X129892857Y-94397814D01*
X129892857Y-94397814D02*
X130392857Y-94397814D01*
X139357142Y-99754957D02*
X138642857Y-99754957D01*
X139499999Y-100183528D02*
X138999999Y-98683528D01*
X138999999Y-98683528D02*
X138499999Y-100183528D01*
D14*
X133783333Y-180200859D02*
X133783333Y-179200859D01*
X133783333Y-179200859D02*
X133545238Y-179200859D01*
X133545238Y-179200859D02*
X133402381Y-179248478D01*
X133402381Y-179248478D02*
X133307143Y-179343716D01*
X133307143Y-179343716D02*
X133259524Y-179438954D01*
X133259524Y-179438954D02*
X133211905Y-179629430D01*
X133211905Y-179629430D02*
X133211905Y-179772287D01*
X133211905Y-179772287D02*
X133259524Y-179962763D01*
X133259524Y-179962763D02*
X133307143Y-180058001D01*
X133307143Y-180058001D02*
X133402381Y-180153240D01*
X133402381Y-180153240D02*
X133545238Y-180200859D01*
X133545238Y-180200859D02*
X133783333Y-180200859D01*
X132402381Y-180153240D02*
X132497619Y-180200859D01*
X132497619Y-180200859D02*
X132688095Y-180200859D01*
X132688095Y-180200859D02*
X132783333Y-180153240D01*
X132783333Y-180153240D02*
X132830952Y-180058001D01*
X132830952Y-180058001D02*
X132830952Y-179677049D01*
X132830952Y-179677049D02*
X132783333Y-179581811D01*
X132783333Y-179581811D02*
X132688095Y-179534192D01*
X132688095Y-179534192D02*
X132497619Y-179534192D01*
X132497619Y-179534192D02*
X132402381Y-179581811D01*
X132402381Y-179581811D02*
X132354762Y-179677049D01*
X132354762Y-179677049D02*
X132354762Y-179772287D01*
X132354762Y-179772287D02*
X132830952Y-179867525D01*
X131973809Y-180153240D02*
X131878571Y-180200859D01*
X131878571Y-180200859D02*
X131688095Y-180200859D01*
X131688095Y-180200859D02*
X131592857Y-180153240D01*
X131592857Y-180153240D02*
X131545238Y-180058001D01*
X131545238Y-180058001D02*
X131545238Y-180010382D01*
X131545238Y-180010382D02*
X131592857Y-179915144D01*
X131592857Y-179915144D02*
X131688095Y-179867525D01*
X131688095Y-179867525D02*
X131830952Y-179867525D01*
X131830952Y-179867525D02*
X131926190Y-179819906D01*
X131926190Y-179819906D02*
X131973809Y-179724668D01*
X131973809Y-179724668D02*
X131973809Y-179677049D01*
X131973809Y-179677049D02*
X131926190Y-179581811D01*
X131926190Y-179581811D02*
X131830952Y-179534192D01*
X131830952Y-179534192D02*
X131688095Y-179534192D01*
X131688095Y-179534192D02*
X131592857Y-179581811D01*
X131116666Y-180200859D02*
X131116666Y-179534192D01*
X131116666Y-179200859D02*
X131164285Y-179248478D01*
X131164285Y-179248478D02*
X131116666Y-179296097D01*
X131116666Y-179296097D02*
X131069047Y-179248478D01*
X131069047Y-179248478D02*
X131116666Y-179200859D01*
X131116666Y-179200859D02*
X131116666Y-179296097D01*
X130211905Y-179534192D02*
X130211905Y-180343716D01*
X130211905Y-180343716D02*
X130259524Y-180438954D01*
X130259524Y-180438954D02*
X130307143Y-180486573D01*
X130307143Y-180486573D02*
X130402381Y-180534192D01*
X130402381Y-180534192D02*
X130545238Y-180534192D01*
X130545238Y-180534192D02*
X130640476Y-180486573D01*
X130211905Y-180153240D02*
X130307143Y-180200859D01*
X130307143Y-180200859D02*
X130497619Y-180200859D01*
X130497619Y-180200859D02*
X130592857Y-180153240D01*
X130592857Y-180153240D02*
X130640476Y-180105620D01*
X130640476Y-180105620D02*
X130688095Y-180010382D01*
X130688095Y-180010382D02*
X130688095Y-179724668D01*
X130688095Y-179724668D02*
X130640476Y-179629430D01*
X130640476Y-179629430D02*
X130592857Y-179581811D01*
X130592857Y-179581811D02*
X130497619Y-179534192D01*
X130497619Y-179534192D02*
X130307143Y-179534192D01*
X130307143Y-179534192D02*
X130211905Y-179581811D01*
X129735714Y-179534192D02*
X129735714Y-180200859D01*
X129735714Y-179629430D02*
X129688095Y-179581811D01*
X129688095Y-179581811D02*
X129592857Y-179534192D01*
X129592857Y-179534192D02*
X129450000Y-179534192D01*
X129450000Y-179534192D02*
X129354762Y-179581811D01*
X129354762Y-179581811D02*
X129307143Y-179677049D01*
X129307143Y-179677049D02*
X129307143Y-180200859D01*
X128450000Y-180153240D02*
X128545238Y-180200859D01*
X128545238Y-180200859D02*
X128735714Y-180200859D01*
X128735714Y-180200859D02*
X128830952Y-180153240D01*
X128830952Y-180153240D02*
X128878571Y-180058001D01*
X128878571Y-180058001D02*
X128878571Y-179677049D01*
X128878571Y-179677049D02*
X128830952Y-179581811D01*
X128830952Y-179581811D02*
X128735714Y-179534192D01*
X128735714Y-179534192D02*
X128545238Y-179534192D01*
X128545238Y-179534192D02*
X128450000Y-179581811D01*
X128450000Y-179581811D02*
X128402381Y-179677049D01*
X128402381Y-179677049D02*
X128402381Y-179772287D01*
X128402381Y-179772287D02*
X128878571Y-179867525D01*
X127545238Y-180200859D02*
X127545238Y-179200859D01*
X127545238Y-180153240D02*
X127640476Y-180200859D01*
X127640476Y-180200859D02*
X127830952Y-180200859D01*
X127830952Y-180200859D02*
X127926190Y-180153240D01*
X127926190Y-180153240D02*
X127973809Y-180105620D01*
X127973809Y-180105620D02*
X128021428Y-180010382D01*
X128021428Y-180010382D02*
X128021428Y-179724668D01*
X128021428Y-179724668D02*
X127973809Y-179629430D01*
X127973809Y-179629430D02*
X127926190Y-179581811D01*
X127926190Y-179581811D02*
X127830952Y-179534192D01*
X127830952Y-179534192D02*
X127640476Y-179534192D01*
X127640476Y-179534192D02*
X127545238Y-179581811D01*
X126307142Y-180200859D02*
X126307142Y-179200859D01*
X126307142Y-179581811D02*
X126211904Y-179534192D01*
X126211904Y-179534192D02*
X126021428Y-179534192D01*
X126021428Y-179534192D02*
X125926190Y-179581811D01*
X125926190Y-179581811D02*
X125878571Y-179629430D01*
X125878571Y-179629430D02*
X125830952Y-179724668D01*
X125830952Y-179724668D02*
X125830952Y-180010382D01*
X125830952Y-180010382D02*
X125878571Y-180105620D01*
X125878571Y-180105620D02*
X125926190Y-180153240D01*
X125926190Y-180153240D02*
X126021428Y-180200859D01*
X126021428Y-180200859D02*
X126211904Y-180200859D01*
X126211904Y-180200859D02*
X126307142Y-180153240D01*
X125497618Y-179534192D02*
X125259523Y-180200859D01*
X125021428Y-179534192D02*
X125259523Y-180200859D01*
X125259523Y-180200859D02*
X125354761Y-180438954D01*
X125354761Y-180438954D02*
X125402380Y-180486573D01*
X125402380Y-180486573D02*
X125497618Y-180534192D01*
X135140477Y-181334668D02*
X135188096Y-181287049D01*
X135188096Y-181287049D02*
X135283334Y-181239430D01*
X135283334Y-181239430D02*
X135378572Y-181239430D01*
X135378572Y-181239430D02*
X135473810Y-181287049D01*
X135473810Y-181287049D02*
X135521429Y-181334668D01*
X135521429Y-181334668D02*
X135569048Y-181429906D01*
X135569048Y-181429906D02*
X135569048Y-181525144D01*
X135569048Y-181525144D02*
X135521429Y-181620382D01*
X135521429Y-181620382D02*
X135473810Y-181668001D01*
X135473810Y-181668001D02*
X135378572Y-181715620D01*
X135378572Y-181715620D02*
X135283334Y-181715620D01*
X135283334Y-181715620D02*
X135188096Y-181668001D01*
X135188096Y-181668001D02*
X135140477Y-181620382D01*
X135140477Y-181239430D02*
X135140477Y-181620382D01*
X135140477Y-181620382D02*
X135092858Y-181668001D01*
X135092858Y-181668001D02*
X135045239Y-181668001D01*
X135045239Y-181668001D02*
X134950000Y-181620382D01*
X134950000Y-181620382D02*
X134902381Y-181525144D01*
X134902381Y-181525144D02*
X134902381Y-181287049D01*
X134902381Y-181287049D02*
X134997620Y-181144192D01*
X134997620Y-181144192D02*
X135140477Y-181048954D01*
X135140477Y-181048954D02*
X135330953Y-181001335D01*
X135330953Y-181001335D02*
X135521429Y-181048954D01*
X135521429Y-181048954D02*
X135664286Y-181144192D01*
X135664286Y-181144192D02*
X135759524Y-181287049D01*
X135759524Y-181287049D02*
X135807143Y-181477525D01*
X135807143Y-181477525D02*
X135759524Y-181668001D01*
X135759524Y-181668001D02*
X135664286Y-181810859D01*
X135664286Y-181810859D02*
X135521429Y-181906097D01*
X135521429Y-181906097D02*
X135330953Y-181953716D01*
X135330953Y-181953716D02*
X135140477Y-181906097D01*
X135140477Y-181906097D02*
X134997620Y-181810859D01*
X134045239Y-181763240D02*
X134140477Y-181810859D01*
X134140477Y-181810859D02*
X134330953Y-181810859D01*
X134330953Y-181810859D02*
X134426191Y-181763240D01*
X134426191Y-181763240D02*
X134473810Y-181715620D01*
X134473810Y-181715620D02*
X134521429Y-181620382D01*
X134521429Y-181620382D02*
X134521429Y-181334668D01*
X134521429Y-181334668D02*
X134473810Y-181239430D01*
X134473810Y-181239430D02*
X134426191Y-181191811D01*
X134426191Y-181191811D02*
X134330953Y-181144192D01*
X134330953Y-181144192D02*
X134140477Y-181144192D01*
X134140477Y-181144192D02*
X134045239Y-181191811D01*
X133188096Y-181810859D02*
X133188096Y-181287049D01*
X133188096Y-181287049D02*
X133235715Y-181191811D01*
X133235715Y-181191811D02*
X133330953Y-181144192D01*
X133330953Y-181144192D02*
X133521429Y-181144192D01*
X133521429Y-181144192D02*
X133616667Y-181191811D01*
X133188096Y-181763240D02*
X133283334Y-181810859D01*
X133283334Y-181810859D02*
X133521429Y-181810859D01*
X133521429Y-181810859D02*
X133616667Y-181763240D01*
X133616667Y-181763240D02*
X133664286Y-181668001D01*
X133664286Y-181668001D02*
X133664286Y-181572763D01*
X133664286Y-181572763D02*
X133616667Y-181477525D01*
X133616667Y-181477525D02*
X133521429Y-181429906D01*
X133521429Y-181429906D02*
X133283334Y-181429906D01*
X133283334Y-181429906D02*
X133188096Y-181382287D01*
X132854762Y-181144192D02*
X132473810Y-181144192D01*
X132711905Y-180810859D02*
X132711905Y-181668001D01*
X132711905Y-181668001D02*
X132664286Y-181763240D01*
X132664286Y-181763240D02*
X132569048Y-181810859D01*
X132569048Y-181810859D02*
X132473810Y-181810859D01*
X132378572Y-181906097D02*
X131616667Y-181906097D01*
X131378571Y-181144192D02*
X131378571Y-181810859D01*
X131378571Y-181239430D02*
X131330952Y-181191811D01*
X131330952Y-181191811D02*
X131235714Y-181144192D01*
X131235714Y-181144192D02*
X131092857Y-181144192D01*
X131092857Y-181144192D02*
X130997619Y-181191811D01*
X130997619Y-181191811D02*
X130950000Y-181287049D01*
X130950000Y-181287049D02*
X130950000Y-181810859D01*
X130092857Y-181763240D02*
X130188095Y-181810859D01*
X130188095Y-181810859D02*
X130378571Y-181810859D01*
X130378571Y-181810859D02*
X130473809Y-181763240D01*
X130473809Y-181763240D02*
X130521428Y-181668001D01*
X130521428Y-181668001D02*
X130521428Y-181287049D01*
X130521428Y-181287049D02*
X130473809Y-181191811D01*
X130473809Y-181191811D02*
X130378571Y-181144192D01*
X130378571Y-181144192D02*
X130188095Y-181144192D01*
X130188095Y-181144192D02*
X130092857Y-181191811D01*
X130092857Y-181191811D02*
X130045238Y-181287049D01*
X130045238Y-181287049D02*
X130045238Y-181382287D01*
X130045238Y-181382287D02*
X130521428Y-181477525D01*
X129616666Y-181810859D02*
X129616666Y-180810859D01*
X129521428Y-181429906D02*
X129235714Y-181810859D01*
X129235714Y-181144192D02*
X129616666Y-181525144D01*
X128664285Y-181810859D02*
X128759523Y-181763240D01*
X128759523Y-181763240D02*
X128807142Y-181715620D01*
X128807142Y-181715620D02*
X128854761Y-181620382D01*
X128854761Y-181620382D02*
X128854761Y-181334668D01*
X128854761Y-181334668D02*
X128807142Y-181239430D01*
X128807142Y-181239430D02*
X128759523Y-181191811D01*
X128759523Y-181191811D02*
X128664285Y-181144192D01*
X128664285Y-181144192D02*
X128521428Y-181144192D01*
X128521428Y-181144192D02*
X128426190Y-181191811D01*
X128426190Y-181191811D02*
X128378571Y-181239430D01*
X128378571Y-181239430D02*
X128330952Y-181334668D01*
X128330952Y-181334668D02*
X128330952Y-181620382D01*
X128330952Y-181620382D02*
X128378571Y-181715620D01*
X128378571Y-181715620D02*
X128426190Y-181763240D01*
X128426190Y-181763240D02*
X128521428Y-181810859D01*
X128521428Y-181810859D02*
X128664285Y-181810859D01*
X127902380Y-181144192D02*
X127902380Y-181810859D01*
X127902380Y-181239430D02*
X127854761Y-181191811D01*
X127854761Y-181191811D02*
X127759523Y-181144192D01*
X127759523Y-181144192D02*
X127616666Y-181144192D01*
X127616666Y-181144192D02*
X127521428Y-181191811D01*
X127521428Y-181191811D02*
X127473809Y-181287049D01*
X127473809Y-181287049D02*
X127473809Y-181810859D01*
X126616666Y-181763240D02*
X126711904Y-181810859D01*
X126711904Y-181810859D02*
X126902380Y-181810859D01*
X126902380Y-181810859D02*
X126997618Y-181763240D01*
X126997618Y-181763240D02*
X127045237Y-181668001D01*
X127045237Y-181668001D02*
X127045237Y-181287049D01*
X127045237Y-181287049D02*
X126997618Y-181191811D01*
X126997618Y-181191811D02*
X126902380Y-181144192D01*
X126902380Y-181144192D02*
X126711904Y-181144192D01*
X126711904Y-181144192D02*
X126616666Y-181191811D01*
X126616666Y-181191811D02*
X126569047Y-181287049D01*
X126569047Y-181287049D02*
X126569047Y-181382287D01*
X126569047Y-181382287D02*
X127045237Y-181477525D01*
X126140475Y-181810859D02*
X126140475Y-180810859D01*
X126045237Y-181429906D02*
X125759523Y-181810859D01*
X125759523Y-181144192D02*
X126140475Y-181525144D01*
X125188094Y-181810859D02*
X125283332Y-181763240D01*
X125283332Y-181763240D02*
X125330951Y-181715620D01*
X125330951Y-181715620D02*
X125378570Y-181620382D01*
X125378570Y-181620382D02*
X125378570Y-181334668D01*
X125378570Y-181334668D02*
X125330951Y-181239430D01*
X125330951Y-181239430D02*
X125283332Y-181191811D01*
X125283332Y-181191811D02*
X125188094Y-181144192D01*
X125188094Y-181144192D02*
X125045237Y-181144192D01*
X125045237Y-181144192D02*
X124949999Y-181191811D01*
X124949999Y-181191811D02*
X124902380Y-181239430D01*
X124902380Y-181239430D02*
X124854761Y-181334668D01*
X124854761Y-181334668D02*
X124854761Y-181620382D01*
X124854761Y-181620382D02*
X124902380Y-181715620D01*
X124902380Y-181715620D02*
X124949999Y-181763240D01*
X124949999Y-181763240D02*
X125045237Y-181810859D01*
X125045237Y-181810859D02*
X125188094Y-181810859D01*
X124426189Y-181144192D02*
X124426189Y-181810859D01*
X124426189Y-181239430D02*
X124378570Y-181191811D01*
X124378570Y-181191811D02*
X124283332Y-181144192D01*
X124283332Y-181144192D02*
X124140475Y-181144192D01*
X124140475Y-181144192D02*
X124045237Y-181191811D01*
X124045237Y-181191811D02*
X123997618Y-181287049D01*
X123997618Y-181287049D02*
X123997618Y-181810859D01*
X123140475Y-181763240D02*
X123235713Y-181810859D01*
X123235713Y-181810859D02*
X123426189Y-181810859D01*
X123426189Y-181810859D02*
X123521427Y-181763240D01*
X123521427Y-181763240D02*
X123569046Y-181668001D01*
X123569046Y-181668001D02*
X123569046Y-181287049D01*
X123569046Y-181287049D02*
X123521427Y-181191811D01*
X123521427Y-181191811D02*
X123426189Y-181144192D01*
X123426189Y-181144192D02*
X123235713Y-181144192D01*
X123235713Y-181144192D02*
X123140475Y-181191811D01*
X123140475Y-181191811D02*
X123092856Y-181287049D01*
X123092856Y-181287049D02*
X123092856Y-181382287D01*
X123092856Y-181382287D02*
X123569046Y-181477525D01*
D10*
X120535714Y-100040671D02*
X120607142Y-100112100D01*
X120607142Y-100112100D02*
X120821428Y-100183528D01*
X120821428Y-100183528D02*
X120964285Y-100183528D01*
X120964285Y-100183528D02*
X121178571Y-100112100D01*
X121178571Y-100112100D02*
X121321428Y-99969242D01*
X121321428Y-99969242D02*
X121392857Y-99826385D01*
X121392857Y-99826385D02*
X121464285Y-99540671D01*
X121464285Y-99540671D02*
X121464285Y-99326385D01*
X121464285Y-99326385D02*
X121392857Y-99040671D01*
X121392857Y-99040671D02*
X121321428Y-98897814D01*
X121321428Y-98897814D02*
X121178571Y-98754957D01*
X121178571Y-98754957D02*
X120964285Y-98683528D01*
X120964285Y-98683528D02*
X120821428Y-98683528D01*
X120821428Y-98683528D02*
X120607142Y-98754957D01*
X120607142Y-98754957D02*
X120535714Y-98826385D01*
X178357142Y-38754957D02*
X177642857Y-38754957D01*
X178499999Y-39183528D02*
X177999999Y-37683528D01*
X177999999Y-37683528D02*
X177499999Y-39183528D01*
X138785714Y-110397814D02*
X139285714Y-110397814D01*
X139285714Y-111183528D02*
X139285714Y-109683528D01*
X139285714Y-109683528D02*
X138571428Y-109683528D01*
X121392857Y-111183528D02*
X121392857Y-109683528D01*
X121392857Y-109683528D02*
X121035714Y-109683528D01*
X121035714Y-109683528D02*
X120821428Y-109754957D01*
X120821428Y-109754957D02*
X120678571Y-109897814D01*
X120678571Y-109897814D02*
X120607142Y-110040671D01*
X120607142Y-110040671D02*
X120535714Y-110326385D01*
X120535714Y-110326385D02*
X120535714Y-110540671D01*
X120535714Y-110540671D02*
X120607142Y-110826385D01*
X120607142Y-110826385D02*
X120678571Y-110969242D01*
X120678571Y-110969242D02*
X120821428Y-111112100D01*
X120821428Y-111112100D02*
X121035714Y-111183528D01*
X121035714Y-111183528D02*
X121392857Y-111183528D01*
D15*
%TO.C,H18*%
X118718240Y-62082738D02*
G75*
G03*
X114218240Y-62082738I-2250000J0D01*
G01*
X114218240Y-62082738D02*
G75*
G03*
X118718240Y-62082738I2250000J0D01*
G01*
%TO.C,H24*%
X175167262Y-118531760D02*
G75*
G03*
X170667262Y-118531760I-2250000J0D01*
G01*
X170667262Y-118531760D02*
G75*
G03*
X175167262Y-118531760I2250000J0D01*
G01*
%TO.C,H17*%
X111471312Y-65084513D02*
G75*
G03*
X106971314Y-65084513I-2249999J0D01*
G01*
X106971314Y-65084513D02*
G75*
G03*
X111471312Y-65084513I2249999J0D01*
G01*
%TO.C,H5*%
X172165486Y-84221313D02*
G75*
G03*
X167665488Y-84221313I-2249999J0D01*
G01*
X167665488Y-84221313D02*
G75*
G03*
X172165486Y-84221313I2249999J0D01*
G01*
%TO.C,H6*%
X124704810Y-101250001D02*
G75*
G03*
X122304810Y-101250001I-1200000J0D01*
G01*
X122304810Y-101250001D02*
G75*
G03*
X124704810Y-101250001I1200000J0D01*
G01*
%TO.C,H13*%
X137695190Y-108750000D02*
G75*
G03*
X135295190Y-108750000I-1200000J0D01*
G01*
X135295190Y-108750000D02*
G75*
G03*
X137695190Y-108750000I1200000J0D01*
G01*
D16*
%TO.C,H32*%
X62673631Y-74322616D02*
G75*
G03*
X61816002Y-72837159I-3812333J-1210747D01*
G01*
X61816002Y-78229593D02*
G75*
G03*
X62673631Y-76744136I-2954704J2696204D01*
G01*
X59718905Y-71626400D02*
G75*
G03*
X58003647Y-71626400I-857629J-3906959D01*
G01*
X58003647Y-79440352D02*
G75*
G03*
X59718905Y-79440352I857629J3906959D01*
G01*
X55906550Y-72837160D02*
G75*
G03*
X55048921Y-74322616I2954706J-2696206D01*
G01*
X55048920Y-76744136D02*
G75*
G03*
X55906549Y-78229593I3812336J1210750D01*
G01*
D15*
X66611276Y-75533376D02*
G75*
G03*
X51111276Y-75533376I-7750000J0D01*
G01*
X51111276Y-75533376D02*
G75*
G03*
X66611276Y-75533376I7750000J0D01*
G01*
D16*
%TO.C,H31*%
X104345731Y-174927964D02*
G75*
G03*
X103488102Y-173442507I-3812333J-1210747D01*
G01*
X103488102Y-178834941D02*
G75*
G03*
X104345731Y-177349484I-2954704J2696204D01*
G01*
X101391005Y-172231748D02*
G75*
G03*
X99675747Y-172231748I-857629J-3906959D01*
G01*
X99675747Y-180045700D02*
G75*
G03*
X101391005Y-180045700I857629J3906959D01*
G01*
X97578650Y-173442508D02*
G75*
G03*
X96721021Y-174927964I2954706J-2696206D01*
G01*
X96721020Y-177349484D02*
G75*
G03*
X97578649Y-178834941I3812336J1210750D01*
G01*
D15*
X108283376Y-176138724D02*
G75*
G03*
X92783376Y-176138724I-7750000J0D01*
G01*
X92783376Y-176138724D02*
G75*
G03*
X108283376Y-176138724I7750000J0D01*
G01*
%TO.C,H26*%
X111471312Y-144915487D02*
G75*
G03*
X106971314Y-144915487I-2249999J0D01*
G01*
X106971314Y-144915487D02*
G75*
G03*
X111471312Y-144915487I2249999J0D01*
G01*
%TO.C,H8*%
X124704810Y-108750000D02*
G75*
G03*
X122304810Y-108750000I-1200000J0D01*
G01*
X122304810Y-108750000D02*
G75*
G03*
X124704810Y-108750000I1200000J0D01*
G01*
%TO.C,H20*%
X92334512Y-84221313D02*
G75*
G03*
X87834514Y-84221313I-2249999J0D01*
G01*
X87834514Y-84221313D02*
G75*
G03*
X92334512Y-84221313I2249999J0D01*
G01*
%TO.C,H4*%
X176752512Y-33217730D02*
G75*
G03*
X174352512Y-33217730I-1200000J0D01*
G01*
X174352512Y-33217730D02*
G75*
G03*
X176752512Y-33217730I1200000J0D01*
G01*
%TO.C,H21*%
X92334512Y-125778687D02*
G75*
G03*
X87834514Y-125778687I-2249999J0D01*
G01*
X87834514Y-125778687D02*
G75*
G03*
X92334512Y-125778687I2249999J0D01*
G01*
D16*
%TO.C,H30*%
X204951079Y-133255864D02*
G75*
G03*
X204093450Y-131770407I-3812333J-1210747D01*
G01*
X204093450Y-137162841D02*
G75*
G03*
X204951079Y-135677384I-2954704J2696204D01*
G01*
X201996353Y-130559648D02*
G75*
G03*
X200281095Y-130559648I-857629J-3906959D01*
G01*
X200281095Y-138373600D02*
G75*
G03*
X201996353Y-138373600I857629J3906959D01*
G01*
X198183998Y-131770408D02*
G75*
G03*
X197326369Y-133255864I2954706J-2696206D01*
G01*
X197326368Y-135677384D02*
G75*
G03*
X198183997Y-137162841I3812336J1210750D01*
G01*
D15*
X208888724Y-134466624D02*
G75*
G03*
X193388724Y-134466624I-7750000J0D01*
G01*
X193388724Y-134466624D02*
G75*
G03*
X208888724Y-134466624I7750000J0D01*
G01*
%TO.C,H28*%
X172165486Y-125778687D02*
G75*
G03*
X167665488Y-125778687I-2249999J0D01*
G01*
X167665488Y-125778687D02*
G75*
G03*
X172165486Y-125778687I2249999J0D01*
G01*
D16*
%TO.C,H29*%
X163278979Y-32650516D02*
G75*
G03*
X162421350Y-31165059I-3812333J-1210747D01*
G01*
X162421350Y-36557493D02*
G75*
G03*
X163278979Y-35072036I-2954704J2696204D01*
G01*
X160324253Y-29954300D02*
G75*
G03*
X158608995Y-29954300I-857629J-3906959D01*
G01*
X158608995Y-37768252D02*
G75*
G03*
X160324253Y-37768252I857629J3906959D01*
G01*
X156511898Y-31165060D02*
G75*
G03*
X155654269Y-32650516I2954706J-2696206D01*
G01*
X155654268Y-35072036D02*
G75*
G03*
X156511897Y-36557493I3812336J1210750D01*
G01*
D15*
X167216624Y-33861276D02*
G75*
G03*
X151716624Y-33861276I-7750000J0D01*
G01*
X151716624Y-33861276D02*
G75*
G03*
X167216624Y-33861276I7750000J0D01*
G01*
%TO.C,H10*%
X175167262Y-91468240D02*
G75*
G03*
X170667262Y-91468240I-2250000J0D01*
G01*
X170667262Y-91468240D02*
G75*
G03*
X175167262Y-91468240I2250000J0D01*
G01*
%TO.C,H22*%
X118718240Y-147917262D02*
G75*
G03*
X114218240Y-147917262I-2250000J0D01*
G01*
X114218240Y-147917262D02*
G75*
G03*
X118718240Y-147917262I2250000J0D01*
G01*
%TO.C,H12*%
X165550639Y-182975085D02*
G75*
G03*
X163150639Y-182975085I-1200000J0D01*
G01*
X163150639Y-182975085D02*
G75*
G03*
X165550639Y-182975085I1200000J0D01*
G01*
%TO.C,H19*%
X89332738Y-91468240D02*
G75*
G03*
X84832738Y-91468240I-2250000J0D01*
G01*
X84832738Y-91468240D02*
G75*
G03*
X89332738Y-91468240I2250000J0D01*
G01*
%TO.C,H11*%
X131200000Y-112500000D02*
G75*
G03*
X128800000Y-112500000I-1200000J0D01*
G01*
X128800000Y-112500000D02*
G75*
G03*
X131200000Y-112500000I1200000J0D01*
G01*
%TO.C,H9*%
X46122962Y-104388060D02*
G75*
G03*
X43722962Y-104388060I-1200000J0D01*
G01*
X43722962Y-104388060D02*
G75*
G03*
X46122962Y-104388060I1200000J0D01*
G01*
%TO.C,H1*%
X137695190Y-101250001D02*
G75*
G03*
X135295190Y-101250001I-1200000J0D01*
G01*
X135295190Y-101250001D02*
G75*
G03*
X137695190Y-101250001I1200000J0D01*
G01*
%TO.C,H15*%
X145781760Y-62082738D02*
G75*
G03*
X141281760Y-62082738I-2250000J0D01*
G01*
X141281760Y-62082738D02*
G75*
G03*
X145781760Y-62082738I2250000J0D01*
G01*
%TO.C,H2*%
X180747708Y-35836867D02*
G75*
G03*
X178347708Y-35836867I-1200000J0D01*
G01*
X178347708Y-35836867D02*
G75*
G03*
X180747708Y-35836867I1200000J0D01*
G01*
%TO.C,H27*%
X145781760Y-147917262D02*
G75*
G03*
X141281760Y-147917262I-2250000J0D01*
G01*
X141281760Y-147917262D02*
G75*
G03*
X145781760Y-147917262I2250000J0D01*
G01*
%TO.C,H16*%
X153028686Y-65084513D02*
G75*
G03*
X148528688Y-65084513I-2249999J0D01*
G01*
X148528688Y-65084513D02*
G75*
G03*
X153028686Y-65084513I2249999J0D01*
G01*
%TO.C,H7*%
X46151152Y-99140683D02*
G75*
G03*
X43751152Y-99140683I-1200000J0D01*
G01*
X43751152Y-99140683D02*
G75*
G03*
X46151152Y-99140683I1200000J0D01*
G01*
%TO.C,H14*%
X169903564Y-180922308D02*
G75*
G03*
X167503564Y-180922308I-1200000J0D01*
G01*
X167503564Y-180922308D02*
G75*
G03*
X169903564Y-180922308I1200000J0D01*
G01*
%TO.C,H25*%
X89332738Y-118531760D02*
G75*
G03*
X84832738Y-118531760I-2250000J0D01*
G01*
X84832738Y-118531760D02*
G75*
G03*
X89332738Y-118531760I2250000J0D01*
G01*
%TO.C,H3*%
X131200000Y-97500000D02*
G75*
G03*
X128800000Y-97500000I-1200000J0D01*
G01*
X128800000Y-97500000D02*
G75*
G03*
X131200000Y-97500000I1200000J0D01*
G01*
%TO.C,H23*%
X153028686Y-144915487D02*
G75*
G03*
X148528688Y-144915487I-2249999J0D01*
G01*
X148528688Y-144915487D02*
G75*
G03*
X153028686Y-144915487I2249999J0D01*
G01*
%TD*%
%LPC*%
%TO.C,H32*%
D16*
X65361276Y-76533376D02*
X62361276Y-76533376D01*
X62361276Y-74533376D01*
X65361276Y-74533376D01*
X65361276Y-76533376D01*
G36*
X65361276Y-76533376D02*
G01*
X62361276Y-76533376D01*
X62361276Y-74533376D01*
X65361276Y-74533376D01*
X65361276Y-76533376D01*
G37*
X62977301Y-80662541D02*
X61245251Y-81662541D01*
X59745251Y-79064465D01*
X61477301Y-78064465D01*
X62977301Y-80662541D01*
G36*
X62977301Y-80662541D02*
G01*
X61245251Y-81662541D01*
X59745251Y-79064465D01*
X61477301Y-78064465D01*
X62977301Y-80662541D01*
G37*
X62977301Y-70404211D02*
X61477301Y-73002287D01*
X59745251Y-72002287D01*
X61245251Y-69404211D01*
X62977301Y-70404211D01*
G36*
X62977301Y-70404211D02*
G01*
X61477301Y-73002287D01*
X59745251Y-72002287D01*
X61245251Y-69404211D01*
X62977301Y-70404211D01*
G37*
X57977301Y-79064465D02*
X56477301Y-81662541D01*
X54745251Y-80662541D01*
X56245251Y-78064465D01*
X57977301Y-79064465D01*
G36*
X57977301Y-79064465D02*
G01*
X56477301Y-81662541D01*
X54745251Y-80662541D01*
X56245251Y-78064465D01*
X57977301Y-79064465D01*
G37*
X57977301Y-72002287D02*
X56245251Y-73002287D01*
X54745251Y-70404211D01*
X56477301Y-69404211D01*
X57977301Y-72002287D01*
G36*
X57977301Y-72002287D02*
G01*
X56245251Y-73002287D01*
X54745251Y-70404211D01*
X56477301Y-69404211D01*
X57977301Y-72002287D01*
G37*
X55361276Y-76533376D02*
X52361276Y-76533376D01*
X52361276Y-74533376D01*
X55361276Y-74533376D01*
X55361276Y-76533376D01*
G36*
X55361276Y-76533376D02*
G01*
X52361276Y-76533376D01*
X52361276Y-74533376D01*
X55361276Y-74533376D01*
X55361276Y-76533376D01*
G37*
%TO.C,H31*%
X107033376Y-177138724D02*
X104033376Y-177138724D01*
X104033376Y-175138724D01*
X107033376Y-175138724D01*
X107033376Y-177138724D01*
G36*
X107033376Y-177138724D02*
G01*
X104033376Y-177138724D01*
X104033376Y-175138724D01*
X107033376Y-175138724D01*
X107033376Y-177138724D01*
G37*
X104649401Y-181267889D02*
X102917351Y-182267889D01*
X101417351Y-179669813D01*
X103149401Y-178669813D01*
X104649401Y-181267889D01*
G36*
X104649401Y-181267889D02*
G01*
X102917351Y-182267889D01*
X101417351Y-179669813D01*
X103149401Y-178669813D01*
X104649401Y-181267889D01*
G37*
X104649401Y-171009559D02*
X103149401Y-173607635D01*
X101417351Y-172607635D01*
X102917351Y-170009559D01*
X104649401Y-171009559D01*
G36*
X104649401Y-171009559D02*
G01*
X103149401Y-173607635D01*
X101417351Y-172607635D01*
X102917351Y-170009559D01*
X104649401Y-171009559D01*
G37*
X99649401Y-179669813D02*
X98149401Y-182267889D01*
X96417351Y-181267889D01*
X97917351Y-178669813D01*
X99649401Y-179669813D01*
G36*
X99649401Y-179669813D02*
G01*
X98149401Y-182267889D01*
X96417351Y-181267889D01*
X97917351Y-178669813D01*
X99649401Y-179669813D01*
G37*
X99649401Y-172607635D02*
X97917351Y-173607635D01*
X96417351Y-171009559D01*
X98149401Y-170009559D01*
X99649401Y-172607635D01*
G36*
X99649401Y-172607635D02*
G01*
X97917351Y-173607635D01*
X96417351Y-171009559D01*
X98149401Y-170009559D01*
X99649401Y-172607635D01*
G37*
X97033376Y-177138724D02*
X94033376Y-177138724D01*
X94033376Y-175138724D01*
X97033376Y-175138724D01*
X97033376Y-177138724D01*
G36*
X97033376Y-177138724D02*
G01*
X94033376Y-177138724D01*
X94033376Y-175138724D01*
X97033376Y-175138724D01*
X97033376Y-177138724D01*
G37*
%TO.C,H30*%
X207638724Y-135466624D02*
X204638724Y-135466624D01*
X204638724Y-133466624D01*
X207638724Y-133466624D01*
X207638724Y-135466624D01*
G36*
X207638724Y-135466624D02*
G01*
X204638724Y-135466624D01*
X204638724Y-133466624D01*
X207638724Y-133466624D01*
X207638724Y-135466624D01*
G37*
X205254749Y-139595789D02*
X203522699Y-140595789D01*
X202022699Y-137997713D01*
X203754749Y-136997713D01*
X205254749Y-139595789D01*
G36*
X205254749Y-139595789D02*
G01*
X203522699Y-140595789D01*
X202022699Y-137997713D01*
X203754749Y-136997713D01*
X205254749Y-139595789D01*
G37*
X205254749Y-129337459D02*
X203754749Y-131935535D01*
X202022699Y-130935535D01*
X203522699Y-128337459D01*
X205254749Y-129337459D01*
G36*
X205254749Y-129337459D02*
G01*
X203754749Y-131935535D01*
X202022699Y-130935535D01*
X203522699Y-128337459D01*
X205254749Y-129337459D01*
G37*
X200254749Y-137997713D02*
X198754749Y-140595789D01*
X197022699Y-139595789D01*
X198522699Y-136997713D01*
X200254749Y-137997713D01*
G36*
X200254749Y-137997713D02*
G01*
X198754749Y-140595789D01*
X197022699Y-139595789D01*
X198522699Y-136997713D01*
X200254749Y-137997713D01*
G37*
X200254749Y-130935535D02*
X198522699Y-131935535D01*
X197022699Y-129337459D01*
X198754749Y-128337459D01*
X200254749Y-130935535D01*
G36*
X200254749Y-130935535D02*
G01*
X198522699Y-131935535D01*
X197022699Y-129337459D01*
X198754749Y-128337459D01*
X200254749Y-130935535D01*
G37*
X197638724Y-135466624D02*
X194638724Y-135466624D01*
X194638724Y-133466624D01*
X197638724Y-133466624D01*
X197638724Y-135466624D01*
G36*
X197638724Y-135466624D02*
G01*
X194638724Y-135466624D01*
X194638724Y-133466624D01*
X197638724Y-133466624D01*
X197638724Y-135466624D01*
G37*
%TO.C,H29*%
X165966624Y-34861276D02*
X162966624Y-34861276D01*
X162966624Y-32861276D01*
X165966624Y-32861276D01*
X165966624Y-34861276D01*
G36*
X165966624Y-34861276D02*
G01*
X162966624Y-34861276D01*
X162966624Y-32861276D01*
X165966624Y-32861276D01*
X165966624Y-34861276D01*
G37*
X163582649Y-38990441D02*
X161850599Y-39990441D01*
X160350599Y-37392365D01*
X162082649Y-36392365D01*
X163582649Y-38990441D01*
G36*
X163582649Y-38990441D02*
G01*
X161850599Y-39990441D01*
X160350599Y-37392365D01*
X162082649Y-36392365D01*
X163582649Y-38990441D01*
G37*
X163582649Y-28732111D02*
X162082649Y-31330187D01*
X160350599Y-30330187D01*
X161850599Y-27732111D01*
X163582649Y-28732111D01*
G36*
X163582649Y-28732111D02*
G01*
X162082649Y-31330187D01*
X160350599Y-30330187D01*
X161850599Y-27732111D01*
X163582649Y-28732111D01*
G37*
X158582649Y-37392365D02*
X157082649Y-39990441D01*
X155350599Y-38990441D01*
X156850599Y-36392365D01*
X158582649Y-37392365D01*
G36*
X158582649Y-37392365D02*
G01*
X157082649Y-39990441D01*
X155350599Y-38990441D01*
X156850599Y-36392365D01*
X158582649Y-37392365D01*
G37*
X158582649Y-30330187D02*
X156850599Y-31330187D01*
X155350599Y-28732111D01*
X157082649Y-27732111D01*
X158582649Y-30330187D01*
G36*
X158582649Y-30330187D02*
G01*
X156850599Y-31330187D01*
X155350599Y-28732111D01*
X157082649Y-27732111D01*
X158582649Y-30330187D01*
G37*
X155966624Y-34861276D02*
X152966624Y-34861276D01*
X152966624Y-32861276D01*
X155966624Y-32861276D01*
X155966624Y-34861276D01*
G36*
X155966624Y-34861276D02*
G01*
X152966624Y-34861276D01*
X152966624Y-32861276D01*
X155966624Y-32861276D01*
X155966624Y-34861276D01*
G37*
%TD*%
D17*
%TO.C,H18*%
X116468240Y-62082738D03*
%TD*%
%TO.C,H24*%
X172917262Y-118531760D03*
%TD*%
%TO.C,H17*%
X109221313Y-65084513D03*
%TD*%
%TO.C,H5*%
X169915487Y-84221313D03*
%TD*%
D18*
%TO.C,H6*%
X123504810Y-101250001D03*
%TD*%
%TO.C,H13*%
X136495190Y-108750000D03*
%TD*%
D17*
%TO.C,H26*%
X109221313Y-144915487D03*
%TD*%
D18*
%TO.C,H8*%
X123504810Y-108750000D03*
%TD*%
D17*
%TO.C,H20*%
X90084513Y-84221313D03*
%TD*%
D18*
%TO.C,H4*%
X175552512Y-33217730D03*
%TD*%
D17*
%TO.C,H21*%
X90084513Y-125778687D03*
%TD*%
%TO.C,H28*%
X169915487Y-125778687D03*
%TD*%
%TO.C,H10*%
X172917262Y-91468240D03*
%TD*%
%TO.C,H22*%
X116468240Y-147917262D03*
%TD*%
D18*
%TO.C,H12*%
X164350639Y-182975085D03*
%TD*%
D17*
%TO.C,H19*%
X87082738Y-91468240D03*
%TD*%
D18*
%TO.C,H11*%
X130000000Y-112500000D03*
%TD*%
%TO.C,H9*%
X44922962Y-104388060D03*
%TD*%
%TO.C,H1*%
X136495190Y-101250001D03*
%TD*%
D17*
%TO.C,H15*%
X143531760Y-62082738D03*
%TD*%
D18*
%TO.C,H2*%
X179547708Y-35836867D03*
%TD*%
D17*
%TO.C,H27*%
X143531760Y-147917262D03*
%TD*%
%TO.C,H16*%
X150778687Y-65084513D03*
%TD*%
D18*
%TO.C,H7*%
X44951152Y-99140683D03*
%TD*%
%TO.C,H14*%
X168703564Y-180922308D03*
%TD*%
D17*
%TO.C,H25*%
X87082738Y-118531760D03*
%TD*%
D18*
%TO.C,H3*%
X130000000Y-97500000D03*
%TD*%
D17*
%TO.C,H23*%
X150778687Y-144915487D03*
%TD*%
%LPD*%
M02*
