M48
; DRILL file {KiCad 7.0.11} date Tue Apr  8 01:22:05 2025
; FORMAT={-:-/ absolute / inch / decimal}
; #@! TF.CreationDate,2025-04-08T01:22:05+09:00
; #@! TF.GenerationSoftware,Kicad,Pcbnew,7.0.11
; #@! TF.FileFunction,Plated,1,2,PTH
FMAT,2
INCH
; #@! TA.AperFunction,Plated,PTH,ViaDrill
T1C0.0118
%
G90
G05
T1
X1.7562Y-4.4656
X1.7697Y-3.9032
X1.7757Y-4.0171
X1.7959Y-3.8227
X1.8001Y-4.049
X1.8033Y-4.9179
X1.836Y-4.4815
X1.8441Y-4.7323
X1.8445Y-4.0437
X1.8793Y-4.925
X1.8891Y-4.3689
X1.8951Y-3.6662
X1.8972Y-3.3893
X1.9172Y-3.9366
X1.9198Y-5.1763
X1.9223Y-3.1097
X1.9225Y-4.7421
X1.9579Y-3.4239
X1.9598Y-4.2022
X1.9621Y-3.6939
X1.9683Y-4.6289
X1.9812Y-3.1535
X1.9907Y-3.9584
X1.9937Y-3.0016
X2.0041Y-5.1757
X2.03Y-3.4659
X2.0304Y-4.4588
X2.0322Y-5.0533
X2.036Y-3.7289
X2.0375Y-4.2154
X2.0469Y-4.6301
X2.0475Y-3.1977
X2.0646Y-5.4144
X2.0652Y-5.6038
X2.0685Y-3.986
X2.0691Y-4.8749
X2.0844Y-3.8066
X2.1086Y-5.0459
X2.1088Y-4.4629
X2.1137Y-2.7069
X2.1173Y-3.3829
X2.1188Y-3.6433
X2.119Y-4.2352
X2.1258Y-4.6415
X2.1444Y-4.8709
X2.1452Y-5.4057
X2.1468Y-5.5942
X2.1623Y-3.8396
X2.1666Y-5.2847
X2.1885Y-4.1454
X2.1888Y-5.0464
X2.1904Y-4.4774
X2.2012Y-3.667
X2.2059Y-3.2705
X2.2138Y-2.6776
X2.2315Y-4.8733
X2.2348Y-3.5077
X2.236Y-5.8288
X2.2398Y-5.2712
X2.2472Y-2.4937
X2.2547Y-4.3822
X2.2654Y-6.0157
X2.2703Y-3.7015
X2.276Y-4.7729
X2.2784Y-4.1481
X2.2827Y-4.0008
X2.2915Y-2.6532
X2.3029Y-2.551
X2.312Y-3.5333
X2.3175Y-5.8078
X2.3175Y-5.5016
X2.3177Y-3.2912
X2.3177Y-5.6855
X2.3244Y-5.2644
X2.3388Y-4.3797
X2.3407Y-4.6068
X2.3419Y-5.9946
X2.3528Y-4.1757
X2.3547Y-2.3377
X2.3571Y-5.1528
X2.3612Y-4.0083
X2.3667Y-4.7548
X2.3736Y-2.6528
X2.3838Y-3.8632
X2.3849Y-3.3349
X2.3886Y-3.5737
X2.394Y-5.4794
X2.3952Y-4.9843
X2.3952Y-5.6609
X2.4012Y-2.3879
X2.4242Y-4.3953
X2.4261Y-4.5965
X2.4423Y-5.1294
X2.4466Y-4.0337
X2.4466Y-4.7599
X2.4509Y-3.648
X2.4572Y-2.453
X2.4654Y-6.2167
X2.471Y-5.6444
X2.4755Y-2.0821
X2.4765Y-4.9635
X2.4775Y-5.4649
X2.4777Y-2.6504
X2.4779Y-2.7062
X2.48Y-3.5136
X2.4867Y-3.2762
X2.4966Y-4.3128
X2.499Y-5.353
X2.4994Y-5.8832
X2.5146Y-4.6059
X2.5185Y-2.1422
X2.5216Y-5.1247
X2.5238Y-3.683
X2.5248Y-6.0611
X2.5351Y-3.9605
X2.5448Y-2.6979
X2.5458Y-6.1838
X2.5629Y-4.9604
X2.5644Y-2.207
X2.568Y-2.4067
X2.5681Y-5.8517
X2.5702Y-3.5337
X2.5758Y-3.3095
X2.5815Y-4.5195
X2.5863Y-5.3215
X2.5945Y-4.1764
X2.5989Y-6.0299
X2.6021Y-2.7569
X2.6037Y-4.3034
X2.6102Y-4.645
X2.6191Y-4.8623
X2.6232Y-3.1786
X2.6271Y-2.4632
X2.6282Y-3.9676
X2.6431Y-2.0051
X2.6437Y-3.3566
X2.6476Y-3.5745
X2.6479Y-5.8263
X2.6525Y-3.8447
X2.6553Y-2.951
X2.6587Y-5.7099
X2.6623Y-5.31
X2.663Y-5.536
X2.6725Y-6.0032
X2.6765Y-2.5252
X2.6786Y-4.5016
X2.6829Y-6.394
X2.6844Y-2.0669
X2.6868Y-4.3208
X2.6907Y-4.6524
X2.6924Y-4.1711
X2.7032Y-5.2041
X2.7096Y-3.2107
X2.7134Y-4.833
X2.7137Y-2.7209
X2.7279Y-2.3323
X2.7292Y-2.1326
X2.7312Y-6.2352
X2.7332Y-4.0124
X2.7384Y-5.6677
X2.7388Y-5.5011
X2.7391Y-2.9904
X2.7439Y-5.0423
X2.7475Y-6.5719
X2.7488Y-3.5306
X2.7529Y-6.3587
X2.7638Y-6.048
X2.7681Y-4.5111
X2.7694Y-3.8516
X2.7738Y-3.734
X2.7814Y-4.1914
X2.7839Y-3.2627
X2.7851Y-2.385
X2.79Y-1.7738
X2.794Y-2.7721
X2.7976Y-6.1981
X2.8Y-5.1589
X2.8021Y-4.8306
X2.8063Y-3.0475
X2.8117Y-5.6466
X2.8162Y-6.5326
X2.8185Y-5.4777
X2.8302Y-1.8377
X2.8353Y-3.883
X2.8358Y-2.454
X2.8369Y-5.0079
X2.837Y-5.9913
X2.8404Y-5.878
X2.8447Y-2.1054
X2.8482Y-2.8278
X2.8564Y-3.5469
X2.857Y-4.4365
X2.8572Y-5.3704
X2.858Y-3.3449
X2.8664Y-1.9061
X2.8675Y-2.6543
X2.8711Y-6.165
X2.874Y-4.7419
X2.8801Y-5.1503
X2.8805Y-4.1348
X2.8874Y-3.2367
X2.8977Y-4.2329
X2.901Y-2.1683
X2.9138Y-3.0235
X2.914Y-5.8284
X2.9276Y-3.3935
X2.9299Y-4.9958
X2.9321Y-3.969
X2.9358Y-3.5904
X2.9399Y-5.3235
X2.9403Y-2.2349
X2.9439Y-3.8376
X2.945Y-2.7032
X2.9491Y-2.4358
X2.9496Y-6.3886
X2.9614Y-4.6036
X2.9645Y-1.551
X2.9704Y-4.4085
X2.9727Y-4.2522
X2.9753Y-1.7868
X2.9861Y-6.7209
X2.9908Y-1.6173
X2.9928Y-5.796
X2.9956Y-3.267
X2.997Y-4.6974
X2.9985Y-2.7673
X3.0022Y-4.9041
X3.0079Y-5.684
X3.0116Y-6.3452
X3.012Y-6.56
X3.0125Y-2.054
X3.0167Y-5.5185
X3.0199Y-3.0687
X3.0208Y-3.966
X3.0232Y-2.4947
X3.0243Y-1.6908
X3.0274Y-5.301
X3.035Y-6.02
X3.0387Y-1.8538
X3.0493Y-4.9944
X3.0501Y-3.5676
X3.0508Y-6.6801
X3.063Y-2.1128
X3.0634Y-4.4169
X3.0643Y-2.966
X3.0683Y-6.1875
X3.0695Y-3.3207
X3.0716Y-4.7021
X3.0717Y-2.5616
X3.0747Y-6.5131
X3.0779Y-4.2
X3.0825Y-6.303
X3.0841Y-3.7537
X3.0843Y-5.1994
X3.0852Y-3.1458
X3.0878Y-3.8412
X3.097Y-5.6201
X3.102Y-5.9627
X3.1083Y-2.1909
X3.1098Y-2.3927
X3.1113Y-4.8508
X3.1152Y-2.7646
X3.1356Y-6.1297
X3.139Y-4.9823
X3.1423Y-6.4699
X3.1467Y-1.5088
X3.1553Y-1.8462
X3.1585Y-3.8756
X3.1686Y-3.4034
X3.1701Y-1.5716
X3.1701Y-4.3602
X3.1701Y-5.5934
X3.1711Y-4.6296
X3.1745Y-3.5854
X3.1799Y-5.1361
X3.1817Y-5.9214
X3.183Y-2.561
X3.1864Y-3.3135
X3.191Y-5.8093
X3.1932Y-3.1205
X3.2Y-4.841
X3.2017Y-1.6514
X3.2042Y-1.9148
X3.2059Y-5.4849
X3.2061Y-4.4325
X3.2064Y-2.8176
X3.2065Y-6.0904
X3.2104Y-4.0973
X3.2199Y-2.1903
X3.2301Y-3.4515
X3.235Y-5.3278
X3.2354Y-1.9849
X3.2359Y-4.1725
X3.2498Y-6.6827
X3.2537Y-6.879
X3.2586Y-3.629
X3.2659Y-5.7434
X3.2684Y-5.1134
X3.2686Y-2.8847
X3.279Y-2.6279
X3.2824Y-6.3098
X3.2828Y-3.8541
X3.2829Y-3.9545
X3.2836Y-5.9037
X3.2837Y-4.4439
X3.2838Y-2.2519
X3.2913Y-4.7614
X3.2989Y-6.7988
X3.3046Y-4.5771
X3.3067Y-5.4018
X3.3087Y-4.1924
X3.3203Y-1.648
X3.3281Y-2.6982
X3.3287Y-2.331
X3.3303Y-3.1724
X3.3366Y-3.6614
X3.3397Y-6.2481
X3.3397Y-6.4693
X3.344Y-5.7061
X3.3441Y-2.5377
X3.3453Y-1.3128
X3.346Y-4.8251
X3.3487Y-1.9926
X3.3507Y-5.0208
X3.3522Y-5.8681
X3.3523Y-3.0883
X3.3547Y-3.5854
X3.3557Y-3.4555
X3.3573Y-1.7202
X3.3631Y-1.3842
X3.3762Y-3.9568
X3.3774Y-5.3802
X3.3784Y-5.5945
X3.3815Y-3.5949
X3.3824Y-3.2264
X3.3839Y-2.9017
X3.3842Y-1.7954
X3.3849Y-1.4588
X3.3969Y-3.6524
X3.3977Y-6.8157
X3.3984Y-4.5709
X3.3992Y-6.406
X3.4033Y-3.6977
X3.4068Y-4.3934
X3.4076Y-6.0834
X3.4091Y-5.0796
X3.4102Y-3.5925
X3.4111Y-2.068
X3.4118Y-3.5276
X3.4119Y-6.1948
X3.412Y-6.6317
X3.4193Y-3.6713
X3.4214Y-4.8173
X3.4268Y-3.5539
X3.4295Y-2.6021
X3.4361Y-6.9986
X3.4366Y-3.587
X3.4371Y-2.3441
X3.4409Y-3.6512
X3.4416Y-2.1391
X3.4425Y-3.6232
X3.4429Y-5.2731
X3.4429Y-3.5287
X3.4448Y-4.1591
X3.4476Y-4.9429
X3.448Y-3.8608
X3.455Y-6.7424
X3.4563Y-3.565
X3.4574Y-5.6637
X3.4614Y-3.5988
X3.4618Y-6.5737
X3.4646Y-5.5095
X3.4668Y-6.3558
X3.4707Y-6.0063
X3.4709Y-4.9756
X3.4709Y-3.7374
X3.4728Y-3.5406
X3.4832Y-2.6769
X3.4853Y-4.2113
X3.4854Y-5.0024
X3.4886Y-3.6504
X3.4915Y-6.9476
X3.4967Y-2.9648
X3.4987Y-1.63
X3.4988Y-4.9799
X3.5006Y-5.061
X3.5028Y-3.6146
X3.5031Y-3.3241
X3.5091Y-3.2497
X3.5108Y-3.4934
X3.5157Y-4.8894
X3.517Y-2.4174
X3.5185Y-4.8535
X3.5206Y-1.981
X3.524Y-4.9646
X3.5249Y-4.5103
X3.5283Y-6.5188
X3.5294Y-1.297
X3.5333Y-1.7058
X3.5346Y-4.7413
X3.5352Y-3.9981
X3.5382Y-3.8886
X3.5389Y-5.6227
X3.543Y-5.9588
X3.5449Y-1.3611
X3.5455Y-5.4679
X3.5479Y-6.8972
X3.55Y-4.976
X3.5506Y-5.1859
X3.5512Y-2.792
X3.5578Y-2.4941
X3.5583Y-4.948
X3.5583Y-5.0087
X3.5597Y-4.2301
X3.5607Y-5.8447
X3.561Y-3.3775
X3.5612Y-1.7861
X3.5624Y-3.0337
X3.5662Y-1.444
X3.5667Y-6.3546
X3.5758Y-2.0559
X3.5785Y-4.5484
X3.5815Y-4.9654
X3.5815Y-5.0213
X3.5816Y-4.3424
X3.5819Y-4.9933
X3.5904Y-4.7755
X3.5931Y-3.5413
X3.5946Y-2.7145
X3.5954Y-2.8568
X3.5961Y-4.9402
X3.6069Y-5.3596
X3.6072Y-2.1356
X3.6098Y-4.9894
X3.6116Y-6.1684
X3.6146Y-4.9638
X3.6155Y-3.7483
X3.6253Y-6.2784
X3.6266Y-2.2466
X3.6274Y-4.0244
X3.6334Y-5.7552
X3.6356Y-5.1489
X3.6498Y-6.7147
X3.6522Y-4.5515
X3.6536Y-3.8009
X3.6606Y-2.3259
X3.6666Y-4.7692
X3.6685Y-1.8074
X3.6692Y-6.0827
X3.6698Y-2.5363
X3.6739Y-5.4047
X3.6749Y-3.1473
X3.6758Y-4.3411
X3.6787Y-7.1043
X3.6823Y-3.0777
X3.6846Y-1.4591
X3.6969Y-6.6483
X3.6982Y-3.4191
X3.7073Y-5.7006
X3.7109Y-2.9054
X3.711Y-6.7354
X3.7116Y-1.5319
X3.7153Y-2.1742
X3.7182Y-1.8827
X3.7186Y-4.2028
X3.722Y-3.8395
X3.7225Y-6.4784
X3.7225Y-3.9451
X3.7241Y-3.2072
X3.7256Y-4.8683
X3.7307Y-1.6136
X3.7314Y-5.0473
X3.737Y-6.0278
X3.7389Y-3.5749
X3.7426Y-1.9653
X3.7439Y-5.3727
X3.7444Y-5.5853
X3.7503Y-5.915
X3.7576Y-6.5887
X3.7605Y-1.2038
X3.7646Y-2.6236
X3.7701Y-1.2815
X3.7733Y-6.4021
X3.774Y-3.6298
X3.7805Y-4.2321
X3.784Y-2.2562
X3.7948Y-5.0674
X3.7994Y-1.039
X3.8026Y-4.6881
X3.8079Y-4.4921
X3.809Y-1.1205
X3.8117Y-2.7017
X3.8138Y-4.8341
X3.8143Y-3.9672
X3.8189Y-7.2261
X3.8191Y-2.3385
X3.8198Y-6.2298
X3.8209Y-5.2615
X3.8349Y-6.3419
X3.8355Y-4.0752
X3.8366Y-6.6445
X3.8375Y-5.4716
X3.84Y-3.6776
X3.8405Y-1.6426
X3.8476Y-2.0066
X3.8478Y-2.9955
X3.8557Y-4.2471
X3.858Y-3.2729
X3.8583Y-2.4626
X3.8591Y-1.4705
X3.8685Y-5.0432
X3.8716Y-6.1407
X3.8741Y-4.5
X3.8763Y-3.332
X3.8837Y-1.7271
X3.8848Y-2.5364
X3.8935Y-2.8348
X3.8936Y-3.8673
X3.8999Y-1.8075
X3.9056Y-3.068
X3.9119Y-5.4168
X3.9152Y-2.1021
X3.9228Y-5.7987
X3.923Y-2.7657
X3.9231Y-5.6308
X3.9242Y-2.394
X3.926Y-3.3914
X3.929Y-2.9059
X3.9313Y-4.0783
X3.9323Y-2.1771
X3.9332Y-1.1378
X3.934Y-6.0789
X3.9358Y-3.5867
X3.9407Y-5.9594
X3.944Y-1.2156
X3.9474Y-6.5305
X3.9478Y-5.1229
X3.9503Y-1.2935
X3.9543Y-4.7436
X3.9544Y-4.4986
X3.9607Y-3.8987
X3.983Y-5.2943
X3.9894Y-4.9349
X3.9906Y-2.6028
X3.9913Y-6.4493
X3.9951Y-4.3861
X4.0009Y-5.8475
X4.0077Y-2.0404
X4.0078Y-0.8967
X4.0149Y-1.7589
X4.015Y-3.7351
X4.0256Y-6.271
X4.0258Y-5.0727
X4.0267Y-4.7325
X4.0268Y-6.6217
X4.0289Y-3.1585
X4.0311Y-3.9339
X4.032Y-1.4929
X4.0322Y-2.2372
X4.0453Y-0.9761
X4.0455Y-2.9923
X4.0484Y-6.3821
X4.0498Y-3.2171
X4.0533Y-5.2988
X4.0554Y-4.9229
X4.057Y-4.2268
X4.0585Y-1.5708
X4.0634Y-1.839
X4.0681Y-5.7767
X4.0686Y-1.6562
X4.0721Y-6.1705
X4.0767Y-4.0266
X4.0775Y-6.5879
X4.0822Y-3.4792
X4.0874Y-3.7692
X4.0912Y-3.2818
X4.0956Y-7.274
X4.0991Y-5.6533
X4.1008Y-4.7152
X4.1103Y-1.1616
X4.1126Y-5.4843
X4.1139Y-2.7307
X4.1188Y-2.3512
X4.1188Y-5.2593
X4.1208Y-4.6014
X4.1215Y-1.2339
X4.1257Y-1.316
X4.1272Y-4.8964
X4.128Y-6.5268
X4.1317Y-6.0986
X4.132Y-5.9819
X4.1345Y-2.4278
X4.1354Y-6.3144
X4.1369Y-7.2145
X4.1403Y-2.8034
X4.1428Y-3.5318
X4.1434Y-2.669
X4.1464Y-4.2201
X4.1562Y-3.8159
X4.1579Y-4.438
X4.1617Y-2.0891
X4.1713Y-4.0348
X4.1726Y-1.7056
X4.174Y-5.6666
X4.1819Y-2.2965
X4.1862Y-7.1539
X4.1912Y-6.2488
X4.1944Y-3.5887
X4.2097Y-4.5615
X4.2102Y-2.5272
X4.2132Y-1.8062
X4.2145Y-3.2378
X4.2189Y-5.1272
X4.2199Y-1.8837
X4.2201Y-6.0121
X4.2307Y-1.0003
X4.2315Y-2.5602
X4.2315Y-0.9217
X4.232Y-5.6166
X4.232Y-4.2334
X4.2352Y-1.3582
X4.2402Y-2.5886
X4.2417Y-2.9156
X4.2432Y-2.9769
X4.2496Y-7.0579
X4.2529Y-3.3016
X4.2565Y-1.4444
X4.2565Y-3.7785
X4.2591Y-1.5244
X4.2602Y-2.611
X4.2646Y-2.5606
X4.2669Y-3.9849
X4.2678Y-6.7013
X4.2685Y-2.5039
X4.2716Y-3.0483
X4.2751Y-5.9468
X4.2772Y-2.5886
X4.2799Y-5.4778
X4.2811Y-2.5315
X4.2823Y-5.0926
X4.2837Y-5.8221
X4.2839Y-2.6283
X4.285Y-6.8923
X4.287Y-4.7685
X4.2871Y-4.549
X4.2937Y-3.3681
X4.2957Y-2.5618
X4.2992Y-6.612
X4.3019Y-3.5684
X4.3039Y-2.4937
X4.305Y-6.4363
X4.3051Y-2.6591
X4.3079Y-2.6035
X4.3114Y-2.5209
X4.3128Y-1.9495
X4.3131Y-5.2951
X4.3169Y-4.9403
X4.3189Y-2.6295
X4.3242Y-6.8054
X4.3263Y-4.1713
X4.3299Y-2.3677
X4.3299Y-1.7578
X4.3386Y-6.33
X4.339Y-2.5059
X4.3433Y-5.0522
X4.3444Y-5.6746
X4.3447Y-1.039
X4.3455Y-4.4542
X4.3469Y-1.197
X4.3474Y-6.5435
X4.35Y-2.5783
X4.3514Y-1.1147
X4.3555Y-2.7374
X4.3591Y-2.6083
X4.3637Y-7.0752
X4.3637Y-3.8116
X4.3668Y-4.7075
X4.3673Y-2.0653
X4.3694Y-6.1422
X4.3699Y-7.3023
X4.3709Y-2.1439
X4.3732Y-2.5685
X4.3845Y-4.8772
X4.3864Y-3.1904
X4.388Y-6.2549
X4.3891Y-2.5104
X4.3975Y-5.6001
X4.3984Y-6.9971
X4.3998Y-3.6246
X4.4006Y-1.4063
X4.4024Y-6.7422
X4.4036Y-6.0163
X4.4061Y-7.2361
X4.4187Y-2.9232
X4.4188Y-1.5747
X4.4192Y-1.493
X4.4282Y-3.2583
X4.4305Y-4.3204
X4.4328Y-2.5942
X4.4391Y-5.0703
X4.4392Y-6.9302
X4.4424Y-3.863
X4.4437Y-5.4526
X4.4451Y-4.6735
X4.4452Y-7.1688
X4.446Y-6.6736
X4.4519Y-3.684
X4.453Y-5.9347
X4.4531Y-4.8351
X4.4543Y-2.2329
X4.4563Y-2.022
X4.4596Y-4.0807
X4.4597Y-3.5353
X4.4612Y-5.8057
X4.4622Y-3.3319
X4.4631Y-3.0072
X4.4742Y-4.1475
X4.4754Y-5.2574
X4.4768Y-2.7639
X4.4805Y-4.3778
X4.4842Y-0.8932
X4.4911Y-0.8107
X4.4938Y-4.5741
X4.5002Y-4.9984
X4.5012Y-5.4231
X4.5039Y-2.8544
X4.5067Y-5.765
X4.5128Y-1.6407
X4.5138Y-5.8063
X4.5142Y-5.8374
X4.5157Y-7.4125
X4.5174Y-6.4289
X4.5184Y-1.2446
X4.5189Y-2.36
X4.5223Y-1.0868
X4.5259Y-1.1629
X4.5287Y-5.8638
X4.5324Y-2.4562
X4.5387Y-1.8254
X4.5411Y-1.7408
X4.5449Y-5.8413
X4.5542Y-7.3459
X4.5551Y-5.3639
X4.5556Y-4.3682
X4.5567Y-5.885
X4.5595Y-4.6223
X4.5621Y-6.1226
X4.5636Y-3.7177
X4.5651Y-3.8877
X4.5675Y-2.629
X4.5687Y-3.3522
X4.5698Y-4.1554
X4.5727Y-2.7101
X4.5728Y-5.8594
X4.5775Y-3.0789
X4.5827Y-5.8287
X4.5878Y-5.8902
X4.5886Y-5.7205
X4.5892Y-7.2817
X4.5921Y-5.7992
X4.5935Y-3.942
X4.5985Y-0.9362
X4.6031Y-5.7654
X4.6031Y-5.8598
X4.6034Y-2.5737
X4.6048Y-5.5927
X4.6083Y-6.8272
X4.6113Y-6.5618
X4.6169Y-5.8839
X4.6175Y-1.9041
X4.6191Y-7.0741
X4.6205Y-1.2993
X4.6217Y-1.466
X4.6227Y-3.163
X4.627Y-5.1896
X4.6302Y-1.3868
X4.6311Y-6.7355
X4.6319Y-5.8031
X4.6326Y-6.4481
X4.6326Y-4.5869
X4.6327Y-5.7685
X4.6329Y-6.2678
X4.6372Y-3.4328
X4.639Y-5.8677
X4.6418Y-2.9222
X4.6438Y-6.9921
X4.6453Y-2.8528
X4.6474Y-2.3304
X4.6484Y-3.0001
X4.6516Y-6.1266
X4.6517Y-2.2493
X4.6543Y-5.8425
X4.6553Y-2.0139
X4.6554Y-2.1085
X4.6556Y-4.7974
X4.6601Y-5.5595
X4.6628Y-3.9834
X4.6679Y-6.6627
X4.6691Y-5.1206
X4.6697Y-6.378
X4.675Y-3.5212
X4.6762Y-5.9326
X4.6789Y-4.0904
X4.6805Y-6.9212
X4.6897Y-6.0552
X4.6927Y-4.95
X4.7002Y-4.2946
X4.7005Y-5.7682
X4.7066Y-5.497
X4.7102Y-1.537
X4.7111Y-2.4433
X4.7204Y-1.7221
X4.7207Y-4.4726
X4.7216Y-5.0571
X4.722Y-2.2109
X4.7279Y-3.1963
X4.73Y-1.6402
X4.7325Y-3.8174
X4.7361Y-4.8465
X4.7384Y-3.2942
X4.7386Y-5.6744
X4.7451Y-5.3229
X4.7507Y-3.6601
X4.7524Y-1.1518
X4.7582Y-7.1796
X4.7673Y-1.07
X4.769Y-4.0921
X4.7694Y-3.5978
X4.7711Y-0.9955
X4.7756Y-3.3924
X4.7762Y-2.6155
X4.7767Y-4.2706
X4.7837Y-3.7304
X4.784Y-7.101
X4.7846Y-5.2562
X4.7851Y-2.7094
X4.7852Y-4.4491
X4.7936Y-4.7744
X4.7938Y-7.4049
X4.8049Y-4.9893
X4.8055Y-3.8812
X4.8102Y-2.9321
X4.8124Y-2.0035
X4.8129Y-5.5016
X4.8142Y-7.03
X4.8238Y-6.2241
X4.8246Y-1.9239
X4.8246Y-7.3322
X4.8255Y-6.5294
X4.826Y-5.1923
X4.8274Y-3.0251
X4.8277Y-6.0921
X4.8288Y-4.646
X4.833Y-6.4218
X4.8359Y-6.8053
X4.837Y-1.3783
X4.8412Y-5.4124
X4.8421Y-4.2268
X4.8439Y-5.875
X4.852Y-4.9149
X4.8522Y-1.621
X4.8525Y-6.708
X4.8527Y-1.3002
X4.854Y-7.2638
X4.854Y-4.4058
X4.8549Y-1.2124
X4.8564Y-1.8053
X4.8595Y-6.0051
X4.8646Y-6.3387
X4.8649Y-3.4541
X4.8662Y-1.7202
X4.8722Y-2.1044
X4.882Y-6.6273
X4.8852Y-2.5865
X4.887Y-4.6191
X4.8945Y-2.8796
X4.8963Y-2.5091
X4.9013Y-2.3361
X4.903Y-3.8885
X4.9032Y-2.799
X4.9035Y-3.9469
X4.9099Y-5.8505
X4.9123Y-3.7134
X4.9146Y-2.2582
X4.9173Y-4.0157
X4.919Y-6.2196
X4.9228Y-0.8665
X4.9242Y-1.9021
X4.9249Y-3.0785
X4.9257Y-2.7388
X4.9321Y-5.6291
X4.9361Y-4.5593
X4.9416Y-3.253
X4.9422Y-0.7871
X4.9424Y-5.7741
X4.9426Y-6.5354
X4.9453Y-4.3755
X4.9458Y-3.1702
X4.947Y-2.4631
X4.9502Y-6.133
X4.9512Y-4.1161
X4.9711Y-6.4524
X4.9721Y-4.1906
X4.9726Y-6.9091
X4.9802Y-5.5827
X4.9803Y-6.8177
X4.9813Y-1.4622
X4.9854Y-2.2247
X4.9865Y-7.4251
X4.9923Y-5.086
X4.9982Y-4.3016
X4.9982Y-1.0756
X4.9993Y-4.9791
X5.0032Y-1.2931
X5.0034Y-1.383
X5.0069Y-6.7345
X5.0084Y-4.7707
X5.0093Y-5.5081
X5.0096Y-3.3382
X5.0132Y-7.1495
X5.0136Y-7.3561
X5.0144Y-5.3272
X5.0173Y-1.0011
X5.0305Y-7.0641
X5.0308Y-4.8932
X5.0316Y-0.9258
X5.0347Y-5.2471
X5.0383Y-3.9497
X5.0449Y-3.4788
X5.0471Y-1.7294
X5.0475Y-3.5743
X5.0559Y-6.9923
X5.0575Y-4.117
X5.0604Y-1.5442
X5.0607Y-5.1714
X5.0671Y-1.6408
X5.0684Y-2.9391
X5.0688Y-4.7392
X5.0724Y-5.9502
X5.0752Y-4.2634
X5.0875Y-2.8606
X5.0925Y-4.0362
X5.0932Y-4.6648
X5.0971Y-2.6346
X5.0974Y-6.1652
X5.1004Y-2.0276
X5.1007Y-6.2945
X5.1067Y-7.3126
X5.1102Y-1.8228
X5.1113Y-2.7978
X5.114Y-6.0721
X5.1154Y-3.9157
X5.1157Y-7.222
X5.1173Y-2.5557
X5.1218Y-1.9373
X5.126Y-4.4902
X5.1308Y-3.7668
X5.1324Y-5.7039
X5.133Y-3.1747
X5.1411Y-6.4827
X5.1435Y-2.3794
X5.1456Y-2.1384
X5.146Y-6.5912
X5.1512Y-3.6881
X5.1515Y-1.1624
X5.1562Y-3.0946
X5.1576Y-5.9377
X5.1577Y-4.2258
X5.1584Y-2.283
X5.163Y-6.3942
X5.1633Y-3.0095
X5.1653Y-5.8439
X5.1693Y-2.5151
X5.1696Y-3.487
X5.1756Y-3.6227
X5.1766Y-1.0835
X5.1787Y-5.4078
X5.1794Y-4.5376
X5.187Y-4.6366
X5.1929Y-5.0236
X5.193Y-5.3353
X5.1955Y-1.0077
X5.1956Y-0.8145
X5.1984Y-3.4051
X5.1985Y-6.8523
X5.1995Y-6.7604
X5.1995Y-4.3738
X5.2059Y-1.4034
X5.2115Y-5.2562
X5.2118Y-4.0599
X5.2193Y-0.7361
X5.2204Y-6.6762
X5.2209Y-3.9535
X5.2265Y-3.8895
X5.2321Y-1.3274
X5.233Y-2.6873
X5.2344Y-7.4463
X5.2392Y-4.8242
X5.2405Y-4.4578
X5.2407Y-1.2388
X5.2482Y-3.2848
X5.2484Y-1.6704
X5.2547Y-5.5917
X5.2561Y-7.3761
X5.2591Y-7.0928
X5.2622Y-4.2917
X5.2678Y-7.0056
X5.2746Y-3.8123
X5.2758Y-1.5872
X5.276Y-1.9725
X5.276Y-6.2142
X5.2767Y-7.3034
X5.2779Y-3.3969
X5.2788Y-3.9967
X5.2816Y-3.2083
X5.283Y-4.2
X5.2876Y-5.5353
X5.288Y-6.9285
X5.2897Y-5.8351
X5.2921Y-5.7408
X5.2945Y-2.2991
X5.2971Y-3.113
X5.3007Y-5.4583
X5.304Y-4.9992
X5.3061Y-1.8843
X5.3095Y-3.7387
X5.3098Y-4.9217
X5.315Y-2.4293
X5.3235Y-5.994
X5.3248Y-2.2239
X5.3276Y-6.402
X5.332Y-5.1072
X5.3332Y-2.9101
X5.337Y-1.5097
X5.3381Y-4.0867
X5.3387Y-6.3127
X5.343Y-6.512
X5.3443Y-4.4029
X5.3555Y-3.8929
X5.357Y-4.6955
X5.3597Y-0.8957
X5.3627Y-1.7787
X5.367Y-6.1847
X5.3677Y-2.8364
X5.3696Y-1.4241
X5.3707Y-3.5897
X5.3756Y-2.09
X5.3801Y-6.1061
X5.3818Y-1.3391
X5.3881Y-4.4746
X5.3891Y-0.8213
X5.3954Y-1.6987
X5.4015Y-4.2259
X5.4025Y-1.1226
X5.4029Y-1.5978
X5.4059Y-2.2104
X5.4068Y-2.0014
X5.407Y-2.7837
X5.4128Y-1.8848
X5.4143Y-4.5372
X5.4172Y-6.7786
X5.4189Y-7.1677
X5.4204Y-4.0464
X5.4208Y-3.5282
X5.4255Y-2.6252
X5.4261Y-7.085
X5.4324Y-1.0479
X5.4331Y-5.1635
X5.434Y-5.2397
X5.4365Y-5.3177
X5.4411Y-7.0068
X5.4487Y-3.2715
X5.4577Y-6.4919
X5.458Y-0.9744
X5.4592Y-5.8846
X5.4615Y-5.6263
X5.4634Y-2.5554
X5.4688Y-4.2654
X5.4693Y-3.382
X5.4696Y-6.4036
X5.4716Y-3.0246
X5.4755Y-6.6037
X5.4898Y-4.7837
X5.4921Y-3.5374
X5.4928Y-5.5692
X5.4953Y-5.4889
X5.4971Y-3.2074
X5.5024Y-7.3765
X5.5043Y-3.7531
X5.5124Y-4.1132
X5.5161Y-7.3042
X5.5165Y-4.9816
X5.5169Y-4.6482
X5.5183Y-2.9563
X5.5185Y-5.8394
X5.5195Y-5.759
X5.522Y-5.9971
X5.5236Y-6.0925
X5.5247Y-2.5287
X5.5257Y-2.3918
X5.5307Y-7.2261
X5.5361Y-3.1226
X5.5438Y-1.2251
X5.5444Y-4.301
X5.545Y-4.4935
X5.5477Y-4.7185
X5.5492Y-3.9422
X5.5552Y-6.7573
X5.5568Y-2.0405
X5.5585Y-2.9028
X5.5617Y-6.2154
X5.562Y-2.3005
X5.5629Y-5.3439
X5.5639Y-1.4743
X5.5642Y-1.1331
X5.5659Y-6.6791
X5.5659Y-6.8523
X5.5688Y-3.7205
X5.5701Y-1.7411
X5.5787Y-2.4618
X5.5804Y-2.1631
X5.5827Y-2.4319
X5.5868Y-5.4369
X5.5913Y-4.8419
X5.5961Y-1.9766
X5.5965Y-2.402
X5.5982Y-1.3972
X5.6Y-2.4929
X5.6023Y-2.74
X5.6063Y-2.4528
X5.6067Y-4.106
X5.6075Y-1.6767
X5.6075Y-5.1893
X5.6091Y-4.5613
X5.6097Y-1.8512
X5.615Y-2.4256
X5.6169Y-5.2656
X5.6205Y-1.3137
X5.6217Y-3.7364
X5.6232Y-2.474
X5.6237Y-1.5692
X5.6252Y-2.3949
X5.6271Y-4.9314
X5.6281Y-3.894
X5.6297Y-4.2066
X5.6325Y-0.8802
X5.6327Y-2.4476
X5.6383Y-6.3993
X5.6389Y-6.3061
X5.6437Y-2.4181
X5.6438Y-2.6519
X5.6496Y-2.3783
X5.6551Y-2.5122
X5.6574Y-6.9952
X5.6575Y-1.104
X5.6602Y-7.0796
X5.6604Y-3.4244
X5.6627Y-3.3069
X5.6645Y-6.9164
X5.6647Y-6.4998
X5.6657Y-2.402
X5.666Y-0.8135
X5.6706Y-3.9514
X5.6762Y-5.0062
X5.6798Y-5.6242
X5.6799Y-2.3807
X5.6803Y-2.5362
X5.6806Y-7.433
X5.6935Y-2.3473
X5.694Y-7.3597
X5.6944Y-1.0318
X5.6951Y-1.99
X5.6965Y-4.343
X5.7018Y-3.6316
X5.704Y-7.2813
X5.7048Y-5.8746
X5.7081Y-2.8372
X5.7108Y-3.2302
X5.7111Y-6.1019
X5.7135Y-4.2394
X5.7165Y-2.4811
X5.7228Y-0.9618
X5.7258Y-3.0837
X5.7276Y-2.4453
X5.7276Y-4.645
X5.7294Y-1.6976
X5.7365Y-2.2808
X5.7515Y-5.4634
X5.7524Y-4.8495
X5.7529Y-4.4654
X5.7555Y-6.6568
X5.7566Y-6.5705
X5.7588Y-5.7419
X5.7598Y-2.6881
X5.7608Y-4.3864
X5.7629Y-5.8216
X5.7704Y-6.7532
X5.7714Y-3.5987
X5.7839Y-4.0691
X5.784Y-3.0276
X5.7857Y-5.9742
X5.7865Y-5.179
X5.7889Y-6.0538
X5.7891Y-4.922
X5.7939Y-1.2161
X5.7944Y-1.4643
X5.7945Y-3.8822
X5.8095Y-2.6304
X5.8102Y-5.325
X5.815Y-3.2373
X5.8184Y-2.1633
X5.8201Y-2.2875
X5.8247Y-7.0493
X5.8271Y-7.1322
X5.8286Y-6.9698
X5.8339Y-1.1474
X5.835Y-3.6684
X5.836Y-1.3925
X5.8385Y-4.9974
X5.8389Y-2.9892
X5.8398Y-4.6622
X5.8405Y-5.2563
X5.841Y-6.3828
X5.8501Y-3.5168
X5.8505Y-6.1862
X5.8656Y-1.3104
X5.8657Y-5.698
X5.8678Y-1.0788
X5.8682Y-3.4018
X5.8692Y-2.0883
X5.8717Y-1.8639
X5.8752Y-2.6197
X5.8764Y-5.6642
X5.8777Y-3.1957
X5.8779Y-4.2283
X5.8807Y-5.7248
X5.8829Y-3.8667
X5.8874Y-5.7591
X5.8956Y-1.9762
X5.8956Y-4.7268
X5.8976Y-5.6406
X5.8981Y-5.5868
X5.8997Y-5.838
X5.9023Y-1.5897
X5.9028Y-5.6976
X5.9055Y-2.4884
X5.9073Y-4.4263
X5.9092Y-4.0183
X5.9106Y-5.6681
X5.9114Y-5.7327
X5.9118Y-0.8868
X5.9119Y-6.6292
X5.912Y-5.4541
X5.913Y-2.8426
X5.9145Y-6.7142
X5.9177Y-5.7752
X5.9205Y-1.7908
X5.9326Y-3.1526
X5.9338Y-6.8063
X5.936Y-3.3662
X5.9374Y-5.7197
X5.938Y-7.327
X5.9398Y-5.689
X5.9406Y-5.7559
X5.9415Y-6.2592
X5.9436Y-7.2495
X5.9448Y-5.9195
X5.946Y-6.3375
X5.9467Y-7.1742
X5.948Y-1.522
X5.9504Y-1.6965
X5.9515Y-0.8173
X5.9573Y-2.4314
X5.9575Y-5.5326
X5.9602Y-4.9801
X5.9634Y-5.6693
X5.9641Y-1.4224
X5.9646Y-4.7858
X5.965Y-5.7331
X5.9724Y-5.7701
X5.9736Y-1.2395
X5.9737Y-2.7892
X5.9744Y-3.8189
X5.9772Y-5.702
X5.9836Y-4.0282
X5.984Y-6.0486
X5.9933Y-5.6539
X5.9937Y-6.4438
X5.9964Y-5.0486
X5.9964Y-3.3209
X5.9977Y-2.1728
X5.9988Y-2.9618
X6.0Y-4.1261
X6.0038Y-5.2783
X6.0171Y-4.3909
X6.0193Y-5.1149
X6.0259Y-5.7811
X6.032Y-4.5629
X6.0343Y-5.7063
X6.0367Y-2.4448
X6.0382Y-3.719
X6.0416Y-6.8489
X6.0459Y-6.9335
X6.0504Y-7.0077
X6.052Y-2.317
X6.0527Y-3.5504
X6.0538Y-1.007
X6.0567Y-2.1066
X6.077Y-2.8289
X6.0789Y-4.752
X6.0818Y-1.8741
X6.0827Y-4.4316
X6.0837Y-4.0022
X6.0892Y-2.6531
X6.0923Y-6.5004
X6.0983Y-0.941
X6.1023Y-6.5883
X6.1024Y-1.0707
X6.1038Y-5.9013
X6.1117Y-2.2504
X6.1173Y-3.7094
X6.1198Y-5.5243
X6.1253Y-7.2824
X6.1258Y-1.622
X6.126Y-3.5316
X6.1265Y-7.2067
X6.1284Y-4.9039
X6.1301Y-6.6749
X6.1309Y-3.1908
X6.1323Y-1.8151
X6.1355Y-6.1102
X6.1442Y-2.7579
X6.1473Y-5.2228
X6.1499Y-2.0197
X6.152Y-4.809
X6.1523Y-6.3056
X6.1543Y-2.5806
X6.1574Y-2.138
X6.1586Y-2.9601
X6.1594Y-4.2217
X6.1632Y-3.9138
X6.1677Y-4.4704
X6.1689Y-5.361
X6.1718Y-4.9696
X6.1746Y-1.7156
X6.179Y-7.048
X6.1819Y-5.2953
X6.1913Y-3.5054
X6.1924Y-3.6842
X6.1925Y-3.3765
X6.1982Y-3.1605
X6.199Y-7.1355
X6.1996Y-5.0335
X6.2033Y-5.7451
X6.2039Y-5.9704
X6.2088Y-1.9552
X6.2162Y-2.6223
X6.2197Y-2.4578
X6.2232Y-6.0472
X6.227Y-4.6516
X6.2276Y-5.6056
X6.2395Y-2.3348
X6.2424Y-4.1427
X6.2425Y-3.919
X6.2427Y-6.7123
X6.2432Y-2.8397
X6.2501Y-1.8625
X6.2505Y-6.7965
X6.2529Y-5.6787
X6.255Y-6.5374
X6.2639Y-3.155
X6.264Y-4.3912
X6.2704Y-6.8752
X6.2707Y-3.3281
X6.2833Y-4.7029
X6.2874Y-5.4451
X6.2922Y-6.1537
X6.2941Y-6.621
X6.305Y-2.2706
X6.3067Y-1.0159
X6.3077Y-2.802
X6.3085Y-6.3455
X6.309Y-5.8114
X6.3142Y-3.9152
X6.3148Y-4.1641
X6.3226Y-4.9539
X6.3266Y-4.7585
X6.3317Y-4.4309
X6.3334Y-5.1147
X6.3355Y-5.5236
X6.3391Y-5.8987
X6.3479Y-3.41
X6.3496Y-3.7378
X6.3538Y-2.0532
X6.358Y-7.0667
X6.3591Y-2.1713
X6.3629Y-1.6519
X6.3639Y-3.0398
X6.3642Y-7.1415
X6.3671Y-7.2163
X6.3688Y-2.8186
X6.3691Y-5.2497
X6.3696Y-3.6068
X6.3717Y-4.181
X6.3736Y-0.9896
X6.3784Y-5.1794
X6.3882Y-4.4744
X6.3907Y-5.0189
X6.3914Y-6.9029
X6.397Y-6.1977
X6.401Y-2.4912
X6.4159Y-5.993
X6.416Y-1.9971
X6.4175Y-7.2591
X6.4187Y-6.2763
X6.4217Y-6.5577
X6.4218Y-6.9885
X6.4226Y-3.3915
X6.4291Y-1.6122
X6.4294Y-2.3751
X6.4338Y-3.0096
X6.4361Y-2.7082
X6.4389Y-6.6392
X6.4402Y-1.8042
X6.4403Y-5.6244
X6.4444Y-3.6016
X6.4458Y-3.2529
X6.4487Y-4.0719
X6.4593Y-5.8335
X6.4612Y-4.6123
X6.465Y-1.9118
X6.4676Y-6.7224
X6.4724Y-1.5807
X6.4744Y-6.3677
X6.4774Y-3.4014
X6.478Y-4.8151
X6.4866Y-4.3019
X6.4913Y-5.3089
X6.4913Y-3.0335
X6.4958Y-3.8798
X6.4965Y-5.9201
X6.4993Y-2.3183
X6.5006Y-1.7407
X6.5018Y-5.4522
X6.5027Y-3.6107
X6.5118Y-2.6457
X6.5199Y-4.0908
X6.5236Y-6.034
X6.5248Y-1.1331
X6.5335Y-5.3777
X6.5335Y-3.2067
X6.543Y-7.0722
X6.5463Y-4.9357
X6.5486Y-1.6694
X6.5495Y-7.1449
X6.5513Y-5.6736
X6.5516Y-4.496
X6.5554Y-5.1031
X6.5558Y-6.1167
X6.5565Y-2.2271
X6.5621Y-2.111
X6.5646Y-4.8582
X6.5671Y-7.1024
X6.5685Y-3.8915
X6.5709Y-4.1196
X6.5739Y-2.9284
X6.5819Y-1.2283
X6.5827Y-2.5483
X6.5845Y-6.3947
X6.5859Y-2.7708
X6.5878Y-6.7402
X6.5886Y-3.3213
X6.5962Y-2.0417
X6.6028Y-6.8187
X6.6068Y-5.7477
X6.6106Y-6.477
X6.6141Y-6.1984
X6.6158Y-4.6476
X6.6175Y-2.4361
X6.6189Y-3.3382
X6.6235Y-3.9147
X6.6266Y-6.8955
X6.6339Y-3.3657
X6.6358Y-3.2614
X6.6387Y-3.5444
X6.6409Y-3.7004
X6.6453Y-4.531
X6.6468Y-6.5549
X6.6523Y-3.1014
X6.6548Y-4.3087
X6.6588Y-2.881
X6.6596Y-1.4839
X6.6625Y-5.4669
X6.6652Y-1.868
X6.6693Y-3.3205
X6.6738Y-3.2181
X6.6792Y-2.7284
X6.6809Y-4.9731
X6.6815Y-1.9815
X6.682Y-5.1443
X6.6823Y-5.8347
X6.6829Y-4.6947
X6.6835Y-3.3555
X6.6862Y-6.0376
X6.6908Y-2.3879
X6.6929Y-3.3906
X6.6972Y-3.3059
X6.6981Y-4.7595
X6.7012Y-3.2413
X6.7016Y-3.2697
X6.7043Y-3.3339
X6.7047Y-5.2866
X6.7115Y-1.2645
X6.7182Y-1.4285
X6.7182Y-6.1142
X6.7193Y-1.7905
X6.722Y-3.2878
X6.7249Y-3.2265
X6.7272Y-4.1026
X6.7284Y-4.3397
X6.7287Y-3.3858
X6.7288Y-7.0657
X6.7293Y-6.2163
X6.7317Y-3.5198
X6.7332Y-5.2068
X6.7367Y-3.0049
X6.7398Y-2.7882
X6.7409Y-7.139
X6.7449Y-4.6287
X6.7458Y-1.6389
X6.7461Y-4.6587
X6.7484Y-4.6894
X6.752Y-3.363
X6.752Y-4.7213
X6.7525Y-4.3904
X6.7554Y-2.3055
X6.7567Y-5.0325
X6.7612Y-6.2982
X6.7644Y-2.1886
X6.7655Y-6.7335
X6.7658Y-3.8762
X6.7661Y-5.6519
X6.7685Y-6.5645
X6.7701Y-1.2087
X6.7713Y-1.3725
X6.7726Y-3.6426
X6.7802Y-5.496
X6.7868Y-6.8104
X6.7906Y-4.6287
X6.7913Y-4.6614
X6.7932Y-2.5256
X6.7932Y-5.8611
X6.7941Y-4.6925
X6.796Y-2.6819
X6.7969Y-4.724
X6.8051Y-6.3721
X6.8092Y-2.981
X6.8099Y-6.8813
X6.812Y-1.5822
X6.8187Y-4.2377
X6.8193Y-4.7366
X6.8199Y-6.6441
X6.8213Y-4.6701
X6.8213Y-4.7047
X6.823Y-1.7966
X6.8241Y-4.1093
X6.8245Y-5.3133
X6.8249Y-5.5622
X6.8274Y-3.2548
X6.8294Y-4.7746
X6.8344Y-2.1425
X6.8369Y-5.9364
X6.8428Y-3.8887
X6.8457Y-4.6902
X6.8469Y-4.7252
X6.854Y-3.6415
X6.8608Y-1.5288
X6.8674Y-3.0405
X6.8687Y-3.447
X6.8703Y-2.4831
X6.8713Y-4.7047
X6.8766Y-3.9434
X6.8777Y-5.6685
X6.879Y-2.6378
X6.8845Y-1.7491
X6.885Y-3.6954
X6.8853Y-5.3835
X6.8856Y-1.9573
X6.8864Y-5.0896
X6.887Y-4.9069
X6.8892Y-2.0722
X6.8932Y-4.3879
X6.8948Y-4.8246
X6.896Y-6.2042
X6.9043Y-6.0073
X6.9055Y-4.6728
X6.9114Y-2.8846
X6.9155Y-4.2381
X6.9184Y-3.2264
X6.9275Y-5.7441
X6.9308Y-6.2777
X6.9372Y-6.8803
X6.9378Y-1.6894
X6.9395Y-4.5401
X6.9428Y-6.5479
X6.951Y-2.5618
X6.9521Y-1.912
X6.9563Y-6.9544
X6.9612Y-2.2892
X6.9673Y-3.3651
X6.9682Y-2.7823
X6.9712Y-1.3656
X6.9714Y-6.6197
X6.9761Y-4.0855
X6.9785Y-6.3543
X6.981Y-2.4513
X6.9865Y-4.4217
X6.9906Y-5.4422
X7.0019Y-1.3531
X7.0036Y-6.6935
X7.0052Y-1.8529
X7.0055Y-5.8104
X7.0061Y-3.8954
X7.0075Y-3.6326
X7.0098Y-5.0967
X7.0127Y-4.9082
X7.0145Y-3.1578
X7.0204Y-1.4782
X7.0215Y-6.0102
X7.0218Y-4.5928
X7.023Y-4.6737
X7.0268Y-5.246
X7.0294Y-1.3174
X7.0312Y-2.2524
X7.0375Y-5.6419
X7.0409Y-4.3118
X7.0415Y-2.7569
X7.0484Y-3.3569
X7.0563Y-2.4145
X7.0653Y-5.1507
X7.0655Y-6.0876
X7.0688Y-1.4109
X7.0856Y-4.9635
X7.0875Y-5.7084
X7.0895Y-3.4319
X7.0939Y-3.0623
X7.0964Y-2.0696
X7.0973Y-2.185
X7.0998Y-4.0493
X7.1008Y-6.3483
X7.1018Y-3.7712
X7.1022Y-3.9047
X7.1032Y-3.6241
X7.1034Y-5.4457
X7.106Y-2.8433
X7.1138Y-6.1552
X7.1216Y-2.3542
X7.1231Y-4.4181
X7.1246Y-2.6815
X7.1276Y-6.6817
X7.1324Y-6.4208
X7.1402Y-4.3136
X7.1412Y-1.6936
X7.1463Y-4.6617
X7.153Y-4.8458
X7.1536Y-6.7546
X7.1595Y-5.5106
X7.1607Y-2.5755
X7.166Y-2.0313
X7.1674Y-5.7751
X7.1711Y-6.4908
X7.1778Y-3.0419
X7.1781Y-4.0687
X7.1787Y-3.3519
X7.1837Y-5.1991
X7.187Y-5.9733
X7.1896Y-4.1503
X7.1958Y-3.7839
X7.1982Y-5.0008
X7.2075Y-1.6511
X7.2087Y-1.8595
X7.2126Y-3.5803
X7.2229Y-3.868
X7.2232Y-1.9774
X7.2254Y-3.2056
X7.2255Y-4.7042
X7.2277Y-6.0415
X7.2281Y-4.8964
X7.241Y-4.39
X7.2421Y-2.5424
X7.2447Y-5.5648
X7.2641Y-2.9822
X7.2649Y-1.6085
X7.2695Y-3.3395
X7.271Y-6.3054
X7.276Y-1.7962
X7.2815Y-5.7647
X7.2842Y-6.1089
X7.298Y-2.2053
X7.2996Y-5.1851
X7.3017Y-3.5048
X7.3025Y-5.3541
X7.3041Y-4.5227
X7.3078Y-2.4894
X7.3078Y-6.3747
X7.308Y-6.6363
X7.3131Y-4.0405
X7.3152Y-4.9785
X7.3164Y-4.4241
X7.3165Y-3.1906
X7.3181Y-2.8804
X7.3238Y-3.808
X7.3253Y-2.3743
X7.3284Y-5.83
X7.3328Y-2.7162
X7.3363Y-4.7181
X7.3382Y-6.7071
X7.3426Y-6.4453
X7.3563Y-5.2392
X7.3601Y-5.5465
X7.3617Y-3.2914
X7.3709Y-2.1724
X7.3713Y-1.8323
X7.3722Y-4.2905
X7.3801Y-3.5061
X7.3836Y-5.0295
X7.3956Y-5.885
X7.3989Y-2.3446
X7.4003Y-2.8595
X7.4028Y-6.0862
X7.4069Y-2.6949
X7.4119Y-3.605
X7.4131Y-3.8178
X7.4144Y-5.6078
X7.4163Y-3.9857
X7.4261Y-2.0031
X7.4292Y-3.1977
X7.4346Y-2.127
X7.4363Y-4.4238
X7.4387Y-1.7966
X7.4464Y-6.1531
X7.4488Y-4.6882
X7.452Y-5.2873
X7.4526Y-4.8964
X7.4611Y-4.3167
X7.4648Y-2.2981
X7.4667Y-3.0403
X7.4722Y-6.4126
X7.4743Y-2.8154
X7.4787Y-5.0589
X7.4868Y-5.6575
X7.4882Y-4.0046
X7.4892Y-3.4599
X7.4921Y-6.2157
X7.4976Y-1.9709
X7.4979Y-4.1109
X7.5062Y-6.4796
X7.5065Y-5.8578
X7.5082Y-2.7041
X7.5089Y-2.5329
X7.5108Y-5.4752
X7.5124Y-3.1906
X7.5165Y-3.7897
X7.5239Y-4.7299
X7.5245Y-4.9441
X7.5458Y-3.0287
X7.5581Y-4.3127
X7.5586Y-3.3738
X7.5593Y-5.2501
X7.5619Y-1.9393
X7.5628Y-5.9263
X7.5698Y-5.5348
X7.5857Y-2.5084
X7.5911Y-2.6835
X7.5962Y-3.1514
X7.598Y-4.5286
X7.5997Y-3.9847
X7.6005Y-3.7125
X7.6063Y-5.3118
X7.6123Y-5.9827
X7.6158Y-4.9722
X7.6186Y-4.7481
X7.6309Y-2.9854
X7.6335Y-2.1721
X7.6379Y-5.5805
X7.6412Y-3.3714
X7.6449Y-5.1327
X7.655Y-2.4693
X7.6567Y-4.2549
X7.6573Y-6.1449
X7.6606Y-2.6457
X7.6633Y-2.3509
X7.6673Y-5.7797
X7.6693Y-3.5649
X7.6697Y-2.8818
X7.6812Y-3.7214
X7.6889Y-3.9126
X7.7037Y-2.148
X7.7157Y-4.4145
X7.7204Y-5.842
X7.7207Y-4.6967
X7.7261Y-3.3436
X7.7265Y-4.9263
X7.736Y-2.328
X7.7423Y-4.2828
X7.7457Y-5.5579
X7.7489Y-3.5714
X7.7524Y-2.8676
X7.7622Y-3.9314
X7.7656Y-4.0584
X7.7708Y-2.1244
X7.7709Y-3.7023
X7.7756Y-5.893
X7.7785Y-6.0961
X7.7826Y-3.2436
X7.7923Y-4.9696
X7.7956Y-4.7354
X7.806Y-2.3038
X7.8102Y-5.5978
X7.8144Y-3.0765
X7.8238Y-4.283
X7.8258Y-2.8397
X7.8278Y-6.1623
X7.8327Y-2.6591
X7.8392Y-4.5767
X7.8422Y-3.5486
X7.8474Y-2.5393
X7.8583Y-3.9199
X7.8637Y-5.645
X7.8644Y-3.2404
X7.8774Y-4.7554
X7.8886Y-5.8441
X7.8906Y-4.9827
X7.8983Y-3.0677
X7.8995Y-3.4534
X7.913Y-4.2099
X7.9134Y-4.6122
X7.9233Y-2.525
X7.9305Y-3.8317
X7.9378Y-3.2221
X7.9399Y-5.9039
X7.966Y-3.0506
X7.9707Y-4.9364
X7.9716Y-4.3841
X7.9848Y-3.4546
X7.9914Y-2.5025
X7.9944Y-4.6299
X7.9955Y-4.2356
X8.0014Y-4.0632
X8.0021Y-3.6751
X8.0035Y-2.9304
X8.0102Y-2.7496
X8.0211Y-3.8471
X8.0414Y-5.7375
X8.0415Y-4.9812
X8.0561Y-3.4456
X8.0638Y-5.6007
X8.0682Y-4.2446
X8.0783Y-3.6853
X8.0824Y-4.0849
X8.0829Y-2.9235
X8.0844Y-4.5545
X8.0884Y-2.7379
X8.0897Y-4.807
X8.0909Y-3.8474
X8.0972Y-5.7942
X8.1059Y-5.0091
X8.1087Y-3.3348
X8.1414Y-3.1579
X8.1537Y-2.9131
X8.1562Y-3.6831
X8.1566Y-4.0939
X8.159Y-2.7271
X8.1594Y-4.5879
X8.1616Y-4.8459
X8.1772Y-5.5234
X8.2015Y-3.3169
X8.2059Y-4.3438
X8.2144Y-3.5752
X8.2189Y-3.1573
X8.2232Y-5.3803
X8.2247Y-4.879
X8.2282Y-4.6148
X8.2296Y-3.9944
X8.235Y-5.2501
X8.2573Y-3.3995
X8.2818Y-4.2539
X8.2883Y-3.1542
X8.2948Y-3.5834
X8.2975Y-5.0673
X8.3Y-3.8272
X8.3064Y-4.0138
X8.3175Y-4.7932
X8.3291Y-4.4632
X8.3436Y-3.4039
X8.3607Y-4.278
X8.3629Y-3.5892
X8.3631Y-5.1106
X8.3727Y-4.0277
X8.3764Y-3.8424
X8.3868Y-4.8305
X8.42Y-4.2994
X8.4256Y-4.6396
X8.4454Y-3.8545
X8.5061Y-4.6392
M30
