%TF.GenerationSoftware,KiCad,Pcbnew,7.0.11*%
%TF.CreationDate,2025-06-24T23:15:39+09:00*%
%TF.ProjectId,Drive,44726976-652e-46b6-9963-61645f706362,rev?*%
%TF.SameCoordinates,Original*%
%TF.FileFunction,Soldermask,Bot*%
%TF.FilePolarity,Negative*%
%FSLAX46Y46*%
G04 Gerber Fmt 4.6, Leading zero omitted, Abs format (unit mm)*
G04 Created by KiCad (PCBNEW 7.0.11) date 2025-06-24 23:15:39*
%MOMM*%
%LPD*%
G01*
G04 APERTURE LIST*
G04 Aperture macros list*
%AMRoundRect*
0 Rectangle with rounded corners*
0 $1 Rounding radius*
0 $2 $3 $4 $5 $6 $7 $8 $9 X,Y pos of 4 corners*
0 Add a 4 corners polygon primitive as box body*
4,1,4,$2,$3,$4,$5,$6,$7,$8,$9,$2,$3,0*
0 Add four circle primitives for the rounded corners*
1,1,$1+$1,$2,$3*
1,1,$1+$1,$4,$5*
1,1,$1+$1,$6,$7*
1,1,$1+$1,$8,$9*
0 Add four rect primitives between the rounded corners*
20,1,$1+$1,$2,$3,$4,$5,0*
20,1,$1+$1,$4,$5,$6,$7,0*
20,1,$1+$1,$6,$7,$8,$9,0*
20,1,$1+$1,$8,$9,$2,$3,0*%
%AMHorizOval*
0 Thick line with rounded ends*
0 $1 width*
0 $2 $3 position (X,Y) of the first rounded end (center of the circle)*
0 $4 $5 position (X,Y) of the second rounded end (center of the circle)*
0 Add line between two ends*
20,1,$1,$2,$3,$4,$5,0*
0 Add two circle primitives to create the rounded ends*
1,1,$1,$2,$3*
1,1,$1,$4,$5*%
%AMRotRect*
0 Rectangle, with rotation*
0 The origin of the aperture is its center*
0 $1 length*
0 $2 width*
0 $3 Rotation angle, in degrees counterclockwise*
0 Add horizontal line*
21,1,$1,$2,0,0,$3*%
%AMFreePoly0*
4,1,33,0.500000,-0.750000,0.000000,-0.750000,0.000000,-0.749013,-0.031395,-0.749013,-0.093691,-0.741144,-0.154508,-0.725528,-0.212890,-0.702414,-0.267913,-0.672164,-0.318712,-0.635257,-0.364484,-0.592274,-0.404508,-0.543893,-0.438153,-0.490877,-0.464888,-0.434062,-0.484292,-0.374345,-0.496057,-0.312667,-0.500000,-0.250000,-0.500000,0.250000,-0.496057,0.312667,-0.484292,0.374345,-0.464888,0.434062,
-0.438153,0.490877,-0.404508,0.543893,-0.364484,0.592274,-0.318712,0.635257,-0.267913,0.672164,-0.212890,0.702414,-0.154508,0.725528,-0.093691,0.741144,-0.031395,0.749013,0.000000,0.749013,0.000000,0.750000,0.500000,0.750000,0.500000,-0.750000,0.500000,-0.750000,$1*%
%AMFreePoly1*
4,1,33,0.000000,0.749013,0.031395,0.749013,0.093691,0.741144,0.154508,0.725528,0.212890,0.702414,0.267913,0.672164,0.318712,0.635257,0.364484,0.592274,0.404508,0.543893,0.438153,0.490877,0.464888,0.434062,0.484292,0.374345,0.496057,0.312667,0.500000,0.250000,0.500000,-0.250000,0.496057,-0.312667,0.484292,-0.374345,0.464888,-0.434062,0.438153,-0.490877,0.404508,-0.543893,
0.364484,-0.592274,0.318712,-0.635257,0.267913,-0.672164,0.212890,-0.702414,0.154508,-0.725528,0.093691,-0.741144,0.031395,-0.749013,0.000000,-0.749013,0.000000,-0.750000,-0.500000,-0.750000,-0.500000,0.750000,0.000000,0.750000,0.000000,0.749013,0.000000,0.749013,$1*%
G04 Aperture macros list end*
%ADD10HorizOval,1.100000X-0.212132X0.212132X0.212132X-0.212132X0*%
%ADD11C,1.524000*%
%ADD12C,0.800000*%
%ADD13C,6.400000*%
%ADD14C,1.200000*%
%ADD15C,2.000000*%
%ADD16RoundRect,0.350000X0.000000X0.494975X-0.494975X0.000000X0.000000X-0.494975X0.494975X0.000000X0*%
%ADD17C,1.400000*%
%ADD18RoundRect,0.140000X0.219203X0.021213X0.021213X0.219203X-0.219203X-0.021213X-0.021213X-0.219203X0*%
%ADD19RoundRect,0.135000X0.135000X0.185000X-0.135000X0.185000X-0.135000X-0.185000X0.135000X-0.185000X0*%
%ADD20RoundRect,0.135000X-0.226274X-0.035355X-0.035355X-0.226274X0.226274X0.035355X0.035355X0.226274X0*%
%ADD21RoundRect,0.175000X-0.325000X-0.175000X0.325000X-0.175000X0.325000X0.175000X-0.325000X0.175000X0*%
%ADD22RoundRect,0.135000X0.185000X-0.135000X0.185000X0.135000X-0.185000X0.135000X-0.185000X-0.135000X0*%
%ADD23RoundRect,0.250000X0.325000X0.650000X-0.325000X0.650000X-0.325000X-0.650000X0.325000X-0.650000X0*%
%ADD24RoundRect,0.135000X-0.035355X0.226274X-0.226274X0.035355X0.035355X-0.226274X0.226274X-0.035355X0*%
%ADD25RoundRect,0.140000X-0.140000X-0.170000X0.140000X-0.170000X0.140000X0.170000X-0.140000X0.170000X0*%
%ADD26RoundRect,0.140000X-0.219203X-0.021213X-0.021213X-0.219203X0.219203X0.021213X0.021213X0.219203X0*%
%ADD27RoundRect,0.150000X0.583363X-0.371231X-0.371231X0.583363X-0.583363X0.371231X0.371231X-0.583363X0*%
%ADD28RoundRect,0.140000X0.140000X0.170000X-0.140000X0.170000X-0.140000X-0.170000X0.140000X-0.170000X0*%
%ADD29R,1.200000X1.400000*%
%ADD30RoundRect,0.150000X0.521491X-0.309359X-0.309359X0.521491X-0.521491X0.309359X0.309359X-0.521491X0*%
%ADD31RoundRect,0.250000X-0.475000X0.250000X-0.475000X-0.250000X0.475000X-0.250000X0.475000X0.250000X0*%
%ADD32RoundRect,0.135000X-0.135000X-0.185000X0.135000X-0.185000X0.135000X0.185000X-0.135000X0.185000X0*%
%ADD33RoundRect,0.135000X0.035355X-0.226274X0.226274X-0.035355X-0.035355X0.226274X-0.226274X0.035355X0*%
%ADD34RoundRect,0.150000X-0.309359X-0.521491X0.521491X0.309359X0.309359X0.521491X-0.521491X-0.309359X0*%
%ADD35RoundRect,0.140000X0.170000X-0.140000X0.170000X0.140000X-0.170000X0.140000X-0.170000X-0.140000X0*%
%ADD36RoundRect,0.135000X-0.185000X0.135000X-0.185000X-0.135000X0.185000X-0.135000X0.185000X0.135000X0*%
%ADD37RoundRect,0.200000X0.200000X0.275000X-0.200000X0.275000X-0.200000X-0.275000X0.200000X-0.275000X0*%
%ADD38RoundRect,0.200000X-0.053033X0.335876X-0.335876X0.053033X0.053033X-0.335876X0.335876X-0.053033X0*%
%ADD39RoundRect,0.250000X-0.053033X0.901561X-0.901561X0.053033X0.053033X-0.901561X0.901561X-0.053033X0*%
%ADD40HorizOval,1.700000X-0.053033X0.053033X0.053033X-0.053033X0*%
%ADD41RoundRect,0.200000X0.335876X0.053033X0.053033X0.335876X-0.335876X-0.053033X-0.053033X-0.335876X0*%
%ADD42RoundRect,0.140000X-0.170000X0.140000X-0.170000X-0.140000X0.170000X-0.140000X0.170000X0.140000X0*%
%ADD43RoundRect,0.135000X0.226274X0.035355X0.035355X0.226274X-0.226274X-0.035355X-0.035355X-0.226274X0*%
%ADD44RoundRect,0.250000X0.475000X-0.250000X0.475000X0.250000X-0.475000X0.250000X-0.475000X-0.250000X0*%
%ADD45RoundRect,0.150000X-0.587500X-0.150000X0.587500X-0.150000X0.587500X0.150000X-0.587500X0.150000X0*%
%ADD46RoundRect,0.150000X-0.583363X0.371231X0.371231X-0.583363X0.583363X-0.371231X-0.371231X0.583363X0*%
%ADD47RoundRect,0.218750X-0.256250X0.218750X-0.256250X-0.218750X0.256250X-0.218750X0.256250X0.218750X0*%
%ADD48RoundRect,0.250000X0.053033X-0.901561X0.901561X-0.053033X-0.053033X0.901561X-0.901561X0.053033X0*%
%ADD49RoundRect,0.175000X-0.353553X0.106066X0.106066X-0.353553X0.353553X-0.106066X-0.106066X0.353553X0*%
%ADD50RoundRect,0.150000X-0.150000X0.587500X-0.150000X-0.587500X0.150000X-0.587500X0.150000X0.587500X0*%
%ADD51RoundRect,0.237500X-0.237500X0.250000X-0.237500X-0.250000X0.237500X-0.250000X0.237500X0.250000X0*%
%ADD52RoundRect,0.250000X0.901561X0.053033X0.053033X0.901561X-0.901561X-0.053033X-0.053033X-0.901561X0*%
%ADD53HorizOval,1.700000X0.053033X0.053033X-0.053033X-0.053033X0*%
%ADD54RoundRect,0.225000X-0.225000X-0.250000X0.225000X-0.250000X0.225000X0.250000X-0.225000X0.250000X0*%
%ADD55RoundRect,0.250000X-0.250000X0.250000X-0.250000X-0.250000X0.250000X-0.250000X0.250000X0.250000X0*%
%ADD56RoundRect,0.225000X-0.225000X-0.375000X0.225000X-0.375000X0.225000X0.375000X-0.225000X0.375000X0*%
%ADD57RoundRect,0.250000X-0.250000X-0.250000X0.250000X-0.250000X0.250000X0.250000X-0.250000X0.250000X0*%
%ADD58R,2.250000X2.250000*%
%ADD59C,2.250000*%
%ADD60RotRect,1.000000X1.000000X135.000000*%
%ADD61C,1.000000*%
%ADD62RoundRect,0.150000X0.675000X0.150000X-0.675000X0.150000X-0.675000X-0.150000X0.675000X-0.150000X0*%
%ADD63RoundRect,0.200000X-0.200000X-0.275000X0.200000X-0.275000X0.200000X0.275000X-0.200000X0.275000X0*%
%ADD64RoundRect,0.150000X-0.521491X0.309359X0.309359X-0.521491X0.521491X-0.309359X-0.309359X0.521491X0*%
%ADD65RoundRect,0.200000X-0.335876X-0.053033X-0.053033X-0.335876X0.335876X0.053033X0.053033X0.335876X0*%
%ADD66RoundRect,0.175000X0.325000X0.175000X-0.325000X0.175000X-0.325000X-0.175000X0.325000X-0.175000X0*%
%ADD67RoundRect,0.375000X-0.375000X0.625000X-0.375000X-0.625000X0.375000X-0.625000X0.375000X0.625000X0*%
%ADD68RoundRect,0.500000X-1.400000X0.500000X-1.400000X-0.500000X1.400000X-0.500000X1.400000X0.500000X0*%
%ADD69RoundRect,0.200000X0.600000X-0.200000X0.600000X0.200000X-0.600000X0.200000X-0.600000X-0.200000X0*%
%ADD70RoundRect,0.250001X1.249999X-0.799999X1.249999X0.799999X-1.249999X0.799999X-1.249999X-0.799999X0*%
%ADD71RoundRect,0.250000X-0.901561X-0.053033X-0.053033X-0.901561X0.901561X0.053033X0.053033X0.901561X0*%
%ADD72HorizOval,1.700000X-0.053033X-0.053033X0.053033X0.053033X0*%
%ADD73RoundRect,0.150000X-0.150000X0.675000X-0.150000X-0.675000X0.150000X-0.675000X0.150000X0.675000X0*%
%ADD74RoundRect,0.250000X0.250000X-0.250000X0.250000X0.250000X-0.250000X0.250000X-0.250000X-0.250000X0*%
%ADD75FreePoly0,180.000000*%
%ADD76FreePoly1,180.000000*%
%ADD77RoundRect,0.250000X0.159099X-0.512652X0.512652X-0.159099X-0.159099X0.512652X-0.512652X0.159099X0*%
%ADD78FreePoly0,90.000000*%
%ADD79FreePoly1,90.000000*%
%ADD80RoundRect,0.150000X0.150000X-0.587500X0.150000X0.587500X-0.150000X0.587500X-0.150000X-0.587500X0*%
%ADD81RoundRect,0.175000X-0.106066X-0.353553X0.353553X0.106066X0.106066X0.353553X-0.353553X-0.106066X0*%
%ADD82C,1.700000*%
%ADD83RoundRect,0.225000X0.225000X0.250000X-0.225000X0.250000X-0.225000X-0.250000X0.225000X-0.250000X0*%
%ADD84RoundRect,0.200000X-0.600000X0.200000X-0.600000X-0.200000X0.600000X-0.200000X0.600000X0.200000X0*%
%ADD85RoundRect,0.250001X-1.249999X0.799999X-1.249999X-0.799999X1.249999X-0.799999X1.249999X0.799999X0*%
%ADD86RoundRect,0.225000X0.017678X-0.335876X0.335876X-0.017678X-0.017678X0.335876X-0.335876X0.017678X0*%
%ADD87RoundRect,0.075000X-0.725000X-0.075000X0.725000X-0.075000X0.725000X0.075000X-0.725000X0.075000X0*%
%ADD88RoundRect,0.075000X-0.075000X-0.725000X0.075000X-0.725000X0.075000X0.725000X-0.075000X0.725000X0*%
G04 APERTURE END LIST*
%TO.C,U2*%
G36*
X119630001Y-96630000D02*
G01*
X119330001Y-96630000D01*
X119330001Y-94980000D01*
X119630001Y-94980000D01*
X119630001Y-96630000D01*
G37*
G36*
X119130001Y-96630000D02*
G01*
X118830001Y-96630000D01*
X118830001Y-94980000D01*
X119130001Y-94980000D01*
X119130001Y-96630000D01*
G37*
G36*
X118430001Y-96630000D02*
G01*
X117930001Y-96630000D01*
X117930001Y-94980000D01*
X118430001Y-94980000D01*
X118430001Y-96630000D01*
G37*
G36*
X118530001Y-97130000D02*
G01*
X117130001Y-97130000D01*
X117130001Y-96830000D01*
X118530001Y-96830000D01*
X118530001Y-97130000D01*
G37*
G36*
X118530001Y-98130000D02*
G01*
X117130001Y-98130000D01*
X117130001Y-97830000D01*
X118530001Y-97830000D01*
X118530001Y-98130000D01*
G37*
G36*
X119630001Y-99980000D02*
G01*
X119330001Y-99980000D01*
X119330001Y-98330000D01*
X119630001Y-98330000D01*
X119630001Y-99980000D01*
G37*
G36*
X119130001Y-99980000D02*
G01*
X118830001Y-99980000D01*
X118830001Y-98330000D01*
X119130001Y-98330000D01*
X119130001Y-99980000D01*
G37*
G36*
X118430001Y-99980000D02*
G01*
X117930001Y-99980000D01*
X117930001Y-98330000D01*
X118430001Y-98330000D01*
X118430001Y-99980000D01*
G37*
G36*
X119205502Y-97380000D02*
G01*
X119205502Y-97580000D01*
X119155502Y-97630000D01*
X117130001Y-97630000D01*
X117130001Y-97330000D01*
X119155502Y-97330000D01*
X119205502Y-97380000D01*
G37*
G36*
X122155001Y-95955002D02*
G01*
X122155001Y-96980004D01*
X122104998Y-97030003D01*
X120155002Y-97030001D01*
X120105012Y-96980001D01*
X120105002Y-95954999D01*
X120154974Y-95055004D01*
X122105001Y-95054999D01*
X122155001Y-95955002D01*
G37*
G36*
X122155029Y-97979997D02*
G01*
X122155029Y-99004999D01*
X122105026Y-99904998D01*
X120155030Y-99904996D01*
X120105040Y-99004996D01*
X120105030Y-97979994D01*
X120155002Y-97929999D01*
X122105026Y-97929994D01*
X122155029Y-97979997D01*
G37*
%TD*%
D10*
%TO.C,J7*%
X145073978Y-138183381D03*
X147760984Y-140870387D03*
X151183381Y-132073978D03*
X153870387Y-134760984D03*
%TD*%
D11*
%TO.C,U7*%
X141090000Y-120230000D03*
X148710000Y-120230000D03*
X141090000Y-117690000D03*
X148710000Y-125310000D03*
X148710000Y-122770000D03*
X141090000Y-125310000D03*
X141090000Y-122770000D03*
X148710000Y-117690000D03*
%TD*%
D12*
%TO.C,H1*%
X115050000Y-45340000D03*
X115752944Y-43642944D03*
X115752944Y-47037056D03*
X117450000Y-42940000D03*
D13*
X117450000Y-45340000D03*
D12*
X117450000Y-47740000D03*
X119147056Y-43642944D03*
X119147056Y-47037056D03*
X119850000Y-45340000D03*
%TD*%
D14*
%TO.C,C32*%
X158892042Y-113364466D03*
X160306256Y-111950253D03*
%TD*%
D15*
%TO.C,TP3*%
X108030000Y-109170000D03*
%TD*%
D12*
%TO.C,H2*%
X134135000Y-45337000D03*
X134837944Y-43639944D03*
X134837944Y-47034056D03*
X136535000Y-42937000D03*
D13*
X136535000Y-45337000D03*
D12*
X136535000Y-47737000D03*
X138232056Y-43639944D03*
X138232056Y-47034056D03*
X138935000Y-45337000D03*
%TD*%
D16*
%TO.C,SW2*%
X86311396Y-120141902D03*
D17*
X86806371Y-116111393D03*
X82775862Y-116606368D03*
%TD*%
D14*
%TO.C,C33*%
X95107959Y-114635534D03*
X93693745Y-116049747D03*
%TD*%
D18*
%TO.C,C27*%
X148577710Y-101654308D03*
X147898888Y-100975486D03*
%TD*%
D19*
%TO.C,R21*%
X92740000Y-123160000D03*
X91720000Y-123160000D03*
%TD*%
D20*
%TO.C,R4*%
X143139376Y-136099376D03*
X143860624Y-136820624D03*
%TD*%
D21*
%TO.C,Q6*%
X128500000Y-97050000D03*
X128500000Y-95150000D03*
X130900000Y-96100000D03*
%TD*%
D22*
%TO.C,R25*%
X132180000Y-103210000D03*
X132180000Y-102190000D03*
%TD*%
D23*
%TO.C,C16*%
X119375000Y-93480000D03*
X116425000Y-93480000D03*
%TD*%
D24*
%TO.C,R3*%
X144429624Y-129021376D03*
X143708376Y-129742624D03*
%TD*%
D25*
%TO.C,C4*%
X134800000Y-141530000D03*
X135760000Y-141530000D03*
%TD*%
D24*
%TO.C,R33*%
X159710624Y-102659376D03*
X158989376Y-103380624D03*
%TD*%
D26*
%TO.C,C35*%
X136810589Y-153750589D03*
X137489411Y-154429411D03*
%TD*%
D27*
%TO.C,U3*%
X153103194Y-106809117D03*
X152205168Y-107707142D03*
X151307142Y-108605168D03*
X150409117Y-109503194D03*
X146696806Y-105790883D03*
X147594832Y-104892858D03*
X148492858Y-103994832D03*
X149390883Y-103096806D03*
%TD*%
D28*
%TO.C,C3*%
X132144000Y-126390000D03*
X131184000Y-126390000D03*
%TD*%
D29*
%TO.C,Y2*%
X113348000Y-137184000D03*
X113348000Y-134984000D03*
X115048000Y-134984000D03*
X115048000Y-137184000D03*
%TD*%
D30*
%TO.C,Q17*%
X135560664Y-145292161D03*
X134217161Y-146635664D03*
X133563087Y-144638087D03*
%TD*%
D31*
%TO.C,C41*%
X123600000Y-95250000D03*
X123600000Y-97150000D03*
%TD*%
D20*
%TO.C,R20*%
X90839376Y-123839376D03*
X91560624Y-124560624D03*
%TD*%
D18*
%TO.C,C1*%
X119143411Y-126305411D03*
X118464589Y-125626589D03*
%TD*%
D32*
%TO.C,R51*%
X105410000Y-119850000D03*
X106430000Y-119850000D03*
%TD*%
D33*
%TO.C,R41*%
X146569528Y-103690776D03*
X147290776Y-102969528D03*
%TD*%
D24*
%TO.C,R35*%
X154140624Y-112189376D03*
X153419376Y-112910624D03*
%TD*%
D22*
%TO.C,R19*%
X118650000Y-90210000D03*
X118650000Y-89190000D03*
%TD*%
D24*
%TO.C,R31*%
X161060624Y-104029376D03*
X160339376Y-104750624D03*
%TD*%
D34*
%TO.C,Q8*%
X93358839Y-127184664D03*
X92015336Y-125841161D03*
X94012913Y-125187087D03*
%TD*%
D32*
%TO.C,R12*%
X115190000Y-99800000D03*
X116210000Y-99800000D03*
%TD*%
D33*
%TO.C,R38*%
X146569376Y-102360624D03*
X147290624Y-101639376D03*
%TD*%
D35*
%TO.C,C2*%
X132480000Y-148060000D03*
X132480000Y-147100000D03*
%TD*%
D19*
%TO.C,R67*%
X124500000Y-145800000D03*
X123480000Y-145800000D03*
%TD*%
%TO.C,R50*%
X110600000Y-131590000D03*
X109580000Y-131590000D03*
%TD*%
D33*
%TO.C,R76*%
X146889376Y-145090624D03*
X147610624Y-144369376D03*
%TD*%
D36*
%TO.C,R14*%
X127200000Y-95810000D03*
X127200000Y-96830000D03*
%TD*%
D37*
%TO.C,R43*%
X116204000Y-129280000D03*
X114554000Y-129280000D03*
%TD*%
D38*
%TO.C,R28*%
X113383363Y-95306637D03*
X112216637Y-96473363D03*
%TD*%
D39*
%TO.C,J2*%
X164437000Y-116720000D03*
D40*
X162669233Y-118487767D03*
%TD*%
D24*
%TO.C,R79*%
X146930624Y-143709376D03*
X146209376Y-144430624D03*
%TD*%
D25*
%TO.C,C15*%
X134800000Y-140210000D03*
X135760000Y-140210000D03*
%TD*%
D41*
%TO.C,R30*%
X111223363Y-99703363D03*
X110056637Y-98536637D03*
%TD*%
D42*
%TO.C,C7*%
X118670000Y-143330000D03*
X118670000Y-144290000D03*
%TD*%
D20*
%TO.C,R77*%
X145529376Y-145039376D03*
X146250624Y-145760624D03*
%TD*%
D43*
%TO.C,R78*%
X140820624Y-148860624D03*
X140099376Y-148139376D03*
%TD*%
D44*
%TO.C,C25*%
X143400000Y-107450000D03*
X143400000Y-105550000D03*
%TD*%
D36*
%TO.C,R18*%
X117700000Y-90640000D03*
X117700000Y-91660000D03*
%TD*%
D45*
%TO.C,Q10*%
X128762500Y-100550000D03*
X128762500Y-98650000D03*
X130637500Y-99600000D03*
%TD*%
D24*
%TO.C,R66*%
X130270624Y-147719376D03*
X129549376Y-148440624D03*
%TD*%
%TO.C,R32*%
X160380624Y-103339376D03*
X159659376Y-104060624D03*
%TD*%
D20*
%TO.C,R75*%
X141409376Y-148109376D03*
X142130624Y-148830624D03*
%TD*%
D46*
%TO.C,U12*%
X140266806Y-140760883D03*
X141164832Y-139862858D03*
X142062858Y-138964832D03*
X142960883Y-138066806D03*
X146673194Y-141779117D03*
X145775168Y-142677142D03*
X144877142Y-143575168D03*
X143979117Y-144473194D03*
%TD*%
D47*
%TO.C,L1*%
X120950000Y-91962500D03*
X120950000Y-93537500D03*
%TD*%
D32*
%TO.C,R68*%
X131940000Y-43450000D03*
X132960000Y-43450000D03*
%TD*%
D35*
%TO.C,C34*%
X139500000Y-107680000D03*
X139500000Y-106720000D03*
%TD*%
D48*
%TO.C,J3*%
X89560000Y-111280000D03*
D40*
X91327767Y-109512233D03*
%TD*%
D43*
%TO.C,R22*%
X90860624Y-125260624D03*
X90139376Y-124539376D03*
%TD*%
D49*
%TO.C,Q3*%
X147881192Y-133424695D03*
X149224695Y-132081192D03*
X150250000Y-134450000D03*
%TD*%
D50*
%TO.C,Q12*%
X132450000Y-98862500D03*
X134350000Y-98862500D03*
X133400000Y-100737500D03*
%TD*%
D45*
%TO.C,Q5*%
X123662500Y-100550000D03*
X123662500Y-98650000D03*
X125537500Y-99600000D03*
%TD*%
D32*
%TO.C,R62*%
X125070000Y-152570000D03*
X126090000Y-152570000D03*
%TD*%
D46*
%TO.C,U11*%
X134276806Y-149500883D03*
X135174832Y-148602858D03*
X136072858Y-147704832D03*
X136970883Y-146806806D03*
X140683194Y-150519117D03*
X139785168Y-151417142D03*
X138887142Y-152315168D03*
X137989117Y-153213194D03*
%TD*%
D51*
%TO.C,R61*%
X142770000Y-123757500D03*
X142770000Y-125582500D03*
%TD*%
D52*
%TO.C,J4*%
X91327717Y-118490051D03*
D53*
X89559950Y-116722284D03*
%TD*%
D33*
%TO.C,R73*%
X141006432Y-137721793D03*
X141727680Y-137000545D03*
%TD*%
D54*
%TO.C,C6*%
X113423001Y-133234000D03*
X114973001Y-133234000D03*
%TD*%
D20*
%TO.C,R13*%
X146089376Y-139139376D03*
X146810624Y-139860624D03*
%TD*%
D55*
%TO.C,D6*%
X148970000Y-113240000D03*
X148970000Y-115740000D03*
%TD*%
D30*
%TO.C,Q4*%
X151584664Y-139741161D03*
X150241161Y-141084664D03*
X149587087Y-139087087D03*
%TD*%
D56*
%TO.C,D5*%
X121049000Y-89958000D03*
X124349000Y-89958000D03*
%TD*%
D28*
%TO.C,C20*%
X144650000Y-109510000D03*
X143690000Y-109510000D03*
%TD*%
D19*
%TO.C,R49*%
X106430000Y-118900000D03*
X105410000Y-118900000D03*
%TD*%
D31*
%TO.C,C26*%
X144938000Y-119584000D03*
X144938000Y-121484000D03*
%TD*%
D33*
%TO.C,R42*%
X150469376Y-99700624D03*
X151190624Y-98979376D03*
%TD*%
D57*
%TO.C,D2*%
X123446000Y-93544000D03*
X125946000Y-93544000D03*
%TD*%
D22*
%TO.C,R53*%
X131040000Y-145780000D03*
X131040000Y-144760000D03*
%TD*%
D58*
%TO.C,SW5*%
X123750000Y-42400000D03*
D59*
X130250000Y-42400000D03*
%TD*%
D60*
%TO.C,J1*%
X124009872Y-153138821D03*
D61*
X123111847Y-154036847D03*
X124907898Y-154036847D03*
X124009872Y-154934872D03*
X125805923Y-154934872D03*
X124907898Y-155832898D03*
X126703949Y-155832898D03*
X125805923Y-156730924D03*
X127601975Y-156730924D03*
X126703949Y-157628949D03*
X128500000Y-157628949D03*
X127601975Y-158526975D03*
X129398026Y-158526975D03*
X128500000Y-159425000D03*
%TD*%
D62*
%TO.C,U6*%
X113175000Y-118570000D03*
X113175000Y-119840000D03*
X113175000Y-121110000D03*
X113175000Y-122380000D03*
X107925000Y-122380000D03*
X107925000Y-121110000D03*
X107925000Y-119840000D03*
X107925000Y-118570000D03*
%TD*%
D63*
%TO.C,R71*%
X135445000Y-142730000D03*
X137095000Y-142730000D03*
%TD*%
D24*
%TO.C,R56*%
X167190624Y-113319376D03*
X166469376Y-114040624D03*
%TD*%
D22*
%TO.C,R23*%
X131200000Y-102810000D03*
X131200000Y-101790000D03*
%TD*%
D33*
%TO.C,R37*%
X145249376Y-103680624D03*
X145970624Y-102959376D03*
%TD*%
D55*
%TO.C,D3*%
X136110000Y-100670000D03*
X136110000Y-103170000D03*
%TD*%
D64*
%TO.C,Q2*%
X151415336Y-137258839D03*
X152758839Y-135915336D03*
X153412913Y-137912913D03*
%TD*%
D39*
%TO.C,J6*%
X129910051Y-151242284D03*
D40*
X128142284Y-153010051D03*
%TD*%
D65*
%TO.C,R29*%
X111116637Y-97476637D03*
X112283363Y-98643363D03*
%TD*%
D43*
%TO.C,R74*%
X142100624Y-150130624D03*
X141379376Y-149409376D03*
%TD*%
D22*
%TO.C,R10*%
X117100000Y-96180001D03*
X117100000Y-95160001D03*
%TD*%
D66*
%TO.C,Q11*%
X134900000Y-95150000D03*
X134900000Y-97050000D03*
X132500000Y-96100000D03*
%TD*%
D19*
%TO.C,R72*%
X134320000Y-142860000D03*
X133300000Y-142860000D03*
%TD*%
D67*
%TO.C,U1*%
X142087500Y-111240000D03*
X144387500Y-111240000D03*
D68*
X144387500Y-117540000D03*
D67*
X146687500Y-111240000D03*
%TD*%
D20*
%TO.C,R58*%
X162079376Y-127699376D03*
X162800624Y-128420624D03*
%TD*%
D33*
%TO.C,R39*%
X149129376Y-99660624D03*
X149850624Y-98939376D03*
%TD*%
D69*
%TO.C,J9*%
X84900000Y-116500000D03*
X84900000Y-115250000D03*
X84900000Y-114000000D03*
X84900000Y-112750000D03*
X84900000Y-111500000D03*
D70*
X82000000Y-119050000D03*
X82000000Y-108950000D03*
%TD*%
D19*
%TO.C,R59*%
X138438000Y-127457000D03*
X137418000Y-127457000D03*
%TD*%
D28*
%TO.C,C13*%
X116435000Y-132050000D03*
X115475000Y-132050000D03*
%TD*%
%TO.C,C21*%
X142340000Y-109510000D03*
X141380000Y-109510000D03*
%TD*%
D71*
%TO.C,J5*%
X162674000Y-109510000D03*
D72*
X164441767Y-111277767D03*
%TD*%
D42*
%TO.C,C10*%
X132200000Y-41520000D03*
X132200000Y-42480000D03*
%TD*%
D32*
%TO.C,R6*%
X128190000Y-93800000D03*
X129210000Y-93800000D03*
%TD*%
D20*
%TO.C,R9*%
X154639376Y-136039376D03*
X155360624Y-136760624D03*
%TD*%
D36*
%TO.C,R17*%
X127300000Y-98410000D03*
X127300000Y-99430000D03*
%TD*%
D22*
%TO.C,R44*%
X107370000Y-125910000D03*
X107370000Y-124890000D03*
%TD*%
D64*
%TO.C,Q13*%
X152965336Y-109868839D03*
X154308839Y-108525336D03*
X154962913Y-110522913D03*
%TD*%
D73*
%TO.C,U5*%
X108645000Y-124775000D03*
X109915000Y-124775000D03*
X111185000Y-124775000D03*
X112455000Y-124775000D03*
X112455000Y-130025000D03*
X111185000Y-130025000D03*
X109915000Y-130025000D03*
X108645000Y-130025000D03*
%TD*%
D32*
%TO.C,R11*%
X116090000Y-98800000D03*
X117110000Y-98800000D03*
%TD*%
D74*
%TO.C,D4*%
X126015000Y-91185000D03*
X126015000Y-88685000D03*
%TD*%
D24*
%TO.C,R16*%
X119560624Y-90889376D03*
X118839376Y-91610624D03*
%TD*%
D42*
%TO.C,C31*%
X140252000Y-115059000D03*
X140252000Y-116019000D03*
%TD*%
D20*
%TO.C,R57*%
X162849376Y-126879376D03*
X163570624Y-127600624D03*
%TD*%
D75*
%TO.C,JP4*%
X111370000Y-133370000D03*
D76*
X110070000Y-133370000D03*
%TD*%
D19*
%TO.C,R46*%
X112470000Y-131610000D03*
X111450000Y-131610000D03*
%TD*%
D22*
%TO.C,R26*%
X122198000Y-93432000D03*
X122198000Y-92412000D03*
%TD*%
D19*
%TO.C,R52*%
X127034000Y-144782000D03*
X126014000Y-144782000D03*
%TD*%
D25*
%TO.C,C14*%
X131183000Y-125410000D03*
X132143000Y-125410000D03*
%TD*%
D77*
%TO.C,C40*%
X143828249Y-134871751D03*
X145171751Y-133528249D03*
%TD*%
D78*
%TO.C,JP5*%
X105600000Y-122625000D03*
D79*
X105600000Y-121325000D03*
%TD*%
D20*
%TO.C,R45*%
X114899376Y-122089376D03*
X115620624Y-122810624D03*
%TD*%
D34*
%TO.C,Q16*%
X145411839Y-127865664D03*
X144068336Y-126522161D03*
X146065913Y-125868087D03*
%TD*%
D19*
%TO.C,R63*%
X124510000Y-144810000D03*
X123490000Y-144810000D03*
%TD*%
D31*
%TO.C,C18*%
X125600000Y-95250000D03*
X125600000Y-97150000D03*
%TD*%
D19*
%TO.C,R1*%
X122345000Y-144797000D03*
X121325000Y-144797000D03*
%TD*%
D43*
%TO.C,R55*%
X164510624Y-126740624D03*
X163789376Y-126019376D03*
%TD*%
D26*
%TO.C,C36*%
X144870589Y-145710589D03*
X145549411Y-146389411D03*
%TD*%
D80*
%TO.C,Q15*%
X139009000Y-125953500D03*
X137109000Y-125953500D03*
X138059000Y-124078500D03*
%TD*%
D81*
%TO.C,Q1*%
X146373223Y-137520280D03*
X145029720Y-136176777D03*
X147398528Y-135151472D03*
%TD*%
D82*
%TO.C,U10*%
X137500000Y-106380000D03*
X137500000Y-108920000D03*
X137500000Y-111460000D03*
X137500000Y-114000000D03*
X137500000Y-116540000D03*
X137500000Y-119080000D03*
X137500000Y-121620000D03*
%TD*%
D83*
%TO.C,C12*%
X116163000Y-130859000D03*
X114613000Y-130859000D03*
%TD*%
D35*
%TO.C,C30*%
X106331000Y-117975000D03*
X106331000Y-117015000D03*
%TD*%
%TO.C,C9*%
X116398000Y-139564000D03*
X116398000Y-138604000D03*
%TD*%
D84*
%TO.C,J8*%
X169100000Y-111500000D03*
X169100000Y-112750000D03*
X169100000Y-114000000D03*
X169100000Y-115250000D03*
X169100000Y-116500000D03*
D85*
X172000000Y-108950000D03*
X172000000Y-119050000D03*
%TD*%
D33*
%TO.C,R40*%
X150439376Y-98330624D03*
X151160624Y-97609376D03*
%TD*%
D50*
%TO.C,Q18*%
X127910000Y-145302500D03*
X129810000Y-145302500D03*
X128860000Y-147177500D03*
%TD*%
D80*
%TO.C,Q14*%
X115950000Y-127567500D03*
X114050000Y-127567500D03*
X115000000Y-125692500D03*
%TD*%
D51*
%TO.C,R60*%
X142781000Y-120530500D03*
X142781000Y-122355500D03*
%TD*%
D35*
%TO.C,C19*%
X119600000Y-89680000D03*
X119600000Y-88720000D03*
%TD*%
D22*
%TO.C,R24*%
X127486000Y-90521000D03*
X127486000Y-89501000D03*
%TD*%
D42*
%TO.C,C11*%
X117100000Y-99770000D03*
X117100000Y-100730000D03*
%TD*%
D32*
%TO.C,R27*%
X142440000Y-119300000D03*
X143460000Y-119300000D03*
%TD*%
D86*
%TO.C,C17*%
X147431992Y-138728008D03*
X148528008Y-137631992D03*
%TD*%
D24*
%TO.C,R65*%
X150360624Y-136139376D03*
X149639376Y-136860624D03*
%TD*%
D22*
%TO.C,R69*%
X131240000Y-147640000D03*
X131240000Y-146620000D03*
%TD*%
%TO.C,R15*%
X134570000Y-103280000D03*
X134570000Y-102260000D03*
%TD*%
%TO.C,R7*%
X127200000Y-94860000D03*
X127200000Y-93840000D03*
%TD*%
D42*
%TO.C,C29*%
X107390000Y-129740000D03*
X107390000Y-130700000D03*
%TD*%
D24*
%TO.C,R36*%
X156211233Y-105828463D03*
X155489985Y-106549711D03*
%TD*%
D41*
%TO.C,R34*%
X152833363Y-111863363D03*
X151666637Y-110696637D03*
%TD*%
D19*
%TO.C,R47*%
X108720000Y-131600000D03*
X107700000Y-131600000D03*
%TD*%
D36*
%TO.C,R48*%
X104520000Y-118865000D03*
X104520000Y-119885000D03*
%TD*%
D87*
%TO.C,U8*%
X117923000Y-141584000D03*
X117923000Y-141084000D03*
X117923000Y-140584000D03*
X117923000Y-140084000D03*
X117923000Y-139584000D03*
X117923000Y-139084000D03*
X117923000Y-138584000D03*
X117923000Y-138084000D03*
X117923000Y-137584000D03*
X117923000Y-137084000D03*
X117923000Y-136584000D03*
X117923000Y-136084000D03*
X117923000Y-135584000D03*
X117923000Y-135084000D03*
X117923000Y-134584000D03*
X117923000Y-134084000D03*
X117923000Y-133584000D03*
X117923000Y-133084000D03*
X117923000Y-132584000D03*
X117923000Y-132084000D03*
X117923000Y-131584000D03*
X117923000Y-131084000D03*
X117923000Y-130584000D03*
X117923000Y-130084000D03*
X117923000Y-129584000D03*
D88*
X119598000Y-127909000D03*
X120098000Y-127909000D03*
X120598000Y-127909000D03*
X121098000Y-127909000D03*
X121598000Y-127909000D03*
X122098000Y-127909000D03*
X122598000Y-127909000D03*
X123098000Y-127909000D03*
X123598000Y-127909000D03*
X124098000Y-127909000D03*
X124598000Y-127909000D03*
X125098000Y-127909000D03*
X125598000Y-127909000D03*
X126098000Y-127909000D03*
X126598000Y-127909000D03*
X127098000Y-127909000D03*
X127598000Y-127909000D03*
X128098000Y-127909000D03*
X128598000Y-127909000D03*
X129098000Y-127909000D03*
X129598000Y-127909000D03*
X130098000Y-127909000D03*
X130598000Y-127909000D03*
X131098000Y-127909000D03*
X131598000Y-127909000D03*
D87*
X133273000Y-129584000D03*
X133273000Y-130084000D03*
X133273000Y-130584000D03*
X133273000Y-131084000D03*
X133273000Y-131584000D03*
X133273000Y-132084000D03*
X133273000Y-132584000D03*
X133273000Y-133084000D03*
X133273000Y-133584000D03*
X133273000Y-134084000D03*
X133273000Y-134584000D03*
X133273000Y-135084000D03*
X133273000Y-135584000D03*
X133273000Y-136084000D03*
X133273000Y-136584000D03*
X133273000Y-137084000D03*
X133273000Y-137584000D03*
X133273000Y-138084000D03*
X133273000Y-138584000D03*
X133273000Y-139084000D03*
X133273000Y-139584000D03*
X133273000Y-140084000D03*
X133273000Y-140584000D03*
X133273000Y-141084000D03*
X133273000Y-141584000D03*
D88*
X131598000Y-143259000D03*
X131098000Y-143259000D03*
X130598000Y-143259000D03*
X130098000Y-143259000D03*
X129598000Y-143259000D03*
X129098000Y-143259000D03*
X128598000Y-143259000D03*
X128098000Y-143259000D03*
X127598000Y-143259000D03*
X127098000Y-143259000D03*
X126598000Y-143259000D03*
X126098000Y-143259000D03*
X125598000Y-143259000D03*
X125098000Y-143259000D03*
X124598000Y-143259000D03*
X124098000Y-143259000D03*
X123598000Y-143259000D03*
X123098000Y-143259000D03*
X122598000Y-143259000D03*
X122098000Y-143259000D03*
X121598000Y-143259000D03*
X121098000Y-143259000D03*
X120598000Y-143259000D03*
X120098000Y-143259000D03*
X119598000Y-143259000D03*
%TD*%
D42*
%TO.C,C8*%
X116398000Y-136704000D03*
X116398000Y-137664000D03*
%TD*%
D18*
%TO.C,C28*%
X152583776Y-97618953D03*
X151904954Y-96940131D03*
%TD*%
D83*
%TO.C,C5*%
X114973000Y-138934000D03*
X113423000Y-138934000D03*
%TD*%
D20*
%TO.C,R8*%
X152189376Y-133039376D03*
X152910624Y-133760624D03*
%TD*%
D24*
%TO.C,R64*%
X151710624Y-134789376D03*
X150989376Y-135510624D03*
%TD*%
D27*
%TO.C,U4*%
X157003194Y-102809117D03*
X156105168Y-103707142D03*
X155207142Y-104605168D03*
X154309117Y-105503194D03*
X150596806Y-101790883D03*
X151494832Y-100892858D03*
X152392858Y-99994832D03*
X153290883Y-99096806D03*
%TD*%
D43*
%TO.C,R54*%
X165220624Y-126020624D03*
X164499376Y-125299376D03*
%TD*%
D86*
%TO.C,C24*%
X113301992Y-97498008D03*
X114398008Y-96401992D03*
%TD*%
M02*
