%TF.GenerationSoftware,KiCad,Pcbnew,7.0.11*%
%TF.CreationDate,2025-06-24T23:15:39+09:00*%
%TF.ProjectId,Drive,44726976-652e-46b6-9963-61645f706362,rev?*%
%TF.SameCoordinates,Original*%
%TF.FileFunction,Profile,NP*%
%FSLAX46Y46*%
G04 Gerber Fmt 4.6, Leading zero omitted, Abs format (unit mm)*
G04 Created by KiCad (PCBNEW 7.0.11) date 2025-06-24 23:15:39*
%MOMM*%
%LPD*%
G01*
G04 APERTURE LIST*
%TA.AperFunction,Profile*%
%ADD10C,0.200000*%
%TD*%
%TA.AperFunction,Profile*%
%ADD11C,0.150000*%
%TD*%
G04 APERTURE END LIST*
D10*
X140940620Y-145000000D02*
G75*
G03*
X138740620Y-145000000I-1100000J0D01*
G01*
X138740620Y-145000000D02*
G75*
G03*
X140940620Y-145000000I1100000J0D01*
G01*
X177204581Y-111878680D02*
X141071425Y-75745523D01*
X115259380Y-83000000D02*
G75*
G03*
X113059380Y-83000000I-1100000J0D01*
G01*
X113059380Y-83000000D02*
G75*
G03*
X115259380Y-83000000I1100000J0D01*
G01*
X177204581Y-116121320D02*
G75*
G03*
X177204581Y-111878680I-2121321J2121320D01*
G01*
X141071425Y-71502882D02*
X153092240Y-59482067D01*
X116751094Y-40638734D02*
G75*
G03*
X114629775Y-41517414I-2J-2999993D01*
G01*
X112928575Y-75745523D02*
X76795419Y-111878680D01*
X127000000Y-166325902D02*
X177204581Y-116121320D01*
X137248906Y-40638733D02*
X116751094Y-40638733D01*
X97100000Y-101159380D02*
G75*
G03*
X94900000Y-101159380I-1100000J0D01*
G01*
X94900000Y-101159380D02*
G75*
G03*
X97100000Y-101159380I1100000J0D01*
G01*
X159100000Y-126840620D02*
G75*
G03*
X156900000Y-126840620I-1100000J0D01*
G01*
X156900000Y-126840620D02*
G75*
G03*
X159100000Y-126840620I1100000J0D01*
G01*
X152070920Y-57360747D02*
G75*
G03*
X149870920Y-57360747I-1100000J0D01*
G01*
X149870920Y-57360747D02*
G75*
G03*
X152070920Y-57360747I1100000J0D01*
G01*
X139370237Y-41517402D02*
G75*
G03*
X137248906Y-40638733I-2121337J-2121398D01*
G01*
X141071423Y-71502880D02*
G75*
G03*
X141071425Y-75745523I2121307J-2121320D01*
G01*
X100907760Y-59482067D02*
X112928575Y-71502882D01*
X114629774Y-41517413D02*
X100907760Y-55239426D01*
X153092240Y-55239426D02*
X139370226Y-41517413D01*
X100907760Y-55239426D02*
G75*
G03*
X100907760Y-59482067I2121320J-2121320D01*
G01*
D11*
X130000000Y-126498000D02*
X120500000Y-126498000D01*
X114500000Y-120500000D01*
X114500000Y-107500000D01*
X120500000Y-101500000D01*
X130000000Y-101500000D01*
X130000000Y-126498000D01*
D10*
X76795419Y-116121320D02*
X127000000Y-166325902D01*
X153092243Y-59482070D02*
G75*
G03*
X153092240Y-55239426I-2121313J2121320D01*
G01*
X104129080Y-57360747D02*
G75*
G03*
X101929080Y-57360747I-1100000J0D01*
G01*
X101929080Y-57360747D02*
G75*
G03*
X104129080Y-57360747I1100000J0D01*
G01*
X76795419Y-111878680D02*
G75*
G03*
X76795419Y-116121320I2121318J-2121320D01*
G01*
X112928574Y-75745522D02*
G75*
G03*
X112928575Y-71502882I-2121319J2121320D01*
G01*
M02*
