%TF.GenerationSoftware,KiCad,Pcbnew,7.0.11*%
%TF.CreationDate,2025-06-24T23:15:39+09:00*%
%TF.ProjectId,Drive,44726976-652e-46b6-9963-61645f706362,rev?*%
%TF.SameCoordinates,Original*%
%TF.FileFunction,Legend,Bot*%
%TF.FilePolarity,Positive*%
%FSLAX46Y46*%
G04 Gerber Fmt 4.6, Leading zero omitted, Abs format (unit mm)*
G04 Created by KiCad (PCBNEW 7.0.11) date 2025-06-24 23:15:39*
%MOMM*%
%LPD*%
G01*
G04 APERTURE LIST*
G04 Aperture macros list*
%AMRoundRect*
0 Rectangle with rounded corners*
0 $1 Rounding radius*
0 $2 $3 $4 $5 $6 $7 $8 $9 X,Y pos of 4 corners*
0 Add a 4 corners polygon primitive as box body*
4,1,4,$2,$3,$4,$5,$6,$7,$8,$9,$2,$3,0*
0 Add four circle primitives for the rounded corners*
1,1,$1+$1,$2,$3*
1,1,$1+$1,$4,$5*
1,1,$1+$1,$6,$7*
1,1,$1+$1,$8,$9*
0 Add four rect primitives between the rounded corners*
20,1,$1+$1,$2,$3,$4,$5,0*
20,1,$1+$1,$4,$5,$6,$7,0*
20,1,$1+$1,$6,$7,$8,$9,0*
20,1,$1+$1,$8,$9,$2,$3,0*%
%AMHorizOval*
0 Thick line with rounded ends*
0 $1 width*
0 $2 $3 position (X,Y) of the first rounded end (center of the circle)*
0 $4 $5 position (X,Y) of the second rounded end (center of the circle)*
0 Add line between two ends*
20,1,$1,$2,$3,$4,$5,0*
0 Add two circle primitives to create the rounded ends*
1,1,$1,$2,$3*
1,1,$1,$4,$5*%
%AMRotRect*
0 Rectangle, with rotation*
0 The origin of the aperture is its center*
0 $1 length*
0 $2 width*
0 $3 Rotation angle, in degrees counterclockwise*
0 Add horizontal line*
21,1,$1,$2,0,0,$3*%
%AMFreePoly0*
4,1,33,0.500000,-0.750000,0.000000,-0.750000,0.000000,-0.749013,-0.031395,-0.749013,-0.093691,-0.741144,-0.154508,-0.725528,-0.212890,-0.702414,-0.267913,-0.672164,-0.318712,-0.635257,-0.364484,-0.592274,-0.404508,-0.543893,-0.438153,-0.490877,-0.464888,-0.434062,-0.484292,-0.374345,-0.496057,-0.312667,-0.500000,-0.250000,-0.500000,0.250000,-0.496057,0.312667,-0.484292,0.374345,-0.464888,0.434062,
-0.438153,0.490877,-0.404508,0.543893,-0.364484,0.592274,-0.318712,0.635257,-0.267913,0.672164,-0.212890,0.702414,-0.154508,0.725528,-0.093691,0.741144,-0.031395,0.749013,0.000000,0.749013,0.000000,0.750000,0.500000,0.750000,0.500000,-0.750000,0.500000,-0.750000,$1*%
%AMFreePoly1*
4,1,33,0.000000,0.749013,0.031395,0.749013,0.093691,0.741144,0.154508,0.725528,0.212890,0.702414,0.267913,0.672164,0.318712,0.635257,0.364484,0.592274,0.404508,0.543893,0.438153,0.490877,0.464888,0.434062,0.484292,0.374345,0.496057,0.312667,0.500000,0.250000,0.500000,-0.250000,0.496057,-0.312667,0.484292,-0.374345,0.464888,-0.434062,0.438153,-0.490877,0.404508,-0.543893,
0.364484,-0.592274,0.318712,-0.635257,0.267913,-0.672164,0.212890,-0.702414,0.154508,-0.725528,0.093691,-0.741144,0.031395,-0.749013,0.000000,-0.749013,0.000000,-0.750000,-0.500000,-0.750000,-0.500000,0.750000,0.000000,0.750000,0.000000,0.749013,0.000000,0.749013,$1*%
G04 Aperture macros list end*
%ADD10C,0.150000*%
%ADD11C,0.120000*%
%ADD12C,0.250000*%
%ADD13C,0.152400*%
%ADD14C,0.454000*%
%ADD15HorizOval,1.100000X-0.212132X0.212132X0.212132X-0.212132X0*%
%ADD16C,1.524000*%
%ADD17C,0.800000*%
%ADD18C,6.400000*%
%ADD19C,1.200000*%
%ADD20C,2.000000*%
%ADD21RoundRect,0.350000X0.000000X0.494975X-0.494975X0.000000X0.000000X-0.494975X0.494975X0.000000X0*%
%ADD22C,1.400000*%
%ADD23RoundRect,0.140000X0.219203X0.021213X0.021213X0.219203X-0.219203X-0.021213X-0.021213X-0.219203X0*%
%ADD24RoundRect,0.135000X0.135000X0.185000X-0.135000X0.185000X-0.135000X-0.185000X0.135000X-0.185000X0*%
%ADD25RoundRect,0.135000X-0.226274X-0.035355X-0.035355X-0.226274X0.226274X0.035355X0.035355X0.226274X0*%
%ADD26RoundRect,0.175000X-0.325000X-0.175000X0.325000X-0.175000X0.325000X0.175000X-0.325000X0.175000X0*%
%ADD27RoundRect,0.135000X0.185000X-0.135000X0.185000X0.135000X-0.185000X0.135000X-0.185000X-0.135000X0*%
%ADD28RoundRect,0.250000X0.325000X0.650000X-0.325000X0.650000X-0.325000X-0.650000X0.325000X-0.650000X0*%
%ADD29RoundRect,0.135000X-0.035355X0.226274X-0.226274X0.035355X0.035355X-0.226274X0.226274X-0.035355X0*%
%ADD30RoundRect,0.140000X-0.140000X-0.170000X0.140000X-0.170000X0.140000X0.170000X-0.140000X0.170000X0*%
%ADD31RoundRect,0.140000X-0.219203X-0.021213X-0.021213X-0.219203X0.219203X0.021213X0.021213X0.219203X0*%
%ADD32RoundRect,0.150000X0.583363X-0.371231X-0.371231X0.583363X-0.583363X0.371231X0.371231X-0.583363X0*%
%ADD33RoundRect,0.140000X0.140000X0.170000X-0.140000X0.170000X-0.140000X-0.170000X0.140000X-0.170000X0*%
%ADD34R,1.200000X1.400000*%
%ADD35RoundRect,0.150000X0.521491X-0.309359X-0.309359X0.521491X-0.521491X0.309359X0.309359X-0.521491X0*%
%ADD36RoundRect,0.250000X-0.475000X0.250000X-0.475000X-0.250000X0.475000X-0.250000X0.475000X0.250000X0*%
%ADD37RoundRect,0.135000X-0.135000X-0.185000X0.135000X-0.185000X0.135000X0.185000X-0.135000X0.185000X0*%
%ADD38RoundRect,0.135000X0.035355X-0.226274X0.226274X-0.035355X-0.035355X0.226274X-0.226274X0.035355X0*%
%ADD39RoundRect,0.150000X-0.309359X-0.521491X0.521491X0.309359X0.309359X0.521491X-0.521491X-0.309359X0*%
%ADD40RoundRect,0.140000X0.170000X-0.140000X0.170000X0.140000X-0.170000X0.140000X-0.170000X-0.140000X0*%
%ADD41RoundRect,0.135000X-0.185000X0.135000X-0.185000X-0.135000X0.185000X-0.135000X0.185000X0.135000X0*%
%ADD42RoundRect,0.200000X0.200000X0.275000X-0.200000X0.275000X-0.200000X-0.275000X0.200000X-0.275000X0*%
%ADD43RoundRect,0.200000X-0.053033X0.335876X-0.335876X0.053033X0.053033X-0.335876X0.335876X-0.053033X0*%
%ADD44RoundRect,0.250000X-0.053033X0.901561X-0.901561X0.053033X0.053033X-0.901561X0.901561X-0.053033X0*%
%ADD45HorizOval,1.700000X-0.053033X0.053033X0.053033X-0.053033X0*%
%ADD46RoundRect,0.200000X0.335876X0.053033X0.053033X0.335876X-0.335876X-0.053033X-0.053033X-0.335876X0*%
%ADD47RoundRect,0.140000X-0.170000X0.140000X-0.170000X-0.140000X0.170000X-0.140000X0.170000X0.140000X0*%
%ADD48RoundRect,0.135000X0.226274X0.035355X0.035355X0.226274X-0.226274X-0.035355X-0.035355X-0.226274X0*%
%ADD49RoundRect,0.250000X0.475000X-0.250000X0.475000X0.250000X-0.475000X0.250000X-0.475000X-0.250000X0*%
%ADD50RoundRect,0.150000X-0.587500X-0.150000X0.587500X-0.150000X0.587500X0.150000X-0.587500X0.150000X0*%
%ADD51RoundRect,0.150000X-0.583363X0.371231X0.371231X-0.583363X0.583363X-0.371231X-0.371231X0.583363X0*%
%ADD52RoundRect,0.218750X-0.256250X0.218750X-0.256250X-0.218750X0.256250X-0.218750X0.256250X0.218750X0*%
%ADD53RoundRect,0.250000X0.053033X-0.901561X0.901561X-0.053033X-0.053033X0.901561X-0.901561X0.053033X0*%
%ADD54RoundRect,0.175000X-0.353553X0.106066X0.106066X-0.353553X0.353553X-0.106066X-0.106066X0.353553X0*%
%ADD55RoundRect,0.150000X-0.150000X0.587500X-0.150000X-0.587500X0.150000X-0.587500X0.150000X0.587500X0*%
%ADD56RoundRect,0.237500X-0.237500X0.250000X-0.237500X-0.250000X0.237500X-0.250000X0.237500X0.250000X0*%
%ADD57RoundRect,0.250000X0.901561X0.053033X0.053033X0.901561X-0.901561X-0.053033X-0.053033X-0.901561X0*%
%ADD58HorizOval,1.700000X0.053033X0.053033X-0.053033X-0.053033X0*%
%ADD59RoundRect,0.225000X-0.225000X-0.250000X0.225000X-0.250000X0.225000X0.250000X-0.225000X0.250000X0*%
%ADD60RoundRect,0.250000X-0.250000X0.250000X-0.250000X-0.250000X0.250000X-0.250000X0.250000X0.250000X0*%
%ADD61RoundRect,0.225000X-0.225000X-0.375000X0.225000X-0.375000X0.225000X0.375000X-0.225000X0.375000X0*%
%ADD62RoundRect,0.250000X-0.250000X-0.250000X0.250000X-0.250000X0.250000X0.250000X-0.250000X0.250000X0*%
%ADD63R,2.250000X2.250000*%
%ADD64C,2.250000*%
%ADD65RotRect,1.000000X1.000000X135.000000*%
%ADD66C,1.000000*%
%ADD67RoundRect,0.150000X0.675000X0.150000X-0.675000X0.150000X-0.675000X-0.150000X0.675000X-0.150000X0*%
%ADD68RoundRect,0.200000X-0.200000X-0.275000X0.200000X-0.275000X0.200000X0.275000X-0.200000X0.275000X0*%
%ADD69RoundRect,0.150000X-0.521491X0.309359X0.309359X-0.521491X0.521491X-0.309359X-0.309359X0.521491X0*%
%ADD70RoundRect,0.200000X-0.335876X-0.053033X-0.053033X-0.335876X0.335876X0.053033X0.053033X0.335876X0*%
%ADD71RoundRect,0.175000X0.325000X0.175000X-0.325000X0.175000X-0.325000X-0.175000X0.325000X-0.175000X0*%
%ADD72RoundRect,0.375000X-0.375000X0.625000X-0.375000X-0.625000X0.375000X-0.625000X0.375000X0.625000X0*%
%ADD73RoundRect,0.500000X-1.400000X0.500000X-1.400000X-0.500000X1.400000X-0.500000X1.400000X0.500000X0*%
%ADD74RoundRect,0.200000X0.600000X-0.200000X0.600000X0.200000X-0.600000X0.200000X-0.600000X-0.200000X0*%
%ADD75RoundRect,0.250001X1.249999X-0.799999X1.249999X0.799999X-1.249999X0.799999X-1.249999X-0.799999X0*%
%ADD76RoundRect,0.250000X-0.901561X-0.053033X-0.053033X-0.901561X0.901561X0.053033X0.053033X0.901561X0*%
%ADD77HorizOval,1.700000X-0.053033X-0.053033X0.053033X0.053033X0*%
%ADD78RoundRect,0.150000X-0.150000X0.675000X-0.150000X-0.675000X0.150000X-0.675000X0.150000X0.675000X0*%
%ADD79RoundRect,0.250000X0.250000X-0.250000X0.250000X0.250000X-0.250000X0.250000X-0.250000X-0.250000X0*%
%ADD80FreePoly0,180.000000*%
%ADD81FreePoly1,180.000000*%
%ADD82RoundRect,0.250000X0.159099X-0.512652X0.512652X-0.159099X-0.159099X0.512652X-0.512652X0.159099X0*%
%ADD83FreePoly0,90.000000*%
%ADD84FreePoly1,90.000000*%
%ADD85RoundRect,0.150000X0.150000X-0.587500X0.150000X0.587500X-0.150000X0.587500X-0.150000X-0.587500X0*%
%ADD86RoundRect,0.175000X-0.106066X-0.353553X0.353553X0.106066X0.106066X0.353553X-0.353553X-0.106066X0*%
%ADD87C,1.700000*%
%ADD88RoundRect,0.225000X0.225000X0.250000X-0.225000X0.250000X-0.225000X-0.250000X0.225000X-0.250000X0*%
%ADD89RoundRect,0.200000X-0.600000X0.200000X-0.600000X-0.200000X0.600000X-0.200000X0.600000X0.200000X0*%
%ADD90RoundRect,0.250001X-1.249999X0.799999X-1.249999X-0.799999X1.249999X-0.799999X1.249999X0.799999X0*%
%ADD91RoundRect,0.225000X0.017678X-0.335876X0.335876X-0.017678X-0.017678X0.335876X-0.335876X0.017678X0*%
%ADD92RoundRect,0.075000X-0.725000X-0.075000X0.725000X-0.075000X0.725000X0.075000X-0.725000X0.075000X0*%
%ADD93RoundRect,0.075000X-0.075000X-0.725000X0.075000X-0.725000X0.075000X0.725000X-0.075000X0.725000X0*%
G04 APERTURE END LIST*
D10*
X78442419Y-113539411D02*
X79542419Y-113539411D01*
X79542419Y-113539411D02*
X78756704Y-113172744D01*
X78756704Y-113172744D02*
X79542419Y-112806077D01*
X79542419Y-112806077D02*
X78442419Y-112806077D01*
X78442419Y-112282268D02*
X79542419Y-112282268D01*
X79542419Y-112282268D02*
X79542419Y-112020363D01*
X79542419Y-112020363D02*
X79490038Y-111863220D01*
X79490038Y-111863220D02*
X79385276Y-111758458D01*
X79385276Y-111758458D02*
X79280514Y-111706077D01*
X79280514Y-111706077D02*
X79070990Y-111653696D01*
X79070990Y-111653696D02*
X78913847Y-111653696D01*
X78913847Y-111653696D02*
X78704323Y-111706077D01*
X78704323Y-111706077D02*
X78599561Y-111758458D01*
X78599561Y-111758458D02*
X78494800Y-111863220D01*
X78494800Y-111863220D02*
X78442419Y-112020363D01*
X78442419Y-112020363D02*
X78442419Y-112282268D01*
X175657580Y-114460588D02*
X174557580Y-114460588D01*
X174557580Y-114460588D02*
X175343295Y-114827255D01*
X175343295Y-114827255D02*
X174557580Y-115193922D01*
X174557580Y-115193922D02*
X175657580Y-115193922D01*
X175657580Y-115717731D02*
X174557580Y-115717731D01*
X174557580Y-115717731D02*
X174557580Y-115979636D01*
X174557580Y-115979636D02*
X174609961Y-116136779D01*
X174609961Y-116136779D02*
X174714723Y-116241541D01*
X174714723Y-116241541D02*
X174819485Y-116293922D01*
X174819485Y-116293922D02*
X175029009Y-116346303D01*
X175029009Y-116346303D02*
X175186152Y-116346303D01*
X175186152Y-116346303D02*
X175395676Y-116293922D01*
X175395676Y-116293922D02*
X175500438Y-116241541D01*
X175500438Y-116241541D02*
X175605200Y-116136779D01*
X175605200Y-116136779D02*
X175657580Y-115979636D01*
X175657580Y-115979636D02*
X175657580Y-115717731D01*
X161635551Y-115214913D02*
X162140627Y-115719989D01*
X162140627Y-115719989D02*
X162275314Y-115787333D01*
X162275314Y-115787333D02*
X162410001Y-115787333D01*
X162410001Y-115787333D02*
X162544688Y-115719989D01*
X162544688Y-115719989D02*
X162612032Y-115652646D01*
X161399848Y-115585302D02*
X161332505Y-115585302D01*
X161332505Y-115585302D02*
X161231490Y-115618974D01*
X161231490Y-115618974D02*
X161063131Y-115787333D01*
X161063131Y-115787333D02*
X161029459Y-115888348D01*
X161029459Y-115888348D02*
X161029459Y-115955692D01*
X161029459Y-115955692D02*
X161063131Y-116056707D01*
X161063131Y-116056707D02*
X161130474Y-116124050D01*
X161130474Y-116124050D02*
X161265161Y-116191394D01*
X161265161Y-116191394D02*
X162073283Y-116191394D01*
X162073283Y-116191394D02*
X161635551Y-116629127D01*
X92061851Y-111542679D02*
X92566927Y-112047755D01*
X92566927Y-112047755D02*
X92701614Y-112115099D01*
X92701614Y-112115099D02*
X92836301Y-112115099D01*
X92836301Y-112115099D02*
X92970988Y-112047755D01*
X92970988Y-112047755D02*
X93038332Y-111980412D01*
X91792477Y-111812053D02*
X91354744Y-112249786D01*
X91354744Y-112249786D02*
X91859820Y-112283458D01*
X91859820Y-112283458D02*
X91758805Y-112384473D01*
X91758805Y-112384473D02*
X91725133Y-112485488D01*
X91725133Y-112485488D02*
X91725133Y-112552832D01*
X91725133Y-112552832D02*
X91758805Y-112653847D01*
X91758805Y-112653847D02*
X91927164Y-112822206D01*
X91927164Y-112822206D02*
X92028179Y-112855877D01*
X92028179Y-112855877D02*
X92095522Y-112855877D01*
X92095522Y-112855877D02*
X92196538Y-112822206D01*
X92196538Y-112822206D02*
X92398568Y-112620175D01*
X92398568Y-112620175D02*
X92432240Y-112519160D01*
X92432240Y-112519160D02*
X92432240Y-112451816D01*
X92832803Y-115688602D02*
X92327727Y-116193678D01*
X92327727Y-116193678D02*
X92260383Y-116328365D01*
X92260383Y-116328365D02*
X92260383Y-116463052D01*
X92260383Y-116463052D02*
X92327727Y-116597739D01*
X92327727Y-116597739D02*
X92395070Y-116665083D01*
X91957337Y-115284541D02*
X91485933Y-115755945D01*
X92395070Y-115183525D02*
X92058353Y-115856960D01*
X92058353Y-115856960D02*
X91620620Y-115419228D01*
X128503332Y-45507200D02*
X128360475Y-45554819D01*
X128360475Y-45554819D02*
X128122380Y-45554819D01*
X128122380Y-45554819D02*
X128027142Y-45507200D01*
X128027142Y-45507200D02*
X127979523Y-45459580D01*
X127979523Y-45459580D02*
X127931904Y-45364342D01*
X127931904Y-45364342D02*
X127931904Y-45269104D01*
X127931904Y-45269104D02*
X127979523Y-45173866D01*
X127979523Y-45173866D02*
X128027142Y-45126247D01*
X128027142Y-45126247D02*
X128122380Y-45078628D01*
X128122380Y-45078628D02*
X128312856Y-45031009D01*
X128312856Y-45031009D02*
X128408094Y-44983390D01*
X128408094Y-44983390D02*
X128455713Y-44935771D01*
X128455713Y-44935771D02*
X128503332Y-44840533D01*
X128503332Y-44840533D02*
X128503332Y-44745295D01*
X128503332Y-44745295D02*
X128455713Y-44650057D01*
X128455713Y-44650057D02*
X128408094Y-44602438D01*
X128408094Y-44602438D02*
X128312856Y-44554819D01*
X128312856Y-44554819D02*
X128074761Y-44554819D01*
X128074761Y-44554819D02*
X127931904Y-44602438D01*
X127598570Y-44554819D02*
X127360475Y-45554819D01*
X127360475Y-45554819D02*
X127169999Y-44840533D01*
X127169999Y-44840533D02*
X126979523Y-45554819D01*
X126979523Y-45554819D02*
X126741428Y-44554819D01*
X125884285Y-44554819D02*
X126360475Y-44554819D01*
X126360475Y-44554819D02*
X126408094Y-45031009D01*
X126408094Y-45031009D02*
X126360475Y-44983390D01*
X126360475Y-44983390D02*
X126265237Y-44935771D01*
X126265237Y-44935771D02*
X126027142Y-44935771D01*
X126027142Y-44935771D02*
X125931904Y-44983390D01*
X125931904Y-44983390D02*
X125884285Y-45031009D01*
X125884285Y-45031009D02*
X125836666Y-45126247D01*
X125836666Y-45126247D02*
X125836666Y-45364342D01*
X125836666Y-45364342D02*
X125884285Y-45459580D01*
X125884285Y-45459580D02*
X125931904Y-45507200D01*
X125931904Y-45507200D02*
X126027142Y-45554819D01*
X126027142Y-45554819D02*
X126265237Y-45554819D01*
X126265237Y-45554819D02*
X126360475Y-45507200D01*
X126360475Y-45507200D02*
X126408094Y-45459580D01*
X116806117Y-152056442D02*
X117311193Y-152561518D01*
X117311193Y-152561518D02*
X117445880Y-152628862D01*
X117445880Y-152628862D02*
X117580567Y-152628862D01*
X117580567Y-152628862D02*
X117715254Y-152561518D01*
X117715254Y-152561518D02*
X117782598Y-152494175D01*
X116806117Y-153470656D02*
X117210178Y-153066595D01*
X117008147Y-153268625D02*
X116301040Y-152561518D01*
X116301040Y-152561518D02*
X116469399Y-152595190D01*
X116469399Y-152595190D02*
X116604086Y-152595190D01*
X116604086Y-152595190D02*
X116705101Y-152561518D01*
X127108602Y-149737197D02*
X127613678Y-150242273D01*
X127613678Y-150242273D02*
X127748365Y-150309617D01*
X127748365Y-150309617D02*
X127883052Y-150309617D01*
X127883052Y-150309617D02*
X128017739Y-150242273D01*
X128017739Y-150242273D02*
X128085083Y-150174930D01*
X126468838Y-150376960D02*
X126603525Y-150242273D01*
X126603525Y-150242273D02*
X126704541Y-150208602D01*
X126704541Y-150208602D02*
X126771884Y-150208602D01*
X126771884Y-150208602D02*
X126940243Y-150242273D01*
X126940243Y-150242273D02*
X127108602Y-150343289D01*
X127108602Y-150343289D02*
X127377976Y-150612663D01*
X127377976Y-150612663D02*
X127411647Y-150713678D01*
X127411647Y-150713678D02*
X127411647Y-150781021D01*
X127411647Y-150781021D02*
X127377976Y-150882037D01*
X127377976Y-150882037D02*
X127243289Y-151016724D01*
X127243289Y-151016724D02*
X127142273Y-151050395D01*
X127142273Y-151050395D02*
X127074930Y-151050395D01*
X127074930Y-151050395D02*
X126973915Y-151016724D01*
X126973915Y-151016724D02*
X126805556Y-150848365D01*
X126805556Y-150848365D02*
X126771884Y-150747350D01*
X126771884Y-150747350D02*
X126771884Y-150680006D01*
X126771884Y-150680006D02*
X126805556Y-150578991D01*
X126805556Y-150578991D02*
X126940243Y-150444304D01*
X126940243Y-150444304D02*
X127041258Y-150410632D01*
X127041258Y-150410632D02*
X127108602Y-150410632D01*
X127108602Y-150410632D02*
X127209617Y-150444304D01*
X79498919Y-115666666D02*
X78713204Y-115666666D01*
X78713204Y-115666666D02*
X78556061Y-115719047D01*
X78556061Y-115719047D02*
X78451300Y-115823809D01*
X78451300Y-115823809D02*
X78398919Y-115980952D01*
X78398919Y-115980952D02*
X78398919Y-116085714D01*
X78398919Y-115090476D02*
X78398919Y-114880952D01*
X78398919Y-114880952D02*
X78451300Y-114776190D01*
X78451300Y-114776190D02*
X78503680Y-114723809D01*
X78503680Y-114723809D02*
X78660823Y-114619047D01*
X78660823Y-114619047D02*
X78870347Y-114566666D01*
X78870347Y-114566666D02*
X79289395Y-114566666D01*
X79289395Y-114566666D02*
X79394157Y-114619047D01*
X79394157Y-114619047D02*
X79446538Y-114671428D01*
X79446538Y-114671428D02*
X79498919Y-114776190D01*
X79498919Y-114776190D02*
X79498919Y-114985714D01*
X79498919Y-114985714D02*
X79446538Y-115090476D01*
X79446538Y-115090476D02*
X79394157Y-115142857D01*
X79394157Y-115142857D02*
X79289395Y-115195238D01*
X79289395Y-115195238D02*
X79027490Y-115195238D01*
X79027490Y-115195238D02*
X78922728Y-115142857D01*
X78922728Y-115142857D02*
X78870347Y-115090476D01*
X78870347Y-115090476D02*
X78817966Y-114985714D01*
X78817966Y-114985714D02*
X78817966Y-114776190D01*
X78817966Y-114776190D02*
X78870347Y-114671428D01*
X78870347Y-114671428D02*
X78922728Y-114619047D01*
X78922728Y-114619047D02*
X79027490Y-114566666D01*
X162411320Y-112011851D02*
X161906244Y-112516927D01*
X161906244Y-112516927D02*
X161838900Y-112651614D01*
X161838900Y-112651614D02*
X161838900Y-112786301D01*
X161838900Y-112786301D02*
X161906244Y-112920988D01*
X161906244Y-112920988D02*
X161973587Y-112988332D01*
X161737885Y-111338416D02*
X162074602Y-111675133D01*
X162074602Y-111675133D02*
X161771557Y-112045522D01*
X161771557Y-112045522D02*
X161771557Y-111978179D01*
X161771557Y-111978179D02*
X161737885Y-111877164D01*
X161737885Y-111877164D02*
X161569526Y-111708805D01*
X161569526Y-111708805D02*
X161468511Y-111675133D01*
X161468511Y-111675133D02*
X161401167Y-111675133D01*
X161401167Y-111675133D02*
X161300152Y-111708805D01*
X161300152Y-111708805D02*
X161131793Y-111877164D01*
X161131793Y-111877164D02*
X161098122Y-111978179D01*
X161098122Y-111978179D02*
X161098122Y-112045522D01*
X161098122Y-112045522D02*
X161131793Y-112146538D01*
X161131793Y-112146538D02*
X161300152Y-112314896D01*
X161300152Y-112314896D02*
X161401167Y-112348568D01*
X161401167Y-112348568D02*
X161468511Y-112348568D01*
X174601080Y-112433333D02*
X175386795Y-112433333D01*
X175386795Y-112433333D02*
X175543938Y-112380952D01*
X175543938Y-112380952D02*
X175648700Y-112276190D01*
X175648700Y-112276190D02*
X175701080Y-112119047D01*
X175701080Y-112119047D02*
X175701080Y-112014285D01*
X175072509Y-113114285D02*
X175020128Y-113009523D01*
X175020128Y-113009523D02*
X174967747Y-112957142D01*
X174967747Y-112957142D02*
X174862985Y-112904761D01*
X174862985Y-112904761D02*
X174810604Y-112904761D01*
X174810604Y-112904761D02*
X174705842Y-112957142D01*
X174705842Y-112957142D02*
X174653461Y-113009523D01*
X174653461Y-113009523D02*
X174601080Y-113114285D01*
X174601080Y-113114285D02*
X174601080Y-113323809D01*
X174601080Y-113323809D02*
X174653461Y-113428571D01*
X174653461Y-113428571D02*
X174705842Y-113480952D01*
X174705842Y-113480952D02*
X174810604Y-113533333D01*
X174810604Y-113533333D02*
X174862985Y-113533333D01*
X174862985Y-113533333D02*
X174967747Y-113480952D01*
X174967747Y-113480952D02*
X175020128Y-113428571D01*
X175020128Y-113428571D02*
X175072509Y-113323809D01*
X175072509Y-113323809D02*
X175072509Y-113114285D01*
X175072509Y-113114285D02*
X175124890Y-113009523D01*
X175124890Y-113009523D02*
X175177271Y-112957142D01*
X175177271Y-112957142D02*
X175282033Y-112904761D01*
X175282033Y-112904761D02*
X175491557Y-112904761D01*
X175491557Y-112904761D02*
X175596319Y-112957142D01*
X175596319Y-112957142D02*
X175648700Y-113009523D01*
X175648700Y-113009523D02*
X175701080Y-113114285D01*
X175701080Y-113114285D02*
X175701080Y-113323809D01*
X175701080Y-113323809D02*
X175648700Y-113428571D01*
X175648700Y-113428571D02*
X175596319Y-113480952D01*
X175596319Y-113480952D02*
X175491557Y-113533333D01*
X175491557Y-113533333D02*
X175282033Y-113533333D01*
X175282033Y-113533333D02*
X175177271Y-113480952D01*
X175177271Y-113480952D02*
X175124890Y-113428571D01*
X175124890Y-113428571D02*
X175072509Y-113323809D01*
D11*
%TO.C,C27*%
X148059992Y-101645707D02*
X147907489Y-101493204D01*
X148569109Y-101136590D02*
X148416606Y-100984087D01*
%TO.C,R21*%
X92383641Y-123540000D02*
X92076359Y-123540000D01*
X92383641Y-122780000D02*
X92076359Y-122780000D01*
%TO.C,R4*%
X143660060Y-136082659D02*
X143877341Y-136299940D01*
X143122659Y-136620060D02*
X143339940Y-136837341D01*
%TO.C,Q6*%
X128625000Y-94490000D02*
X130775000Y-94490000D01*
X129175000Y-97710000D02*
X130775000Y-97710000D01*
X130775000Y-95400000D02*
X130775000Y-94490000D01*
X130775000Y-97710000D02*
X130775000Y-96800000D01*
X128915000Y-97990000D02*
X128435000Y-97990000D01*
X128675000Y-97660000D01*
X128915000Y-97990000D01*
G36*
X128915000Y-97990000D02*
G01*
X128435000Y-97990000D01*
X128675000Y-97660000D01*
X128915000Y-97990000D01*
G37*
%TO.C,R25*%
X131800000Y-102853641D02*
X131800000Y-102546359D01*
X132560000Y-102853641D02*
X132560000Y-102546359D01*
%TO.C,C16*%
X118611252Y-94390000D02*
X117188748Y-94390000D01*
X118611252Y-92570000D02*
X117188748Y-92570000D01*
%TO.C,R3*%
X144446341Y-129542060D02*
X144229060Y-129759341D01*
X143908940Y-129004659D02*
X143691659Y-129221940D01*
%TO.C,C4*%
X135172164Y-141170000D02*
X135387836Y-141170000D01*
X135172164Y-141890000D02*
X135387836Y-141890000D01*
%TO.C,R33*%
X159727341Y-103180060D02*
X159510060Y-103397341D01*
X159189940Y-102642659D02*
X158972659Y-102859940D01*
%TO.C,C35*%
X137328307Y-153759190D02*
X137480810Y-153911693D01*
X136819190Y-154268307D02*
X136971693Y-154420810D01*
%TO.C,U3*%
X148089807Y-108110193D02*
X149468665Y-109489052D01*
X148089807Y-108110193D02*
X146710948Y-106731335D01*
X151710193Y-104489807D02*
X153089052Y-105868665D01*
X151710193Y-104489807D02*
X150331335Y-103110948D01*
X153955257Y-106402530D02*
X153552207Y-106466170D01*
X153615846Y-106063119D01*
X153955257Y-106402530D01*
G36*
X153955257Y-106402530D02*
G01*
X153552207Y-106466170D01*
X153615846Y-106063119D01*
X153955257Y-106402530D01*
G37*
%TO.C,C3*%
X131771836Y-126750000D02*
X131556164Y-126750000D01*
X131771836Y-126030000D02*
X131556164Y-126030000D01*
%TO.C,Y2*%
X112548000Y-138084000D02*
X112548000Y-134084000D01*
X115848000Y-138084000D02*
X112548000Y-138084000D01*
%TO.C,Q17*%
X133122913Y-146404087D02*
X133582533Y-146863706D01*
X133122913Y-146404087D02*
X132663294Y-145944467D01*
X135329087Y-144197913D02*
X135788706Y-144657533D01*
X135329087Y-144197913D02*
X134869467Y-143738294D01*
X136518794Y-144991641D02*
X136115743Y-145055280D01*
X136179382Y-144652230D01*
X136518794Y-144991641D01*
G36*
X136518794Y-144991641D02*
G01*
X136115743Y-145055280D01*
X136179382Y-144652230D01*
X136518794Y-144991641D01*
G37*
%TO.C,C41*%
X124335000Y-95938748D02*
X124335000Y-96461252D01*
X122865000Y-95938748D02*
X122865000Y-96461252D01*
%TO.C,R20*%
X91360060Y-123822659D02*
X91577341Y-124039940D01*
X90822659Y-124360060D02*
X91039940Y-124577341D01*
%TO.C,C1*%
X118625693Y-126296810D02*
X118473190Y-126144307D01*
X119134810Y-125787693D02*
X118982307Y-125635190D01*
%TO.C,R51*%
X105766359Y-119470000D02*
X106073641Y-119470000D01*
X105766359Y-120230000D02*
X106073641Y-120230000D01*
%TO.C,R41*%
X146552811Y-103170092D02*
X146770092Y-102952811D01*
X147090212Y-103707493D02*
X147307493Y-103490212D01*
%TO.C,R35*%
X154157341Y-112710060D02*
X153940060Y-112927341D01*
X153619940Y-112172659D02*
X153402659Y-112389940D01*
%TO.C,R19*%
X118270000Y-89853641D02*
X118270000Y-89546359D01*
X119030000Y-89853641D02*
X119030000Y-89546359D01*
%TO.C,R31*%
X161077341Y-104550060D02*
X160860060Y-104767341D01*
X160539940Y-104012659D02*
X160322659Y-104229940D01*
%TO.C,Q8*%
X92246913Y-124746913D02*
X91787294Y-125206533D01*
X92246913Y-124746913D02*
X92706533Y-124287294D01*
X94453087Y-126953087D02*
X93993467Y-127412706D01*
X94453087Y-126953087D02*
X94912706Y-126493467D01*
X93998770Y-127803382D02*
X93659359Y-128142794D01*
X93595720Y-127739743D01*
X93998770Y-127803382D01*
G36*
X93998770Y-127803382D02*
G01*
X93659359Y-128142794D01*
X93595720Y-127739743D01*
X93998770Y-127803382D01*
G37*
%TO.C,R12*%
X115546359Y-99420000D02*
X115853641Y-99420000D01*
X115546359Y-100180000D02*
X115853641Y-100180000D01*
%TO.C,R38*%
X146552659Y-101839940D02*
X146769940Y-101622659D01*
X147090060Y-102377341D02*
X147307341Y-102160060D01*
%TO.C,C2*%
X132120000Y-147687836D02*
X132120000Y-147472164D01*
X132840000Y-147687836D02*
X132840000Y-147472164D01*
%TO.C,R67*%
X124143641Y-146180000D02*
X123836359Y-146180000D01*
X124143641Y-145420000D02*
X123836359Y-145420000D01*
%TO.C,R50*%
X110243641Y-131970000D02*
X109936359Y-131970000D01*
X110243641Y-131210000D02*
X109936359Y-131210000D01*
D10*
%TO.C,U2*%
X122555000Y-95379999D02*
X122405000Y-95379999D01*
X122555000Y-95379999D02*
X122555000Y-99580001D01*
X117555500Y-95379999D02*
X117530001Y-95379999D01*
X117530001Y-95379999D02*
X117530001Y-96430000D01*
X117530001Y-98530000D02*
X117530001Y-99580001D01*
X122555000Y-99580001D02*
X122405000Y-99580001D01*
X117555500Y-99580001D02*
X117530001Y-99580001D01*
D12*
X118293002Y-94480000D02*
G75*
G03*
X118043000Y-94480000I-125001J0D01*
G01*
X118043000Y-94480000D02*
G75*
G03*
X118293002Y-94480000I125001J0D01*
G01*
D11*
%TO.C,R76*%
X146872659Y-144569940D02*
X147089940Y-144352659D01*
X147410060Y-145107341D02*
X147627341Y-144890060D01*
%TO.C,R14*%
X127580000Y-96166359D02*
X127580000Y-96473641D01*
X126820000Y-96166359D02*
X126820000Y-96473641D01*
%TO.C,R43*%
X115616258Y-129802500D02*
X115141742Y-129802500D01*
X115616258Y-128757500D02*
X115141742Y-128757500D01*
%TO.C,R28*%
X113337230Y-96091697D02*
X113001697Y-96427230D01*
X112598303Y-95352770D02*
X112262770Y-95688303D01*
%TO.C,J2*%
X166954300Y-115192649D02*
X165250173Y-113488522D01*
X165250173Y-113488522D02*
X163546045Y-115192649D01*
X170991880Y-119654493D02*
X165603726Y-125042647D01*
X165250173Y-113912786D02*
X170991880Y-119654493D01*
X165603726Y-125042647D02*
X159862019Y-119300940D01*
X159862019Y-119300940D02*
X165250173Y-113912786D01*
%TO.C,R79*%
X146947341Y-144230060D02*
X146730060Y-144447341D01*
X146409940Y-143692659D02*
X146192659Y-143909940D01*
%TO.C,C15*%
X135172164Y-139850000D02*
X135387836Y-139850000D01*
X135172164Y-140570000D02*
X135387836Y-140570000D01*
%TO.C,R30*%
X110438303Y-99657230D02*
X110102770Y-99321697D01*
X111177230Y-98918303D02*
X110841697Y-98582770D01*
%TO.C,C7*%
X119030000Y-143702164D02*
X119030000Y-143917836D01*
X118310000Y-143702164D02*
X118310000Y-143917836D01*
%TO.C,R77*%
X146050060Y-145022659D02*
X146267341Y-145239940D01*
X145512659Y-145560060D02*
X145729940Y-145777341D01*
%TO.C,R78*%
X140299940Y-148877341D02*
X140082659Y-148660060D01*
X140837341Y-148339940D02*
X140620060Y-148122659D01*
%TO.C,C25*%
X142665000Y-106761252D02*
X142665000Y-106238748D01*
X144135000Y-106761252D02*
X144135000Y-106238748D01*
%TO.C,R18*%
X118080000Y-90996359D02*
X118080000Y-91303641D01*
X117320000Y-90996359D02*
X117320000Y-91303641D01*
%TO.C,Q10*%
X129700000Y-98040000D02*
X129050000Y-98040000D01*
X129700000Y-98040000D02*
X130350000Y-98040000D01*
X129700000Y-101160000D02*
X129050000Y-101160000D01*
X129700000Y-101160000D02*
X130350000Y-101160000D01*
X128777500Y-101440000D02*
X128297500Y-101440000D01*
X128537500Y-101110000D01*
X128777500Y-101440000D01*
G36*
X128777500Y-101440000D02*
G01*
X128297500Y-101440000D01*
X128537500Y-101110000D01*
X128777500Y-101440000D01*
G37*
%TO.C,R66*%
X130287341Y-148240060D02*
X130070060Y-148457341D01*
X129749940Y-147702659D02*
X129532659Y-147919940D01*
%TO.C,R32*%
X160397341Y-103860060D02*
X160180060Y-104077341D01*
X159859940Y-103322659D02*
X159642659Y-103539940D01*
%TO.C,R75*%
X141930060Y-148092659D02*
X142147341Y-148309940D01*
X141392659Y-148630060D02*
X141609940Y-148847341D01*
%TO.C,U12*%
X145280193Y-139459807D02*
X143901335Y-138080948D01*
X145280193Y-139459807D02*
X146659052Y-140838665D01*
X141659807Y-143080193D02*
X140280948Y-141701335D01*
X141659807Y-143080193D02*
X143038665Y-144459052D01*
X139754154Y-141506881D02*
X139414743Y-141167470D01*
X139817793Y-141103830D01*
X139754154Y-141506881D01*
G36*
X139754154Y-141506881D02*
G01*
X139414743Y-141167470D01*
X139817793Y-141103830D01*
X139754154Y-141506881D01*
G37*
%TO.C,L1*%
X121460000Y-92587221D02*
X121460000Y-92912779D01*
X120440000Y-92587221D02*
X120440000Y-92912779D01*
%TO.C,R68*%
X132296359Y-43070000D02*
X132603641Y-43070000D01*
X132296359Y-43830000D02*
X132603641Y-43830000D01*
%TO.C,C34*%
X139140000Y-107307836D02*
X139140000Y-107092164D01*
X139860000Y-107307836D02*
X139860000Y-107092164D01*
%TO.C,J3*%
X87042700Y-112807351D02*
X88746827Y-114511478D01*
X88746827Y-114511478D02*
X90450955Y-112807351D01*
X83005120Y-108345507D02*
X88393274Y-102957353D01*
X88746827Y-114087214D02*
X83005120Y-108345507D01*
X88393274Y-102957353D02*
X94134981Y-108699060D01*
X94134981Y-108699060D02*
X88746827Y-114087214D01*
%TO.C,R22*%
X90339940Y-125277341D02*
X90122659Y-125060060D01*
X90877341Y-124739940D02*
X90660060Y-124522659D01*
%TO.C,Q3*%
X149779774Y-131702890D02*
X151300054Y-133223170D01*
X147891799Y-134368683D02*
X149023170Y-135500054D01*
X150656587Y-133866637D02*
X151300054Y-133223170D01*
X149023170Y-135500054D02*
X149666637Y-134856587D01*
X147509961Y-134382825D02*
X147170550Y-134043414D01*
X147573601Y-133979774D01*
X147509961Y-134382825D01*
G36*
X147509961Y-134382825D02*
G01*
X147170550Y-134043414D01*
X147573601Y-133979774D01*
X147509961Y-134382825D01*
G37*
%TO.C,Q12*%
X134960000Y-99800000D02*
X134960000Y-99150000D01*
X134960000Y-99800000D02*
X134960000Y-100450000D01*
X131840000Y-99800000D02*
X131840000Y-99150000D01*
X131840000Y-99800000D02*
X131840000Y-100450000D01*
X131890000Y-98637500D02*
X131560000Y-98877500D01*
X131560000Y-98397500D01*
X131890000Y-98637500D01*
G36*
X131890000Y-98637500D02*
G01*
X131560000Y-98877500D01*
X131560000Y-98397500D01*
X131890000Y-98637500D01*
G37*
%TO.C,Q5*%
X124600000Y-98040000D02*
X123950000Y-98040000D01*
X124600000Y-98040000D02*
X125250000Y-98040000D01*
X124600000Y-101160000D02*
X123950000Y-101160000D01*
X124600000Y-101160000D02*
X125250000Y-101160000D01*
X123677500Y-101440000D02*
X123197500Y-101440000D01*
X123437500Y-101110000D01*
X123677500Y-101440000D01*
G36*
X123677500Y-101440000D02*
G01*
X123197500Y-101440000D01*
X123437500Y-101110000D01*
X123677500Y-101440000D01*
G37*
%TO.C,R62*%
X125426359Y-152190000D02*
X125733641Y-152190000D01*
X125426359Y-152950000D02*
X125733641Y-152950000D01*
%TO.C,U11*%
X139290193Y-148199807D02*
X137911335Y-146820948D01*
X139290193Y-148199807D02*
X140669052Y-149578665D01*
X135669807Y-151820193D02*
X134290948Y-150441335D01*
X135669807Y-151820193D02*
X137048665Y-153199052D01*
X133764154Y-150246881D02*
X133424743Y-149907470D01*
X133827793Y-149843830D01*
X133764154Y-150246881D01*
G36*
X133764154Y-150246881D02*
G01*
X133424743Y-149907470D01*
X133827793Y-149843830D01*
X133764154Y-150246881D01*
G37*
%TO.C,R61*%
X143292500Y-124415276D02*
X143292500Y-124924724D01*
X142247500Y-124415276D02*
X142247500Y-124924724D01*
%TO.C,J4*%
X92855068Y-121007351D02*
X94559195Y-119303224D01*
X94559195Y-119303224D02*
X92855068Y-117599096D01*
X88393224Y-125044931D02*
X83005070Y-119656777D01*
X94134931Y-119303224D02*
X88393224Y-125044931D01*
X83005070Y-119656777D02*
X88746777Y-113915070D01*
X88746777Y-113915070D02*
X94134931Y-119303224D01*
%TO.C,R73*%
X140989715Y-137201109D02*
X141206996Y-136983828D01*
X141527116Y-137738510D02*
X141744397Y-137521229D01*
%TO.C,C6*%
X114057421Y-132724000D02*
X114338581Y-132724000D01*
X114057421Y-133744000D02*
X114338581Y-133744000D01*
%TO.C,R13*%
X146610060Y-139122659D02*
X146827341Y-139339940D01*
X146072659Y-139660060D02*
X146289940Y-139877341D01*
%TO.C,D6*%
X149820000Y-112480000D02*
X149820000Y-115740000D01*
X148120000Y-112480000D02*
X149820000Y-112480000D01*
X148120000Y-112480000D02*
X148120000Y-115740000D01*
%TO.C,Q4*%
X149146913Y-140853087D02*
X149606533Y-141312706D01*
X149146913Y-140853087D02*
X148687294Y-140393467D01*
X151353087Y-138646913D02*
X151812706Y-139106533D01*
X151353087Y-138646913D02*
X150893467Y-138187294D01*
X152542794Y-139440641D02*
X152139743Y-139504280D01*
X152203382Y-139101230D01*
X152542794Y-139440641D01*
G36*
X152542794Y-139440641D02*
G01*
X152139743Y-139504280D01*
X152203382Y-139101230D01*
X152542794Y-139440641D01*
G37*
%TO.C,D5*%
X120339000Y-88958000D02*
X124349000Y-88958000D01*
X120339000Y-90958000D02*
X120339000Y-88958000D01*
X120339000Y-90958000D02*
X124349000Y-90958000D01*
%TO.C,C20*%
X144277836Y-109870000D02*
X144062164Y-109870000D01*
X144277836Y-109150000D02*
X144062164Y-109150000D01*
%TO.C,R49*%
X106073641Y-119280000D02*
X105766359Y-119280000D01*
X106073641Y-118520000D02*
X105766359Y-118520000D01*
%TO.C,C26*%
X145673000Y-120272748D02*
X145673000Y-120795252D01*
X144203000Y-120272748D02*
X144203000Y-120795252D01*
%TO.C,R42*%
X150452659Y-99179940D02*
X150669940Y-98962659D01*
X150990060Y-99717341D02*
X151207341Y-99500060D01*
%TO.C,D2*%
X122686000Y-92694000D02*
X125946000Y-92694000D01*
X122686000Y-94394000D02*
X122686000Y-92694000D01*
X122686000Y-94394000D02*
X125946000Y-94394000D01*
%TO.C,R53*%
X130660000Y-145423641D02*
X130660000Y-145116359D01*
X131420000Y-145423641D02*
X131420000Y-145116359D01*
%TO.C,SW5*%
X123900000Y-40550000D02*
X130100000Y-40550000D01*
X123900000Y-41010000D02*
X123900000Y-40550000D01*
X123900000Y-43790000D02*
X122900000Y-43790000D01*
X123900000Y-44250000D02*
X123900000Y-43790000D01*
X130100000Y-41010000D02*
X130100000Y-40550000D01*
X130100000Y-44250000D02*
X123900000Y-44250000D01*
X130100000Y-44250000D02*
X130100000Y-43790000D01*
X125500000Y-42950000D02*
X128350000Y-42950000D01*
X128350000Y-42950000D02*
X128350000Y-41900000D01*
X128350000Y-41900000D02*
X125500000Y-41900000D01*
X125500000Y-41900000D02*
X125500000Y-42950000D01*
D13*
%TO.C,J1*%
X119668237Y-151908455D02*
X130628392Y-162868610D01*
X130629948Y-162871297D02*
X127092858Y-166404144D01*
X127092858Y-166404144D02*
X116132703Y-155443989D01*
D11*
X122461308Y-161772595D02*
X125996842Y-158237061D01*
X120764252Y-160075539D02*
X124299786Y-156540005D01*
D13*
X116132703Y-155443989D02*
X119667672Y-151909020D01*
D14*
X123130957Y-152032906D02*
G75*
G03*
X122676957Y-152032906I-227000J0D01*
G01*
X122676957Y-152032906D02*
G75*
G03*
X123130957Y-152032906I227000J0D01*
G01*
D11*
%TO.C,U6*%
X110550000Y-123035000D02*
X112500000Y-123035000D01*
X110550000Y-123035000D02*
X108600000Y-123035000D01*
X110550000Y-117915000D02*
X112500000Y-117915000D01*
X110550000Y-117915000D02*
X108600000Y-117915000D01*
X113250000Y-118010000D02*
X113010000Y-117680000D01*
X113490000Y-117680000D01*
X113250000Y-118010000D01*
G36*
X113250000Y-118010000D02*
G01*
X113010000Y-117680000D01*
X113490000Y-117680000D01*
X113250000Y-118010000D01*
G37*
%TO.C,R71*%
X136032742Y-142207500D02*
X136507258Y-142207500D01*
X136032742Y-143252500D02*
X136507258Y-143252500D01*
%TO.C,R56*%
X167207341Y-113840060D02*
X166990060Y-114057341D01*
X166669940Y-113302659D02*
X166452659Y-113519940D01*
%TO.C,R23*%
X130820000Y-102453641D02*
X130820000Y-102146359D01*
X131580000Y-102453641D02*
X131580000Y-102146359D01*
%TO.C,R37*%
X145232659Y-103159940D02*
X145449940Y-102942659D01*
X145770060Y-103697341D02*
X145987341Y-103480060D01*
%TO.C,D3*%
X136960000Y-99910000D02*
X136960000Y-103170000D01*
X135260000Y-99910000D02*
X136960000Y-99910000D01*
X135260000Y-99910000D02*
X135260000Y-103170000D01*
%TO.C,Q2*%
X153853087Y-136146913D02*
X153393467Y-135687294D01*
X153853087Y-136146913D02*
X154312706Y-136606533D01*
X151646913Y-138353087D02*
X151187294Y-137893467D01*
X151646913Y-138353087D02*
X152106533Y-138812706D01*
X150796618Y-137898770D02*
X150457206Y-137559359D01*
X150860257Y-137495720D01*
X150796618Y-137898770D01*
G36*
X150796618Y-137898770D02*
G01*
X150457206Y-137559359D01*
X150860257Y-137495720D01*
X150796618Y-137898770D01*
G37*
%TO.C,J6*%
X132427351Y-149714933D02*
X130723224Y-148010806D01*
X130723224Y-148010806D02*
X129019096Y-149714933D01*
X136464931Y-154176777D02*
X131076777Y-159564931D01*
X130723224Y-148435070D02*
X136464931Y-154176777D01*
X131076777Y-159564931D02*
X125335070Y-153823224D01*
X125335070Y-153823224D02*
X130723224Y-148435070D01*
%TO.C,R29*%
X111901697Y-97522770D02*
X112237230Y-97858303D01*
X111162770Y-98261697D02*
X111498303Y-98597230D01*
%TO.C,R74*%
X141579940Y-150147341D02*
X141362659Y-149930060D01*
X142117341Y-149609940D02*
X141900060Y-149392659D01*
%TO.C,R10*%
X116720000Y-95823642D02*
X116720000Y-95516360D01*
X117480000Y-95823642D02*
X117480000Y-95516360D01*
%TO.C,Q11*%
X134775000Y-97710000D02*
X132625000Y-97710000D01*
X134225000Y-94490000D02*
X132625000Y-94490000D01*
X132625000Y-96800000D02*
X132625000Y-97710000D01*
X132625000Y-94490000D02*
X132625000Y-95400000D01*
X134725000Y-94540000D02*
X134485000Y-94210000D01*
X134965000Y-94210000D01*
X134725000Y-94540000D01*
G36*
X134725000Y-94540000D02*
G01*
X134485000Y-94210000D01*
X134965000Y-94210000D01*
X134725000Y-94540000D01*
G37*
%TO.C,R72*%
X133963641Y-143240000D02*
X133656359Y-143240000D01*
X133963641Y-142480000D02*
X133656359Y-142480000D01*
%TO.C,U1*%
X147797500Y-112540000D02*
X147797500Y-116300000D01*
X140977500Y-112540000D02*
X140977500Y-116300000D01*
X147797500Y-116300000D02*
X146537500Y-116300000D01*
X140977500Y-116300000D02*
X142237500Y-116300000D01*
X141077500Y-111260000D02*
X140747500Y-111500000D01*
X140747500Y-111020000D01*
X141077500Y-111260000D01*
G36*
X141077500Y-111260000D02*
G01*
X140747500Y-111500000D01*
X140747500Y-111020000D01*
X141077500Y-111260000D01*
G37*
%TO.C,R58*%
X162600060Y-127682659D02*
X162817341Y-127899940D01*
X162062659Y-128220060D02*
X162279940Y-128437341D01*
%TO.C,R39*%
X149112659Y-99139940D02*
X149329940Y-98922659D01*
X149650060Y-99677341D02*
X149867341Y-99460060D01*
%TO.C,J9*%
X79790000Y-118110000D02*
X79790000Y-109890000D01*
X80240000Y-118110000D02*
X79790000Y-118110000D01*
X83760000Y-118110000D02*
X84210000Y-118110000D01*
X84210000Y-118110000D02*
X84210000Y-117160000D01*
X84210000Y-117160000D02*
X85700000Y-117160000D01*
X79790000Y-109890000D02*
X80240000Y-109890000D01*
X83760000Y-109890000D02*
X84210000Y-109890000D01*
X84210000Y-109890000D02*
X84210000Y-110840000D01*
%TO.C,R59*%
X138081641Y-127837000D02*
X137774359Y-127837000D01*
X138081641Y-127077000D02*
X137774359Y-127077000D01*
%TO.C,C13*%
X116062836Y-132410000D02*
X115847164Y-132410000D01*
X116062836Y-131690000D02*
X115847164Y-131690000D01*
%TO.C,C21*%
X141967836Y-109870000D02*
X141752164Y-109870000D01*
X141967836Y-109150000D02*
X141752164Y-109150000D01*
%TO.C,J5*%
X161146649Y-106992700D02*
X159442522Y-108696827D01*
X159442522Y-108696827D02*
X161146649Y-110400955D01*
X165608493Y-102955120D02*
X170996647Y-108343274D01*
X159866786Y-108696827D02*
X165608493Y-102955120D01*
X170996647Y-108343274D02*
X165254940Y-114084981D01*
X165254940Y-114084981D02*
X159866786Y-108696827D01*
%TO.C,C10*%
X132560000Y-41892164D02*
X132560000Y-42107836D01*
X131840000Y-41892164D02*
X131840000Y-42107836D01*
%TO.C,R6*%
X128546359Y-93420000D02*
X128853641Y-93420000D01*
X128546359Y-94180000D02*
X128853641Y-94180000D01*
%TO.C,R9*%
X155160060Y-136022659D02*
X155377341Y-136239940D01*
X154622659Y-136560060D02*
X154839940Y-136777341D01*
%TO.C,R17*%
X127680000Y-98766359D02*
X127680000Y-99073641D01*
X126920000Y-98766359D02*
X126920000Y-99073641D01*
%TO.C,R44*%
X106990000Y-125553641D02*
X106990000Y-125246359D01*
X107750000Y-125553641D02*
X107750000Y-125246359D01*
%TO.C,Q13*%
X155403087Y-108756913D02*
X154943467Y-108297294D01*
X155403087Y-108756913D02*
X155862706Y-109216533D01*
X153196913Y-110963087D02*
X152737294Y-110503467D01*
X153196913Y-110963087D02*
X153656533Y-111422706D01*
X152346618Y-110508770D02*
X152007206Y-110169359D01*
X152410257Y-110105720D01*
X152346618Y-110508770D01*
G36*
X152346618Y-110508770D02*
G01*
X152007206Y-110169359D01*
X152410257Y-110105720D01*
X152346618Y-110508770D01*
G37*
%TO.C,U5*%
X113110000Y-127400000D02*
X113110000Y-125450000D01*
X113110000Y-127400000D02*
X113110000Y-129350000D01*
X107990000Y-127400000D02*
X107990000Y-125450000D01*
X107990000Y-127400000D02*
X107990000Y-129350000D01*
X108085000Y-124700000D02*
X107755000Y-124940000D01*
X107755000Y-124460000D01*
X108085000Y-124700000D01*
G36*
X108085000Y-124700000D02*
G01*
X107755000Y-124940000D01*
X107755000Y-124460000D01*
X108085000Y-124700000D01*
G37*
%TO.C,R11*%
X116446359Y-98420000D02*
X116753641Y-98420000D01*
X116446359Y-99180000D02*
X116753641Y-99180000D01*
%TO.C,D4*%
X125165000Y-91945000D02*
X125165000Y-88685000D01*
X126865000Y-91945000D02*
X125165000Y-91945000D01*
X126865000Y-91945000D02*
X126865000Y-88685000D01*
%TO.C,R16*%
X119577341Y-91410060D02*
X119360060Y-91627341D01*
X119039940Y-90872659D02*
X118822659Y-91089940D01*
%TO.C,C31*%
X140612000Y-115431164D02*
X140612000Y-115646836D01*
X139892000Y-115431164D02*
X139892000Y-115646836D01*
%TO.C,R57*%
X163370060Y-126862659D02*
X163587341Y-127079940D01*
X162832659Y-127400060D02*
X163049940Y-127617341D01*
%TO.C,JP4*%
X112120000Y-133670000D02*
X112120000Y-133070000D01*
X111420000Y-132370000D02*
X110020000Y-132370000D01*
X110020000Y-134370000D02*
X111420000Y-134370000D01*
X109320000Y-133070000D02*
X109320000Y-133670000D01*
X111420000Y-134370000D02*
G75*
G03*
X112120000Y-133670000I1J699999D01*
G01*
X112120000Y-133070000D02*
G75*
G03*
X111420000Y-132370000I-699999J1D01*
G01*
X109320000Y-133670000D02*
G75*
G03*
X110020000Y-134370000I700000J0D01*
G01*
X110020000Y-132370000D02*
G75*
G03*
X109320000Y-133070000I0J-700000D01*
G01*
%TO.C,R46*%
X112113641Y-131990000D02*
X111806359Y-131990000D01*
X112113641Y-131230000D02*
X111806359Y-131230000D01*
%TO.C,R26*%
X121818000Y-93075641D02*
X121818000Y-92768359D01*
X122578000Y-93075641D02*
X122578000Y-92768359D01*
%TO.C,R52*%
X126677641Y-145162000D02*
X126370359Y-145162000D01*
X126677641Y-144402000D02*
X126370359Y-144402000D01*
%TO.C,C14*%
X131555164Y-125050000D02*
X131770836Y-125050000D01*
X131555164Y-125770000D02*
X131770836Y-125770000D01*
%TO.C,C40*%
X143795543Y-133865010D02*
X144165010Y-133495543D01*
X144834990Y-134904457D02*
X145204457Y-134534990D01*
%TO.C,JP5*%
X105300000Y-123375000D02*
X105900000Y-123375000D01*
X106600000Y-122675000D02*
X106600000Y-121275000D01*
X104600000Y-121275000D02*
X104600000Y-122675000D01*
X105900000Y-120575000D02*
X105300000Y-120575000D01*
X104600000Y-122675000D02*
G75*
G03*
X105300000Y-123375000I699999J-1D01*
G01*
X105900000Y-123375000D02*
G75*
G03*
X106600000Y-122675000I1J699999D01*
G01*
X105300000Y-120575000D02*
G75*
G03*
X104600000Y-121275000I0J-700000D01*
G01*
X106600000Y-121275000D02*
G75*
G03*
X105900000Y-120575000I-700000J0D01*
G01*
%TO.C,R45*%
X115420060Y-122072659D02*
X115637341Y-122289940D01*
X114882659Y-122610060D02*
X115099940Y-122827341D01*
%TO.C,Q16*%
X144299913Y-125427913D02*
X143840294Y-125887533D01*
X144299913Y-125427913D02*
X144759533Y-124968294D01*
X146506087Y-127634087D02*
X146046467Y-128093706D01*
X146506087Y-127634087D02*
X146965706Y-127174467D01*
X146051770Y-128484382D02*
X145712359Y-128823794D01*
X145648720Y-128420743D01*
X146051770Y-128484382D01*
G36*
X146051770Y-128484382D02*
G01*
X145712359Y-128823794D01*
X145648720Y-128420743D01*
X146051770Y-128484382D01*
G37*
%TO.C,R63*%
X124153641Y-145190000D02*
X123846359Y-145190000D01*
X124153641Y-144430000D02*
X123846359Y-144430000D01*
%TO.C,C18*%
X126335000Y-95938748D02*
X126335000Y-96461252D01*
X124865000Y-95938748D02*
X124865000Y-96461252D01*
%TO.C,R1*%
X121988641Y-145177000D02*
X121681359Y-145177000D01*
X121988641Y-144417000D02*
X121681359Y-144417000D01*
%TO.C,R55*%
X163989940Y-126757341D02*
X163772659Y-126540060D01*
X164527341Y-126219940D02*
X164310060Y-126002659D01*
%TO.C,C36*%
X145388307Y-145719190D02*
X145540810Y-145871693D01*
X144879190Y-146228307D02*
X145031693Y-146380810D01*
%TO.C,Q15*%
X136499000Y-125016000D02*
X136499000Y-125666000D01*
X136499000Y-125016000D02*
X136499000Y-124366000D01*
X139619000Y-125016000D02*
X139619000Y-125666000D01*
X139619000Y-125016000D02*
X139619000Y-124366000D01*
X139899000Y-126418500D02*
X139569000Y-126178500D01*
X139899000Y-125938500D01*
X139899000Y-126418500D01*
G36*
X139899000Y-126418500D02*
G01*
X139569000Y-126178500D01*
X139899000Y-125938500D01*
X139899000Y-126418500D01*
G37*
%TO.C,Q1*%
X144651418Y-135621698D02*
X146171698Y-134101418D01*
X147317211Y-137509673D02*
X148448582Y-136378302D01*
X146815165Y-134744885D02*
X146171698Y-134101418D01*
X148448582Y-136378302D02*
X147805115Y-135734835D01*
X147331353Y-137891511D02*
X146991942Y-138230922D01*
X146928302Y-137827871D01*
X147331353Y-137891511D01*
G36*
X147331353Y-137891511D02*
G01*
X146991942Y-138230922D01*
X146928302Y-137827871D01*
X147331353Y-137891511D01*
G37*
%TO.C,C12*%
X115528580Y-131369000D02*
X115247420Y-131369000D01*
X115528580Y-130349000D02*
X115247420Y-130349000D01*
%TO.C,C30*%
X105971000Y-117602836D02*
X105971000Y-117387164D01*
X106691000Y-117602836D02*
X106691000Y-117387164D01*
%TO.C,C9*%
X116038000Y-139191836D02*
X116038000Y-138976164D01*
X116758000Y-139191836D02*
X116758000Y-138976164D01*
%TO.C,J8*%
X174210000Y-109890000D02*
X174210000Y-118110000D01*
X173760000Y-109890000D02*
X174210000Y-109890000D01*
X170240000Y-109890000D02*
X169790000Y-109890000D01*
X169790000Y-109890000D02*
X169790000Y-110840000D01*
X169790000Y-110840000D02*
X168300000Y-110840000D01*
X174210000Y-118110000D02*
X173760000Y-118110000D01*
X170240000Y-118110000D02*
X169790000Y-118110000D01*
X169790000Y-118110000D02*
X169790000Y-117160000D01*
%TO.C,R40*%
X150422659Y-97809940D02*
X150639940Y-97592659D01*
X150960060Y-98347341D02*
X151177341Y-98130060D01*
%TO.C,Q18*%
X130420000Y-146240000D02*
X130420000Y-145590000D01*
X130420000Y-146240000D02*
X130420000Y-146890000D01*
X127300000Y-146240000D02*
X127300000Y-145590000D01*
X127300000Y-146240000D02*
X127300000Y-146890000D01*
X127350000Y-145077500D02*
X127020000Y-145317500D01*
X127020000Y-144837500D01*
X127350000Y-145077500D01*
G36*
X127350000Y-145077500D02*
G01*
X127020000Y-145317500D01*
X127020000Y-144837500D01*
X127350000Y-145077500D01*
G37*
%TO.C,Q14*%
X113440000Y-126630000D02*
X113440000Y-127280000D01*
X113440000Y-126630000D02*
X113440000Y-125980000D01*
X116560000Y-126630000D02*
X116560000Y-127280000D01*
X116560000Y-126630000D02*
X116560000Y-125980000D01*
X116840000Y-128032500D02*
X116510000Y-127792500D01*
X116840000Y-127552500D01*
X116840000Y-128032500D01*
G36*
X116840000Y-128032500D02*
G01*
X116510000Y-127792500D01*
X116840000Y-127552500D01*
X116840000Y-128032500D01*
G37*
%TO.C,R60*%
X143303500Y-121188276D02*
X143303500Y-121697724D01*
X142258500Y-121188276D02*
X142258500Y-121697724D01*
%TO.C,C19*%
X119240000Y-89307836D02*
X119240000Y-89092164D01*
X119960000Y-89307836D02*
X119960000Y-89092164D01*
%TO.C,R24*%
X127106000Y-90164641D02*
X127106000Y-89857359D01*
X127866000Y-90164641D02*
X127866000Y-89857359D01*
%TO.C,C11*%
X117460000Y-100142164D02*
X117460000Y-100357836D01*
X116740000Y-100142164D02*
X116740000Y-100357836D01*
%TO.C,R27*%
X142796359Y-118920000D02*
X143103641Y-118920000D01*
X142796359Y-119680000D02*
X143103641Y-119680000D01*
%TO.C,C17*%
X147519970Y-137918781D02*
X147718781Y-137719970D01*
X148241219Y-138640030D02*
X148440030Y-138441219D01*
%TO.C,R65*%
X150377341Y-136660060D02*
X150160060Y-136877341D01*
X149839940Y-136122659D02*
X149622659Y-136339940D01*
%TO.C,R69*%
X130860000Y-147283641D02*
X130860000Y-146976359D01*
X131620000Y-147283641D02*
X131620000Y-146976359D01*
%TO.C,R15*%
X134190000Y-102923641D02*
X134190000Y-102616359D01*
X134950000Y-102923641D02*
X134950000Y-102616359D01*
%TO.C,R7*%
X126820000Y-94503641D02*
X126820000Y-94196359D01*
X127580000Y-94503641D02*
X127580000Y-94196359D01*
%TO.C,C29*%
X107750000Y-130112164D02*
X107750000Y-130327836D01*
X107030000Y-130112164D02*
X107030000Y-130327836D01*
%TO.C,R36*%
X156227950Y-106349147D02*
X156010669Y-106566428D01*
X155690549Y-105811746D02*
X155473268Y-106029027D01*
%TO.C,R34*%
X152048303Y-111817230D02*
X151712770Y-111481697D01*
X152787230Y-111078303D02*
X152451697Y-110742770D01*
%TO.C,R47*%
X108363641Y-131980000D02*
X108056359Y-131980000D01*
X108363641Y-131220000D02*
X108056359Y-131220000D01*
%TO.C,R48*%
X104900000Y-119221359D02*
X104900000Y-119528641D01*
X104140000Y-119221359D02*
X104140000Y-119528641D01*
%TO.C,U8*%
X118488000Y-128474000D02*
X118488000Y-129174000D01*
X118488000Y-142694000D02*
X118488000Y-141994000D01*
X119188000Y-128474000D02*
X118488000Y-128474000D01*
X119188000Y-142694000D02*
X118488000Y-142694000D01*
X132008000Y-128474000D02*
X132708000Y-128474000D01*
X132008000Y-142694000D02*
X132708000Y-142694000D01*
X132708000Y-128474000D02*
X132708000Y-129174000D01*
X132708000Y-142694000D02*
X132708000Y-141994000D01*
X118200500Y-142464000D02*
X117520500Y-142464000D01*
X117860500Y-141994000D01*
X118200500Y-142464000D01*
G36*
X118200500Y-142464000D02*
G01*
X117520500Y-142464000D01*
X117860500Y-141994000D01*
X118200500Y-142464000D01*
G37*
%TO.C,C8*%
X116758000Y-137076164D02*
X116758000Y-137291836D01*
X116038000Y-137076164D02*
X116038000Y-137291836D01*
%TO.C,C28*%
X152066058Y-97610352D02*
X151913555Y-97457849D01*
X152575175Y-97101235D02*
X152422672Y-96948732D01*
%TO.C,C5*%
X114338580Y-139444000D02*
X114057420Y-139444000D01*
X114338580Y-138424000D02*
X114057420Y-138424000D01*
%TO.C,R8*%
X152710060Y-133022659D02*
X152927341Y-133239940D01*
X152172659Y-133560060D02*
X152389940Y-133777341D01*
%TO.C,R64*%
X151727341Y-135310060D02*
X151510060Y-135527341D01*
X151189940Y-134772659D02*
X150972659Y-134989940D01*
%TO.C,U4*%
X151989807Y-104110193D02*
X153368665Y-105489052D01*
X151989807Y-104110193D02*
X150610948Y-102731335D01*
X155610193Y-100489807D02*
X156989052Y-101868665D01*
X155610193Y-100489807D02*
X154231335Y-99110948D01*
X157855257Y-102402530D02*
X157452207Y-102466170D01*
X157515846Y-102063119D01*
X157855257Y-102402530D01*
G36*
X157855257Y-102402530D02*
G01*
X157452207Y-102466170D01*
X157515846Y-102063119D01*
X157855257Y-102402530D01*
G37*
%TO.C,R54*%
X164699940Y-126037341D02*
X164482659Y-125820060D01*
X165237341Y-125499940D02*
X165020060Y-125282659D01*
%TO.C,C24*%
X113389970Y-96688781D02*
X113588781Y-96489970D01*
X114111219Y-97410030D02*
X114310030Y-97211219D01*
%TD*%
%LPC*%
%TO.C,U2*%
G36*
X119630001Y-96630000D02*
G01*
X119330001Y-96630000D01*
X119330001Y-94980000D01*
X119630001Y-94980000D01*
X119630001Y-96630000D01*
G37*
G36*
X119130001Y-96630000D02*
G01*
X118830001Y-96630000D01*
X118830001Y-94980000D01*
X119130001Y-94980000D01*
X119130001Y-96630000D01*
G37*
G36*
X118430001Y-96630000D02*
G01*
X117930001Y-96630000D01*
X117930001Y-94980000D01*
X118430001Y-94980000D01*
X118430001Y-96630000D01*
G37*
G36*
X118530001Y-97130000D02*
G01*
X117130001Y-97130000D01*
X117130001Y-96830000D01*
X118530001Y-96830000D01*
X118530001Y-97130000D01*
G37*
G36*
X118530001Y-98130000D02*
G01*
X117130001Y-98130000D01*
X117130001Y-97830000D01*
X118530001Y-97830000D01*
X118530001Y-98130000D01*
G37*
G36*
X119630001Y-99980000D02*
G01*
X119330001Y-99980000D01*
X119330001Y-98330000D01*
X119630001Y-98330000D01*
X119630001Y-99980000D01*
G37*
G36*
X119130001Y-99980000D02*
G01*
X118830001Y-99980000D01*
X118830001Y-98330000D01*
X119130001Y-98330000D01*
X119130001Y-99980000D01*
G37*
G36*
X118430001Y-99980000D02*
G01*
X117930001Y-99980000D01*
X117930001Y-98330000D01*
X118430001Y-98330000D01*
X118430001Y-99980000D01*
G37*
G36*
X119205502Y-97380000D02*
G01*
X119205502Y-97580000D01*
X119155502Y-97630000D01*
X117130001Y-97630000D01*
X117130001Y-97330000D01*
X119155502Y-97330000D01*
X119205502Y-97380000D01*
G37*
G36*
X122155001Y-95955002D02*
G01*
X122155001Y-96980004D01*
X122104998Y-97030003D01*
X120155002Y-97030001D01*
X120105012Y-96980001D01*
X120105002Y-95954999D01*
X120154974Y-95055004D01*
X122105001Y-95054999D01*
X122155001Y-95955002D01*
G37*
G36*
X122155029Y-97979997D02*
G01*
X122155029Y-99004999D01*
X122105026Y-99904998D01*
X120155030Y-99904996D01*
X120105040Y-99004996D01*
X120105030Y-97979994D01*
X120155002Y-97929999D01*
X122105026Y-97929994D01*
X122155029Y-97979997D01*
G37*
%TD*%
D15*
%TO.C,J7*%
X145073978Y-138183381D03*
X147760984Y-140870387D03*
X151183381Y-132073978D03*
X153870387Y-134760984D03*
%TD*%
D16*
%TO.C,U7*%
X141090000Y-120230000D03*
X148710000Y-120230000D03*
X141090000Y-117690000D03*
X148710000Y-125310000D03*
X148710000Y-122770000D03*
X141090000Y-125310000D03*
X141090000Y-122770000D03*
X148710000Y-117690000D03*
%TD*%
D17*
%TO.C,H1*%
X115050000Y-45340000D03*
X115752944Y-43642944D03*
X115752944Y-47037056D03*
X117450000Y-42940000D03*
D18*
X117450000Y-45340000D03*
D17*
X117450000Y-47740000D03*
X119147056Y-43642944D03*
X119147056Y-47037056D03*
X119850000Y-45340000D03*
%TD*%
D19*
%TO.C,C32*%
X158892042Y-113364466D03*
X160306256Y-111950253D03*
%TD*%
D20*
%TO.C,TP3*%
X108030000Y-109170000D03*
%TD*%
D17*
%TO.C,H2*%
X134135000Y-45337000D03*
X134837944Y-43639944D03*
X134837944Y-47034056D03*
X136535000Y-42937000D03*
D18*
X136535000Y-45337000D03*
D17*
X136535000Y-47737000D03*
X138232056Y-43639944D03*
X138232056Y-47034056D03*
X138935000Y-45337000D03*
%TD*%
D21*
%TO.C,SW2*%
X86311396Y-120141902D03*
D22*
X86806371Y-116111393D03*
X82775862Y-116606368D03*
%TD*%
D19*
%TO.C,C33*%
X95107959Y-114635534D03*
X93693745Y-116049747D03*
%TD*%
D23*
%TO.C,C27*%
X148577710Y-101654308D03*
X147898888Y-100975486D03*
%TD*%
D24*
%TO.C,R21*%
X92740000Y-123160000D03*
X91720000Y-123160000D03*
%TD*%
D25*
%TO.C,R4*%
X143139376Y-136099376D03*
X143860624Y-136820624D03*
%TD*%
D26*
%TO.C,Q6*%
X128500000Y-97050000D03*
X128500000Y-95150000D03*
X130900000Y-96100000D03*
%TD*%
D27*
%TO.C,R25*%
X132180000Y-103210000D03*
X132180000Y-102190000D03*
%TD*%
D28*
%TO.C,C16*%
X119375000Y-93480000D03*
X116425000Y-93480000D03*
%TD*%
D29*
%TO.C,R3*%
X144429624Y-129021376D03*
X143708376Y-129742624D03*
%TD*%
D30*
%TO.C,C4*%
X134800000Y-141530000D03*
X135760000Y-141530000D03*
%TD*%
D29*
%TO.C,R33*%
X159710624Y-102659376D03*
X158989376Y-103380624D03*
%TD*%
D31*
%TO.C,C35*%
X136810589Y-153750589D03*
X137489411Y-154429411D03*
%TD*%
D32*
%TO.C,U3*%
X153103194Y-106809117D03*
X152205168Y-107707142D03*
X151307142Y-108605168D03*
X150409117Y-109503194D03*
X146696806Y-105790883D03*
X147594832Y-104892858D03*
X148492858Y-103994832D03*
X149390883Y-103096806D03*
%TD*%
D33*
%TO.C,C3*%
X132144000Y-126390000D03*
X131184000Y-126390000D03*
%TD*%
D34*
%TO.C,Y2*%
X113348000Y-137184000D03*
X113348000Y-134984000D03*
X115048000Y-134984000D03*
X115048000Y-137184000D03*
%TD*%
D35*
%TO.C,Q17*%
X135560664Y-145292161D03*
X134217161Y-146635664D03*
X133563087Y-144638087D03*
%TD*%
D36*
%TO.C,C41*%
X123600000Y-95250000D03*
X123600000Y-97150000D03*
%TD*%
D25*
%TO.C,R20*%
X90839376Y-123839376D03*
X91560624Y-124560624D03*
%TD*%
D23*
%TO.C,C1*%
X119143411Y-126305411D03*
X118464589Y-125626589D03*
%TD*%
D37*
%TO.C,R51*%
X105410000Y-119850000D03*
X106430000Y-119850000D03*
%TD*%
D38*
%TO.C,R41*%
X146569528Y-103690776D03*
X147290776Y-102969528D03*
%TD*%
D29*
%TO.C,R35*%
X154140624Y-112189376D03*
X153419376Y-112910624D03*
%TD*%
D27*
%TO.C,R19*%
X118650000Y-90210000D03*
X118650000Y-89190000D03*
%TD*%
D29*
%TO.C,R31*%
X161060624Y-104029376D03*
X160339376Y-104750624D03*
%TD*%
D39*
%TO.C,Q8*%
X93358839Y-127184664D03*
X92015336Y-125841161D03*
X94012913Y-125187087D03*
%TD*%
D37*
%TO.C,R12*%
X115190000Y-99800000D03*
X116210000Y-99800000D03*
%TD*%
D38*
%TO.C,R38*%
X146569376Y-102360624D03*
X147290624Y-101639376D03*
%TD*%
D40*
%TO.C,C2*%
X132480000Y-148060000D03*
X132480000Y-147100000D03*
%TD*%
D24*
%TO.C,R67*%
X124500000Y-145800000D03*
X123480000Y-145800000D03*
%TD*%
%TO.C,R50*%
X110600000Y-131590000D03*
X109580000Y-131590000D03*
%TD*%
D38*
%TO.C,R76*%
X146889376Y-145090624D03*
X147610624Y-144369376D03*
%TD*%
D41*
%TO.C,R14*%
X127200000Y-95810000D03*
X127200000Y-96830000D03*
%TD*%
D42*
%TO.C,R43*%
X116204000Y-129280000D03*
X114554000Y-129280000D03*
%TD*%
D43*
%TO.C,R28*%
X113383363Y-95306637D03*
X112216637Y-96473363D03*
%TD*%
D44*
%TO.C,J2*%
X164437000Y-116720000D03*
D45*
X162669233Y-118487767D03*
%TD*%
D29*
%TO.C,R79*%
X146930624Y-143709376D03*
X146209376Y-144430624D03*
%TD*%
D30*
%TO.C,C15*%
X134800000Y-140210000D03*
X135760000Y-140210000D03*
%TD*%
D46*
%TO.C,R30*%
X111223363Y-99703363D03*
X110056637Y-98536637D03*
%TD*%
D47*
%TO.C,C7*%
X118670000Y-143330000D03*
X118670000Y-144290000D03*
%TD*%
D25*
%TO.C,R77*%
X145529376Y-145039376D03*
X146250624Y-145760624D03*
%TD*%
D48*
%TO.C,R78*%
X140820624Y-148860624D03*
X140099376Y-148139376D03*
%TD*%
D49*
%TO.C,C25*%
X143400000Y-107450000D03*
X143400000Y-105550000D03*
%TD*%
D41*
%TO.C,R18*%
X117700000Y-90640000D03*
X117700000Y-91660000D03*
%TD*%
D50*
%TO.C,Q10*%
X128762500Y-100550000D03*
X128762500Y-98650000D03*
X130637500Y-99600000D03*
%TD*%
D29*
%TO.C,R66*%
X130270624Y-147719376D03*
X129549376Y-148440624D03*
%TD*%
%TO.C,R32*%
X160380624Y-103339376D03*
X159659376Y-104060624D03*
%TD*%
D25*
%TO.C,R75*%
X141409376Y-148109376D03*
X142130624Y-148830624D03*
%TD*%
D51*
%TO.C,U12*%
X140266806Y-140760883D03*
X141164832Y-139862858D03*
X142062858Y-138964832D03*
X142960883Y-138066806D03*
X146673194Y-141779117D03*
X145775168Y-142677142D03*
X144877142Y-143575168D03*
X143979117Y-144473194D03*
%TD*%
D52*
%TO.C,L1*%
X120950000Y-91962500D03*
X120950000Y-93537500D03*
%TD*%
D37*
%TO.C,R68*%
X131940000Y-43450000D03*
X132960000Y-43450000D03*
%TD*%
D40*
%TO.C,C34*%
X139500000Y-107680000D03*
X139500000Y-106720000D03*
%TD*%
D53*
%TO.C,J3*%
X89560000Y-111280000D03*
D45*
X91327767Y-109512233D03*
%TD*%
D48*
%TO.C,R22*%
X90860624Y-125260624D03*
X90139376Y-124539376D03*
%TD*%
D54*
%TO.C,Q3*%
X147881192Y-133424695D03*
X149224695Y-132081192D03*
X150250000Y-134450000D03*
%TD*%
D55*
%TO.C,Q12*%
X132450000Y-98862500D03*
X134350000Y-98862500D03*
X133400000Y-100737500D03*
%TD*%
D50*
%TO.C,Q5*%
X123662500Y-100550000D03*
X123662500Y-98650000D03*
X125537500Y-99600000D03*
%TD*%
D37*
%TO.C,R62*%
X125070000Y-152570000D03*
X126090000Y-152570000D03*
%TD*%
D51*
%TO.C,U11*%
X134276806Y-149500883D03*
X135174832Y-148602858D03*
X136072858Y-147704832D03*
X136970883Y-146806806D03*
X140683194Y-150519117D03*
X139785168Y-151417142D03*
X138887142Y-152315168D03*
X137989117Y-153213194D03*
%TD*%
D56*
%TO.C,R61*%
X142770000Y-123757500D03*
X142770000Y-125582500D03*
%TD*%
D57*
%TO.C,J4*%
X91327717Y-118490051D03*
D58*
X89559950Y-116722284D03*
%TD*%
D38*
%TO.C,R73*%
X141006432Y-137721793D03*
X141727680Y-137000545D03*
%TD*%
D59*
%TO.C,C6*%
X113423001Y-133234000D03*
X114973001Y-133234000D03*
%TD*%
D25*
%TO.C,R13*%
X146089376Y-139139376D03*
X146810624Y-139860624D03*
%TD*%
D60*
%TO.C,D6*%
X148970000Y-113240000D03*
X148970000Y-115740000D03*
%TD*%
D35*
%TO.C,Q4*%
X151584664Y-139741161D03*
X150241161Y-141084664D03*
X149587087Y-139087087D03*
%TD*%
D61*
%TO.C,D5*%
X121049000Y-89958000D03*
X124349000Y-89958000D03*
%TD*%
D33*
%TO.C,C20*%
X144650000Y-109510000D03*
X143690000Y-109510000D03*
%TD*%
D24*
%TO.C,R49*%
X106430000Y-118900000D03*
X105410000Y-118900000D03*
%TD*%
D36*
%TO.C,C26*%
X144938000Y-119584000D03*
X144938000Y-121484000D03*
%TD*%
D38*
%TO.C,R42*%
X150469376Y-99700624D03*
X151190624Y-98979376D03*
%TD*%
D62*
%TO.C,D2*%
X123446000Y-93544000D03*
X125946000Y-93544000D03*
%TD*%
D27*
%TO.C,R53*%
X131040000Y-145780000D03*
X131040000Y-144760000D03*
%TD*%
D63*
%TO.C,SW5*%
X123750000Y-42400000D03*
D64*
X130250000Y-42400000D03*
%TD*%
D65*
%TO.C,J1*%
X124009872Y-153138821D03*
D66*
X123111847Y-154036847D03*
X124907898Y-154036847D03*
X124009872Y-154934872D03*
X125805923Y-154934872D03*
X124907898Y-155832898D03*
X126703949Y-155832898D03*
X125805923Y-156730924D03*
X127601975Y-156730924D03*
X126703949Y-157628949D03*
X128500000Y-157628949D03*
X127601975Y-158526975D03*
X129398026Y-158526975D03*
X128500000Y-159425000D03*
%TD*%
D67*
%TO.C,U6*%
X113175000Y-118570000D03*
X113175000Y-119840000D03*
X113175000Y-121110000D03*
X113175000Y-122380000D03*
X107925000Y-122380000D03*
X107925000Y-121110000D03*
X107925000Y-119840000D03*
X107925000Y-118570000D03*
%TD*%
D68*
%TO.C,R71*%
X135445000Y-142730000D03*
X137095000Y-142730000D03*
%TD*%
D29*
%TO.C,R56*%
X167190624Y-113319376D03*
X166469376Y-114040624D03*
%TD*%
D27*
%TO.C,R23*%
X131200000Y-102810000D03*
X131200000Y-101790000D03*
%TD*%
D38*
%TO.C,R37*%
X145249376Y-103680624D03*
X145970624Y-102959376D03*
%TD*%
D60*
%TO.C,D3*%
X136110000Y-100670000D03*
X136110000Y-103170000D03*
%TD*%
D69*
%TO.C,Q2*%
X151415336Y-137258839D03*
X152758839Y-135915336D03*
X153412913Y-137912913D03*
%TD*%
D44*
%TO.C,J6*%
X129910051Y-151242284D03*
D45*
X128142284Y-153010051D03*
%TD*%
D70*
%TO.C,R29*%
X111116637Y-97476637D03*
X112283363Y-98643363D03*
%TD*%
D48*
%TO.C,R74*%
X142100624Y-150130624D03*
X141379376Y-149409376D03*
%TD*%
D27*
%TO.C,R10*%
X117100000Y-96180001D03*
X117100000Y-95160001D03*
%TD*%
D71*
%TO.C,Q11*%
X134900000Y-95150000D03*
X134900000Y-97050000D03*
X132500000Y-96100000D03*
%TD*%
D24*
%TO.C,R72*%
X134320000Y-142860000D03*
X133300000Y-142860000D03*
%TD*%
D72*
%TO.C,U1*%
X142087500Y-111240000D03*
X144387500Y-111240000D03*
D73*
X144387500Y-117540000D03*
D72*
X146687500Y-111240000D03*
%TD*%
D25*
%TO.C,R58*%
X162079376Y-127699376D03*
X162800624Y-128420624D03*
%TD*%
D38*
%TO.C,R39*%
X149129376Y-99660624D03*
X149850624Y-98939376D03*
%TD*%
D74*
%TO.C,J9*%
X84900000Y-116500000D03*
X84900000Y-115250000D03*
X84900000Y-114000000D03*
X84900000Y-112750000D03*
X84900000Y-111500000D03*
D75*
X82000000Y-119050000D03*
X82000000Y-108950000D03*
%TD*%
D24*
%TO.C,R59*%
X138438000Y-127457000D03*
X137418000Y-127457000D03*
%TD*%
D33*
%TO.C,C13*%
X116435000Y-132050000D03*
X115475000Y-132050000D03*
%TD*%
%TO.C,C21*%
X142340000Y-109510000D03*
X141380000Y-109510000D03*
%TD*%
D76*
%TO.C,J5*%
X162674000Y-109510000D03*
D77*
X164441767Y-111277767D03*
%TD*%
D47*
%TO.C,C10*%
X132200000Y-41520000D03*
X132200000Y-42480000D03*
%TD*%
D37*
%TO.C,R6*%
X128190000Y-93800000D03*
X129210000Y-93800000D03*
%TD*%
D25*
%TO.C,R9*%
X154639376Y-136039376D03*
X155360624Y-136760624D03*
%TD*%
D41*
%TO.C,R17*%
X127300000Y-98410000D03*
X127300000Y-99430000D03*
%TD*%
D27*
%TO.C,R44*%
X107370000Y-125910000D03*
X107370000Y-124890000D03*
%TD*%
D69*
%TO.C,Q13*%
X152965336Y-109868839D03*
X154308839Y-108525336D03*
X154962913Y-110522913D03*
%TD*%
D78*
%TO.C,U5*%
X108645000Y-124775000D03*
X109915000Y-124775000D03*
X111185000Y-124775000D03*
X112455000Y-124775000D03*
X112455000Y-130025000D03*
X111185000Y-130025000D03*
X109915000Y-130025000D03*
X108645000Y-130025000D03*
%TD*%
D37*
%TO.C,R11*%
X116090000Y-98800000D03*
X117110000Y-98800000D03*
%TD*%
D79*
%TO.C,D4*%
X126015000Y-91185000D03*
X126015000Y-88685000D03*
%TD*%
D29*
%TO.C,R16*%
X119560624Y-90889376D03*
X118839376Y-91610624D03*
%TD*%
D47*
%TO.C,C31*%
X140252000Y-115059000D03*
X140252000Y-116019000D03*
%TD*%
D25*
%TO.C,R57*%
X162849376Y-126879376D03*
X163570624Y-127600624D03*
%TD*%
D80*
%TO.C,JP4*%
X111370000Y-133370000D03*
D81*
X110070000Y-133370000D03*
%TD*%
D24*
%TO.C,R46*%
X112470000Y-131610000D03*
X111450000Y-131610000D03*
%TD*%
D27*
%TO.C,R26*%
X122198000Y-93432000D03*
X122198000Y-92412000D03*
%TD*%
D24*
%TO.C,R52*%
X127034000Y-144782000D03*
X126014000Y-144782000D03*
%TD*%
D30*
%TO.C,C14*%
X131183000Y-125410000D03*
X132143000Y-125410000D03*
%TD*%
D82*
%TO.C,C40*%
X143828249Y-134871751D03*
X145171751Y-133528249D03*
%TD*%
D83*
%TO.C,JP5*%
X105600000Y-122625000D03*
D84*
X105600000Y-121325000D03*
%TD*%
D25*
%TO.C,R45*%
X114899376Y-122089376D03*
X115620624Y-122810624D03*
%TD*%
D39*
%TO.C,Q16*%
X145411839Y-127865664D03*
X144068336Y-126522161D03*
X146065913Y-125868087D03*
%TD*%
D24*
%TO.C,R63*%
X124510000Y-144810000D03*
X123490000Y-144810000D03*
%TD*%
D36*
%TO.C,C18*%
X125600000Y-95250000D03*
X125600000Y-97150000D03*
%TD*%
D24*
%TO.C,R1*%
X122345000Y-144797000D03*
X121325000Y-144797000D03*
%TD*%
D48*
%TO.C,R55*%
X164510624Y-126740624D03*
X163789376Y-126019376D03*
%TD*%
D31*
%TO.C,C36*%
X144870589Y-145710589D03*
X145549411Y-146389411D03*
%TD*%
D85*
%TO.C,Q15*%
X139009000Y-125953500D03*
X137109000Y-125953500D03*
X138059000Y-124078500D03*
%TD*%
D86*
%TO.C,Q1*%
X146373223Y-137520280D03*
X145029720Y-136176777D03*
X147398528Y-135151472D03*
%TD*%
D87*
%TO.C,U10*%
X137500000Y-106380000D03*
X137500000Y-108920000D03*
X137500000Y-111460000D03*
X137500000Y-114000000D03*
X137500000Y-116540000D03*
X137500000Y-119080000D03*
X137500000Y-121620000D03*
%TD*%
D88*
%TO.C,C12*%
X116163000Y-130859000D03*
X114613000Y-130859000D03*
%TD*%
D40*
%TO.C,C30*%
X106331000Y-117975000D03*
X106331000Y-117015000D03*
%TD*%
%TO.C,C9*%
X116398000Y-139564000D03*
X116398000Y-138604000D03*
%TD*%
D89*
%TO.C,J8*%
X169100000Y-111500000D03*
X169100000Y-112750000D03*
X169100000Y-114000000D03*
X169100000Y-115250000D03*
X169100000Y-116500000D03*
D90*
X172000000Y-108950000D03*
X172000000Y-119050000D03*
%TD*%
D38*
%TO.C,R40*%
X150439376Y-98330624D03*
X151160624Y-97609376D03*
%TD*%
D55*
%TO.C,Q18*%
X127910000Y-145302500D03*
X129810000Y-145302500D03*
X128860000Y-147177500D03*
%TD*%
D85*
%TO.C,Q14*%
X115950000Y-127567500D03*
X114050000Y-127567500D03*
X115000000Y-125692500D03*
%TD*%
D56*
%TO.C,R60*%
X142781000Y-120530500D03*
X142781000Y-122355500D03*
%TD*%
D40*
%TO.C,C19*%
X119600000Y-89680000D03*
X119600000Y-88720000D03*
%TD*%
D27*
%TO.C,R24*%
X127486000Y-90521000D03*
X127486000Y-89501000D03*
%TD*%
D47*
%TO.C,C11*%
X117100000Y-99770000D03*
X117100000Y-100730000D03*
%TD*%
D37*
%TO.C,R27*%
X142440000Y-119300000D03*
X143460000Y-119300000D03*
%TD*%
D91*
%TO.C,C17*%
X147431992Y-138728008D03*
X148528008Y-137631992D03*
%TD*%
D29*
%TO.C,R65*%
X150360624Y-136139376D03*
X149639376Y-136860624D03*
%TD*%
D27*
%TO.C,R69*%
X131240000Y-147640000D03*
X131240000Y-146620000D03*
%TD*%
%TO.C,R15*%
X134570000Y-103280000D03*
X134570000Y-102260000D03*
%TD*%
%TO.C,R7*%
X127200000Y-94860000D03*
X127200000Y-93840000D03*
%TD*%
D47*
%TO.C,C29*%
X107390000Y-129740000D03*
X107390000Y-130700000D03*
%TD*%
D29*
%TO.C,R36*%
X156211233Y-105828463D03*
X155489985Y-106549711D03*
%TD*%
D46*
%TO.C,R34*%
X152833363Y-111863363D03*
X151666637Y-110696637D03*
%TD*%
D24*
%TO.C,R47*%
X108720000Y-131600000D03*
X107700000Y-131600000D03*
%TD*%
D41*
%TO.C,R48*%
X104520000Y-118865000D03*
X104520000Y-119885000D03*
%TD*%
D92*
%TO.C,U8*%
X117923000Y-141584000D03*
X117923000Y-141084000D03*
X117923000Y-140584000D03*
X117923000Y-140084000D03*
X117923000Y-139584000D03*
X117923000Y-139084000D03*
X117923000Y-138584000D03*
X117923000Y-138084000D03*
X117923000Y-137584000D03*
X117923000Y-137084000D03*
X117923000Y-136584000D03*
X117923000Y-136084000D03*
X117923000Y-135584000D03*
X117923000Y-135084000D03*
X117923000Y-134584000D03*
X117923000Y-134084000D03*
X117923000Y-133584000D03*
X117923000Y-133084000D03*
X117923000Y-132584000D03*
X117923000Y-132084000D03*
X117923000Y-131584000D03*
X117923000Y-131084000D03*
X117923000Y-130584000D03*
X117923000Y-130084000D03*
X117923000Y-129584000D03*
D93*
X119598000Y-127909000D03*
X120098000Y-127909000D03*
X120598000Y-127909000D03*
X121098000Y-127909000D03*
X121598000Y-127909000D03*
X122098000Y-127909000D03*
X122598000Y-127909000D03*
X123098000Y-127909000D03*
X123598000Y-127909000D03*
X124098000Y-127909000D03*
X124598000Y-127909000D03*
X125098000Y-127909000D03*
X125598000Y-127909000D03*
X126098000Y-127909000D03*
X126598000Y-127909000D03*
X127098000Y-127909000D03*
X127598000Y-127909000D03*
X128098000Y-127909000D03*
X128598000Y-127909000D03*
X129098000Y-127909000D03*
X129598000Y-127909000D03*
X130098000Y-127909000D03*
X130598000Y-127909000D03*
X131098000Y-127909000D03*
X131598000Y-127909000D03*
D92*
X133273000Y-129584000D03*
X133273000Y-130084000D03*
X133273000Y-130584000D03*
X133273000Y-131084000D03*
X133273000Y-131584000D03*
X133273000Y-132084000D03*
X133273000Y-132584000D03*
X133273000Y-133084000D03*
X133273000Y-133584000D03*
X133273000Y-134084000D03*
X133273000Y-134584000D03*
X133273000Y-135084000D03*
X133273000Y-135584000D03*
X133273000Y-136084000D03*
X133273000Y-136584000D03*
X133273000Y-137084000D03*
X133273000Y-137584000D03*
X133273000Y-138084000D03*
X133273000Y-138584000D03*
X133273000Y-139084000D03*
X133273000Y-139584000D03*
X133273000Y-140084000D03*
X133273000Y-140584000D03*
X133273000Y-141084000D03*
X133273000Y-141584000D03*
D93*
X131598000Y-143259000D03*
X131098000Y-143259000D03*
X130598000Y-143259000D03*
X130098000Y-143259000D03*
X129598000Y-143259000D03*
X129098000Y-143259000D03*
X128598000Y-143259000D03*
X128098000Y-143259000D03*
X127598000Y-143259000D03*
X127098000Y-143259000D03*
X126598000Y-143259000D03*
X126098000Y-143259000D03*
X125598000Y-143259000D03*
X125098000Y-143259000D03*
X124598000Y-143259000D03*
X124098000Y-143259000D03*
X123598000Y-143259000D03*
X123098000Y-143259000D03*
X122598000Y-143259000D03*
X122098000Y-143259000D03*
X121598000Y-143259000D03*
X121098000Y-143259000D03*
X120598000Y-143259000D03*
X120098000Y-143259000D03*
X119598000Y-143259000D03*
%TD*%
D47*
%TO.C,C8*%
X116398000Y-136704000D03*
X116398000Y-137664000D03*
%TD*%
D23*
%TO.C,C28*%
X152583776Y-97618953D03*
X151904954Y-96940131D03*
%TD*%
D88*
%TO.C,C5*%
X114973000Y-138934000D03*
X113423000Y-138934000D03*
%TD*%
D25*
%TO.C,R8*%
X152189376Y-133039376D03*
X152910624Y-133760624D03*
%TD*%
D29*
%TO.C,R64*%
X151710624Y-134789376D03*
X150989376Y-135510624D03*
%TD*%
D32*
%TO.C,U4*%
X157003194Y-102809117D03*
X156105168Y-103707142D03*
X155207142Y-104605168D03*
X154309117Y-105503194D03*
X150596806Y-101790883D03*
X151494832Y-100892858D03*
X152392858Y-99994832D03*
X153290883Y-99096806D03*
%TD*%
D48*
%TO.C,R54*%
X165220624Y-126020624D03*
X164499376Y-125299376D03*
%TD*%
D91*
%TO.C,C24*%
X113301992Y-97498008D03*
X114398008Y-96401992D03*
%TD*%
%LPD*%
M02*
