M48
; DRILL file {KiCad 7.0.11} date Tue Jun 24 23:15:39 2025
; FORMAT={-:-/ absolute / inch / decimal}
; #@! TF.CreationDate,2025-06-24T23:15:39+09:00
; #@! TF.GenerationSoftware,Kicad,Pcbnew,7.0.11
; #@! TF.FileFunction,Plated,1,2,PTH
FMAT,2
INCH
; #@! TA.AperFunction,Plated,PTH,ViaDrill
T1C0.0118
; #@! TA.AperFunction,Plated,PTH,ComponentDrill
T2C0.0197
; #@! TA.AperFunction,Plated,PTH,ComponentDrill
T3C0.0236
; #@! TA.AperFunction,Plated,PTH,ComponentDrill
T4C0.0256
; #@! TA.AperFunction,Plated,PTH,ComponentDrill
T5C0.0300
; #@! TA.AperFunction,Plated,PTH,ComponentDrill
T6C0.0335
; #@! TA.AperFunction,Plated,PTH,ComponentDrill
T7C0.0394
; #@! TA.AperFunction,Plated,PTH,ComponentDrill
T8C0.0512
; #@! TA.AperFunction,Plated,PTH,ComponentDrill
T9C0.1260
%
G90
G05
T1
X3.3046Y-4.6526
X3.4934Y-4.5567
X3.6928Y-4.712
X3.6933Y-4.7791
X3.6944Y-4.846
X3.7077Y-4.7327
X3.7087Y-4.7583
X3.7093Y-4.7996
X3.7093Y-4.8252
X3.9764Y-2.2539
X4.0945Y-2.1654
X4.0945Y-2.3622
X4.0974Y-4.866
X4.1114Y-4.6496
X4.1126Y-4.7638
X4.1181Y-4.8957
X4.1181Y-5.126
X4.1299Y-4.2232
X4.1299Y-4.6276
X4.1315Y-4.0752
X4.1315Y-4.3815
X4.1315Y-4.5268
X4.1339Y-2.2539
X4.1382Y-5.0276
X4.1453Y-4.6878
X4.1622Y-4.6669
X4.1732Y-2.0669
X4.1732Y-2.4508
X4.1803Y-4.3051
X4.1821Y-4.7427
X4.1823Y-4.863
X4.1843Y-4.9591
X4.1882Y-4.4445
X4.1902Y-4.1445
X4.1984Y-5.1323
X4.2028Y-4.0075
X4.2071Y-5.2106
X4.213Y-4.8945
X4.2154Y-5.0748
X4.2252Y-4.8075
X4.2339Y-4.6366
X4.2346Y-5.0146
X4.2425Y-5.1406
X4.2457Y-4.2264
X4.2465Y-4.5283
X4.2465Y-4.9287
X4.248Y-4.387
X4.252Y-1.9685
X4.252Y-2.1654
X4.252Y-2.3622
X4.252Y-2.5591
X4.2531Y-4.0783
X4.2768Y-4.8295
X4.2772Y-5.0587
X4.2811Y-3.9264
X4.2969Y-4.7917
X4.2969Y-5.2126
X4.2976Y-4.9783
X4.2996Y-3.9933
X4.2996Y-4.4594
X4.2996Y-4.7173
X4.3012Y-4.1528
X4.3016Y-5.2996
X4.3024Y-4.8705
X4.3276Y-4.648
X4.3299Y-4.5839
X4.3362Y-4.3016
X4.337Y-5.0181
X4.3394Y-4.7559
X4.3459Y-5.0924
X4.3465Y-3.8598
X4.35Y-4.8634
X4.3504Y-2.2441
X4.3504Y-2.4606
X4.3504Y-2.6476
X4.3504Y-4.8193
X4.3547Y-3.9535
X4.3547Y-4.0886
X4.3555Y-4.2256
X4.3567Y-4.3815
X4.3579Y-4.528
X4.3598Y-5.3035
X4.3602Y-1.8504
X4.3602Y-2.0571
X4.3634Y-5.3689
X4.3654Y-5.0755
X4.3657Y-4.7921
X4.3722Y-4.7474
X4.3764Y-3.8815
X4.378Y-4.9661
X4.3882Y-4.7055
X4.3929Y-4.8571
X4.4031Y-3.9583
X4.4047Y-4.1339
X4.4051Y-4.5043
X4.4063Y-4.0469
X4.4067Y-4.2343
X4.4071Y-4.3268
X4.4083Y-4.4047
X4.4091Y-4.5831
X4.4106Y-5.2949
X4.411Y-4.6437
X4.4134Y-5.3559
X4.4134Y-5.4213
X4.4185Y-3.8394
X4.4185Y-5.2157
X4.4224Y-4.9831
X4.4268Y-5.1059
X4.435Y-4.5709
X4.4472Y-5.0161
X4.4488Y-1.7717
X4.4488Y-1.9685
X4.4488Y-2.1654
X4.4488Y-2.3622
X4.4488Y-2.5591
X4.4488Y-2.7559
X4.452Y-4.9614
X4.4587Y-5.1382
X4.4591Y-3.7937
X4.4669Y-3.8831
X4.4669Y-4.6354
X4.4717Y-4.5685
X4.474Y-3.9555
X4.4744Y-4.4854
X4.4748Y-4.2189
X4.4748Y-4.3047
X4.4748Y-4.387
X4.4752Y-4.126
X4.4787Y-5.0697
X4.4866Y-4.0374
X4.4874Y-5.1669
X4.5Y-3.7677
X4.501Y-5.0096
X4.5035Y-3.8516
X4.5043Y-4.837
X4.5059Y-6.0039
X4.5079Y-5.5197
X4.5362Y-3.8024
X4.5366Y-4.8681
X4.5396Y-6.0433
X4.5417Y-4.1476
X4.5421Y-4.0709
X4.5469Y-3.9146
X4.55Y-5.5154
X4.5547Y-5.563
X4.5638Y-4.8633
X4.5681Y-4.0059
X4.5685Y-4.902
X4.5744Y-6.0193
X4.5787Y-3.7756
X4.5787Y-3.8378
X4.5831Y-5.2303
X4.5854Y-5.2717
X4.5858Y-5.4642
X4.5866Y-5.3118
X4.5878Y-5.4114
X4.5898Y-5.5307
X4.5942Y-6.0959
X4.5949Y-5.5965
X4.5965Y-6.0512
X4.6Y-4.9346
X4.6034Y-3.8125
X4.6083Y-6.0059
X4.6098Y-5.0264
X4.6118Y-4.0807
X4.6181Y-3.9191
X4.6262Y-3.8804
X4.6299Y-6.128
X4.6319Y-3.9524
X4.6417Y-5.6496
X4.6417Y-6.0827
X4.6419Y-6.0416
X4.6472Y-5.0748
X4.6476Y-5.5992
X4.6512Y-3.5934
X4.6539Y-4.9335
X4.6605Y-6.1571
X4.661Y-3.953
X4.6616Y-3.7955
X4.6654Y-6.0039
X4.6724Y-3.611
X4.6732Y-3.6575
X4.6732Y-3.685
X4.6732Y-3.7126
X4.6768Y-4.0118
X4.6791Y-5.689
X4.6811Y-6.0453
X4.6823Y-3.5577
X4.6823Y-6.0915
X4.6839Y-3.8539
X4.6843Y-3.8248
X4.687Y-6.1358
X4.6894Y-5.4004
X4.6908Y-5.3338
X4.6909Y-5.4268
X4.6913Y-5.2657
X4.6913Y-5.2992
X4.6915Y-5.2254
X4.6929Y-3.7441
X4.6949Y-6.185
X4.698Y-5.0031
X4.7063Y-3.8244
X4.7067Y-5.0974
X4.7067Y-5.1197
X4.7087Y-1.6299
X4.7094Y-3.8539
X4.7126Y-3.7205
X4.7134Y-5.589
X4.7134Y-5.7244
X4.7146Y-6.0039
X4.7154Y-5.4949
X4.7165Y-3.689
X4.7165Y-6.0472
X4.7193Y-3.972
X4.7205Y-3.6496
X4.7205Y-6.1142
X4.7264Y-6.1772
X4.7276Y-5.6862
X4.7283Y-6.2224
X4.7334Y-5.0863
X4.7402Y-3.6772
X4.7402Y-3.7087
X4.7402Y-5.9724
X4.744Y-6.1489
X4.7453Y-5.5441
X4.7476Y-5.3079
X4.7484Y-5.2343
X4.7496Y-5.378
X4.7516Y-5.4382
X4.752Y-5.7244
X4.752Y-5.9528
X4.7537Y-6.2508
X4.7598Y-6.1929
X4.7618Y-5.0866
X4.7657Y-5.9724
X4.7661Y-5.4925
X4.7717Y-3.6772
X4.7717Y-3.7087
X4.7736Y-3.4729
X4.7776Y-5.5858
X4.7776Y-5.9528
X4.7799Y-5.2744
X4.7854Y-6.1693
X4.7854Y-6.2264
X4.787Y-5.6909
X4.7874Y-5.1181
X4.7894Y-6.2913
X4.7898Y-5.348
X4.7913Y-5.9724
X4.8031Y-5.9528
X4.8043Y-3.648
X4.8071Y-1.6299
X4.8071Y-5.0866
X4.8075Y-5.4354
X4.8079Y-5.5425
X4.8091Y-6.2638
X4.8102Y-5.4799
X4.813Y-5.3043
X4.813Y-6.189
X4.8169Y-5.9724
X4.8169Y-6.2126
X4.8169Y-6.2362
X4.8189Y-3.6161
X4.8209Y-5.2362
X4.8217Y-5.7307
X4.8228Y-3.4921
X4.8228Y-3.5315
X4.8228Y-3.5709
X4.8287Y-5.9528
X4.8299Y-3.8571
X4.8299Y-3.9248
X4.8307Y-1.752
X4.8386Y-5.1181
X4.8386Y-6.2224
X4.8386Y-6.1995
X4.8425Y-3.4724
X4.8425Y-3.5118
X4.8425Y-3.5512
X4.8425Y-3.5906
X4.8425Y-5.9724
X4.8445Y-3.6461
X4.8453Y-5.3984
X4.8453Y-5.589
X4.8457Y-3.811
X4.8465Y-6.3445
X4.8504Y-5.5339
X4.8508Y-5.3445
X4.8543Y-5.9528
X4.8567Y-5.4874
X4.8579Y-5.2713
X4.8602Y-6.185
X4.8602Y-6.2106
X4.8602Y-6.2362
X4.8622Y-6.2638
X4.8626Y-3.8949
X4.8681Y-3.8429
X4.8681Y-5.9724
X4.8819Y-3.4724
X4.8819Y-3.5118
X4.8819Y-3.5512
X4.8819Y-3.5906
X4.8846Y-6.305
X4.8858Y-5.0866
X4.8906Y-5.3874
X4.8921Y-3.6531
X4.8933Y-3.9264
X4.8945Y-5.5724
X4.8965Y-5.4512
X4.8984Y-3.8732
X4.9016Y-1.7362
X4.9016Y-3.4921
X4.9016Y-3.5315
X4.9016Y-3.5709
X4.9016Y-5.3091
X4.9028Y-3.698
X4.9028Y-5.2346
X4.9031Y-5.5339
X4.9042Y-6.4014
X4.9044Y-5.6948
X4.9071Y-3.8106
X4.9094Y-5.7426
X4.9177Y-3.9587
X4.9248Y-3.8445
X4.9291Y-5.1181
X4.9354Y-5.4008
X4.9366Y-3.4843
X4.9366Y-3.5299
X4.9382Y-3.8906
X4.9409Y-1.6339
X4.9409Y-1.7028
X4.9449Y-5.3413
X4.9465Y-5.2665
X4.9512Y-5.5031
X4.9531Y-5.452
X4.9543Y-3.5496
X4.9591Y-5.587
X4.9602Y-3.5118
X4.9606Y-1.878
X4.9625Y-5.6959
X4.9626Y-3.8681
X4.963Y-3.9571
X4.9689Y-3.4839
X4.9726Y-6.3962
X4.974Y-3.8094
X4.9764Y-3.5291
X4.9764Y-5.0866
X4.9799Y-5.7264
X4.9803Y-1.748
X4.9846Y-5.3862
X4.9862Y-3.5531
X4.9882Y-5.3091
X4.9894Y-3.5063
X4.9894Y-5.2323
X4.9898Y-3.7776
X4.9961Y-5.5484
X4.9983Y-6.4998
X4.9988Y-3.6146
X5.0Y-1.6634
X5.0047Y-5.4768
X5.0073Y-5.7312
X5.0079Y-3.8441
X5.0098Y-5.428
X5.0106Y-3.4858
X5.0106Y-3.5327
X5.0161Y-3.9563
X5.0173Y-5.3504
X5.0217Y-3.8831
X5.022Y-5.2689
X5.0236Y-5.1181
X5.0307Y-3.5067
X5.0311Y-3.5921
X5.0315Y-6.1004
X5.0327Y-3.6217
X5.0346Y-5.5882
X5.0362Y-5.5205
X5.037Y-3.6571
X5.0488Y-3.5327
X5.0496Y-3.5685
X5.0551Y-5.4594
X5.0606Y-5.3878
X5.061Y-5.3083
X5.0622Y-3.8531
X5.0661Y-3.6291
X5.0661Y-5.2346
X5.0661Y-5.6909
X5.0669Y-3.5929
X5.0669Y-5.0866
X5.0677Y-3.9228
X5.0689Y-1.6339
X5.0689Y-1.7028
X5.0701Y-3.6638
X5.0713Y-3.5484
X5.0728Y-6.1024
X5.0728Y-6.1398
X5.0732Y-5.5571
X5.0827Y-1.752
X5.0827Y-1.874
X5.0858Y-5.7157
X5.0866Y-2.0079
X5.0898Y-5.4874
X5.0933Y-5.4217
X5.0937Y-3.5732
X5.0937Y-3.6465
X5.0941Y-6.4087
X5.0945Y-2.189
X5.0945Y-2.3937
X5.0945Y-2.6102
X5.0945Y-2.8189
X5.0945Y-3.0197
X5.0945Y-5.3472
X5.0969Y-3.6138
X5.0969Y-5.2665
X5.1016Y-3.8185
X5.1028Y-3.7512
X5.1118Y-5.7417
X5.1142Y-5.0866
X5.1142Y-6.189
X5.1169Y-5.5252
X5.1173Y-3.7169
X5.1175Y-5.7692
X5.1185Y-3.5937
X5.1201Y-3.8902
X5.1201Y-6.1378
X5.1224Y-3.6689
X5.1236Y-3.6382
X5.124Y-6.0965
X5.126Y-5.385
X5.1276Y-5.4547
X5.128Y-5.2327
X5.128Y-5.6898
X5.1299Y-5.3079
X5.1307Y-5.8602
X5.1339Y-5.1181
X5.1441Y-3.8433
X5.1445Y-5.5402
X5.1472Y-5.7717
X5.1483Y-6.0331
X5.1484Y-3.6217
X5.1484Y-5.887
X5.1492Y-4.0335
X5.1492Y-4.9063
X5.1496Y-4.7591
X5.1504Y-4.6067
X5.1508Y-4.6878
X5.1512Y-4.8276
X5.152Y-4.4496
X5.1539Y-4.1677
X5.1539Y-4.3008
X5.1539Y-4.5268
X5.1575Y-2.8957
X5.1587Y-3.6524
X5.1624Y-5.6889
X5.1631Y-6.2245
X5.1634Y-2.6831
X5.1634Y-4.9827
X5.1634Y-5.0988
X5.1638Y-5.5594
X5.1654Y-3.0256
X5.1697Y-6.163
X5.1698Y-6.0841
X5.1744Y-3.724
X5.178Y-3.8862
X5.1811Y-2.0787
X5.1811Y-2.2835
X5.1854Y-3.8453
X5.1862Y-4.3614
X5.1874Y-5.0748
X5.189Y-2.4882
X5.1925Y-5.4543
X5.1933Y-5.3413
X5.1933Y-5.5043
X5.1933Y-5.9146
X5.1941Y-5.3957
X5.1945Y-5.2291
X5.1949Y-4.9437
X5.1957Y-3.6697
X5.1961Y-5.1083
X5.1961Y-5.2823
X5.2079Y-5.937
X5.2122Y-4.5276
X5.2124Y-5.8291
X5.2126Y-1.7441
X5.2126Y-4.2276
X5.213Y-4.6067
X5.2134Y-4.6854
X5.2138Y-5.0075
X5.215Y-5.7484
X5.2154Y-4.7559
X5.2154Y-6.0441
X5.2154Y-4.906
X5.2157Y-4.1012
X5.2157Y-5.7913
X5.2165Y-1.878
X5.2165Y-6.0843
X5.2169Y-4.8272
X5.2169Y-5.9744
X5.2181Y-5.9056
X5.2209Y-3.8425
X5.2224Y-2.939
X5.2255Y-5.6063
X5.2259Y-5.6572
X5.2264Y-2.7618
X5.2283Y-3.1555
X5.2311Y-3.7232
X5.2327Y-4.4276
X5.2331Y-5.8587
X5.2343Y-4.0252
X5.2362Y-3.6935
X5.2402Y-1.6732
X5.2441Y-2.6102
X5.2575Y-4.2965
X5.2583Y-5.8244
X5.2594Y-5.6057
X5.2598Y-2.1811
X5.2613Y-6.0418
X5.2626Y-4.7394
X5.2626Y-4.8522
X5.2626Y-4.9839
X5.2627Y-4.5882
X5.263Y-5.9061
X5.2635Y-3.3883
X5.2638Y-2.3898
X5.2646Y-5.9902
X5.2649Y-3.3062
X5.2649Y-3.3479
X5.265Y-5.6528
X5.2654Y-3.7547
X5.2657Y-3.2677
X5.2677Y-2.0039
X5.2681Y-3.85
X5.2697Y-3.822
X5.2717Y-4.4803
X5.2764Y-4.0524
X5.2764Y-4.1665
X5.2839Y-3.9976
X5.2841Y-5.7731
X5.285Y-3.9429
X5.2871Y-3.412
X5.2899Y-3.373
X5.2913Y-3.3326
X5.2925Y-4.365
X5.2925Y-5.5756
X5.2927Y-3.2923
X5.3032Y-6.0959
X5.3035Y-3.785
X5.3045Y-5.0744
X5.3046Y-4.7709
X5.3046Y-4.8622
X5.3046Y-4.9513
X5.3046Y-5.9954
X5.3069Y-5.9323
X5.3105Y-5.3793
X5.3142Y-3.9713
X5.315Y-3.3145
X5.315Y-3.3563
X5.315Y-3.3981
X5.315Y-4.5228
X5.3154Y-4.6496
X5.3159Y-5.2577
X5.3232Y-4.0933
X5.3236Y-4.2252
X5.3266Y-5.4
X5.3278Y-5.5451
X5.3282Y-5.3586
X5.3335Y-4.5717
X5.3364Y-5.5169
X5.3467Y-4.9088
X5.3469Y-4.8071
X5.3469Y-5.0766
X5.3469Y-5.4157
X5.347Y-4.6867
X5.347Y-5.0175
X5.3489Y-5.3429
X5.3496Y-3.8343
X5.35Y-3.8898
X5.3515Y-6.1547
X5.3516Y-4.0039
X5.3528Y-5.9464
X5.3531Y-5.2278
X5.3552Y-6.0632
X5.3555Y-4.3953
X5.3606Y-4.3059
X5.3609Y-5.8919
X5.3626Y-4.6051
X5.3641Y-6.0286
X5.3642Y-3.8638
X5.365Y-5.6048
X5.367Y-5.6459
X5.3701Y-2.0945
X5.3701Y-2.2677
X5.3701Y-2.4843
X5.3701Y-2.6083
X5.3701Y-5.7059
X5.372Y-5.5446
X5.3736Y-4.1382
X5.3744Y-3.8972
X5.3748Y-4.5358
X5.3799Y-4.2402
X5.3854Y-3.924
X5.3894Y-5.2713
X5.3897Y-5.1211
X5.39Y-5.0569
X5.3902Y-3.8748
X5.391Y-4.9778
X5.3937Y-2.3819
X5.3937Y-4.4402
X5.3941Y-4.8584
X5.3945Y-5.8834
X5.3966Y-5.498
X5.397Y-5.4329
X5.3972Y-4.3394
X5.4Y-3.9
X5.4083Y-3.9346
X5.4103Y-5.8509
X5.4114Y-5.0999
X5.4177Y-4.0843
X5.419Y-5.5482
X5.4252Y-3.9634
X5.4252Y-5.2378
X5.4256Y-3.9114
X5.4261Y-5.668
X5.4265Y-6.0795
X5.4271Y-5.7522
X5.4313Y-4.9667
X5.4327Y-4.5394
X5.4375Y-5.6106
X5.4378Y-4.4378
X5.4382Y-3.9346
X5.4384Y-4.9338
X5.4422Y-5.4533
X5.4431Y-4.9881
X5.4445Y-5.322
X5.4459Y-5.4989
X5.4472Y-4.3386
X5.4476Y-4.2358
X5.4488Y-3.9756
X5.4496Y-5.8126
X5.4528Y-2.185
X5.4565Y-5.9852
X5.4606Y-2.0079
X5.4629Y-4.6649
X5.463Y-4.002
X5.4631Y-5.0481
X5.4642Y-3.9484
X5.4682Y-4.8963
X5.4749Y-5.5265
X5.478Y-3.9724
X5.4823Y-5.1004
X5.485Y-4.5201
X5.4854Y-4.5893
X5.4863Y-5.5499
X5.489Y-4.0142
X5.4894Y-5.6319
X5.4898Y-4.1508
X5.4909Y-5.7866
X5.4937Y-5.2717
X5.4961Y-1.8976
X5.4961Y-2.8504
X5.4961Y-2.9606
X5.4961Y-3.2874
X5.5Y-3.1299
X5.5008Y-5.4322
X5.5034Y-5.9613
X5.504Y-4.9229
X5.5055Y-4.0409
X5.5059Y-2.4685
X5.5063Y-3.9898
X5.5065Y-5.4879
X5.5074Y-5.3225
X5.5079Y-2.3504
X5.5098Y-5.9201
X5.51Y-4.8561
X5.5189Y-4.3709
X5.5197Y-4.0134
X5.5267Y-4.568
X5.5268Y-4.9771
X5.5276Y-2.252
X5.5291Y-4.0547
X5.5315Y-1.7874
X5.5323Y-4.2748
X5.5339Y-5.8921
X5.5362Y-5.228
X5.5421Y-5.6089
X5.5437Y-4.0846
X5.5449Y-5.9224
X5.5449Y-5.9598
X5.5453Y-2.4843
X5.5453Y-2.5177
X5.5453Y-5.0346
X5.5459Y-5.4579
X5.548Y-4.0303
X5.5567Y-5.1211
X5.5571Y-4.4413
X5.5579Y-4.0579
X5.5583Y-5.0941
X5.5591Y-2.0866
X5.5624Y-5.2674
X5.565Y-5.6576
X5.5709Y-4.0976
X5.5713Y-5.9307
X5.5724Y-5.324
X5.5743Y-5.554
X5.5748Y-2.4567
X5.5748Y-2.4921
X5.5748Y-2.5276
X5.5748Y-4.3138
X5.5791Y-4.2343
X5.5796Y-4.8795
X5.5824Y-5.7197
X5.5866Y-3.378
X5.5874Y-4.0705
X5.5886Y-4.1252
X5.5902Y-4.976
X5.5914Y-4.6951
X5.5921Y-4.7761
X5.5933Y-5.8453
X5.5965Y-4.9071
X5.598Y-5.8732
X5.5984Y-2.6614
X5.5996Y-4.098
X5.6006Y-5.2292
X5.6043Y-2.4272
X5.6043Y-2.4646
X5.6043Y-2.498
X5.6044Y-5.5174
X5.6046Y-5.7918
X5.6063Y-3.2402
X5.608Y-2.7072
X5.6118Y-5.5898
X5.6142Y-4.1378
X5.6142Y-5.6803
X5.6161Y-2.5787
X5.6177Y-5.3165
X5.62Y-5.6395
X5.6209Y-4.8723
X5.6248Y-4.1075
X5.626Y-3.1102
X5.6268Y-5.2681
X5.6272Y-5.3705
X5.6276Y-4.3677
X5.6276Y-5.028
X5.628Y-4.1638
X5.6299Y-1.8858
X5.6299Y-2.0118
X5.6339Y-2.189
X5.6339Y-2.437
X5.6339Y-2.4685
X5.635Y-4.9083
X5.6378Y-2.252
X5.6421Y-5.1197
X5.6428Y-2.6724
X5.6429Y-4.1366
X5.6461Y-2.5713
X5.6483Y-5.8513
X5.6488Y-4.7827
X5.6492Y-5.3398
X5.6516Y-4.1748
X5.6566Y-5.5562
X5.6572Y-5.6354
X5.6575Y-5.7892
X5.6587Y-5.2815
X5.661Y-5.1012
X5.6614Y-2.6235
X5.6633Y-5.7314
X5.6642Y-4.3169
X5.6665Y-4.1453
X5.6681Y-5.2272
X5.6701Y-4.1913
X5.6748Y-2.5638
X5.6807Y-4.8594
X5.6811Y-3.4685
X5.6819Y-5.3142
X5.6843Y-4.9539
X5.6865Y-5.6013
X5.6957Y-2.5854
X5.7008Y-1.8976
X5.7008Y-2.0315
X5.7008Y-2.1811
X5.7008Y-2.3465
X5.7047Y-5.3346
X5.7047Y-5.3661
X5.7071Y-2.098
X5.7071Y-2.2661
X5.7085Y-4.3585
X5.7107Y-5.794
X5.7147Y-5.6634
X5.7166Y-5.7379
X5.7217Y-1.9654
X5.7232Y-5.2106
X5.7256Y-5.5682
X5.7269Y-5.184
X5.7319Y-4.7559
X5.7323Y-4.2205
X5.7323Y-5.3189
X5.7323Y-5.3465
X5.7392Y-5.6172
X5.7433Y-2.2138
X5.7442Y-5.7611
X5.7457Y-4.8949
X5.7468Y-5.3836
X5.7472Y-2.3102
X5.748Y-5.1414
X5.748Y-3.3819
X5.748Y-4.2402
X5.7504Y-4.8126
X5.7516Y-2.1272
X5.7524Y-5.0776
X5.7524Y-5.1828
X5.7559Y-2.4252
X5.7567Y-5.2398
X5.7602Y-2.5071
X5.7638Y-3.2402
X5.7701Y-2.0484
X5.7717Y-4.2598
X5.7722Y-5.7118
X5.7724Y-1.9748
X5.7744Y-2.4681
X5.7746Y-4.2923
X5.7756Y-2.3453
X5.7765Y-5.428
X5.7803Y-5.2098
X5.7807Y-2.1827
X5.782Y-2.5332
X5.7848Y-5.608
X5.7853Y-5.0445
X5.7854Y-4.7122
X5.7874Y-2.2677
X5.7953Y-2.126
X5.7953Y-3.5906
X5.8047Y-4.8366
X5.8051Y-2.4209
X5.8075Y-2.5016
X5.8102Y-4.7677
X5.811Y-5.1001
X5.8142Y-2.3224
X5.815Y-5.0149
X5.8228Y-4.6705
X5.8228Y-5.1807
X5.8264Y-5.3437
X5.8268Y-2.3701
X5.8272Y-2.0823
X5.829Y-5.0819
X5.8346Y-2.0315
X5.8365Y-5.6613
X5.84Y-5.3984
X5.8402Y-2.1693
X5.8445Y-2.2587
X5.8504Y-2.4724
X5.8543Y-5.2043
X5.8568Y-5.2295
X5.8606Y-2.4177
X5.8615Y-5.0557
X5.8712Y-3.9236
X5.8724Y-4.7858
X5.8727Y-5.5259
X5.874Y-2.2047
X5.874Y-2.3071
X5.8752Y-5.3416
X5.8763Y-5.612
X5.8764Y-4.6772
X5.8774Y-5.5619
X5.8787Y-5.1839
X5.8791Y-5.2087
X5.8799Y-2.3555
X5.8858Y-2.1126
X5.8937Y-3.5315
X5.8976Y-3.378
X5.8985Y-5.2391
X5.9016Y-3.6969
X5.9094Y-3.8228
X5.9111Y-5.5954
X5.9134Y-2.4016
X5.9139Y-4.5088
X5.9139Y-4.798
X5.9139Y-4.8299
X5.9139Y-4.861
X5.9139Y-4.8921
X5.935Y-5.4287
X5.9556Y-4.9654
X5.9587Y-5.0516
X5.9606Y-2.1732
X5.9615Y-5.255
X5.9685Y-2.3386
X5.9835Y-5.372
X5.9843Y-3.7717
X5.9984Y-5.1177
X6.002Y-5.3915
X6.0037Y-4.4853
X6.0054Y-5.2117
X6.0061Y-4.9086
X6.0063Y-4.5535
X6.0074Y-4.6607
X6.0091Y-4.7802
X6.0228Y-4.9827
X6.0236Y-2.2598
X6.0354Y-3.5197
X6.0354Y-3.6772
X6.0372Y-5.1818
X6.0394Y-3.8583
X6.0403Y-4.5188
X6.0417Y-4.5825
X6.0481Y-4.8251
X6.0538Y-4.642
X6.0589Y-5.2266
X6.0664Y-4.5449
X6.0685Y-4.5764
X6.0748Y-4.0354
X6.082Y-5.2058
X6.0835Y-4.9213
X6.0839Y-4.7148
X6.087Y-5.1173
X6.0878Y-4.5963
X6.0878Y-5.0268
X6.0887Y-4.834
X6.1024Y-4.0
X6.11Y-5.182
X6.1106Y-5.2865
X6.1215Y-5.2051
X6.1353Y-4.6081
X6.137Y-4.7902
X6.1375Y-5.1203
X6.1398Y-4.8705
X6.1421Y-5.3646
X6.1441Y-4.9783
X6.145Y-5.1813
X6.1468Y-4.7037
X6.1496Y-3.9606
X6.153Y-5.0607
X6.1533Y-4.6326
X6.1654Y-3.8228
X6.1811Y-3.6614
X6.1857Y-5.1169
X6.1976Y-4.7587
X6.1979Y-4.6724
X6.198Y-4.8118
X6.2094Y-4.9091
X6.2202Y-4.7807
X6.2285Y-5.066
X6.2331Y-5.274
X6.2473Y-4.7225
X6.2476Y-4.7697
X6.2591Y-4.8587
X6.2612Y-4.0379
X6.2677Y-4.2008
X6.2756Y-3.9646
X6.2775Y-4.94
X6.2953Y-4.7236
X6.2992Y-4.8197
X6.304Y-4.0764
X6.311Y-4.1614
X6.3189Y-3.7992
X6.3228Y-4.2598
X6.3295Y-5.1772
X6.3311Y-4.9093
X6.3426Y-4.1317
X6.3543Y-4.0394
X6.3622Y-4.7551
X6.3643Y-4.9695
X6.3701Y-3.9488
X6.3701Y-4.2087
X6.3878Y-4.1457
X6.3941Y-4.8413
X6.4112Y-5.0577
X6.4173Y-4.2441
X6.4173Y-5.089
X6.4213Y-4.1024
X6.4313Y-5.0153
X6.4346Y-4.7532
X6.4488Y-3.9331
X6.4488Y-4.2008
X6.4557Y-4.9687
X6.4681Y-4.871
X6.4685Y-4.311
X6.4713Y-4.9308
X6.4764Y-4.0472
X6.4885Y-4.7507
X6.4921Y-4.1732
X6.5051Y-4.5358
X6.5264Y-4.6677
X6.5287Y-4.978
X6.5315Y-4.5669
X6.5354Y-4.4843
X6.5394Y-4.126
X6.5394Y-4.3858
X6.5451Y-4.3014
X6.5787Y-4.0551
X6.5787Y-4.4291
X6.5788Y-4.7652
X6.5823Y-4.6539
X6.5827Y-4.5079
X6.5844Y-4.6101
X6.6073Y-4.461
X6.6157Y-4.8909
X6.6461Y-4.4028
X6.6594Y-4.3453
X6.6598Y-4.2902
X6.6878Y-4.2972
X6.7016Y-4.8047
X6.7075Y-4.4465
X6.7134Y-4.3854
X6.7184Y-4.2313
X6.7402Y-4.4909
X6.7406Y-4.5622
X6.7453Y-4.3488
X6.7795Y-4.7256
X6.7815Y-4.6752
X6.798Y-4.45
X6.8067Y-4.626
X6.8161Y-4.3587
X6.8327Y-4.6732
X6.8583Y-4.5339
X6.8917Y-4.4354
X6.8969Y-4.6024
X6.9512Y-4.5406
X6.9768Y-4.4835
T2
X4.5295Y-1.785
X4.5572Y-1.7182
X4.5572Y-1.8519
X4.624Y-1.6906
X4.624Y-1.8795
X4.6908Y-1.7182
X4.6908Y-1.8519
X4.7185Y-1.785
X5.2809Y-1.7849
X5.3086Y-1.7181
X5.3086Y-1.8517
X5.3754Y-1.6904
X5.3754Y-1.8794
X5.4422Y-1.7181
X5.4422Y-1.8517
X5.4699Y-1.7849
T4
X3.2589Y-4.5908
X3.3981Y-4.73
X3.4176Y-4.5713
X3.6887Y-4.5689
X3.7444Y-4.5132
X4.8469Y-6.0644
X4.8823Y-6.0291
X4.8823Y-6.0998
X4.9176Y-6.0644
X4.9176Y-6.1352
X4.953Y-6.0998
X4.953Y-6.1705
X4.9883Y-6.1352
X4.9883Y-6.2059
X5.0237Y-6.1705
X5.0237Y-6.2412
X5.0591Y-6.2059
X5.0591Y-6.2766
X5.0944Y-6.2412
X6.2556Y-4.4632
X6.3113Y-4.4075
T5
X5.5547Y-4.6335
X5.5547Y-4.7335
X5.5547Y-4.8335
X5.5547Y-4.9335
X5.8547Y-4.6335
X5.8547Y-4.7335
X5.8547Y-4.8335
X5.8547Y-4.9335
T6
X3.526Y-4.5954
X3.526Y-4.3811
X3.5956Y-4.665
X3.5956Y-4.3115
X5.045Y-6.024
X5.1146Y-5.9544
X6.4043Y-4.6649
X6.4045Y-4.3114
X6.4739Y-4.5953
X6.4741Y-4.381
T7
X4.2531Y-4.298
X5.4134Y-4.1882
X5.4134Y-4.2882
X5.4134Y-4.3882
X5.4134Y-4.4882
X5.4134Y-4.5882
X5.4134Y-4.6882
X5.4134Y-4.7882
T8
X4.872Y-1.6693
X5.128Y-1.6693
T9
X4.624Y-1.785
X5.3754Y-1.7849
T3
G00X5.7032Y-5.4319
M15
G01X5.7199Y-5.4486
M16
G05
G00X5.809Y-5.5377
M15
G01X5.8257Y-5.5544
M16
G05
G00X5.9437Y-5.1914
M15
G01X5.9605Y-5.2081
M16
G05
G00X6.0495Y-5.2972
M15
G01X6.0662Y-5.3139
M16
G05
M30
