%TF.GenerationSoftware,KiCad,Pcbnew,7.0.11*%
%TF.CreationDate,2025-06-24T23:15:39+09:00*%
%TF.ProjectId,Drive,44726976-652e-46b6-9963-61645f706362,rev?*%
%TF.SameCoordinates,Original*%
%TF.FileFunction,Soldermask,Top*%
%TF.FilePolarity,Negative*%
%FSLAX46Y46*%
G04 Gerber Fmt 4.6, Leading zero omitted, Abs format (unit mm)*
G04 Created by KiCad (PCBNEW 7.0.11) date 2025-06-24 23:15:39*
%MOMM*%
%LPD*%
G01*
G04 APERTURE LIST*
G04 Aperture macros list*
%AMRoundRect*
0 Rectangle with rounded corners*
0 $1 Rounding radius*
0 $2 $3 $4 $5 $6 $7 $8 $9 X,Y pos of 4 corners*
0 Add a 4 corners polygon primitive as box body*
4,1,4,$2,$3,$4,$5,$6,$7,$8,$9,$2,$3,0*
0 Add four circle primitives for the rounded corners*
1,1,$1+$1,$2,$3*
1,1,$1+$1,$4,$5*
1,1,$1+$1,$6,$7*
1,1,$1+$1,$8,$9*
0 Add four rect primitives between the rounded corners*
20,1,$1+$1,$2,$3,$4,$5,0*
20,1,$1+$1,$4,$5,$6,$7,0*
20,1,$1+$1,$6,$7,$8,$9,0*
20,1,$1+$1,$8,$9,$2,$3,0*%
%AMHorizOval*
0 Thick line with rounded ends*
0 $1 width*
0 $2 $3 position (X,Y) of the first rounded end (center of the circle)*
0 $4 $5 position (X,Y) of the second rounded end (center of the circle)*
0 Add line between two ends*
20,1,$1,$2,$3,$4,$5,0*
0 Add two circle primitives to create the rounded ends*
1,1,$1,$2,$3*
1,1,$1,$4,$5*%
%AMRotRect*
0 Rectangle, with rotation*
0 The origin of the aperture is its center*
0 $1 length*
0 $2 width*
0 $3 Rotation angle, in degrees counterclockwise*
0 Add horizontal line*
21,1,$1,$2,0,0,$3*%
G04 Aperture macros list end*
%ADD10R,0.620000X0.575000*%
%ADD11RoundRect,0.175000X0.176777X-0.424264X0.424264X-0.176777X-0.176777X0.424264X-0.424264X0.176777X0*%
%ADD12RoundRect,0.190000X-0.155563X0.424264X-0.424264X0.155563X0.155563X-0.424264X0.424264X-0.155563X0*%
%ADD13RoundRect,0.200000X-0.141421X0.424264X-0.424264X0.141421X0.141421X-0.424264X0.424264X-0.141421X0*%
%ADD14RoundRect,0.175000X-0.176777X0.424264X-0.424264X0.176777X0.176777X-0.424264X0.424264X-0.176777X0*%
%ADD15RoundRect,0.190000X0.155563X-0.424264X0.424264X-0.155563X-0.155563X0.424264X-0.424264X0.155563X0*%
%ADD16RoundRect,0.200000X0.141421X-0.424264X0.424264X-0.141421X-0.141421X0.424264X-0.424264X0.141421X0*%
%ADD17HorizOval,1.100000X-0.212132X0.212132X0.212132X-0.212132X0*%
%ADD18RoundRect,0.200000X-0.459619X-0.176777X-0.176777X-0.459619X0.459619X0.176777X0.176777X0.459619X0*%
%ADD19RoundRect,0.250001X-1.449567X-0.318198X-0.318198X-1.449567X1.449567X0.318198X0.318198X1.449567X0*%
%ADD20RoundRect,0.250000X0.671751X1.449569X-1.449569X-0.671751X-0.671751X-1.449569X1.449569X0.671751X0*%
%ADD21RoundRect,0.200000X-0.176777X0.459619X-0.459619X0.176777X0.176777X-0.459619X0.459619X-0.176777X0*%
%ADD22RoundRect,0.250001X-0.318198X1.449567X-1.449567X0.318198X0.318198X-1.449567X1.449567X-0.318198X0*%
%ADD23RoundRect,0.237500X-0.035355X-0.371231X0.371231X0.035355X0.035355X0.371231X-0.371231X-0.035355X0*%
%ADD24RoundRect,0.237500X0.035355X0.371231X-0.371231X-0.035355X-0.035355X-0.371231X0.371231X0.035355X0*%
%ADD25RotRect,1.200000X1.400000X315.000000*%
%ADD26C,1.524000*%
%ADD27C,0.800000*%
%ADD28C,6.400000*%
%ADD29RotRect,1.050000X0.650000X135.000000*%
%ADD30RoundRect,0.250000X-1.449569X0.671751X0.671751X-1.449569X1.449569X-0.671751X-0.671751X1.449569X0*%
%ADD31C,1.200000*%
%ADD32RoundRect,0.250000X-0.550000X1.500000X-0.550000X-1.500000X0.550000X-1.500000X0.550000X1.500000X0*%
%ADD33C,2.000000*%
%ADD34RoundRect,0.250000X1.500000X0.550000X-1.500000X0.550000X-1.500000X-0.550000X1.500000X-0.550000X0*%
%ADD35RotRect,1.600000X0.760000X45.000000*%
%ADD36RotRect,1.500000X1.500000X45.000000*%
%ADD37RoundRect,0.250000X0.353553X0.000000X0.000000X0.353553X-0.353553X0.000000X0.000000X-0.353553X0*%
%ADD38R,0.575000X0.620000*%
%ADD39RotRect,1.500000X1.500000X315.000000*%
%ADD40RoundRect,0.350000X0.000000X0.494975X-0.494975X0.000000X0.000000X-0.494975X0.494975X0.000000X0*%
%ADD41C,1.400000*%
%ADD42RoundRect,0.250000X-0.053033X0.901561X-0.901561X0.053033X0.053033X-0.901561X0.901561X-0.053033X0*%
%ADD43HorizOval,1.700000X-0.053033X0.053033X0.053033X-0.053033X0*%
%ADD44RoundRect,0.250000X0.053033X-0.901561X0.901561X-0.053033X-0.053033X0.901561X-0.901561X0.053033X0*%
%ADD45RoundRect,0.250000X0.901561X0.053033X0.053033X0.901561X-0.901561X-0.053033X-0.053033X-0.901561X0*%
%ADD46HorizOval,1.700000X0.053033X0.053033X-0.053033X-0.053033X0*%
%ADD47R,2.250000X2.250000*%
%ADD48C,2.250000*%
%ADD49RotRect,1.000000X1.000000X135.000000*%
%ADD50C,1.000000*%
%ADD51RoundRect,0.250000X-0.901561X-0.053033X-0.053033X-0.901561X0.901561X0.053033X0.053033X0.901561X0*%
%ADD52HorizOval,1.700000X-0.053033X-0.053033X0.053033X0.053033X0*%
%ADD53C,1.700000*%
G04 APERTURE END LIST*
D10*
%TO.C,Q9*%
X123149999Y-88212000D03*
X122199999Y-88212000D03*
X121249999Y-88212000D03*
X121249999Y-90988000D03*
X122199999Y-90988000D03*
X123149999Y-90988000D03*
%TD*%
D11*
%TO.C,J7*%
X147718558Y-135425665D03*
D12*
X149146913Y-133997309D03*
D13*
X150016655Y-133127567D03*
D14*
X148425665Y-134718558D03*
D15*
X146997309Y-136146913D03*
D16*
X146127567Y-137016655D03*
D17*
X145073978Y-138183381D03*
X147760984Y-140870387D03*
X151183381Y-132073978D03*
X153870387Y-134760984D03*
%TD*%
D18*
%TO.C,J11*%
X122989466Y-156389466D03*
X123873349Y-157273349D03*
X124757233Y-158157233D03*
X125641116Y-159041116D03*
X126525000Y-159925000D03*
X127408883Y-160808883D03*
D19*
X119241800Y-156530887D03*
X127267462Y-164556549D03*
%TD*%
D20*
%TO.C,C38*%
X114829899Y-93160101D03*
X110870101Y-97119899D03*
%TD*%
D21*
%TO.C,J10*%
X146863592Y-64344175D03*
X145979709Y-65228058D03*
X145095825Y-66111942D03*
X144211942Y-66995825D03*
X143328058Y-67879709D03*
X142444175Y-68763592D03*
D22*
X146722171Y-60596509D03*
X138696509Y-68622171D03*
%TD*%
D23*
%TO.C,D12*%
X123664086Y-145885915D03*
X124901522Y-144648479D03*
%TD*%
D24*
%TO.C,D8*%
X161240000Y-102630000D03*
X160002564Y-103867436D03*
%TD*%
D25*
%TO.C,SW4*%
X167587868Y-104376598D03*
X164476598Y-107487868D03*
X169355635Y-106144365D03*
X166244365Y-109255635D03*
X171123402Y-107912132D03*
X168012132Y-111023402D03*
%TD*%
D24*
%TO.C,D7*%
X162368718Y-103731282D03*
X161131282Y-104968718D03*
%TD*%
D26*
%TO.C,U7*%
X141090000Y-120230000D03*
X148710000Y-120230000D03*
X141090000Y-117690000D03*
X148710000Y-125310000D03*
X148710000Y-122770000D03*
X141090000Y-125310000D03*
X141090000Y-122770000D03*
X148710000Y-117690000D03*
%TD*%
D27*
%TO.C,H1*%
X115050000Y-45340000D03*
X115752944Y-43642944D03*
X115752944Y-47037056D03*
X117450000Y-42940000D03*
D28*
X117450000Y-45340000D03*
D27*
X117450000Y-47740000D03*
X119147056Y-43642944D03*
X119147056Y-47037056D03*
X119850000Y-45340000D03*
%TD*%
D29*
%TO.C,SW1*%
X134137107Y-155547386D03*
X131202614Y-152612893D03*
X135657386Y-154027107D03*
X132740571Y-151110291D03*
%TD*%
D30*
%TO.C,C22*%
X126440101Y-93210101D03*
X130399899Y-97169899D03*
%TD*%
D31*
%TO.C,C32*%
X158892042Y-113364466D03*
X160306256Y-111950253D03*
%TD*%
D24*
%TO.C,D9*%
X160118718Y-101531282D03*
X158881282Y-102768718D03*
%TD*%
D23*
%TO.C,D14*%
X125785406Y-148007237D03*
X127022842Y-146769801D03*
%TD*%
%TO.C,D13*%
X124724748Y-146946576D03*
X125962184Y-145709140D03*
%TD*%
%TO.C,D10*%
X126846068Y-149067897D03*
X128083504Y-147830461D03*
%TD*%
D32*
%TO.C,C23*%
X120630000Y-93640000D03*
X120630000Y-99240000D03*
%TD*%
D33*
%TO.C,TP3*%
X108030000Y-109170000D03*
%TD*%
D34*
%TO.C,C37*%
X142270000Y-58760000D03*
X136670000Y-58760000D03*
%TD*%
D35*
%TO.C,SW3*%
X168958885Y-115447038D03*
X169856910Y-116345064D03*
X170754936Y-117243090D03*
X171652962Y-118141115D03*
X177041115Y-112752962D03*
X176143090Y-111854936D03*
X175245064Y-110956910D03*
X174347038Y-110058885D03*
%TD*%
D27*
%TO.C,H2*%
X134135000Y-45337000D03*
X134837944Y-43639944D03*
X134837944Y-47034056D03*
X136535000Y-42937000D03*
D28*
X136535000Y-45337000D03*
D27*
X136535000Y-47737000D03*
X138232056Y-43639944D03*
X138232056Y-47034056D03*
X138935000Y-45337000D03*
%TD*%
D36*
%TO.C,H4*%
X130060000Y-142020000D03*
%TD*%
D37*
%TO.C,D1*%
X131793883Y-155573883D03*
X130026117Y-153806117D03*
%TD*%
D38*
%TO.C,Q7*%
X117212000Y-88650000D03*
X117212000Y-89600000D03*
X117212000Y-90550000D03*
X119988000Y-90550000D03*
X119988000Y-89600000D03*
X119988000Y-88650000D03*
%TD*%
D39*
%TO.C,H3*%
X123180000Y-143530000D03*
%TD*%
D23*
%TO.C,D11*%
X127906729Y-150128559D03*
X129144165Y-148891123D03*
%TD*%
D40*
%TO.C,SW2*%
X86311396Y-120141902D03*
D41*
X86806371Y-116111393D03*
X82775862Y-116606368D03*
%TD*%
D31*
%TO.C,C33*%
X95107959Y-114635534D03*
X93693745Y-116049747D03*
%TD*%
D42*
%TO.C,J2*%
X164437000Y-116720000D03*
D43*
X162669233Y-118487767D03*
%TD*%
D44*
%TO.C,J3*%
X89560000Y-111280000D03*
D43*
X91327767Y-109512233D03*
%TD*%
D45*
%TO.C,J4*%
X91327717Y-118490051D03*
D46*
X89559950Y-116722284D03*
%TD*%
D47*
%TO.C,SW5*%
X123750000Y-42400000D03*
D48*
X130250000Y-42400000D03*
%TD*%
D49*
%TO.C,J1*%
X124009872Y-153138821D03*
D50*
X123111847Y-154036847D03*
X124907898Y-154036847D03*
X124009872Y-154934872D03*
X125805923Y-154934872D03*
X124907898Y-155832898D03*
X126703949Y-155832898D03*
X125805923Y-156730924D03*
X127601975Y-156730924D03*
X126703949Y-157628949D03*
X128500000Y-157628949D03*
X127601975Y-158526975D03*
X129398026Y-158526975D03*
X128500000Y-159425000D03*
%TD*%
D42*
%TO.C,J6*%
X129910051Y-151242284D03*
D43*
X128142284Y-153010051D03*
%TD*%
D51*
%TO.C,J5*%
X162674000Y-109510000D03*
D52*
X164441767Y-111277767D03*
%TD*%
D53*
%TO.C,U10*%
X137500000Y-106380000D03*
X137500000Y-108920000D03*
X137500000Y-111460000D03*
X137500000Y-114000000D03*
X137500000Y-116540000D03*
X137500000Y-119080000D03*
X137500000Y-121620000D03*
%TD*%
M02*
