<?xml version="1.0" standalone="no"?>
 <!DOCTYPE svg PUBLIC "-//W3C//DTD SVG 1.1//EN" 
 "http://www.w3.org/Graphics/SVG/1.1/DTD/svg11.dtd"> 
<svg
  xmlns:svg="http://www.w3.org/2000/svg"
  xmlns="http://www.w3.org/2000/svg"
  xmlns:xlink="http://www.w3.org/1999/xlink"
  version="1.1"
  width="164.4396mm" height="126.9746mm" viewBox="0.0000 0.0000 164.4396 126.9746">
<title>SVG Image created as Drive-B_Silkscreen.svg date 2025/04/12 18:09:23 </title>
  <desc>Image generated by PCBNEW </desc>
<g style="fill:#000000; fill-opacity:1.0000;stroke:#000000; stroke-opacity:1.0000;
stroke-linecap:round; stroke-linejoin:round;"
 transform="translate(0 0) scale(1 1)">
</g>
<g style="fill:#000000; fill-opacity:0.0; 
stroke:#000000; stroke-width:0.0000; stroke-opacity:1; 
stroke-linecap:round; stroke-linejoin:round;">
</g>
<g style="fill:#E8B2A7; fill-opacity:0.0; 
stroke:#E8B2A7; stroke-width:0.0000; stroke-opacity:1; 
stroke-linecap:round; stroke-linejoin:round;">
</g>
<g style="fill:#E8B2A7; fill-opacity:0.0; 
stroke:#E8B2A7; stroke-width:0.2000; stroke-opacity:1; 
stroke-linecap:round; stroke-linejoin:round;">
<path d="M68.8873 116.4545
L68.8166 116.4545
" />
<path d="M53.3228 16.7961 A4.0000 4.0000 0.0 0 0 52.5571 21.1402" />
<path d="M26.9708 72.3000
L25.8208 72.3000
" />
<path d="M53.9559 107.8203
L53.7644 108.2613
" />
<path d="M68.1165 116.2777
L68.3428 116.0514
" />
<path d="M110.9243 83.6522
L107.3888 80.1167
" />
<path d="M28.5708 77.6250
L28.5708 77.4250
" />
<path d="M59.0839 1.1424
L45.3618 14.8644
" />
<path d="M121.6587 71.5037
L85.5255 35.3705
" />
<path d="M97.5463 19.1071 A3.0000 3.0000 0.0 0 0 97.5463 14.8644" />
<path d="M31.1490 75.7463
L27.6135 79.2819
" />
<path d="M105.7233 81.0980 A35.0746 35.0746 0.0 0 0 105.7233 66.1520" />
<path d="M108.0386 61.6305
L110.6513 60.4963
" />
<path d="M45.3618 19.1071
L57.3827 31.1279
" />
<path d="M115.5373 79.3250
L117.3373 79.3250
" />
<path d="M100.7016 54.6358 A4.0000 4.0000 0.0 0 0 105.6494 56.1268" />
<path d="M68.4541 0.2637
L68.4541 3.7637
" />
<path d="M100.7016 54.6358 A34.8713 34.8713 0.0 0 0 90.4433 44.3774" />
<circle cx="95.4250" cy="16.9857" r="1.1000" /> 
<path d="M68.5549 116.7161
L68.1165 116.2777
" />
<path d="M58.3254 112.8222
L59.4596 110.2096
" />
<circle cx="107.1276" cy="78.1151" r="0.3500" /> 
<path d="M109.7086 73.5543
L111.7592 71.5037
" />
<path d="M110.9243 83.6522
L115.2947 79.2819
" />
<path d="M64.1426 111.7098
L60.6778 115.1746
" />
<path d="M31.1490 75.7463
L32.0112 76.6085
" />
<circle cx="47.4832" cy="16.9857" r="1.1000" /> 
<path d="M83.4485 110.2096
L84.5827 112.8222
" />
<path d="M114.3373 77.6250
L118.5373 77.6250
" />
<path d="M24.3708 75.6500
L24.3708 76.9250
" />
<path d="M71.2490 119.4102
L70.8106 118.9718
" />
<circle cx="34.0128" cy="76.3474" r="0.3500" /> 
<circle cx="58.6135" cy="42.6250" r="2.5000" /> 
<path d="M90.4433 102.8726 A34.8713 34.8713 0.0 0 0 100.7016 92.6142" />
<path d="M26.9708 74.9500
L26.9708 76.0500
" />
<circle cx="80.9988" cy="4.9637" r="3.0000" /> 
<path d="M52.4649 44.3774 A34.8713 34.8713 0.0 0 0 42.2065 54.6358" />
<path d="M118.5373 69.8250
L118.5373 69.6250
" />
<circle cx="74.1764" cy="111.0663" r="0.3500" /> 
<path d="M115.9373 74.9500
L117.0873 74.9500
" />
<path d="M117.5373 76.9250
L118.5373 76.9250
" />
<path d="M115.2947 67.9681
L114.4325 67.1059
" />
<path d="M118.5373 75.3500
L118.5373 71.9000
" />
<path d="M97.5463 14.8644
L83.8243 1.1424
" />
<path d="M27.5708 76.9250
L28.5708 76.9250
" />
<path d="M115.9373 76.0500
L115.9373 74.9500
" />
<path d="M107.3888 80.1167
L106.5266 80.9789
" />
<path d="M69.7570 113.6472
L71.8076 115.6979
" />
<path d="M118.5373 71.9000
L117.0873 71.9000
" />
<path d="M27.5708 77.4250
L27.5708 76.9250
" />
<path d="M32.8461 62.7356
L31.9838 63.5978
" />
<path d="M27.5708 68.1250
L27.3708 67.9250
" />
<path d="M25.3708 70.3250
L24.3708 70.3250
" />
<path d="M21.2495 71.5037 A3.0000 3.0000 0.0 0 0 21.2495 75.7463" />
<path d="M70.8106 118.9718
L71.0369 118.7455
" />
</g>
<g style="fill:#E8B2A7; fill-opacity:1.0000; 
stroke:#E8B2A7; stroke-width:0.0000; stroke-opacity:1; 
stroke-linecap:round; stroke-linejoin:round;">
<circle cx="71.4541" cy="73.6250" r="0.0100" /> 
</g>
<g style="fill:#E8B2A7; fill-opacity:1.0000; 
stroke:#E8B2A7; stroke-width:0.2000; stroke-opacity:1; 
stroke-linecap:round; stroke-linejoin:round;">
</g>
<g style="fill:#E8B2A7; fill-opacity:0.0; 
stroke:#E8B2A7; stroke-width:0.2000; stroke-opacity:1; 
stroke-linecap:round; stroke-linejoin:round;">
<path d="M56.5172 30.2624
L52.5571 21.1402
" />
<path d="M67.2185 115.3797
L67.4448 115.1534
" />
<path d="M28.4757 80.1441
L32.8461 84.5144
" />
<path d="M25.3708 68.1250
L25.3708 68.9550
" />
<circle cx="84.2947" cy="104.6250" r="2.5000" /> 
<path d="M121.6587 75.7463 A3.0000 3.0000 0.0 0 0 121.6587 71.5037" />
<path d="M105.6494 91.1232 A4.0000 4.0000 0.0 0 0 100.7016 92.6142" />
<path d="M57.3827 35.3705 A3.0000 3.0000 0.0 0 0 57.3827 31.1279" />
<path d="M117.5373 69.8250
L118.5373 69.8250
" />
<path d="M24.3708 70.3250
L24.3708 71.6000
" />
<path d="M38.4322 78.9283
L33.1996 73.6957
" />
<path d="M67.4448 115.1534
L67.4448 115.0120
" />
<path d="M106.5266 80.9789
L107.3888 80.1167
" />
<path d="M45.3618 19.1071
L57.3827 31.1279
" />
<path d="M90.4433 102.8726 A4.0001 4.0001 0.0 0 0 88.9523 107.8203" />
<path d="M42.2065 92.6142 A34.8713 34.8713 0.0 0 0 52.4649 102.8726" />
<path d="M59.0839 1.1424
L45.3618 14.8644
" />
<path d="M78.9271 39.3558 A35.0746 35.0746 0.0 0 0 63.9811 39.3558" />
<path d="M25.3708 68.9550
L27.5708 68.9550
" />
<path d="M37.1849 66.1520 A35.0746 35.0746 0.0 0 0 37.1849 81.0980" />
<path d="M71.4541 125.9509
L121.6587 75.7463
" />
<circle cx="80.9988" cy="4.9637" r="1.6000" /> 
<path d="M110.8970 70.6415
L114.4325 67.1059
" />
<path d="M114.3373 69.8250
L115.3373 69.8250
" />
<path d="M110.8970 70.6415
L111.7592 71.5037
" />
<path d="M71.5814 119.1485
L71.5107 119.1485
" />
<path d="M107.3888 80.1167
L110.9243 83.6522
" />
<circle cx="108.8954" cy="76.3474" r="0.3500" /> 
<path d="M115.2947 79.2819
L109.7086 73.6957
" />
<circle cx="108.8954" cy="70.9026" r="0.3500" /> 
<path d="M88.9523 39.4297
L89.1437 38.9887
" />
<path d="M69.2408 116.8080
L68.8873 116.4545
" />
<path d="M68.3428 116.0514
L68.3428 115.9100
" />
<circle cx="72.4087" cy="112.8341" r="0.3500" /> 
<path d="M59.4596 37.0404
L58.1560 34.0374
" />
<path d="M117.3373 67.9250
L115.5373 67.9250
" />
<path d="M21.2495 71.5037 A3.0000 3.0000 0.0 0 0 21.2495 75.7463" />
<path d="M53.7644 38.9887
L53.9559 39.4297
" />
<path d="M24.3708 71.9000
L24.3708 75.3500
" />
<circle cx="102.4541" cy="86.4656" r="1.1000" /> 
<circle cx="80.9988" cy="4.9637" r="1.6000" /> 
<path d="M57.3827 35.3705 A3.0000 3.0000 0.0 0 0 57.3827 31.1279" />
<path d="M76.2054 118.3712
L80.5758 114.0008
" />
<path d="M32.0112 76.6085
L28.4757 80.1441
" />
<path d="M117.0873 76.0500
L115.9373 76.0500
" />
<path d="M69.4530 117.6141
L69.0146 117.1757
" />
<path d="M81.7030 0.2637
L61.2052 0.2637
" />
<path d="M117.0873 75.3500
L118.5373 75.3500
" />
<path d="M97.5463 19.1071 A3.0000 3.0000 0.0 0 0 97.5463 14.8644" />
<path d="M71.8076 115.6979
L75.3432 119.2334
" />
<path d="M69.2408 116.9494
L69.2408 116.8080
" />
<path d="M72.4794 120.0466
L72.4087 120.0466
" />
<path d="M114.3373 70.3250
L114.3373 76.9250
" />
<path d="M37.2588 56.1268 A4.0000 4.0000 0.0 0 0 42.2065 54.6358" />
<path d="M104.4760 68.3217
L109.7086 73.5543
" />
<circle cx="58.6135" cy="42.6250" r="1.1000" /> 
<path d="M71.0369 118.7455
L71.0369 118.6041
" />
<path d="M70.1389 117.7060
L69.7853 117.3525
" />
<path d="M66.7589 114.9200
L66.3205 114.4816
" />
<circle cx="61.9093" cy="4.9637" r="1.6000" /> 
<path d="M75.3432 119.2334
L76.2054 118.3712
" />
<path d="M118.5373 77.4250
L117.5373 77.4250
" />
<path d="M59.4596 37.0404 A4.0000 4.0000 0.0 0 0 63.9811 39.3558" />
<circle cx="61.9093" cy="4.9637" r="3.0000" /> 
<path d="M111.7592 71.5037
L110.8970 70.6415
" />
<path d="M74.9189 122.4861
L72.4794 120.0466
" />
<path d="M26.9708 76.0500
L25.8208 76.0500
" />
<path d="M21.2495 75.7463
L71.4541 125.9509
" />
<path d="M25.8208 71.6000
L25.8208 71.2000
" />
<path d="M69.9126 118.0737
L70.1389 117.8475
" />
<path d="M63.9811 107.8942 A4.0000 4.0000 0.0 0 0 59.4596 110.2096" />
<path d="M53.3228 16.7961 A13.5000 13.5000 0.0 0 0 56.4862 3.7401" />
<path d="M35.5194 67.1333
L36.3816 66.2711
" />
<path d="M72.4087 120.0466
L72.1470 120.3082
" />
<circle cx="58.6135" cy="42.6250" r="1.1000" /> 
<path d="M25.3708 76.9250
L25.3708 77.4250
" />
<path d="M114.4325 67.1059
L110.0621 62.7356
" />
<path d="M24.3708 77.6250
L28.5708 77.6250
" />
<path d="M63.9811 107.8942 A35.0746 35.0746 0.0 0 0 78.9271 107.8942" />
<path d="M27.3708 79.3250
L27.5708 79.1250
" />
<path d="M28.5708 69.8250
L28.5708 69.6250
" />
<path d="M114.3373 69.6250
L114.3373 69.8250
" />
<path d="M61.2052 0.2637 A3.0000 3.0000 0.0 0 0 59.0839 1.1424" />
<path d="M67.0205 114.6584
L66.7589 114.9200
" />
<path d="M25.8208 75.6500
L24.3708 75.6500
" />
<path d="M90.3510 21.1402
L86.3909 30.2624
" />
<path d="M121.6587 71.5037
L85.5255 35.3705
" />
<path d="M118.5373 75.6500
L117.0873 75.6500
" />
<path d="M24.3708 69.6250
L24.3708 69.8250
" />
<path d="M90.3510 21.1402 A4.0000 4.0000 0.0 0 0 89.5854 16.7961" />
<path d="M21.2495 75.7463
L71.4541 125.9509
" />
<path d="M110.0621 84.5144
L110.9243 83.6522
" />
<path d="M31.9838 63.5978
L27.6135 67.9681
" />
<path d="M25.8208 72.3000
L25.8208 71.9000
" />
<path d="M32.0112 76.6085
L31.1490 75.7463
" />
<path d="M28.4757 80.1441
L32.0112 76.6085
" />
<path d="M67.9893 115.5564
L67.9185 115.5564
" />
<path d="M57.3827 35.3705
L21.2495 71.5037
" />
<path d="M117.0873 72.3000
L115.9373 72.3000
" />
<path d="M27.5708 70.3250
L27.5708 69.8250
" />
<circle cx="84.2947" cy="104.6250" r="1.1000" /> 
<path d="M25.3708 77.4250
L24.3708 77.4250
" />
<path d="M118.5373 77.6250
L118.5373 77.4250
" />
<circle cx="84.2947" cy="104.6250" r="1.1000" /> 
<path d="M66.3205 114.4816
L66.5468 114.2554
" />
<path d="M25.8208 76.0500
L25.8208 75.6500
" />
<path d="M27.3708 67.9250
L25.5708 67.9250
" />
<path d="M115.3373 77.4250
L114.3373 77.4250
" />
<path d="M38.4322 68.3217
L36.3816 66.2711
" />
<path d="M115.3373 69.8250
L115.3373 70.3250
" />
<path d="M71.0369 118.6041
L70.6833 118.2505
" />
<path d="M71.9349 119.5021
L71.5814 119.1485
" />
<path d="M83.8243 1.1424 A3.0001 3.0001 0.0 0 0 81.7030 0.2637" />
<circle cx="35.7805" cy="69.1349" r="0.3500" /> 
<path d="M110.6513 86.7537
L108.0386 85.6195
" />
<path d="M78.9271 39.3558 A4.0000 4.0000 0.0 0 0 83.4485 37.0404" />
<path d="M34.8695 85.6195 A4.0000 4.0000 0.0 0 0 37.1849 81.0980" />
<path d="M53.9559 107.8203 A4.0000 4.0000 0.0 0 0 52.4649 102.8726" />
<path d="M70.6833 118.2505
L70.6126 118.2505
" />
<path d="M71.9349 119.6435
L71.9349 119.5021
" />
<path d="M72.1470 120.3082
L71.7086 119.8698
" />
<path d="M115.3373 68.1250
L115.3373 68.9550
" />
<path d="M81.7030 0.2637
L61.2052 0.2637
" />
<path d="M118.5373 71.6000
L118.5373 70.3250
" />
<path d="M117.0873 71.9000
L117.0873 72.3000
" />
<path d="M45.3618 14.8644 A3.0000 3.0000 0.0 0 0 45.3618 19.1071" />
<path d="M114.3373 77.4250
L114.3373 77.6250
" />
<path d="M121.6587 75.7463 A3.0000 3.0000 0.0 0 0 121.6587 71.5037" />
<path d="M114.3373 76.9250
L115.3373 76.9250
" />
<path d="M68.8166 116.4545
L68.5549 116.7161
" />
<path d="M117.3373 79.3250
L117.5373 79.1250
" />
<path d="M31.9838 63.5978
L35.5194 67.1333
" />
<circle cx="47.4832" cy="16.9857" r="1.1000" /> 
<circle cx="71.4541" cy="73.6250" r="29.0746" /> 
<path d="M25.3708 79.1250
L25.5708 79.3250
" />
<path d="M72.6698 114.8357
L71.8076 115.6979
" />
<path d="M115.5373 67.9250
L115.3373 68.1250
" />
<path d="M36.3816 66.2711
L35.5194 67.1333
" />
<path d="M115.3373 78.2950
L115.3373 79.1250
" />
<path d="M89.1437 108.2613
L88.9523 107.8203
" />
<path d="M117.5373 70.3250
L117.5373 69.8250
" />
<circle cx="40.4541" cy="60.7844" r="1.1000" /> 
<path d="M76.2054 118.3712
L72.6698 114.8357
" />
<path d="M117.0873 75.6500
L117.0873 76.0500
" />
<path d="M37.1849 66.1520 A4.0000 4.0000 0.0 0 0 34.8695 61.6305" />
<path d="M69.0146 117.1757
L69.2408 116.9494
" />
<path d="M25.3708 78.2950
L25.3708 79.1250
" />
<path d="M85.5255 31.1279
L97.5463 19.1071
" />
<path d="M25.5708 79.3250
L27.3708 79.3250
" />
<path d="M42.2065 92.6142 A4.0000 4.0000 0.0 0 0 37.2588 91.1232" />
<path d="M117.0873 74.9500
L117.0873 75.3500
" />
<path d="M66.5468 114.2554
L66.5468 114.1139
" />
<path d="M70.3510 118.5121
L69.9126 118.0737
" />
<path d="M85.5255 31.1279 A3.0000 3.0000 0.0 0 0 85.5255 35.3705" />
<path d="M28.5708 76.9250
L28.5708 70.3250
" />
<path d="M34.8695 85.6195
L32.2568 86.7537
" />
<path d="M24.3708 76.9250
L25.3708 76.9250
" />
<path d="M110.0621 62.7356
L104.4760 68.3217
" />
<path d="M25.5708 67.9250
L25.3708 68.1250
" />
<circle cx="34.0128" cy="70.9026" r="0.3500" /> 
<path d="M67.4448 115.0120
L67.0912 114.6584
" />
<path d="M85.5255 31.1279 A3.0000 3.0000 0.0 0 0 85.5255 35.3705" />
<path d="M68.4541 3.7637
L74.4541 3.7637
" />
<path d="M117.0873 71.2000
L117.0873 71.6000
" />
<path d="M88.9523 39.4297 A4.0000 4.0000 0.0 0 0 90.4433 44.3774" />
<path d="M33.1996 73.6957
L31.1490 75.7463
" />
<path d="M71.7086 119.8698
L71.9349 119.6435
" />
<path d="M27.6135 67.9681
L33.1996 73.5543
" />
<path d="M27.5708 78.2950
L25.3708 78.2950
" />
<path d="M85.5255 31.1279
L97.5463 19.1071
" />
<path d="M117.5373 68.9550
L117.5373 68.1250
" />
<path d="M25.8208 71.2000
L26.9708 71.2000
" />
<path d="M35.5194 67.1333
L31.9838 63.5978
" />
<circle cx="107.1276" cy="69.1349" r="0.3500" /> 
<path d="M71.5107 119.1485
L71.2490 119.4102
" />
<path d="M117.5373 68.1250
L117.3373 67.9250
" />
<path d="M25.8208 75.3500
L25.8208 74.9500
" />
<path d="M74.4541 3.7637
L74.4541 0.2637
" />
<path d="M67.6569 115.8181
L67.2185 115.3797
" />
<path d="M37.2588 56.1268
L36.8178 55.9354
" />
<path d="M105.6494 91.1232
L106.0903 91.3146
" />
<circle cx="102.4541" cy="86.4656" r="2.5000" /> 
<path d="M69.7853 117.3525
L69.7146 117.3525
" />
<path d="M84.7522 34.0374
L83.4485 37.0404
" />
<path d="M27.5708 79.1250
L27.5708 78.2950
" />
<path d="M27.5708 69.8250
L28.5708 69.8250
" />
<path d="M70.1389 117.8475
L70.1389 117.7060
" />
<path d="M57.3827 35.3705
L21.2495 71.5037
" />
<path d="M83.4485 110.2096 A4.0000 4.0000 0.0 0 0 78.9271 107.8942" />
<path d="M115.3373 79.1250
L115.5373 79.3250
" />
<path d="M118.5373 70.3250
L117.5373 70.3250
" />
<path d="M74.9896 108.4147
L69.7570 113.6472
" />
<path d="M83.8243 1.1424 A3.0001 3.0001 0.0 0 0 81.7030 0.2637" />
<path d="M25.8208 74.9500
L26.9708 74.9500
" />
<path d="M45.3618 14.8644 A3.0000 3.0000 0.0 0 0 45.3618 19.1071" />
<path d="M111.7592 71.5037
L115.2947 67.9681
" />
<path d="M67.0912 114.6584
L67.0205 114.6584
" />
<path d="M68.3428 115.9100
L67.9893 115.5564
" />
<path d="M117.5373 78.2950
L115.3373 78.2950
" />
<path d="M28.5708 69.6250
L24.3708 69.6250
" />
<path d="M80.5758 114.0008
L74.9896 108.4147
" />
<path d="M26.9708 71.2000
L26.9708 72.3000
" />
<path d="M60.6778 115.1746
L71.4541 125.9509
" />
<path d="M105.7233 81.0980 A4.0000 4.0000 0.0 0 0 108.0386 85.6195" />
<path d="M115.9373 72.3000
L115.9373 71.2000
" />
<path d="M115.3373 68.9550
L117.5373 68.9550
" />
<path d="M86.4220 3.7401 A13.5000 13.5000 0.0 0 0 89.5854 16.7961" />
<path d="M106.5266 80.9789
L110.0621 84.5144
" />
<path d="M28.5708 70.3250
L27.5708 70.3250
" />
<circle cx="102.4541" cy="86.4656" r="1.1000" /> 
<path d="M118.5373 76.9250
L118.5373 75.6500
" />
<path d="M33.1996 73.5543
L38.4322 68.3217
" />
<path d="M61.2052 0.2637 A3.0000 3.0000 0.0 0 0 59.0839 1.1424" />
<path d="M36.3816 66.2711
L32.8461 62.7356
" />
<path d="M25.8208 71.9000
L24.3708 71.9000
" />
<path d="M27.6135 79.2819
L28.4757 80.1441
" />
<path d="M32.2568 60.4963
L34.8695 61.6305
" />
<path d="M114.4325 67.1059
L110.8970 70.6415
" />
<path d="M67.9185 115.5564
L67.6569 115.8181
" />
<path d="M24.3708 69.8250
L25.3708 69.8250
" />
<path d="M28.5708 77.4250
L27.5708 77.4250
" />
<path d="M71.8076 115.6979
L72.6698 114.8357
" />
<path d="M117.5373 77.4250
L117.5373 76.9250
" />
<path d="M69.7146 117.3525
L69.4530 117.6141
" />
<circle cx="40.4541" cy="60.7844" r="2.5000" /> 
<path d="M118.5373 69.6250
L114.3373 69.6250
" />
<circle cx="61.9093" cy="4.9637" r="1.6000" /> 
<path d="M106.0903 55.9354
L105.6494 56.1268
" />
<path d="M66.5468 114.1139
L64.1426 111.7098
" />
<path d="M109.7086 73.6957
L104.4760 78.9283
" />
<path d="M32.8461 84.5144
L38.4322 78.9283
" />
<path d="M115.3373 70.3250
L114.3373 70.3250
" />
<path d="M27.5708 68.9550
L27.5708 68.1250
" />
<path d="M24.3708 75.3500
L25.8208 75.3500
" />
<path d="M36.8178 91.3146
L37.2588 91.1232
" />
<circle cx="95.4250" cy="16.9857" r="1.1000" /> 
<path d="M104.4760 78.9283
L106.5266 80.9789
" />
<path d="M52.4649 44.3774 A4.0000 4.0000 0.0 0 0 53.9559 39.4297" />
<path d="M117.5373 79.1250
L117.5373 78.2950
" />
<path d="M24.3708 71.6000
L25.8208 71.6000
" />
<path d="M115.3373 76.9250
L115.3373 77.4250
" />
<path d="M108.0386 61.6305 A3.9999 3.9999 0.0 0 0 105.7233 66.1520" />
<circle cx="35.7805" cy="78.1151" r="0.3500" /> 
<path d="M117.0873 71.6000
L118.5373 71.6000
" />
<path d="M71.4541 125.9509
L74.9189 122.4861
" />
<circle cx="47.4832" cy="16.9857" r="2.5000" /> 
<circle cx="95.4250" cy="16.9857" r="2.5000" /> 
<path d="M97.5463 14.8644
L83.8243 1.1424
" />
<circle cx="40.4541" cy="60.7844" r="1.1000" /> 
<path d="M71.4541 125.9509
L121.6587 75.7463
" />
<path d="M24.3708 77.4250
L24.3708 77.6250
" />
<path d="M115.9373 71.2000
L117.0873 71.2000
" />
<path d="M72.6698 114.8357
L76.2054 118.3712
" />
<path d="M25.3708 69.8250
L25.3708 70.3250
" />
<path d="M70.6126 118.2505
L70.3510 118.5121
" />
</g>
<g style="fill:#E8B2A7; fill-opacity:0.0; 
stroke:#E8B2A7; stroke-width:0.1300; stroke-opacity:1; 
stroke-linecap:round; stroke-linejoin:round;">
<text x="80.0491" y="76.8000"
transform="scale(-1 1) translate(-160.098164 0)"
textLength="3.8090" font-size="1.3333" lengthAdjust="spacingAndGlyphs"
text-anchor="start" opacity="0">MISO</text>
<g class="stroked-text"><desc>MISO</desc>
<path d="M79.7255 76.6709
L79.7255 75.6709
" />
<path d="M79.7255 75.6709
L79.3921 76.3851
" />
<path d="M79.3921 76.3851
L79.0588 75.6709
" />
<path d="M79.0588 75.6709
L79.0588 76.6709
" />
<path d="M78.5826 76.6709
L78.5826 75.6709
" />
<path d="M78.1540 76.6232
L78.0112 76.6709
" />
<path d="M78.0112 76.6709
L77.7731 76.6709
" />
<path d="M77.7731 76.6709
L77.6778 76.6232
" />
<path d="M77.6778 76.6232
L77.6302 76.5756
" />
<path d="M77.6302 76.5756
L77.5826 76.4804
" />
<path d="M77.5826 76.4804
L77.5826 76.3851
" />
<path d="M77.5826 76.3851
L77.6302 76.2899
" />
<path d="M77.6302 76.2899
L77.6778 76.2423
" />
<path d="M77.6778 76.2423
L77.7731 76.1947
" />
<path d="M77.7731 76.1947
L77.9636 76.1470
" />
<path d="M77.9636 76.1470
L78.0588 76.0994
" />
<path d="M78.0588 76.0994
L78.1064 76.0518
" />
<path d="M78.1064 76.0518
L78.1540 75.9566
" />
<path d="M78.1540 75.9566
L78.1540 75.8613
" />
<path d="M78.1540 75.8613
L78.1064 75.7661
" />
<path d="M78.1064 75.7661
L78.0588 75.7185
" />
<path d="M78.0588 75.7185
L77.9636 75.6709
" />
<path d="M77.9636 75.6709
L77.7255 75.6709
" />
<path d="M77.7255 75.6709
L77.5826 75.7185
" />
<path d="M76.9636 75.6709
L76.7731 75.6709
" />
<path d="M76.7731 75.6709
L76.6778 75.7185
" />
<path d="M76.6778 75.7185
L76.5826 75.8137
" />
<path d="M76.5826 75.8137
L76.5350 76.0042
" />
<path d="M76.5350 76.0042
L76.5350 76.3375
" />
<path d="M76.5350 76.3375
L76.5826 76.5280
" />
<path d="M76.5826 76.5280
L76.6778 76.6232
" />
<path d="M76.6778 76.6232
L76.7731 76.6709
" />
<path d="M76.7731 76.6709
L76.9636 76.6709
" />
<path d="M76.9636 76.6709
L77.0588 76.6232
" />
<path d="M77.0588 76.6232
L77.1540 76.5280
" />
<path d="M77.1540 76.5280
L77.2017 76.3375
" />
<path d="M77.2017 76.3375
L77.2017 76.0042
" />
<path d="M77.2017 76.0042
L77.1540 75.8137
" />
<path d="M77.1540 75.8137
L77.0588 75.7185
" />
<path d="M77.0588 75.7185
L76.9636 75.6709
" />
</g><text x="80.0491" y="81.8800"
transform="scale(-1 1) translate(-160.098164 0)"
textLength="3.2376" font-size="1.3333" lengthAdjust="spacingAndGlyphs"
text-anchor="start" opacity="0">GND</text>
<g class="stroked-text"><desc>GND</desc>
<path d="M79.2017 80.7985
L79.2969 80.7509
" />
<path d="M79.2969 80.7509
L79.4397 80.7509
" />
<path d="M79.4397 80.7509
L79.5826 80.7985
" />
<path d="M79.5826 80.7985
L79.6778 80.8937
" />
<path d="M79.6778 80.8937
L79.7255 80.9890
" />
<path d="M79.7255 80.9890
L79.7731 81.1794
" />
<path d="M79.7731 81.1794
L79.7731 81.3223
" />
<path d="M79.7731 81.3223
L79.7255 81.5128
" />
<path d="M79.7255 81.5128
L79.6778 81.6080
" />
<path d="M79.6778 81.6080
L79.5826 81.7032
" />
<path d="M79.5826 81.7032
L79.4397 81.7509
" />
<path d="M79.4397 81.7509
L79.3445 81.7509
" />
<path d="M79.3445 81.7509
L79.2017 81.7032
" />
<path d="M79.2017 81.7032
L79.1540 81.6556
" />
<path d="M79.1540 81.6556
L79.1540 81.3223
" />
<path d="M79.1540 81.3223
L79.3445 81.3223
" />
<path d="M78.7255 81.7509
L78.7255 80.7509
" />
<path d="M78.7255 80.7509
L78.1540 81.7509
" />
<path d="M78.1540 81.7509
L78.1540 80.7509
" />
<path d="M77.6778 81.7509
L77.6778 80.7509
" />
<path d="M77.6778 80.7509
L77.4397 80.7509
" />
<path d="M77.4397 80.7509
L77.2969 80.7985
" />
<path d="M77.2969 80.7985
L77.2017 80.8937
" />
<path d="M77.2017 80.8937
L77.1540 80.9890
" />
<path d="M77.1540 80.9890
L77.1064 81.1794
" />
<path d="M77.1064 81.1794
L77.1064 81.3223
" />
<path d="M77.1064 81.3223
L77.1540 81.5128
" />
<path d="M77.1540 81.5128
L77.2017 81.6080
" />
<path d="M77.2017 81.6080
L77.2969 81.7032
" />
<path d="M77.2969 81.7032
L77.4397 81.7509
" />
<path d="M77.4397 81.7509
L77.6778 81.7509
" />
</g><text x="80.0491" y="74.2600"
transform="scale(-1 1) translate(-160.098164 0)"
textLength="3.8090" font-size="1.3333" lengthAdjust="spacingAndGlyphs"
text-anchor="start" opacity="0">MOSI</text>
<g class="stroked-text"><desc>MOSI</desc>
<path d="M79.7255 74.1309
L79.7255 73.1309
" />
<path d="M79.7255 73.1309
L79.3921 73.8451
" />
<path d="M79.3921 73.8451
L79.0588 73.1309
" />
<path d="M79.0588 73.1309
L79.0588 74.1309
" />
<path d="M78.3921 73.1309
L78.2017 73.1309
" />
<path d="M78.2017 73.1309
L78.1064 73.1785
" />
<path d="M78.1064 73.1785
L78.0112 73.2737
" />
<path d="M78.0112 73.2737
L77.9636 73.4642
" />
<path d="M77.9636 73.4642
L77.9636 73.7975
" />
<path d="M77.9636 73.7975
L78.0112 73.9880
" />
<path d="M78.0112 73.9880
L78.1064 74.0832
" />
<path d="M78.1064 74.0832
L78.2017 74.1309
" />
<path d="M78.2017 74.1309
L78.3921 74.1309
" />
<path d="M78.3921 74.1309
L78.4874 74.0832
" />
<path d="M78.4874 74.0832
L78.5826 73.9880
" />
<path d="M78.5826 73.9880
L78.6302 73.7975
" />
<path d="M78.6302 73.7975
L78.6302 73.4642
" />
<path d="M78.6302 73.4642
L78.5826 73.2737
" />
<path d="M78.5826 73.2737
L78.4874 73.1785
" />
<path d="M78.4874 73.1785
L78.3921 73.1309
" />
<path d="M77.5826 74.0832
L77.4397 74.1309
" />
<path d="M77.4397 74.1309
L77.2017 74.1309
" />
<path d="M77.2017 74.1309
L77.1064 74.0832
" />
<path d="M77.1064 74.0832
L77.0588 74.0356
" />
<path d="M77.0588 74.0356
L77.0112 73.9404
" />
<path d="M77.0112 73.9404
L77.0112 73.8451
" />
<path d="M77.0112 73.8451
L77.0588 73.7499
" />
<path d="M77.0588 73.7499
L77.1064 73.7023
" />
<path d="M77.1064 73.7023
L77.2017 73.6547
" />
<path d="M77.2017 73.6547
L77.3921 73.6071
" />
<path d="M77.3921 73.6071
L77.4874 73.5594
" />
<path d="M77.4874 73.5594
L77.5350 73.5118
" />
<path d="M77.5350 73.5118
L77.5826 73.4166
" />
<path d="M77.5826 73.4166
L77.5826 73.3213
" />
<path d="M77.5826 73.3213
L77.5350 73.2261
" />
<path d="M77.5350 73.2261
L77.4874 73.1785
" />
<path d="M77.4874 73.1785
L77.3921 73.1309
" />
<path d="M77.3921 73.1309
L77.1540 73.1309
" />
<path d="M77.1540 73.1309
L77.0112 73.1785
" />
<path d="M76.5826 74.1309
L76.5826 73.1309
" />
</g><text x="80.0491" y="66.6400"
transform="scale(-1 1) translate(-160.098164 0)"
textLength="2.7614" font-size="1.3333" lengthAdjust="spacingAndGlyphs"
text-anchor="start" opacity="0">Vcc</text>
<g class="stroked-text"><desc>Vcc</desc>
<path d="M79.8683 65.5109
L79.5350 66.5109
" />
<path d="M79.5350 66.5109
L79.2017 65.5109
" />
<path d="M78.4397 66.4632
L78.5350 66.5109
" />
<path d="M78.5350 66.5109
L78.7255 66.5109
" />
<path d="M78.7255 66.5109
L78.8207 66.4632
" />
<path d="M78.8207 66.4632
L78.8683 66.4156
" />
<path d="M78.8683 66.4156
L78.9159 66.3204
" />
<path d="M78.9159 66.3204
L78.9159 66.0347
" />
<path d="M78.9159 66.0347
L78.8683 65.9394
" />
<path d="M78.8683 65.9394
L78.8207 65.8918
" />
<path d="M78.8207 65.8918
L78.7255 65.8442
" />
<path d="M78.7255 65.8442
L78.5350 65.8442
" />
<path d="M78.5350 65.8442
L78.4397 65.8918
" />
<path d="M77.5826 66.4632
L77.6778 66.5109
" />
<path d="M77.6778 66.5109
L77.8683 66.5109
" />
<path d="M77.8683 66.5109
L77.9636 66.4632
" />
<path d="M77.9636 66.4632
L78.0112 66.4156
" />
<path d="M78.0112 66.4156
L78.0588 66.3204
" />
<path d="M78.0588 66.3204
L78.0588 66.0347
" />
<path d="M78.0588 66.0347
L78.0112 65.9394
" />
<path d="M78.0112 65.9394
L77.9636 65.8918
" />
<path d="M77.9636 65.8918
L77.8683 65.8442
" />
<path d="M77.8683 65.8442
L77.6778 65.8442
" />
<path d="M77.6778 65.8442
L77.5826 65.8918
" />
</g><text x="80.0491" y="71.7200"
transform="scale(-1 1) translate(-160.098164 0)"
textLength="3.1424" font-size="1.3333" lengthAdjust="spacingAndGlyphs"
text-anchor="start" opacity="0">SCK</text>
<g class="stroked-text"><desc>SCK</desc>
<path d="M79.7731 71.5432
L79.6302 71.5909
" />
<path d="M79.6302 71.5909
L79.3921 71.5909
" />
<path d="M79.3921 71.5909
L79.2969 71.5432
" />
<path d="M79.2969 71.5432
L79.2493 71.4956
" />
<path d="M79.2493 71.4956
L79.2017 71.4004
" />
<path d="M79.2017 71.4004
L79.2017 71.3051
" />
<path d="M79.2017 71.3051
L79.2493 71.2099
" />
<path d="M79.2493 71.2099
L79.2969 71.1623
" />
<path d="M79.2969 71.1623
L79.3921 71.1147
" />
<path d="M79.3921 71.1147
L79.5826 71.0670
" />
<path d="M79.5826 71.0670
L79.6778 71.0194
" />
<path d="M79.6778 71.0194
L79.7255 70.9718
" />
<path d="M79.7255 70.9718
L79.7731 70.8766
" />
<path d="M79.7731 70.8766
L79.7731 70.7813
" />
<path d="M79.7731 70.7813
L79.7255 70.6861
" />
<path d="M79.7255 70.6861
L79.6778 70.6385
" />
<path d="M79.6778 70.6385
L79.5826 70.5909
" />
<path d="M79.5826 70.5909
L79.3445 70.5909
" />
<path d="M79.3445 70.5909
L79.2017 70.6385
" />
<path d="M78.2017 71.4956
L78.2493 71.5432
" />
<path d="M78.2493 71.5432
L78.3921 71.5909
" />
<path d="M78.3921 71.5909
L78.4874 71.5909
" />
<path d="M78.4874 71.5909
L78.6302 71.5432
" />
<path d="M78.6302 71.5432
L78.7255 71.4480
" />
<path d="M78.7255 71.4480
L78.7731 71.3528
" />
<path d="M78.7731 71.3528
L78.8207 71.1623
" />
<path d="M78.8207 71.1623
L78.8207 71.0194
" />
<path d="M78.8207 71.0194
L78.7731 70.8290
" />
<path d="M78.7731 70.8290
L78.7255 70.7337
" />
<path d="M78.7255 70.7337
L78.6302 70.6385
" />
<path d="M78.6302 70.6385
L78.4874 70.5909
" />
<path d="M78.4874 70.5909
L78.3921 70.5909
" />
<path d="M78.3921 70.5909
L78.2493 70.6385
" />
<path d="M78.2493 70.6385
L78.2017 70.6861
" />
<path d="M77.7731 71.5909
L77.7731 70.5909
" />
<path d="M77.2017 71.5909
L77.6302 71.0194
" />
<path d="M77.2017 70.5909
L77.7731 71.1623
" />
</g><text x="80.0491" y="69.1800"
transform="scale(-1 1) translate(-160.098164 0)"
textLength="2.1424" font-size="1.3333" lengthAdjust="spacingAndGlyphs"
text-anchor="start" opacity="0">CS</text>
<g class="stroked-text"><desc>CS</desc>
<path d="M79.1540 68.9556
L79.2017 69.0032
" />
<path d="M79.2017 69.0032
L79.3445 69.0509
" />
<path d="M79.3445 69.0509
L79.4397 69.0509
" />
<path d="M79.4397 69.0509
L79.5826 69.0032
" />
<path d="M79.5826 69.0032
L79.6778 68.9080
" />
<path d="M79.6778 68.9080
L79.7255 68.8128
" />
<path d="M79.7255 68.8128
L79.7731 68.6223
" />
<path d="M79.7731 68.6223
L79.7731 68.4794
" />
<path d="M79.7731 68.4794
L79.7255 68.2890
" />
<path d="M79.7255 68.2890
L79.6778 68.1937
" />
<path d="M79.6778 68.1937
L79.5826 68.0985
" />
<path d="M79.5826 68.0985
L79.4397 68.0509
" />
<path d="M79.4397 68.0509
L79.3445 68.0509
" />
<path d="M79.3445 68.0509
L79.2017 68.0985
" />
<path d="M79.2017 68.0985
L79.1540 68.1461
" />
<path d="M78.7731 69.0032
L78.6302 69.0509
" />
<path d="M78.6302 69.0509
L78.3921 69.0509
" />
<path d="M78.3921 69.0509
L78.2969 69.0032
" />
<path d="M78.2969 69.0032
L78.2493 68.9556
" />
<path d="M78.2493 68.9556
L78.2017 68.8604
" />
<path d="M78.2017 68.8604
L78.2017 68.7651
" />
<path d="M78.2017 68.7651
L78.2493 68.6699
" />
<path d="M78.2493 68.6699
L78.2969 68.6223
" />
<path d="M78.2969 68.6223
L78.3921 68.5747
" />
<path d="M78.3921 68.5747
L78.5826 68.5271
" />
<path d="M78.5826 68.5271
L78.6778 68.4794
" />
<path d="M78.6778 68.4794
L78.7255 68.4318
" />
<path d="M78.7255 68.4318
L78.7731 68.3366
" />
<path d="M78.7731 68.3366
L78.7731 68.2413
" />
<path d="M78.7731 68.2413
L78.7255 68.1461
" />
<path d="M78.7255 68.1461
L78.6778 68.0985
" />
<path d="M78.6778 68.0985
L78.5826 68.0509
" />
<path d="M78.5826 68.0509
L78.3445 68.0509
" />
<path d="M78.3445 68.0509
L78.2017 68.0985
" />
</g><text x="80.0491" y="79.3400"
transform="scale(-1 1) translate(-160.098164 0)"
textLength="2.4757" font-size="1.3333" lengthAdjust="spacingAndGlyphs"
text-anchor="start" opacity="0">INT</text>
<g class="stroked-text"><desc>INT</desc>
<path d="M79.7255 79.2109
L79.7255 78.2109
" />
<path d="M79.2493 79.2109
L79.2493 78.2109
" />
<path d="M79.2493 78.2109
L78.6778 79.2109
" />
<path d="M78.6778 79.2109
L78.6778 78.2109
" />
<path d="M78.3445 78.2109
L77.7731 78.2109
" />
<path d="M78.0588 79.2109
L78.0588 78.2109
" />
</g></g>
<g style="fill:#E8B2A7; fill-opacity:0.0; 
stroke:#E8B2A7; stroke-width:0.1200; stroke-opacity:1; 
stroke-linecap:round; stroke-linejoin:round;">
<path d="M92.2941 51.9207
L92.1416 51.7682
" />
<path d="M92.8032 51.4116
L92.6507 51.2591
" />
<path d="M35.1071 84.1607
L35.3244 84.3779
" />
<path d="M34.5697 84.6981
L34.7870 84.9153
" />
<path d="M87.9440 96.5523
L87.7267 96.3351
" />
<path d="M88.4814 96.0149
L88.2641 95.7977
" />
<path d="M73.0791 54.1150
L75.2291 54.1150
" />
<path d="M73.6291 57.3350
L75.2291 57.3350
" />
<path d="M75.2291 55.0250
L75.2291 54.1150
" />
<path d="M75.2291 57.3350
L75.2291 56.4250
" />
</g>
<g style="fill:#E8B2A7; fill-opacity:1.0000; 
stroke:#E8B2A7; stroke-width:0.1200; stroke-opacity:1; 
stroke-linecap:round; stroke-linejoin:round;">
<path style="fill:#E8B2A7; fill-opacity:1.0000; 
stroke:#E8B2A7; stroke-width:0.1200; stroke-opacity:1; 
stroke-linecap:round; stroke-linejoin:round;fill-rule:evenodd;"
d="M 73.3691,57.6150
72.8891,57.6150
73.1291,57.2850
Z" /> 
</g>
<g style="fill:#E8B2A7; fill-opacity:0.0; 
stroke:#E8B2A7; stroke-width:0.1200; stroke-opacity:1; 
stroke-linecap:round; stroke-linejoin:round;">
<path d="M76.2741 62.0786
L76.2741 61.7714
" />
<path d="M77.0341 62.0786
L77.0341 61.7714
" />
<path d="M63.0653 54.0150
L61.6428 54.0150
" />
<path d="M63.0653 52.1950
L61.6428 52.1950
" />
<path d="M89.1840 89.2423
L88.9667 89.0251
" />
<path d="M89.7214 88.7049
L89.5041 88.4877
" />
<path d="M78.7162 101.7350
L78.9319 101.7350
" />
<path d="M78.7162 102.4550
L78.9319 102.4550
" />
<path d="M110.3427 55.0263
L110.1254 55.2436
" />
<path d="M110.8801 55.5637
L110.6628 55.7810
" />
<path d="M81.9124 113.4342
L82.0649 113.5867
" />
<path d="M81.4033 113.9433
L81.5558 114.0958
" />
<path d="M92.3239 58.3852
L93.7027 59.7641
" />
<path d="M92.3239 58.3852
L90.9450 57.0063
" />
<path d="M95.9443 54.7648
L97.3231 56.1437
" />
<path d="M95.9443 54.7648
L94.5654 53.3859
" />
</g>
<g style="fill:#E8B2A7; fill-opacity:1.0000; 
stroke:#E8B2A7; stroke-width:0.1200; stroke-opacity:1; 
stroke-linecap:round; stroke-linejoin:round;">
<path style="fill:#E8B2A7; fill-opacity:1.0000; 
stroke:#E8B2A7; stroke-width:0.1200; stroke-opacity:1; 
stroke-linecap:round; stroke-linejoin:round;fill-rule:evenodd;"
d="M 98.1893,56.6775
97.7863,56.7412
97.8499,56.3381
Z" /> 
</g>
<g style="fill:#E8B2A7; fill-opacity:0.0; 
stroke:#E8B2A7; stroke-width:0.1200; stroke-opacity:1; 
stroke-linecap:round; stroke-linejoin:round;">
<path d="M76.7419 86.3450
L76.5262 86.3450
" />
<path d="M76.7419 85.6250
L76.5262 85.6250
" />
<path d="M57.0021 97.7090
L57.0021 93.7090
" />
<path d="M60.3021 97.7090
L57.0021 97.7090
" />
</g>
<g style="fill:#E8B2A7; fill-opacity:1.0000; 
stroke:#E8B2A7; stroke-width:0.1200; stroke-opacity:1; 
stroke-linecap:round; stroke-linejoin:round;">
<path style="fill:#E8B2A7; fill-opacity:1.0000; 
stroke:#E8B2A7; stroke-width:0.1200; stroke-opacity:1; 
stroke-linecap:round; stroke-linejoin:round;fill-rule:evenodd;"
d="M 79.8469,105.7456
79.4438,105.8093
79.5075,105.4062
Z" /> 
</g>
<g style="fill:#E8B2A7; fill-opacity:0.0; 
stroke:#E8B2A7; stroke-width:0.1200; stroke-opacity:1; 
stroke-linecap:round; stroke-linejoin:round;">
<path d="M78.6572 104.9519
L78.1975 104.4923
" />
<path d="M78.6572 104.9519
L79.1168 105.4115
" />
<path d="M76.4510 107.1581
L75.9914 106.6985
" />
<path d="M76.4510 107.1581
L76.9106 107.6177
" />
<path d="M68.7891 55.5637
L68.7891 56.0863
" />
<path d="M67.3191 55.5637
L67.3191 56.0863
" />
<path d="M33.7081 85.5577
L33.9254 85.7749
" />
<path d="M33.1707 86.0951
L33.3880 86.3123
" />
<path d="M63.0798 85.9218
L62.9273 85.7693
" />
<path d="M63.5889 85.4127
L63.4364 85.2602
" />
<path d="M56.8187 74.0350
L56.5114 74.0350
" />
<path d="M56.8187 73.2750
L56.5114 73.2750
" />
<path d="M90.7869 53.4451
L91.0042 53.2278
" />
<path d="M91.3243 53.9825
L91.5416 53.7652
" />
<path d="M98.4712 62.8869
L98.2539 63.1042
" />
<path d="M97.9338 62.3495
L97.7165 62.5668
" />
<path d="M61.5741 49.9586
L61.5741 49.6514
" />
<path d="M62.3341 49.9586
L62.3341 49.6514
" />
<path d="M112.4640 57.1477
L112.2467 57.3649
" />
<path d="M113.0014 57.6851
L112.7841 57.9023
" />
<path d="M35.3860 85.6859
L34.9264 86.1455
" />
<path d="M35.3860 85.6859
L35.8456 85.2263
" />
<path d="M37.5922 87.8921
L37.1325 88.3517
" />
<path d="M37.5922 87.8921
L38.0518 87.4325
" />
</g>
<g style="fill:#E8B2A7; fill-opacity:1.0000; 
stroke:#E8B2A7; stroke-width:0.1200; stroke-opacity:1; 
stroke-linecap:round; stroke-linejoin:round;">
<path style="fill:#E8B2A7; fill-opacity:1.0000; 
stroke:#E8B2A7; stroke-width:0.1200; stroke-opacity:1; 
stroke-linecap:round; stroke-linejoin:round;fill-rule:evenodd;"
d="M 37.1379,88.7424
36.7984,89.0818
36.7348,88.6787
Z" /> 
</g>
<g style="fill:#E8B2A7; fill-opacity:0.0; 
stroke:#E8B2A7; stroke-width:0.1200; stroke-opacity:1; 
stroke-linecap:round; stroke-linejoin:round;">
<path d="M60.4537 57.8120
L60.1464 57.8120
" />
<path d="M60.4537 57.0520
L60.1464 57.0520
" />
<path d="M91.6406 52.6390
L91.4233 52.4217
" />
<path d="M92.1780 52.1016
L91.9607 51.8843
" />
<path d="M53.8324 115.6942
L53.9849 115.8467
" />
<path d="M53.3233 116.2033
L53.4758 116.3558
" />
<path d="M54.9041 89.3114
L54.9041 89.6186
" />
<path d="M54.1441 89.3114
L54.1441 89.6186
" />
<path d="M58.8777 88.6250
L58.5704 88.6250
" />
<path d="M58.8777 87.8650
L58.5704 87.8650
" />
</g>
<g style="fill:#E8B2A7; fill-opacity:0.0; 
stroke:#E8B2A7; stroke-width:0.1500; stroke-opacity:1; 
stroke-linecap:round; stroke-linejoin:round;">
<path d="M67.0091 55.0050
L66.8591 55.0050
" />
<path d="M67.0091 55.0050
L67.0091 59.2050
" />
<path d="M62.0096 55.0050
L61.9841 55.0050
" />
<path d="M61.9841 55.0050
L61.9841 56.0550
" />
<path d="M61.9841 58.1550
L61.9841 59.2050
" />
<path d="M67.0091 59.2050
L66.8591 59.2050
" />
<path d="M62.0096 59.2050
L61.9841 59.2050
" />
</g>
<g style="fill:#E8B2A7; fill-opacity:0.0; 
stroke:#E8B2A7; stroke-width:0.2500; stroke-opacity:1; 
stroke-linecap:round; stroke-linejoin:round;">
<circle cx="62.6221" cy="54.1050" r="0.1250" /> 
</g>
<g style="fill:#E8B2A7; fill-opacity:0.0; 
stroke:#E8B2A7; stroke-width:0.1200; stroke-opacity:1; 
stroke-linecap:round; stroke-linejoin:round;">
<path d="M91.3944 104.2826
L91.6117 104.0653
" />
<path d="M91.9318 104.8200
L92.1491 104.6027
" />
<path d="M72.0341 55.7914
L72.0341 56.0986
" />
<path d="M71.2741 55.7914
L71.2741 56.0986
" />
<path d="M58.4206 78.3867
L58.4206 78.8613
" />
<path d="M57.3756 78.3867
L57.3756 78.8613
" />
<path d="M1.7423 34.2075
L1.2677 34.2075
" />
<path d="M1.7423 33.1625
L1.2677 33.1625
" />
<path d="M111.4084 74.8176
L109.7043 73.1135
" />
<path d="M109.7043 73.1135
L108.0001 74.8176
" />
<path d="M115.4460 79.2795
L110.0578 84.6676
" />
<path d="M109.7043 73.5378
L115.4460 79.2795
" />
<path d="M110.0578 84.6676
L104.3161 78.9259
" />
<path d="M104.3161 78.9259
L109.7043 73.5378
" />
<path d="M91.4420 103.8956
L91.2247 104.1129
" />
<path d="M90.9046 103.3582
L90.6873 103.5755
" />
<path d="M79.6752 100.2630
L79.6752 100.4787
" />
<path d="M78.9552 100.2630
L78.9552 100.4787
" />
<path d="M1.7423 39.2275
L1.2677 39.2275
" />
<path d="M1.7423 38.1825
L1.2677 38.1825
" />
<path d="M63.9442 104.1490
L64.1599 104.1490
" />
<path d="M63.9442 104.8690
L64.1599 104.8690
" />
<path d="M90.5883 104.7017
L90.8056 104.9190
" />
<path d="M90.0509 105.2391
L90.2682 105.4564
" />
<path d="M84.6440 108.3523
L84.4267 108.1351
" />
<path d="M85.1814 107.8149
L84.9641 107.5977
" />
<path d="M60.8001 50.8484
L60.8001 51.1556
" />
<path d="M60.0401 50.8484
L60.0401 51.1556
" />
<path d="M74.1541 57.6650
L73.5041 57.6650
" />
<path d="M74.1541 57.6650
L74.8041 57.6650
" />
<path d="M74.1541 60.7850
L73.5041 60.7850
" />
<path d="M74.1541 60.7850
L74.8041 60.7850
" />
</g>
<g style="fill:#E8B2A7; fill-opacity:1.0000; 
stroke:#E8B2A7; stroke-width:0.1200; stroke-opacity:1; 
stroke-linecap:round; stroke-linejoin:round;">
<path style="fill:#E8B2A7; fill-opacity:1.0000; 
stroke:#E8B2A7; stroke-width:0.1200; stroke-opacity:1; 
stroke-linecap:round; stroke-linejoin:round;fill-rule:evenodd;"
d="M 73.2316,61.0650
72.7516,61.0650
72.9916,60.7350
Z" /> 
</g>
<g style="fill:#E8B2A7; fill-opacity:0.0; 
stroke:#E8B2A7; stroke-width:0.1200; stroke-opacity:1; 
stroke-linecap:round; stroke-linejoin:round;">
<path d="M55.0841 89.2014
L55.0841 89.5086
" />
<path d="M55.8441 89.2014
L55.8441 89.5086
" />
<path d="M111.4034 56.0870
L111.1861 56.3043
" />
<path d="M111.9408 56.6244
L111.7235 56.8417
" />
<path d="M86.4141 107.5477
L86.6314 107.7649
" />
<path d="M85.8767 108.0851
L86.0940 108.3023
" />
<path d="M89.7343 99.0848
L88.3554 97.7059
" />
<path d="M89.7343 99.0848
L91.1131 100.4637
" />
<path d="M86.1139 102.7052
L84.7350 101.3263
" />
<path d="M86.1139 102.7052
L87.4927 104.0841
" />
</g>
<g style="fill:#E8B2A7; fill-opacity:1.0000; 
stroke:#E8B2A7; stroke-width:0.1200; stroke-opacity:1; 
stroke-linecap:round; stroke-linejoin:round;">
<path style="fill:#E8B2A7; fill-opacity:1.0000; 
stroke:#E8B2A7; stroke-width:0.1200; stroke-opacity:1; 
stroke-linecap:round; stroke-linejoin:round;fill-rule:evenodd;"
d="M 84.2082,101.1319
83.8688,100.7925
84.2719,100.7288
Z" /> 
</g>
<g style="fill:#E8B2A7; fill-opacity:0.0; 
stroke:#E8B2A7; stroke-width:0.1200; stroke-opacity:1; 
stroke-linecap:round; stroke-linejoin:round;">
<path d="M66.3641 52.2422
L66.3641 52.5678
" />
<path d="M65.3441 52.2422
L65.3441 52.5678
" />
<path d="M78.0341 1.4714
L78.0341 1.7786
" />
<path d="M77.2741 1.4714
L77.2741 1.7786
" />
<path d="M83.5941 67.2328
L83.5941 67.0172
" />
<path d="M84.3141 67.2328
L84.3141 67.0172
" />
<path d="M31.4968 72.4324
L33.2009 74.1365
" />
<path d="M33.2009 74.1365
L34.9050 72.4324
" />
<path d="M27.4592 67.9705
L32.8474 62.5824
" />
<path d="M33.2009 73.7122
L27.4592 67.9705
" />
<path d="M32.8474 62.5824
L38.5891 68.3241
" />
<path d="M38.5891 68.3241
L33.2009 73.7122
" />
<path d="M34.0880 85.6123
L33.8707 85.3951
" />
<path d="M34.6254 85.0749
L34.4081 84.8577
" />
<path d="M94.2339 91.3279
L95.7541 92.8482
" />
<path d="M92.3459 93.9937
L93.4773 95.1251
" />
<path d="M95.1107 93.4916
L95.7541 92.8482
" />
<path d="M93.4773 95.1251
L94.1207 94.4816
" />
</g>
<g style="fill:#E8B2A7; fill-opacity:1.0000; 
stroke:#E8B2A7; stroke-width:0.1200; stroke-opacity:1; 
stroke-linecap:round; stroke-linejoin:round;">
<path style="fill:#E8B2A7; fill-opacity:1.0000; 
stroke:#E8B2A7; stroke-width:0.1200; stroke-opacity:1; 
stroke-linecap:round; stroke-linejoin:round;fill-rule:evenodd;"
d="M 91.9640,94.0078
91.6246,93.6684
92.0277,93.6048
Z" /> 
</g>
<g style="fill:#E8B2A7; fill-opacity:0.0; 
stroke:#E8B2A7; stroke-width:0.1200; stroke-opacity:1; 
stroke-linecap:round; stroke-linejoin:round;">
<path d="M79.4141 59.4250
L79.4141 58.7750
" />
<path d="M79.4141 59.4250
L79.4141 60.0750
" />
<path d="M76.2941 59.4250
L76.2941 58.7750
" />
<path d="M76.2941 59.4250
L76.2941 60.0750
" />
</g>
<g style="fill:#E8B2A7; fill-opacity:1.0000; 
stroke:#E8B2A7; stroke-width:0.1200; stroke-opacity:1; 
stroke-linecap:round; stroke-linejoin:round;">
<path style="fill:#E8B2A7; fill-opacity:1.0000; 
stroke:#E8B2A7; stroke-width:0.1200; stroke-opacity:1; 
stroke-linecap:round; stroke-linejoin:round;fill-rule:evenodd;"
d="M 76.3441,58.2625
76.0141,58.5025
76.0141,58.0225
Z" /> 
</g>
<g style="fill:#E8B2A7; fill-opacity:0.0; 
stroke:#E8B2A7; stroke-width:0.1200; stroke-opacity:1; 
stroke-linecap:round; stroke-linejoin:round;">
<path d="M69.0541 57.6650
L68.4041 57.6650
" />
<path d="M69.0541 57.6650
L69.7041 57.6650
" />
<path d="M69.0541 60.7850
L68.4041 60.7850
" />
<path d="M69.0541 60.7850
L69.7041 60.7850
" />
</g>
<g style="fill:#E8B2A7; fill-opacity:1.0000; 
stroke:#E8B2A7; stroke-width:0.1200; stroke-opacity:1; 
stroke-linecap:round; stroke-linejoin:round;">
<path style="fill:#E8B2A7; fill-opacity:1.0000; 
stroke:#E8B2A7; stroke-width:0.1200; stroke-opacity:1; 
stroke-linecap:round; stroke-linejoin:round;fill-rule:evenodd;"
d="M 68.1316,61.0650
67.6516,61.0650
67.8916,60.7350
Z" /> 
</g>
<g style="fill:#E8B2A7; fill-opacity:0.0; 
stroke:#E8B2A7; stroke-width:0.1200; stroke-opacity:1; 
stroke-linecap:round; stroke-linejoin:round;">
<path d="M56.2314 118.2851
L56.0141 118.5023
" />
<path d="M55.6940 117.7477
L55.4767 117.9649
" />
<path d="M83.7443 107.8248
L82.3654 106.4459
" />
<path d="M83.7443 107.8248
L85.1231 109.2037
" />
<path d="M80.1239 111.4452
L78.7450 110.0663
" />
<path d="M80.1239 111.4452
L81.5027 112.8241
" />
</g>
<g style="fill:#E8B2A7; fill-opacity:1.0000; 
stroke:#E8B2A7; stroke-width:0.1200; stroke-opacity:1; 
stroke-linecap:round; stroke-linejoin:round;">
<path style="fill:#E8B2A7; fill-opacity:1.0000; 
stroke:#E8B2A7; stroke-width:0.1200; stroke-opacity:1; 
stroke-linecap:round; stroke-linejoin:round;fill-rule:evenodd;"
d="M 78.2182,109.8719
77.8788,109.5325
78.2819,109.4688
Z" /> 
</g>
<g style="fill:#E8B2A7; fill-opacity:0.0; 
stroke:#E8B2A7; stroke-width:0.1200; stroke-opacity:1; 
stroke-linecap:round; stroke-linejoin:round;">
<path d="M87.8766 84.3703
L87.8766 84.8797
" />
<path d="M86.8316 84.3703
L86.8316 84.8797
" />
<path d="M37.3091 80.6324
L39.0133 78.9282
" />
<path d="M39.0133 78.9282
L37.3091 77.2241
" />
<path d="M32.8473 84.6699
L27.4592 79.2818
" />
<path d="M38.5890 78.9282
L32.8473 84.6699
" />
<path d="M27.4592 79.2818
L33.2009 73.5401
" />
<path d="M33.2009 73.5401
L38.5890 78.9282
" />
<path d="M85.4438 96.8261
L85.6611 96.6088
" />
<path d="M85.9812 97.3635
L86.1985 97.1462
" />
<path d="M58.5115 92.3490
L58.7927 92.3490
" />
<path d="M58.5115 93.3690
L58.7927 93.3690
" />
<path d="M91.0641 98.7477
L91.2814 98.9649
" />
<path d="M90.5267 99.2851
L90.7440 99.5023
" />
<path d="M92.5741 72.1050
L92.5741 75.3650
" />
<path d="M92.5741 72.1050
L94.2741 72.1050
" />
<path d="M94.2741 72.1050
L94.2741 75.3650
" />
<path d="M93.6010 100.4781
L94.0606 100.9377
" />
<path d="M93.6010 100.4781
L93.1414 100.0185
" />
<path d="M95.8072 98.2719
L96.2668 98.7315
" />
<path d="M95.8072 98.2719
L95.3475 97.8123
" />
</g>
<g style="fill:#E8B2A7; fill-opacity:1.0000; 
stroke:#E8B2A7; stroke-width:0.1200; stroke-opacity:1; 
stroke-linecap:round; stroke-linejoin:round;">
<path style="fill:#E8B2A7; fill-opacity:1.0000; 
stroke:#E8B2A7; stroke-width:0.1200; stroke-opacity:1; 
stroke-linecap:round; stroke-linejoin:round;fill-rule:evenodd;"
d="M 96.9969,99.0656
96.5938,99.1293
96.6575,98.7262
Z" /> 
</g>
<g style="fill:#E8B2A7; fill-opacity:0.0; 
stroke:#E8B2A7; stroke-width:0.1200; stroke-opacity:1; 
stroke-linecap:round; stroke-linejoin:round;">
<path d="M64.1441 48.5050
L68.1541 48.5050
" />
<path d="M64.1441 50.5050
L64.1441 48.5050
" />
<path d="M64.1441 50.5050
L68.1541 50.5050
" />
<path d="M90.0319 69.4250
L89.8162 69.4250
" />
<path d="M90.0319 68.7050
L89.8162 68.7050
" />
<path d="M57.5351 74.9394
L57.5351 75.2466
" />
<path d="M56.7751 74.9394
L56.7751 75.2466
" />
<path d="M94.7576 49.3744
L94.9749 49.1571
" />
<path d="M95.2950 49.9118
L95.5123 49.6945
" />
<path d="M66.8441 52.2550
L70.1041 52.2550
" />
<path d="M66.8441 53.9550
L66.8441 52.2550
" />
<path d="M66.8441 53.9550
L70.1041 53.9550
" />
<path d="M54.7954 92.6250
L55.1027 92.6250
" />
<path d="M54.7954 93.3850
L55.1027 93.3850
" />
<path d="M74.5541 3.8750
L68.3541 3.8750
" />
<path d="M74.5541 3.4150
L74.5541 3.8750
" />
<path d="M74.5541 0.6350
L75.5541 0.6350
" />
<path d="M74.5541 0.1750
L74.5541 0.6350
" />
<path d="M68.3541 3.4150
L68.3541 3.8750
" />
<path d="M68.3541 0.1750
L74.5541 0.1750
" />
<path d="M68.3541 0.1750
L68.3541 0.6350
" />
<path d="M72.9541 1.4750
L70.1041 1.4750
" />
<path d="M70.1041 1.4750
L70.1041 2.5250
" />
<path d="M70.1041 2.5250
L72.9541 2.5250
" />
<path d="M72.9541 2.5250
L72.9541 1.4750
" />
</g>
<g style="fill:#E8B2A7; fill-opacity:0.0; 
stroke:#E8B2A7; stroke-width:0.1524; stroke-opacity:1; 
stroke-linecap:round; stroke-linejoin:round;">
<path d="M64.1223 111.5335
L75.0825 122.4936
" />
<path d="M75.0840 122.4963
L71.5469 126.0291
" />
<path d="M71.5469 126.0291
L60.5868 115.0690
" />
</g>
<g style="fill:#E8B2A7; fill-opacity:0.0; 
stroke:#E8B2A7; stroke-width:0.1200; stroke-opacity:1; 
stroke-linecap:round; stroke-linejoin:round;">
<path d="M66.9154 121.3976
L70.4509 117.8621
" />
<path d="M65.2183 119.7005
L68.7539 116.1650
" />
</g>
<g style="fill:#E8B2A7; fill-opacity:0.0; 
stroke:#E8B2A7; stroke-width:0.1524; stroke-opacity:1; 
stroke-linecap:round; stroke-linejoin:round;">
<path d="M60.5868 115.0690
L64.1218 111.5340
" />
</g>
<g style="fill:#E8B2A7; fill-opacity:1.0000; 
stroke:#E8B2A7; stroke-width:0.0000; stroke-opacity:1; 
stroke-linecap:round; stroke-linejoin:round;">
<circle cx="67.3580" cy="111.6579" r="0.4540" /> 
</g>
<g style="fill:#E8B2A7; fill-opacity:1.0000; 
stroke:#E8B2A7; stroke-width:0.1200; stroke-opacity:1; 
stroke-linecap:round; stroke-linejoin:round;">
</g>
<g style="fill:#E8B2A7; fill-opacity:0.0; 
stroke:#E8B2A7; stroke-width:0.1200; stroke-opacity:1; 
stroke-linecap:round; stroke-linejoin:round;">
<path d="M52.0105 71.0010
L50.0605 71.0010
" />
<path d="M52.0105 71.0010
L53.9605 71.0010
" />
<path d="M52.0105 76.1210
L50.0605 76.1210
" />
<path d="M52.0105 76.1210
L53.9605 76.1210
" />
</g>
<g style="fill:#E8B2A7; fill-opacity:1.0000; 
stroke:#E8B2A7; stroke-width:0.1200; stroke-opacity:1; 
stroke-linecap:round; stroke-linejoin:round;">
<path style="fill:#E8B2A7; fill-opacity:1.0000; 
stroke:#E8B2A7; stroke-width:0.1200; stroke-opacity:1; 
stroke-linecap:round; stroke-linejoin:round;fill-rule:evenodd;"
d="M 49.5505,76.3560
49.0705,76.3560
49.3105,76.0260
Z" /> 
</g>
<g style="fill:#E8B2A7; fill-opacity:0.0; 
stroke:#E8B2A7; stroke-width:0.1200; stroke-opacity:1; 
stroke-linecap:round; stroke-linejoin:round;">
<path d="M80.6666 104.2623
L80.6666 103.7877
" />
<path d="M79.6216 104.2623
L79.6216 103.7877
" />
<path d="M109.4314 62.3851
L109.2141 62.6023
" />
<path d="M108.8940 61.8477
L108.6767 62.0649
" />
<path d="M75.2741 62.0786
L75.2741 61.7714
" />
<path d="M76.0341 62.0786
L76.0341 61.7714
" />
<path d="M89.4434 54.7886
L89.6607 54.5713
" />
<path d="M89.9808 55.3260
L90.1981 55.1087
" />
<path d="M98.6641 104.7750
L95.4041 104.7750
" />
<path d="M98.6641 103.0750
L98.6641 104.7750
" />
<path d="M98.6641 103.0750
L95.4041 103.0750
" />
<path d="M98.3072 95.7719
L97.8475 95.3123
" />
<path d="M98.3072 95.7719
L98.7668 96.2315
" />
<path d="M96.1010 97.9781
L95.6414 97.5185
" />
<path d="M96.1010 97.9781
L96.5606 98.4377
" />
</g>
<g style="fill:#E8B2A7; fill-opacity:1.0000; 
stroke:#E8B2A7; stroke-width:0.1200; stroke-opacity:1; 
stroke-linecap:round; stroke-linejoin:round;">
<path style="fill:#E8B2A7; fill-opacity:1.0000; 
stroke:#E8B2A7; stroke-width:0.1200; stroke-opacity:1; 
stroke-linecap:round; stroke-linejoin:round;fill-rule:evenodd;"
d="M 95.2507,97.5238
94.9113,97.1844
95.3143,97.1207
Z" /> 
</g>
<g style="fill:#E8B2A7; fill-opacity:0.0; 
stroke:#E8B2A7; stroke-width:0.1200; stroke-opacity:1; 
stroke-linecap:round; stroke-linejoin:round;">
<path d="M76.8814 109.3399
L75.1773 107.6358
" />
<path d="M75.1773 107.6358
L73.4732 109.3399
" />
<path d="M80.9190 113.8018
L75.5309 119.1899
" />
<path d="M75.1773 108.0601
L80.9190 113.8018
" />
<path d="M75.5309 119.1899
L69.7892 113.4482
" />
<path d="M69.7892 113.4482
L75.1773 108.0601
" />
<path d="M1.7423 36.7175
L1.2677 36.7175
" />
<path d="M1.7423 35.6725
L1.2677 35.6725
" />
<path d="M85.9940 109.7023
L85.7767 109.4851
" />
<path d="M86.5314 109.1649
L86.3141 108.9477
" />
<path d="M61.2741 55.4486
L61.2741 55.1414
" />
<path d="M62.0341 55.4486
L62.0341 55.1414
" />
<path d="M79.2291 57.3350
L77.0791 57.3350
" />
<path d="M78.6791 54.1150
L77.0791 54.1150
" />
<path d="M77.0791 56.4250
L77.0791 57.3350
" />
<path d="M77.0791 54.1150
L77.0791 55.0250
" />
</g>
<g style="fill:#E8B2A7; fill-opacity:1.0000; 
stroke:#E8B2A7; stroke-width:0.1200; stroke-opacity:1; 
stroke-linecap:round; stroke-linejoin:round;">
<path style="fill:#E8B2A7; fill-opacity:1.0000; 
stroke:#E8B2A7; stroke-width:0.1200; stroke-opacity:1; 
stroke-linecap:round; stroke-linejoin:round;fill-rule:evenodd;"
d="M 79.1791,54.1650
78.9391,53.8350
79.4191,53.8350
Z" /> 
</g>
<g style="fill:#E8B2A7; fill-opacity:0.0; 
stroke:#E8B2A7; stroke-width:0.1200; stroke-opacity:1; 
stroke-linecap:round; stroke-linejoin:round;">
<path d="M79.2841 103.6886
L79.2841 103.3814
" />
<path d="M78.5241 103.6886
L78.5241 103.3814
" />
</g>
<g style="fill:#E8B2A7; fill-opacity:1.0000; 
stroke:#E8B2A7; stroke-width:0.1200; stroke-opacity:1; 
stroke-linecap:round; stroke-linejoin:round;">
<path style="fill:#E8B2A7; fill-opacity:1.0000; 
stroke:#E8B2A7; stroke-width:0.1200; stroke-opacity:1; 
stroke-linecap:round; stroke-linejoin:round;fill-rule:evenodd;"
d="M 85.5316,70.8850
85.2016,71.1250
85.2016,70.6450
Z" /> 
</g>
<g style="fill:#E8B2A7; fill-opacity:0.0; 
stroke:#E8B2A7; stroke-width:0.1200; stroke-opacity:1; 
stroke-linecap:round; stroke-linejoin:round;">
<path d="M85.4316 75.9250
L86.6916 75.9250
" />
<path d="M92.2516 75.9250
L90.9916 75.9250
" />
<path d="M85.4316 72.1650
L85.4316 75.9250
" />
<path d="M92.2516 72.1650
L92.2516 75.9250
" />
<path d="M126.6077 76.3050
L126.3004 76.3050
" />
<path d="M126.6077 75.5450
L126.3004 75.5450
" />
<path d="M93.4141 50.7179
L93.6314 50.5006
" />
<path d="M93.9515 51.2553
L94.1688 51.0380
" />
<path d="M24.2441 77.7350
L24.2441 69.5150
" />
<path d="M24.6941 77.7350
L24.2441 77.7350
" />
<path d="M28.2141 77.7350
L28.6641 77.7350
" />
<path d="M28.6641 77.7350
L28.6641 76.7850
" />
<path d="M28.6641 76.7850
L30.1541 76.7850
" />
<path d="M24.2441 69.5150
L24.6941 69.5150
" />
<path d="M28.2141 69.5150
L28.6641 69.5150
" />
<path d="M28.6641 69.5150
L28.6641 70.4650
" />
<path d="M83.0002 87.9450
L82.6929 87.9450
" />
<path d="M83.0002 87.1850
L82.6929 87.1850
" />
<path d="M61.2041 92.6472
L61.2041 92.8628
" />
<path d="M60.4841 92.6472
L60.4841 92.8628
" />
<path d="M87.7319 69.4250
L87.5162 69.4250
" />
<path d="M87.7319 68.7050
L87.5162 68.7050
" />
<path d="M105.6007 66.6177
L103.8966 68.3218
" />
<path d="M103.8966 68.3218
L105.6007 70.0260
" />
<path d="M110.0626 62.5801
L115.4507 67.9683
" />
<path d="M104.3209 68.3218
L110.0626 62.5801
" />
<path d="M115.4507 67.9683
L109.7090 73.7100
" />
<path d="M109.7090 73.7100
L104.3209 68.3218
" />
<path d="M76.2941 1.7328
L76.2941 1.5172
" />
<path d="M77.0141 1.7328
L77.0141 1.5172
" />
<path d="M73.0004 53.0450
L73.3077 53.0450
" />
<path d="M73.0004 53.8050
L73.3077 53.8050
" />
<path d="M99.6141 95.6477
L99.8314 95.8649
" />
<path d="M99.0767 96.1851
L99.2940 96.4023
" />
<path d="M72.0341 58.3914
L72.0341 58.6986
" />
<path d="M71.2741 58.3914
L71.2741 58.6986
" />
<path d="M57.4234 76.1570
L57.7307 76.1570
" />
<path d="M57.4234 76.9170
L57.7307 76.9170
" />
<path d="M100.0367 58.6627
L99.5770 58.2031
" />
<path d="M100.0367 58.6627
L100.4963 59.1224
" />
<path d="M97.8305 60.8689
L97.3709 60.4093
" />
<path d="M97.8305 60.8689
L98.2901 61.3285
" />
</g>
<g style="fill:#E8B2A7; fill-opacity:1.0000; 
stroke:#E8B2A7; stroke-width:0.1200; stroke-opacity:1; 
stroke-linecap:round; stroke-linejoin:round;">
<path style="fill:#E8B2A7; fill-opacity:1.0000; 
stroke:#E8B2A7; stroke-width:0.1200; stroke-opacity:1; 
stroke-linecap:round; stroke-linejoin:round;fill-rule:evenodd;"
d="M 96.9802,60.4146
96.6408,60.0752
97.0438,60.0115
Z" /> 
<path style="fill:#E8B2A7; fill-opacity:1.0000; 
stroke:#E8B2A7; stroke-width:0.1200; stroke-opacity:1; 
stroke-linecap:round; stroke-linejoin:round;fill-rule:evenodd;"
d="M 53.7421,81.0960
53.4121,81.3360
53.4121,80.8560
Z" /> 
</g>
<g style="fill:#E8B2A7; fill-opacity:0.0; 
stroke:#E8B2A7; stroke-width:0.1200; stroke-opacity:1; 
stroke-linecap:round; stroke-linejoin:round;">
<path d="M53.6471 83.7960
L53.6471 85.7460
" />
<path d="M53.6471 83.7960
L53.6471 81.8460
" />
<path d="M58.7671 83.7960
L58.7671 85.7460
" />
<path d="M58.7671 83.7960
L58.7671 81.8460
" />
<path d="M61.0331 58.8864
L61.0331 59.1936
" />
<path d="M60.2731 58.8864
L60.2731 59.1936
" />
<path d="M68.1641 48.1550
L64.9041 48.1550
" />
<path d="M68.1641 46.4550
L68.1641 48.1550
" />
<path d="M68.1641 46.4550
L64.9041 46.4550
" />
<path d="M61.7054 51.0250
L62.0127 51.0250
" />
<path d="M61.7054 51.7850
L62.0127 51.7850
" />
<path d="M90.1841 79.7672
L90.1841 79.9828
" />
<path d="M89.4641 79.7672
L89.4641 79.9828
" />
<path d="M126.7777 75.0050
L126.4704 75.0050
" />
<path d="M126.7777 74.2450
L126.4704 74.2450
" />
<path d="M59.9361 87.9010 A0.7000 0.7000 0.0 0 0 60.6361 88.6010" />
<path d="M61.2361 88.6010 A0.7000 0.7000 0.0 0 0 61.9361 87.9010" />
<path d="M60.6361 85.8010 A0.7000 0.7000 0.0 0 0 59.9361 86.5010" />
<path d="M61.9361 86.5010 A0.7000 0.7000 0.0 0 0 61.2361 85.8010" />
<path d="M60.6361 88.6010
L61.2361 88.6010
" />
<path d="M61.9361 87.9010
L61.9361 86.5010
" />
<path d="M59.9361 86.5010
L59.9361 87.9010
" />
<path d="M61.2361 85.8010
L60.6361 85.8010
" />
<path d="M58.9501 86.6494
L58.9501 86.9566
" />
<path d="M59.7101 86.6494
L59.7101 86.9566
" />
<path d="M63.9307 51.7850
L63.6234 51.7850
" />
<path d="M63.9307 51.0250
L63.6234 51.0250
" />
<path d="M54.7984 91.4390
L55.1057 91.4390
" />
<path d="M54.7984 90.6790
L55.1057 90.6790
" />
<path d="M76.5162 84.5850
L76.7319 84.5850
" />
<path d="M76.5162 85.3050
L76.7319 85.3050
" />
<path d="M89.6585 94.1600
L89.2891 94.5295
" />
<path d="M88.6191 93.1205
L88.2496 93.4900
" />
<path d="M57.2951 70.0750
L56.6951 70.0750
" />
<path d="M55.9951 70.7750
L55.9951 72.1750
" />
<path d="M57.9951 72.1750
L57.9951 70.7750
" />
<path d="M56.6951 72.8750
L57.2951 72.8750
" />
<path d="M57.9951 70.7750 A0.7000 0.7000 0.0 0 0 57.2951 70.0750" />
<path d="M56.6951 70.0750 A0.7000 0.7000 0.0 0 0 55.9951 70.7750" />
<path d="M57.2951 72.8750 A0.7000 0.7000 0.0 0 0 57.9951 72.1750" />
<path d="M55.9951 72.1750 A0.7000 0.7000 0.0 0 0 56.6951 72.8750" />
<path d="M50.1977 69.9550
L49.8904 69.9550
" />
<path d="M50.1977 70.7150
L49.8904 70.7150
" />
<path d="M89.9875 86.0154
L89.5279 86.4750
" />
<path d="M89.9875 86.0154
L90.4472 85.5557
" />
<path d="M92.1937 88.2215
L91.7341 88.6812
" />
<path d="M92.1937 88.2215
L92.6533 87.7619
" />
</g>
<g style="fill:#E8B2A7; fill-opacity:1.0000; 
stroke:#E8B2A7; stroke-width:0.1200; stroke-opacity:1; 
stroke-linecap:round; stroke-linejoin:round;">
<path style="fill:#E8B2A7; fill-opacity:1.0000; 
stroke:#E8B2A7; stroke-width:0.1200; stroke-opacity:1; 
stroke-linecap:round; stroke-linejoin:round;fill-rule:evenodd;"
d="M 91.7394,89.0718
91.4000,89.4112
91.3364,89.0082
Z" /> 
</g>
<g style="fill:#E8B2A7; fill-opacity:0.0; 
stroke:#E8B2A7; stroke-width:0.1200; stroke-opacity:1; 
stroke-linecap:round; stroke-linejoin:round;">
<path d="M54.7994 92.4170
L55.1067 92.4170
" />
<path d="M54.7994 91.6570
L55.1067 91.6570
" />
<path d="M70.7891 55.5637
L70.7891 56.0863
" />
<path d="M69.3191 55.5637
L69.3191 56.0863
" />
<path d="M67.4321 104.7554
L67.4321 105.0626
" />
<path d="M66.6721 104.7554
L66.6721 105.0626
" />
<path d="M126.6977 73.4050
L126.3904 73.4050
" />
<path d="M126.6977 72.6450
L126.3904 72.6450
" />
<path d="M89.8994 105.4554
L90.0519 105.6079
" />
<path d="M89.3903 105.9645
L89.5428 106.1170
" />
<path d="M81.3066 85.0950
L81.3066 85.7450
" />
<path d="M81.3066 85.0950
L81.3066 84.4450
" />
<path d="M84.4266 85.0950
L84.4266 85.7450
" />
<path d="M84.4266 85.0950
L84.4266 84.4450
" />
</g>
<g style="fill:#E8B2A7; fill-opacity:1.0000; 
stroke:#E8B2A7; stroke-width:0.1200; stroke-opacity:1; 
stroke-linecap:round; stroke-linejoin:round;">
<path style="fill:#E8B2A7; fill-opacity:1.0000; 
stroke:#E8B2A7; stroke-width:0.1200; stroke-opacity:1; 
stroke-linecap:round; stroke-linejoin:round;fill-rule:evenodd;"
d="M 84.7066,86.4975
84.3766,86.2575
84.7066,86.0175
Z" /> 
</g>
<g style="fill:#E8B2A7; fill-opacity:0.0; 
stroke:#E8B2A7; stroke-width:0.1200; stroke-opacity:1; 
stroke-linecap:round; stroke-linejoin:round;">
<path d="M89.1055 95.2467
L90.6258 93.7264
" />
<path d="M91.7713 97.1347
L92.9027 96.0033
" />
<path d="M91.2692 94.3699
L90.6258 93.7264
" />
<path d="M92.9027 96.0033
L92.2592 95.3598
" />
</g>
<g style="fill:#E8B2A7; fill-opacity:1.0000; 
stroke:#E8B2A7; stroke-width:0.1200; stroke-opacity:1; 
stroke-linecap:round; stroke-linejoin:round;">
<path style="fill:#E8B2A7; fill-opacity:1.0000; 
stroke:#E8B2A7; stroke-width:0.1200; stroke-opacity:1; 
stroke-linecap:round; stroke-linejoin:round;fill-rule:evenodd;"
d="M 91.7854,97.5165
91.4460,97.8559
91.3824,97.4529
Z" /> 
</g>
<g style="fill:#E8B2A7; fill-opacity:0.0; 
stroke:#E8B2A7; stroke-width:0.1500; stroke-opacity:1; 
stroke-linecap:round; stroke-linejoin:round;">
<circle cx="62.1541" cy="64.3250" r="1.2500" /> 
<circle cx="62.1541" cy="82.9250" r="1.2500" /> 
<circle cx="67.5841" cy="74.1250" r="1.9000" /> 
<path d="M70.9541 77.3750
L64.9541 77.3750
" />
<path d="M64.9541 77.3750
L64.9541 71.3750
" />
<path d="M64.9541 71.3750
L70.9541 71.3750
" />
<path d="M70.9541 71.3750
L70.9541 77.3750
" />
<path d="M83.4541 61.6250
L59.4541 61.6250
" />
<path d="M59.4541 61.6250
L59.4541 85.6250
" />
<path d="M59.4541 85.6250
L83.4541 85.6250
" />
<path d="M83.4541 85.6250
L83.4541 61.6250
" />
</g>
<g style="fill:#E8B2A7; fill-opacity:0.0; 
stroke:#E8B2A7; stroke-width:0.1200; stroke-opacity:1; 
stroke-linecap:round; stroke-linejoin:round;">
<path d="M60.0431 90.6956
L60.0431 90.4144
" />
<path d="M61.0631 90.6956
L61.0631 90.4144
" />
<path d="M56.5461 74.9812
L56.5461 75.1968
" />
<path d="M55.8261 74.9812
L55.8261 75.1968
" />
<path d="M60.4921 98.8168
L60.4921 98.6012
" />
<path d="M61.2121 98.8168
L61.2121 98.6012
" />
<path d="M118.6641 69.5150
L118.6641 77.7350
" />
<path d="M118.2141 69.5150
L118.6641 69.5150
" />
<path d="M114.6941 69.5150
L114.2441 69.5150
" />
<path d="M114.2441 69.5150
L114.2441 70.4650
" />
<path d="M114.2441 70.4650
L112.7541 70.4650
" />
<path d="M118.6641 77.7350
L118.2141 77.7350
" />
<path d="M114.6941 77.7350
L114.2441 77.7350
" />
<path d="M114.2441 77.7350
L114.2441 76.7850
" />
<path d="M95.6466 48.6036
L95.4294 48.3864
" />
<path d="M96.1840 48.0662
L95.9668 47.8490
" />
<path d="M57.8951 88.8590
L57.2451 88.8590
" />
<path d="M57.8951 88.8590
L58.5451 88.8590
" />
<path d="M57.8951 91.9790
L57.2451 91.9790
" />
<path d="M57.8951 91.9790
L58.5451 91.9790
" />
</g>
<g style="fill:#E8B2A7; fill-opacity:1.0000; 
stroke:#E8B2A7; stroke-width:0.1200; stroke-opacity:1; 
stroke-linecap:round; stroke-linejoin:round;">
<path style="fill:#E8B2A7; fill-opacity:1.0000; 
stroke:#E8B2A7; stroke-width:0.1200; stroke-opacity:1; 
stroke-linecap:round; stroke-linejoin:round;fill-rule:evenodd;"
d="M 56.9726,92.2590
56.4926,92.2590
56.7326,91.9290
Z" /> 
</g>
<g style="fill:#E8B2A7; fill-opacity:0.0; 
stroke:#E8B2A7; stroke-width:0.1200; stroke-opacity:1; 
stroke-linecap:round; stroke-linejoin:round;">
<path d="M53.8781 78.2030
L53.8781 78.8530
" />
<path d="M53.8781 78.2030
L53.8781 77.5530
" />
<path d="M56.9981 78.2030
L56.9981 78.8530
" />
<path d="M56.9981 78.2030
L56.9981 77.5530
" />
</g>
<g style="fill:#E8B2A7; fill-opacity:1.0000; 
stroke:#E8B2A7; stroke-width:0.1200; stroke-opacity:1; 
stroke-linecap:round; stroke-linejoin:round;">
<path style="fill:#E8B2A7; fill-opacity:1.0000; 
stroke:#E8B2A7; stroke-width:0.1200; stroke-opacity:1; 
stroke-linecap:round; stroke-linejoin:round;fill-rule:evenodd;"
d="M 57.2781,79.6055
56.9481,79.3655
57.2781,79.1255
Z" /> 
</g>
<g style="fill:#E8B2A7; fill-opacity:0.0; 
stroke:#E8B2A7; stroke-width:0.1200; stroke-opacity:1; 
stroke-linecap:round; stroke-linejoin:round;">
<path d="M87.8766 80.8703
L87.8766 81.3797
" />
<path d="M86.8316 80.8703
L86.8316 81.3797
" />
<path d="M62.5941 49.9128
L62.5941 49.6972
" />
<path d="M63.3141 49.9128
L63.3141 49.6972
" />
<path d="M65.3077 46.1850
L65.0004 46.1850
" />
<path d="M65.3077 45.4250
L65.0004 45.4250
" />
<path d="M61.2931 59.1478
L61.2931 58.9322
" />
<path d="M62.0131 59.1478
L62.0131 58.9322
" />
<path d="M59.2764 118.6048
L56.9712 120.9099
" />
<path d="M58.0743 117.4027
L59.2764 118.6048
" />
<path d="M58.0743 117.4027
L55.7692 119.7078
" />
<path d="M87.4704 67.6850
L87.7777 67.6850
" />
<path d="M87.4704 68.4450
L87.7777 68.4450
" />
<path d="M92.0441 97.4638
L92.2429 97.2650
" />
<path d="M92.7653 98.1850
L92.9641 97.9862
" />
<path d="M94.8314 96.2851
L94.6141 96.5023
" />
<path d="M94.2940 95.7477
L94.0767 95.9649
" />
<path d="M56.8241 92.9514
L56.8241 93.2586
" />
<path d="M56.0641 92.9514
L56.0641 93.2586
" />
<path d="M102.2077 104.8050
L101.9004 104.8050
" />
<path d="M102.2077 104.0450
L101.9004 104.0450
" />
<path d="M71.2741 54.1286
L71.2741 53.8214
" />
<path d="M72.0341 54.1286
L72.0341 53.8214
" />
<path d="M54.8452 88.3250
L55.0609 88.3250
" />
<path d="M54.8452 87.6050
L55.0609 87.6050
" />
<path d="M100.4620 56.6241
L100.2448 56.8414
" />
<path d="M99.9246 56.0867
L99.7073 56.3040
" />
<path d="M96.6547 61.7438
L96.3192 61.4082
" />
<path d="M97.3937 61.0049
L97.0581 60.6693
" />
<path d="M57.0177 88.6250
L56.7104 88.6250
" />
<path d="M57.0177 87.8650
L56.7104 87.8650
" />
<path d="M57.7381 74.2336
L57.7381 73.9264
" />
<path d="M58.4981 74.2336
L58.4981 73.9264
" />
<path d="M62.9421 88.0990
L62.9421 88.7990
" />
<path d="M62.9421 102.3190
L62.9421 101.6190
" />
<path d="M63.6421 88.0990
L62.9421 88.0990
" />
<path d="M63.6421 102.3190
L62.9421 102.3190
" />
<path d="M76.4621 88.0990
L77.1621 88.0990
" />
<path d="M76.4621 102.3190
L77.1621 102.3190
" />
<path d="M77.1621 88.0990
L77.1621 88.7990
" />
<path d="M77.1621 102.3190
L77.1621 101.6190
" />
</g>
<g style="fill:#E8B2A7; fill-opacity:1.0000; 
stroke:#E8B2A7; stroke-width:0.1200; stroke-opacity:1; 
stroke-linecap:round; stroke-linejoin:round;">
<path style="fill:#E8B2A7; fill-opacity:1.0000; 
stroke:#E8B2A7; stroke-width:0.1200; stroke-opacity:1; 
stroke-linecap:round; stroke-linejoin:round;fill-rule:evenodd;"
d="M 62.6546,102.0890
61.9746,102.0890
62.3146,101.6190
Z" /> 
</g>
<g style="fill:#E8B2A7; fill-opacity:0.0; 
stroke:#E8B2A7; stroke-width:0.1200; stroke-opacity:1; 
stroke-linecap:round; stroke-linejoin:round;">
<path d="M61.2121 96.7012
L61.2121 96.9168
" />
<path d="M60.4921 96.7012
L60.4921 96.9168
" />
<path d="M96.3001 47.8854
L96.1476 47.7328
" />
<path d="M96.8093 47.3762
L96.6568 47.2237
" />
<path d="M58.7927 99.0690
L58.5115 99.0690
" />
<path d="M58.7927 98.0490
L58.5115 98.0490
" />
<path d="M97.1641 92.6477
L97.3814 92.8649
" />
<path d="M96.6267 93.1851
L96.8440 93.4023
" />
<path d="M95.4267 94.6149
L95.6440 94.3977
" />
<path d="M95.9641 95.1523
L96.1814 94.9351
" />
<path d="M96.2239 54.3852
L97.6027 55.7641
" />
<path d="M96.2239 54.3852
L94.8450 53.0063
" />
<path d="M99.8443 50.7648
L101.2231 52.1437
" />
<path d="M99.8443 50.7648
L98.4654 49.3859
" />
</g>
<g style="fill:#E8B2A7; fill-opacity:1.0000; 
stroke:#E8B2A7; stroke-width:0.1200; stroke-opacity:1; 
stroke-linecap:round; stroke-linejoin:round;">
<path style="fill:#E8B2A7; fill-opacity:1.0000; 
stroke:#E8B2A7; stroke-width:0.1200; stroke-opacity:1; 
stroke-linecap:round; stroke-linejoin:round;fill-rule:evenodd;"
d="M 102.0893,52.6775
101.6863,52.7412
101.7499,52.3381
Z" /> 
</g>
<g style="fill:#E8B2A7; fill-opacity:0.0; 
stroke:#E8B2A7; stroke-width:0.1200; stroke-opacity:1; 
stroke-linecap:round; stroke-linejoin:round;">
<path d="M126.6977 71.4150
L126.3904 71.4150
" />
<path d="M126.6977 70.6550
L126.3904 70.6550
" />
<path d="M1.6456 31.6850
L1.3644 31.6850
" />
<path d="M1.6456 30.6650
L1.3644 30.6650
" />
<g >
</g>
<g >
</g>
<g >
</g>
<g >
</g>
<g >
</g>
<g >
</g>
<g >
</g>
<g >
</g>
<g >
</g>
<g >
</g>
<g >
</g>
<g >
</g>
<g >
</g>
<g >
</g>
<g >
</g>
<g >
</g>
<g >
</g>
<g >
</g>
<g >
</g>
<g >
</g>
<g >
</g>
<g >
</g>
<g >
</g>
<g >
</g>
<g >
</g>
<g >
</g>
<g >
</g>
<g >
</g>
<g >
</g>
<g >
</g>
<g >
</g>
<g >
</g>
<g >
</g>
<g >
</g>
<g >
</g>
<g >
</g>
<g >
</g>
<g >
</g>
<g >
</g>
<g >
</g>
<g >
</g>
<g >
</g>
<g >
</g>
<g >
</g>
<g >
</g>
<g >
</g>
<g >
</g>
<g >
</g>
<g >
</g>
<g >
</g>
<g >
</g>
<g >
</g>
<g >
</g>
<g >
</g>
<g >
</g>
<g >
</g>
<g >
</g>
<g >
</g>
<g >
</g>
<g >
</g>
<g >
</g>
<g >
</g>
<g >
</g>
<g >
</g>
<g >
</g>
<g >
</g>
<g >
</g>
<g >
</g>
<g >
</g>
<g >
</g>
<g >
</g>
<g >
</g>
<g >
</g>
<g >
</g>
<g >
</g>
<g >
</g>
<g >
</g>
<g >
</g>
<g >
</g>
<g >
</g>
<g >
</g>
<g >
</g>
<g >
</g>
<g >
</g>
<g >
</g>
<g >
</g>
<g >
</g>
<g >
</g>
<g >
</g>
<g >
</g>
<g >
</g>
<g >
</g>
<g >
</g>
<g >
</g>
<g >
</g>
<g >
</g>
<g >
</g>
<g >
</g>
<g >
</g>
<g >
</g>
<g >
</g>
<g >
</g>
<g >
</g>
<g >
</g>
<g >
</g>
<g >
</g>
<g >
</g>
<g >
</g>
<g >
</g>
<g >
</g>
<g >
</g>
<g >
</g>
<g >
</g>
<g >
</g>
<g >
</g>
<g >
</g>
<g >
</g>
<g >
</g>
<g >
</g>
<g >
</g>
<g >
</g>
<g >
</g>
<g >
</g>
<g >
</g>
<g >
</g>
<g >
</g>
<g >
</g>
<g >
</g>
<g >
</g>
<g >
</g>
<g >
</g>
<g >
</g>
<g >
</g>
<g >
</g>
<g >
</g>
<g >
</g>
<g >
</g>
<g >
</g>
<g >
</g>
<g >
</g>
<g >
</g>
<g >
</g>
<g >
</g>
<g >
</g>
<g >
</g>
<g >
</g>
<g >
</g>
<g >
</g>
<g >
</g>
<g >
</g>
<g >
</g>
<g >
</g>
<g >
</g>
<g >
</g>
<g >
</g>
<g >
</g>
<g >
</g>
<g >
</g>
<g >
</g>
<g >
</g>
<g >
</g>
<g >
</g>
<g >
</g>
<g >
</g>
<g >
</g>
<g >
</g>
<g >
</g>
<g >
</g>
<g >
</g>
<g >
</g>
<g >
</g>
<g >
</g>
<g >
</g>
<g >
</g>
<g >
</g>
<g >
</g>
<g >
</g>
<g >
</g>
<g >
</g>
<g >
</g>
<g >
</g>
<g >
</g>
<g >
</g>
<g >
</g>
<g >
</g>
<g >
</g>
<g >
</g>
</g>
<g style="fill:#000000; fill-opacity:0.0; 
stroke:#000000; stroke-width:0.1200; stroke-opacity:1; 
stroke-linecap:round; stroke-linejoin:round;">
</g>
<g style="fill:#D0D2CD; fill-opacity:0.0; 
stroke:#D0D2CD; stroke-width:0.1200; stroke-opacity:1; 
stroke-linecap:round; stroke-linejoin:round;">
</g>
<g style="fill:#D0D2CD; fill-opacity:0.0; 
stroke:#D0D2CD; stroke-width:0.2000; stroke-opacity:1; 
stroke-linecap:round; stroke-linejoin:round;">
<circle cx="84.2947" cy="104.6250" r="1.1000" /> 
<path d="M121.6587 71.5037
L85.5255 35.3705
" />
<circle cx="58.6135" cy="42.6250" r="1.1000" /> 
<path d="M121.6587 75.7463 A3.0000 3.0000 0.0 0 0 121.6587 71.5037" />
<path d="M85.5255 31.1279
L97.5463 19.1071
" />
<path d="M61.2052 0.2637 A3.0000 3.0000 0.0 0 0 59.0839 1.1424" />
<path d="M57.3827 35.3705
L21.2495 71.5037
" />
<path d="M71.4541 125.9509
L121.6587 75.7463
" />
<path d="M81.7030 0.2637
L61.2052 0.2637
" />
<circle cx="40.4541" cy="60.7844" r="1.1000" /> 
<circle cx="102.4541" cy="86.4656" r="1.1000" /> 
<circle cx="95.4250" cy="16.9857" r="1.1000" /> 
<path d="M83.8243 1.1424 A3.0001 3.0001 0.0 0 0 81.7030 0.2637" />
<path d="M85.5255 31.1279 A3.0000 3.0000 0.0 0 0 85.5255 35.3705" />
<path d="M45.3618 19.1071
L57.3827 31.1279
" />
<path d="M59.0839 1.1424
L45.3618 14.8644
" />
<path d="M97.5463 14.8644
L83.8243 1.1424
" />
<path d="M45.3618 14.8644 A3.0000 3.0000 0.0 0 0 45.3618 19.1071" />
</g>
<g style="fill:#D0D2CD; fill-opacity:0.0; 
stroke:#D0D2CD; stroke-width:0.1500; stroke-opacity:1; 
stroke-linecap:round; stroke-linejoin:round;">
<path style="fill:#D0D2CD; fill-opacity:0.0; 
stroke:#D0D2CD; stroke-width:0.1500; stroke-opacity:1; 
stroke-linecap:round; stroke-linejoin:round;fill:none"
d="M 74.4541,86.1250
64.9541,86.1250
58.9541,80.1250
58.9541,67.1250
64.9541,61.1250
74.4541,61.1250
Z" /> 
</g>
<g style="fill:#D0D2CD; fill-opacity:0.0; 
stroke:#D0D2CD; stroke-width:0.2000; stroke-opacity:1; 
stroke-linecap:round; stroke-linejoin:round;">
<path d="M21.2495 75.7463
L71.4541 125.9509
" />
<path d="M97.5463 19.1071 A3.0000 3.0000 0.0 0 0 97.5463 14.8644" />
<circle cx="47.4832" cy="16.9857" r="1.1000" /> 
<path d="M21.2495 71.5037 A3.0000 3.0000 0.0 0 0 21.2495 75.7463" />
<path d="M57.3827 35.3705 A3.0000 3.0000 0.0 0 0 57.3827 31.1279" />
<g >
</g>
<g >
</g>
<g >
</g>
<g >
</g>
<g >
</g>
<g >
</g>
<g >
</g>
<g >
</g>
<g >
</g>
<g >
</g>
<g >
</g>
<g >
</g>
<g >
</g>
<g >
</g>
<g >
</g>
<g >
</g>
<g >
</g>
<g >
</g>
<g >
</g>
<g >
</g>
<g >
</g>
<g >
</g>
<g >
</g>
<g >
</g>
<g >
</g>
<g >
</g>
<g >
</g>
<g >
</g>
<g >
</g>
<g >
</g>
<g >
</g>
<g >
</g>
<g >
</g>
<g >
</g>
<g >
</g>
<g >
</g>
<g >
</g>
<g >
</g>
<g >
</g>
<g >
</g>
<g >
</g>
<g >
</g>
<g >
</g>
<g >
</g>
<g >
</g>
<g >
</g>
<g >
</g>
<g >
</g>
<g >
</g>
<g >
</g>
<g >
</g>
<g >
</g>
<g >
</g>
<g >
</g>
<g >
</g>
<g >
</g>
<g >
</g>
<g >
</g>
<g >
</g>
<g >
</g>
<g >
</g>
<g >
</g>
<g >
</g>
<g >
</g>
<g >
</g>
<g >
</g>
<g >
</g>
<g >
</g>
<g >
</g>
<g >
</g>
<g >
</g>
<g >
</g>
<g >
</g>
<g >
</g>
<g >
</g>
<g >
</g>
<g >
</g>
<g >
</g>
<g >
</g>
<g >
</g>
<g >
</g>
<g >
</g>
<g >
</g>
<g >
</g>
<g >
</g>
<g >
</g>
<g >
</g>
<g >
</g>
<g >
</g>
<g >
</g>
<g >
</g>
<g >
</g>
<g >
</g>
<g >
</g>
<g >
</g>
<g >
</g>
<g >
</g>
<g >
</g>
<g >
</g>
<g >
</g>
<g >
</g>
<g >
</g>
<g >
</g>
<g >
</g>
<g >
</g>
<g >
</g>
<g >
</g>
<g >
</g>
<g >
</g>
<g >
</g>
<g >
</g>
<g >
</g>
<g >
</g>
<g >
</g>
<g >
</g>
<g >
</g>
<g >
</g>
<g >
</g>
<g >
</g>
<g >
</g>
<g >
</g>
<g >
</g>
<g >
</g>
<g >
</g>
<g >
</g>
<g >
</g>
<g >
</g>
<g >
</g>
<g >
</g>
<g >
</g>
<g >
</g>
<g >
</g>
<g >
</g>
<g >
</g>
<g >
</g>
<g >
</g>
<g >
</g>
<g >
</g>
<g >
</g>
<g >
</g>
<g >
</g>
<g >
</g>
<g >
</g>
<g >
</g>
<g >
</g>
<g >
</g>
<g >
</g>
<g >
</g>
<g >
</g>
<g >
</g>
<g >
</g>
<g >
</g>
<g >
</g>
<g >
</g>
<g >
</g>
<g >
</g>
<g >
</g>
<g >
</g>
<g >
</g>
<g >
</g>
<g >
</g>
<g >
</g>
<g >
</g>
<g >
</g>
<g >
</g>
<g >
</g>
<g >
</g>
<g >
</g>
<g >
</g>
<g >
</g>
<g >
</g>
<g >
</g>
<g >
</g>
<g >
</g>
<g >
</g>
<g >
</g>
<g >
</g>
<g >
</g>
<g >
</g>
<g >
</g>
<g >
</g>
<g >
</g>
<g >
</g>
<g >
</g>
<g >
</g>
<g >
</g>
<g >
</g>
</g> 
</svg>
