%TF.GenerationSoftware,KiCad,Pcbnew,7.0.11*%
%TF.CreationDate,2025-06-25T00:44:36+09:00*%
%TF.ProjectId,1stLayer_Power,3173744c-6179-4657-925f-506f7765722e,rev?*%
%TF.SameCoordinates,Original*%
%TF.FileFunction,Soldermask,Top*%
%TF.FilePolarity,Negative*%
%FSLAX46Y46*%
G04 Gerber Fmt 4.6, Leading zero omitted, Abs format (unit mm)*
G04 Created by KiCad (PCBNEW 7.0.11) date 2025-06-25 00:44:36*
%MOMM*%
%LPD*%
G01*
G04 APERTURE LIST*
G04 Aperture macros list*
%AMRoundRect*
0 Rectangle with rounded corners*
0 $1 Rounding radius*
0 $2 $3 $4 $5 $6 $7 $8 $9 X,Y pos of 4 corners*
0 Add a 4 corners polygon primitive as box body*
4,1,4,$2,$3,$4,$5,$6,$7,$8,$9,$2,$3,0*
0 Add four circle primitives for the rounded corners*
1,1,$1+$1,$2,$3*
1,1,$1+$1,$4,$5*
1,1,$1+$1,$6,$7*
1,1,$1+$1,$8,$9*
0 Add four rect primitives between the rounded corners*
20,1,$1+$1,$2,$3,$4,$5,0*
20,1,$1+$1,$4,$5,$6,$7,0*
20,1,$1+$1,$6,$7,$8,$9,0*
20,1,$1+$1,$8,$9,$2,$3,0*%
%AMRotRect*
0 Rectangle, with rotation*
0 The origin of the aperture is its center*
0 $1 length*
0 $2 width*
0 $3 Rotation angle, in degrees counterclockwise*
0 Add horizontal line*
21,1,$1,$2,0,0,$3*%
G04 Aperture macros list end*
%ADD10RoundRect,0.250001X0.799999X-1.999999X0.799999X1.999999X-0.799999X1.999999X-0.799999X-1.999999X0*%
%ADD11C,1.000000*%
%ADD12O,1.850000X1.700000*%
%ADD13RoundRect,0.250000X-0.675000X0.600000X-0.675000X-0.600000X0.675000X-0.600000X0.675000X0.600000X0*%
%ADD14O,1.700000X1.850000*%
%ADD15RoundRect,0.250000X0.600000X0.675000X-0.600000X0.675000X-0.600000X-0.675000X0.600000X-0.675000X0*%
%ADD16RotRect,1.000000X1.000000X352.500000*%
%ADD17RoundRect,0.200000X0.275000X-0.200000X0.275000X0.200000X-0.275000X0.200000X-0.275000X-0.200000X0*%
%ADD18RoundRect,0.200000X0.200000X0.275000X-0.200000X0.275000X-0.200000X-0.275000X0.200000X-0.275000X0*%
%ADD19RoundRect,0.237500X0.287500X0.237500X-0.287500X0.237500X-0.287500X-0.237500X0.287500X-0.237500X0*%
%ADD20RoundRect,0.225000X0.250000X-0.225000X0.250000X0.225000X-0.250000X0.225000X-0.250000X-0.225000X0*%
%ADD21RoundRect,0.250001X-0.799999X-1.249999X0.799999X-1.249999X0.799999X1.249999X-0.799999X1.249999X0*%
%ADD22RoundRect,0.200000X-0.200000X-0.450000X0.200000X-0.450000X0.200000X0.450000X-0.200000X0.450000X0*%
%ADD23RoundRect,0.200000X-0.200000X-0.275000X0.200000X-0.275000X0.200000X0.275000X-0.200000X0.275000X0*%
%ADD24R,3.800000X3.800000*%
%ADD25C,3.800000*%
%ADD26R,1.000000X1.000000*%
%ADD27C,2.000000*%
%ADD28O,1.000000X1.000000*%
%ADD29C,2.780000*%
%ADD30RoundRect,0.250000X-0.250000X-0.250000X0.250000X-0.250000X0.250000X0.250000X-0.250000X0.250000X0*%
%ADD31RotRect,1.000000X1.000000X7.500000*%
%ADD32C,0.800000*%
%ADD33C,6.400000*%
%ADD34RoundRect,0.150000X-0.150000X0.587500X-0.150000X-0.587500X0.150000X-0.587500X0.150000X0.587500X0*%
%ADD35RoundRect,0.250000X-0.600000X-0.675000X0.600000X-0.675000X0.600000X0.675000X-0.600000X0.675000X0*%
%ADD36RoundRect,0.300000X-0.550000X0.300000X-0.550000X-0.300000X0.550000X-0.300000X0.550000X0.300000X0*%
%ADD37O,1.700000X1.200000*%
%ADD38O,1.200000X2.800000*%
G04 APERTURE END LIST*
D10*
%TO.C,C4*%
X114770000Y-64510000D03*
X114770000Y-57310000D03*
%TD*%
D11*
%TO.C,H12*%
X152270000Y-89610000D03*
%TD*%
%TO.C,H17*%
X144770000Y-90810000D03*
%TD*%
D10*
%TO.C,C1*%
X142770000Y-64510000D03*
X142770000Y-57310000D03*
%TD*%
D12*
%TO.C,J5*%
X140570000Y-80460000D03*
D13*
X140570000Y-77960000D03*
%TD*%
D14*
%TO.C,J8*%
X104520000Y-93760000D03*
D15*
X107020000Y-93760000D03*
%TD*%
D16*
%TO.C,J2*%
X124228142Y-131635536D03*
D11*
X124062374Y-132894671D03*
X122969007Y-131469768D03*
X122803239Y-132728903D03*
X121709872Y-131303999D03*
X121544104Y-132563134D03*
X120450737Y-131138231D03*
X120284969Y-132397366D03*
X119191602Y-130972463D03*
X119025834Y-132231598D03*
X117932467Y-130806694D03*
X117766699Y-132065829D03*
X116673332Y-130640926D03*
X116507564Y-131900061D03*
%TD*%
D17*
%TO.C,R6*%
X130370000Y-60335000D03*
X130370000Y-58685000D03*
%TD*%
D18*
%TO.C,R7*%
X111195000Y-82410000D03*
X109545000Y-82410000D03*
%TD*%
D11*
%TO.C,H20*%
X100770000Y-89410000D03*
%TD*%
D17*
%TO.C,R9*%
X109670000Y-79435000D03*
X109670000Y-77785000D03*
%TD*%
D19*
%TO.C,D3*%
X129645000Y-70410000D03*
X127895000Y-70410000D03*
%TD*%
D20*
%TO.C,C3*%
X111170000Y-79385000D03*
X111170000Y-77835000D03*
%TD*%
D11*
%TO.C,H10*%
X116770000Y-89410000D03*
%TD*%
D21*
%TO.C,J10*%
X140895000Y-91110000D03*
X127045000Y-91110000D03*
D22*
X138345000Y-88360000D03*
X137095000Y-88360000D03*
X135845000Y-88360000D03*
X134595000Y-88360000D03*
X133345000Y-88360000D03*
X132095000Y-88360000D03*
X130845000Y-88360000D03*
X129595000Y-88360000D03*
%TD*%
D11*
%TO.C,H6*%
X108770000Y-89410000D03*
%TD*%
D23*
%TO.C,R8*%
X109545000Y-80910000D03*
X111195000Y-80910000D03*
%TD*%
D13*
%TO.C,J6*%
X115670000Y-77960000D03*
D12*
X115670000Y-80460000D03*
%TD*%
D24*
%TO.C,J4*%
X131270000Y-66310000D03*
D25*
X126270000Y-66310000D03*
%TD*%
D11*
%TO.C,H16*%
X146270000Y-89610000D03*
%TD*%
%TO.C,H18*%
X143270000Y-89610000D03*
%TD*%
%TO.C,H4*%
X104770000Y-89410000D03*
%TD*%
D18*
%TO.C,R11*%
X126345000Y-70410000D03*
X124695000Y-70410000D03*
%TD*%
D26*
%TO.C,H3*%
X102770000Y-89410000D03*
%TD*%
D11*
%TO.C,H22*%
X142270000Y-100010000D03*
%TD*%
%TO.C,H8*%
X112770000Y-89410000D03*
%TD*%
D27*
%TO.C,TP2*%
X137170000Y-73860000D03*
%TD*%
D11*
%TO.C,H7*%
X110770000Y-89410000D03*
%TD*%
D26*
%TO.C,H19*%
X98770000Y-89410000D03*
%TD*%
D11*
%TO.C,H14*%
X149270000Y-89610000D03*
%TD*%
D26*
%TO.C,J11*%
X148094920Y-109395000D03*
D28*
X148094920Y-110665000D03*
X148094920Y-111935000D03*
X148094920Y-113205000D03*
X148094920Y-114475000D03*
X148094920Y-115745000D03*
X148094920Y-117015000D03*
X148094920Y-118285000D03*
X148094920Y-119555000D03*
X148094920Y-120825000D03*
%TD*%
D11*
%TO.C,H15*%
X147770000Y-90810000D03*
%TD*%
D17*
%TO.C,R10*%
X108170000Y-79435000D03*
X108170000Y-77785000D03*
%TD*%
D21*
%TO.C,J7*%
X112695000Y-100810000D03*
X98845000Y-100810000D03*
D22*
X110145000Y-98060000D03*
X108895000Y-98060000D03*
X107645000Y-98060000D03*
X106395000Y-98060000D03*
X105145000Y-98060000D03*
X103895000Y-98060000D03*
X102645000Y-98060000D03*
X101395000Y-98060000D03*
%TD*%
D11*
%TO.C,H9*%
X114770000Y-89410000D03*
%TD*%
D26*
%TO.C,H21*%
X144270000Y-100010000D03*
%TD*%
D17*
%TO.C,R3*%
X126470000Y-60335000D03*
X126470000Y-58685000D03*
%TD*%
D11*
%TO.C,H13*%
X150770000Y-90810000D03*
%TD*%
D29*
%TO.C,F2*%
X133730000Y-81260000D03*
X133730000Y-77860000D03*
X123810000Y-81260000D03*
X123810000Y-77860000D03*
%TD*%
D30*
%TO.C,D2*%
X131520000Y-70410000D03*
X134020000Y-70410000D03*
%TD*%
D31*
%TO.C,J3*%
X140866669Y-130640927D03*
D11*
X141032437Y-131900062D03*
X139607534Y-130806695D03*
X139773302Y-132065830D03*
X138348399Y-130972464D03*
X138514167Y-132231599D03*
X137089264Y-131138232D03*
X137255032Y-132397367D03*
X135830129Y-131304000D03*
X135995897Y-132563135D03*
X134570994Y-131469769D03*
X134736762Y-132728904D03*
X133311859Y-131635537D03*
X133477627Y-132894672D03*
%TD*%
D27*
%TO.C,TP1*%
X143470000Y-72410000D03*
%TD*%
D11*
%TO.C,H5*%
X106770000Y-89410000D03*
%TD*%
D32*
%TO.C,H2*%
X116822000Y-68910000D03*
X117524944Y-67212944D03*
X117524944Y-70607056D03*
X119222000Y-66510000D03*
D33*
X119222000Y-68910000D03*
D32*
X119222000Y-71310000D03*
X120919056Y-67212944D03*
X120919056Y-70607056D03*
X121622000Y-68910000D03*
%TD*%
D23*
%TO.C,R5*%
X125945000Y-62410000D03*
X127595000Y-62410000D03*
%TD*%
D34*
%TO.C,Q1*%
X110220000Y-74272500D03*
X108320000Y-74272500D03*
X109270000Y-76147500D03*
%TD*%
D14*
%TO.C,J9*%
X136520000Y-100660000D03*
D35*
X134020000Y-100660000D03*
%TD*%
D32*
%TO.C,H1*%
X135920000Y-68910000D03*
X136622944Y-67212944D03*
X136622944Y-70607056D03*
X138320000Y-66510000D03*
D33*
X138320000Y-68910000D03*
D32*
X138320000Y-71310000D03*
X140017056Y-67212944D03*
X140017056Y-70607056D03*
X140720000Y-68910000D03*
%TD*%
D26*
%TO.C,H11*%
X153770000Y-90810000D03*
%TD*%
D36*
%TO.C,SW1*%
X124770000Y-60860000D03*
D37*
X128770000Y-60860000D03*
X132770000Y-60860000D03*
X124770000Y-58160000D03*
X128770000Y-58160000D03*
X132770000Y-58160000D03*
D38*
X137020000Y-59510000D03*
X120520000Y-59510000D03*
%TD*%
D26*
%TO.C,J1*%
X123580000Y-113209999D03*
D11*
X123580000Y-111939999D03*
X122310000Y-113209999D03*
X122310000Y-111939999D03*
X121040000Y-113209999D03*
X121040000Y-111939999D03*
X119770000Y-113209999D03*
X119770000Y-111939999D03*
X118500000Y-113209999D03*
X118500000Y-111939999D03*
X117230000Y-113209999D03*
X117230000Y-111939999D03*
X115960000Y-113209999D03*
X115960000Y-111939999D03*
%TD*%
M02*
