%TF.GenerationSoftware,KiCad,Pcbnew,7.0.11*%
%TF.CreationDate,2025-06-25T00:44:36+09:00*%
%TF.ProjectId,1stLayer_Power,3173744c-6179-4657-925f-506f7765722e,rev?*%
%TF.SameCoordinates,Original*%
%TF.FileFunction,Legend,Top*%
%TF.FilePolarity,Positive*%
%FSLAX46Y46*%
G04 Gerber Fmt 4.6, Leading zero omitted, Abs format (unit mm)*
G04 Created by KiCad (PCBNEW 7.0.11) date 2025-06-25 00:44:36*
%MOMM*%
%LPD*%
G01*
G04 APERTURE LIST*
G04 Aperture macros list*
%AMRoundRect*
0 Rectangle with rounded corners*
0 $1 Rounding radius*
0 $2 $3 $4 $5 $6 $7 $8 $9 X,Y pos of 4 corners*
0 Add a 4 corners polygon primitive as box body*
4,1,4,$2,$3,$4,$5,$6,$7,$8,$9,$2,$3,0*
0 Add four circle primitives for the rounded corners*
1,1,$1+$1,$2,$3*
1,1,$1+$1,$4,$5*
1,1,$1+$1,$6,$7*
1,1,$1+$1,$8,$9*
0 Add four rect primitives between the rounded corners*
20,1,$1+$1,$2,$3,$4,$5,0*
20,1,$1+$1,$4,$5,$6,$7,0*
20,1,$1+$1,$6,$7,$8,$9,0*
20,1,$1+$1,$8,$9,$2,$3,0*%
%AMRotRect*
0 Rectangle, with rotation*
0 The origin of the aperture is its center*
0 $1 length*
0 $2 width*
0 $3 Rotation angle, in degrees counterclockwise*
0 Add horizontal line*
21,1,$1,$2,0,0,$3*%
G04 Aperture macros list end*
%ADD10C,0.180000*%
%ADD11C,0.260000*%
%ADD12C,0.130000*%
%ADD13C,0.210000*%
%ADD14C,0.150000*%
%ADD15C,0.400000*%
%ADD16C,0.120000*%
%ADD17C,0.152400*%
%ADD18C,0.454000*%
%ADD19C,0.508000*%
%ADD20RoundRect,0.250001X0.799999X-1.999999X0.799999X1.999999X-0.799999X1.999999X-0.799999X-1.999999X0*%
%ADD21C,1.000000*%
%ADD22O,1.850000X1.700000*%
%ADD23RoundRect,0.250000X-0.675000X0.600000X-0.675000X-0.600000X0.675000X-0.600000X0.675000X0.600000X0*%
%ADD24O,1.700000X1.850000*%
%ADD25RoundRect,0.250000X0.600000X0.675000X-0.600000X0.675000X-0.600000X-0.675000X0.600000X-0.675000X0*%
%ADD26RotRect,1.000000X1.000000X352.500000*%
%ADD27RoundRect,0.200000X0.275000X-0.200000X0.275000X0.200000X-0.275000X0.200000X-0.275000X-0.200000X0*%
%ADD28RoundRect,0.200000X0.200000X0.275000X-0.200000X0.275000X-0.200000X-0.275000X0.200000X-0.275000X0*%
%ADD29RoundRect,0.237500X0.287500X0.237500X-0.287500X0.237500X-0.287500X-0.237500X0.287500X-0.237500X0*%
%ADD30RoundRect,0.225000X0.250000X-0.225000X0.250000X0.225000X-0.250000X0.225000X-0.250000X-0.225000X0*%
%ADD31RoundRect,0.250001X-0.799999X-1.249999X0.799999X-1.249999X0.799999X1.249999X-0.799999X1.249999X0*%
%ADD32RoundRect,0.200000X-0.200000X-0.450000X0.200000X-0.450000X0.200000X0.450000X-0.200000X0.450000X0*%
%ADD33RoundRect,0.200000X-0.200000X-0.275000X0.200000X-0.275000X0.200000X0.275000X-0.200000X0.275000X0*%
%ADD34R,3.800000X3.800000*%
%ADD35C,3.800000*%
%ADD36R,1.000000X1.000000*%
%ADD37C,2.000000*%
%ADD38O,1.000000X1.000000*%
%ADD39C,2.780000*%
%ADD40RoundRect,0.250000X-0.250000X-0.250000X0.250000X-0.250000X0.250000X0.250000X-0.250000X0.250000X0*%
%ADD41RotRect,1.000000X1.000000X7.500000*%
%ADD42C,0.800000*%
%ADD43C,6.400000*%
%ADD44RoundRect,0.150000X-0.150000X0.587500X-0.150000X-0.587500X0.150000X-0.587500X0.150000X0.587500X0*%
%ADD45RoundRect,0.250000X-0.600000X-0.675000X0.600000X-0.675000X0.600000X0.675000X-0.600000X0.675000X0*%
%ADD46RoundRect,0.300000X-0.550000X0.300000X-0.550000X-0.300000X0.550000X-0.300000X0.550000X0.300000X0*%
%ADD47O,1.700000X1.200000*%
%ADD48O,1.200000X2.800000*%
G04 APERTURE END LIST*
D10*
X123136666Y-64671693D02*
X122670000Y-63271693D01*
X122670000Y-63271693D02*
X122203333Y-64671693D01*
X121736666Y-63271693D02*
X121736666Y-64671693D01*
X121736666Y-64671693D02*
X121403333Y-64671693D01*
X121403333Y-64671693D02*
X121203333Y-64605026D01*
X121203333Y-64605026D02*
X121070000Y-64471693D01*
X121070000Y-64471693D02*
X121003333Y-64338360D01*
X121003333Y-64338360D02*
X120936666Y-64071693D01*
X120936666Y-64071693D02*
X120936666Y-63871693D01*
X120936666Y-63871693D02*
X121003333Y-63605026D01*
X121003333Y-63605026D02*
X121070000Y-63471693D01*
X121070000Y-63471693D02*
X121203333Y-63338360D01*
X121203333Y-63338360D02*
X121403333Y-63271693D01*
X121403333Y-63271693D02*
X121736666Y-63271693D01*
X120336666Y-63271693D02*
X120336666Y-64671693D01*
X120336666Y-64671693D02*
X120003333Y-64671693D01*
X120003333Y-64671693D02*
X119803333Y-64605026D01*
X119803333Y-64605026D02*
X119670000Y-64471693D01*
X119670000Y-64471693D02*
X119603333Y-64338360D01*
X119603333Y-64338360D02*
X119536666Y-64071693D01*
X119536666Y-64071693D02*
X119536666Y-63871693D01*
X119536666Y-63871693D02*
X119603333Y-63605026D01*
X119603333Y-63605026D02*
X119670000Y-63471693D01*
X119670000Y-63471693D02*
X119803333Y-63338360D01*
X119803333Y-63338360D02*
X120003333Y-63271693D01*
X120003333Y-63271693D02*
X120336666Y-63271693D01*
D11*
X128860476Y-55310805D02*
X127412857Y-55310805D01*
X129041428Y-53682234D02*
X127050952Y-53682234D01*
X129584285Y-52415567D02*
X126689047Y-52415567D01*
X129041428Y-54586996D02*
X129041428Y-53682234D01*
X129041428Y-54586996D02*
X127050952Y-54586996D01*
X127050952Y-54586996D02*
X127050952Y-53682234D01*
X130308095Y-56577472D02*
X130308095Y-53863186D01*
X130308095Y-53863186D02*
X129584285Y-53139377D01*
X127774762Y-56034615D02*
X126689047Y-54948900D01*
X126689047Y-56034615D02*
X127412857Y-55672710D01*
X129222381Y-56034615D02*
X128860476Y-55672710D01*
X128860476Y-55672710D02*
X129765238Y-54767948D01*
X127231904Y-56577472D02*
X127774762Y-56034615D01*
X128679523Y-53320329D02*
X128679523Y-52777472D01*
X127955714Y-56758424D02*
X127593809Y-55672710D01*
X127412857Y-53501281D02*
X127774762Y-52777472D01*
X129765238Y-55853662D02*
X130127142Y-55129853D01*
X130489047Y-53863186D02*
X131031904Y-52415567D01*
X129403333Y-56396520D02*
X128317619Y-56577472D01*
X128317619Y-56577472D02*
X128860476Y-55491758D01*
X130850952Y-55672710D02*
X131212857Y-54767948D01*
X130308095Y-54767948D02*
X130670000Y-52958424D01*
D10*
X137236666Y-64605026D02*
X137369999Y-64671693D01*
X137369999Y-64671693D02*
X137569999Y-64671693D01*
X137569999Y-64671693D02*
X137769999Y-64605026D01*
X137769999Y-64605026D02*
X137903333Y-64471693D01*
X137903333Y-64471693D02*
X137969999Y-64338360D01*
X137969999Y-64338360D02*
X138036666Y-64071693D01*
X138036666Y-64071693D02*
X138036666Y-63871693D01*
X138036666Y-63871693D02*
X137969999Y-63605026D01*
X137969999Y-63605026D02*
X137903333Y-63471693D01*
X137903333Y-63471693D02*
X137769999Y-63338360D01*
X137769999Y-63338360D02*
X137569999Y-63271693D01*
X137569999Y-63271693D02*
X137436666Y-63271693D01*
X137436666Y-63271693D02*
X137236666Y-63338360D01*
X137236666Y-63338360D02*
X137169999Y-63405026D01*
X137169999Y-63405026D02*
X137169999Y-63871693D01*
X137169999Y-63871693D02*
X137436666Y-63871693D01*
X136569999Y-63271693D02*
X136569999Y-64671693D01*
X136569999Y-64671693D02*
X135769999Y-63271693D01*
X135769999Y-63271693D02*
X135769999Y-64671693D01*
X135103332Y-63271693D02*
X135103332Y-64671693D01*
X135103332Y-64671693D02*
X134769999Y-64671693D01*
X134769999Y-64671693D02*
X134569999Y-64605026D01*
X134569999Y-64605026D02*
X134436666Y-64471693D01*
X134436666Y-64471693D02*
X134369999Y-64338360D01*
X134369999Y-64338360D02*
X134303332Y-64071693D01*
X134303332Y-64071693D02*
X134303332Y-63871693D01*
X134303332Y-63871693D02*
X134369999Y-63605026D01*
X134369999Y-63605026D02*
X134436666Y-63471693D01*
X134436666Y-63471693D02*
X134569999Y-63338360D01*
X134569999Y-63338360D02*
X134769999Y-63271693D01*
X134769999Y-63271693D02*
X135103332Y-63271693D01*
D12*
X140781904Y-74656521D02*
X140877142Y-74704140D01*
X140877142Y-74704140D02*
X141019999Y-74704140D01*
X141019999Y-74704140D02*
X141162856Y-74656521D01*
X141162856Y-74656521D02*
X141258094Y-74561283D01*
X141258094Y-74561283D02*
X141305713Y-74466045D01*
X141305713Y-74466045D02*
X141353332Y-74275569D01*
X141353332Y-74275569D02*
X141353332Y-74132712D01*
X141353332Y-74132712D02*
X141305713Y-73942236D01*
X141305713Y-73942236D02*
X141258094Y-73846998D01*
X141258094Y-73846998D02*
X141162856Y-73751760D01*
X141162856Y-73751760D02*
X141019999Y-73704140D01*
X141019999Y-73704140D02*
X140924761Y-73704140D01*
X140924761Y-73704140D02*
X140781904Y-73751760D01*
X140781904Y-73751760D02*
X140734285Y-73799379D01*
X140734285Y-73799379D02*
X140734285Y-74132712D01*
X140734285Y-74132712D02*
X140924761Y-74132712D01*
X140305713Y-73704140D02*
X140305713Y-74704140D01*
X140305713Y-74704140D02*
X139734285Y-73704140D01*
X139734285Y-73704140D02*
X139734285Y-74704140D01*
X139258094Y-73704140D02*
X139258094Y-74704140D01*
X139258094Y-74704140D02*
X139019999Y-74704140D01*
X139019999Y-74704140D02*
X138877142Y-74656521D01*
X138877142Y-74656521D02*
X138781904Y-74561283D01*
X138781904Y-74561283D02*
X138734285Y-74466045D01*
X138734285Y-74466045D02*
X138686666Y-74275569D01*
X138686666Y-74275569D02*
X138686666Y-74132712D01*
X138686666Y-74132712D02*
X138734285Y-73942236D01*
X138734285Y-73942236D02*
X138781904Y-73846998D01*
X138781904Y-73846998D02*
X138877142Y-73751760D01*
X138877142Y-73751760D02*
X139019999Y-73704140D01*
X139019999Y-73704140D02*
X139258094Y-73704140D01*
D13*
X122332857Y-123851794D02*
X123361429Y-123851794D01*
X122847143Y-125651794D02*
X122847143Y-123851794D01*
X124218572Y-125651794D02*
X124047143Y-125566080D01*
X124047143Y-125566080D02*
X123961429Y-125480365D01*
X123961429Y-125480365D02*
X123875715Y-125308937D01*
X123875715Y-125308937D02*
X123875715Y-124794651D01*
X123875715Y-124794651D02*
X123961429Y-124623222D01*
X123961429Y-124623222D02*
X124047143Y-124537508D01*
X124047143Y-124537508D02*
X124218572Y-124451794D01*
X124218572Y-124451794D02*
X124475715Y-124451794D01*
X124475715Y-124451794D02*
X124647143Y-124537508D01*
X124647143Y-124537508D02*
X124732858Y-124623222D01*
X124732858Y-124623222D02*
X124818572Y-124794651D01*
X124818572Y-124794651D02*
X124818572Y-125308937D01*
X124818572Y-125308937D02*
X124732858Y-125480365D01*
X124732858Y-125480365D02*
X124647143Y-125566080D01*
X124647143Y-125566080D02*
X124475715Y-125651794D01*
X124475715Y-125651794D02*
X124218572Y-125651794D01*
X125590000Y-125651794D02*
X125590000Y-124451794D01*
X125590000Y-124623222D02*
X125675714Y-124537508D01*
X125675714Y-124537508D02*
X125847143Y-124451794D01*
X125847143Y-124451794D02*
X126104286Y-124451794D01*
X126104286Y-124451794D02*
X126275714Y-124537508D01*
X126275714Y-124537508D02*
X126361429Y-124708937D01*
X126361429Y-124708937D02*
X126361429Y-125651794D01*
X126361429Y-124708937D02*
X126447143Y-124537508D01*
X126447143Y-124537508D02*
X126618571Y-124451794D01*
X126618571Y-124451794D02*
X126875714Y-124451794D01*
X126875714Y-124451794D02*
X127047143Y-124537508D01*
X127047143Y-124537508D02*
X127132857Y-124708937D01*
X127132857Y-124708937D02*
X127132857Y-125651794D01*
X128247143Y-125651794D02*
X128075714Y-125566080D01*
X128075714Y-125566080D02*
X127990000Y-125480365D01*
X127990000Y-125480365D02*
X127904286Y-125308937D01*
X127904286Y-125308937D02*
X127904286Y-124794651D01*
X127904286Y-124794651D02*
X127990000Y-124623222D01*
X127990000Y-124623222D02*
X128075714Y-124537508D01*
X128075714Y-124537508D02*
X128247143Y-124451794D01*
X128247143Y-124451794D02*
X128504286Y-124451794D01*
X128504286Y-124451794D02*
X128675714Y-124537508D01*
X128675714Y-124537508D02*
X128761429Y-124623222D01*
X128761429Y-124623222D02*
X128847143Y-124794651D01*
X128847143Y-124794651D02*
X128847143Y-125308937D01*
X128847143Y-125308937D02*
X128761429Y-125480365D01*
X128761429Y-125480365D02*
X128675714Y-125566080D01*
X128675714Y-125566080D02*
X128504286Y-125651794D01*
X128504286Y-125651794D02*
X128247143Y-125651794D01*
X129532857Y-125566080D02*
X129704285Y-125651794D01*
X129704285Y-125651794D02*
X130047142Y-125651794D01*
X130047142Y-125651794D02*
X130218571Y-125566080D01*
X130218571Y-125566080D02*
X130304285Y-125394651D01*
X130304285Y-125394651D02*
X130304285Y-125308937D01*
X130304285Y-125308937D02*
X130218571Y-125137508D01*
X130218571Y-125137508D02*
X130047142Y-125051794D01*
X130047142Y-125051794D02*
X129790000Y-125051794D01*
X129790000Y-125051794D02*
X129618571Y-124966080D01*
X129618571Y-124966080D02*
X129532857Y-124794651D01*
X129532857Y-124794651D02*
X129532857Y-124708937D01*
X129532857Y-124708937D02*
X129618571Y-124537508D01*
X129618571Y-124537508D02*
X129790000Y-124451794D01*
X129790000Y-124451794D02*
X130047142Y-124451794D01*
X130047142Y-124451794D02*
X130218571Y-124537508D01*
X131075714Y-125651794D02*
X131075714Y-123851794D01*
X131847143Y-125651794D02*
X131847143Y-124708937D01*
X131847143Y-124708937D02*
X131761428Y-124537508D01*
X131761428Y-124537508D02*
X131590000Y-124451794D01*
X131590000Y-124451794D02*
X131332857Y-124451794D01*
X131332857Y-124451794D02*
X131161428Y-124537508D01*
X131161428Y-124537508D02*
X131075714Y-124623222D01*
X132704285Y-125651794D02*
X132704285Y-124451794D01*
X132704285Y-123851794D02*
X132618571Y-123937508D01*
X132618571Y-123937508D02*
X132704285Y-124023222D01*
X132704285Y-124023222D02*
X132789999Y-123937508D01*
X132789999Y-123937508D02*
X132704285Y-123851794D01*
X132704285Y-123851794D02*
X132704285Y-124023222D01*
X133561428Y-125651794D02*
X133561428Y-123851794D01*
X133561428Y-124537508D02*
X133732857Y-124451794D01*
X133732857Y-124451794D02*
X134075714Y-124451794D01*
X134075714Y-124451794D02*
X134247142Y-124537508D01*
X134247142Y-124537508D02*
X134332857Y-124623222D01*
X134332857Y-124623222D02*
X134418571Y-124794651D01*
X134418571Y-124794651D02*
X134418571Y-125308937D01*
X134418571Y-125308937D02*
X134332857Y-125480365D01*
X134332857Y-125480365D02*
X134247142Y-125566080D01*
X134247142Y-125566080D02*
X134075714Y-125651794D01*
X134075714Y-125651794D02*
X133732857Y-125651794D01*
X133732857Y-125651794D02*
X133561428Y-125566080D01*
X135189999Y-125651794D02*
X135189999Y-124451794D01*
X135189999Y-123851794D02*
X135104285Y-123937508D01*
X135104285Y-123937508D02*
X135189999Y-124023222D01*
X135189999Y-124023222D02*
X135275713Y-123937508D01*
X135275713Y-123937508D02*
X135189999Y-123851794D01*
X135189999Y-123851794D02*
X135189999Y-124023222D01*
D10*
X143839047Y-129802044D02*
X143839047Y-130854425D01*
X143839047Y-130854425D02*
X143900952Y-130978235D01*
X143900952Y-130978235D02*
X143962857Y-131040140D01*
X143962857Y-131040140D02*
X144086666Y-131102044D01*
X144086666Y-131102044D02*
X144334285Y-131102044D01*
X144334285Y-131102044D02*
X144458095Y-131040140D01*
X144458095Y-131040140D02*
X144520000Y-130978235D01*
X144520000Y-130978235D02*
X144581904Y-130854425D01*
X144581904Y-130854425D02*
X144581904Y-129802044D01*
X145200952Y-131102044D02*
X145200952Y-129802044D01*
D14*
X132412856Y-51455180D02*
X131841428Y-51455180D01*
X132127142Y-50455180D02*
X132127142Y-51455180D01*
X131365237Y-50455180D02*
X131460475Y-50502800D01*
X131460475Y-50502800D02*
X131508094Y-50550419D01*
X131508094Y-50550419D02*
X131555713Y-50645657D01*
X131555713Y-50645657D02*
X131555713Y-50931371D01*
X131555713Y-50931371D02*
X131508094Y-51026609D01*
X131508094Y-51026609D02*
X131460475Y-51074228D01*
X131460475Y-51074228D02*
X131365237Y-51121847D01*
X131365237Y-51121847D02*
X131222380Y-51121847D01*
X131222380Y-51121847D02*
X131127142Y-51074228D01*
X131127142Y-51074228D02*
X131079523Y-51026609D01*
X131079523Y-51026609D02*
X131031904Y-50931371D01*
X131031904Y-50931371D02*
X131031904Y-50645657D01*
X131031904Y-50645657D02*
X131079523Y-50550419D01*
X131079523Y-50550419D02*
X131127142Y-50502800D01*
X131127142Y-50502800D02*
X131222380Y-50455180D01*
X131222380Y-50455180D02*
X131365237Y-50455180D01*
X130603332Y-50455180D02*
X130603332Y-51121847D01*
X130603332Y-51026609D02*
X130555713Y-51074228D01*
X130555713Y-51074228D02*
X130460475Y-51121847D01*
X130460475Y-51121847D02*
X130317618Y-51121847D01*
X130317618Y-51121847D02*
X130222380Y-51074228D01*
X130222380Y-51074228D02*
X130174761Y-50978990D01*
X130174761Y-50978990D02*
X130174761Y-50455180D01*
X130174761Y-50978990D02*
X130127142Y-51074228D01*
X130127142Y-51074228D02*
X130031904Y-51121847D01*
X130031904Y-51121847D02*
X129889047Y-51121847D01*
X129889047Y-51121847D02*
X129793808Y-51074228D01*
X129793808Y-51074228D02*
X129746189Y-50978990D01*
X129746189Y-50978990D02*
X129746189Y-50455180D01*
X129127142Y-50455180D02*
X129222380Y-50502800D01*
X129222380Y-50502800D02*
X129269999Y-50550419D01*
X129269999Y-50550419D02*
X129317618Y-50645657D01*
X129317618Y-50645657D02*
X129317618Y-50931371D01*
X129317618Y-50931371D02*
X129269999Y-51026609D01*
X129269999Y-51026609D02*
X129222380Y-51074228D01*
X129222380Y-51074228D02*
X129127142Y-51121847D01*
X129127142Y-51121847D02*
X128984285Y-51121847D01*
X128984285Y-51121847D02*
X128889047Y-51074228D01*
X128889047Y-51074228D02*
X128841428Y-51026609D01*
X128841428Y-51026609D02*
X128793809Y-50931371D01*
X128793809Y-50931371D02*
X128793809Y-50645657D01*
X128793809Y-50645657D02*
X128841428Y-50550419D01*
X128841428Y-50550419D02*
X128889047Y-50502800D01*
X128889047Y-50502800D02*
X128984285Y-50455180D01*
X128984285Y-50455180D02*
X129127142Y-50455180D01*
X128412856Y-50502800D02*
X128317618Y-50455180D01*
X128317618Y-50455180D02*
X128127142Y-50455180D01*
X128127142Y-50455180D02*
X128031904Y-50502800D01*
X128031904Y-50502800D02*
X127984285Y-50598038D01*
X127984285Y-50598038D02*
X127984285Y-50645657D01*
X127984285Y-50645657D02*
X128031904Y-50740895D01*
X128031904Y-50740895D02*
X128127142Y-50788514D01*
X128127142Y-50788514D02*
X128269999Y-50788514D01*
X128269999Y-50788514D02*
X128365237Y-50836133D01*
X128365237Y-50836133D02*
X128412856Y-50931371D01*
X128412856Y-50931371D02*
X128412856Y-50978990D01*
X128412856Y-50978990D02*
X128365237Y-51074228D01*
X128365237Y-51074228D02*
X128269999Y-51121847D01*
X128269999Y-51121847D02*
X128127142Y-51121847D01*
X128127142Y-51121847D02*
X128031904Y-51074228D01*
X127555713Y-50455180D02*
X127555713Y-51455180D01*
X127127142Y-50455180D02*
X127127142Y-50978990D01*
X127127142Y-50978990D02*
X127174761Y-51074228D01*
X127174761Y-51074228D02*
X127269999Y-51121847D01*
X127269999Y-51121847D02*
X127412856Y-51121847D01*
X127412856Y-51121847D02*
X127508094Y-51074228D01*
X127508094Y-51074228D02*
X127555713Y-51026609D01*
X126650951Y-50455180D02*
X126650951Y-51121847D01*
X126650951Y-51455180D02*
X126698570Y-51407561D01*
X126698570Y-51407561D02*
X126650951Y-51359942D01*
X126650951Y-51359942D02*
X126603332Y-51407561D01*
X126603332Y-51407561D02*
X126650951Y-51455180D01*
X126650951Y-51455180D02*
X126650951Y-51359942D01*
X126174761Y-50455180D02*
X126174761Y-51455180D01*
X126174761Y-51074228D02*
X126079523Y-51121847D01*
X126079523Y-51121847D02*
X125889047Y-51121847D01*
X125889047Y-51121847D02*
X125793809Y-51074228D01*
X125793809Y-51074228D02*
X125746190Y-51026609D01*
X125746190Y-51026609D02*
X125698571Y-50931371D01*
X125698571Y-50931371D02*
X125698571Y-50645657D01*
X125698571Y-50645657D02*
X125746190Y-50550419D01*
X125746190Y-50550419D02*
X125793809Y-50502800D01*
X125793809Y-50502800D02*
X125889047Y-50455180D01*
X125889047Y-50455180D02*
X126079523Y-50455180D01*
X126079523Y-50455180D02*
X126174761Y-50502800D01*
X125269999Y-50455180D02*
X125269999Y-51121847D01*
X125269999Y-51455180D02*
X125317618Y-51407561D01*
X125317618Y-51407561D02*
X125269999Y-51359942D01*
X125269999Y-51359942D02*
X125222380Y-51407561D01*
X125222380Y-51407561D02*
X125269999Y-51455180D01*
X125269999Y-51455180D02*
X125269999Y-51359942D01*
D12*
X147353332Y-74204140D02*
X147019999Y-73204140D01*
X147019999Y-73204140D02*
X146686666Y-74204140D01*
X146353332Y-73204140D02*
X146353332Y-74204140D01*
X146353332Y-74204140D02*
X146115237Y-74204140D01*
X146115237Y-74204140D02*
X145972380Y-74156521D01*
X145972380Y-74156521D02*
X145877142Y-74061283D01*
X145877142Y-74061283D02*
X145829523Y-73966045D01*
X145829523Y-73966045D02*
X145781904Y-73775569D01*
X145781904Y-73775569D02*
X145781904Y-73632712D01*
X145781904Y-73632712D02*
X145829523Y-73442236D01*
X145829523Y-73442236D02*
X145877142Y-73346998D01*
X145877142Y-73346998D02*
X145972380Y-73251760D01*
X145972380Y-73251760D02*
X146115237Y-73204140D01*
X146115237Y-73204140D02*
X146353332Y-73204140D01*
X145353332Y-73204140D02*
X145353332Y-74204140D01*
X145353332Y-74204140D02*
X145115237Y-74204140D01*
X145115237Y-74204140D02*
X144972380Y-74156521D01*
X144972380Y-74156521D02*
X144877142Y-74061283D01*
X144877142Y-74061283D02*
X144829523Y-73966045D01*
X144829523Y-73966045D02*
X144781904Y-73775569D01*
X144781904Y-73775569D02*
X144781904Y-73632712D01*
X144781904Y-73632712D02*
X144829523Y-73442236D01*
X144829523Y-73442236D02*
X144877142Y-73346998D01*
X144877142Y-73346998D02*
X144972380Y-73251760D01*
X144972380Y-73251760D02*
X145115237Y-73204140D01*
X145115237Y-73204140D02*
X145353332Y-73204140D01*
D15*
X128627143Y-117933485D02*
X130912857Y-117933485D01*
X128341429Y-120504914D02*
X131484286Y-120504914D01*
X127484286Y-122504914D02*
X132055714Y-122504914D01*
X128341429Y-119076342D02*
X128341429Y-120504914D01*
X128341429Y-119076342D02*
X131484286Y-119076342D01*
X131484286Y-119076342D02*
X131484286Y-120504914D01*
X126341429Y-115933485D02*
X126341429Y-120219200D01*
X126341429Y-120219200D02*
X127484286Y-121362057D01*
X130341429Y-116790628D02*
X132055714Y-118504914D01*
X132055714Y-116790628D02*
X130912857Y-117362057D01*
X128055714Y-116790628D02*
X128627143Y-117362057D01*
X128627143Y-117362057D02*
X127198571Y-118790628D01*
X131198571Y-115933485D02*
X130341429Y-116790628D01*
X128912857Y-121076342D02*
X128912857Y-121933485D01*
X130055714Y-115647771D02*
X130627143Y-117362057D01*
X130912857Y-120790628D02*
X130341429Y-121933485D01*
X127198571Y-117076342D02*
X126627143Y-118219200D01*
X126055714Y-120219200D02*
X125198571Y-122504914D01*
X127770000Y-116219200D02*
X129484286Y-115933485D01*
X129484286Y-115933485D02*
X128627143Y-117647771D01*
X125484286Y-117362057D02*
X124912857Y-118790628D01*
X126341429Y-118790628D02*
X125770000Y-121647771D01*
D10*
X110165237Y-131102044D02*
X110165237Y-129802044D01*
X110165237Y-129802044D02*
X110474761Y-129802044D01*
X110474761Y-129802044D02*
X110660475Y-129863949D01*
X110660475Y-129863949D02*
X110784285Y-129987759D01*
X110784285Y-129987759D02*
X110846190Y-130111568D01*
X110846190Y-130111568D02*
X110908094Y-130359187D01*
X110908094Y-130359187D02*
X110908094Y-130544901D01*
X110908094Y-130544901D02*
X110846190Y-130792520D01*
X110846190Y-130792520D02*
X110784285Y-130916330D01*
X110784285Y-130916330D02*
X110660475Y-131040140D01*
X110660475Y-131040140D02*
X110474761Y-131102044D01*
X110474761Y-131102044D02*
X110165237Y-131102044D01*
X111465237Y-131102044D02*
X111465237Y-130235378D01*
X111465237Y-130482997D02*
X111527142Y-130359187D01*
X111527142Y-130359187D02*
X111589047Y-130297282D01*
X111589047Y-130297282D02*
X111712856Y-130235378D01*
X111712856Y-130235378D02*
X111836666Y-130235378D01*
X112269999Y-131102044D02*
X112269999Y-130235378D01*
X112269999Y-129802044D02*
X112208095Y-129863949D01*
X112208095Y-129863949D02*
X112269999Y-129925854D01*
X112269999Y-129925854D02*
X112331904Y-129863949D01*
X112331904Y-129863949D02*
X112269999Y-129802044D01*
X112269999Y-129802044D02*
X112269999Y-129925854D01*
X112765238Y-130235378D02*
X113074762Y-131102044D01*
X113074762Y-131102044D02*
X113384285Y-130235378D01*
X114374761Y-131040140D02*
X114250952Y-131102044D01*
X114250952Y-131102044D02*
X114003333Y-131102044D01*
X114003333Y-131102044D02*
X113879523Y-131040140D01*
X113879523Y-131040140D02*
X113817619Y-130916330D01*
X113817619Y-130916330D02*
X113817619Y-130421092D01*
X113817619Y-130421092D02*
X113879523Y-130297282D01*
X113879523Y-130297282D02*
X114003333Y-130235378D01*
X114003333Y-130235378D02*
X114250952Y-130235378D01*
X114250952Y-130235378D02*
X114374761Y-130297282D01*
X114374761Y-130297282D02*
X114436666Y-130421092D01*
X114436666Y-130421092D02*
X114436666Y-130544901D01*
X114436666Y-130544901D02*
X113817619Y-130668711D01*
D12*
X124686666Y-127560859D02*
X124686666Y-126560859D01*
X124686666Y-126560859D02*
X124924761Y-126560859D01*
X124924761Y-126560859D02*
X125067618Y-126608478D01*
X125067618Y-126608478D02*
X125162856Y-126703716D01*
X125162856Y-126703716D02*
X125210475Y-126798954D01*
X125210475Y-126798954D02*
X125258094Y-126989430D01*
X125258094Y-126989430D02*
X125258094Y-127132287D01*
X125258094Y-127132287D02*
X125210475Y-127322763D01*
X125210475Y-127322763D02*
X125162856Y-127418001D01*
X125162856Y-127418001D02*
X125067618Y-127513240D01*
X125067618Y-127513240D02*
X124924761Y-127560859D01*
X124924761Y-127560859D02*
X124686666Y-127560859D01*
X126067618Y-127513240D02*
X125972380Y-127560859D01*
X125972380Y-127560859D02*
X125781904Y-127560859D01*
X125781904Y-127560859D02*
X125686666Y-127513240D01*
X125686666Y-127513240D02*
X125639047Y-127418001D01*
X125639047Y-127418001D02*
X125639047Y-127037049D01*
X125639047Y-127037049D02*
X125686666Y-126941811D01*
X125686666Y-126941811D02*
X125781904Y-126894192D01*
X125781904Y-126894192D02*
X125972380Y-126894192D01*
X125972380Y-126894192D02*
X126067618Y-126941811D01*
X126067618Y-126941811D02*
X126115237Y-127037049D01*
X126115237Y-127037049D02*
X126115237Y-127132287D01*
X126115237Y-127132287D02*
X125639047Y-127227525D01*
X126496190Y-127513240D02*
X126591428Y-127560859D01*
X126591428Y-127560859D02*
X126781904Y-127560859D01*
X126781904Y-127560859D02*
X126877142Y-127513240D01*
X126877142Y-127513240D02*
X126924761Y-127418001D01*
X126924761Y-127418001D02*
X126924761Y-127370382D01*
X126924761Y-127370382D02*
X126877142Y-127275144D01*
X126877142Y-127275144D02*
X126781904Y-127227525D01*
X126781904Y-127227525D02*
X126639047Y-127227525D01*
X126639047Y-127227525D02*
X126543809Y-127179906D01*
X126543809Y-127179906D02*
X126496190Y-127084668D01*
X126496190Y-127084668D02*
X126496190Y-127037049D01*
X126496190Y-127037049D02*
X126543809Y-126941811D01*
X126543809Y-126941811D02*
X126639047Y-126894192D01*
X126639047Y-126894192D02*
X126781904Y-126894192D01*
X126781904Y-126894192D02*
X126877142Y-126941811D01*
X127353333Y-127560859D02*
X127353333Y-126894192D01*
X127353333Y-126560859D02*
X127305714Y-126608478D01*
X127305714Y-126608478D02*
X127353333Y-126656097D01*
X127353333Y-126656097D02*
X127400952Y-126608478D01*
X127400952Y-126608478D02*
X127353333Y-126560859D01*
X127353333Y-126560859D02*
X127353333Y-126656097D01*
X128258094Y-126894192D02*
X128258094Y-127703716D01*
X128258094Y-127703716D02*
X128210475Y-127798954D01*
X128210475Y-127798954D02*
X128162856Y-127846573D01*
X128162856Y-127846573D02*
X128067618Y-127894192D01*
X128067618Y-127894192D02*
X127924761Y-127894192D01*
X127924761Y-127894192D02*
X127829523Y-127846573D01*
X128258094Y-127513240D02*
X128162856Y-127560859D01*
X128162856Y-127560859D02*
X127972380Y-127560859D01*
X127972380Y-127560859D02*
X127877142Y-127513240D01*
X127877142Y-127513240D02*
X127829523Y-127465620D01*
X127829523Y-127465620D02*
X127781904Y-127370382D01*
X127781904Y-127370382D02*
X127781904Y-127084668D01*
X127781904Y-127084668D02*
X127829523Y-126989430D01*
X127829523Y-126989430D02*
X127877142Y-126941811D01*
X127877142Y-126941811D02*
X127972380Y-126894192D01*
X127972380Y-126894192D02*
X128162856Y-126894192D01*
X128162856Y-126894192D02*
X128258094Y-126941811D01*
X128734285Y-126894192D02*
X128734285Y-127560859D01*
X128734285Y-126989430D02*
X128781904Y-126941811D01*
X128781904Y-126941811D02*
X128877142Y-126894192D01*
X128877142Y-126894192D02*
X129019999Y-126894192D01*
X129019999Y-126894192D02*
X129115237Y-126941811D01*
X129115237Y-126941811D02*
X129162856Y-127037049D01*
X129162856Y-127037049D02*
X129162856Y-127560859D01*
X130019999Y-127513240D02*
X129924761Y-127560859D01*
X129924761Y-127560859D02*
X129734285Y-127560859D01*
X129734285Y-127560859D02*
X129639047Y-127513240D01*
X129639047Y-127513240D02*
X129591428Y-127418001D01*
X129591428Y-127418001D02*
X129591428Y-127037049D01*
X129591428Y-127037049D02*
X129639047Y-126941811D01*
X129639047Y-126941811D02*
X129734285Y-126894192D01*
X129734285Y-126894192D02*
X129924761Y-126894192D01*
X129924761Y-126894192D02*
X130019999Y-126941811D01*
X130019999Y-126941811D02*
X130067618Y-127037049D01*
X130067618Y-127037049D02*
X130067618Y-127132287D01*
X130067618Y-127132287D02*
X129591428Y-127227525D01*
X130924761Y-127560859D02*
X130924761Y-126560859D01*
X130924761Y-127513240D02*
X130829523Y-127560859D01*
X130829523Y-127560859D02*
X130639047Y-127560859D01*
X130639047Y-127560859D02*
X130543809Y-127513240D01*
X130543809Y-127513240D02*
X130496190Y-127465620D01*
X130496190Y-127465620D02*
X130448571Y-127370382D01*
X130448571Y-127370382D02*
X130448571Y-127084668D01*
X130448571Y-127084668D02*
X130496190Y-126989430D01*
X130496190Y-126989430D02*
X130543809Y-126941811D01*
X130543809Y-126941811D02*
X130639047Y-126894192D01*
X130639047Y-126894192D02*
X130829523Y-126894192D01*
X130829523Y-126894192D02*
X130924761Y-126941811D01*
X132162857Y-127560859D02*
X132162857Y-126560859D01*
X132162857Y-126941811D02*
X132258095Y-126894192D01*
X132258095Y-126894192D02*
X132448571Y-126894192D01*
X132448571Y-126894192D02*
X132543809Y-126941811D01*
X132543809Y-126941811D02*
X132591428Y-126989430D01*
X132591428Y-126989430D02*
X132639047Y-127084668D01*
X132639047Y-127084668D02*
X132639047Y-127370382D01*
X132639047Y-127370382D02*
X132591428Y-127465620D01*
X132591428Y-127465620D02*
X132543809Y-127513240D01*
X132543809Y-127513240D02*
X132448571Y-127560859D01*
X132448571Y-127560859D02*
X132258095Y-127560859D01*
X132258095Y-127560859D02*
X132162857Y-127513240D01*
X132972381Y-126894192D02*
X133210476Y-127560859D01*
X133448571Y-126894192D02*
X133210476Y-127560859D01*
X133210476Y-127560859D02*
X133115238Y-127798954D01*
X133115238Y-127798954D02*
X133067619Y-127846573D01*
X133067619Y-127846573D02*
X132972381Y-127894192D01*
X123329522Y-128694668D02*
X123281903Y-128647049D01*
X123281903Y-128647049D02*
X123186665Y-128599430D01*
X123186665Y-128599430D02*
X123091427Y-128599430D01*
X123091427Y-128599430D02*
X122996189Y-128647049D01*
X122996189Y-128647049D02*
X122948570Y-128694668D01*
X122948570Y-128694668D02*
X122900951Y-128789906D01*
X122900951Y-128789906D02*
X122900951Y-128885144D01*
X122900951Y-128885144D02*
X122948570Y-128980382D01*
X122948570Y-128980382D02*
X122996189Y-129028001D01*
X122996189Y-129028001D02*
X123091427Y-129075620D01*
X123091427Y-129075620D02*
X123186665Y-129075620D01*
X123186665Y-129075620D02*
X123281903Y-129028001D01*
X123281903Y-129028001D02*
X123329522Y-128980382D01*
X123329522Y-128599430D02*
X123329522Y-128980382D01*
X123329522Y-128980382D02*
X123377141Y-129028001D01*
X123377141Y-129028001D02*
X123424760Y-129028001D01*
X123424760Y-129028001D02*
X123519999Y-128980382D01*
X123519999Y-128980382D02*
X123567618Y-128885144D01*
X123567618Y-128885144D02*
X123567618Y-128647049D01*
X123567618Y-128647049D02*
X123472380Y-128504192D01*
X123472380Y-128504192D02*
X123329522Y-128408954D01*
X123329522Y-128408954D02*
X123139046Y-128361335D01*
X123139046Y-128361335D02*
X122948570Y-128408954D01*
X122948570Y-128408954D02*
X122805713Y-128504192D01*
X122805713Y-128504192D02*
X122710475Y-128647049D01*
X122710475Y-128647049D02*
X122662856Y-128837525D01*
X122662856Y-128837525D02*
X122710475Y-129028001D01*
X122710475Y-129028001D02*
X122805713Y-129170859D01*
X122805713Y-129170859D02*
X122948570Y-129266097D01*
X122948570Y-129266097D02*
X123139046Y-129313716D01*
X123139046Y-129313716D02*
X123329522Y-129266097D01*
X123329522Y-129266097D02*
X123472380Y-129170859D01*
X124424760Y-129123240D02*
X124329522Y-129170859D01*
X124329522Y-129170859D02*
X124139046Y-129170859D01*
X124139046Y-129170859D02*
X124043808Y-129123240D01*
X124043808Y-129123240D02*
X123996189Y-129075620D01*
X123996189Y-129075620D02*
X123948570Y-128980382D01*
X123948570Y-128980382D02*
X123948570Y-128694668D01*
X123948570Y-128694668D02*
X123996189Y-128599430D01*
X123996189Y-128599430D02*
X124043808Y-128551811D01*
X124043808Y-128551811D02*
X124139046Y-128504192D01*
X124139046Y-128504192D02*
X124329522Y-128504192D01*
X124329522Y-128504192D02*
X124424760Y-128551811D01*
X125281903Y-129170859D02*
X125281903Y-128647049D01*
X125281903Y-128647049D02*
X125234284Y-128551811D01*
X125234284Y-128551811D02*
X125139046Y-128504192D01*
X125139046Y-128504192D02*
X124948570Y-128504192D01*
X124948570Y-128504192D02*
X124853332Y-128551811D01*
X125281903Y-129123240D02*
X125186665Y-129170859D01*
X125186665Y-129170859D02*
X124948570Y-129170859D01*
X124948570Y-129170859D02*
X124853332Y-129123240D01*
X124853332Y-129123240D02*
X124805713Y-129028001D01*
X124805713Y-129028001D02*
X124805713Y-128932763D01*
X124805713Y-128932763D02*
X124853332Y-128837525D01*
X124853332Y-128837525D02*
X124948570Y-128789906D01*
X124948570Y-128789906D02*
X125186665Y-128789906D01*
X125186665Y-128789906D02*
X125281903Y-128742287D01*
X125615237Y-128504192D02*
X125996189Y-128504192D01*
X125758094Y-128170859D02*
X125758094Y-129028001D01*
X125758094Y-129028001D02*
X125805713Y-129123240D01*
X125805713Y-129123240D02*
X125900951Y-129170859D01*
X125900951Y-129170859D02*
X125996189Y-129170859D01*
X126091428Y-129266097D02*
X126853332Y-129266097D01*
X127091428Y-128504192D02*
X127091428Y-129170859D01*
X127091428Y-128599430D02*
X127139047Y-128551811D01*
X127139047Y-128551811D02*
X127234285Y-128504192D01*
X127234285Y-128504192D02*
X127377142Y-128504192D01*
X127377142Y-128504192D02*
X127472380Y-128551811D01*
X127472380Y-128551811D02*
X127519999Y-128647049D01*
X127519999Y-128647049D02*
X127519999Y-129170859D01*
X128377142Y-129123240D02*
X128281904Y-129170859D01*
X128281904Y-129170859D02*
X128091428Y-129170859D01*
X128091428Y-129170859D02*
X127996190Y-129123240D01*
X127996190Y-129123240D02*
X127948571Y-129028001D01*
X127948571Y-129028001D02*
X127948571Y-128647049D01*
X127948571Y-128647049D02*
X127996190Y-128551811D01*
X127996190Y-128551811D02*
X128091428Y-128504192D01*
X128091428Y-128504192D02*
X128281904Y-128504192D01*
X128281904Y-128504192D02*
X128377142Y-128551811D01*
X128377142Y-128551811D02*
X128424761Y-128647049D01*
X128424761Y-128647049D02*
X128424761Y-128742287D01*
X128424761Y-128742287D02*
X127948571Y-128837525D01*
X128853333Y-129170859D02*
X128853333Y-128170859D01*
X128948571Y-128789906D02*
X129234285Y-129170859D01*
X129234285Y-128504192D02*
X128853333Y-128885144D01*
X129805714Y-129170859D02*
X129710476Y-129123240D01*
X129710476Y-129123240D02*
X129662857Y-129075620D01*
X129662857Y-129075620D02*
X129615238Y-128980382D01*
X129615238Y-128980382D02*
X129615238Y-128694668D01*
X129615238Y-128694668D02*
X129662857Y-128599430D01*
X129662857Y-128599430D02*
X129710476Y-128551811D01*
X129710476Y-128551811D02*
X129805714Y-128504192D01*
X129805714Y-128504192D02*
X129948571Y-128504192D01*
X129948571Y-128504192D02*
X130043809Y-128551811D01*
X130043809Y-128551811D02*
X130091428Y-128599430D01*
X130091428Y-128599430D02*
X130139047Y-128694668D01*
X130139047Y-128694668D02*
X130139047Y-128980382D01*
X130139047Y-128980382D02*
X130091428Y-129075620D01*
X130091428Y-129075620D02*
X130043809Y-129123240D01*
X130043809Y-129123240D02*
X129948571Y-129170859D01*
X129948571Y-129170859D02*
X129805714Y-129170859D01*
X130567619Y-128504192D02*
X130567619Y-129170859D01*
X130567619Y-128599430D02*
X130615238Y-128551811D01*
X130615238Y-128551811D02*
X130710476Y-128504192D01*
X130710476Y-128504192D02*
X130853333Y-128504192D01*
X130853333Y-128504192D02*
X130948571Y-128551811D01*
X130948571Y-128551811D02*
X130996190Y-128647049D01*
X130996190Y-128647049D02*
X130996190Y-129170859D01*
X131853333Y-129123240D02*
X131758095Y-129170859D01*
X131758095Y-129170859D02*
X131567619Y-129170859D01*
X131567619Y-129170859D02*
X131472381Y-129123240D01*
X131472381Y-129123240D02*
X131424762Y-129028001D01*
X131424762Y-129028001D02*
X131424762Y-128647049D01*
X131424762Y-128647049D02*
X131472381Y-128551811D01*
X131472381Y-128551811D02*
X131567619Y-128504192D01*
X131567619Y-128504192D02*
X131758095Y-128504192D01*
X131758095Y-128504192D02*
X131853333Y-128551811D01*
X131853333Y-128551811D02*
X131900952Y-128647049D01*
X131900952Y-128647049D02*
X131900952Y-128742287D01*
X131900952Y-128742287D02*
X131424762Y-128837525D01*
X132329524Y-129170859D02*
X132329524Y-128170859D01*
X132424762Y-128789906D02*
X132710476Y-129170859D01*
X132710476Y-128504192D02*
X132329524Y-128885144D01*
X133281905Y-129170859D02*
X133186667Y-129123240D01*
X133186667Y-129123240D02*
X133139048Y-129075620D01*
X133139048Y-129075620D02*
X133091429Y-128980382D01*
X133091429Y-128980382D02*
X133091429Y-128694668D01*
X133091429Y-128694668D02*
X133139048Y-128599430D01*
X133139048Y-128599430D02*
X133186667Y-128551811D01*
X133186667Y-128551811D02*
X133281905Y-128504192D01*
X133281905Y-128504192D02*
X133424762Y-128504192D01*
X133424762Y-128504192D02*
X133520000Y-128551811D01*
X133520000Y-128551811D02*
X133567619Y-128599430D01*
X133567619Y-128599430D02*
X133615238Y-128694668D01*
X133615238Y-128694668D02*
X133615238Y-128980382D01*
X133615238Y-128980382D02*
X133567619Y-129075620D01*
X133567619Y-129075620D02*
X133520000Y-129123240D01*
X133520000Y-129123240D02*
X133424762Y-129170859D01*
X133424762Y-129170859D02*
X133281905Y-129170859D01*
X134043810Y-128504192D02*
X134043810Y-129170859D01*
X134043810Y-128599430D02*
X134091429Y-128551811D01*
X134091429Y-128551811D02*
X134186667Y-128504192D01*
X134186667Y-128504192D02*
X134329524Y-128504192D01*
X134329524Y-128504192D02*
X134424762Y-128551811D01*
X134424762Y-128551811D02*
X134472381Y-128647049D01*
X134472381Y-128647049D02*
X134472381Y-129170859D01*
X135329524Y-129123240D02*
X135234286Y-129170859D01*
X135234286Y-129170859D02*
X135043810Y-129170859D01*
X135043810Y-129170859D02*
X134948572Y-129123240D01*
X134948572Y-129123240D02*
X134900953Y-129028001D01*
X134900953Y-129028001D02*
X134900953Y-128647049D01*
X134900953Y-128647049D02*
X134948572Y-128551811D01*
X134948572Y-128551811D02*
X135043810Y-128504192D01*
X135043810Y-128504192D02*
X135234286Y-128504192D01*
X135234286Y-128504192D02*
X135329524Y-128551811D01*
X135329524Y-128551811D02*
X135377143Y-128647049D01*
X135377143Y-128647049D02*
X135377143Y-128742287D01*
X135377143Y-128742287D02*
X134900953Y-128837525D01*
D16*
X137276379Y-81093333D02*
X137990664Y-81093333D01*
X137990664Y-81093333D02*
X138133521Y-81140952D01*
X138133521Y-81140952D02*
X138228760Y-81236190D01*
X138228760Y-81236190D02*
X138276379Y-81379047D01*
X138276379Y-81379047D02*
X138276379Y-81474285D01*
X137276379Y-80140952D02*
X137276379Y-80617142D01*
X137276379Y-80617142D02*
X137752569Y-80664761D01*
X137752569Y-80664761D02*
X137704950Y-80617142D01*
X137704950Y-80617142D02*
X137657331Y-80521904D01*
X137657331Y-80521904D02*
X137657331Y-80283809D01*
X137657331Y-80283809D02*
X137704950Y-80188571D01*
X137704950Y-80188571D02*
X137752569Y-80140952D01*
X137752569Y-80140952D02*
X137847807Y-80093333D01*
X137847807Y-80093333D02*
X138085902Y-80093333D01*
X138085902Y-80093333D02*
X138181140Y-80140952D01*
X138181140Y-80140952D02*
X138228760Y-80188571D01*
X138228760Y-80188571D02*
X138276379Y-80283809D01*
X138276379Y-80283809D02*
X138276379Y-80521904D01*
X138276379Y-80521904D02*
X138228760Y-80617142D01*
X138228760Y-80617142D02*
X138181140Y-80664761D01*
X111313620Y-94126666D02*
X110599335Y-94126666D01*
X110599335Y-94126666D02*
X110456478Y-94079047D01*
X110456478Y-94079047D02*
X110361240Y-93983809D01*
X110361240Y-93983809D02*
X110313620Y-93840952D01*
X110313620Y-93840952D02*
X110313620Y-93745714D01*
X110885049Y-94745714D02*
X110932668Y-94650476D01*
X110932668Y-94650476D02*
X110980287Y-94602857D01*
X110980287Y-94602857D02*
X111075525Y-94555238D01*
X111075525Y-94555238D02*
X111123144Y-94555238D01*
X111123144Y-94555238D02*
X111218382Y-94602857D01*
X111218382Y-94602857D02*
X111266001Y-94650476D01*
X111266001Y-94650476D02*
X111313620Y-94745714D01*
X111313620Y-94745714D02*
X111313620Y-94936190D01*
X111313620Y-94936190D02*
X111266001Y-95031428D01*
X111266001Y-95031428D02*
X111218382Y-95079047D01*
X111218382Y-95079047D02*
X111123144Y-95126666D01*
X111123144Y-95126666D02*
X111075525Y-95126666D01*
X111075525Y-95126666D02*
X110980287Y-95079047D01*
X110980287Y-95079047D02*
X110932668Y-95031428D01*
X110932668Y-95031428D02*
X110885049Y-94936190D01*
X110885049Y-94936190D02*
X110885049Y-94745714D01*
X110885049Y-94745714D02*
X110837430Y-94650476D01*
X110837430Y-94650476D02*
X110789811Y-94602857D01*
X110789811Y-94602857D02*
X110694573Y-94555238D01*
X110694573Y-94555238D02*
X110504097Y-94555238D01*
X110504097Y-94555238D02*
X110408859Y-94602857D01*
X110408859Y-94602857D02*
X110361240Y-94650476D01*
X110361240Y-94650476D02*
X110313620Y-94745714D01*
X110313620Y-94745714D02*
X110313620Y-94936190D01*
X110313620Y-94936190D02*
X110361240Y-95031428D01*
X110361240Y-95031428D02*
X110408859Y-95079047D01*
X110408859Y-95079047D02*
X110504097Y-95126666D01*
X110504097Y-95126666D02*
X110694573Y-95126666D01*
X110694573Y-95126666D02*
X110789811Y-95079047D01*
X110789811Y-95079047D02*
X110837430Y-95031428D01*
X110837430Y-95031428D02*
X110885049Y-94936190D01*
X126060475Y-132577521D02*
X125967242Y-133285695D01*
X125967242Y-133285695D02*
X125901383Y-133421115D01*
X125901383Y-133421115D02*
X125794529Y-133503107D01*
X125794529Y-133503107D02*
X125646678Y-133531672D01*
X125646678Y-133531672D02*
X125552255Y-133519241D01*
X126472949Y-132727884D02*
X126526376Y-132686888D01*
X126526376Y-132686888D02*
X126627015Y-132652107D01*
X126627015Y-132652107D02*
X126863073Y-132683185D01*
X126863073Y-132683185D02*
X126951281Y-132742827D01*
X126951281Y-132742827D02*
X126992277Y-132796255D01*
X126992277Y-132796255D02*
X127027057Y-132896893D01*
X127027057Y-132896893D02*
X127014626Y-132991317D01*
X127014626Y-132991317D02*
X126948768Y-133126736D01*
X126948768Y-133126736D02*
X126307642Y-133618690D01*
X126307642Y-133618690D02*
X126921393Y-133699492D01*
X141413620Y-87631428D02*
X140699335Y-87631428D01*
X140699335Y-87631428D02*
X140556478Y-87588571D01*
X140556478Y-87588571D02*
X140461240Y-87502857D01*
X140461240Y-87502857D02*
X140413620Y-87374285D01*
X140413620Y-87374285D02*
X140413620Y-87288571D01*
X140413620Y-88531428D02*
X140413620Y-88017142D01*
X140413620Y-88274285D02*
X141413620Y-88274285D01*
X141413620Y-88274285D02*
X141270763Y-88188571D01*
X141270763Y-88188571D02*
X141175525Y-88102856D01*
X141175525Y-88102856D02*
X141127906Y-88017142D01*
X141413620Y-89088571D02*
X141413620Y-89174285D01*
X141413620Y-89174285D02*
X141366001Y-89259999D01*
X141366001Y-89259999D02*
X141318382Y-89302857D01*
X141318382Y-89302857D02*
X141223144Y-89345714D01*
X141223144Y-89345714D02*
X141032668Y-89388571D01*
X141032668Y-89388571D02*
X140794573Y-89388571D01*
X140794573Y-89388571D02*
X140604097Y-89345714D01*
X140604097Y-89345714D02*
X140508859Y-89302857D01*
X140508859Y-89302857D02*
X140461240Y-89259999D01*
X140461240Y-89259999D02*
X140413620Y-89174285D01*
X140413620Y-89174285D02*
X140413620Y-89088571D01*
X140413620Y-89088571D02*
X140461240Y-89002857D01*
X140461240Y-89002857D02*
X140508859Y-88959999D01*
X140508859Y-88959999D02*
X140604097Y-88917142D01*
X140604097Y-88917142D02*
X140794573Y-88874285D01*
X140794573Y-88874285D02*
X141032668Y-88874285D01*
X141032668Y-88874285D02*
X141223144Y-88917142D01*
X141223144Y-88917142D02*
X141318382Y-88959999D01*
X141318382Y-88959999D02*
X141366001Y-89002857D01*
X141366001Y-89002857D02*
X141413620Y-89088571D01*
X120213620Y-80576666D02*
X119499335Y-80576666D01*
X119499335Y-80576666D02*
X119356478Y-80529047D01*
X119356478Y-80529047D02*
X119261240Y-80433809D01*
X119261240Y-80433809D02*
X119213620Y-80290952D01*
X119213620Y-80290952D02*
X119213620Y-80195714D01*
X120213620Y-81481428D02*
X120213620Y-81290952D01*
X120213620Y-81290952D02*
X120166001Y-81195714D01*
X120166001Y-81195714D02*
X120118382Y-81148095D01*
X120118382Y-81148095D02*
X119975525Y-81052857D01*
X119975525Y-81052857D02*
X119785049Y-81005238D01*
X119785049Y-81005238D02*
X119404097Y-81005238D01*
X119404097Y-81005238D02*
X119308859Y-81052857D01*
X119308859Y-81052857D02*
X119261240Y-81100476D01*
X119261240Y-81100476D02*
X119213620Y-81195714D01*
X119213620Y-81195714D02*
X119213620Y-81386190D01*
X119213620Y-81386190D02*
X119261240Y-81481428D01*
X119261240Y-81481428D02*
X119308859Y-81529047D01*
X119308859Y-81529047D02*
X119404097Y-81576666D01*
X119404097Y-81576666D02*
X119642192Y-81576666D01*
X119642192Y-81576666D02*
X119737430Y-81529047D01*
X119737430Y-81529047D02*
X119785049Y-81481428D01*
X119785049Y-81481428D02*
X119832668Y-81386190D01*
X119832668Y-81386190D02*
X119832668Y-81195714D01*
X119832668Y-81195714D02*
X119785049Y-81100476D01*
X119785049Y-81100476D02*
X119737430Y-81052857D01*
X119737430Y-81052857D02*
X119642192Y-81005238D01*
X129253333Y-63303620D02*
X129253333Y-62589335D01*
X129253333Y-62589335D02*
X129300952Y-62446478D01*
X129300952Y-62446478D02*
X129396190Y-62351240D01*
X129396190Y-62351240D02*
X129539047Y-62303620D01*
X129539047Y-62303620D02*
X129634285Y-62303620D01*
X128348571Y-62970287D02*
X128348571Y-62303620D01*
X128586666Y-63351240D02*
X128824761Y-62636954D01*
X128824761Y-62636954D02*
X128205714Y-62636954D01*
D14*
X121998571Y-66424700D02*
X123141429Y-66424700D01*
X122570000Y-66996128D02*
X122570000Y-65853271D01*
X134398571Y-66424700D02*
X135541429Y-66424700D01*
D16*
X115363620Y-100326666D02*
X114649335Y-100326666D01*
X114649335Y-100326666D02*
X114506478Y-100279047D01*
X114506478Y-100279047D02*
X114411240Y-100183809D01*
X114411240Y-100183809D02*
X114363620Y-100040952D01*
X114363620Y-100040952D02*
X114363620Y-99945714D01*
X115363620Y-100707619D02*
X115363620Y-101374285D01*
X115363620Y-101374285D02*
X114363620Y-100945714D01*
X130718561Y-132614538D02*
X130811794Y-133322713D01*
X130811794Y-133322713D02*
X130783229Y-133470563D01*
X130783229Y-133470563D02*
X130701237Y-133577418D01*
X130701237Y-133577418D02*
X130565817Y-133643276D01*
X130565817Y-133643276D02*
X130471394Y-133655707D01*
X131096254Y-132564814D02*
X131710006Y-132484012D01*
X131710006Y-132484012D02*
X131429249Y-132905214D01*
X131429249Y-132905214D02*
X131570884Y-132886567D01*
X131570884Y-132886567D02*
X131671523Y-132921348D01*
X131671523Y-132921348D02*
X131724950Y-132962344D01*
X131724950Y-132962344D02*
X131784592Y-133050552D01*
X131784592Y-133050552D02*
X131815670Y-133286610D01*
X131815670Y-133286610D02*
X131780890Y-133387249D01*
X131780890Y-133387249D02*
X131739893Y-133440676D01*
X131739893Y-133440676D02*
X131651686Y-133500319D01*
X131651686Y-133500319D02*
X131368416Y-133537612D01*
X131368416Y-133537612D02*
X131267777Y-133502831D01*
X131267777Y-133502831D02*
X131214350Y-133461835D01*
X140513620Y-99626666D02*
X139799335Y-99626666D01*
X139799335Y-99626666D02*
X139656478Y-99579047D01*
X139656478Y-99579047D02*
X139561240Y-99483809D01*
X139561240Y-99483809D02*
X139513620Y-99340952D01*
X139513620Y-99340952D02*
X139513620Y-99245714D01*
X139513620Y-100150476D02*
X139513620Y-100340952D01*
X139513620Y-100340952D02*
X139561240Y-100436190D01*
X139561240Y-100436190D02*
X139608859Y-100483809D01*
X139608859Y-100483809D02*
X139751716Y-100579047D01*
X139751716Y-100579047D02*
X139942192Y-100626666D01*
X139942192Y-100626666D02*
X140323144Y-100626666D01*
X140323144Y-100626666D02*
X140418382Y-100579047D01*
X140418382Y-100579047D02*
X140466001Y-100531428D01*
X140466001Y-100531428D02*
X140513620Y-100436190D01*
X140513620Y-100436190D02*
X140513620Y-100245714D01*
X140513620Y-100245714D02*
X140466001Y-100150476D01*
X140466001Y-100150476D02*
X140418382Y-100102857D01*
X140418382Y-100102857D02*
X140323144Y-100055238D01*
X140323144Y-100055238D02*
X140085049Y-100055238D01*
X140085049Y-100055238D02*
X139989811Y-100102857D01*
X139989811Y-100102857D02*
X139942192Y-100150476D01*
X139942192Y-100150476D02*
X139894573Y-100245714D01*
X139894573Y-100245714D02*
X139894573Y-100436190D01*
X139894573Y-100436190D02*
X139942192Y-100531428D01*
X139942192Y-100531428D02*
X139989811Y-100579047D01*
X139989811Y-100579047D02*
X140085049Y-100626666D01*
%TO.C,C4*%
X111574437Y-65170000D02*
X113460000Y-65170000D01*
X111574437Y-65170000D02*
X110510000Y-64105563D01*
X117965563Y-65170000D02*
X116080000Y-65170000D01*
X117965563Y-65170000D02*
X119030000Y-64105563D01*
X110510000Y-64105563D02*
X110510000Y-56650000D01*
X119030000Y-64105563D02*
X119030000Y-56650000D01*
X110510000Y-56650000D02*
X113460000Y-56650000D01*
X119030000Y-56650000D02*
X116080000Y-56650000D01*
%TO.C,H12*%
X152970000Y-89610000D02*
G75*
G03*
X151570000Y-89610000I-700000J0D01*
G01*
X151570000Y-89610000D02*
G75*
G03*
X152970000Y-89610000I700000J0D01*
G01*
%TO.C,H17*%
X145470000Y-90810000D02*
G75*
G03*
X144070000Y-90810000I-700000J0D01*
G01*
X144070000Y-90810000D02*
G75*
G03*
X145470000Y-90810000I700000J0D01*
G01*
%TO.C,C1*%
X139574437Y-65170000D02*
X141460000Y-65170000D01*
X139574437Y-65170000D02*
X138510000Y-64105563D01*
X145965563Y-65170000D02*
X144080000Y-65170000D01*
X145965563Y-65170000D02*
X147030000Y-64105563D01*
X138510000Y-64105563D02*
X138510000Y-56650000D01*
X147030000Y-64105563D02*
X147030000Y-56650000D01*
X138510000Y-56650000D02*
X141460000Y-56650000D01*
X147030000Y-56650000D02*
X144080000Y-56650000D01*
%TO.C,J5*%
X139660000Y-83020000D02*
X143780000Y-83020000D01*
X143780000Y-83020000D02*
X143780000Y-75400000D01*
X138660000Y-82020000D02*
X139660000Y-83020000D01*
X138660000Y-75400000D02*
X138660000Y-82020000D01*
X143780000Y-75400000D02*
X138660000Y-75400000D01*
X138360000Y-75100000D02*
X138360000Y-77510000D01*
X140770000Y-75100000D02*
X138360000Y-75100000D01*
%TO.C,J8*%
X101960000Y-92850000D02*
X101960000Y-96970000D01*
X101960000Y-96970000D02*
X109580000Y-96970000D01*
X102960000Y-91850000D02*
X101960000Y-92850000D01*
X109580000Y-91850000D02*
X102960000Y-91850000D01*
X109580000Y-96970000D02*
X109580000Y-91850000D01*
X109880000Y-91550000D02*
X107470000Y-91550000D01*
X109880000Y-93960000D02*
X109880000Y-91550000D01*
D17*
%TO.C,J2*%
X127847277Y-134330988D02*
X112479882Y-132307832D01*
X112476803Y-132308232D02*
X111827251Y-137265056D01*
X127194646Y-139288212D02*
X127847173Y-134331780D01*
D16*
X120700682Y-138433265D02*
X121353313Y-133476041D01*
X118321215Y-138120003D02*
X118973846Y-133162778D01*
D17*
X111827251Y-137265056D02*
X127194646Y-139288212D01*
D18*
X126005762Y-131839679D02*
G75*
G03*
X125551762Y-131839679I-227000J0D01*
G01*
X125551762Y-131839679D02*
G75*
G03*
X126005762Y-131839679I227000J0D01*
G01*
D16*
%TO.C,R6*%
X129847500Y-59747258D02*
X129847500Y-59272742D01*
X130892500Y-59747258D02*
X130892500Y-59272742D01*
%TO.C,R7*%
X110607258Y-82932500D02*
X110132742Y-82932500D01*
X110607258Y-81887500D02*
X110132742Y-81887500D01*
%TO.C,H20*%
X101470000Y-89410000D02*
G75*
G03*
X100070000Y-89410000I-700000J0D01*
G01*
X100070000Y-89410000D02*
G75*
G03*
X101470000Y-89410000I700000J0D01*
G01*
%TO.C,R9*%
X109147500Y-78847258D02*
X109147500Y-78372742D01*
X110192500Y-78847258D02*
X110192500Y-78372742D01*
%TO.C,D3*%
X130430000Y-71145000D02*
X130430000Y-69675000D01*
X130430000Y-69675000D02*
X127970000Y-69675000D01*
X127970000Y-71145000D02*
X130430000Y-71145000D01*
%TO.C,C3*%
X110660000Y-78750580D02*
X110660000Y-78469420D01*
X111680000Y-78750580D02*
X111680000Y-78469420D01*
%TO.C,H10*%
X117470000Y-89410000D02*
G75*
G03*
X116070000Y-89410000I-700000J0D01*
G01*
X116070000Y-89410000D02*
G75*
G03*
X117470000Y-89410000I700000J0D01*
G01*
%TO.C,J10*%
X139955000Y-89350000D02*
X139955000Y-88400000D01*
X139955000Y-88400000D02*
X139005000Y-88400000D01*
X128935000Y-88400000D02*
X128935000Y-87710000D01*
X128355000Y-92320000D02*
X139585000Y-92320000D01*
X127985000Y-89350000D02*
X127985000Y-88400000D01*
X127985000Y-88400000D02*
X128935000Y-88400000D01*
%TO.C,H6*%
X109470000Y-89410000D02*
G75*
G03*
X108070000Y-89410000I-700000J0D01*
G01*
X108070000Y-89410000D02*
G75*
G03*
X109470000Y-89410000I700000J0D01*
G01*
%TO.C,R8*%
X110132742Y-80387500D02*
X110607258Y-80387500D01*
X110132742Y-81432500D02*
X110607258Y-81432500D01*
%TO.C,J6*%
X115870000Y-75100000D02*
X113460000Y-75100000D01*
X113460000Y-75100000D02*
X113460000Y-77510000D01*
X118880000Y-75400000D02*
X113760000Y-75400000D01*
X113760000Y-75400000D02*
X113760000Y-82020000D01*
X113760000Y-82020000D02*
X114760000Y-83020000D01*
X118880000Y-83020000D02*
X118880000Y-75400000D01*
X114760000Y-83020000D02*
X118880000Y-83020000D01*
%TO.C,J4*%
X133980000Y-67720000D02*
X133980000Y-64900000D01*
X133980000Y-67720000D02*
X132280000Y-69020000D01*
X133980000Y-64900000D02*
X132280000Y-63600000D01*
X132280000Y-69020000D02*
X123560000Y-69020000D01*
X132280000Y-63600000D02*
X123560000Y-63600000D01*
X123560000Y-69020000D02*
X123560000Y-63600000D01*
%TO.C,H16*%
X146970000Y-89610000D02*
G75*
G03*
X145570000Y-89610000I-700000J0D01*
G01*
X145570000Y-89610000D02*
G75*
G03*
X146970000Y-89610000I700000J0D01*
G01*
%TO.C,H18*%
X143970000Y-89610000D02*
G75*
G03*
X142570000Y-89610000I-700000J0D01*
G01*
X142570000Y-89610000D02*
G75*
G03*
X143970000Y-89610000I700000J0D01*
G01*
%TO.C,H4*%
X105470000Y-89410000D02*
G75*
G03*
X104070000Y-89410000I-700000J0D01*
G01*
X104070000Y-89410000D02*
G75*
G03*
X105470000Y-89410000I700000J0D01*
G01*
%TO.C,R11*%
X125757258Y-70932500D02*
X125282742Y-70932500D01*
X125757258Y-69887500D02*
X125282742Y-69887500D01*
%TO.C,H3*%
X102070000Y-88710000D02*
X103470000Y-88710000D01*
X102070000Y-90110000D02*
X102070000Y-88710000D01*
X103470000Y-88710000D02*
X103470000Y-90110000D01*
X103470000Y-90110000D02*
X102070000Y-90110000D01*
%TO.C,H22*%
X142970000Y-100010000D02*
G75*
G03*
X141570000Y-100010000I-700000J0D01*
G01*
X141570000Y-100010000D02*
G75*
G03*
X142970000Y-100010000I700000J0D01*
G01*
%TO.C,H8*%
X113470000Y-89410000D02*
G75*
G03*
X112070000Y-89410000I-700000J0D01*
G01*
X112070000Y-89410000D02*
G75*
G03*
X113470000Y-89410000I700000J0D01*
G01*
%TO.C,TP2*%
X138370000Y-73860000D02*
G75*
G03*
X135970000Y-73860000I-1200000J0D01*
G01*
X135970000Y-73860000D02*
G75*
G03*
X138370000Y-73860000I1200000J0D01*
G01*
%TO.C,H7*%
X111470000Y-89410000D02*
G75*
G03*
X110070000Y-89410000I-700000J0D01*
G01*
X110070000Y-89410000D02*
G75*
G03*
X111470000Y-89410000I700000J0D01*
G01*
%TO.C,H19*%
X98070000Y-88710000D02*
X99470000Y-88710000D01*
X98070000Y-90110000D02*
X98070000Y-88710000D01*
X99470000Y-88710000D02*
X99470000Y-90110000D01*
X99470000Y-90110000D02*
X98070000Y-90110000D01*
%TO.C,H14*%
X149970000Y-89610000D02*
G75*
G03*
X148570000Y-89610000I-700000J0D01*
G01*
X148570000Y-89610000D02*
G75*
G03*
X149970000Y-89610000I700000J0D01*
G01*
%TO.C,J11*%
X146764920Y-110030000D02*
X146764920Y-121520000D01*
X146764920Y-110030000D02*
X147334920Y-110030000D01*
X146764920Y-121520000D02*
X147787390Y-121520000D01*
X148094920Y-108635000D02*
X149424920Y-108635000D01*
X148402450Y-121520000D02*
X149424920Y-121520000D01*
X148854920Y-110030000D02*
X149424920Y-110030000D01*
X149424920Y-108635000D02*
X149424920Y-109395000D01*
X149424920Y-110030000D02*
X149424920Y-121520000D01*
%TO.C,H15*%
X148470000Y-90810000D02*
G75*
G03*
X147070000Y-90810000I-700000J0D01*
G01*
X147070000Y-90810000D02*
G75*
G03*
X148470000Y-90810000I700000J0D01*
G01*
%TO.C,R10*%
X107647500Y-78847258D02*
X107647500Y-78372742D01*
X108692500Y-78847258D02*
X108692500Y-78372742D01*
%TO.C,J7*%
X111755000Y-99050000D02*
X111755000Y-98100000D01*
X111755000Y-98100000D02*
X110805000Y-98100000D01*
X100735000Y-98100000D02*
X100735000Y-97410000D01*
X100155000Y-102020000D02*
X111385000Y-102020000D01*
X99785000Y-99050000D02*
X99785000Y-98100000D01*
X99785000Y-98100000D02*
X100735000Y-98100000D01*
%TO.C,H9*%
X115470000Y-89410000D02*
G75*
G03*
X114070000Y-89410000I-700000J0D01*
G01*
X114070000Y-89410000D02*
G75*
G03*
X115470000Y-89410000I700000J0D01*
G01*
%TO.C,H21*%
X143570000Y-99310000D02*
X144970000Y-99310000D01*
X143570000Y-100710000D02*
X143570000Y-99310000D01*
X144970000Y-99310000D02*
X144970000Y-100710000D01*
X144970000Y-100710000D02*
X143570000Y-100710000D01*
%TO.C,R3*%
X125947500Y-59747258D02*
X125947500Y-59272742D01*
X126992500Y-59747258D02*
X126992500Y-59272742D01*
%TO.C,H13*%
X151470000Y-90810000D02*
G75*
G03*
X150070000Y-90810000I-700000J0D01*
G01*
X150070000Y-90810000D02*
G75*
G03*
X151470000Y-90810000I700000J0D01*
G01*
%TO.C,F2*%
X136870000Y-83030000D02*
X136870000Y-76090000D01*
X136870000Y-76090000D02*
X120670000Y-76090000D01*
X130370000Y-81560000D02*
X127170000Y-81560000D01*
X129520000Y-79560000D02*
X128020000Y-79560000D01*
X127170000Y-77560000D02*
X130370000Y-77560000D01*
X120670000Y-83030000D02*
X136870000Y-83030000D01*
X120670000Y-76090000D02*
X120670000Y-83030000D01*
%TO.C,D2*%
X130760000Y-69560000D02*
X130760000Y-71260000D01*
X130760000Y-69560000D02*
X134020000Y-69560000D01*
X130760000Y-71260000D02*
X134020000Y-71260000D01*
D17*
%TO.C,J3*%
X145060119Y-132307833D02*
X129692724Y-134330989D01*
X129689854Y-134332172D02*
X130345355Y-139288213D01*
X145712750Y-137265057D02*
X145060224Y-132308625D01*
D16*
X139218786Y-138120004D02*
X138566155Y-133162779D01*
X136839319Y-138433266D02*
X136186688Y-133476042D01*
D17*
X130345355Y-139288213D02*
X145712750Y-137265057D01*
D18*
X142644289Y-130436784D02*
G75*
G03*
X142190289Y-130436784I-227000J0D01*
G01*
X142190289Y-130436784D02*
G75*
G03*
X142644289Y-130436784I227000J0D01*
G01*
D16*
%TO.C,TP1*%
X144670000Y-72410000D02*
G75*
G03*
X142270000Y-72410000I-1200000J0D01*
G01*
X142270000Y-72410000D02*
G75*
G03*
X144670000Y-72410000I1200000J0D01*
G01*
%TO.C,H5*%
X107470000Y-89410000D02*
G75*
G03*
X106070000Y-89410000I-700000J0D01*
G01*
X106070000Y-89410000D02*
G75*
G03*
X107470000Y-89410000I700000J0D01*
G01*
%TO.C,R5*%
X126532742Y-61887500D02*
X127007258Y-61887500D01*
X126532742Y-62932500D02*
X127007258Y-62932500D01*
%TO.C,Q1*%
X110830000Y-75210000D02*
X110830000Y-74560000D01*
X110830000Y-75210000D02*
X110830000Y-75860000D01*
X107710000Y-75210000D02*
X107710000Y-74560000D01*
X107710000Y-75210000D02*
X107710000Y-75860000D01*
X111110000Y-74287500D02*
X110780000Y-74047500D01*
X111110000Y-73807500D01*
X111110000Y-74287500D01*
G36*
X111110000Y-74287500D02*
G01*
X110780000Y-74047500D01*
X111110000Y-73807500D01*
X111110000Y-74287500D01*
G37*
%TO.C,J9*%
X139080000Y-101570000D02*
X139080000Y-97450000D01*
X139080000Y-97450000D02*
X131460000Y-97450000D01*
X138080000Y-102570000D02*
X139080000Y-101570000D01*
X131460000Y-102570000D02*
X138080000Y-102570000D01*
X131460000Y-97450000D02*
X131460000Y-102570000D01*
X131160000Y-102870000D02*
X133570000Y-102870000D01*
X131160000Y-100460000D02*
X131160000Y-102870000D01*
%TO.C,H11*%
X153070000Y-90110000D02*
X154470000Y-90110000D01*
X153070000Y-91510000D02*
X153070000Y-90110000D01*
X154470000Y-90110000D02*
X154470000Y-91510000D01*
X154470000Y-91510000D02*
X153070000Y-91510000D01*
D19*
%TO.C,J1*%
X125344000Y-113209999D02*
G75*
G03*
X124944000Y-113209999I-200000J0D01*
G01*
X124944000Y-113209999D02*
G75*
G03*
X125344000Y-113209999I200000J0D01*
G01*
%TD*%
%LPC*%
D20*
%TO.C,C4*%
X114770000Y-64510000D03*
X114770000Y-57310000D03*
%TD*%
D21*
%TO.C,H12*%
X152270000Y-89610000D03*
%TD*%
%TO.C,H17*%
X144770000Y-90810000D03*
%TD*%
D20*
%TO.C,C1*%
X142770000Y-64510000D03*
X142770000Y-57310000D03*
%TD*%
D22*
%TO.C,J5*%
X140570000Y-80460000D03*
D23*
X140570000Y-77960000D03*
%TD*%
D24*
%TO.C,J8*%
X104520000Y-93760000D03*
D25*
X107020000Y-93760000D03*
%TD*%
D26*
%TO.C,J2*%
X124228142Y-131635536D03*
D21*
X124062374Y-132894671D03*
X122969007Y-131469768D03*
X122803239Y-132728903D03*
X121709872Y-131303999D03*
X121544104Y-132563134D03*
X120450737Y-131138231D03*
X120284969Y-132397366D03*
X119191602Y-130972463D03*
X119025834Y-132231598D03*
X117932467Y-130806694D03*
X117766699Y-132065829D03*
X116673332Y-130640926D03*
X116507564Y-131900061D03*
%TD*%
D27*
%TO.C,R6*%
X130370000Y-60335000D03*
X130370000Y-58685000D03*
%TD*%
D28*
%TO.C,R7*%
X111195000Y-82410000D03*
X109545000Y-82410000D03*
%TD*%
D21*
%TO.C,H20*%
X100770000Y-89410000D03*
%TD*%
D27*
%TO.C,R9*%
X109670000Y-79435000D03*
X109670000Y-77785000D03*
%TD*%
D29*
%TO.C,D3*%
X129645000Y-70410000D03*
X127895000Y-70410000D03*
%TD*%
D30*
%TO.C,C3*%
X111170000Y-79385000D03*
X111170000Y-77835000D03*
%TD*%
D21*
%TO.C,H10*%
X116770000Y-89410000D03*
%TD*%
D31*
%TO.C,J10*%
X140895000Y-91110000D03*
X127045000Y-91110000D03*
D32*
X138345000Y-88360000D03*
X137095000Y-88360000D03*
X135845000Y-88360000D03*
X134595000Y-88360000D03*
X133345000Y-88360000D03*
X132095000Y-88360000D03*
X130845000Y-88360000D03*
X129595000Y-88360000D03*
%TD*%
D21*
%TO.C,H6*%
X108770000Y-89410000D03*
%TD*%
D33*
%TO.C,R8*%
X109545000Y-80910000D03*
X111195000Y-80910000D03*
%TD*%
D23*
%TO.C,J6*%
X115670000Y-77960000D03*
D22*
X115670000Y-80460000D03*
%TD*%
D34*
%TO.C,J4*%
X131270000Y-66310000D03*
D35*
X126270000Y-66310000D03*
%TD*%
D21*
%TO.C,H16*%
X146270000Y-89610000D03*
%TD*%
%TO.C,H18*%
X143270000Y-89610000D03*
%TD*%
%TO.C,H4*%
X104770000Y-89410000D03*
%TD*%
D28*
%TO.C,R11*%
X126345000Y-70410000D03*
X124695000Y-70410000D03*
%TD*%
D36*
%TO.C,H3*%
X102770000Y-89410000D03*
%TD*%
D21*
%TO.C,H22*%
X142270000Y-100010000D03*
%TD*%
%TO.C,H8*%
X112770000Y-89410000D03*
%TD*%
D37*
%TO.C,TP2*%
X137170000Y-73860000D03*
%TD*%
D21*
%TO.C,H7*%
X110770000Y-89410000D03*
%TD*%
D36*
%TO.C,H19*%
X98770000Y-89410000D03*
%TD*%
D21*
%TO.C,H14*%
X149270000Y-89610000D03*
%TD*%
D36*
%TO.C,J11*%
X148094920Y-109395000D03*
D38*
X148094920Y-110665000D03*
X148094920Y-111935000D03*
X148094920Y-113205000D03*
X148094920Y-114475000D03*
X148094920Y-115745000D03*
X148094920Y-117015000D03*
X148094920Y-118285000D03*
X148094920Y-119555000D03*
X148094920Y-120825000D03*
%TD*%
D21*
%TO.C,H15*%
X147770000Y-90810000D03*
%TD*%
D27*
%TO.C,R10*%
X108170000Y-79435000D03*
X108170000Y-77785000D03*
%TD*%
D31*
%TO.C,J7*%
X112695000Y-100810000D03*
X98845000Y-100810000D03*
D32*
X110145000Y-98060000D03*
X108895000Y-98060000D03*
X107645000Y-98060000D03*
X106395000Y-98060000D03*
X105145000Y-98060000D03*
X103895000Y-98060000D03*
X102645000Y-98060000D03*
X101395000Y-98060000D03*
%TD*%
D21*
%TO.C,H9*%
X114770000Y-89410000D03*
%TD*%
D36*
%TO.C,H21*%
X144270000Y-100010000D03*
%TD*%
D27*
%TO.C,R3*%
X126470000Y-60335000D03*
X126470000Y-58685000D03*
%TD*%
D21*
%TO.C,H13*%
X150770000Y-90810000D03*
%TD*%
D39*
%TO.C,F2*%
X133730000Y-81260000D03*
X133730000Y-77860000D03*
X123810000Y-81260000D03*
X123810000Y-77860000D03*
%TD*%
D40*
%TO.C,D2*%
X131520000Y-70410000D03*
X134020000Y-70410000D03*
%TD*%
D41*
%TO.C,J3*%
X140866669Y-130640927D03*
D21*
X141032437Y-131900062D03*
X139607534Y-130806695D03*
X139773302Y-132065830D03*
X138348399Y-130972464D03*
X138514167Y-132231599D03*
X137089264Y-131138232D03*
X137255032Y-132397367D03*
X135830129Y-131304000D03*
X135995897Y-132563135D03*
X134570994Y-131469769D03*
X134736762Y-132728904D03*
X133311859Y-131635537D03*
X133477627Y-132894672D03*
%TD*%
D37*
%TO.C,TP1*%
X143470000Y-72410000D03*
%TD*%
D21*
%TO.C,H5*%
X106770000Y-89410000D03*
%TD*%
D42*
%TO.C,H2*%
X116822000Y-68910000D03*
X117524944Y-67212944D03*
X117524944Y-70607056D03*
X119222000Y-66510000D03*
D43*
X119222000Y-68910000D03*
D42*
X119222000Y-71310000D03*
X120919056Y-67212944D03*
X120919056Y-70607056D03*
X121622000Y-68910000D03*
%TD*%
D33*
%TO.C,R5*%
X125945000Y-62410000D03*
X127595000Y-62410000D03*
%TD*%
D44*
%TO.C,Q1*%
X110220000Y-74272500D03*
X108320000Y-74272500D03*
X109270000Y-76147500D03*
%TD*%
D24*
%TO.C,J9*%
X136520000Y-100660000D03*
D45*
X134020000Y-100660000D03*
%TD*%
D42*
%TO.C,H1*%
X135920000Y-68910000D03*
X136622944Y-67212944D03*
X136622944Y-70607056D03*
X138320000Y-66510000D03*
D43*
X138320000Y-68910000D03*
D42*
X138320000Y-71310000D03*
X140017056Y-67212944D03*
X140017056Y-70607056D03*
X140720000Y-68910000D03*
%TD*%
D36*
%TO.C,H11*%
X153770000Y-90810000D03*
%TD*%
D46*
%TO.C,SW1*%
X124770000Y-60860000D03*
D47*
X128770000Y-60860000D03*
X132770000Y-60860000D03*
X124770000Y-58160000D03*
X128770000Y-58160000D03*
X132770000Y-58160000D03*
D48*
X137020000Y-59510000D03*
X120520000Y-59510000D03*
%TD*%
D36*
%TO.C,J1*%
X123580000Y-113209999D03*
D21*
X123580000Y-111939999D03*
X122310000Y-113209999D03*
X122310000Y-111939999D03*
X121040000Y-113209999D03*
X121040000Y-111939999D03*
X119770000Y-113209999D03*
X119770000Y-111939999D03*
X118500000Y-113209999D03*
X118500000Y-111939999D03*
X117230000Y-113209999D03*
X117230000Y-111939999D03*
X115960000Y-113209999D03*
X115960000Y-111939999D03*
%TD*%
%LPD*%
M02*
