M48
; DRILL file {KiCad 7.0.11} date Wed Jun 25 00:44:36 2025
; FORMAT={-:-/ absolute / inch / decimal}
; #@! TF.CreationDate,2025-06-25T00:44:36+09:00
; #@! TF.GenerationSoftware,Kicad,Pcbnew,7.0.11
; #@! TF.FileFunction,Plated,1,2,PTH
FMAT,2
INCH
; #@! TA.AperFunction,Plated,PTH,ViaDrill
T1C0.0118
; #@! TA.AperFunction,Plated,PTH,ComponentDrill
T2C0.0197
; #@! TA.AperFunction,Plated,PTH,ComponentDrill
T3C0.0236
; #@! TA.AperFunction,Plated,PTH,ComponentDrill
T4C0.0256
; #@! TA.AperFunction,Plated,PTH,ComponentDrill
T5C0.0276
; #@! TA.AperFunction,Plated,PTH,ComponentDrill
T6C0.0335
; #@! TA.AperFunction,Plated,PTH,ComponentDrill
T7C0.0394
; #@! TA.AperFunction,Plated,PTH,ComponentDrill
T8C0.0701
; #@! TA.AperFunction,Plated,PTH,ComponentDrill
T9C0.1063
; #@! TA.AperFunction,Plated,PTH,ComponentDrill
T10C0.1260
%
G90
G05
T1
X3.8689Y-3.461
X3.8689Y-3.5791
X3.8689Y-3.6776
X3.8689Y-3.7957
X3.8689Y-3.902
X3.8689Y-4.0122
X3.9319Y-3.6224
X3.9909Y-3.7957
X3.9949Y-3.6894
X4.0067Y-3.461
X4.0067Y-3.902
X4.0067Y-4.0122
X4.0461Y-4.2799
X4.0575Y-3.2217
X4.0618Y-3.7484
X4.0618Y-3.8154
X4.0736Y-3.1209
X4.0937Y-2.4492
X4.1051Y-3.5791
X4.1091Y-5.0201
X4.1248Y-4.3823
X4.1287Y-3.2681
X4.1406Y-4.2091
X4.1417Y-2.2417
X4.1445Y-3.6185
X4.1484Y-5.2563
X4.1642Y-3.461
X4.1642Y-3.524
X4.1642Y-3.8193
X4.1642Y-3.902
X4.1642Y-4.0122
X4.172Y-3.7681
X4.1795Y-2.113
X4.1799Y-5.3587
X4.1953Y-3.1583
X4.1996Y-3.5634
X4.2122Y-2.5815
X4.2154Y-3.8193
X4.2177Y-2.9803
X4.2248Y-3.0949
X4.2311Y-3.6146
X4.235Y-4.8469
X4.2386Y-3.2728
X4.2429Y-3.524
X4.2472Y-2.2539
X4.2622Y-3.022
X4.2665Y-3.8193
X4.2709Y-2.4205
X4.2732Y-2.7622
X4.2768Y-3.1677
X4.2823Y-4.2681
X4.2823Y-4.465
X4.2823Y-4.6618
X4.2823Y-5.0555
X4.2827Y-2.085
X4.2902Y-3.6264
X4.2902Y-3.7287
X4.302Y-5.3902
X4.3059Y-2.9453
X4.3138Y-5.2504
X4.3217Y-3.2789
X4.3217Y-3.461
X4.3217Y-3.524
X4.3217Y-3.9059
X4.3217Y-4.0122
X4.3217Y-4.2012
X4.3236Y-2.1807
X4.3374Y-2.8697
X4.3386Y-3.0272
X4.3394Y-2.9241
X4.3413Y-3.7484
X4.3453Y-3.6579
X4.3457Y-3.0945
X4.3461Y-3.1571
X4.3469Y-3.215
X4.3492Y-3.8154
X4.3512Y-2.9736
X4.3571Y-3.5673
X4.3728Y-3.8626
X4.374Y-2.9185
X4.3768Y-3.0252
X4.3768Y-3.0644
X4.3768Y-3.1254
X4.3778Y-3.1854
X4.3791Y-4.5122
X4.3791Y-4.6909
X4.3791Y-4.8929
X4.3791Y-5.1
X4.4004Y-3.524
X4.4004Y-3.6776
X4.4004Y-3.7602
X4.4004Y-4.289
X4.4043Y-5.1657
X4.4083Y-3.1642
X4.411Y-3.2732
X4.4118Y-4.4161
X4.4122Y-3.5909
X4.4191Y-3.212
X4.4252Y-2.9693
X4.4252Y-3.0705
X4.4264Y-4.8555
X4.4264Y-5.0913
X4.4268Y-4.4929
X4.4268Y-4.7287
X4.4268Y-4.972
X4.4272Y-4.6094
X4.4315Y-2.2402
X4.4441Y-2.6276
X4.4472Y-2.4272
X4.4555Y-3.7012
X4.4571Y-2.8126
X4.4594Y-3.7839
X4.4693Y-4.4713
X4.4693Y-4.7071
X4.4697Y-4.5878
X4.4697Y-5.0114
X4.4697Y-5.1118
X4.4701Y-4.8921
X4.4705Y-4.8008
X4.4742Y-3.2701
X4.4752Y-3.5988
X4.4791Y-3.1268
X4.4791Y-3.461
X4.4791Y-3.524
X4.4791Y-3.902
X4.4791Y-4.0122
X4.4791Y-5.2524
X4.4791Y-5.4295
X4.5028Y-2.0386
X4.5126Y-4.4528
X4.5126Y-4.5646
X4.5126Y-4.6846
X4.5126Y-5.0118
X4.513Y-4.7795
X4.513Y-4.8925
X4.5132Y-5.1272
X4.5303Y-3.6224
X4.5303Y-4.3146
X4.5571Y-5.3602
X4.5579Y-3.5161
X4.5622Y-4.828
X4.5626Y-4.9598
X4.563Y-4.5024
X4.5634Y-5.0957
X4.5638Y-4.6717
X4.5736Y-2.8075
X4.574Y-2.9378
X4.5795Y-2.8748
X4.5815Y-4.2012
X4.5874Y-2.8409
X4.6012Y-2.902
X4.6039Y-2.411
X4.6126Y-2.2102
X4.6169Y-2.8508
X4.6169Y-3.461
X4.6169Y-3.5791
X4.6169Y-3.6776
X4.6169Y-3.7957
X4.6169Y-3.902
X4.6169Y-4.0122
X4.6193Y-4.5791
X4.622Y-5.0004
X4.6228Y-4.698
X4.6228Y-4.8453
X4.6268Y-2.8803
X4.6268Y-2.9197
X4.6432Y-2.862
X4.6445Y-2.9413
X4.6563Y-5.2917
X4.6661Y-2.8803
X4.6661Y-2.9197
X4.6661Y-2.9591
X4.6677Y-4.9311
X4.6681Y-4.6512
X4.6685Y-4.4984
X4.6685Y-4.7929
X4.6697Y-5.0772
X4.676Y-4.2681
X4.676Y-4.3283
X4.676Y-5.461
X4.6839Y-2.8626
X4.6862Y-2.9008
X4.6874Y-2.9398
X4.6937Y-2.4752
X4.6977Y-3.1205
X4.6996Y-3.0594
X4.6996Y-3.0909
X4.7055Y-2.8803
X4.7055Y-2.9197
X4.7055Y-2.9591
X4.7157Y-4.9693
X4.7169Y-4.5047
X4.7201Y-4.7512
X4.7201Y-4.863
X4.7213Y-5.0642
X4.7217Y-4.6264
X4.7232Y-2.8626
X4.7233Y-3.1205
X4.724Y-3.085
X4.7247Y-3.0224
X4.7248Y-3.0535
X4.7256Y-2.0055
X4.726Y-2.9394
X4.7263Y-2.9016
X4.7354Y-4.3732
X4.7449Y-2.8803
X4.7449Y-2.9197
X4.7449Y-2.9591
X4.7484Y-3.1205
X4.7498Y-3.0224
X4.7504Y-3.0846
X4.7508Y-3.0516
X4.7571Y-2.8535
X4.7583Y-5.2547
X4.7654Y-2.9024
X4.7654Y-2.9386
X4.7669Y-2.5524
X4.7744Y-3.0831
X4.7744Y-3.5299
X4.7744Y-3.9374
X4.7754Y-3.0224
X4.7756Y-3.0512
X4.7843Y-2.8409
X4.7843Y-2.8803
X4.7843Y-2.9197
X4.7843Y-2.9591
X4.7862Y-4.2012
X4.7862Y-5.3677
X4.7866Y-5.0642
X4.7882Y-4.9689
X4.789Y-4.8618
X4.7898Y-4.7539
X4.7906Y-4.626
X4.7913Y-4.5067
X4.8008Y-4.335
X4.8043Y-2.8217
X4.8059Y-2.9413
X4.8122Y-2.5787
X4.8236Y-2.8016
X4.8236Y-2.8409
X4.8236Y-2.8803
X4.8236Y-2.9197
X4.8394Y-2.5555
X4.8398Y-4.4953
X4.8398Y-4.7311
X4.8402Y-4.6118
X4.8402Y-5.0354
X4.8402Y-5.1358
X4.8406Y-4.9161
X4.8409Y-4.8248
X4.8524Y-2.3677
X4.8531Y-3.461
X4.8531Y-3.6185
X4.8531Y-3.8547
X4.8531Y-4.022
X4.86Y-2.5738
X4.861Y-2.1705
X4.8728Y-4.2681
X4.8728Y-5.4768
X4.8815Y-2.4591
X4.8929Y-4.4972
X4.8929Y-4.7331
X4.8933Y-4.6138
X4.8933Y-5.0374
X4.8933Y-5.1378
X4.8937Y-4.9181
X4.8941Y-4.8268
X4.9157Y-4.3469
X4.9425Y-2.3488
X4.9465Y-4.4854
X4.9465Y-4.7213
X4.9465Y-4.8382
X4.9469Y-4.602
X4.9469Y-5.0693
X4.9469Y-5.1697
X4.9472Y-4.95
X4.9516Y-3.461
X4.9516Y-3.5299
X4.9516Y-3.6185
X4.9516Y-3.8547
X4.9516Y-3.9335
X4.9516Y-4.022
X4.9516Y-5.2917
X4.9555Y-2.4965
X4.9594Y-4.2012
X4.9646Y-1.9874
X4.9693Y-2.4161
X4.9913Y-4.7146
X4.9917Y-4.5953
X4.9917Y-5.0189
X4.9917Y-5.1193
X4.9921Y-4.5146
X4.9921Y-4.8996
X4.9925Y-4.8083
X5.0205Y-2.3575
X5.0327Y-4.4579
X5.0429Y-4.6346
X5.0429Y-4.9583
X5.0437Y-4.787
X5.0457Y-5.1587
X5.0508Y-2.511
X5.0594Y-2.4394
X5.0697Y-3.461
X5.0697Y-3.5299
X5.0697Y-3.6185
X5.0697Y-3.8547
X5.0697Y-3.9335
X5.0697Y-4.022
X5.0697Y-4.2002
X5.0697Y-4.2681
X5.0697Y-5.2524
X5.0697Y-5.3744
X5.0697Y-5.4846
X5.0902Y-2.3445
X5.0996Y-2.1661
X5.1189Y-3.4482
X5.1193Y-2.4102
X5.1287Y-5.0949
X5.1323Y-2.7087
X5.148Y-4.9587
X5.1508Y-4.4528
X5.1514Y-3.4787
X5.1524Y-3.6136
X5.1555Y-4.6217
X5.1571Y-4.7925
X5.1681Y-3.5201
X5.1736Y-2.3819
X5.1878Y-4.2012
X5.1898Y-3.5585
X5.1957Y-5.2957
X5.1976Y-3.8547
X5.1976Y-3.9335
X5.1976Y-4.022
X5.198Y-4.3614
X5.2006Y-3.5309
X5.2161Y-1.9882
X5.2173Y-2.7894
X5.2173Y-5.1539
X5.2301Y-3.526
X5.2484Y-4.9469
X5.2498Y-3.5053
X5.2537Y-3.6185
X5.2571Y-4.5913
X5.2583Y-4.7449
X5.2665Y-4.2681
X5.2665Y-5.0555
X5.2665Y-5.4768
X5.2715Y-3.5211
X5.2811Y-2.3791
X5.2902Y-5.2642
X5.298Y-3.5831
X5.299Y-3.5309
X5.3157Y-4.022
X5.3232Y-2.8909
X5.3256Y-3.5201
X5.3264Y-2.5228
X5.3295Y-4.3843
X5.3311Y-2.1681
X5.3354Y-3.8547
X5.337Y-4.5012
X5.3453Y-4.8783
X5.3551Y-3.5161
X5.361Y-4.2012
X5.3709Y-4.6618
X5.376Y-5.0783
X5.3787Y-5.2504
X5.3886Y-3.5427
X5.3886Y-3.587
X5.4004Y-5.3665
X5.4437Y-5.3213
X5.4465Y-2.0071
X5.4516Y-3.0173
X5.4535Y-5.2465
X5.4634Y-4.2681
X5.4634Y-4.465
X5.4634Y-4.6618
X5.4634Y-4.8587
X5.4634Y-5.0555
X5.4634Y-5.461
X5.4732Y-3.8547
X5.4831Y-3.5427
X5.4831Y-3.587
X5.5087Y-5.2386
X5.5205Y-5.1087
X5.5402Y-4.6972
X5.5421Y-4.837
X5.5421Y-4.9709
X5.5461Y-5.3291
X5.5539Y-5.2878
X5.5559Y-2.5386
X5.5575Y-2.8335
X5.5598Y-2.9417
X5.5598Y-5.1028
X5.5657Y-4.2012
X5.5661Y-2.4366
X5.5669Y-2.1996
X5.5776Y-3.587
X5.5785Y-3.5427
X5.5879Y-5.2312
X5.6061Y-4.9276
X5.6061Y-5.0732
X5.611Y-4.7386
X5.6209Y-3.8547
X5.6209Y-5.2583
X5.6346Y-4.6028
X5.6465Y-5.2917
X5.6474Y-4.9807
X5.6474Y-5.1382
X5.6504Y-4.022
X5.6524Y-4.7917
X5.6563Y-3.587
X5.6602Y-4.2681
X5.6602Y-4.465
X5.6752Y-2.0402
X5.676Y-5.4295
X5.6888Y-5.0201
X5.6888Y-5.1736
X5.6996Y-4.8469
X5.7213Y-4.5142
X5.7213Y-4.6126
X5.7311Y-2.4417
X5.7331Y-4.7051
X5.739Y-2.6642
X5.739Y-4.8921
X5.7429Y-5.0575
X5.7429Y-5.2701
X5.7437Y-2.8776
X5.7465Y-3.2665
X5.7488Y-3.8547
X5.7488Y-4.022
X5.7516Y-3.0748
X5.7783Y-4.7583
X5.7813Y-3.4404
X5.7823Y-3.6333
X5.7951Y-3.5427
X5.7984Y-2.239
X5.8128Y-3.4866
X5.8148Y-3.8469
X5.8167Y-4.0378
X5.8177Y-3.9335
X5.8177Y-4.1933
X5.8209Y-3.2787
X5.8492Y-5.3902
X5.8522Y-3.6333
X5.8531Y-3.4384
X5.8535Y-3.0764
X5.8571Y-4.2681
X5.8579Y-2.4421
X5.8591Y-3.5831
X5.8602Y-2.0866
X5.8634Y-2.7496
X5.8669Y-5.0496
X5.8669Y-5.2307
X5.8768Y-3.8547
X5.8768Y-4.022
X5.8807Y-3.4866
X5.8807Y-4.7681
X5.8886Y-4.5791
X5.9004Y-3.5614
X5.9211Y-3.4896
X5.9217Y-2.5866
X5.9244Y-2.9846
X5.926Y-3.9335
X5.928Y-3.6175
X5.928Y-4.8783
X5.9398Y-3.1488
X5.9516Y-4.2091
X5.9545Y-3.4541
X5.9555Y-3.5398
X5.9575Y-2.1146
X5.9594Y-4.4531
X5.9594Y-5.3508
X5.9661Y-3.2571
X5.9831Y-5.272
X5.985Y-3.8547
X5.985Y-4.022
X5.9919Y-3.4886
X5.9949Y-2.2224
X6.0028Y-3.6205
X6.0303Y-5.0043
X6.0339Y-2.448
X6.0343Y-3.9335
X6.0461Y-3.4591
X6.0461Y-4.3665
X6.0622Y-3.1224
X6.0697Y-4.2327
X6.0831Y-3.2224
X6.0835Y-3.8547
X6.0835Y-4.022
X6.113Y-3.5358
X6.113Y-3.9335
X6.114Y-3.4571
X6.1159Y-3.6185
X6.1917Y-3.8547
X6.1937Y-3.4551
X6.1947Y-3.6146
X6.2016Y-4.022
X6.2705Y-3.9335
X6.2724Y-3.5378
T2
X4.5993Y-2.713
X4.627Y-2.6462
X4.627Y-2.7798
X4.6938Y-2.6185
X4.6938Y-2.8075
X4.7606Y-2.6462
X4.7606Y-2.7798
X4.7883Y-2.713
X5.3512Y-2.713
X5.3789Y-2.6462
X5.3789Y-2.7798
X5.4457Y-2.6185
X5.4457Y-2.8075
X5.5125Y-2.6462
X5.5125Y-2.7798
X5.5402Y-2.713
T4
X3.8886Y-3.5201
X3.9673Y-3.5201
X4.0461Y-3.5201
X4.1248Y-3.5201
X4.2035Y-3.5201
X4.2823Y-3.5201
X4.361Y-3.5201
X4.4398Y-3.5201
X4.5185Y-3.5201
X4.5654Y-4.4071
X4.5654Y-4.4571
X4.5869Y-5.1929
X4.5934Y-5.1433
X4.5972Y-3.5201
X4.6154Y-4.4071
X4.6154Y-4.4571
X4.6365Y-5.1994
X4.643Y-5.1499
X4.6654Y-4.4071
X4.6654Y-4.4571
X4.6861Y-5.206
X4.6926Y-5.1564
X4.7154Y-4.4071
X4.7154Y-4.4571
X4.7356Y-5.2125
X4.7422Y-5.1629
X4.7654Y-4.4071
X4.7654Y-4.4571
X4.7852Y-5.219
X4.7917Y-5.1694
X4.8154Y-4.4071
X4.8154Y-4.4571
X4.8348Y-5.2255
X4.8413Y-5.176
X4.8654Y-4.4071
X4.8654Y-4.4571
X4.8843Y-5.2321
X4.8909Y-5.1825
X5.2485Y-5.1825
X5.255Y-5.2321
X5.2981Y-5.176
X5.3046Y-5.2255
X5.3476Y-5.1694
X5.3542Y-5.219
X5.3972Y-5.1629
X5.4037Y-5.2125
X5.4468Y-5.1564
X5.4533Y-5.206
X5.4964Y-5.1499
X5.5029Y-5.1994
X5.5459Y-5.1433
X5.5525Y-5.1929
X5.6012Y-3.9374
X5.6406Y-3.528
X5.6799Y-3.9374
X5.6996Y-3.5752
X5.7587Y-3.528
X5.8177Y-3.5752
X5.8768Y-3.528
X5.9358Y-3.5752
X5.9949Y-3.528
X6.0539Y-3.5752
T5
X5.8305Y-4.3069
X5.8305Y-4.3569
X5.8305Y-4.4069
X5.8305Y-4.4569
X5.8305Y-4.5069
X5.8305Y-4.5569
X5.8305Y-4.6069
X5.8305Y-4.6569
X5.8305Y-4.7069
X5.8305Y-4.7569
T6
X4.115Y-3.6913
X4.2134Y-3.6913
X4.5539Y-3.0693
X4.5539Y-3.1677
X5.2764Y-3.963
X5.3748Y-3.963
X5.5343Y-3.0693
X5.5343Y-3.1677
T7
X5.4004Y-2.9079
X5.6484Y-2.8508
T8
X4.8744Y-3.0654
X4.8744Y-3.1992
X5.265Y-3.0654
X5.265Y-3.1992
T9
X4.9713Y-2.6106
X5.1681Y-2.6106
T10
X4.6938Y-2.713
X5.4457Y-2.713
T3
G00X4.7449Y-2.3114
M15
G01X4.7449Y-2.3744
M16
G05
G00X4.922Y-2.2898
M15
G01X4.9024Y-2.2898
M16
G05
G00X4.922Y-2.3961
M15
G01X4.9024Y-2.3961
M16
G05
G00X5.0795Y-2.2898
M15
G01X5.0598Y-2.2898
M16
G05
G00X5.0795Y-2.3961
M15
G01X5.0598Y-2.3961
M16
G05
G00X5.237Y-2.2898
M15
G01X5.2173Y-2.2898
M16
G05
G00X5.237Y-2.3961
M15
G01X5.2173Y-2.3961
M16
G05
G00X5.3945Y-2.3114
M15
G01X5.3945Y-2.3744
M16
G05
M30
