%TF.GenerationSoftware,KiCad,Pcbnew,7.0.11*%
%TF.CreationDate,2025-06-25T00:44:36+09:00*%
%TF.ProjectId,1stLayer_Power,3173744c-6179-4657-925f-506f7765722e,rev?*%
%TF.SameCoordinates,Original*%
%TF.FileFunction,Legend,Bot*%
%TF.FilePolarity,Positive*%
%FSLAX46Y46*%
G04 Gerber Fmt 4.6, Leading zero omitted, Abs format (unit mm)*
G04 Created by KiCad (PCBNEW 7.0.11) date 2025-06-25 00:44:36*
%MOMM*%
%LPD*%
G01*
G04 APERTURE LIST*
G04 Aperture macros list*
%AMRoundRect*
0 Rectangle with rounded corners*
0 $1 Rounding radius*
0 $2 $3 $4 $5 $6 $7 $8 $9 X,Y pos of 4 corners*
0 Add a 4 corners polygon primitive as box body*
4,1,4,$2,$3,$4,$5,$6,$7,$8,$9,$2,$3,0*
0 Add four circle primitives for the rounded corners*
1,1,$1+$1,$2,$3*
1,1,$1+$1,$4,$5*
1,1,$1+$1,$6,$7*
1,1,$1+$1,$8,$9*
0 Add four rect primitives between the rounded corners*
20,1,$1+$1,$2,$3,$4,$5,0*
20,1,$1+$1,$4,$5,$6,$7,0*
20,1,$1+$1,$6,$7,$8,$9,0*
20,1,$1+$1,$8,$9,$2,$3,0*%
%AMRotRect*
0 Rectangle, with rotation*
0 The origin of the aperture is its center*
0 $1 length*
0 $2 width*
0 $3 Rotation angle, in degrees counterclockwise*
0 Add horizontal line*
21,1,$1,$2,0,0,$3*%
G04 Aperture macros list end*
%ADD10C,0.180000*%
%ADD11C,0.300000*%
%ADD12C,0.120000*%
%ADD13C,0.508000*%
%ADD14C,0.100000*%
%ADD15C,0.160000*%
%ADD16C,0.152400*%
%ADD17C,0.454000*%
%ADD18C,1.000000*%
%ADD19O,1.850000X1.700000*%
%ADD20RoundRect,0.250000X-0.675000X0.600000X-0.675000X-0.600000X0.675000X-0.600000X0.675000X0.600000X0*%
%ADD21O,1.700000X1.850000*%
%ADD22RoundRect,0.250000X0.600000X0.675000X-0.600000X0.675000X-0.600000X-0.675000X0.600000X-0.675000X0*%
%ADD23RotRect,1.000000X1.000000X352.500000*%
%ADD24R,3.800000X3.800000*%
%ADD25C,3.800000*%
%ADD26R,1.000000X1.000000*%
%ADD27C,2.000000*%
%ADD28O,1.000000X1.000000*%
%ADD29C,2.780000*%
%ADD30RotRect,1.000000X1.000000X7.500000*%
%ADD31C,0.800000*%
%ADD32C,6.400000*%
%ADD33RoundRect,0.250000X-0.600000X-0.675000X0.600000X-0.675000X0.600000X0.675000X-0.600000X0.675000X0*%
%ADD34RoundRect,0.300000X-0.550000X0.300000X-0.550000X-0.300000X0.550000X-0.300000X0.550000X0.300000X0*%
%ADD35O,1.700000X1.200000*%
%ADD36O,1.200000X2.800000*%
%ADD37R,0.400000X0.900000*%
%ADD38R,0.375000X0.900000*%
%ADD39R,0.400000X0.700000*%
%ADD40R,2.650000X2.200000*%
%ADD41R,0.375000X0.700000*%
G04 APERTURE END LIST*
D10*
X135737293Y-90374211D02*
X135808721Y-90445640D01*
X135808721Y-90445640D02*
X136023007Y-90517068D01*
X136023007Y-90517068D02*
X136165864Y-90517068D01*
X136165864Y-90517068D02*
X136380150Y-90445640D01*
X136380150Y-90445640D02*
X136523007Y-90302782D01*
X136523007Y-90302782D02*
X136594436Y-90159925D01*
X136594436Y-90159925D02*
X136665864Y-89874211D01*
X136665864Y-89874211D02*
X136665864Y-89659925D01*
X136665864Y-89659925D02*
X136594436Y-89374211D01*
X136594436Y-89374211D02*
X136523007Y-89231354D01*
X136523007Y-89231354D02*
X136380150Y-89088497D01*
X136380150Y-89088497D02*
X136165864Y-89017068D01*
X136165864Y-89017068D02*
X136023007Y-89017068D01*
X136023007Y-89017068D02*
X135808721Y-89088497D01*
X135808721Y-89088497D02*
X135737293Y-89159925D01*
X134880150Y-90517068D02*
X135023007Y-90445640D01*
X135023007Y-90445640D02*
X135094436Y-90374211D01*
X135094436Y-90374211D02*
X135165864Y-90231354D01*
X135165864Y-90231354D02*
X135165864Y-89802782D01*
X135165864Y-89802782D02*
X135094436Y-89659925D01*
X135094436Y-89659925D02*
X135023007Y-89588497D01*
X135023007Y-89588497D02*
X134880150Y-89517068D01*
X134880150Y-89517068D02*
X134665864Y-89517068D01*
X134665864Y-89517068D02*
X134523007Y-89588497D01*
X134523007Y-89588497D02*
X134451579Y-89659925D01*
X134451579Y-89659925D02*
X134380150Y-89802782D01*
X134380150Y-89802782D02*
X134380150Y-90231354D01*
X134380150Y-90231354D02*
X134451579Y-90374211D01*
X134451579Y-90374211D02*
X134523007Y-90445640D01*
X134523007Y-90445640D02*
X134665864Y-90517068D01*
X134665864Y-90517068D02*
X134880150Y-90517068D01*
X133737293Y-89517068D02*
X133737293Y-90517068D01*
X133737293Y-89659925D02*
X133665864Y-89588497D01*
X133665864Y-89588497D02*
X133523007Y-89517068D01*
X133523007Y-89517068D02*
X133308721Y-89517068D01*
X133308721Y-89517068D02*
X133165864Y-89588497D01*
X133165864Y-89588497D02*
X133094436Y-89731354D01*
X133094436Y-89731354D02*
X133094436Y-90517068D01*
X132380150Y-89517068D02*
X132380150Y-90517068D01*
X132380150Y-89659925D02*
X132308721Y-89588497D01*
X132308721Y-89588497D02*
X132165864Y-89517068D01*
X132165864Y-89517068D02*
X131951578Y-89517068D01*
X131951578Y-89517068D02*
X131808721Y-89588497D01*
X131808721Y-89588497D02*
X131737293Y-89731354D01*
X131737293Y-89731354D02*
X131737293Y-90517068D01*
X129023007Y-90374211D02*
X129094435Y-90445640D01*
X129094435Y-90445640D02*
X129308721Y-90517068D01*
X129308721Y-90517068D02*
X129451578Y-90517068D01*
X129451578Y-90517068D02*
X129665864Y-90445640D01*
X129665864Y-90445640D02*
X129808721Y-90302782D01*
X129808721Y-90302782D02*
X129880150Y-90159925D01*
X129880150Y-90159925D02*
X129951578Y-89874211D01*
X129951578Y-89874211D02*
X129951578Y-89659925D01*
X129951578Y-89659925D02*
X129880150Y-89374211D01*
X129880150Y-89374211D02*
X129808721Y-89231354D01*
X129808721Y-89231354D02*
X129665864Y-89088497D01*
X129665864Y-89088497D02*
X129451578Y-89017068D01*
X129451578Y-89017068D02*
X129308721Y-89017068D01*
X129308721Y-89017068D02*
X129094435Y-89088497D01*
X129094435Y-89088497D02*
X129023007Y-89159925D01*
X153337293Y-100624211D02*
X153408721Y-100695640D01*
X153408721Y-100695640D02*
X153623007Y-100767068D01*
X153623007Y-100767068D02*
X153765864Y-100767068D01*
X153765864Y-100767068D02*
X153980150Y-100695640D01*
X153980150Y-100695640D02*
X154123007Y-100552782D01*
X154123007Y-100552782D02*
X154194436Y-100409925D01*
X154194436Y-100409925D02*
X154265864Y-100124211D01*
X154265864Y-100124211D02*
X154265864Y-99909925D01*
X154265864Y-99909925D02*
X154194436Y-99624211D01*
X154194436Y-99624211D02*
X154123007Y-99481354D01*
X154123007Y-99481354D02*
X153980150Y-99338497D01*
X153980150Y-99338497D02*
X153765864Y-99267068D01*
X153765864Y-99267068D02*
X153623007Y-99267068D01*
X153623007Y-99267068D02*
X153408721Y-99338497D01*
X153408721Y-99338497D02*
X153337293Y-99409925D01*
X152480150Y-100767068D02*
X152623007Y-100695640D01*
X152623007Y-100695640D02*
X152694436Y-100624211D01*
X152694436Y-100624211D02*
X152765864Y-100481354D01*
X152765864Y-100481354D02*
X152765864Y-100052782D01*
X152765864Y-100052782D02*
X152694436Y-99909925D01*
X152694436Y-99909925D02*
X152623007Y-99838497D01*
X152623007Y-99838497D02*
X152480150Y-99767068D01*
X152480150Y-99767068D02*
X152265864Y-99767068D01*
X152265864Y-99767068D02*
X152123007Y-99838497D01*
X152123007Y-99838497D02*
X152051579Y-99909925D01*
X152051579Y-99909925D02*
X151980150Y-100052782D01*
X151980150Y-100052782D02*
X151980150Y-100481354D01*
X151980150Y-100481354D02*
X152051579Y-100624211D01*
X152051579Y-100624211D02*
X152123007Y-100695640D01*
X152123007Y-100695640D02*
X152265864Y-100767068D01*
X152265864Y-100767068D02*
X152480150Y-100767068D01*
X151337293Y-99767068D02*
X151337293Y-100767068D01*
X151337293Y-99909925D02*
X151265864Y-99838497D01*
X151265864Y-99838497D02*
X151123007Y-99767068D01*
X151123007Y-99767068D02*
X150908721Y-99767068D01*
X150908721Y-99767068D02*
X150765864Y-99838497D01*
X150765864Y-99838497D02*
X150694436Y-99981354D01*
X150694436Y-99981354D02*
X150694436Y-100767068D01*
X149980150Y-99767068D02*
X149980150Y-100767068D01*
X149980150Y-99909925D02*
X149908721Y-99838497D01*
X149908721Y-99838497D02*
X149765864Y-99767068D01*
X149765864Y-99767068D02*
X149551578Y-99767068D01*
X149551578Y-99767068D02*
X149408721Y-99838497D01*
X149408721Y-99838497D02*
X149337293Y-99981354D01*
X149337293Y-99981354D02*
X149337293Y-100767068D01*
X146980150Y-99981354D02*
X146765864Y-100052782D01*
X146765864Y-100052782D02*
X146694435Y-100124211D01*
X146694435Y-100124211D02*
X146623007Y-100267068D01*
X146623007Y-100267068D02*
X146623007Y-100481354D01*
X146623007Y-100481354D02*
X146694435Y-100624211D01*
X146694435Y-100624211D02*
X146765864Y-100695640D01*
X146765864Y-100695640D02*
X146908721Y-100767068D01*
X146908721Y-100767068D02*
X147480150Y-100767068D01*
X147480150Y-100767068D02*
X147480150Y-99267068D01*
X147480150Y-99267068D02*
X146980150Y-99267068D01*
X146980150Y-99267068D02*
X146837293Y-99338497D01*
X146837293Y-99338497D02*
X146765864Y-99409925D01*
X146765864Y-99409925D02*
X146694435Y-99552782D01*
X146694435Y-99552782D02*
X146694435Y-99695640D01*
X146694435Y-99695640D02*
X146765864Y-99838497D01*
X146765864Y-99838497D02*
X146837293Y-99909925D01*
X146837293Y-99909925D02*
X146980150Y-99981354D01*
X146980150Y-99981354D02*
X147480150Y-99981354D01*
X110287293Y-99524211D02*
X110358721Y-99595640D01*
X110358721Y-99595640D02*
X110573007Y-99667068D01*
X110573007Y-99667068D02*
X110715864Y-99667068D01*
X110715864Y-99667068D02*
X110930150Y-99595640D01*
X110930150Y-99595640D02*
X111073007Y-99452782D01*
X111073007Y-99452782D02*
X111144436Y-99309925D01*
X111144436Y-99309925D02*
X111215864Y-99024211D01*
X111215864Y-99024211D02*
X111215864Y-98809925D01*
X111215864Y-98809925D02*
X111144436Y-98524211D01*
X111144436Y-98524211D02*
X111073007Y-98381354D01*
X111073007Y-98381354D02*
X110930150Y-98238497D01*
X110930150Y-98238497D02*
X110715864Y-98167068D01*
X110715864Y-98167068D02*
X110573007Y-98167068D01*
X110573007Y-98167068D02*
X110358721Y-98238497D01*
X110358721Y-98238497D02*
X110287293Y-98309925D01*
X109430150Y-99667068D02*
X109573007Y-99595640D01*
X109573007Y-99595640D02*
X109644436Y-99524211D01*
X109644436Y-99524211D02*
X109715864Y-99381354D01*
X109715864Y-99381354D02*
X109715864Y-98952782D01*
X109715864Y-98952782D02*
X109644436Y-98809925D01*
X109644436Y-98809925D02*
X109573007Y-98738497D01*
X109573007Y-98738497D02*
X109430150Y-98667068D01*
X109430150Y-98667068D02*
X109215864Y-98667068D01*
X109215864Y-98667068D02*
X109073007Y-98738497D01*
X109073007Y-98738497D02*
X109001579Y-98809925D01*
X109001579Y-98809925D02*
X108930150Y-98952782D01*
X108930150Y-98952782D02*
X108930150Y-99381354D01*
X108930150Y-99381354D02*
X109001579Y-99524211D01*
X109001579Y-99524211D02*
X109073007Y-99595640D01*
X109073007Y-99595640D02*
X109215864Y-99667068D01*
X109215864Y-99667068D02*
X109430150Y-99667068D01*
X108287293Y-98667068D02*
X108287293Y-99667068D01*
X108287293Y-98809925D02*
X108215864Y-98738497D01*
X108215864Y-98738497D02*
X108073007Y-98667068D01*
X108073007Y-98667068D02*
X107858721Y-98667068D01*
X107858721Y-98667068D02*
X107715864Y-98738497D01*
X107715864Y-98738497D02*
X107644436Y-98881354D01*
X107644436Y-98881354D02*
X107644436Y-99667068D01*
X106930150Y-98667068D02*
X106930150Y-99667068D01*
X106930150Y-98809925D02*
X106858721Y-98738497D01*
X106858721Y-98738497D02*
X106715864Y-98667068D01*
X106715864Y-98667068D02*
X106501578Y-98667068D01*
X106501578Y-98667068D02*
X106358721Y-98738497D01*
X106358721Y-98738497D02*
X106287293Y-98881354D01*
X106287293Y-98881354D02*
X106287293Y-99667068D01*
X104501578Y-99238497D02*
X103787293Y-99238497D01*
X104644435Y-99667068D02*
X104144435Y-98167068D01*
X104144435Y-98167068D02*
X103644435Y-99667068D01*
D11*
X126698571Y-108088328D02*
X126698571Y-109159757D01*
X126698571Y-109159757D02*
X126770000Y-109374042D01*
X126770000Y-109374042D02*
X126912857Y-109516900D01*
X126912857Y-109516900D02*
X127127143Y-109588328D01*
X127127143Y-109588328D02*
X127270000Y-109588328D01*
X125270000Y-109588328D02*
X125984286Y-109588328D01*
X125984286Y-109588328D02*
X125984286Y-108088328D01*
X123912857Y-109445471D02*
X123984285Y-109516900D01*
X123984285Y-109516900D02*
X124198571Y-109588328D01*
X124198571Y-109588328D02*
X124341428Y-109588328D01*
X124341428Y-109588328D02*
X124555714Y-109516900D01*
X124555714Y-109516900D02*
X124698571Y-109374042D01*
X124698571Y-109374042D02*
X124770000Y-109231185D01*
X124770000Y-109231185D02*
X124841428Y-108945471D01*
X124841428Y-108945471D02*
X124841428Y-108731185D01*
X124841428Y-108731185D02*
X124770000Y-108445471D01*
X124770000Y-108445471D02*
X124698571Y-108302614D01*
X124698571Y-108302614D02*
X124555714Y-108159757D01*
X124555714Y-108159757D02*
X124341428Y-108088328D01*
X124341428Y-108088328D02*
X124198571Y-108088328D01*
X124198571Y-108088328D02*
X123984285Y-108159757D01*
X123984285Y-108159757D02*
X123912857Y-108231185D01*
X122841428Y-108088328D02*
X122841428Y-109159757D01*
X122841428Y-109159757D02*
X122912857Y-109374042D01*
X122912857Y-109374042D02*
X123055714Y-109516900D01*
X123055714Y-109516900D02*
X123270000Y-109588328D01*
X123270000Y-109588328D02*
X123412857Y-109588328D01*
X121412857Y-109588328D02*
X122127143Y-109588328D01*
X122127143Y-109588328D02*
X122127143Y-108088328D01*
X120055714Y-109445471D02*
X120127142Y-109516900D01*
X120127142Y-109516900D02*
X120341428Y-109588328D01*
X120341428Y-109588328D02*
X120484285Y-109588328D01*
X120484285Y-109588328D02*
X120698571Y-109516900D01*
X120698571Y-109516900D02*
X120841428Y-109374042D01*
X120841428Y-109374042D02*
X120912857Y-109231185D01*
X120912857Y-109231185D02*
X120984285Y-108945471D01*
X120984285Y-108945471D02*
X120984285Y-108731185D01*
X120984285Y-108731185D02*
X120912857Y-108445471D01*
X120912857Y-108445471D02*
X120841428Y-108302614D01*
X120841428Y-108302614D02*
X120698571Y-108159757D01*
X120698571Y-108159757D02*
X120484285Y-108088328D01*
X120484285Y-108088328D02*
X120341428Y-108088328D01*
X120341428Y-108088328D02*
X120127142Y-108159757D01*
X120127142Y-108159757D02*
X120055714Y-108231185D01*
X118984285Y-108088328D02*
X118984285Y-109159757D01*
X118984285Y-109159757D02*
X119055714Y-109374042D01*
X119055714Y-109374042D02*
X119198571Y-109516900D01*
X119198571Y-109516900D02*
X119412857Y-109588328D01*
X119412857Y-109588328D02*
X119555714Y-109588328D01*
X117555714Y-109588328D02*
X118270000Y-109588328D01*
X118270000Y-109588328D02*
X118270000Y-108088328D01*
X116198571Y-109445471D02*
X116269999Y-109516900D01*
X116269999Y-109516900D02*
X116484285Y-109588328D01*
X116484285Y-109588328D02*
X116627142Y-109588328D01*
X116627142Y-109588328D02*
X116841428Y-109516900D01*
X116841428Y-109516900D02*
X116984285Y-109374042D01*
X116984285Y-109374042D02*
X117055714Y-109231185D01*
X117055714Y-109231185D02*
X117127142Y-108945471D01*
X117127142Y-108945471D02*
X117127142Y-108731185D01*
X117127142Y-108731185D02*
X117055714Y-108445471D01*
X117055714Y-108445471D02*
X116984285Y-108302614D01*
X116984285Y-108302614D02*
X116841428Y-108159757D01*
X116841428Y-108159757D02*
X116627142Y-108088328D01*
X116627142Y-108088328D02*
X116484285Y-108088328D01*
X116484285Y-108088328D02*
X116269999Y-108159757D01*
X116269999Y-108159757D02*
X116198571Y-108231185D01*
X115127142Y-108088328D02*
X115127142Y-109159757D01*
X115127142Y-109159757D02*
X115198571Y-109374042D01*
X115198571Y-109374042D02*
X115341428Y-109516900D01*
X115341428Y-109516900D02*
X115555714Y-109588328D01*
X115555714Y-109588328D02*
X115698571Y-109588328D01*
X113698571Y-109588328D02*
X114412857Y-109588328D01*
X114412857Y-109588328D02*
X114412857Y-108088328D01*
X112341428Y-109445471D02*
X112412856Y-109516900D01*
X112412856Y-109516900D02*
X112627142Y-109588328D01*
X112627142Y-109588328D02*
X112769999Y-109588328D01*
X112769999Y-109588328D02*
X112984285Y-109516900D01*
X112984285Y-109516900D02*
X113127142Y-109374042D01*
X113127142Y-109374042D02*
X113198571Y-109231185D01*
X113198571Y-109231185D02*
X113269999Y-108945471D01*
X113269999Y-108945471D02*
X113269999Y-108731185D01*
X113269999Y-108731185D02*
X113198571Y-108445471D01*
X113198571Y-108445471D02*
X113127142Y-108302614D01*
X113127142Y-108302614D02*
X112984285Y-108159757D01*
X112984285Y-108159757D02*
X112769999Y-108088328D01*
X112769999Y-108088328D02*
X112627142Y-108088328D01*
X112627142Y-108088328D02*
X112412856Y-108159757D01*
X112412856Y-108159757D02*
X112341428Y-108231185D01*
D12*
X127436667Y-53101240D02*
X127579524Y-53053620D01*
X127579524Y-53053620D02*
X127817619Y-53053620D01*
X127817619Y-53053620D02*
X127912857Y-53101240D01*
X127912857Y-53101240D02*
X127960476Y-53148859D01*
X127960476Y-53148859D02*
X128008095Y-53244097D01*
X128008095Y-53244097D02*
X128008095Y-53339335D01*
X128008095Y-53339335D02*
X127960476Y-53434573D01*
X127960476Y-53434573D02*
X127912857Y-53482192D01*
X127912857Y-53482192D02*
X127817619Y-53529811D01*
X127817619Y-53529811D02*
X127627143Y-53577430D01*
X127627143Y-53577430D02*
X127531905Y-53625049D01*
X127531905Y-53625049D02*
X127484286Y-53672668D01*
X127484286Y-53672668D02*
X127436667Y-53767906D01*
X127436667Y-53767906D02*
X127436667Y-53863144D01*
X127436667Y-53863144D02*
X127484286Y-53958382D01*
X127484286Y-53958382D02*
X127531905Y-54006001D01*
X127531905Y-54006001D02*
X127627143Y-54053620D01*
X127627143Y-54053620D02*
X127865238Y-54053620D01*
X127865238Y-54053620D02*
X128008095Y-54006001D01*
X128341429Y-54053620D02*
X128579524Y-53053620D01*
X128579524Y-53053620D02*
X128770000Y-53767906D01*
X128770000Y-53767906D02*
X128960476Y-53053620D01*
X128960476Y-53053620D02*
X129198572Y-54053620D01*
X130103333Y-53053620D02*
X129531905Y-53053620D01*
X129817619Y-53053620D02*
X129817619Y-54053620D01*
X129817619Y-54053620D02*
X129722381Y-53910763D01*
X129722381Y-53910763D02*
X129627143Y-53815525D01*
X129627143Y-53815525D02*
X129531905Y-53767906D01*
X120103333Y-114366379D02*
X120103333Y-115080664D01*
X120103333Y-115080664D02*
X120150952Y-115223521D01*
X120150952Y-115223521D02*
X120246190Y-115318760D01*
X120246190Y-115318760D02*
X120389047Y-115366379D01*
X120389047Y-115366379D02*
X120484285Y-115366379D01*
X119103333Y-115366379D02*
X119674761Y-115366379D01*
X119389047Y-115366379D02*
X119389047Y-114366379D01*
X119389047Y-114366379D02*
X119484285Y-114509236D01*
X119484285Y-114509236D02*
X119579523Y-114604474D01*
X119579523Y-114604474D02*
X119674761Y-114652093D01*
D13*
%TO.C,J2*%
X125978762Y-131839679D02*
G75*
G03*
X125578762Y-131839679I-200000J0D01*
G01*
X125578762Y-131839679D02*
G75*
G03*
X125978762Y-131839679I200000J0D01*
G01*
%TO.C,J3*%
X142617289Y-130436784D02*
G75*
G03*
X142217289Y-130436784I-200000J0D01*
G01*
X142217289Y-130436784D02*
G75*
G03*
X142617289Y-130436784I200000J0D01*
G01*
D12*
%TO.C,SW1*%
X137170000Y-55860000D02*
X137170000Y-57810000D01*
X120370000Y-55860000D02*
X137170000Y-55860000D01*
X120370000Y-55860000D02*
X120370000Y-57810000D01*
D14*
X133170000Y-57310000D02*
X128770000Y-57310000D01*
X133170000Y-59010000D02*
X133170000Y-60010000D01*
X124370000Y-59010000D02*
X124370000Y-60010000D01*
X128770000Y-61710000D02*
X133170000Y-61710000D01*
D12*
X137170000Y-63160000D02*
X137170000Y-61210000D01*
X120370000Y-63160000D02*
X120370000Y-61210000D01*
X120370000Y-63160000D02*
X137170000Y-63160000D01*
D14*
X128770000Y-57310000D02*
X124070000Y-57310000D01*
X123670000Y-57710000D01*
X123670000Y-59510000D01*
X121370000Y-59510000D01*
X121370000Y-58310000D01*
X120920000Y-57860000D01*
X120120000Y-57860000D01*
X119670000Y-58310000D01*
X119670000Y-59510000D01*
X118770000Y-59510000D01*
X118770000Y-54510000D01*
X128770000Y-54510000D01*
X128770000Y-57310000D01*
G36*
X128770000Y-57310000D02*
G01*
X124070000Y-57310000D01*
X123670000Y-57710000D01*
X123670000Y-59510000D01*
X121370000Y-59510000D01*
X121370000Y-58310000D01*
X120920000Y-57860000D01*
X120120000Y-57860000D01*
X119670000Y-58310000D01*
X119670000Y-59510000D01*
X118770000Y-59510000D01*
X118770000Y-54510000D01*
X128770000Y-54510000D01*
X128770000Y-57310000D01*
G37*
X119670000Y-60710000D02*
X120120000Y-61160000D01*
X120920000Y-61160000D01*
X121370000Y-60710000D01*
X121370000Y-59510000D01*
X123670000Y-59510000D01*
X123670000Y-61410000D01*
X123970000Y-61710000D01*
X128770000Y-61710000D01*
X128770000Y-64510000D01*
X118770000Y-64510000D01*
X118770000Y-59510000D01*
X119670000Y-59510000D01*
X119670000Y-60710000D01*
G36*
X119670000Y-60710000D02*
G01*
X120120000Y-61160000D01*
X120920000Y-61160000D01*
X121370000Y-60710000D01*
X121370000Y-59510000D01*
X123670000Y-59510000D01*
X123670000Y-61410000D01*
X123970000Y-61710000D01*
X128770000Y-61710000D01*
X128770000Y-64510000D01*
X118770000Y-64510000D01*
X118770000Y-59510000D01*
X119670000Y-59510000D01*
X119670000Y-60710000D01*
G37*
%TO.C,Q4*%
X118746500Y-82680000D02*
X118746500Y-78910000D01*
X121846500Y-82680000D02*
X121846500Y-79486000D01*
D15*
X118876500Y-79010000D02*
G75*
G03*
X118716500Y-79010000I-80000J0D01*
G01*
X118716500Y-79010000D02*
G75*
G03*
X118876500Y-79010000I80000J0D01*
G01*
D14*
%TO.C,Q6*%
X121870000Y-73350000D02*
X121870000Y-77120000D01*
X118770000Y-73350000D02*
X118770000Y-76544000D01*
D15*
X121900000Y-77020000D02*
G75*
G03*
X121740000Y-77020000I-80000J0D01*
G01*
X121740000Y-77020000D02*
G75*
G03*
X121900000Y-77020000I80000J0D01*
G01*
D16*
%TO.C,J1*%
X127520000Y-111009999D02*
X112020000Y-111009999D01*
X112017000Y-111009200D02*
X112020000Y-106009999D01*
X112020000Y-106009999D02*
X127520000Y-106009999D01*
D12*
X118570000Y-106009999D02*
X118570000Y-111009999D01*
X120970000Y-106009999D02*
X120970000Y-111009999D01*
D16*
X127520000Y-106009999D02*
X127520000Y-111009200D01*
D17*
X125371000Y-113209999D02*
G75*
G03*
X124917000Y-113209999I-227000J0D01*
G01*
X124917000Y-113209999D02*
G75*
G03*
X125371000Y-113209999I227000J0D01*
G01*
%TD*%
%LPC*%
D18*
%TO.C,H12*%
X152270000Y-89610000D03*
%TD*%
%TO.C,H17*%
X144770000Y-90810000D03*
%TD*%
D19*
%TO.C,J5*%
X140570000Y-80460000D03*
D20*
X140570000Y-77960000D03*
%TD*%
D21*
%TO.C,J8*%
X104520000Y-93760000D03*
D22*
X107020000Y-93760000D03*
%TD*%
D23*
%TO.C,J2*%
X124228142Y-131635536D03*
D18*
X124062374Y-132894671D03*
X122969007Y-131469768D03*
X122803239Y-132728903D03*
X121709872Y-131303999D03*
X121544104Y-132563134D03*
X120450737Y-131138231D03*
X120284969Y-132397366D03*
X119191602Y-130972463D03*
X119025834Y-132231598D03*
X117932467Y-130806694D03*
X117766699Y-132065829D03*
X116673332Y-130640926D03*
X116507564Y-131900061D03*
%TD*%
%TO.C,H20*%
X100770000Y-89410000D03*
%TD*%
%TO.C,H10*%
X116770000Y-89410000D03*
%TD*%
%TO.C,H6*%
X108770000Y-89410000D03*
%TD*%
D20*
%TO.C,J6*%
X115670000Y-77960000D03*
D19*
X115670000Y-80460000D03*
%TD*%
D24*
%TO.C,J4*%
X131270000Y-66310000D03*
D25*
X126270000Y-66310000D03*
%TD*%
D18*
%TO.C,H16*%
X146270000Y-89610000D03*
%TD*%
%TO.C,H18*%
X143270000Y-89610000D03*
%TD*%
%TO.C,H4*%
X104770000Y-89410000D03*
%TD*%
D26*
%TO.C,H3*%
X102770000Y-89410000D03*
%TD*%
D18*
%TO.C,H22*%
X142270000Y-100010000D03*
%TD*%
%TO.C,H8*%
X112770000Y-89410000D03*
%TD*%
D27*
%TO.C,TP2*%
X137170000Y-73860000D03*
%TD*%
D18*
%TO.C,H7*%
X110770000Y-89410000D03*
%TD*%
D26*
%TO.C,H19*%
X98770000Y-89410000D03*
%TD*%
D18*
%TO.C,H14*%
X149270000Y-89610000D03*
%TD*%
D26*
%TO.C,J11*%
X148094920Y-109395000D03*
D28*
X148094920Y-110665000D03*
X148094920Y-111935000D03*
X148094920Y-113205000D03*
X148094920Y-114475000D03*
X148094920Y-115745000D03*
X148094920Y-117015000D03*
X148094920Y-118285000D03*
X148094920Y-119555000D03*
X148094920Y-120825000D03*
%TD*%
D18*
%TO.C,H15*%
X147770000Y-90810000D03*
%TD*%
%TO.C,H9*%
X114770000Y-89410000D03*
%TD*%
D26*
%TO.C,H21*%
X144270000Y-100010000D03*
%TD*%
D18*
%TO.C,H13*%
X150770000Y-90810000D03*
%TD*%
D29*
%TO.C,F2*%
X133730000Y-81260000D03*
X133730000Y-77860000D03*
X123810000Y-81260000D03*
X123810000Y-77860000D03*
%TD*%
D30*
%TO.C,J3*%
X140866669Y-130640927D03*
D18*
X141032437Y-131900062D03*
X139607534Y-130806695D03*
X139773302Y-132065830D03*
X138348399Y-130972464D03*
X138514167Y-132231599D03*
X137089264Y-131138232D03*
X137255032Y-132397367D03*
X135830129Y-131304000D03*
X135995897Y-132563135D03*
X134570994Y-131469769D03*
X134736762Y-132728904D03*
X133311859Y-131635537D03*
X133477627Y-132894672D03*
%TD*%
D27*
%TO.C,TP1*%
X143470000Y-72410000D03*
%TD*%
D18*
%TO.C,H5*%
X106770000Y-89410000D03*
%TD*%
D31*
%TO.C,H2*%
X116822000Y-68910000D03*
X117524944Y-67212944D03*
X117524944Y-70607056D03*
X119222000Y-66510000D03*
D32*
X119222000Y-68910000D03*
D31*
X119222000Y-71310000D03*
X120919056Y-67212944D03*
X120919056Y-70607056D03*
X121622000Y-68910000D03*
%TD*%
D21*
%TO.C,J9*%
X136520000Y-100660000D03*
D33*
X134020000Y-100660000D03*
%TD*%
D31*
%TO.C,H1*%
X135920000Y-68910000D03*
X136622944Y-67212944D03*
X136622944Y-70607056D03*
X138320000Y-66510000D03*
D32*
X138320000Y-68910000D03*
D31*
X138320000Y-71310000D03*
X140017056Y-67212944D03*
X140017056Y-70607056D03*
X140720000Y-68910000D03*
%TD*%
D26*
%TO.C,H11*%
X153770000Y-90810000D03*
%TD*%
D34*
%TO.C,SW1*%
X124770000Y-60860000D03*
D35*
X128770000Y-60860000D03*
X132770000Y-60860000D03*
X124770000Y-58160000D03*
X128770000Y-58160000D03*
X132770000Y-58160000D03*
D36*
X137020000Y-59510000D03*
X120520000Y-59510000D03*
%TD*%
D37*
%TO.C,Q4*%
X119321500Y-79260000D03*
X119971500Y-79260000D03*
D38*
X120609000Y-79260000D03*
D37*
X121271500Y-79260000D03*
D39*
X119321500Y-82860000D03*
X119971500Y-82860000D03*
D40*
X120296500Y-81410000D03*
D41*
X120609000Y-82860000D03*
D39*
X121271500Y-82860000D03*
%TD*%
D37*
%TO.C,Q6*%
X121295000Y-76770000D03*
X120645000Y-76770000D03*
D38*
X120007500Y-76770000D03*
D37*
X119345000Y-76770000D03*
D39*
X121295000Y-73170000D03*
X120645000Y-73170000D03*
D40*
X120320000Y-74620000D03*
D41*
X120007500Y-73170000D03*
D39*
X119345000Y-73170000D03*
%TD*%
D26*
%TO.C,J1*%
X123580000Y-113209999D03*
D18*
X123580000Y-111939999D03*
X122310000Y-113209999D03*
X122310000Y-111939999D03*
X121040000Y-113209999D03*
X121040000Y-111939999D03*
X119770000Y-113209999D03*
X119770000Y-111939999D03*
X118500000Y-113209999D03*
X118500000Y-111939999D03*
X117230000Y-113209999D03*
X117230000Y-111939999D03*
X115960000Y-113209999D03*
X115960000Y-111939999D03*
%TD*%
%LPD*%
M02*
