%TF.GenerationSoftware,KiCad,Pcbnew,7.0.11*%
%TF.CreationDate,2025-05-28T11:48:16+09:00*%
%TF.ProjectId,2ndLayer_3rdLayer,326e644c-6179-4657-925f-3372644c6179,rev?*%
%TF.SameCoordinates,Original*%
%TF.FileFunction,Copper,L1,Top*%
%TF.FilePolarity,Positive*%
%FSLAX46Y46*%
G04 Gerber Fmt 4.6, Leading zero omitted, Abs format (unit mm)*
G04 Created by KiCad (PCBNEW 7.0.11) date 2025-05-28 11:48:16*
%MOMM*%
%LPD*%
G01*
G04 APERTURE LIST*
G04 Aperture macros list*
%AMRoundRect*
0 Rectangle with rounded corners*
0 $1 Rounding radius*
0 $2 $3 $4 $5 $6 $7 $8 $9 X,Y pos of 4 corners*
0 Add a 4 corners polygon primitive as box body*
4,1,4,$2,$3,$4,$5,$6,$7,$8,$9,$2,$3,0*
0 Add four circle primitives for the rounded corners*
1,1,$1+$1,$2,$3*
1,1,$1+$1,$4,$5*
1,1,$1+$1,$6,$7*
1,1,$1+$1,$8,$9*
0 Add four rect primitives between the rounded corners*
20,1,$1+$1,$2,$3,$4,$5,0*
20,1,$1+$1,$4,$5,$6,$7,0*
20,1,$1+$1,$6,$7,$8,$9,0*
20,1,$1+$1,$8,$9,$2,$3,0*%
%AMRotRect*
0 Rectangle, with rotation*
0 The origin of the aperture is its center*
0 $1 length*
0 $2 width*
0 $3 Rotation angle, in degrees counterclockwise*
0 Add horizontal line*
21,1,$1,$2,0,0,$3*%
G04 Aperture macros list end*
%TA.AperFunction,SMDPad,CuDef*%
%ADD10R,1.600000X0.760000*%
%TD*%
%TA.AperFunction,SMDPad,CuDef*%
%ADD11RoundRect,0.237500X0.287500X0.237500X-0.287500X0.237500X-0.287500X-0.237500X0.287500X-0.237500X0*%
%TD*%
%TA.AperFunction,SMDPad,CuDef*%
%ADD12R,1.050000X0.650000*%
%TD*%
%TA.AperFunction,SMDPad,CuDef*%
%ADD13R,1.600000X1.400000*%
%TD*%
%TA.AperFunction,SMDPad,CuDef*%
%ADD14O,0.900000X1.400000*%
%TD*%
%TA.AperFunction,SMDPad,CuDef*%
%ADD15O,1.400000X0.900000*%
%TD*%
%TA.AperFunction,SMDPad,CuDef*%
%ADD16O,1.200000X0.900000*%
%TD*%
%TA.AperFunction,SMDPad,CuDef*%
%ADD17RoundRect,0.200000X0.200000X0.600000X-0.200000X0.600000X-0.200000X-0.600000X0.200000X-0.600000X0*%
%TD*%
%TA.AperFunction,SMDPad,CuDef*%
%ADD18RoundRect,0.250001X0.799999X1.249999X-0.799999X1.249999X-0.799999X-1.249999X0.799999X-1.249999X0*%
%TD*%
%TA.AperFunction,ComponentPad*%
%ADD19RoundRect,0.381000X-0.335420X0.421681X-0.421681X-0.335420X0.335420X-0.421681X0.421681X0.335420X0*%
%TD*%
%TA.AperFunction,ComponentPad*%
%ADD20C,1.524000*%
%TD*%
%TA.AperFunction,SMDPad,CuDef*%
%ADD21RoundRect,0.237500X-0.287500X-0.237500X0.287500X-0.237500X0.287500X0.237500X-0.287500X0.237500X0*%
%TD*%
%TA.AperFunction,SMDPad,CuDef*%
%ADD22R,1.000000X1.000000*%
%TD*%
%TA.AperFunction,SMDPad,CuDef*%
%ADD23RotRect,0.970000X0.600000X97.000000*%
%TD*%
%TA.AperFunction,SMDPad,CuDef*%
%ADD24RotRect,0.700000X1.150000X97.000000*%
%TD*%
%TA.AperFunction,ComponentPad*%
%ADD25RoundRect,0.425000X-0.425000X-0.425000X0.425000X-0.425000X0.425000X0.425000X-0.425000X0.425000X0*%
%TD*%
%TA.AperFunction,ComponentPad*%
%ADD26C,1.700000*%
%TD*%
%TA.AperFunction,SMDPad,CuDef*%
%ADD27R,0.650000X1.050000*%
%TD*%
%TA.AperFunction,SMDPad,CuDef*%
%ADD28R,0.575000X0.620000*%
%TD*%
%TA.AperFunction,ComponentPad*%
%ADD29C,2.000000*%
%TD*%
%TA.AperFunction,ComponentPad*%
%ADD30R,1.000000X1.000000*%
%TD*%
%TA.AperFunction,ComponentPad*%
%ADD31O,1.000000X1.000000*%
%TD*%
%TA.AperFunction,SMDPad,CuDef*%
%ADD32R,0.620000X0.575000*%
%TD*%
%TA.AperFunction,ComponentPad*%
%ADD33O,1.000000X1.800000*%
%TD*%
%TA.AperFunction,ComponentPad*%
%ADD34O,1.000000X2.100000*%
%TD*%
%TA.AperFunction,ViaPad*%
%ADD35C,0.450000*%
%TD*%
%TA.AperFunction,Conductor*%
%ADD36C,0.200000*%
%TD*%
%TA.AperFunction,Conductor*%
%ADD37C,0.250000*%
%TD*%
%TA.AperFunction,Conductor*%
%ADD38C,1.000000*%
%TD*%
G04 APERTURE END LIST*
D10*
%TO.P,SW10,1*%
%TO.N,/3rdLayer/DIPSW0*%
X84190000Y-19845000D03*
%TO.P,SW10,2*%
%TO.N,/3rdLayer/DIPSW1*%
X84190000Y-21115000D03*
%TO.P,SW10,3*%
%TO.N,/3rdLayer/DIPSW2*%
X84190000Y-22385000D03*
%TO.P,SW10,4*%
%TO.N,/3rdLayer/DIPSW3*%
X84190000Y-23655000D03*
%TO.P,SW10,5*%
%TO.N,+3.3V*%
X91810000Y-23655000D03*
%TO.P,SW10,6*%
X91810000Y-22385000D03*
%TO.P,SW10,7*%
X91810000Y-21115000D03*
%TO.P,SW10,8*%
X91810000Y-19845000D03*
%TD*%
%TO.P,SW5,1*%
%TO.N,/2ndLayer/DIPSW0*%
X32790000Y-14495000D03*
%TO.P,SW5,2*%
%TO.N,/2ndLayer/DIPSW1*%
X32790000Y-15765000D03*
%TO.P,SW5,3*%
%TO.N,/2ndLayer/DIPSW2*%
X32790000Y-17035000D03*
%TO.P,SW5,4*%
%TO.N,/2ndLayer/DIPSW3*%
X32790000Y-18305000D03*
%TO.P,SW5,5*%
%TO.N,+3.3V*%
X40410000Y-18305000D03*
%TO.P,SW5,6*%
X40410000Y-17035000D03*
%TO.P,SW5,7*%
X40410000Y-15765000D03*
%TO.P,SW5,8*%
X40410000Y-14495000D03*
%TD*%
D11*
%TO.P,D16,1,K*%
%TO.N,GND*%
X35775000Y-10600000D03*
%TO.P,D16,2,A*%
%TO.N,Net-(D16-A)*%
X34025000Y-10600000D03*
%TD*%
D12*
%TO.P,SW3,1,A*%
%TO.N,/2ndLayer/RST_Twe*%
X22675000Y-36925000D03*
X26825000Y-36925000D03*
%TO.P,SW3,2,B*%
%TO.N,GND*%
X22675000Y-39075000D03*
X26800000Y-39075000D03*
%TD*%
D13*
%TO.P,SW9,1,A*%
%TO.N,/3rdLayer/TactSW2*%
X84100000Y-5750000D03*
X76100000Y-5750000D03*
%TO.P,SW9,2,B*%
%TO.N,+3.3V*%
X84100000Y-1250000D03*
X76100000Y-1250000D03*
%TD*%
D11*
%TO.P,D9,1,K*%
%TO.N,GND*%
X-19875000Y-23850000D03*
%TO.P,D9,2,A*%
%TO.N,Net-(D9-A)*%
X-21625000Y-23850000D03*
%TD*%
D14*
%TO.P,U2,1,DO0/PWM2*%
%TO.N,Net-(U2-DO0{slash}PWM2)*%
X-11270000Y-24485000D03*
%TO.P,U2,2,DO1/PWM3*%
%TO.N,/2ndLayer/PRG_Twe*%
X-10000000Y-24485000D03*
%TO.P,U2,3,DIO18/DO1*%
%TO.N,unconnected-(U2-DIO18{slash}DO1-Pad3)*%
X-8730000Y-24485000D03*
%TO.P,U2,4,DIO19/DO2*%
%TO.N,unconnected-(U2-DIO19{slash}DO2-Pad4)*%
X-7460000Y-24485000D03*
%TO.P,U2,5,VCC*%
%TO.N,+3.3V*%
X-6190000Y-24485000D03*
%TO.P,U2,6,DIO4/DO3*%
%TO.N,unconnected-(U2-DIO4{slash}DO3-Pad6)*%
X-4920000Y-24485000D03*
%TO.P,U2,7,DIO5/PWM1*%
%TO.N,unconnected-(U2-DIO5{slash}PWM1-Pad7)*%
X-3650000Y-24485000D03*
%TO.P,U2,8,DIO6/TX*%
%TO.N,/2ndLayer/TweWriteRX_TweTX0*%
X-2380000Y-24485000D03*
D15*
%TO.P,U2,9,DIO7/RX*%
%TO.N,/2ndLayer/TweWriteTX_TweRX0*%
X-90000Y-22195000D03*
%TO.P,U2,10,DIO8/PWM4*%
%TO.N,unconnected-(U2-DIO8{slash}PWM4-Pad10)*%
X-90000Y-20925000D03*
%TO.P,U2,11,DIO9/DO4*%
%TO.N,unconnected-(U2-DIO9{slash}DO4-Pad11)*%
X-90000Y-19655000D03*
%TO.P,U2,12,DIO10/M1*%
%TO.N,unconnected-(U2-DIO10{slash}M1-Pad12)*%
X-90000Y-18385000D03*
%TO.P,U2,13,DIO12/DI1*%
%TO.N,/2ndLayer/TweLite/SET*%
X-90000Y-17115000D03*
%TO.P,U2,14,DIO14/SCL*%
%TO.N,/2ndLayer/MainRXx_TweTX1*%
X-90000Y-15845000D03*
%TO.P,U2,15,DIO13/DI2*%
%TO.N,unconnected-(U2-DIO13{slash}DI2-Pad15)*%
X-90000Y-14575000D03*
%TO.P,U2,16,DIO11/DI3*%
%TO.N,unconnected-(U2-DIO11{slash}DI3-Pad16)*%
X-90000Y-13305000D03*
D14*
%TO.P,U2,17,DIO15/SDA*%
%TO.N,/2ndLayer/MainTXx_TweRX1*%
X-2380000Y-11015000D03*
%TO.P,U2,18,DIO16/DI4*%
%TO.N,unconnected-(U2-DIO16{slash}DI4-Pad18)*%
X-3650000Y-11015000D03*
%TO.P,U2,19,DIO17/BPS*%
%TO.N,unconnected-(U2-DIO17{slash}BPS-Pad19)*%
X-4920000Y-11015000D03*
%TO.P,U2,20,GND*%
%TO.N,GND*%
X-6190000Y-11015000D03*
%TO.P,U2,21,~{RESET}*%
%TO.N,/2ndLayer/RST_Twe*%
X-7460000Y-11015000D03*
%TO.P,U2,22,ADC2/AI3*%
%TO.N,GND*%
X-8730000Y-11015000D03*
%TO.P,U2,23,ADC1/AI1*%
X-10000000Y-11015000D03*
%TO.P,U2,24,DIO0/AI2*%
%TO.N,unconnected-(U2-DIO0{slash}AI2-Pad24)*%
X-11270000Y-11015000D03*
D15*
%TO.P,U2,25,DIO1/AI4*%
%TO.N,unconnected-(U2-DIO1{slash}AI4-Pad25)*%
X-13560000Y-13305000D03*
%TO.P,U2,26,DIO2/M2*%
%TO.N,unconnected-(U2-DIO2{slash}M2-Pad26)*%
X-13560000Y-14575000D03*
%TO.P,U2,27,DIO3/M3*%
%TO.N,unconnected-(U2-DIO3{slash}M3-Pad27)*%
X-13560000Y-15845000D03*
%TO.P,U2,28,GND*%
%TO.N,GND*%
X-13560000Y-17115000D03*
%TO.P,U2,29,NC*%
%TO.N,unconnected-(U2-NC-Pad29)*%
X-13560000Y-18385000D03*
%TO.P,U2,30,GND*%
%TO.N,GND*%
X-13560000Y-19655000D03*
D16*
%TO.P,U2,31,GND*%
X-13660000Y-20925000D03*
%TO.P,U2,32,GND*%
X-13660000Y-22195000D03*
%TD*%
D11*
%TO.P,D10,1,K*%
%TO.N,GND*%
X25625000Y-33500000D03*
%TO.P,D10,2,A*%
%TO.N,Net-(D10-A)*%
X23875000Y-33500000D03*
%TD*%
D13*
%TO.P,SW8,1,A*%
%TO.N,/3rdLayer/TactSW1*%
X74000000Y-5750000D03*
X66000000Y-5750000D03*
%TO.P,SW8,2,B*%
%TO.N,+3.3V*%
X74000000Y-1250000D03*
X66000000Y-1250000D03*
%TD*%
D11*
%TO.P,D8,1,K*%
%TO.N,GND*%
X-19875000Y-22350000D03*
%TO.P,D8,2,A*%
%TO.N,Net-(D8-A)*%
X-21625000Y-22350000D03*
%TD*%
D17*
%TO.P,J10,1,Pin_1*%
%TO.N,GND*%
X11125000Y-5100000D03*
%TO.P,J10,2,Pin_2*%
%TO.N,+BATT*%
X9875000Y-5100000D03*
%TO.P,J10,3,Pin_3*%
%TO.N,/2ndLayer/RS485_RingNW/RS485X_TA*%
X8625000Y-5100000D03*
%TO.P,J10,4,Pin_4*%
%TO.N,/2ndLayer/RS485_RingNW/RS485X_TB*%
X7375000Y-5100000D03*
%TO.P,J10,5,Pin_5*%
%TO.N,/2ndLayer/RS485_RingNW/RS485X_RA*%
X6125000Y-5100000D03*
%TO.P,J10,6,Pin_6*%
%TO.N,/2ndLayer/RS485_RingNW/RS485X_RB*%
X4875000Y-5100000D03*
D18*
%TO.P,J10,MP,MountPin*%
%TO.N,GND*%
X13675000Y-2200000D03*
X2325000Y-2200000D03*
%TD*%
D19*
%TO.P,SW2,1,A*%
%TO.N,Net-(SW2-A)*%
X-7897196Y-31522723D03*
D20*
%TO.P,SW2,2,B*%
%TO.N,/2ndLayer/Power/S-S*%
X-10018875Y-28060285D03*
%TO.P,SW2,3,C*%
%TO.N,unconnected-(SW2-C-Pad3)*%
X-12865055Y-30956707D03*
%TD*%
D21*
%TO.P,D12,1,K*%
%TO.N,GND*%
X37425000Y-10600000D03*
%TO.P,D12,2,A*%
%TO.N,Net-(D12-A)*%
X39175000Y-10600000D03*
%TD*%
D12*
%TO.P,SW4,1,A*%
%TO.N,/2ndLayer/PRG_Twe*%
X22675000Y-40625000D03*
X26825000Y-40625000D03*
%TO.P,SW4,2,B*%
%TO.N,GND*%
X22675000Y-42775000D03*
X26800000Y-42775000D03*
%TD*%
D13*
%TO.P,SW7,1,A*%
%TO.N,/3rdLayer/TactSW0*%
X63900000Y-5750000D03*
X55900000Y-5750000D03*
%TO.P,SW7,2,B*%
%TO.N,+3.3V*%
X63900000Y-1250000D03*
X55900000Y-1250000D03*
%TD*%
D22*
%TO.P,H3,1,1*%
%TO.N,/2ndLayer/TweLite/LED0*%
X22050000Y-33300000D03*
%TD*%
D23*
%TO.P,SW6,1,A*%
%TO.N,/2ndLayer/SlideSW0*%
X12828304Y-28340304D03*
%TO.P,SW6,2,B*%
%TO.N,+3.3V*%
X13820850Y-28218435D03*
%TO.P,SW6,3,C*%
%TO.N,unconnected-(SW6-C-Pad3)*%
X14813396Y-28096565D03*
D24*
%TO.P,SW6,4,shell*%
%TO.N,GND*%
X10912306Y-30172462D03*
%TO.P,SW6,5,shell*%
X17115720Y-29410779D03*
%TD*%
D22*
%TO.P,H2,1,1*%
%TO.N,/2ndLayer/LED_B1*%
X41750000Y-11700000D03*
%TD*%
D17*
%TO.P,J11,1,Pin_1*%
%TO.N,GND*%
X-4875000Y-5100000D03*
%TO.P,J11,2,Pin_2*%
%TO.N,+BATT*%
X-6125000Y-5100000D03*
%TO.P,J11,3,Pin_3*%
%TO.N,/2ndLayer/RS485_RingNW/RS485Y_TA*%
X-7375000Y-5100000D03*
%TO.P,J11,4,Pin_4*%
%TO.N,/2ndLayer/RS485_RingNW/RS485Y_TB*%
X-8625000Y-5100000D03*
%TO.P,J11,5,Pin_5*%
%TO.N,/2ndLayer/RS485_RingNW/RS485Y_RA*%
X-9875000Y-5100000D03*
%TO.P,J11,6,Pin_6*%
%TO.N,/2ndLayer/RS485_RingNW/RS485Y_RB*%
X-11125000Y-5100000D03*
D18*
%TO.P,J11,MP,MountPin*%
%TO.N,GND*%
X-2325000Y-2200000D03*
X-13675000Y-2200000D03*
%TD*%
D11*
%TO.P,D14,1,K*%
%TO.N,GND*%
X35775000Y-9100000D03*
%TO.P,D14,2,A*%
%TO.N,Net-(D14-A)*%
X34025000Y-9100000D03*
%TD*%
%TO.P,D11,1,K*%
%TO.N,GND*%
X25625000Y-35000000D03*
%TO.P,D11,2,A*%
%TO.N,Net-(D11-A)*%
X23875000Y-35000000D03*
%TD*%
D25*
%TO.P,U9,1,GND*%
%TO.N,GND*%
X66190000Y-8365000D03*
D26*
%TO.P,U9,2,VCC*%
%TO.N,+3.3V*%
X68730000Y-8365000D03*
%TO.P,U9,3,SCL*%
%TO.N,/3rdLayer/I2C_SCL*%
X71270000Y-8365000D03*
%TO.P,U9,4,SDA*%
%TO.N,/3rdLayer/I2C_SDA*%
X73810000Y-8365000D03*
%TD*%
D27*
%TO.P,SW1,1,A*%
%TO.N,/2ndLayer/NRST*%
X29225000Y-19325000D03*
X29225000Y-23475000D03*
%TO.P,SW1,2,B*%
%TO.N,GND*%
X27075000Y-19325000D03*
X27075000Y-23450000D03*
%TD*%
D22*
%TO.P,H4,1,1*%
%TO.N,/2ndLayer/TweLite/LED1*%
X22050000Y-35200000D03*
%TD*%
D11*
%TO.P,D15,1,K*%
%TO.N,GND*%
X35775000Y-12100000D03*
%TO.P,D15,2,A*%
%TO.N,Net-(D15-A)*%
X34025000Y-12100000D03*
%TD*%
D28*
%TO.P,Q9,1,D*%
%TO.N,VDD*%
X-11888000Y-7300000D03*
%TO.P,Q9,2,D*%
X-11888000Y-8250000D03*
%TO.P,Q9,3,G*%
%TO.N,Net-(Q9-G)*%
X-11888000Y-9200000D03*
%TO.P,Q9,4,S*%
%TO.N,/2ndLayer/Power/S-S*%
X-9112000Y-9200000D03*
%TO.P,Q9,5,D*%
%TO.N,VDD*%
X-9112000Y-8250000D03*
%TO.P,Q9,6,D*%
X-9112000Y-7300000D03*
%TD*%
D21*
%TO.P,D13,1,K*%
%TO.N,GND*%
X37425000Y-12100000D03*
%TO.P,D13,2,A*%
%TO.N,Net-(D13-A)*%
X39175000Y-12100000D03*
%TD*%
D22*
%TO.P,H1,1,1*%
%TO.N,/2ndLayer/LED_B0*%
X41750000Y-9780000D03*
%TD*%
D29*
%TO.P,TP3,1,1*%
%TO.N,GND*%
X-9600000Y-74900000D03*
%TD*%
D30*
%TO.P,J2,1,Pin_1*%
%TO.N,VBUS*%
X-15900000Y-18270000D03*
D31*
%TO.P,J2,2,Pin_2*%
X-17170000Y-18270000D03*
%TO.P,J2,3,Pin_3*%
%TO.N,+3.3V*%
X-15900000Y-19540000D03*
%TO.P,J2,4,Pin_4*%
%TO.N,GND*%
X-17170000Y-19540000D03*
%TO.P,J2,5,Pin_5*%
X-15900000Y-20810000D03*
%TO.P,J2,6,Pin_6*%
X-17170000Y-20810000D03*
%TO.P,J2,7,Pin_7*%
%TO.N,unconnected-(J2-Pin_7-Pad7)*%
X-15900000Y-22080000D03*
%TO.P,J2,8,Pin_8*%
%TO.N,/2ndLayer/DIPSW0_Twe*%
X-17170000Y-22080000D03*
%TO.P,J2,9,Pin_9*%
%TO.N,unconnected-(J2-Pin_9-Pad9)*%
X-15900000Y-23350000D03*
%TO.P,J2,10,Pin_10*%
%TO.N,/2ndLayer/DIPSW1_Twe*%
X-17170000Y-23350000D03*
%TO.P,J2,11,Pin_11*%
%TO.N,unconnected-(J2-Pin_11-Pad11)*%
X-15900000Y-24620000D03*
%TO.P,J2,12,Pin_12*%
%TO.N,/2ndLayer/DIPSW2_Twe*%
X-17170000Y-24620000D03*
%TO.P,J2,13,Pin_13*%
%TO.N,unconnected-(J2-Pin_13-Pad13)*%
X-15900000Y-25890000D03*
%TO.P,J2,14,Pin_14*%
%TO.N,/2ndLayer/DIPSW3_Twe*%
X-17170000Y-25890000D03*
%TO.P,J2,15,Pin_15*%
%TO.N,unconnected-(J2-Pin_15-Pad15)*%
X-15900000Y-27160000D03*
%TO.P,J2,16,Pin_16*%
%TO.N,/2ndLayer/PRG_Twe*%
X-17170000Y-27160000D03*
%TO.P,J2,17,Pin_17*%
%TO.N,unconnected-(J2-Pin_17-Pad17)*%
X-15900000Y-28430000D03*
%TO.P,J2,18,Pin_18*%
%TO.N,/2ndLayer/RST_Twe*%
X-17170000Y-28430000D03*
%TO.P,J2,19,Pin_19*%
%TO.N,unconnected-(J2-Pin_19-Pad19)*%
X-15900000Y-29700000D03*
%TO.P,J2,20,Pin_20*%
%TO.N,unconnected-(J2-Pin_20-Pad20)*%
X-17170000Y-29700000D03*
%TD*%
D11*
%TO.P,D7,1,K*%
%TO.N,GND*%
X-19875000Y-20850000D03*
%TO.P,D7,2,A*%
%TO.N,Net-(D7-A)*%
X-21625000Y-20850000D03*
%TD*%
D32*
%TO.P,Q7,1,D*%
%TO.N,+BATT*%
X-5950000Y-6837000D03*
%TO.P,Q7,2,D*%
X-6900000Y-6837000D03*
%TO.P,Q7,3,G*%
%TO.N,Net-(Q7-G)*%
X-7850000Y-6837000D03*
%TO.P,Q7,4,S*%
%TO.N,/2ndLayer/Power/S-S*%
X-7850000Y-9613000D03*
%TO.P,Q7,5,D*%
%TO.N,+BATT*%
X-6900000Y-9613000D03*
%TO.P,Q7,6,D*%
X-5950000Y-9613000D03*
%TD*%
D29*
%TO.P,TP2,1,1*%
%TO.N,+3.3V*%
X-9600000Y-70850000D03*
%TD*%
%TO.P,TP1,1,1*%
%TO.N,+5V*%
X-9600000Y-66800000D03*
%TD*%
D33*
%TO.P,J4,S1,SHIELD*%
%TO.N,GND*%
X74320000Y-31325000D03*
D34*
X74320000Y-27125000D03*
D33*
X65680000Y-31325000D03*
D34*
X65680000Y-27125000D03*
%TD*%
D30*
%TO.P,J3,1,Pin_1*%
%TO.N,VBUS*%
X55300000Y-17980000D03*
D31*
%TO.P,J3,2,Pin_2*%
X54030000Y-17980000D03*
%TO.P,J3,3,Pin_3*%
%TO.N,GND*%
X55300000Y-19250000D03*
%TO.P,J3,4,Pin_4*%
%TO.N,+3.3V*%
X54030000Y-19250000D03*
%TO.P,J3,5,Pin_5*%
%TO.N,GND*%
X55300000Y-20520000D03*
%TO.P,J3,6,Pin_6*%
X54030000Y-20520000D03*
%TO.P,J3,7,Pin_7*%
X55300000Y-21790000D03*
%TO.P,J3,8,Pin_8*%
%TO.N,unconnected-(J3-Pin_8-Pad8)*%
X54030000Y-21790000D03*
%TO.P,J3,9,Pin_9*%
%TO.N,/3rdLayer/DIPSW0*%
X55300000Y-23060000D03*
%TO.P,J3,10,Pin_10*%
%TO.N,unconnected-(J3-Pin_10-Pad10)*%
X54030000Y-23060000D03*
%TO.P,J3,11,Pin_11*%
%TO.N,/3rdLayer/DIPSW1*%
X55300000Y-24330000D03*
%TO.P,J3,12,Pin_12*%
%TO.N,unconnected-(J3-Pin_12-Pad12)*%
X54030000Y-24330000D03*
%TO.P,J3,13,Pin_13*%
%TO.N,/3rdLayer/DIPSW2*%
X55300000Y-25600000D03*
%TO.P,J3,14,Pin_14*%
%TO.N,unconnected-(J3-Pin_14-Pad14)*%
X54030000Y-25600000D03*
%TO.P,J3,15,Pin_15*%
%TO.N,/3rdLayer/DIPSW3*%
X55300000Y-26870000D03*
%TO.P,J3,16,Pin_16*%
%TO.N,unconnected-(J3-Pin_16-Pad16)*%
X54030000Y-26870000D03*
%TO.P,J3,17,Pin_17*%
%TO.N,/3rdLayer/PRG_Twe*%
X55300000Y-28140000D03*
%TO.P,J3,18,Pin_18*%
%TO.N,unconnected-(J3-Pin_18-Pad18)*%
X54030000Y-28140000D03*
%TO.P,J3,19,Pin_19*%
%TO.N,/3rdLayer/RST_Twe*%
X55300000Y-29410000D03*
%TO.P,J3,20,Pin_20*%
%TO.N,unconnected-(J3-Pin_20-Pad20)*%
X54030000Y-29410000D03*
%TD*%
D30*
%TO.P,J1,1,Pin_1*%
%TO.N,unconnected-(J1-Pin_1-Pad1)*%
X19325000Y-3485000D03*
D31*
%TO.P,J1,2,Pin_2*%
%TO.N,unconnected-(J1-Pin_2-Pad2)*%
X19325000Y-4755000D03*
%TO.P,J1,3,Pin_3*%
%TO.N,unconnected-(J1-Pin_3-Pad3)*%
X19325000Y-6025000D03*
%TO.P,J1,4,Pin_4*%
%TO.N,unconnected-(J1-Pin_4-Pad4)*%
X19325000Y-7295000D03*
%TO.P,J1,5,Pin_5*%
%TO.N,unconnected-(J1-Pin_5-Pad5)*%
X19325000Y-8565000D03*
%TO.P,J1,6,Pin_6*%
%TO.N,unconnected-(J1-Pin_6-Pad6)*%
X19325000Y-9835000D03*
%TO.P,J1,7,Pin_7*%
%TO.N,unconnected-(J1-Pin_7-Pad7)*%
X19325000Y-11105000D03*
%TO.P,J1,8,Pin_8*%
%TO.N,unconnected-(J1-Pin_8-Pad8)*%
X19325000Y-12375000D03*
%TO.P,J1,9,Pin_9*%
%TO.N,unconnected-(J1-Pin_9-Pad9)*%
X19325000Y-13645000D03*
%TO.P,J1,10,Pin_10*%
%TO.N,unconnected-(J1-Pin_10-Pad10)*%
X19325000Y-14915000D03*
%TD*%
D35*
%TO.N,/2ndLayer/Power/Vout*%
X-18199998Y-7260000D03*
X-20810000Y-4674998D03*
%TO.N,Net-(U1-RT)*%
X-18091666Y-4698334D03*
X-19860000Y-5350000D03*
%TO.N,unconnected-(J2-Pin_11-Pad11)*%
X-11636045Y-26301724D03*
%TO.N,unconnected-(J2-Pin_13-Pad13)*%
X-12160023Y-26826724D03*
%TO.N,unconnected-(J2-Pin_15-Pad15)*%
X-8220000Y-26315000D03*
%TO.N,unconnected-(J2-Pin_17-Pad17)*%
X-5150000Y-26320000D03*
%TO.N,unconnected-(J2-Pin_19-Pad19)*%
X-3780000Y-26370000D03*
%TO.N,Net-(Q7-G)*%
X-7803450Y-8775000D03*
%TO.N,/2ndLayer/Power/PG*%
X-20450000Y-9940000D03*
X-16473333Y-4723583D03*
%TO.N,Net-(U2-DO0{slash}PWM2)*%
X-12117775Y-23652638D03*
%TD*%
D36*
%TO.N,*%
X-12730000Y-9830000D02*
X-12730000Y-10030000D01*
X-12730000Y-10030000D02*
X-20750000Y-18050000D01*
X-20750000Y-18050000D02*
X-20750000Y-25430000D01*
%TO.N,/2ndLayer/Power/Vout*%
X-19790000Y-7260000D02*
X-18199998Y-7260000D01*
X-20810000Y-4674998D02*
X-20810000Y-6240000D01*
X-20810000Y-6240000D02*
X-19790000Y-7260000D01*
%TO.N,/2ndLayer/Power/S-S*%
X-8263000Y-9200000D02*
X-7850000Y-9613000D01*
X-9112000Y-9200000D02*
X-8263000Y-9200000D01*
%TO.N,Net-(Q9-G)*%
X-11888000Y-9200000D02*
X-13445226Y-9200000D01*
X-13445226Y-9200000D02*
X-20500000Y-16254774D01*
D37*
%TO.N,Net-(U1-RT)*%
X-18743332Y-5350000D02*
X-18091666Y-4698334D01*
X-19860000Y-5350000D02*
X-18743332Y-5350000D01*
D36*
%TO.N,/2ndLayer/DIPSW0_Twe*%
X-17170000Y-22080000D02*
X-19040000Y-20210000D01*
X-19040000Y-20210000D02*
X-19040000Y-17474340D01*
X-11580660Y-10015000D02*
X-8470000Y-10015000D01*
X-19040000Y-17474340D02*
X-11580660Y-10015000D01*
%TO.N,/2ndLayer/DIPSW1_Twe*%
X-18770000Y-24950000D02*
X-18770000Y-30362743D01*
X-13475685Y-32420000D02*
X-9852475Y-32420000D01*
X-9852475Y-32420000D02*
X-8981744Y-33290728D01*
X-17832741Y-31300000D02*
X-14595685Y-31300000D01*
X-17170000Y-23350000D02*
X-18770000Y-24950000D01*
X-18770000Y-30362743D02*
X-17832741Y-31300000D01*
X-14595685Y-31300000D02*
X-13475685Y-32420000D01*
%TO.N,unconnected-(J2-Pin_11-Pad11)*%
X-10844321Y-25510000D02*
X-10320000Y-25510000D01*
X-11636045Y-26301724D02*
X-10844321Y-25510000D01*
%TO.N,unconnected-(J2-Pin_13-Pad13)*%
X-10316724Y-26826724D02*
X-8990000Y-25500000D01*
X-12160023Y-26826724D02*
X-10316724Y-26826724D01*
%TO.N,unconnected-(J2-Pin_15-Pad15)*%
X-8220000Y-26315000D02*
X-7565000Y-25660000D01*
X-7565000Y-25660000D02*
X-7350000Y-25660000D01*
%TO.N,unconnected-(J2-Pin_17-Pad17)*%
X-5150000Y-26320000D02*
X-4930000Y-26100000D01*
X-4930000Y-26100000D02*
X-4930000Y-25550000D01*
%TO.N,unconnected-(J2-Pin_19-Pad19)*%
X-3780000Y-26370000D02*
X-3780000Y-25620000D01*
D38*
%TO.N,+BATT*%
X-6125000Y-5924250D02*
X-5449250Y-6600000D01*
D37*
X-5950000Y-9613000D02*
X-5950000Y-6837000D01*
D38*
X-5449250Y-6600000D02*
X9199250Y-6600000D01*
X9199250Y-6600000D02*
X9875000Y-5924250D01*
X9875000Y-5924250D02*
X9875000Y-5100000D01*
X-6125000Y-5100000D02*
X-6125000Y-5924250D01*
%TO.N,VBUS*%
X66650000Y-25475000D02*
X55500000Y-14325000D01*
X67700000Y-25475000D02*
X66650000Y-25475000D01*
D36*
%TO.N,Net-(Q7-G)*%
X-7850000Y-8728450D02*
X-7850000Y-6837000D01*
X-7803450Y-8775000D02*
X-7850000Y-8728450D01*
%TO.N,/2ndLayer/DIPSW2_Twe*%
X-17667056Y-30900000D02*
X-14430000Y-30900000D01*
X-13310000Y-32020000D02*
X-9686789Y-32020000D01*
X-9686789Y-32020000D02*
X-8680404Y-33026384D01*
X-14430000Y-30900000D02*
X-13310000Y-32020000D01*
X-8680404Y-33026384D02*
X3993616Y-33026384D01*
X3993616Y-33026384D02*
X8470000Y-28550000D01*
X-18370000Y-25820000D02*
X-18370000Y-30197057D01*
X-17170000Y-24620000D02*
X-18370000Y-25820000D01*
X-18370000Y-30197057D02*
X-17667056Y-30900000D01*
%TO.N,/2ndLayer/DIPSW3_Twe*%
X-13910243Y-30500000D02*
X-13304950Y-29894707D01*
X-13304950Y-29894707D02*
X5925293Y-29894707D01*
X-17501371Y-30500000D02*
X-13910243Y-30500000D01*
X-17970000Y-26690000D02*
X-17970000Y-30031371D01*
X-17970000Y-30031371D02*
X-17501371Y-30500000D01*
X5925293Y-29894707D02*
X7210000Y-28610000D01*
X-17170000Y-25890000D02*
X-17970000Y-26690000D01*
%TO.N,/2ndLayer/Power/PG*%
X-21060000Y-3470000D02*
X-17726916Y-3470000D01*
X-20450000Y-9020000D02*
X-21830000Y-7640000D01*
X-20450000Y-9940000D02*
X-20450000Y-9020000D01*
X-17726916Y-3470000D02*
X-16473333Y-4723583D01*
X-21830000Y-4240000D02*
X-21060000Y-3470000D01*
X-21830000Y-7640000D02*
X-21830000Y-4240000D01*
%TO.N,Net-(U2-DO0{slash}PWM2)*%
X-12117775Y-23652638D02*
X-12102362Y-23652638D01*
X-12102362Y-23652638D02*
X-11270000Y-24485000D01*
D37*
%TO.N,/3rdLayer/TactSW0*%
X63900000Y-5750000D02*
X55900000Y-5750000D01*
%TO.N,/3rdLayer/TactSW1*%
X66000000Y-5750000D02*
X74000000Y-5750000D01*
%TO.N,/3rdLayer/TactSW2*%
X76100000Y-5750000D02*
X84100000Y-5750000D01*
X65869340Y-6775000D02*
X62725000Y-9919340D01*
X75075000Y-6775000D02*
X65869340Y-6775000D01*
X76100000Y-5750000D02*
X75075000Y-6775000D01*
%TD*%
%TA.AperFunction,Conductor*%
%TO.N,+BATT*%
G36*
X-5713116Y-6254010D02*
G01*
X-5687485Y-6265716D01*
X-5671004Y-6278996D01*
X-5528996Y-6421004D01*
X-5512110Y-6443562D01*
X-5502262Y-6469964D01*
X-5500000Y-6491008D01*
X-5500000Y-9758992D01*
X-5504010Y-9786884D01*
X-5515716Y-9812515D01*
X-5528996Y-9828996D01*
X-5671004Y-9971004D01*
X-5693562Y-9987890D01*
X-5719964Y-9997738D01*
X-5741008Y-10000000D01*
X-7008992Y-10000000D01*
X-7036884Y-9995990D01*
X-7062515Y-9984284D01*
X-7078996Y-9971004D01*
X-7221004Y-9828996D01*
X-7237890Y-9806438D01*
X-7247738Y-9780036D01*
X-7250000Y-9758992D01*
X-7250000Y-6491008D01*
X-7245990Y-6463116D01*
X-7234284Y-6437485D01*
X-7221004Y-6421004D01*
X-7078996Y-6278996D01*
X-7056438Y-6262110D01*
X-7030036Y-6252262D01*
X-7008992Y-6250000D01*
X-5741008Y-6250000D01*
X-5713116Y-6254010D01*
G37*
%TD.AperFunction*%
%TD*%
%TA.AperFunction,Conductor*%
%TO.N,/2ndLayer/Power/S-S*%
G36*
X-8295822Y-8754010D02*
G01*
X-8270191Y-8765716D01*
X-8248895Y-8784169D01*
X-8233660Y-8807874D01*
X-8227200Y-8829875D01*
X-8226660Y-8829763D01*
X-8225972Y-8833073D01*
X-8225972Y-8833074D01*
X-8214128Y-8890067D01*
X-8194635Y-8944916D01*
X-8167855Y-8996599D01*
X-8134286Y-9044155D01*
X-8094555Y-9086697D01*
X-8049401Y-9123433D01*
X-8024879Y-9138345D01*
X-7999669Y-9153676D01*
X-7999666Y-9153676D01*
X-7999665Y-9153678D01*
X-7946274Y-9176869D01*
X-7946265Y-9176871D01*
X-7946264Y-9176872D01*
X-7946261Y-9176873D01*
X-7925312Y-9182741D01*
X-7890223Y-9192573D01*
X-7832555Y-9200500D01*
X-7832550Y-9200500D01*
X-7774349Y-9200500D01*
X-7774345Y-9200500D01*
X-7716677Y-9192573D01*
X-7682487Y-9182994D01*
X-7660639Y-9176873D01*
X-7660636Y-9176871D01*
X-7660626Y-9176869D01*
X-7638433Y-9167229D01*
X-7611263Y-9159798D01*
X-7583089Y-9160323D01*
X-7556205Y-9168764D01*
X-7532787Y-9184437D01*
X-7514734Y-9206072D01*
X-7503507Y-9231918D01*
X-7500000Y-9258036D01*
X-7500000Y-9758992D01*
X-7504010Y-9786884D01*
X-7515716Y-9812515D01*
X-7528996Y-9828996D01*
X-7671004Y-9971004D01*
X-7693562Y-9987890D01*
X-7719964Y-9997738D01*
X-7741008Y-10000000D01*
X-8086751Y-10000000D01*
X-8114643Y-9995990D01*
X-8140274Y-9984284D01*
X-8161570Y-9965831D01*
X-8176805Y-9942126D01*
X-8180382Y-9933155D01*
X-8193867Y-9893877D01*
X-8193867Y-9893876D01*
X-8217569Y-9850079D01*
X-8217570Y-9850078D01*
X-8248157Y-9810778D01*
X-8284798Y-9777048D01*
X-8326478Y-9749817D01*
X-8326489Y-9749811D01*
X-8372094Y-9729807D01*
X-8420366Y-9717582D01*
X-8420372Y-9717581D01*
X-8457556Y-9714500D01*
X-8457568Y-9714500D01*
X-9401000Y-9714500D01*
X-9428892Y-9710490D01*
X-9454523Y-9698784D01*
X-9475819Y-9680331D01*
X-9491054Y-9656626D01*
X-9498992Y-9629589D01*
X-9500000Y-9615500D01*
X-9500000Y-8991008D01*
X-9495990Y-8963116D01*
X-9484284Y-8937485D01*
X-9471004Y-8921004D01*
X-9339496Y-8789496D01*
X-9316938Y-8772610D01*
X-9290536Y-8762762D01*
X-9269492Y-8760500D01*
X-8812874Y-8760500D01*
X-8812870Y-8760500D01*
X-8788945Y-8758373D01*
X-8773032Y-8753819D01*
X-8745798Y-8750000D01*
X-8323714Y-8750000D01*
X-8295822Y-8754010D01*
G37*
%TD.AperFunction*%
%TD*%
%TA.AperFunction,Conductor*%
%TO.N,VDD*%
G36*
X-8963116Y-6754010D02*
G01*
X-8937485Y-6765716D01*
X-8921004Y-6778996D01*
X-8778996Y-6921004D01*
X-8762110Y-6943562D01*
X-8752262Y-6969964D01*
X-8750000Y-6991008D01*
X-8750000Y-8460000D01*
X-8754010Y-8487892D01*
X-8765716Y-8513523D01*
X-8784169Y-8534819D01*
X-8807874Y-8550054D01*
X-8834911Y-8557992D01*
X-8849000Y-8559000D01*
X-9269493Y-8559000D01*
X-9291024Y-8560153D01*
X-9291040Y-8560155D01*
X-9312083Y-8562417D01*
X-9321508Y-8563656D01*
X-9360957Y-8573968D01*
X-9387364Y-8583818D01*
X-9402743Y-8590292D01*
X-9402746Y-8590294D01*
X-9437689Y-8611299D01*
X-9437691Y-8611300D01*
X-9437695Y-8611303D01*
X-9437699Y-8611306D01*
X-9460242Y-8628180D01*
X-9472342Y-8638665D01*
X-9481978Y-8647014D01*
X-9481991Y-8647027D01*
X-9555969Y-8721004D01*
X-9578527Y-8737891D01*
X-9604929Y-8747738D01*
X-9625972Y-8750000D01*
X-11419675Y-8750000D01*
X-11447567Y-8745990D01*
X-11473198Y-8734284D01*
X-11482237Y-8727726D01*
X-11489594Y-8721726D01*
X-11525743Y-8702843D01*
X-11564943Y-8691627D01*
X-11572920Y-8690918D01*
X-11588870Y-8689500D01*
X-12069492Y-8689500D01*
X-12097384Y-8685490D01*
X-12123015Y-8673784D01*
X-12139496Y-8660504D01*
X-12221004Y-8578996D01*
X-12237890Y-8556438D01*
X-12247738Y-8530036D01*
X-12250000Y-8508992D01*
X-12250000Y-6991008D01*
X-12245990Y-6963116D01*
X-12234284Y-6937485D01*
X-12221004Y-6921004D01*
X-12078996Y-6778996D01*
X-12056438Y-6762110D01*
X-12030036Y-6752262D01*
X-12008992Y-6750000D01*
X-8991008Y-6750000D01*
X-8963116Y-6754010D01*
G37*
%TD.AperFunction*%
%TD*%
M02*
