M48
; DRILL file {KiCad 7.0.11} date Tue Jun 24 23:57:38 2025
; FORMAT={-:-/ absolute / inch / decimal}
; #@! TF.CreationDate,2025-06-24T23:57:38+09:00
; #@! TF.GenerationSoftware,Kicad,Pcbnew,7.0.11
; #@! TF.FileFunction,Plated,1,2,PTH
FMAT,2
INCH
; #@! TA.AperFunction,Plated,PTH,ViaDrill
T1C0.0118
; #@! TA.AperFunction,Plated,PTH,ViaDrill
T2C0.0157
; #@! TA.AperFunction,Plated,PTH,ComponentDrill
T3C0.0236
; #@! TA.AperFunction,Plated,PTH,ComponentDrill
T4C0.0256
; #@! TA.AperFunction,Plated,PTH,ComponentDrill
T5C0.0276
; #@! TA.AperFunction,Plated,PTH,ComponentDrill
T6C0.0394
%
G90
G05
T1
X4.4878Y-4.1819
X4.4921Y-3.8583
X4.5157Y-3.7638
X4.5248Y-4.2469
X4.5409Y-4.1075
X4.5443Y-3.0768
X4.5591Y-3.0
X4.562Y-3.9094
X4.5701Y-5.0828
X4.5784Y-4.9784
X4.5787Y-2.9085
X4.5808Y-4.9122
X4.5839Y-4.3118
X4.59Y-5.1483
X4.5941Y-5.0175
X4.5945Y-5.1972
X4.5974Y-3.1447
X4.6033Y-3.0384
X4.6053Y-3.748
X4.6122Y-3.6732
X4.6161Y-3.189
X4.6182Y-4.9487
X4.6208Y-4.8326
X4.621Y-4.911
X4.6276Y-4.1079
X4.6283Y-4.2465
X4.6299Y-2.752
X4.6302Y-5.1212
X4.6318Y-5.258
X4.6343Y-4.3673
X4.6464Y-5.0032
X4.6486Y-3.9065
X4.6521Y-4.8963
X4.6547Y-4.3213
X4.6575Y-3.8376
X4.6662Y-4.7867
X4.672Y-4.8268
X4.6772Y-3.2146
X4.6791Y-3.2854
X4.6803Y-4.0945
X4.6811Y-4.3772
X4.6811Y-4.4449
X4.6909Y-4.9153
X4.6919Y-4.6966
X4.6955Y-4.1732
X4.6969Y-2.9026
X4.698Y-4.8392
X4.7Y-4.6685
X4.7018Y-3.6604
X4.7018Y-4.7209
X4.7037Y-2.9882
X4.7047Y-3.5413
X4.7067Y-3.0925
X4.7091Y-4.376
X4.7106Y-3.4744
X4.7125Y-5.2874
X4.7125Y-5.0604
X4.714Y-5.1192
X4.7146Y-3.749
X4.7165Y-3.4291
X4.7205Y-3.1693
X4.7272Y-4.5543
X4.7276Y-4.4736
X4.7276Y-4.515
X4.728Y-4.439
X4.728Y-4.5902
X4.7283Y-3.2972
X4.7287Y-4.4043
X4.7329Y-4.1998
X4.7362Y-5.0384
X4.737Y-4.3776
X4.7402Y-3.6004
X4.7409Y-4.6211
X4.7429Y-4.4925
X4.7429Y-4.5346
X4.7433Y-4.6685
X4.7448Y-5.2591
X4.7453Y-4.5709
X4.7461Y-3.8366
X4.7472Y-4.4555
X4.748Y-3.4291
X4.748Y-4.4209
X4.752Y-3.2244
X4.7526Y-5.1762
X4.7535Y-5.0802
X4.7583Y-4.139
X4.7594Y-4.0953
X4.761Y-4.252
X4.7654Y-4.4988
X4.7673Y-4.4043
X4.7673Y-4.4705
X4.7677Y-3.5043
X4.7681Y-4.374
X4.7681Y-4.437
X4.7717Y-2.8179
X4.7717Y-3.0906
X4.7717Y-3.5433
X4.7776Y-3.9075
X4.7835Y-3.6732
X4.7839Y-4.2307
X4.7854Y-3.4764
X4.7857Y-5.3061
X4.7866Y-4.7705
X4.7894Y-3.3031
X4.7963Y-3.3632
X4.7965Y-4.139
X4.7966Y-4.6021
X4.7969Y-4.7051
X4.7976Y-4.9917
X4.7982Y-4.275
X4.8012Y-3.0394
X4.802Y-4.9452
X4.8025Y-4.1741
X4.8031Y-3.1673
X4.8071Y-2.7057
X4.8169Y-4.0945
X4.8199Y-2.9291
X4.8219Y-3.7992
X4.8287Y-3.2559
X4.8346Y-3.4449
X4.8346Y-3.5256
X4.8346Y-3.6043
X4.8386Y-3.6516
X4.8386Y-3.7421
X4.8469Y-4.1205
X4.8484Y-3.0906
X4.8504Y-3.313
X4.8583Y-3.2067
X4.8662Y-4.1751
X4.8714Y-4.675
X4.872Y-3.3957
X4.878Y-3.5748
X4.8902Y-4.1031
X4.8929Y-4.174
X4.8957Y-3.2559
X4.8976Y-2.8041
X4.9016Y-2.9872
X4.9016Y-3.624
X4.9016Y-4.4807
X4.9026Y-3.0433
X4.9026Y-3.0925
X4.9026Y-3.1417
X4.9026Y-3.9114
X4.9075Y-3.187
X4.9114Y-3.4547
X4.9114Y-3.5256
X4.9146Y-4.5472
X4.9224Y-4.1417
X4.9232Y-5.0445
X4.9244Y-4.9854
X4.9256Y-4.9232
X4.9272Y-3.7697
X4.9272Y-3.372
X4.9285Y-4.8723
X4.9291Y-3.6673
X4.9331Y-3.8366
X4.937Y-4.2638
X4.9432Y-5.3362
X4.9459Y-2.6811
X4.9504Y-4.1744
X4.9508Y-4.2441
X4.9508Y-4.2874
X4.9528Y-3.6063
X4.9528Y-5.0141
X4.9536Y-4.9102
X4.9551Y-3.0156
X4.9551Y-3.0656
X4.9551Y-3.1156
X4.9551Y-3.1656
X4.9571Y-4.1047
X4.9583Y-5.0795
X4.9587Y-3.7205
X4.9591Y-3.8445
X4.9634Y-4.8744
X4.9646Y-3.3189
X4.965Y-5.1902
X4.9665Y-4.2697
X4.9669Y-4.9618
X4.9695Y-2.9094
X4.9724Y-3.5315
X4.9724Y-4.2992
X4.9744Y-4.2441
X4.9803Y-3.2264
X4.9819Y-5.0429
X4.9823Y-3.4272
X4.9861Y-4.5489
X4.9892Y-3.7835
X4.9892Y-3.8494
X4.9902Y-4.2835
X4.9906Y-4.922
X4.9921Y-4.2598
X5.001Y-2.9754
X5.0043Y-5.002
X5.0071Y-3.7269
X5.0102Y-4.8744
X5.0102Y-4.9768
X5.0108Y-3.9085
X5.013Y-5.1906
X5.0283Y-4.7867
X5.0301Y-5.1005
X5.0303Y-4.9961
X5.0311Y-4.1047
X5.033Y-4.4154
X5.0335Y-3.1516
X5.0335Y-3.6299
X5.0406Y-4.2461
X5.0413Y-3.5335
X5.0413Y-2.7854
X5.0453Y-3.3248
X5.0453Y-3.4232
X5.0472Y-3.0787
X5.0492Y-3.2382
X5.0516Y-4.3641
X5.0531Y-3.8169
X5.0557Y-5.1005
X5.0575Y-4.4512
X5.0581Y-3.7087
X5.0614Y-5.1909
X5.0697Y-4.2161
X5.0831Y-4.3145
X5.0906Y-4.3409
X5.0928Y-4.2385
X5.1014Y-2.872
X5.1043Y-4.1071
X5.1055Y-4.4469
X5.1063Y-4.5268
X5.1075Y-4.3138
X5.1098Y-5.239
X5.1122Y-3.9075
X5.1122Y-4.2122
X5.115Y-4.3413
X5.1173Y-4.1634
X5.1201Y-3.0689
X5.1201Y-3.1437
X5.122Y-3.3346
X5.124Y-3.0059
X5.125Y-3.7766
X5.126Y-3.2421
X5.126Y-3.5295
X5.1276Y-4.4236
X5.128Y-3.4291
X5.128Y-3.6339
X5.1289Y-3.8484
X5.1309Y-2.6526
X5.1354Y-4.3142
X5.1382Y-4.3415
X5.1445Y-4.2169
X5.1541Y-4.0935
X5.1563Y-5.2374
X5.1582Y-4.571
X5.1607Y-5.1005
X5.1618Y-4.3142
X5.1618Y-4.3358
X5.163Y-4.1232
X5.1647Y-4.4535
X5.1657Y-4.1957
X5.1673Y-4.6718
X5.1689Y-4.9457
X5.172Y-4.165
X5.1732Y-5.1906
X5.176Y-4.8429
X5.1776Y-4.3517
X5.1841Y-3.8159
X5.1878Y-4.3146
X5.1886Y-4.9169
X5.1902Y-4.9906
X5.1909Y-4.2756
X5.2004Y-5.1453
X5.2028Y-2.9843
X5.2031Y-5.2394
X5.2047Y-3.063
X5.2047Y-3.1437
X5.2061Y-4.4203
X5.2087Y-3.2402
X5.2106Y-3.3346
X5.2106Y-3.4291
X5.2122Y-4.8819
X5.2146Y-3.5217
X5.2156Y-3.9065
X5.2175Y-3.7067
X5.2185Y-3.6339
X5.2224Y-2.8996
X5.2224Y-4.1382
X5.2228Y-4.1894
X5.2234Y-4.2606
X5.2254Y-2.75
X5.226Y-4.9429
X5.2303Y-3.8494
X5.2313Y-3.7746
X5.2315Y-4.322
X5.2319Y-5.172
X5.2335Y-4.8472
X5.2367Y-4.5725
X5.2446Y-4.5316
X5.2472Y-4.9949
X5.248Y-5.3288
X5.2535Y-4.902
X5.2535Y-5.2398
X5.2555Y-4.5028
X5.2563Y-5.2969
X5.265Y-5.1449
X5.2669Y-4.9796
X5.2736Y-3.7545
X5.2748Y-4.5291
X5.2825Y-2.8376
X5.285Y-5.1894
X5.2862Y-4.9949
X5.2866Y-4.2165
X5.2866Y-4.5606
X5.2992Y-2.9764
X5.2992Y-5.1602
X5.3012Y-3.0551
X5.3012Y-3.1358
X5.3024Y-5.2378
X5.3051Y-3.2323
X5.3071Y-3.3268
X5.3071Y-3.4213
X5.3071Y-3.6713
X5.3091Y-4.2425
X5.311Y-3.5138
X5.3118Y-5.1005
X5.313Y-5.2961
X5.315Y-3.5886
X5.3161Y-4.9846
X5.3202Y-4.5874
X5.321Y-4.6503
X5.3219Y-3.8514
X5.3221Y-4.679
X5.3228Y-3.7736
X5.3283Y-5.1441
X5.3311Y-4.2012
X5.3339Y-4.9299
X5.3343Y-4.887
X5.3378Y-4.2272
X5.3382Y-5.2035
X5.3396Y-4.4587
X5.3406Y-2.6368
X5.3412Y-5.1005
X5.3457Y-4.535
X5.3555Y-3.8484
X5.3563Y-3.7703
X5.3565Y-4.1222
X5.3579Y-4.9705
X5.3591Y-4.0941
X5.361Y-4.6804
X5.3686Y-4.3837
X5.3688Y-4.5913
X5.3693Y-5.1736
X5.3697Y-4.2394
X5.3744Y-5.0988
X5.376Y-3.063
X5.376Y-5.235
X5.3767Y-4.5635
X5.377Y-3.5669
X5.3783Y-5.2957
X5.3789Y-3.6663
X5.3809Y-3.8337
X5.3809Y-4.6296
X5.3823Y-4.8854
X5.385Y-4.4547
X5.3858Y-2.9823
X5.3868Y-3.8022
X5.3868Y-2.8927
X5.387Y-4.9413
X5.3878Y-3.2382
X5.3886Y-4.1307
X5.3886Y-4.1752
X5.3891Y-4.4107
X5.3902Y-4.3617
X5.3917Y-3.1398
X5.3937Y-3.3287
X5.3937Y-5.0681
X5.3945Y-4.9941
X5.3957Y-3.4232
X5.3976Y-5.1449
X5.4026Y-4.2274
X5.4066Y-4.671
X5.4114Y-3.9065
X5.4114Y-4.7854
X5.4114Y-4.8091
X5.4114Y-4.8327
X5.4114Y-4.8563
X5.4138Y-4.1984
X5.4144Y-2.7441
X5.4144Y-2.939
X5.4144Y-3.6457
X5.4154Y-3.6014
X5.4154Y-2.9656
X5.4173Y-4.1315
X5.4186Y-4.4211
X5.4188Y-4.5659
X5.4189Y-2.9142
X5.4201Y-5.0535
X5.4232Y-3.7894
X5.4272Y-2.8376
X5.4301Y-2.6939
X5.4315Y-5.2453
X5.4318Y-4.2881
X5.4331Y-3.0167
X5.4331Y-3.5089
X5.4343Y-5.1843
X5.4344Y-4.7854
X5.4344Y-4.8091
X5.4344Y-4.8327
X5.4344Y-4.8563
X5.4354Y-5.2965
X5.4386Y-4.1547
X5.4398Y-4.1205
X5.4398Y-4.5229
X5.4402Y-2.9441
X5.4406Y-5.0969
X5.4417Y-2.9695
X5.4419Y-3.5719
X5.4429Y-5.0669
X5.4474Y-4.7016
X5.448Y-4.6757
X5.4488Y-3.8504
X5.4528Y-3.0856
X5.4601Y-4.4587
X5.4618Y-4.5378
X5.4638Y-5.2232
X5.4646Y-4.5902
X5.4646Y-4.6555
X5.4712Y-4.2506
X5.4752Y-5.1449
X5.4757Y-4.4282
X5.4772Y-5.2543
X5.481Y-4.2806
X5.4823Y-3.1506
X5.4843Y-4.5508
X5.4858Y-5.0937
X5.4858Y-5.1957
X5.4866Y-5.0555
X5.4872Y-3.3337
X5.4882Y-3.4154
X5.4897Y-4.2279
X5.4904Y-3.4439
X5.4906Y-4.5098
X5.4911Y-3.5709
X5.4953Y-4.9459
X5.497Y-3.2411
X5.5Y-3.5187
X5.503Y-3.4685
X5.5055Y-5.2984
X5.5079Y-2.6299
X5.5089Y-3.7933
X5.5098Y-3.688
X5.5108Y-3.0846
X5.5108Y-2.7402
X5.5114Y-5.0685
X5.5128Y-3.6457
X5.5167Y-3.9085
X5.5177Y-4.485
X5.5181Y-5.2094
X5.5193Y-5.2591
X5.5193Y-5.0051
X5.5218Y-4.2863
X5.5276Y-2.9931
X5.5319Y-5.1118
X5.5414Y-5.0699
X5.5453Y-4.2262
X5.5453Y-5.1843
X5.5472Y-3.0157
X5.5581Y-3.564
X5.564Y-3.2362
X5.5661Y-5.3051
X5.5699Y-3.4213
X5.5709Y-3.0866
X5.5719Y-3.4685
X5.5756Y-5.1646
X5.5807Y-3.1319
X5.5807Y-3.3366
X5.5807Y-5.2579
X5.5817Y-2.9902
X5.5817Y-3.7126
X5.5843Y-5.2102
X5.5846Y-3.0157
X5.5856Y-3.8484
X5.5886Y-2.9587
X5.5903Y-3.3811
X5.5916Y-4.1107
X5.5965Y-4.1933
X5.5991Y-4.282
X5.6004Y-4.1419
X5.6024Y-2.8366
X5.6035Y-5.3063
X5.6043Y-3.6535
X5.6083Y-2.9144
X5.6102Y-3.5187
X5.611Y-5.2343
X5.6142Y-2.7431
X5.615Y-5.1965
X5.6154Y-4.2326
X5.6161Y-3.9075
X5.6181Y-4.7061
X5.6181Y-3.0994
X5.6181Y-4.8476
X5.6181Y-5.265
X5.6185Y-4.5972
X5.6185Y-4.7881
X5.6191Y-2.9921
X5.6201Y-2.9449
X5.6201Y-3.7116
X5.6201Y-4.1205
X5.625Y-4.8785
X5.6252Y-4.624
X5.6281Y-4.4504
X5.6282Y-4.406
X5.6299Y-3.2303
X5.6329Y-2.9665
X5.6348Y-3.0157
X5.6352Y-4.3615
X5.6356Y-4.9443
X5.6368Y-3.3346
X5.6386Y-5.2098
X5.6417Y-2.9203
X5.6417Y-3.0463
X5.6427Y-2.8907
X5.6433Y-4.824
X5.6437Y-3.7884
X5.65Y-5.0232
X5.6504Y-5.1823
X5.6516Y-4.9
X5.6528Y-5.2571
X5.6539Y-4.1695
X5.6591Y-4.6453
X5.6604Y-3.0965
X5.6604Y-3.2657
X5.6642Y-5.3827
X5.6647Y-4.4518
X5.665Y-4.8571
X5.6663Y-3.2362
X5.6665Y-4.7886
X5.6689Y-4.2311
X5.6693Y-3.7703
X5.672Y-4.2814
X5.6756Y-5.2114
X5.6791Y-3.0659
X5.6801Y-2.9508
X5.6815Y-5.0543
X5.6819Y-4.1922
X5.6878Y-5.1902
X5.688Y-3.3455
X5.6883Y-4.1232
X5.6906Y-4.552
X5.6909Y-3.2195
X5.6933Y-4.972
X5.6949Y-2.6358
X5.6949Y-3.4203
X5.6949Y-4.4532
X5.6969Y-3.4675
X5.6982Y-4.4045
X5.7047Y-4.9961
X5.7055Y-4.6004
X5.7059Y-4.2088
X5.7071Y-5.026
X5.7071Y-5.2079
X5.7106Y-5.0535
X5.7114Y-5.3358
X5.7126Y-3.6752
X5.7136Y-3.1447
X5.7156Y-3.3238
X5.7185Y-2.9921
X5.7185Y-3.7904
X5.7217Y-4.9724
X5.7224Y-3.1102
X5.7224Y-4.2511
X5.7228Y-5.3791
X5.7234Y-3.8484
X5.7325Y-5.2048
X5.7331Y-4.9965
X5.7333Y-4.2274
X5.7358Y-4.624
X5.7382Y-4.5516
X5.7409Y-4.778
X5.7411Y-2.8986
X5.7417Y-4.8484
X5.7421Y-4.6988
X5.7421Y-5.0535
X5.7425Y-4.652
X5.7429Y-5.0248
X5.7461Y-3.2215
X5.748Y-3.1348
X5.751Y-3.2874
X5.7512Y-4.6008
X5.753Y-2.9478
X5.7539Y-3.7902
X5.7539Y-3.8508
X5.7569Y-3.5177
X5.7579Y-5.2017
X5.7618Y-2.7431
X5.7622Y-5.2858
X5.7648Y-3.0364
X5.766Y-3.3359
X5.7693Y-4.8134
X5.7726Y-2.8494
X5.7748Y-5.0539
X5.7778Y-4.2069
X5.7791Y-5.0252
X5.7825Y-2.6821
X5.7833Y-5.1985
X5.7835Y-3.8169
X5.7854Y-5.3736
X5.7878Y-4.5543
X5.7886Y-4.6004
X5.789Y-5.3213
X5.7933Y-3.3258
X5.7945Y-4.8476
X5.7953Y-4.6484
X5.7953Y-4.6803
X5.7953Y-4.7803
X5.7984Y-4.7244
X5.8012Y-3.4222
X5.8031Y-2.9636
X5.8051Y-4.1063
X5.8051Y-3.9085
X5.8061Y-3.6004
X5.8082Y-5.2043
X5.8083Y-5.0539
X5.8091Y-3.2224
X5.8091Y-5.2335
X5.8114Y-4.8945
X5.8142Y-5.0256
X5.815Y-3.0305
X5.8169Y-3.7077
X5.8189Y-5.1594
X5.8194Y-5.2753
X5.8209Y-4.2657
X5.8228Y-2.8976
X5.8238Y-3.2815
X5.8258Y-3.8484
X5.8268Y-3.3356
X5.8278Y-3.4675
X5.8311Y-2.9776
X5.8327Y-3.0974
X5.8327Y-4.5384
X5.8374Y-4.9108
X5.8382Y-5.0535
X5.8432Y-4.1037
X5.8472Y-4.2146
X5.8494Y-3.063
X5.8504Y-3.2589
X5.8524Y-2.9547
X5.8524Y-4.1585
X5.8533Y-2.7421
X5.8543Y-3.3711
X5.8543Y-4.6665
X5.8553Y-3.001
X5.8579Y-5.3197
X5.8583Y-4.9255
X5.8593Y-2.8494
X5.8602Y-5.3685
X5.8638Y-5.1917
X5.8701Y-3.5098
X5.8701Y-4.2441
X5.872Y-3.8022
X5.8724Y-5.239
X5.8734Y-4.9502
X5.878Y-3.1417
X5.8782Y-4.1707
X5.8788Y-4.2095
X5.8791Y-4.9106
X5.8799Y-2.6447
X5.8809Y-3.2884
X5.8829Y-3.3366
X5.8839Y-3.4193
X5.8972Y-4.7024
X5.9001Y-4.1197
X5.9016Y-3.001
X5.9016Y-3.1093
X5.9035Y-2.8809
X5.9035Y-2.9547
X5.9039Y-4.1823
X5.9041Y-4.916
X5.905Y-4.4511
X5.9083Y-4.6528
X5.9134Y-4.5846
X5.9142Y-4.7417
X5.9173Y-3.9094
X5.9213Y-3.1831
X5.9232Y-3.8327
X5.9252Y-3.0394
X5.9283Y-5.3063
X5.9287Y-5.3575
X5.9291Y-3.3711
X5.9299Y-4.7878
X5.9323Y-4.411
X5.9323Y-4.6059
X5.9327Y-5.2378
X5.9331Y-3.2657
X5.935Y-2.8484
X5.935Y-3.3258
X5.9354Y-4.2429
X5.9398Y-4.9122
X5.94Y-2.8986
X5.94Y-3.0915
X5.9409Y-2.9547
X5.9419Y-3.002
X5.9429Y-4.7043
X5.9433Y-4.5488
X5.9457Y-4.6531
X5.9469Y-3.436
X5.9469Y-4.872
X5.9469Y-3.5778
X5.9472Y-4.8272
X5.9518Y-2.7451
X5.9528Y-3.7303
X5.9598Y-4.7398
X5.9614Y-5.0252
X5.972Y-4.2063
X5.976Y-4.7909
X5.9783Y-3.3169
X5.9803Y-3.2657
X5.9803Y-4.9232
X5.9823Y-3.189
X5.9846Y-4.6067
X5.9862Y-2.8504
X5.9882Y-4.8768
X5.989Y-4.6547
X5.989Y-4.7012
X5.9902Y-5.052
X5.9909Y-4.8264
X5.9911Y-2.9193
X5.9913Y-5.0264
X5.9921Y-2.9537
X5.9929Y-4.5583
X5.9941Y-3.002
X5.9961Y-3.1024
X5.9969Y-5.2909
X6.0008Y-5.3528
X6.0047Y-4.7409
X6.0047Y-5.1642
X6.0051Y-5.2476
X6.0079Y-3.3711
X6.0128Y-3.9085
X6.0157Y-3.7657
X6.0157Y-5.0252
X6.0157Y-5.0504
X6.0161Y-4.6776
X6.0165Y-4.4472
X6.0177Y-4.7815
X6.0193Y-4.4146
X6.0226Y-3.5
X6.0228Y-4.9165
X6.0276Y-4.8429
X6.0303Y-4.7055
X6.0315Y-3.8514
X6.0335Y-4.2224
X6.0361Y-5.1794
X6.0374Y-3.2697
X6.0374Y-3.3327
X6.0398Y-5.0528
X6.0413Y-2.6791
X6.0413Y-2.8681
X6.0413Y-4.9866
X6.0423Y-3.128
X6.0425Y-5.2059
X6.0441Y-4.7378
X6.0453Y-3.6358
X6.0461Y-4.6169
X6.0463Y-2.7421
X6.0465Y-4.8783
X6.0471Y-4.6758
X6.0472Y-2.9232
X6.0472Y-3.0571
X6.048Y-4.5575
X6.0492Y-3.189
X6.0531Y-3.003
X6.0543Y-4.4161
X6.0551Y-4.4531
X6.0583Y-4.2965
X6.0588Y-4.5848
X6.0618Y-4.7886
X6.0673Y-4.7055
X6.0689Y-3.7205
X6.0713Y-4.9118
X6.0744Y-4.7516
X6.0772Y-4.8429
X6.0803Y-4.2138
X6.0807Y-3.1555
X6.0831Y-5.3394
X6.0839Y-5.2902
X6.0843Y-4.452
X6.0846Y-5.2142
X6.089Y-4.3043
X6.0933Y-5.0256
X6.0941Y-4.7768
X6.0953Y-4.0965
X6.0984Y-3.5846
X6.0984Y-3.6732
X6.0988Y-4.8291
X6.0992Y-4.7028
X6.0994Y-2.7293
X6.1024Y-2.9508
X6.1024Y-3.0689
X6.1043Y-3.4321
X6.1093Y-3.0049
X6.1126Y-4.1394
X6.115Y-5.1323
X6.1197Y-5.0571
X6.122Y-3.9094
X6.1236Y-5.0213
X6.124Y-3.7677
X6.124Y-4.7136
X6.124Y-4.7382
X6.126Y-4.6263
X6.1264Y-4.3079
X6.1283Y-4.211
X6.1299Y-4.9626
X6.1309Y-3.2717
X6.1319Y-4.7618
X6.1329Y-3.3563
X6.1346Y-4.3685
X6.1388Y-4.4961
X6.1457Y-4.9429
X6.15Y-3.3957
X6.1506Y-4.4618
X6.1531Y-4.1732
X6.1543Y-4.0953
X6.1575Y-4.3831
X6.1581Y-4.5423
X6.1622Y-5.0626
X6.1642Y-5.3232
X6.1654Y-5.2756
X6.1673Y-5.1283
X6.1697Y-4.2728
X6.172Y-4.3339
X6.1791Y-2.7392
X6.1801Y-4.4976
X6.1826Y-4.4075
X6.1874Y-4.1354
X6.19Y-3.3179
X6.1909Y-3.498
X6.1929Y-3.6752
X6.1929Y-4.3823
X6.1937Y-4.3539
X6.1969Y-3.2717
X6.1994Y-4.5258
X6.2004Y-4.2417
X6.2094Y-5.0606
X6.2106Y-3.5925
X6.2174Y-4.8242
X6.2205Y-2.8543
X6.2209Y-4.9213
X6.222Y-4.1921
X6.2224Y-2.7028
X6.2224Y-4.2839
X6.2232Y-4.3193
X6.224Y-5.1268
X6.226Y-4.1587
X6.2311Y-4.639
X6.2323Y-3.8228
X6.2339Y-4.0929
X6.2354Y-4.2563
X6.2374Y-4.3579
X6.2406Y-4.7256
X6.2429Y-4.4276
X6.248Y-5.2425
X6.2504Y-5.1866
X6.2535Y-5.2957
X6.2638Y-4.9622
X6.2669Y-4.8118
X6.2681Y-4.8504
X6.2697Y-4.8996
X6.2713Y-5.0705
X6.2768Y-4.1248
X6.2772Y-4.7524
X6.285Y-5.0154
X6.2933Y-4.1535
X6.2972Y-2.8878
X6.2988Y-4.0937
X6.2988Y-5.1366
X6.2992Y-3.7185
X6.3071Y-5.2681
X6.3091Y-2.7402
X6.311Y-4.6815
X6.313Y-3.3661
X6.315Y-4.3563
X6.315Y-4.6087
X6.3165Y-4.5386
X6.3169Y-2.9783
X6.3169Y-3.1201
X6.3346Y-3.561
X6.3366Y-3.9055
X6.3374Y-4.7087
X6.3398Y-5.065
X6.3406Y-4.222
X6.3453Y-4.1543
X6.3465Y-4.4295
X6.3516Y-4.2823
X6.3524Y-4.7437
X6.3531Y-4.1008
X6.3803Y-5.1236
X6.3819Y-3.7913
X6.3831Y-4.1921
X6.3878Y-3.2087
X6.3898Y-2.9331
X6.3917Y-3.0945
X6.3921Y-5.2583
X6.3941Y-5.0173
X6.3953Y-4.3602
X6.4039Y-5.0756
X6.4067Y-4.2469
X6.4114Y-2.7657
X6.4248Y-5.1677
X6.4272Y-4.1043
X6.4291Y-3.6929
X6.435Y-2.8484
X6.4492Y-4.9583
X6.4555Y-5.0803
X6.4567Y-4.2882
X6.4575Y-4.8665
X6.4587Y-3.9075
X6.4646Y-2.9862
X6.4756Y-5.0106
X6.4783Y-3.1083
X6.4902Y-4.9307
X6.5205Y-4.1315
X6.5236Y-3.7815
X6.5256Y-4.2248
X6.5295Y-3.8681
T2
X5.7297Y-3.0607
T4
X5.0073Y-5.2837
X5.1193Y-5.1697
X5.2029Y-5.306
X6.1398Y-2.7776
X6.1398Y-2.8276
X6.1398Y-2.8776
X6.1398Y-2.9276
X6.1398Y-2.9776
X6.1398Y-3.0276
X6.1398Y-3.0776
X6.1398Y-3.1276
X6.1398Y-3.1776
X6.1398Y-3.2276
X6.1898Y-2.7776
X6.1898Y-2.8276
X6.1898Y-2.8776
X6.1898Y-2.9276
X6.1898Y-2.9776
X6.1898Y-3.0276
X6.1898Y-3.0776
X6.1898Y-3.1276
X6.1898Y-3.1776
X6.1898Y-3.2276
X6.2746Y-4.2022
X6.2746Y-4.2522
X6.2746Y-4.3022
X6.2746Y-4.3522
X6.2746Y-4.4022
X6.2746Y-4.4522
X6.2746Y-4.5022
X6.2746Y-4.5522
X6.2746Y-4.6022
X6.2746Y-4.6522
T5
X4.8378Y-4.7843
X4.8378Y-4.8343
X4.8378Y-4.8843
X4.8378Y-4.9343
X4.8378Y-4.9843
X4.8378Y-5.0343
X4.8378Y-5.0843
X4.8378Y-5.1343
X4.8378Y-5.1843
X4.8378Y-5.2343
X4.8878Y-4.7843
X4.8878Y-4.8343
X4.8878Y-4.8843
X4.8878Y-4.9343
X4.8878Y-4.9843
X4.8878Y-5.0343
X4.8878Y-5.0843
X4.8878Y-5.1343
X4.8878Y-5.1843
X4.8878Y-5.2343
T6
X5.3638Y-3.6175
X5.4638Y-3.6175
X5.5638Y-3.6175
X5.6638Y-3.6175
X6.1831Y-5.2106
T3
G00X5.3437Y-2.6978
M15
G01X5.3437Y-2.7293
M16
G05
G00X5.3437Y-2.8573
M15
G01X5.3437Y-2.9006
M16
G05
G00X5.6839Y-2.6978
M15
G01X5.6839Y-2.7293
M16
G05
G00X5.6839Y-2.8573
M15
G01X5.6839Y-2.9006
M16
G05
M30
