%TF.GenerationSoftware,KiCad,Pcbnew,7.0.11*%
%TF.CreationDate,2025-05-28T11:48:16+09:00*%
%TF.ProjectId,2ndLayer_3rdLayer,326e644c-6179-4657-925f-3372644c6179,rev?*%
%TF.SameCoordinates,Original*%
%TF.FileFunction,Soldermask,Top*%
%TF.FilePolarity,Negative*%
%FSLAX46Y46*%
G04 Gerber Fmt 4.6, Leading zero omitted, Abs format (unit mm)*
G04 Created by KiCad (PCBNEW 7.0.11) date 2025-05-28 11:48:16*
%MOMM*%
%LPD*%
G01*
G04 APERTURE LIST*
G04 Aperture macros list*
%AMRoundRect*
0 Rectangle with rounded corners*
0 $1 Rounding radius*
0 $2 $3 $4 $5 $6 $7 $8 $9 X,Y pos of 4 corners*
0 Add a 4 corners polygon primitive as box body*
4,1,4,$2,$3,$4,$5,$6,$7,$8,$9,$2,$3,0*
0 Add four circle primitives for the rounded corners*
1,1,$1+$1,$2,$3*
1,1,$1+$1,$4,$5*
1,1,$1+$1,$6,$7*
1,1,$1+$1,$8,$9*
0 Add four rect primitives between the rounded corners*
20,1,$1+$1,$2,$3,$4,$5,0*
20,1,$1+$1,$4,$5,$6,$7,0*
20,1,$1+$1,$6,$7,$8,$9,0*
20,1,$1+$1,$8,$9,$2,$3,0*%
%AMHorizOval*
0 Thick line with rounded ends*
0 $1 width*
0 $2 $3 position (X,Y) of the first rounded end (center of the circle)*
0 $4 $5 position (X,Y) of the second rounded end (center of the circle)*
0 Add line between two ends*
20,1,$1,$2,$3,$4,$5,0*
0 Add two circle primitives to create the rounded ends*
1,1,$1,$2,$3*
1,1,$1,$4,$5*%
%AMRotRect*
0 Rectangle, with rotation*
0 The origin of the aperture is its center*
0 $1 length*
0 $2 width*
0 $3 Rotation angle, in degrees counterclockwise*
0 Add horizontal line*
21,1,$1,$2,0,0,$3*%
G04 Aperture macros list end*
%ADD10R,1.600000X0.760000*%
%ADD11RoundRect,0.237500X0.287500X0.237500X-0.287500X0.237500X-0.287500X-0.237500X0.287500X-0.237500X0*%
%ADD12R,1.050000X0.650000*%
%ADD13R,1.600000X1.400000*%
%ADD14HorizOval,3.100000X0.424264X0.424264X-0.424264X-0.424264X0*%
%ADD15O,0.900000X1.400000*%
%ADD16O,1.400000X0.900000*%
%ADD17O,1.200000X0.900000*%
%ADD18RoundRect,0.200000X0.200000X0.600000X-0.200000X0.600000X-0.200000X-0.600000X0.200000X-0.600000X0*%
%ADD19RoundRect,0.250001X0.799999X1.249999X-0.799999X1.249999X-0.799999X-1.249999X0.799999X-1.249999X0*%
%ADD20RoundRect,0.381000X-0.335420X0.421681X-0.421681X-0.335420X0.335420X-0.421681X0.421681X0.335420X0*%
%ADD21C,1.524000*%
%ADD22RoundRect,0.237500X-0.287500X-0.237500X0.287500X-0.237500X0.287500X0.237500X-0.287500X0.237500X0*%
%ADD23R,1.000000X1.000000*%
%ADD24RotRect,0.970000X0.600000X97.000000*%
%ADD25RotRect,0.700000X1.150000X97.000000*%
%ADD26RoundRect,0.425000X-0.425000X-0.425000X0.425000X-0.425000X0.425000X0.425000X-0.425000X0.425000X0*%
%ADD27C,1.700000*%
%ADD28R,0.650000X1.050000*%
%ADD29R,0.575000X0.620000*%
%ADD30C,2.000000*%
%ADD31O,1.000000X1.000000*%
%ADD32R,0.620000X0.575000*%
%ADD33C,0.650000*%
%ADD34O,1.000000X1.800000*%
%ADD35O,1.000000X2.100000*%
G04 APERTURE END LIST*
D10*
%TO.C,SW10*%
X84190000Y-19845000D03*
X84190000Y-21115000D03*
X84190000Y-22385000D03*
X84190000Y-23655000D03*
X91810000Y-23655000D03*
X91810000Y-22385000D03*
X91810000Y-21115000D03*
X91810000Y-19845000D03*
%TD*%
%TO.C,SW5*%
X32790000Y-14495000D03*
X32790000Y-15765000D03*
X32790000Y-17035000D03*
X32790000Y-18305000D03*
X40410000Y-18305000D03*
X40410000Y-17035000D03*
X40410000Y-15765000D03*
X40410000Y-14495000D03*
%TD*%
D11*
%TO.C,D16*%
X35775000Y-10600000D03*
X34025000Y-10600000D03*
%TD*%
D12*
%TO.C,SW3*%
X22675000Y-36925000D03*
X26825000Y-36925000D03*
X22675000Y-39075000D03*
X26800000Y-39075000D03*
%TD*%
D13*
%TO.C,SW9*%
X84100000Y-5750000D03*
X76100000Y-5750000D03*
X84100000Y-1250000D03*
X76100000Y-1250000D03*
%TD*%
D11*
%TO.C,D9*%
X-19875000Y-23850000D03*
X-21625000Y-23850000D03*
%TD*%
D14*
%TO.C,U2*%
X-10725000Y-21450000D03*
D15*
X-11270000Y-24485000D03*
X-10000000Y-24485000D03*
X-8730000Y-24485000D03*
X-7460000Y-24485000D03*
X-6190000Y-24485000D03*
X-4920000Y-24485000D03*
X-3650000Y-24485000D03*
X-2380000Y-24485000D03*
D16*
X-90000Y-22195000D03*
X-90000Y-20925000D03*
X-90000Y-19655000D03*
X-90000Y-18385000D03*
X-90000Y-17115000D03*
X-90000Y-15845000D03*
X-90000Y-14575000D03*
X-90000Y-13305000D03*
D15*
X-2380000Y-11015000D03*
X-3650000Y-11015000D03*
X-4920000Y-11015000D03*
X-6190000Y-11015000D03*
X-7460000Y-11015000D03*
X-8730000Y-11015000D03*
X-10000000Y-11015000D03*
X-11270000Y-11015000D03*
D16*
X-13560000Y-13305000D03*
X-13560000Y-14575000D03*
X-13560000Y-15845000D03*
X-13560000Y-17115000D03*
X-13560000Y-18385000D03*
X-13560000Y-19655000D03*
D17*
X-13660000Y-20925000D03*
X-13660000Y-22195000D03*
%TD*%
D11*
%TO.C,D10*%
X25625000Y-33500000D03*
X23875000Y-33500000D03*
%TD*%
D13*
%TO.C,SW8*%
X74000000Y-5750000D03*
X66000000Y-5750000D03*
X74000000Y-1250000D03*
X66000000Y-1250000D03*
%TD*%
D11*
%TO.C,D8*%
X-19875000Y-22350000D03*
X-21625000Y-22350000D03*
%TD*%
D18*
%TO.C,J10*%
X11125000Y-5100000D03*
X9875000Y-5100000D03*
X8625000Y-5100000D03*
X7375000Y-5100000D03*
X6125000Y-5100000D03*
X4875000Y-5100000D03*
D19*
X13675000Y-2200000D03*
X2325000Y-2200000D03*
%TD*%
D20*
%TO.C,SW2*%
X-7897196Y-31522723D03*
D21*
X-10018875Y-28060285D03*
X-12865055Y-30956707D03*
%TD*%
D22*
%TO.C,D12*%
X37425000Y-10600000D03*
X39175000Y-10600000D03*
%TD*%
D12*
%TO.C,SW4*%
X22675000Y-40625000D03*
X26825000Y-40625000D03*
X22675000Y-42775000D03*
X26800000Y-42775000D03*
%TD*%
D13*
%TO.C,SW7*%
X63900000Y-5750000D03*
X55900000Y-5750000D03*
X63900000Y-1250000D03*
X55900000Y-1250000D03*
%TD*%
D23*
%TO.C,H3*%
X22050000Y-33300000D03*
%TD*%
D24*
%TO.C,SW6*%
X12828304Y-28340304D03*
X13820850Y-28218435D03*
X14813396Y-28096565D03*
D25*
X10912306Y-30172462D03*
X17115720Y-29410779D03*
%TD*%
D23*
%TO.C,H2*%
X41750000Y-11700000D03*
%TD*%
D18*
%TO.C,J11*%
X-4875000Y-5100000D03*
X-6125000Y-5100000D03*
X-7375000Y-5100000D03*
X-8625000Y-5100000D03*
X-9875000Y-5100000D03*
X-11125000Y-5100000D03*
D19*
X-2325000Y-2200000D03*
X-13675000Y-2200000D03*
%TD*%
D11*
%TO.C,D14*%
X35775000Y-9100000D03*
X34025000Y-9100000D03*
%TD*%
%TO.C,D11*%
X25625000Y-35000000D03*
X23875000Y-35000000D03*
%TD*%
D26*
%TO.C,U9*%
X66190000Y-8365000D03*
D27*
X68730000Y-8365000D03*
X71270000Y-8365000D03*
X73810000Y-8365000D03*
%TD*%
D28*
%TO.C,SW1*%
X29225000Y-19325000D03*
X29225000Y-23475000D03*
X27075000Y-19325000D03*
X27075000Y-23450000D03*
%TD*%
D23*
%TO.C,H4*%
X22050000Y-35200000D03*
%TD*%
D11*
%TO.C,D15*%
X35775000Y-12100000D03*
X34025000Y-12100000D03*
%TD*%
D29*
%TO.C,Q9*%
X-11888000Y-7300000D03*
X-11888000Y-8250000D03*
X-11888000Y-9200000D03*
X-9112000Y-9200000D03*
X-9112000Y-8250000D03*
X-9112000Y-7300000D03*
%TD*%
D22*
%TO.C,D13*%
X37425000Y-12100000D03*
X39175000Y-12100000D03*
%TD*%
D23*
%TO.C,H1*%
X41750000Y-9780000D03*
%TD*%
D30*
%TO.C,TP3*%
X-9600000Y-74900000D03*
%TD*%
D23*
%TO.C,J2*%
X-15900000Y-18270000D03*
D31*
X-17170000Y-18270000D03*
X-15900000Y-19540000D03*
X-17170000Y-19540000D03*
X-15900000Y-20810000D03*
X-17170000Y-20810000D03*
X-15900000Y-22080000D03*
X-17170000Y-22080000D03*
X-15900000Y-23350000D03*
X-17170000Y-23350000D03*
X-15900000Y-24620000D03*
X-17170000Y-24620000D03*
X-15900000Y-25890000D03*
X-17170000Y-25890000D03*
X-15900000Y-27160000D03*
X-17170000Y-27160000D03*
X-15900000Y-28430000D03*
X-17170000Y-28430000D03*
X-15900000Y-29700000D03*
X-17170000Y-29700000D03*
%TD*%
D11*
%TO.C,D7*%
X-19875000Y-20850000D03*
X-21625000Y-20850000D03*
%TD*%
D32*
%TO.C,Q7*%
X-5950000Y-6837000D03*
X-6900000Y-6837000D03*
X-7850000Y-6837000D03*
X-7850000Y-9613000D03*
X-6900000Y-9613000D03*
X-5950000Y-9613000D03*
%TD*%
D30*
%TO.C,TP2*%
X-9600000Y-70850000D03*
%TD*%
%TO.C,TP1*%
X-9600000Y-66800000D03*
%TD*%
D33*
%TO.C,J4*%
X72890000Y-27645000D03*
X67110000Y-27645000D03*
D34*
X74320000Y-31325000D03*
D35*
X74320000Y-27125000D03*
D34*
X65680000Y-31325000D03*
D35*
X65680000Y-27125000D03*
%TD*%
D23*
%TO.C,J3*%
X55300000Y-17980000D03*
D31*
X54030000Y-17980000D03*
X55300000Y-19250000D03*
X54030000Y-19250000D03*
X55300000Y-20520000D03*
X54030000Y-20520000D03*
X55300000Y-21790000D03*
X54030000Y-21790000D03*
X55300000Y-23060000D03*
X54030000Y-23060000D03*
X55300000Y-24330000D03*
X54030000Y-24330000D03*
X55300000Y-25600000D03*
X54030000Y-25600000D03*
X55300000Y-26870000D03*
X54030000Y-26870000D03*
X55300000Y-28140000D03*
X54030000Y-28140000D03*
X55300000Y-29410000D03*
X54030000Y-29410000D03*
%TD*%
D23*
%TO.C,J1*%
X19325000Y-3485000D03*
D31*
X19325000Y-4755000D03*
X19325000Y-6025000D03*
X19325000Y-7295000D03*
X19325000Y-8565000D03*
X19325000Y-9835000D03*
X19325000Y-11105000D03*
X19325000Y-12375000D03*
X19325000Y-13645000D03*
X19325000Y-14915000D03*
%TD*%
M02*
