M48
; DRILL file {KiCad 7.0.11} date Wed May 28 11:48:17 2025
; FORMAT={-:-/ absolute / inch / decimal}
; #@! TF.CreationDate,2025-05-28T11:48:17+09:00
; #@! TF.GenerationSoftware,Kicad,Pcbnew,7.0.11
; #@! TF.FileFunction,Plated,1,2,PTH
FMAT,2
INCH
; #@! TA.AperFunction,Plated,PTH,ViaDrill
T1C0.0118
; #@! TA.AperFunction,Plated,PTH,ComponentDrill
T2C0.0236
; #@! TA.AperFunction,Plated,PTH,ComponentDrill
T3C0.0256
; #@! TA.AperFunction,Plated,PTH,ComponentDrill
T4C0.0276
; #@! TA.AperFunction,Plated,PTH,ComponentDrill
T5C0.0394
%
G90
G05
T1
X-0.8193Y-0.1841
X-0.8051Y-0.3913
X-0.7819Y-0.2106
X-0.7165Y-0.2858
X-0.7123Y-0.185
X-0.6486Y-0.186
X-0.4787Y-1.0562
X-0.4771Y-0.9312
X-0.4581Y-1.0355
X-0.3236Y-1.036
X-0.3072Y-0.3455
X-0.2028Y-1.0362
X-0.1488Y-1.0382
T3
X-0.5065Y-1.2188
X-0.3944Y-1.1047
X-0.3109Y-1.2411
X0.7608Y-0.1372
X0.7608Y-0.1872
X0.7608Y-0.2372
X0.7608Y-0.2872
X0.7608Y-0.3372
X0.7608Y-0.3872
X0.7608Y-0.4372
X0.7608Y-0.4872
X0.7608Y-0.5372
X0.7608Y-0.5872
X2.1272Y-0.7079
X2.1272Y-0.7579
X2.1272Y-0.8079
X2.1272Y-0.8579
X2.1272Y-0.9079
X2.1272Y-0.9579
X2.1272Y-1.0079
X2.1272Y-1.0579
X2.1272Y-1.1079
X2.1272Y-1.1579
X2.1772Y-0.7079
X2.1772Y-0.7579
X2.1772Y-0.8079
X2.1772Y-0.8579
X2.1772Y-0.9079
X2.1772Y-0.9579
X2.1772Y-1.0079
X2.1772Y-1.0579
X2.1772Y-1.1079
X2.1772Y-1.1579
T4
X-0.676Y-0.7193
X-0.676Y-0.7693
X-0.676Y-0.8193
X-0.676Y-0.8693
X-0.676Y-0.9193
X-0.676Y-0.9693
X-0.676Y-1.0193
X-0.676Y-1.0693
X-0.676Y-1.1193
X-0.676Y-1.1693
X-0.626Y-0.7193
X-0.626Y-0.7693
X-0.626Y-0.8193
X-0.626Y-0.8693
X-0.626Y-0.9193
X-0.626Y-0.9693
X-0.626Y-1.0193
X-0.626Y-1.0693
X-0.626Y-1.1193
X-0.626Y-1.1693
T5
X-0.378Y-2.6299
X-0.378Y-2.7894
X-0.378Y-2.9488
X2.6059Y-0.3293
X2.7059Y-0.3293
X2.8059Y-0.3293
X2.9059Y-0.3293
T2
G00X2.5858Y-1.0896
M15
G01X2.5858Y-1.0463
M16
G05
G00X2.5858Y-1.249
M15
G01X2.5858Y-1.2175
M16
G05
G00X2.926Y-1.0896
M15
G01X2.926Y-1.0463
M16
G05
G00X2.926Y-1.249
M15
G01X2.926Y-1.2175
M16
G05
M30
