%TF.GenerationSoftware,KiCad,Pcbnew,7.0.11*%
%TF.CreationDate,2025-05-28T11:48:16+09:00*%
%TF.ProjectId,2ndLayer_3rdLayer,326e644c-6179-4657-925f-3372644c6179,rev?*%
%TF.SameCoordinates,Original*%
%TF.FileFunction,Legend,Bot*%
%TF.FilePolarity,Positive*%
%FSLAX46Y46*%
G04 Gerber Fmt 4.6, Leading zero omitted, Abs format (unit mm)*
G04 Created by KiCad (PCBNEW 7.0.11) date 2025-05-28 11:48:16*
%MOMM*%
%LPD*%
G01*
G04 APERTURE LIST*
G04 Aperture macros list*
%AMRoundRect*
0 Rectangle with rounded corners*
0 $1 Rounding radius*
0 $2 $3 $4 $5 $6 $7 $8 $9 X,Y pos of 4 corners*
0 Add a 4 corners polygon primitive as box body*
4,1,4,$2,$3,$4,$5,$6,$7,$8,$9,$2,$3,0*
0 Add four circle primitives for the rounded corners*
1,1,$1+$1,$2,$3*
1,1,$1+$1,$4,$5*
1,1,$1+$1,$6,$7*
1,1,$1+$1,$8,$9*
0 Add four rect primitives between the rounded corners*
20,1,$1+$1,$2,$3,$4,$5,0*
20,1,$1+$1,$4,$5,$6,$7,0*
20,1,$1+$1,$6,$7,$8,$9,0*
20,1,$1+$1,$8,$9,$2,$3,0*%
%AMHorizOval*
0 Thick line with rounded ends*
0 $1 width*
0 $2 $3 position (X,Y) of the first rounded end (center of the circle)*
0 $4 $5 position (X,Y) of the second rounded end (center of the circle)*
0 Add line between two ends*
20,1,$1,$2,$3,$4,$5,0*
0 Add two circle primitives to create the rounded ends*
1,1,$1,$2,$3*
1,1,$1,$4,$5*%
G04 Aperture macros list end*
%ADD10C,0.100000*%
%ADD11C,0.120000*%
%ADD12C,0.150000*%
%ADD13C,0.250000*%
%ADD14HorizOval,3.100000X0.424264X0.424264X-0.424264X-0.424264X0*%
%ADD15RoundRect,0.381000X-0.335420X0.421681X-0.421681X-0.335420X0.335420X-0.421681X0.421681X0.335420X0*%
%ADD16C,1.524000*%
%ADD17RoundRect,0.425000X-0.425000X-0.425000X0.425000X-0.425000X0.425000X0.425000X-0.425000X0.425000X0*%
%ADD18C,1.700000*%
%ADD19C,2.000000*%
%ADD20R,1.000000X1.000000*%
%ADD21O,1.000000X1.000000*%
%ADD22RoundRect,0.135000X-0.135000X-0.185000X0.135000X-0.185000X0.135000X0.185000X-0.135000X0.185000X0*%
%ADD23RoundRect,0.375000X-0.625000X-0.375000X0.625000X-0.375000X0.625000X0.375000X-0.625000X0.375000X0*%
%ADD24RoundRect,0.500000X-0.500000X-1.400000X0.500000X-1.400000X0.500000X1.400000X-0.500000X1.400000X0*%
%ADD25RoundRect,0.140000X0.170000X-0.140000X0.170000X0.140000X-0.170000X0.140000X-0.170000X-0.140000X0*%
%ADD26RoundRect,0.135000X0.185000X-0.135000X0.185000X0.135000X-0.185000X0.135000X-0.185000X-0.135000X0*%
%ADD27RoundRect,0.225000X0.250000X-0.225000X0.250000X0.225000X-0.250000X0.225000X-0.250000X-0.225000X0*%
%ADD28RoundRect,0.135000X0.135000X0.185000X-0.135000X0.185000X-0.135000X-0.185000X0.135000X-0.185000X0*%
%ADD29RoundRect,0.150000X0.587500X0.150000X-0.587500X0.150000X-0.587500X-0.150000X0.587500X-0.150000X0*%
%ADD30RoundRect,0.150000X0.150000X-0.675000X0.150000X0.675000X-0.150000X0.675000X-0.150000X-0.675000X0*%
%ADD31RoundRect,0.135000X-0.185000X0.135000X-0.185000X-0.135000X0.185000X-0.135000X0.185000X0.135000X0*%
%ADD32RoundRect,0.200000X-0.275000X0.200000X-0.275000X-0.200000X0.275000X-0.200000X0.275000X0.200000X0*%
%ADD33RoundRect,0.237500X-0.250000X-0.237500X0.250000X-0.237500X0.250000X0.237500X-0.250000X0.237500X0*%
%ADD34RoundRect,0.250000X0.250000X0.475000X-0.250000X0.475000X-0.250000X-0.475000X0.250000X-0.475000X0*%
%ADD35RoundRect,0.175000X0.175000X-0.325000X0.175000X0.325000X-0.175000X0.325000X-0.175000X-0.325000X0*%
%ADD36RoundRect,0.225000X0.225000X0.250000X-0.225000X0.250000X-0.225000X-0.250000X0.225000X-0.250000X0*%
%ADD37C,0.650000*%
%ADD38R,0.600000X1.240000*%
%ADD39R,0.300000X1.240000*%
%ADD40O,1.000000X1.800000*%
%ADD41O,1.000000X2.100000*%
%ADD42RoundRect,0.140000X-0.170000X0.140000X-0.170000X-0.140000X0.170000X-0.140000X0.170000X0.140000X0*%
%ADD43RoundRect,0.140000X0.140000X0.170000X-0.140000X0.170000X-0.140000X-0.170000X0.140000X-0.170000X0*%
%ADD44RoundRect,0.250000X0.250000X0.250000X-0.250000X0.250000X-0.250000X-0.250000X0.250000X-0.250000X0*%
%ADD45RoundRect,0.150000X0.150000X-0.587500X0.150000X0.587500X-0.150000X0.587500X-0.150000X-0.587500X0*%
%ADD46RoundRect,0.175000X0.325000X0.175000X-0.325000X0.175000X-0.325000X-0.175000X0.325000X-0.175000X0*%
%ADD47RoundRect,0.200000X0.275000X-0.200000X0.275000X0.200000X-0.275000X0.200000X-0.275000X-0.200000X0*%
%ADD48RoundRect,0.075000X0.725000X0.075000X-0.725000X0.075000X-0.725000X-0.075000X0.725000X-0.075000X0*%
%ADD49RoundRect,0.075000X0.075000X0.725000X-0.075000X0.725000X-0.075000X-0.725000X0.075000X-0.725000X0*%
%ADD50RoundRect,0.140000X-0.140000X-0.170000X0.140000X-0.170000X0.140000X0.170000X-0.140000X0.170000X0*%
%ADD51RoundRect,0.200000X-0.200000X-0.275000X0.200000X-0.275000X0.200000X0.275000X-0.200000X0.275000X0*%
%ADD52RoundRect,0.175000X-0.325000X-0.175000X0.325000X-0.175000X0.325000X0.175000X-0.325000X0.175000X0*%
%ADD53R,0.400000X1.200000*%
%ADD54RoundRect,0.225000X-0.375000X0.225000X-0.375000X-0.225000X0.375000X-0.225000X0.375000X0.225000X0*%
%ADD55RoundRect,0.200000X0.200000X0.275000X-0.200000X0.275000X-0.200000X-0.275000X0.200000X-0.275000X0*%
%ADD56RoundRect,0.150000X-0.150000X0.587500X-0.150000X-0.587500X0.150000X-0.587500X0.150000X0.587500X0*%
%ADD57RoundRect,0.250000X-0.250000X0.250000X-0.250000X-0.250000X0.250000X-0.250000X0.250000X0.250000X0*%
%ADD58RoundRect,0.250000X-0.250000X-0.475000X0.250000X-0.475000X0.250000X0.475000X-0.250000X0.475000X0*%
%ADD59RoundRect,0.225000X-0.225000X-0.250000X0.225000X-0.250000X0.225000X0.250000X-0.225000X0.250000X0*%
%ADD60RoundRect,0.250000X0.250000X-0.250000X0.250000X0.250000X-0.250000X0.250000X-0.250000X-0.250000X0*%
%ADD61R,1.400000X1.200000*%
%ADD62RoundRect,0.250000X0.650000X-0.325000X0.650000X0.325000X-0.650000X0.325000X-0.650000X-0.325000X0*%
%ADD63RoundRect,0.150000X-0.587500X-0.150000X0.587500X-0.150000X0.587500X0.150000X-0.587500X0.150000X0*%
%ADD64RoundRect,0.218750X0.218750X0.256250X-0.218750X0.256250X-0.218750X-0.256250X0.218750X-0.256250X0*%
G04 APERTURE END LIST*
D10*
X16942750Y-31355057D02*
X1575355Y-33378213D01*
X922828Y-28421781D01*
X16290119Y-26397833D01*
X16942750Y-31355057D01*
G36*
X16942750Y-31355057D02*
G01*
X1575355Y-33378213D01*
X922828Y-28421781D01*
X16290119Y-26397833D01*
X16942750Y-31355057D01*
G37*
X-922723Y-28420988D02*
X-1575354Y-33378212D01*
X-16942749Y-31355056D01*
X-16290118Y-26397832D01*
X-922723Y-28420988D01*
G36*
X-922723Y-28420988D02*
G01*
X-1575354Y-33378212D01*
X-16942749Y-31355056D01*
X-16290118Y-26397832D01*
X-922723Y-28420988D01*
G37*
D11*
%TO.C,R56*%
X-7053641Y-320000D02*
X-6746359Y-320000D01*
X-7053641Y-1080000D02*
X-6746359Y-1080000D01*
%TO.C,U7*%
X-5950000Y-15090000D02*
X-2190000Y-15090000D01*
X-5950000Y-21910000D02*
X-2190000Y-21910000D01*
X-2190000Y-15090000D02*
X-2190000Y-16350000D01*
X-2190000Y-21910000D02*
X-2190000Y-20650000D01*
X-6990000Y-22140000D02*
X-7470000Y-22140000D01*
X-7230000Y-21810000D01*
X-6990000Y-22140000D01*
G36*
X-6990000Y-22140000D02*
G01*
X-7470000Y-22140000D01*
X-7230000Y-21810000D01*
X-6990000Y-22140000D01*
G37*
%TO.C,R66*%
X34746359Y-11720000D02*
X35053641Y-11720000D01*
X34746359Y-12480000D02*
X35053641Y-12480000D01*
%TO.C,C11*%
X14140000Y-2207836D02*
X14140000Y-1992164D01*
X14860000Y-2207836D02*
X14860000Y-1992164D01*
%TO.C,R16*%
X62520000Y-3653641D02*
X62520000Y-3346359D01*
X63280000Y-3653641D02*
X63280000Y-3346359D01*
%TO.C,C22*%
X-3280000Y-10140580D02*
X-3280000Y-9859420D01*
X-2260000Y-10140580D02*
X-2260000Y-9859420D01*
%TO.C,R59*%
X33453641Y-15280000D02*
X33146359Y-15280000D01*
X33453641Y-14520000D02*
X33146359Y-14520000D01*
%TO.C,Q2*%
X-20900000Y-24797500D02*
X-20250000Y-24797500D01*
X-20900000Y-24797500D02*
X-21550000Y-24797500D01*
X-20900000Y-21677500D02*
X-20250000Y-21677500D01*
X-20900000Y-21677500D02*
X-21550000Y-21677500D01*
X-19737500Y-21727500D02*
X-19977500Y-21397500D01*
X-19497500Y-21397500D01*
X-19737500Y-21727500D01*
G36*
X-19737500Y-21727500D02*
G01*
X-19977500Y-21397500D01*
X-19497500Y-21397500D01*
X-19737500Y-21727500D01*
G37*
%TO.C,R57*%
X38146359Y-10220000D02*
X38453641Y-10220000D01*
X38146359Y-10980000D02*
X38453641Y-10980000D01*
%TO.C,R45*%
X6846359Y-320000D02*
X7153641Y-320000D01*
X6846359Y-1080000D02*
X7153641Y-1080000D01*
%TO.C,R10*%
X-20128641Y-25082500D02*
X-19821359Y-25082500D01*
X-20128641Y-25842500D02*
X-19821359Y-25842500D01*
%TO.C,U3*%
X8740000Y-4900000D02*
X8740000Y-6850000D01*
X8740000Y-4900000D02*
X8740000Y-2950000D01*
X13860000Y-4900000D02*
X13860000Y-6850000D01*
X13860000Y-4900000D02*
X13860000Y-2950000D01*
X14095000Y-7840000D02*
X13765000Y-7600000D01*
X14095000Y-7360000D01*
X14095000Y-7840000D01*
G36*
X14095000Y-7840000D02*
G01*
X13765000Y-7600000D01*
X14095000Y-7360000D01*
X14095000Y-7840000D01*
G37*
%TO.C,R27*%
X-6820000Y-11246359D02*
X-6820000Y-11553641D01*
X-7580000Y-11246359D02*
X-7580000Y-11553641D01*
%TO.C,R77*%
X71272500Y-21687742D02*
X71272500Y-22162258D01*
X70227500Y-21687742D02*
X70227500Y-22162258D01*
%TO.C,R47*%
X4946359Y-320000D02*
X5253641Y-320000D01*
X4946359Y-1080000D02*
X5253641Y-1080000D01*
%TO.C,R75*%
X73145276Y-5877500D02*
X73654724Y-5877500D01*
X73145276Y-6922500D02*
X73654724Y-6922500D01*
%TO.C,Q15*%
X32350000Y-26100000D02*
X33000000Y-26100000D01*
X32350000Y-26100000D02*
X31700000Y-26100000D01*
X32350000Y-22980000D02*
X33000000Y-22980000D01*
X32350000Y-22980000D02*
X31700000Y-22980000D01*
X33512500Y-23030000D02*
X33272500Y-22700000D01*
X33752500Y-22700000D01*
X33512500Y-23030000D01*
G36*
X33512500Y-23030000D02*
G01*
X33272500Y-22700000D01*
X33752500Y-22700000D01*
X33512500Y-23030000D01*
G37*
%TO.C,R15*%
X-18880000Y-18753641D02*
X-18880000Y-18446359D01*
X-18120000Y-18753641D02*
X-18120000Y-18446359D01*
%TO.C,R44*%
X3046359Y-320000D02*
X3353641Y-320000D01*
X3046359Y-1080000D02*
X3353641Y-1080000D01*
%TO.C,R52*%
X2320000Y-2403641D02*
X2320000Y-2096359D01*
X3080000Y-2403641D02*
X3080000Y-2096359D01*
%TO.C,C32*%
X-18088748Y-13335000D02*
X-18611252Y-13335000D01*
X-18088748Y-11865000D02*
X-18611252Y-11865000D01*
%TO.C,R26*%
X-4830000Y-9396359D02*
X-4830000Y-9703641D01*
X-5590000Y-9396359D02*
X-5590000Y-9703641D01*
%TO.C,Q1*%
X-17570000Y-16685000D02*
X-17570000Y-14535000D01*
X-14350000Y-16135000D02*
X-14350000Y-14535000D01*
X-16660000Y-14535000D02*
X-17570000Y-14535000D01*
X-14350000Y-14535000D02*
X-15260000Y-14535000D01*
X-14070000Y-16875000D02*
X-14400000Y-16635000D01*
X-14070000Y-16395000D01*
X-14070000Y-16875000D01*
G36*
X-14070000Y-16875000D02*
G01*
X-14400000Y-16635000D01*
X-14070000Y-16395000D01*
X-14070000Y-16875000D01*
G37*
%TO.C,C4*%
X21140580Y-18860000D02*
X20859420Y-18860000D01*
X21140580Y-17840000D02*
X20859420Y-17840000D01*
%TO.C,R2*%
X13296359Y-9120000D02*
X13603641Y-9120000D01*
X13296359Y-9880000D02*
X13603641Y-9880000D01*
%TO.C,J4*%
X74580000Y-34035000D02*
X74580000Y-32330000D01*
X74580000Y-28400000D02*
X74580000Y-30320000D01*
X65420000Y-34035000D02*
X74580000Y-34035000D01*
X65420000Y-32330000D02*
X65420000Y-34035000D01*
X65420000Y-30320000D02*
X65420000Y-28400000D01*
%TO.C,C6*%
X3174999Y-28242164D02*
X3174999Y-28457836D01*
X2454999Y-28242164D02*
X2454999Y-28457836D01*
%TO.C,C20*%
X1407836Y-1060000D02*
X1192164Y-1060000D01*
X1407836Y-340000D02*
X1192164Y-340000D01*
%TO.C,D1*%
X29051190Y-15600000D02*
X25791190Y-15600000D01*
X29051190Y-13900000D02*
X29051190Y-15600000D01*
X29051190Y-13900000D02*
X25791190Y-13900000D01*
%TO.C,R23*%
X-6380000Y-41403641D02*
X-6380000Y-41096359D01*
X-5620000Y-41403641D02*
X-5620000Y-41096359D01*
%TO.C,Q4*%
X-22260000Y-19600000D02*
X-22260000Y-20250000D01*
X-22260000Y-19600000D02*
X-22260000Y-18950000D01*
X-19140000Y-19600000D02*
X-19140000Y-20250000D01*
X-19140000Y-19600000D02*
X-19140000Y-18950000D01*
X-18860000Y-21002500D02*
X-19190000Y-20762500D01*
X-18860000Y-20522500D01*
X-18860000Y-21002500D01*
G36*
X-18860000Y-21002500D02*
G01*
X-19190000Y-20762500D01*
X-18860000Y-20522500D01*
X-18860000Y-21002500D01*
G37*
%TO.C,R78*%
X69480000Y-24271359D02*
X69480000Y-24578641D01*
X68720000Y-24271359D02*
X68720000Y-24578641D01*
%TO.C,Q3*%
X-11225000Y-17110000D02*
X-13375000Y-17110000D01*
X-11775000Y-13890000D02*
X-13375000Y-13890000D01*
X-13375000Y-16200000D02*
X-13375000Y-17110000D01*
X-13375000Y-13890000D02*
X-13375000Y-14800000D01*
X-11275000Y-13940000D02*
X-11515000Y-13610000D01*
X-11035000Y-13610000D01*
X-11275000Y-13940000D01*
G36*
X-11275000Y-13940000D02*
G01*
X-11515000Y-13610000D01*
X-11035000Y-13610000D01*
X-11275000Y-13940000D01*
G37*
%TO.C,C38*%
X71740000Y-22065580D02*
X71740000Y-21784420D01*
X72760000Y-22065580D02*
X72760000Y-21784420D01*
%TO.C,R25*%
X-7580000Y-13353641D02*
X-7580000Y-13046359D01*
X-6820000Y-13353641D02*
X-6820000Y-13046359D01*
%TO.C,R67*%
X19173641Y-54742382D02*
X18866359Y-54742382D01*
X19173641Y-53982382D02*
X18866359Y-53982382D01*
%TO.C,R79*%
X72003641Y-24355000D02*
X71696359Y-24355000D01*
X72003641Y-23595000D02*
X71696359Y-23595000D01*
%TO.C,C41*%
X14840000Y-9107836D02*
X14840000Y-8892164D01*
X15560000Y-9107836D02*
X15560000Y-8892164D01*
%TO.C,R50*%
X-6446359Y-9380000D02*
X-6753641Y-9380000D01*
X-6446359Y-8620000D02*
X-6753641Y-8620000D01*
%TO.C,R32*%
X-922500Y-16137258D02*
X-922500Y-15662742D01*
X122500Y-16137258D02*
X122500Y-15662742D01*
%TO.C,U8*%
X16210000Y-25810000D02*
X16210000Y-25110000D01*
X16210000Y-11590000D02*
X16210000Y-12290000D01*
X15510000Y-25810000D02*
X16210000Y-25810000D01*
X15510000Y-11590000D02*
X16210000Y-11590000D01*
X2690000Y-25810000D02*
X1990000Y-25810000D01*
X2690000Y-11590000D02*
X1990000Y-11590000D01*
X1990000Y-25810000D02*
X1990000Y-25110000D01*
X1990000Y-11590000D02*
X1990000Y-12290000D01*
X16837500Y-12290000D02*
X16497500Y-11820000D01*
X17177500Y-11820000D01*
X16837500Y-12290000D01*
G36*
X16837500Y-12290000D02*
G01*
X16497500Y-11820000D01*
X17177500Y-11820000D01*
X16837500Y-12290000D01*
G37*
%TO.C,R3*%
X-15720000Y-12366359D02*
X-15720000Y-12673641D01*
X-16480000Y-12366359D02*
X-16480000Y-12673641D01*
%TO.C,R14*%
X85253641Y-23680000D02*
X84946359Y-23680000D01*
X85253641Y-22920000D02*
X84946359Y-22920000D01*
%TO.C,C29*%
X-5257836Y-22790000D02*
X-5042164Y-22790000D01*
X-5257836Y-23510000D02*
X-5042164Y-23510000D01*
%TO.C,R41*%
X-7837258Y-22327500D02*
X-7362742Y-22327500D01*
X-7837258Y-23372500D02*
X-7362742Y-23372500D01*
%TO.C,R53*%
X-8953641Y-320000D02*
X-8646359Y-320000D01*
X-8953641Y-1080000D02*
X-8646359Y-1080000D01*
%TO.C,R62*%
X33453641Y-17280000D02*
X33146359Y-17280000D01*
X33453641Y-16520000D02*
X33146359Y-16520000D01*
%TO.C,R19*%
X72620000Y-3653641D02*
X72620000Y-3346359D01*
X73380000Y-3653641D02*
X73380000Y-3346359D01*
%TO.C,C31*%
X-492164Y-14260000D02*
X-707836Y-14260000D01*
X-492164Y-13540000D02*
X-707836Y-13540000D01*
%TO.C,D6*%
X-8340000Y-19000000D02*
X-11600000Y-19000000D01*
X-8340000Y-17300000D02*
X-8340000Y-19000000D01*
X-8340000Y-17300000D02*
X-11600000Y-17300000D01*
%TO.C,R28*%
X-13530000Y-3953641D02*
X-13530000Y-3646359D01*
X-12770000Y-3953641D02*
X-12770000Y-3646359D01*
%TO.C,C28*%
X23010000Y-37892164D02*
X23010000Y-38107836D01*
X22290000Y-37892164D02*
X22290000Y-38107836D01*
%TO.C,Q17*%
X-14655000Y-10370000D02*
X-12505000Y-10370000D01*
X-14105000Y-13590000D02*
X-12505000Y-13590000D01*
X-12505000Y-11280000D02*
X-12505000Y-10370000D01*
X-12505000Y-13590000D02*
X-12505000Y-12680000D01*
X-14365000Y-13870000D02*
X-14845000Y-13870000D01*
X-14605000Y-13540000D01*
X-14365000Y-13870000D01*
G36*
X-14365000Y-13870000D02*
G01*
X-14845000Y-13870000D01*
X-14605000Y-13540000D01*
X-14365000Y-13870000D01*
G37*
%TO.C,Q11*%
X-8575000Y-13590000D02*
X-10725000Y-13590000D01*
X-9125000Y-10370000D02*
X-10725000Y-10370000D01*
X-10725000Y-12680000D02*
X-10725000Y-13590000D01*
X-10725000Y-10370000D02*
X-10725000Y-11280000D01*
X-8625000Y-10420000D02*
X-8865000Y-10090000D01*
X-8385000Y-10090000D01*
X-8625000Y-10420000D01*
G36*
X-8625000Y-10420000D02*
G01*
X-8865000Y-10090000D01*
X-8385000Y-10090000D01*
X-8625000Y-10420000D01*
G37*
%TO.C,R46*%
X12546359Y-320000D02*
X12853641Y-320000D01*
X12546359Y-1080000D02*
X12853641Y-1080000D01*
%TO.C,Q12*%
X-14010000Y-8300000D02*
X-14010000Y-8950000D01*
X-14010000Y-8300000D02*
X-14010000Y-7650000D01*
X-10890000Y-8300000D02*
X-10890000Y-8950000D01*
X-10890000Y-8300000D02*
X-10890000Y-7650000D01*
X-10610000Y-9702500D02*
X-10940000Y-9462500D01*
X-10610000Y-9222500D01*
X-10610000Y-9702500D01*
G36*
X-10610000Y-9702500D02*
G01*
X-10940000Y-9462500D01*
X-10610000Y-9222500D01*
X-10610000Y-9702500D01*
G37*
%TO.C,R61*%
X8446359Y-39320000D02*
X8753641Y-39320000D01*
X8446359Y-40080000D02*
X8753641Y-40080000D01*
%TO.C,C15*%
X-5360000Y-41357836D02*
X-5360000Y-41142164D01*
X-4640000Y-41357836D02*
X-4640000Y-41142164D01*
%TO.C,R63*%
X33453641Y-18280000D02*
X33146359Y-18280000D01*
X33453641Y-17520000D02*
X33146359Y-17520000D01*
D12*
%TO.C,U10*%
X68875000Y-14225000D02*
X67765000Y-14225000D01*
X68875000Y-14225000D02*
X68875000Y-18375000D01*
X61035000Y-14225000D02*
X59925000Y-14225000D01*
X59925000Y-14225000D02*
X59925000Y-18375000D01*
X68875000Y-18375000D02*
X67765000Y-18375000D01*
X59925000Y-18375000D02*
X61035000Y-18375000D01*
D11*
X61035000Y-13662500D02*
X60705000Y-13902500D01*
X60705000Y-13422500D01*
X61035000Y-13662500D01*
G36*
X61035000Y-13662500D02*
G01*
X60705000Y-13902500D01*
X60705000Y-13422500D01*
X61035000Y-13662500D01*
G37*
%TO.C,D5*%
X-8550000Y-5515000D02*
X-8550000Y-9525000D01*
X-10550000Y-5515000D02*
X-8550000Y-5515000D01*
X-10550000Y-5515000D02*
X-10550000Y-9525000D01*
%TO.C,R12*%
X85253641Y-21680000D02*
X84946359Y-21680000D01*
X85253641Y-20920000D02*
X84946359Y-20920000D01*
%TO.C,C33*%
X-22510000Y-6007836D02*
X-22510000Y-5792164D01*
X-21790000Y-6007836D02*
X-21790000Y-5792164D01*
%TO.C,R72*%
X-19329693Y-3380001D02*
X-19636975Y-3380001D01*
X-19329693Y-2620001D02*
X-19636975Y-2620001D01*
%TO.C,C7*%
X-492164Y-12760000D02*
X-707836Y-12760000D01*
X-492164Y-12040000D02*
X-707836Y-12040000D01*
%TO.C,R4*%
X9337258Y-9772500D02*
X8862742Y-9772500D01*
X9337258Y-8727500D02*
X8862742Y-8727500D01*
%TO.C,R17*%
X50353641Y7520000D02*
X50046359Y7520000D01*
X50353641Y8280000D02*
X50046359Y8280000D01*
%TO.C,R29*%
X50453641Y5670000D02*
X50146359Y5670000D01*
X50453641Y6430000D02*
X50146359Y6430000D01*
%TO.C,Q18*%
X-17890000Y-15712500D02*
X-17890000Y-15062500D01*
X-17890000Y-15712500D02*
X-17890000Y-16362500D01*
X-21010000Y-15712500D02*
X-21010000Y-15062500D01*
X-21010000Y-15712500D02*
X-21010000Y-16362500D01*
X-20960000Y-14550000D02*
X-21290000Y-14790000D01*
X-21290000Y-14310000D01*
X-20960000Y-14550000D01*
G36*
X-20960000Y-14550000D02*
G01*
X-21290000Y-14790000D01*
X-21290000Y-14310000D01*
X-20960000Y-14550000D01*
G37*
%TO.C,J3*%
X56430000Y-30105000D02*
X55607530Y-30105000D01*
X56430000Y-18740000D02*
X56430000Y-30105000D01*
X56430000Y-18740000D02*
X55863471Y-18740000D01*
X56430000Y-17980000D02*
X56430000Y-17220000D01*
X56430000Y-17220000D02*
X55300000Y-17220000D01*
X54992470Y-30105000D02*
X54337530Y-30105000D01*
X54736529Y-18740000D02*
X54593471Y-18740000D01*
X54540000Y-18686529D02*
X54540000Y-18543471D01*
X54540000Y-17416529D02*
X54540000Y-17285000D01*
X54540000Y-17285000D02*
X54337530Y-17285000D01*
X53722470Y-30105000D02*
X52900000Y-30105000D01*
X53722470Y-17285000D02*
X52900000Y-17285000D01*
X52900000Y-17285000D02*
X52900000Y-30105000D01*
%TO.C,C35*%
X67507836Y-7060000D02*
X67292164Y-7060000D01*
X67507836Y-6340000D02*
X67292164Y-6340000D01*
%TO.C,R13*%
X85253641Y-22680000D02*
X84946359Y-22680000D01*
X85253641Y-21920000D02*
X84946359Y-21920000D01*
%TO.C,R55*%
X-753641Y-320000D02*
X-446359Y-320000D01*
X-753641Y-1080000D02*
X-446359Y-1080000D01*
%TO.C,R37*%
X22270000Y-41853641D02*
X22270000Y-41546359D01*
X23030000Y-41853641D02*
X23030000Y-41546359D01*
%TO.C,D3*%
X-8550000Y-13690000D02*
X-8550000Y-16950000D01*
X-10250000Y-13690000D02*
X-8550000Y-13690000D01*
X-10250000Y-13690000D02*
X-10250000Y-16950000D01*
%TO.C,R24*%
X-21756359Y-44860000D02*
X-22063641Y-44860000D01*
X-21756359Y-44100000D02*
X-22063641Y-44100000D01*
%TO.C,Q13*%
X17310000Y-6000000D02*
X17310000Y-5350000D01*
X17310000Y-6000000D02*
X17310000Y-6650000D01*
X14190000Y-6000000D02*
X14190000Y-5350000D01*
X14190000Y-6000000D02*
X14190000Y-6650000D01*
X14240000Y-4837500D02*
X13910000Y-5077500D01*
X13910000Y-4597500D01*
X14240000Y-4837500D01*
G36*
X14240000Y-4837500D02*
G01*
X13910000Y-5077500D01*
X13910000Y-4597500D01*
X14240000Y-4837500D01*
G37*
%TO.C,R74*%
X69845276Y-5877500D02*
X70354724Y-5877500D01*
X69845276Y-6922500D02*
X70354724Y-6922500D01*
%TO.C,C34*%
X84460000Y-3392164D02*
X84460000Y-3607836D01*
X83740000Y-3392164D02*
X83740000Y-3607836D01*
%TO.C,R34*%
X-23646359Y-22480000D02*
X-23953641Y-22480000D01*
X-23646359Y-21720000D02*
X-23953641Y-21720000D01*
%TO.C,Q14*%
X2460000Y-10500000D02*
X2460000Y-9850000D01*
X2460000Y-10500000D02*
X2460000Y-11150000D01*
X-660000Y-10500000D02*
X-660000Y-9850000D01*
X-660000Y-10500000D02*
X-660000Y-11150000D01*
X-610000Y-9337500D02*
X-940000Y-9577500D01*
X-940000Y-9097500D01*
X-610000Y-9337500D01*
G36*
X-610000Y-9337500D02*
G01*
X-940000Y-9577500D01*
X-940000Y-9097500D01*
X-610000Y-9337500D01*
G37*
%TO.C,C2*%
X28307836Y-19910000D02*
X28092164Y-19910000D01*
X28307836Y-19190000D02*
X28092164Y-19190000D01*
%TO.C,C40*%
X65340000Y-20807836D02*
X65340000Y-20592164D01*
X66060000Y-20807836D02*
X66060000Y-20592164D01*
%TO.C,R42*%
X10646359Y-320000D02*
X10953641Y-320000D01*
X10646359Y-1080000D02*
X10953641Y-1080000D01*
%TO.C,C37*%
X66663748Y-23665000D02*
X67186252Y-23665000D01*
X66663748Y-25135000D02*
X67186252Y-25135000D01*
%TO.C,R64*%
X35180000Y-24336359D02*
X35180000Y-24643641D01*
X34420000Y-24336359D02*
X34420000Y-24643641D01*
%TO.C,C36*%
X65110000Y-20592164D02*
X65110000Y-20807836D01*
X64390000Y-20592164D02*
X64390000Y-20807836D01*
%TO.C,R40*%
X24893641Y-35380000D02*
X24586359Y-35380000D01*
X24893641Y-34620000D02*
X24586359Y-34620000D01*
%TO.C,R48*%
X-1972500Y-10237258D02*
X-1972500Y-9762742D01*
X-927500Y-10237258D02*
X-927500Y-9762742D01*
%TO.C,R73*%
X82720000Y-3653641D02*
X82720000Y-3346359D01*
X83480000Y-3653641D02*
X83480000Y-3346359D01*
%TO.C,R21*%
X-4380000Y-41403641D02*
X-4380000Y-41096359D01*
X-3620000Y-41403641D02*
X-3620000Y-41096359D01*
%TO.C,R5*%
X11396359Y-8720000D02*
X11703641Y-8720000D01*
X11396359Y-9480000D02*
X11703641Y-9480000D01*
%TO.C,R11*%
X-21721359Y-25842500D02*
X-22028641Y-25842500D01*
X-21721359Y-25082500D02*
X-22028641Y-25082500D01*
%TO.C,R8*%
X-13196359Y-17980000D02*
X-13503641Y-17980000D01*
X-13196359Y-17220000D02*
X-13503641Y-17220000D01*
%TO.C,R43*%
X14446359Y-320000D02*
X14753641Y-320000D01*
X14446359Y-1080000D02*
X14753641Y-1080000D01*
%TO.C,C39*%
X67240000Y-22065580D02*
X67240000Y-21784420D01*
X68260000Y-22065580D02*
X68260000Y-21784420D01*
%TO.C,C23*%
X-3042164Y-1060000D02*
X-3257836Y-1060000D01*
X-3042164Y-340000D02*
X-3257836Y-340000D01*
%TO.C,R1*%
X27053641Y-12930000D02*
X26746359Y-12930000D01*
X27053641Y-12170000D02*
X26746359Y-12170000D01*
%TO.C,C25*%
X19159420Y-24240000D02*
X19440580Y-24240000D01*
X19159420Y-25260000D02*
X19440580Y-25260000D01*
%TO.C,C10*%
X-18088748Y-11435000D02*
X-18611252Y-11435000D01*
X-18088748Y-9965000D02*
X-18611252Y-9965000D01*
%TO.C,R69*%
X-20329692Y-4480001D02*
X-20636974Y-4480001D01*
X-20329692Y-3720001D02*
X-20636974Y-3720001D01*
%TO.C,R51*%
X2320000Y-4303641D02*
X2320000Y-3996359D01*
X3080000Y-4303641D02*
X3080000Y-3996359D01*
%TO.C,C13*%
X-13709420Y-19210000D02*
X-13990580Y-19210000D01*
X-13709420Y-18190000D02*
X-13990580Y-18190000D01*
%TO.C,C16*%
X-7657836Y-14140000D02*
X-7442164Y-14140000D01*
X-7657836Y-14860000D02*
X-7442164Y-14860000D01*
%TO.C,C18*%
X9007836Y-1060000D02*
X8792164Y-1060000D01*
X9007836Y-340000D02*
X8792164Y-340000D01*
%TO.C,R65*%
X34746359Y-8720000D02*
X35053641Y-8720000D01*
X34746359Y-9480000D02*
X35053641Y-9480000D01*
%TO.C,R7*%
X85253641Y-20680000D02*
X84946359Y-20680000D01*
X85253641Y-19920000D02*
X84946359Y-19920000D01*
%TO.C,R22*%
X-21756359Y-40880000D02*
X-22063641Y-40880000D01*
X-21756359Y-40120000D02*
X-22063641Y-40120000D01*
%TO.C,R20*%
X-8380000Y-9653641D02*
X-8380000Y-9346359D01*
X-7620000Y-9653641D02*
X-7620000Y-9346359D01*
%TO.C,R58*%
X38146359Y-11720000D02*
X38453641Y-11720000D01*
X38146359Y-12480000D02*
X38453641Y-12480000D01*
%TO.C,C1*%
X14925714Y-28292164D02*
X14925714Y-28507836D01*
X14205714Y-28292164D02*
X14205714Y-28507836D01*
%TO.C,R76*%
X69772500Y-21687742D02*
X69772500Y-22162258D01*
X68727500Y-21687742D02*
X68727500Y-22162258D01*
%TO.C,D4*%
X-10450000Y-5410000D02*
X-10450000Y-2150000D01*
X-8750000Y-5410000D02*
X-10450000Y-5410000D01*
X-8750000Y-5410000D02*
X-8750000Y-2150000D01*
%TO.C,U6*%
X-8460000Y-4900000D02*
X-8460000Y-6850000D01*
X-8460000Y-4900000D02*
X-8460000Y-2950000D01*
X-3340000Y-4900000D02*
X-3340000Y-6850000D01*
X-3340000Y-4900000D02*
X-3340000Y-2950000D01*
X-3105000Y-7840000D02*
X-3435000Y-7600000D01*
X-3105000Y-7360000D01*
X-3105000Y-7840000D01*
G36*
X-3105000Y-7840000D02*
G01*
X-3435000Y-7600000D01*
X-3105000Y-7360000D01*
X-3105000Y-7840000D01*
G37*
%TO.C,C17*%
X-5692164Y-22660000D02*
X-5907836Y-22660000D01*
X-5692164Y-21940000D02*
X-5907836Y-21940000D01*
%TO.C,R49*%
X3080000Y-5896359D02*
X3080000Y-6203641D01*
X2320000Y-5896359D02*
X2320000Y-6203641D01*
%TO.C,C3*%
X18692164Y-16190000D02*
X18907836Y-16190000D01*
X18692164Y-16910000D02*
X18907836Y-16910000D01*
%TO.C,R39*%
X24903641Y-33880000D02*
X24596359Y-33880000D01*
X24903641Y-33120000D02*
X24596359Y-33120000D01*
%TO.C,R35*%
X-23646359Y-23430000D02*
X-23953641Y-23430000D01*
X-23646359Y-22670000D02*
X-23953641Y-22670000D01*
%TO.C,Y1*%
X19600000Y-19150000D02*
X23600000Y-19150000D01*
X19600000Y-22450000D02*
X19600000Y-19150000D01*
%TO.C,R31*%
X-1727500Y-12562742D02*
X-1727500Y-13037258D01*
X-2772500Y-12562742D02*
X-2772500Y-13037258D01*
%TO.C,R60*%
X33453641Y-16280000D02*
X33146359Y-16280000D01*
X33453641Y-15520000D02*
X33146359Y-15520000D01*
%TO.C,R68*%
X35053641Y-10980000D02*
X34746359Y-10980000D01*
X35053641Y-10220000D02*
X34746359Y-10220000D01*
%TO.C,Q16*%
X17410000Y-51932500D02*
X17410000Y-52582500D01*
X17410000Y-51932500D02*
X17410000Y-51282500D01*
X20530000Y-51932500D02*
X20530000Y-52582500D01*
X20530000Y-51932500D02*
X20530000Y-51282500D01*
X20810000Y-53335000D02*
X20480000Y-53095000D01*
X20810000Y-52855000D01*
X20810000Y-53335000D01*
G36*
X20810000Y-53335000D02*
G01*
X20480000Y-53095000D01*
X20810000Y-52855000D01*
X20810000Y-53335000D01*
G37*
%TO.C,R36*%
X5453641Y-9480000D02*
X5146359Y-9480000D01*
X5453641Y-8720000D02*
X5146359Y-8720000D01*
%TO.C,C27*%
X17990000Y-22907836D02*
X17990000Y-22692164D01*
X18710000Y-22907836D02*
X18710000Y-22692164D01*
%TO.C,C9*%
X-15760000Y-4611252D02*
X-15760000Y-3188748D01*
X-13940000Y-4611252D02*
X-13940000Y-3188748D01*
%TO.C,C5*%
X21340580Y-23760000D02*
X21059420Y-23760000D01*
X21340580Y-22740000D02*
X21059420Y-22740000D01*
%TO.C,R30*%
X-3577500Y-9762742D02*
X-3577500Y-10237258D01*
X-4622500Y-9762742D02*
X-4622500Y-10237258D01*
%TO.C,Q10*%
X-4800000Y-11640000D02*
X-5450000Y-11640000D01*
X-4800000Y-11640000D02*
X-4150000Y-11640000D01*
X-4800000Y-14760000D02*
X-5450000Y-14760000D01*
X-4800000Y-14760000D02*
X-4150000Y-14760000D01*
X-5722500Y-15040000D02*
X-6202500Y-15040000D01*
X-5962500Y-14710000D01*
X-5722500Y-15040000D01*
G36*
X-5722500Y-15040000D02*
G01*
X-6202500Y-15040000D01*
X-5962500Y-14710000D01*
X-5722500Y-15040000D01*
G37*
%TO.C,R38*%
X23270000Y-38253641D02*
X23270000Y-37946359D01*
X24030000Y-38253641D02*
X24030000Y-37946359D01*
%TO.C,C30*%
X4475000Y-28242164D02*
X4475000Y-28457836D01*
X3755000Y-28242164D02*
X3755000Y-28457836D01*
D12*
%TO.C,U1*%
X-16674999Y-9724999D02*
X-16674999Y-9574999D01*
X-16674999Y-9724999D02*
X-20875001Y-9724999D01*
X-16674999Y-4725499D02*
X-16674999Y-4700000D01*
X-16674999Y-4700000D02*
X-17725000Y-4700000D01*
X-19825000Y-4700000D02*
X-20875001Y-4700000D01*
X-20875001Y-9724999D02*
X-20875001Y-9574999D01*
X-20875001Y-4725499D02*
X-20875001Y-4700000D01*
D13*
X-15649999Y-5338000D02*
G75*
G03*
X-15900001Y-5338000I-125001J0D01*
G01*
X-15900001Y-5338000D02*
G75*
G03*
X-15649999Y-5338000I125001J0D01*
G01*
D11*
%TO.C,C14*%
X74360000Y-3392164D02*
X74360000Y-3607836D01*
X73640000Y-3392164D02*
X73640000Y-3607836D01*
%TO.C,R6*%
X-18880000Y-20653641D02*
X-18880000Y-20346359D01*
X-18120000Y-20653641D02*
X-18120000Y-20346359D01*
%TO.C,Q8*%
X-4500000Y-40110000D02*
X-3850000Y-40110000D01*
X-4500000Y-40110000D02*
X-5150000Y-40110000D01*
X-4500000Y-36990000D02*
X-3850000Y-36990000D01*
X-4500000Y-36990000D02*
X-5150000Y-36990000D01*
X-3337500Y-37040000D02*
X-3577500Y-36710000D01*
X-3097500Y-36710000D01*
X-3337500Y-37040000D01*
G36*
X-3337500Y-37040000D02*
G01*
X-3577500Y-36710000D01*
X-3097500Y-36710000D01*
X-3337500Y-37040000D01*
G37*
%TO.C,U4*%
X3340000Y-4900000D02*
X3340000Y-6850000D01*
X3340000Y-4900000D02*
X3340000Y-2950000D01*
X8460000Y-4900000D02*
X8460000Y-6850000D01*
X8460000Y-4900000D02*
X8460000Y-2950000D01*
X8695000Y-7840000D02*
X8365000Y-7600000D01*
X8695000Y-7360000D01*
X8695000Y-7840000D01*
G36*
X8695000Y-7840000D02*
G01*
X8365000Y-7600000D01*
X8695000Y-7360000D01*
X8695000Y-7840000D01*
G37*
%TO.C,C8*%
X18692164Y-17190000D02*
X18907836Y-17190000D01*
X18692164Y-17910000D02*
X18907836Y-17910000D01*
%TO.C,R33*%
X-23646359Y-21530000D02*
X-23953641Y-21530000D01*
X-23646359Y-20770000D02*
X-23953641Y-20770000D01*
%TO.C,R9*%
X-16480000Y-10853641D02*
X-16480000Y-10546359D01*
X-15720000Y-10853641D02*
X-15720000Y-10546359D01*
%TO.C,R70*%
X-17136974Y-3720001D02*
X-16829692Y-3720001D01*
X-17136974Y-4480001D02*
X-16829692Y-4480001D01*
%TO.C,D17*%
X-14250000Y-6090000D02*
X-14250000Y-9350000D01*
X-15950000Y-6090000D02*
X-14250000Y-6090000D01*
X-15950000Y-6090000D02*
X-15950000Y-9350000D01*
%TO.C,L1*%
X-12037221Y-6010000D02*
X-12362779Y-6010000D01*
X-12037221Y-4990000D02*
X-12362779Y-4990000D01*
%TO.C,R54*%
X-5153641Y-320000D02*
X-4846359Y-320000D01*
X-5153641Y-1080000D02*
X-4846359Y-1080000D01*
%TO.C,R71*%
X-5953641Y-10620000D02*
X-5646359Y-10620000D01*
X-5953641Y-11380000D02*
X-5646359Y-11380000D01*
%TO.C,J1*%
X20435000Y-15610000D02*
X19632530Y-15610000D01*
X20435000Y-4245000D02*
X20435000Y-15610000D01*
X20435000Y-4245000D02*
X19888471Y-4245000D01*
X20435000Y-3485000D02*
X20435000Y-2725000D01*
X20435000Y-2725000D02*
X19325000Y-2725000D01*
X19017470Y-15610000D02*
X18215000Y-15610000D01*
X18761529Y-4245000D02*
X18215000Y-4245000D01*
X18215000Y-4245000D02*
X18215000Y-15610000D01*
%TO.C,U5*%
X-3060000Y-4900000D02*
X-3060000Y-6850000D01*
X-3060000Y-4900000D02*
X-3060000Y-2950000D01*
X2060000Y-4900000D02*
X2060000Y-6850000D01*
X2060000Y-4900000D02*
X2060000Y-2950000D01*
X2295000Y-7840000D02*
X1965000Y-7600000D01*
X2295000Y-7360000D01*
X2295000Y-7840000D01*
G36*
X2295000Y-7840000D02*
G01*
X1965000Y-7600000D01*
X2295000Y-7360000D01*
X2295000Y-7840000D01*
G37*
%TO.C,R18*%
X-6753641Y-9670000D02*
X-6446359Y-9670000D01*
X-6753641Y-10430000D02*
X-6446359Y-10430000D01*
%TO.C,C12*%
X64260000Y-3392164D02*
X64260000Y-3607836D01*
X63540000Y-3392164D02*
X63540000Y-3607836D01*
%TD*%
%LPC*%
%TO.C,U1*%
G36*
X-16275000Y-6800000D02*
G01*
X-17925000Y-6800000D01*
X-17925000Y-6500000D01*
X-16275000Y-6500000D01*
X-16275000Y-6800000D01*
G37*
G36*
X-16275000Y-6300000D02*
G01*
X-17925000Y-6300000D01*
X-17925000Y-6000000D01*
X-16275000Y-6000000D01*
X-16275000Y-6300000D01*
G37*
G36*
X-16275000Y-5600000D02*
G01*
X-17925000Y-5600000D01*
X-17925000Y-5100000D01*
X-16275000Y-5100000D01*
X-16275000Y-5600000D01*
G37*
G36*
X-18125000Y-5700000D02*
G01*
X-18425000Y-5700000D01*
X-18425000Y-4300000D01*
X-18125000Y-4300000D01*
X-18125000Y-5700000D01*
G37*
G36*
X-19125000Y-5700000D02*
G01*
X-19425000Y-5700000D01*
X-19425000Y-4300000D01*
X-19125000Y-4300000D01*
X-19125000Y-5700000D01*
G37*
G36*
X-19625000Y-6800000D02*
G01*
X-21275000Y-6800000D01*
X-21275000Y-6500000D01*
X-19625000Y-6500000D01*
X-19625000Y-6800000D01*
G37*
G36*
X-19625000Y-6300000D02*
G01*
X-21275000Y-6300000D01*
X-21275000Y-6000000D01*
X-19625000Y-6000000D01*
X-19625000Y-6300000D01*
G37*
G36*
X-19625000Y-5600000D02*
G01*
X-21275000Y-5600000D01*
X-21275000Y-5100000D01*
X-19625000Y-5100000D01*
X-19625000Y-5600000D01*
G37*
G36*
X-18625000Y-6325501D02*
G01*
X-18675000Y-6375501D01*
X-18875000Y-6375501D01*
X-18925000Y-6325501D01*
X-18925000Y-4300000D01*
X-18625000Y-4300000D01*
X-18625000Y-6325501D01*
G37*
G36*
X-16350004Y-7324973D02*
G01*
X-16349999Y-9275000D01*
X-17250002Y-9325000D01*
X-18275004Y-9325000D01*
X-18325003Y-9274997D01*
X-18325001Y-7325001D01*
X-18275001Y-7275011D01*
X-17249999Y-7275001D01*
X-16350004Y-7324973D01*
G37*
G36*
X-19224999Y-7325001D02*
G01*
X-19224994Y-9275025D01*
X-19274997Y-9325028D01*
X-20299999Y-9325028D01*
X-21199998Y-9275025D01*
X-21199996Y-7325029D01*
X-20299996Y-7275039D01*
X-19274994Y-7275029D01*
X-19224999Y-7325001D01*
G37*
%TD*%
D14*
%TO.C,U2*%
X-10725000Y-21450000D03*
%TD*%
D15*
%TO.C,SW2*%
X-7897196Y-31522723D03*
D16*
X-10018875Y-28060285D03*
X-12865055Y-30956707D03*
%TD*%
D17*
%TO.C,U9*%
X66190000Y-8365000D03*
D18*
X68730000Y-8365000D03*
X71270000Y-8365000D03*
X73810000Y-8365000D03*
%TD*%
D19*
%TO.C,TP3*%
X-9600000Y-74900000D03*
%TD*%
D20*
%TO.C,J2*%
X-15900000Y-18270000D03*
D21*
X-17170000Y-18270000D03*
X-15900000Y-19540000D03*
X-17170000Y-19540000D03*
X-15900000Y-20810000D03*
X-17170000Y-20810000D03*
X-15900000Y-22080000D03*
X-17170000Y-22080000D03*
X-15900000Y-23350000D03*
X-17170000Y-23350000D03*
X-15900000Y-24620000D03*
X-17170000Y-24620000D03*
X-15900000Y-25890000D03*
X-17170000Y-25890000D03*
X-15900000Y-27160000D03*
X-17170000Y-27160000D03*
X-15900000Y-28430000D03*
X-17170000Y-28430000D03*
X-15900000Y-29700000D03*
X-17170000Y-29700000D03*
%TD*%
D19*
%TO.C,TP2*%
X-9600000Y-70850000D03*
%TD*%
%TO.C,TP1*%
X-9600000Y-66800000D03*
%TD*%
D22*
%TO.C,R56*%
X-7410000Y-700000D03*
X-6390000Y-700000D03*
%TD*%
D23*
%TO.C,U7*%
X-7250000Y-20800000D03*
X-7250000Y-18500000D03*
D24*
X-950000Y-18500000D03*
D23*
X-7250000Y-16200000D03*
%TD*%
D22*
%TO.C,R66*%
X34390000Y-12100000D03*
X35410000Y-12100000D03*
%TD*%
D25*
%TO.C,C11*%
X14500000Y-2580000D03*
X14500000Y-1620000D03*
%TD*%
D26*
%TO.C,R16*%
X62900000Y-4010000D03*
X62900000Y-2990000D03*
%TD*%
D27*
%TO.C,C22*%
X-2770000Y-10775000D03*
X-2770000Y-9225000D03*
%TD*%
D28*
%TO.C,R59*%
X33810000Y-14900000D03*
X32790000Y-14900000D03*
%TD*%
D29*
%TO.C,Q2*%
X-19962500Y-22287500D03*
X-19962500Y-24187500D03*
X-21837500Y-23237500D03*
%TD*%
D22*
%TO.C,R57*%
X37790000Y-10600000D03*
X38810000Y-10600000D03*
%TD*%
%TO.C,R45*%
X6490000Y-700000D03*
X7510000Y-700000D03*
%TD*%
%TO.C,R10*%
X-20485000Y-25462500D03*
X-19465000Y-25462500D03*
%TD*%
D30*
%TO.C,U3*%
X13205000Y-7525000D03*
X11935000Y-7525000D03*
X10665000Y-7525000D03*
X9395000Y-7525000D03*
X9395000Y-2275000D03*
X10665000Y-2275000D03*
X11935000Y-2275000D03*
X13205000Y-2275000D03*
%TD*%
D31*
%TO.C,R27*%
X-7200000Y-10890000D03*
X-7200000Y-11910000D03*
%TD*%
D32*
%TO.C,R77*%
X70750000Y-21100000D03*
X70750000Y-22750000D03*
%TD*%
D22*
%TO.C,R47*%
X4590000Y-700000D03*
X5610000Y-700000D03*
%TD*%
D33*
%TO.C,R75*%
X72487500Y-6400000D03*
X74312500Y-6400000D03*
%TD*%
D29*
%TO.C,Q15*%
X33287500Y-23590000D03*
X33287500Y-25490000D03*
X31412500Y-24540000D03*
%TD*%
D26*
%TO.C,R15*%
X-18500000Y-19110000D03*
X-18500000Y-18090000D03*
%TD*%
D22*
%TO.C,R44*%
X2690000Y-700000D03*
X3710000Y-700000D03*
%TD*%
D26*
%TO.C,R52*%
X2700000Y-2760000D03*
X2700000Y-1740000D03*
%TD*%
D34*
%TO.C,C32*%
X-17400000Y-12600000D03*
X-19300000Y-12600000D03*
%TD*%
D31*
%TO.C,R26*%
X-5210000Y-9040000D03*
X-5210000Y-10060000D03*
%TD*%
D35*
%TO.C,Q1*%
X-15010000Y-16810000D03*
X-16910000Y-16810000D03*
X-15960000Y-14410000D03*
%TD*%
D36*
%TO.C,C4*%
X21775000Y-18350000D03*
X20225000Y-18350000D03*
%TD*%
D22*
%TO.C,R2*%
X12940000Y-9500000D03*
X13960000Y-9500000D03*
%TD*%
D37*
%TO.C,J4*%
X72890000Y-27645000D03*
X67110000Y-27645000D03*
D38*
X73200000Y-26525000D03*
X72400000Y-26525000D03*
D39*
X71250000Y-26525000D03*
X70250000Y-26525000D03*
X69750000Y-26525000D03*
X68750000Y-26525000D03*
D38*
X67600000Y-26525000D03*
X66800000Y-26525000D03*
X66800000Y-26525000D03*
X67600000Y-26525000D03*
D39*
X68250000Y-26525000D03*
X69250000Y-26525000D03*
X70750000Y-26525000D03*
X71750000Y-26525000D03*
D38*
X72400000Y-26525000D03*
X73200000Y-26525000D03*
D40*
X74320000Y-31325000D03*
D41*
X74320000Y-27125000D03*
D40*
X65680000Y-31325000D03*
D41*
X65680000Y-27125000D03*
%TD*%
D42*
%TO.C,C6*%
X2814999Y-27870000D03*
X2814999Y-28830000D03*
%TD*%
D43*
%TO.C,C20*%
X1780000Y-700000D03*
X820000Y-700000D03*
%TD*%
D44*
%TO.C,D1*%
X28291190Y-14750000D03*
X25791190Y-14750000D03*
%TD*%
D26*
%TO.C,R23*%
X-6000000Y-41760000D03*
X-6000000Y-40740000D03*
%TD*%
D45*
%TO.C,Q4*%
X-19750000Y-20537500D03*
X-21650000Y-20537500D03*
X-20700000Y-18662500D03*
%TD*%
D31*
%TO.C,R78*%
X69100000Y-23915000D03*
X69100000Y-24935000D03*
%TD*%
D46*
%TO.C,Q3*%
X-11100000Y-14550000D03*
X-11100000Y-16450000D03*
X-13500000Y-15500000D03*
%TD*%
D27*
%TO.C,C38*%
X72250000Y-22700000D03*
X72250000Y-21150000D03*
%TD*%
D26*
%TO.C,R25*%
X-7200000Y-13710000D03*
X-7200000Y-12690000D03*
%TD*%
D28*
%TO.C,R67*%
X19530000Y-54362382D03*
X18510000Y-54362382D03*
%TD*%
%TO.C,R79*%
X72360000Y-23975000D03*
X71340000Y-23975000D03*
%TD*%
D25*
%TO.C,C41*%
X15200000Y-9480000D03*
X15200000Y-8520000D03*
%TD*%
D28*
%TO.C,R50*%
X-6090000Y-9000000D03*
X-7110000Y-9000000D03*
%TD*%
D47*
%TO.C,R32*%
X-400000Y-16725000D03*
X-400000Y-15075000D03*
%TD*%
D48*
%TO.C,U8*%
X16775000Y-12700000D03*
X16775000Y-13200000D03*
X16775000Y-13700000D03*
X16775000Y-14200000D03*
X16775000Y-14700000D03*
X16775000Y-15200000D03*
X16775000Y-15700000D03*
X16775000Y-16200000D03*
X16775000Y-16700000D03*
X16775000Y-17200000D03*
X16775000Y-17700000D03*
X16775000Y-18200000D03*
X16775000Y-18700000D03*
X16775000Y-19200000D03*
X16775000Y-19700000D03*
X16775000Y-20200000D03*
X16775000Y-20700000D03*
X16775000Y-21200000D03*
X16775000Y-21700000D03*
X16775000Y-22200000D03*
X16775000Y-22700000D03*
X16775000Y-23200000D03*
X16775000Y-23700000D03*
X16775000Y-24200000D03*
X16775000Y-24700000D03*
D49*
X15100000Y-26375000D03*
X14600000Y-26375000D03*
X14100000Y-26375000D03*
X13600000Y-26375000D03*
X13100000Y-26375000D03*
X12600000Y-26375000D03*
X12100000Y-26375000D03*
X11600000Y-26375000D03*
X11100000Y-26375000D03*
X10600000Y-26375000D03*
X10100000Y-26375000D03*
X9600000Y-26375000D03*
X9100000Y-26375000D03*
X8600000Y-26375000D03*
X8100000Y-26375000D03*
X7600000Y-26375000D03*
X7100000Y-26375000D03*
X6600000Y-26375000D03*
X6100000Y-26375000D03*
X5600000Y-26375000D03*
X5100000Y-26375000D03*
X4600000Y-26375000D03*
X4100000Y-26375000D03*
X3600000Y-26375000D03*
X3100000Y-26375000D03*
D48*
X1425000Y-24700000D03*
X1425000Y-24200000D03*
X1425000Y-23700000D03*
X1425000Y-23200000D03*
X1425000Y-22700000D03*
X1425000Y-22200000D03*
X1425000Y-21700000D03*
X1425000Y-21200000D03*
X1425000Y-20700000D03*
X1425000Y-20200000D03*
X1425000Y-19700000D03*
X1425000Y-19200000D03*
X1425000Y-18700000D03*
X1425000Y-18200000D03*
X1425000Y-17700000D03*
X1425000Y-17200000D03*
X1425000Y-16700000D03*
X1425000Y-16200000D03*
X1425000Y-15700000D03*
X1425000Y-15200000D03*
X1425000Y-14700000D03*
X1425000Y-14200000D03*
X1425000Y-13700000D03*
X1425000Y-13200000D03*
X1425000Y-12700000D03*
D49*
X3100000Y-11025000D03*
X3600000Y-11025000D03*
X4100000Y-11025000D03*
X4600000Y-11025000D03*
X5100000Y-11025000D03*
X5600000Y-11025000D03*
X6100000Y-11025000D03*
X6600000Y-11025000D03*
X7100000Y-11025000D03*
X7600000Y-11025000D03*
X8100000Y-11025000D03*
X8600000Y-11025000D03*
X9100000Y-11025000D03*
X9600000Y-11025000D03*
X10100000Y-11025000D03*
X10600000Y-11025000D03*
X11100000Y-11025000D03*
X11600000Y-11025000D03*
X12100000Y-11025000D03*
X12600000Y-11025000D03*
X13100000Y-11025000D03*
X13600000Y-11025000D03*
X14100000Y-11025000D03*
X14600000Y-11025000D03*
X15100000Y-11025000D03*
%TD*%
D31*
%TO.C,R3*%
X-16100000Y-12010000D03*
X-16100000Y-13030000D03*
%TD*%
D28*
%TO.C,R14*%
X85610000Y-23300000D03*
X84590000Y-23300000D03*
%TD*%
D50*
%TO.C,C29*%
X-5630000Y-23150000D03*
X-4670000Y-23150000D03*
%TD*%
D51*
%TO.C,R41*%
X-8425000Y-22850000D03*
X-6775000Y-22850000D03*
%TD*%
D22*
%TO.C,R53*%
X-9310000Y-700000D03*
X-8290000Y-700000D03*
%TD*%
D28*
%TO.C,R62*%
X33810000Y-16900000D03*
X32790000Y-16900000D03*
%TD*%
D26*
%TO.C,R19*%
X73000000Y-4010000D03*
X73000000Y-2990000D03*
%TD*%
D43*
%TO.C,C31*%
X-120000Y-13900000D03*
X-1080000Y-13900000D03*
%TD*%
D44*
%TO.C,D6*%
X-9100000Y-18150000D03*
X-11600000Y-18150000D03*
%TD*%
D26*
%TO.C,R28*%
X-13150000Y-4310000D03*
X-13150000Y-3290000D03*
%TD*%
D42*
%TO.C,C28*%
X22650000Y-37520000D03*
X22650000Y-38480000D03*
%TD*%
D52*
%TO.C,Q17*%
X-14780000Y-12930000D03*
X-14780000Y-11030000D03*
X-12380000Y-11980000D03*
%TD*%
D46*
%TO.C,Q11*%
X-8450000Y-11030000D03*
X-8450000Y-12930000D03*
X-10850000Y-11980000D03*
%TD*%
D22*
%TO.C,R46*%
X12190000Y-700000D03*
X13210000Y-700000D03*
%TD*%
D45*
%TO.C,Q12*%
X-11500000Y-9237500D03*
X-13400000Y-9237500D03*
X-12450000Y-7362500D03*
%TD*%
D22*
%TO.C,R61*%
X8090000Y-39700000D03*
X9110000Y-39700000D03*
%TD*%
D25*
%TO.C,C15*%
X-5000000Y-41730000D03*
X-5000000Y-40770000D03*
%TD*%
D28*
%TO.C,R63*%
X33810000Y-17900000D03*
X32790000Y-17900000D03*
%TD*%
D53*
%TO.C,U10*%
X61542500Y-13700000D03*
X62177500Y-13700000D03*
X62812500Y-13700000D03*
X63447500Y-13700000D03*
X64082500Y-13700000D03*
X64717500Y-13700000D03*
X65352500Y-13700000D03*
X65987500Y-13700000D03*
X66622500Y-13700000D03*
X67257500Y-13700000D03*
X67257500Y-18900000D03*
X66622500Y-18900000D03*
X65987500Y-18900000D03*
X65352500Y-18900000D03*
X64717500Y-18900000D03*
X64082500Y-18900000D03*
X63447500Y-18900000D03*
X62812500Y-18900000D03*
X62177500Y-18900000D03*
X61542500Y-18900000D03*
%TD*%
D54*
%TO.C,D5*%
X-9550000Y-6225000D03*
X-9550000Y-9525000D03*
%TD*%
D28*
%TO.C,R12*%
X85610000Y-21300000D03*
X84590000Y-21300000D03*
%TD*%
D25*
%TO.C,C33*%
X-22150000Y-6380000D03*
X-22150000Y-5420000D03*
%TD*%
D28*
%TO.C,R72*%
X-18973334Y-3000001D03*
X-19993334Y-3000001D03*
%TD*%
D43*
%TO.C,C7*%
X-120000Y-12400000D03*
X-1080000Y-12400000D03*
%TD*%
D55*
%TO.C,R4*%
X9925000Y-9250000D03*
X8275000Y-9250000D03*
%TD*%
D28*
%TO.C,R17*%
X50710000Y7900000D03*
X49690000Y7900000D03*
%TD*%
%TO.C,R29*%
X50810000Y6050000D03*
X49790000Y6050000D03*
%TD*%
D56*
%TO.C,Q18*%
X-20400000Y-14775000D03*
X-18500000Y-14775000D03*
X-19450000Y-16650000D03*
%TD*%
D20*
%TO.C,J3*%
X55300000Y-17980000D03*
D21*
X54030000Y-17980000D03*
X55300000Y-19250000D03*
X54030000Y-19250000D03*
X55300000Y-20520000D03*
X54030000Y-20520000D03*
X55300000Y-21790000D03*
X54030000Y-21790000D03*
X55300000Y-23060000D03*
X54030000Y-23060000D03*
X55300000Y-24330000D03*
X54030000Y-24330000D03*
X55300000Y-25600000D03*
X54030000Y-25600000D03*
X55300000Y-26870000D03*
X54030000Y-26870000D03*
X55300000Y-28140000D03*
X54030000Y-28140000D03*
X55300000Y-29410000D03*
X54030000Y-29410000D03*
%TD*%
D43*
%TO.C,C35*%
X67880000Y-6700000D03*
X66920000Y-6700000D03*
%TD*%
D28*
%TO.C,R13*%
X85610000Y-22300000D03*
X84590000Y-22300000D03*
%TD*%
D22*
%TO.C,R55*%
X-1110000Y-700000D03*
X-90000Y-700000D03*
%TD*%
D26*
%TO.C,R37*%
X22650000Y-42210000D03*
X22650000Y-41190000D03*
%TD*%
D57*
%TO.C,D3*%
X-9400000Y-14450000D03*
X-9400000Y-16950000D03*
%TD*%
D28*
%TO.C,R24*%
X-21400000Y-44480000D03*
X-22420000Y-44480000D03*
%TD*%
D56*
%TO.C,Q13*%
X14800000Y-5062500D03*
X16700000Y-5062500D03*
X15750000Y-6937500D03*
%TD*%
D33*
%TO.C,R74*%
X69187500Y-6400000D03*
X71012500Y-6400000D03*
%TD*%
D42*
%TO.C,C34*%
X84100000Y-3020000D03*
X84100000Y-3980000D03*
%TD*%
D28*
%TO.C,R34*%
X-23290000Y-22100000D03*
X-24310000Y-22100000D03*
%TD*%
D56*
%TO.C,Q14*%
X-50000Y-9562500D03*
X1850000Y-9562500D03*
X900000Y-11437500D03*
%TD*%
D43*
%TO.C,C2*%
X28680000Y-19550000D03*
X27720000Y-19550000D03*
%TD*%
D25*
%TO.C,C40*%
X65700000Y-21180000D03*
X65700000Y-20220000D03*
%TD*%
D22*
%TO.C,R42*%
X10290000Y-700000D03*
X11310000Y-700000D03*
%TD*%
D58*
%TO.C,C37*%
X65975000Y-24400000D03*
X67875000Y-24400000D03*
%TD*%
D31*
%TO.C,R64*%
X34800000Y-23980000D03*
X34800000Y-25000000D03*
%TD*%
D42*
%TO.C,C36*%
X64750000Y-20220000D03*
X64750000Y-21180000D03*
%TD*%
D28*
%TO.C,R40*%
X25250000Y-35000000D03*
X24230000Y-35000000D03*
%TD*%
D47*
%TO.C,R48*%
X-1450000Y-10825000D03*
X-1450000Y-9175000D03*
%TD*%
D26*
%TO.C,R73*%
X83100000Y-4010000D03*
X83100000Y-2990000D03*
%TD*%
%TO.C,R21*%
X-4000000Y-41760000D03*
X-4000000Y-40740000D03*
%TD*%
D22*
%TO.C,R5*%
X11040000Y-9100000D03*
X12060000Y-9100000D03*
%TD*%
D28*
%TO.C,R11*%
X-21365000Y-25462500D03*
X-22385000Y-25462500D03*
%TD*%
%TO.C,R8*%
X-12840000Y-17600000D03*
X-13860000Y-17600000D03*
%TD*%
D22*
%TO.C,R43*%
X14090000Y-700000D03*
X15110000Y-700000D03*
%TD*%
D27*
%TO.C,C39*%
X67750000Y-22700000D03*
X67750000Y-21150000D03*
%TD*%
D43*
%TO.C,C23*%
X-2670000Y-700000D03*
X-3630000Y-700000D03*
%TD*%
D28*
%TO.C,R1*%
X27410000Y-12550000D03*
X26390000Y-12550000D03*
%TD*%
D59*
%TO.C,C25*%
X18525000Y-24750000D03*
X20075000Y-24750000D03*
%TD*%
D34*
%TO.C,C10*%
X-17400000Y-10700000D03*
X-19300000Y-10700000D03*
%TD*%
D28*
%TO.C,R69*%
X-19973333Y-4100001D03*
X-20993333Y-4100001D03*
%TD*%
D26*
%TO.C,R51*%
X2700000Y-4660000D03*
X2700000Y-3640000D03*
%TD*%
D36*
%TO.C,C13*%
X-13075000Y-18700000D03*
X-14625000Y-18700000D03*
%TD*%
D50*
%TO.C,C16*%
X-8030000Y-14500000D03*
X-7070000Y-14500000D03*
%TD*%
D43*
%TO.C,C18*%
X9380000Y-700000D03*
X8420000Y-700000D03*
%TD*%
D22*
%TO.C,R65*%
X34390000Y-9100000D03*
X35410000Y-9100000D03*
%TD*%
D28*
%TO.C,R7*%
X85610000Y-20300000D03*
X84590000Y-20300000D03*
%TD*%
%TO.C,R22*%
X-21400000Y-40500000D03*
X-22420000Y-40500000D03*
%TD*%
D26*
%TO.C,R20*%
X-8000000Y-10010000D03*
X-8000000Y-8990000D03*
%TD*%
D22*
%TO.C,R58*%
X37790000Y-12100000D03*
X38810000Y-12100000D03*
%TD*%
D42*
%TO.C,C1*%
X14565714Y-27920000D03*
X14565714Y-28880000D03*
%TD*%
D32*
%TO.C,R76*%
X69250000Y-21100000D03*
X69250000Y-22750000D03*
%TD*%
D60*
%TO.C,D4*%
X-9600000Y-4650000D03*
X-9600000Y-2150000D03*
%TD*%
D30*
%TO.C,U6*%
X-3995000Y-7525000D03*
X-5265000Y-7525000D03*
X-6535000Y-7525000D03*
X-7805000Y-7525000D03*
X-7805000Y-2275000D03*
X-6535000Y-2275000D03*
X-5265000Y-2275000D03*
X-3995000Y-2275000D03*
%TD*%
D43*
%TO.C,C17*%
X-5320000Y-22300000D03*
X-6280000Y-22300000D03*
%TD*%
D31*
%TO.C,R49*%
X2700000Y-5540000D03*
X2700000Y-6560000D03*
%TD*%
D50*
%TO.C,C3*%
X18320000Y-16550000D03*
X19280000Y-16550000D03*
%TD*%
D28*
%TO.C,R39*%
X25260000Y-33500000D03*
X24240000Y-33500000D03*
%TD*%
%TO.C,R35*%
X-23290000Y-23050000D03*
X-24310000Y-23050000D03*
%TD*%
D61*
%TO.C,Y1*%
X20500000Y-19950000D03*
X22700000Y-19950000D03*
X22700000Y-21650000D03*
X20500000Y-21650000D03*
%TD*%
D32*
%TO.C,R31*%
X-2250000Y-11975000D03*
X-2250000Y-13625000D03*
%TD*%
D28*
%TO.C,R60*%
X33810000Y-15900000D03*
X32790000Y-15900000D03*
%TD*%
%TO.C,R68*%
X35410000Y-10600000D03*
X34390000Y-10600000D03*
%TD*%
D45*
%TO.C,Q16*%
X19920000Y-52870000D03*
X18020000Y-52870000D03*
X18970000Y-50995000D03*
%TD*%
D28*
%TO.C,R36*%
X5810000Y-9100000D03*
X4790000Y-9100000D03*
%TD*%
D25*
%TO.C,C27*%
X18350000Y-23280000D03*
X18350000Y-22320000D03*
%TD*%
D62*
%TO.C,C9*%
X-14850000Y-5375000D03*
X-14850000Y-2425000D03*
%TD*%
D36*
%TO.C,C5*%
X21975000Y-23250000D03*
X20425000Y-23250000D03*
%TD*%
D32*
%TO.C,R30*%
X-4100000Y-9175000D03*
X-4100000Y-10825000D03*
%TD*%
D63*
%TO.C,Q10*%
X-5737500Y-14150000D03*
X-5737500Y-12250000D03*
X-3862500Y-13200000D03*
%TD*%
D26*
%TO.C,R38*%
X23650000Y-38610000D03*
X23650000Y-37590000D03*
%TD*%
D42*
%TO.C,C30*%
X4115000Y-27870000D03*
X4115000Y-28830000D03*
%TD*%
%TO.C,C14*%
X74000000Y-3020000D03*
X74000000Y-3980000D03*
%TD*%
D26*
%TO.C,R6*%
X-18500000Y-21010000D03*
X-18500000Y-19990000D03*
%TD*%
D29*
%TO.C,Q8*%
X-3562500Y-37600000D03*
X-3562500Y-39500000D03*
X-5437500Y-38550000D03*
%TD*%
D30*
%TO.C,U4*%
X7805000Y-7525000D03*
X6535000Y-7525000D03*
X5265000Y-7525000D03*
X3995000Y-7525000D03*
X3995000Y-2275000D03*
X5265000Y-2275000D03*
X6535000Y-2275000D03*
X7805000Y-2275000D03*
%TD*%
D50*
%TO.C,C8*%
X18320000Y-17550000D03*
X19280000Y-17550000D03*
%TD*%
D28*
%TO.C,R33*%
X-23290000Y-21150000D03*
X-24310000Y-21150000D03*
%TD*%
D26*
%TO.C,R9*%
X-16100000Y-11210000D03*
X-16100000Y-10190000D03*
%TD*%
D22*
%TO.C,R70*%
X-17493333Y-4100001D03*
X-16473333Y-4100001D03*
%TD*%
D57*
%TO.C,D17*%
X-15100000Y-6850000D03*
X-15100000Y-9350000D03*
%TD*%
D64*
%TO.C,L1*%
X-11412500Y-5500000D03*
X-12987500Y-5500000D03*
%TD*%
D22*
%TO.C,R54*%
X-5510000Y-700000D03*
X-4490000Y-700000D03*
%TD*%
%TO.C,R71*%
X-6310000Y-11000000D03*
X-5290000Y-11000000D03*
%TD*%
D20*
%TO.C,J1*%
X19325000Y-3485000D03*
D21*
X19325000Y-4755000D03*
X19325000Y-6025000D03*
X19325000Y-7295000D03*
X19325000Y-8565000D03*
X19325000Y-9835000D03*
X19325000Y-11105000D03*
X19325000Y-12375000D03*
X19325000Y-13645000D03*
X19325000Y-14915000D03*
%TD*%
D30*
%TO.C,U5*%
X1405000Y-7525000D03*
X135000Y-7525000D03*
X-1135000Y-7525000D03*
X-2405000Y-7525000D03*
X-2405000Y-2275000D03*
X-1135000Y-2275000D03*
X135000Y-2275000D03*
X1405000Y-2275000D03*
%TD*%
D22*
%TO.C,R18*%
X-7110000Y-10050000D03*
X-6090000Y-10050000D03*
%TD*%
D42*
%TO.C,C12*%
X63900000Y-3020000D03*
X63900000Y-3980000D03*
%TD*%
%LPD*%
M02*
