%TF.GenerationSoftware,KiCad,Pcbnew,7.0.11*%
%TF.CreationDate,2025-05-28T11:48:17+09:00*%
%TF.ProjectId,2ndLayer_3rdLayer,326e644c-6179-4657-925f-3372644c6179,rev?*%
%TF.SameCoordinates,Original*%
%TF.FileFunction,Profile,NP*%
%FSLAX46Y46*%
G04 Gerber Fmt 4.6, Leading zero omitted, Abs format (unit mm)*
G04 Created by KiCad (PCBNEW 7.0.11) date 2025-05-28 11:48:17*
%MOMM*%
%LPD*%
G01*
G04 APERTURE LIST*
%TA.AperFunction,Profile*%
%ADD10C,0.200000*%
%TD*%
%TA.AperFunction,Profile*%
%ADD11C,0.050000*%
%TD*%
G04 APERTURE END LIST*
D10*
X94769280Y-19920395D02*
X93334524Y-18485639D01*
X-23334524Y-18485639D02*
X-24769280Y-19920395D01*
D11*
X-2000000Y3000000D02*
X2000000Y3000000D01*
D10*
X43907760Y-5121321D02*
X46665476Y-7879037D01*
X-1000000Y1000000D02*
X-1000000Y2000000D01*
X-21000000Y0D02*
X-23970920Y0D01*
X-21000000Y0D02*
G75*
G03*
X-20000000Y1000000I1J999999D01*
G01*
X23970920Y0D02*
X21000000Y0D01*
X-24108036Y-29328186D02*
G75*
G03*
X-21926396Y-31585350I2929116J648205D01*
G01*
D11*
X17000000Y3000000D02*
X21000000Y3000000D01*
D10*
X2000000Y3000000D02*
G75*
G03*
X1000000Y2000000I0J-1000000D01*
G01*
X-2000000Y0D02*
X-17000000Y0D01*
X-2000000Y0D02*
G75*
G03*
X-1000000Y1000000I1J999999D01*
G01*
X93334524Y-7879037D02*
X96092240Y-5121321D01*
X1000000Y2000000D02*
X1000000Y1000000D01*
X23334526Y-7879039D02*
G75*
G03*
X23334524Y-18485639I5303304J-5303301D01*
G01*
X-17000000Y3000000D02*
G75*
G03*
X-18000000Y2000000I-1J-999999D01*
G01*
X46029080Y14D02*
G75*
G03*
X43907760Y-5121321I20J-3000014D01*
G01*
X-24769280Y-19920395D02*
G75*
G03*
X-25577091Y-22689934I2121449J-2121357D01*
G01*
X17000000Y0D02*
X2000000Y0D01*
X47129080Y-3000000D02*
G75*
G03*
X44929080Y-3000000I-1100000J0D01*
G01*
X44929080Y-3000000D02*
G75*
G03*
X47129080Y-3000000I1100000J0D01*
G01*
X23334524Y-7879037D02*
X26092240Y-5121321D01*
X20000000Y1000000D02*
G75*
G03*
X21000000Y0I1000000J0D01*
G01*
X93334526Y-7879039D02*
G75*
G03*
X93334524Y-18485639I5303314J-5303301D01*
G01*
D11*
X-21000000Y3000000D02*
X-17000000Y3000000D01*
D10*
X-18000000Y1000000D02*
G75*
G03*
X-17000000Y0I999999J-1D01*
G01*
X18000000Y1000000D02*
X18000000Y2000000D01*
X93970920Y0D02*
X46029080Y0D01*
X-20000000Y2000000D02*
G75*
G03*
X-21000000Y3000000I-999999J1D01*
G01*
X17000000Y0D02*
G75*
G03*
X18000000Y1000000I0J1000000D01*
G01*
X26092230Y-5121311D02*
G75*
G03*
X23970920Y0I-2121330J2121311D01*
G01*
X1000000Y1000000D02*
G75*
G03*
X2000000Y0I1000000J0D01*
G01*
X-23334524Y-18485639D02*
G75*
G03*
X-23334524Y-7879037I-5303298J5303301D01*
G01*
X91926384Y-31585306D02*
G75*
G03*
X94108036Y-29328186I-747484J2905406D01*
G01*
X95070920Y-3000000D02*
G75*
G03*
X92870920Y-3000000I-1100000J0D01*
G01*
X92870920Y-3000000D02*
G75*
G03*
X95070920Y-3000000I1100000J0D01*
G01*
X24769280Y-19920395D02*
X23334524Y-18485639D01*
X20000000Y2000000D02*
X20000000Y1000000D01*
X-20078905Y-28679967D02*
G75*
G03*
X-22278905Y-28679967I-1100000J0D01*
G01*
X-22278905Y-28679967D02*
G75*
G03*
X-20078905Y-28679967I1100000J0D01*
G01*
X-1000000Y2000000D02*
G75*
G03*
X-2000000Y3000000I-999999J1D01*
G01*
X94108037Y-29328186D02*
X95577091Y-22689934D01*
X21000000Y3000000D02*
G75*
G03*
X20000000Y2000000I0J-1000000D01*
G01*
X95577050Y-22689925D02*
G75*
G03*
X94769280Y-19920395I-2928850J648325D01*
G01*
X-22870920Y-3000000D02*
G75*
G03*
X-25070920Y-3000000I-1100000J0D01*
G01*
X-25070920Y-3000000D02*
G75*
G03*
X-22870920Y-3000000I1100000J0D01*
G01*
X46665478Y-18485641D02*
G75*
G03*
X46665476Y-7879037I-5303298J5303301D01*
G01*
X46665476Y-18485639D02*
X45230720Y-19920395D01*
X-20000000Y1000000D02*
X-20000000Y2000000D01*
X21926397Y-31585356D02*
G75*
G03*
X24108037Y-29328186I-747537J2905426D01*
G01*
X25070920Y-3000000D02*
G75*
G03*
X22870920Y-3000000I-1100000J0D01*
G01*
X22870920Y-3000000D02*
G75*
G03*
X25070920Y-3000000I1100000J0D01*
G01*
X-26092240Y-5121321D02*
X-23334524Y-7879037D01*
X-21926396Y-31585351D02*
G75*
G03*
X21926396Y-31585351I21926396J85224598D01*
G01*
X25577114Y-22689939D02*
G75*
G03*
X24769279Y-19920396I-2929014J648239D01*
G01*
X45230719Y-19920394D02*
G75*
G03*
X44422910Y-22689934I2121451J-2121356D01*
G01*
X48073604Y-31585351D02*
G75*
G03*
X91926396Y-31585351I21926396J85224598D01*
G01*
X44422909Y-22689934D02*
X45891963Y-29328186D01*
X-23970920Y0D02*
G75*
G03*
X-26092240Y-5121321I-5J-2999998D01*
G01*
X49921095Y-28679967D02*
G75*
G03*
X47721095Y-28679967I-1100000J0D01*
G01*
X47721095Y-28679967D02*
G75*
G03*
X49921095Y-28679967I1100000J0D01*
G01*
X-25577091Y-22689934D02*
X-24108037Y-29328186D01*
X24108037Y-29328186D02*
X25577091Y-22689934D01*
X96092230Y-5121311D02*
G75*
G03*
X93970920Y0I-2121330J2121311D01*
G01*
X-18000000Y2000000D02*
X-18000000Y1000000D01*
X18000000Y2000000D02*
G75*
G03*
X17000000Y3000000I-1000000J0D01*
G01*
X45891991Y-29328180D02*
G75*
G03*
X48073604Y-31585351I2929109J648180D01*
G01*
X22278905Y-28679967D02*
G75*
G03*
X20078905Y-28679967I-1100000J0D01*
G01*
X20078905Y-28679967D02*
G75*
G03*
X22278905Y-28679967I1100000J0D01*
G01*
X92278905Y-28679967D02*
G75*
G03*
X90078905Y-28679967I-1100000J0D01*
G01*
X90078905Y-28679967D02*
G75*
G03*
X92278905Y-28679967I1100000J0D01*
G01*
M02*
