%TF.GenerationSoftware,KiCad,Pcbnew,7.0.11*%
%TF.CreationDate,2025-05-28T11:48:17+09:00*%
%TF.ProjectId,2ndLayer_3rdLayer,326e644c-6179-4657-925f-3372644c6179,rev?*%
%TF.SameCoordinates,Original*%
%TF.FileFunction,Soldermask,Bot*%
%TF.FilePolarity,Negative*%
%FSLAX46Y46*%
G04 Gerber Fmt 4.6, Leading zero omitted, Abs format (unit mm)*
G04 Created by KiCad (PCBNEW 7.0.11) date 2025-05-28 11:48:17*
%MOMM*%
%LPD*%
G01*
G04 APERTURE LIST*
G04 Aperture macros list*
%AMRoundRect*
0 Rectangle with rounded corners*
0 $1 Rounding radius*
0 $2 $3 $4 $5 $6 $7 $8 $9 X,Y pos of 4 corners*
0 Add a 4 corners polygon primitive as box body*
4,1,4,$2,$3,$4,$5,$6,$7,$8,$9,$2,$3,0*
0 Add four circle primitives for the rounded corners*
1,1,$1+$1,$2,$3*
1,1,$1+$1,$4,$5*
1,1,$1+$1,$6,$7*
1,1,$1+$1,$8,$9*
0 Add four rect primitives between the rounded corners*
20,1,$1+$1,$2,$3,$4,$5,0*
20,1,$1+$1,$4,$5,$6,$7,0*
20,1,$1+$1,$6,$7,$8,$9,0*
20,1,$1+$1,$8,$9,$2,$3,0*%
%AMHorizOval*
0 Thick line with rounded ends*
0 $1 width*
0 $2 $3 position (X,Y) of the first rounded end (center of the circle)*
0 $4 $5 position (X,Y) of the second rounded end (center of the circle)*
0 Add line between two ends*
20,1,$1,$2,$3,$4,$5,0*
0 Add two circle primitives to create the rounded ends*
1,1,$1,$2,$3*
1,1,$1,$4,$5*%
G04 Aperture macros list end*
%ADD10HorizOval,3.100000X0.424264X0.424264X-0.424264X-0.424264X0*%
%ADD11RoundRect,0.381000X-0.335420X0.421681X-0.421681X-0.335420X0.335420X-0.421681X0.421681X0.335420X0*%
%ADD12C,1.524000*%
%ADD13RoundRect,0.425000X-0.425000X-0.425000X0.425000X-0.425000X0.425000X0.425000X-0.425000X0.425000X0*%
%ADD14C,1.700000*%
%ADD15C,2.000000*%
%ADD16R,1.000000X1.000000*%
%ADD17O,1.000000X1.000000*%
%ADD18RoundRect,0.135000X-0.135000X-0.185000X0.135000X-0.185000X0.135000X0.185000X-0.135000X0.185000X0*%
%ADD19RoundRect,0.375000X-0.625000X-0.375000X0.625000X-0.375000X0.625000X0.375000X-0.625000X0.375000X0*%
%ADD20RoundRect,0.500000X-0.500000X-1.400000X0.500000X-1.400000X0.500000X1.400000X-0.500000X1.400000X0*%
%ADD21RoundRect,0.140000X0.170000X-0.140000X0.170000X0.140000X-0.170000X0.140000X-0.170000X-0.140000X0*%
%ADD22RoundRect,0.135000X0.185000X-0.135000X0.185000X0.135000X-0.185000X0.135000X-0.185000X-0.135000X0*%
%ADD23RoundRect,0.225000X0.250000X-0.225000X0.250000X0.225000X-0.250000X0.225000X-0.250000X-0.225000X0*%
%ADD24RoundRect,0.135000X0.135000X0.185000X-0.135000X0.185000X-0.135000X-0.185000X0.135000X-0.185000X0*%
%ADD25RoundRect,0.150000X0.587500X0.150000X-0.587500X0.150000X-0.587500X-0.150000X0.587500X-0.150000X0*%
%ADD26RoundRect,0.150000X0.150000X-0.675000X0.150000X0.675000X-0.150000X0.675000X-0.150000X-0.675000X0*%
%ADD27RoundRect,0.135000X-0.185000X0.135000X-0.185000X-0.135000X0.185000X-0.135000X0.185000X0.135000X0*%
%ADD28RoundRect,0.200000X-0.275000X0.200000X-0.275000X-0.200000X0.275000X-0.200000X0.275000X0.200000X0*%
%ADD29RoundRect,0.237500X-0.250000X-0.237500X0.250000X-0.237500X0.250000X0.237500X-0.250000X0.237500X0*%
%ADD30RoundRect,0.250000X0.250000X0.475000X-0.250000X0.475000X-0.250000X-0.475000X0.250000X-0.475000X0*%
%ADD31RoundRect,0.175000X0.175000X-0.325000X0.175000X0.325000X-0.175000X0.325000X-0.175000X-0.325000X0*%
%ADD32RoundRect,0.225000X0.225000X0.250000X-0.225000X0.250000X-0.225000X-0.250000X0.225000X-0.250000X0*%
%ADD33C,0.650000*%
%ADD34R,0.600000X1.240000*%
%ADD35R,0.300000X1.240000*%
%ADD36O,1.000000X1.800000*%
%ADD37O,1.000000X2.100000*%
%ADD38RoundRect,0.140000X-0.170000X0.140000X-0.170000X-0.140000X0.170000X-0.140000X0.170000X0.140000X0*%
%ADD39RoundRect,0.140000X0.140000X0.170000X-0.140000X0.170000X-0.140000X-0.170000X0.140000X-0.170000X0*%
%ADD40RoundRect,0.250000X0.250000X0.250000X-0.250000X0.250000X-0.250000X-0.250000X0.250000X-0.250000X0*%
%ADD41RoundRect,0.150000X0.150000X-0.587500X0.150000X0.587500X-0.150000X0.587500X-0.150000X-0.587500X0*%
%ADD42RoundRect,0.175000X0.325000X0.175000X-0.325000X0.175000X-0.325000X-0.175000X0.325000X-0.175000X0*%
%ADD43RoundRect,0.200000X0.275000X-0.200000X0.275000X0.200000X-0.275000X0.200000X-0.275000X-0.200000X0*%
%ADD44RoundRect,0.075000X0.725000X0.075000X-0.725000X0.075000X-0.725000X-0.075000X0.725000X-0.075000X0*%
%ADD45RoundRect,0.075000X0.075000X0.725000X-0.075000X0.725000X-0.075000X-0.725000X0.075000X-0.725000X0*%
%ADD46RoundRect,0.140000X-0.140000X-0.170000X0.140000X-0.170000X0.140000X0.170000X-0.140000X0.170000X0*%
%ADD47RoundRect,0.200000X-0.200000X-0.275000X0.200000X-0.275000X0.200000X0.275000X-0.200000X0.275000X0*%
%ADD48RoundRect,0.175000X-0.325000X-0.175000X0.325000X-0.175000X0.325000X0.175000X-0.325000X0.175000X0*%
%ADD49R,0.400000X1.200000*%
%ADD50RoundRect,0.225000X-0.375000X0.225000X-0.375000X-0.225000X0.375000X-0.225000X0.375000X0.225000X0*%
%ADD51RoundRect,0.200000X0.200000X0.275000X-0.200000X0.275000X-0.200000X-0.275000X0.200000X-0.275000X0*%
%ADD52RoundRect,0.150000X-0.150000X0.587500X-0.150000X-0.587500X0.150000X-0.587500X0.150000X0.587500X0*%
%ADD53RoundRect,0.250000X-0.250000X0.250000X-0.250000X-0.250000X0.250000X-0.250000X0.250000X0.250000X0*%
%ADD54RoundRect,0.250000X-0.250000X-0.475000X0.250000X-0.475000X0.250000X0.475000X-0.250000X0.475000X0*%
%ADD55RoundRect,0.225000X-0.225000X-0.250000X0.225000X-0.250000X0.225000X0.250000X-0.225000X0.250000X0*%
%ADD56RoundRect,0.250000X0.250000X-0.250000X0.250000X0.250000X-0.250000X0.250000X-0.250000X-0.250000X0*%
%ADD57R,1.400000X1.200000*%
%ADD58RoundRect,0.250000X0.650000X-0.325000X0.650000X0.325000X-0.650000X0.325000X-0.650000X-0.325000X0*%
%ADD59RoundRect,0.150000X-0.587500X-0.150000X0.587500X-0.150000X0.587500X0.150000X-0.587500X0.150000X0*%
%ADD60RoundRect,0.218750X0.218750X0.256250X-0.218750X0.256250X-0.218750X-0.256250X0.218750X-0.256250X0*%
G04 APERTURE END LIST*
%TO.C,U1*%
G36*
X-16275000Y-6800000D02*
G01*
X-17925000Y-6800000D01*
X-17925000Y-6500000D01*
X-16275000Y-6500000D01*
X-16275000Y-6800000D01*
G37*
G36*
X-16275000Y-6300000D02*
G01*
X-17925000Y-6300000D01*
X-17925000Y-6000000D01*
X-16275000Y-6000000D01*
X-16275000Y-6300000D01*
G37*
G36*
X-16275000Y-5600000D02*
G01*
X-17925000Y-5600000D01*
X-17925000Y-5100000D01*
X-16275000Y-5100000D01*
X-16275000Y-5600000D01*
G37*
G36*
X-18125000Y-5700000D02*
G01*
X-18425000Y-5700000D01*
X-18425000Y-4300000D01*
X-18125000Y-4300000D01*
X-18125000Y-5700000D01*
G37*
G36*
X-19125000Y-5700000D02*
G01*
X-19425000Y-5700000D01*
X-19425000Y-4300000D01*
X-19125000Y-4300000D01*
X-19125000Y-5700000D01*
G37*
G36*
X-19625000Y-6800000D02*
G01*
X-21275000Y-6800000D01*
X-21275000Y-6500000D01*
X-19625000Y-6500000D01*
X-19625000Y-6800000D01*
G37*
G36*
X-19625000Y-6300000D02*
G01*
X-21275000Y-6300000D01*
X-21275000Y-6000000D01*
X-19625000Y-6000000D01*
X-19625000Y-6300000D01*
G37*
G36*
X-19625000Y-5600000D02*
G01*
X-21275000Y-5600000D01*
X-21275000Y-5100000D01*
X-19625000Y-5100000D01*
X-19625000Y-5600000D01*
G37*
G36*
X-18625000Y-6325501D02*
G01*
X-18675000Y-6375501D01*
X-18875000Y-6375501D01*
X-18925000Y-6325501D01*
X-18925000Y-4300000D01*
X-18625000Y-4300000D01*
X-18625000Y-6325501D01*
G37*
G36*
X-16350004Y-7324973D02*
G01*
X-16349999Y-9275000D01*
X-17250002Y-9325000D01*
X-18275004Y-9325000D01*
X-18325003Y-9274997D01*
X-18325001Y-7325001D01*
X-18275001Y-7275011D01*
X-17249999Y-7275001D01*
X-16350004Y-7324973D01*
G37*
G36*
X-19224999Y-7325001D02*
G01*
X-19224994Y-9275025D01*
X-19274997Y-9325028D01*
X-20299999Y-9325028D01*
X-21199998Y-9275025D01*
X-21199996Y-7325029D01*
X-20299996Y-7275039D01*
X-19274994Y-7275029D01*
X-19224999Y-7325001D01*
G37*
%TD*%
D10*
%TO.C,U2*%
X-10725000Y-21450000D03*
%TD*%
D11*
%TO.C,SW2*%
X-7897196Y-31522723D03*
D12*
X-10018875Y-28060285D03*
X-12865055Y-30956707D03*
%TD*%
D13*
%TO.C,U9*%
X66190000Y-8365000D03*
D14*
X68730000Y-8365000D03*
X71270000Y-8365000D03*
X73810000Y-8365000D03*
%TD*%
D15*
%TO.C,TP3*%
X-9600000Y-74900000D03*
%TD*%
D16*
%TO.C,J2*%
X-15900000Y-18270000D03*
D17*
X-17170000Y-18270000D03*
X-15900000Y-19540000D03*
X-17170000Y-19540000D03*
X-15900000Y-20810000D03*
X-17170000Y-20810000D03*
X-15900000Y-22080000D03*
X-17170000Y-22080000D03*
X-15900000Y-23350000D03*
X-17170000Y-23350000D03*
X-15900000Y-24620000D03*
X-17170000Y-24620000D03*
X-15900000Y-25890000D03*
X-17170000Y-25890000D03*
X-15900000Y-27160000D03*
X-17170000Y-27160000D03*
X-15900000Y-28430000D03*
X-17170000Y-28430000D03*
X-15900000Y-29700000D03*
X-17170000Y-29700000D03*
%TD*%
D15*
%TO.C,TP2*%
X-9600000Y-70850000D03*
%TD*%
%TO.C,TP1*%
X-9600000Y-66800000D03*
%TD*%
D18*
%TO.C,R56*%
X-7410000Y-700000D03*
X-6390000Y-700000D03*
%TD*%
D19*
%TO.C,U7*%
X-7250000Y-20800000D03*
X-7250000Y-18500000D03*
D20*
X-950000Y-18500000D03*
D19*
X-7250000Y-16200000D03*
%TD*%
D18*
%TO.C,R66*%
X34390000Y-12100000D03*
X35410000Y-12100000D03*
%TD*%
D21*
%TO.C,C11*%
X14500000Y-2580000D03*
X14500000Y-1620000D03*
%TD*%
D22*
%TO.C,R16*%
X62900000Y-4010000D03*
X62900000Y-2990000D03*
%TD*%
D23*
%TO.C,C22*%
X-2770000Y-10775000D03*
X-2770000Y-9225000D03*
%TD*%
D24*
%TO.C,R59*%
X33810000Y-14900000D03*
X32790000Y-14900000D03*
%TD*%
D25*
%TO.C,Q2*%
X-19962500Y-22287500D03*
X-19962500Y-24187500D03*
X-21837500Y-23237500D03*
%TD*%
D18*
%TO.C,R57*%
X37790000Y-10600000D03*
X38810000Y-10600000D03*
%TD*%
%TO.C,R45*%
X6490000Y-700000D03*
X7510000Y-700000D03*
%TD*%
%TO.C,R10*%
X-20485000Y-25462500D03*
X-19465000Y-25462500D03*
%TD*%
D26*
%TO.C,U3*%
X13205000Y-7525000D03*
X11935000Y-7525000D03*
X10665000Y-7525000D03*
X9395000Y-7525000D03*
X9395000Y-2275000D03*
X10665000Y-2275000D03*
X11935000Y-2275000D03*
X13205000Y-2275000D03*
%TD*%
D27*
%TO.C,R27*%
X-7200000Y-10890000D03*
X-7200000Y-11910000D03*
%TD*%
D28*
%TO.C,R77*%
X70750000Y-21100000D03*
X70750000Y-22750000D03*
%TD*%
D18*
%TO.C,R47*%
X4590000Y-700000D03*
X5610000Y-700000D03*
%TD*%
D29*
%TO.C,R75*%
X72487500Y-6400000D03*
X74312500Y-6400000D03*
%TD*%
D25*
%TO.C,Q15*%
X33287500Y-23590000D03*
X33287500Y-25490000D03*
X31412500Y-24540000D03*
%TD*%
D22*
%TO.C,R15*%
X-18500000Y-19110000D03*
X-18500000Y-18090000D03*
%TD*%
D18*
%TO.C,R44*%
X2690000Y-700000D03*
X3710000Y-700000D03*
%TD*%
D22*
%TO.C,R52*%
X2700000Y-2760000D03*
X2700000Y-1740000D03*
%TD*%
D30*
%TO.C,C32*%
X-17400000Y-12600000D03*
X-19300000Y-12600000D03*
%TD*%
D27*
%TO.C,R26*%
X-5210000Y-9040000D03*
X-5210000Y-10060000D03*
%TD*%
D31*
%TO.C,Q1*%
X-15010000Y-16810000D03*
X-16910000Y-16810000D03*
X-15960000Y-14410000D03*
%TD*%
D32*
%TO.C,C4*%
X21775000Y-18350000D03*
X20225000Y-18350000D03*
%TD*%
D18*
%TO.C,R2*%
X12940000Y-9500000D03*
X13960000Y-9500000D03*
%TD*%
D33*
%TO.C,J4*%
X72890000Y-27645000D03*
X67110000Y-27645000D03*
D34*
X73200000Y-26525000D03*
X72400000Y-26525000D03*
D35*
X71250000Y-26525000D03*
X70250000Y-26525000D03*
X69750000Y-26525000D03*
X68750000Y-26525000D03*
D34*
X67600000Y-26525000D03*
X66800000Y-26525000D03*
X66800000Y-26525000D03*
X67600000Y-26525000D03*
D35*
X68250000Y-26525000D03*
X69250000Y-26525000D03*
X70750000Y-26525000D03*
X71750000Y-26525000D03*
D34*
X72400000Y-26525000D03*
X73200000Y-26525000D03*
D36*
X74320000Y-31325000D03*
D37*
X74320000Y-27125000D03*
D36*
X65680000Y-31325000D03*
D37*
X65680000Y-27125000D03*
%TD*%
D38*
%TO.C,C6*%
X2814999Y-27870000D03*
X2814999Y-28830000D03*
%TD*%
D39*
%TO.C,C20*%
X1780000Y-700000D03*
X820000Y-700000D03*
%TD*%
D40*
%TO.C,D1*%
X28291190Y-14750000D03*
X25791190Y-14750000D03*
%TD*%
D22*
%TO.C,R23*%
X-6000000Y-41760000D03*
X-6000000Y-40740000D03*
%TD*%
D41*
%TO.C,Q4*%
X-19750000Y-20537500D03*
X-21650000Y-20537500D03*
X-20700000Y-18662500D03*
%TD*%
D27*
%TO.C,R78*%
X69100000Y-23915000D03*
X69100000Y-24935000D03*
%TD*%
D42*
%TO.C,Q3*%
X-11100000Y-14550000D03*
X-11100000Y-16450000D03*
X-13500000Y-15500000D03*
%TD*%
D23*
%TO.C,C38*%
X72250000Y-22700000D03*
X72250000Y-21150000D03*
%TD*%
D22*
%TO.C,R25*%
X-7200000Y-13710000D03*
X-7200000Y-12690000D03*
%TD*%
D24*
%TO.C,R67*%
X19530000Y-54362382D03*
X18510000Y-54362382D03*
%TD*%
%TO.C,R79*%
X72360000Y-23975000D03*
X71340000Y-23975000D03*
%TD*%
D21*
%TO.C,C41*%
X15200000Y-9480000D03*
X15200000Y-8520000D03*
%TD*%
D24*
%TO.C,R50*%
X-6090000Y-9000000D03*
X-7110000Y-9000000D03*
%TD*%
D43*
%TO.C,R32*%
X-400000Y-16725000D03*
X-400000Y-15075000D03*
%TD*%
D44*
%TO.C,U8*%
X16775000Y-12700000D03*
X16775000Y-13200000D03*
X16775000Y-13700000D03*
X16775000Y-14200000D03*
X16775000Y-14700000D03*
X16775000Y-15200000D03*
X16775000Y-15700000D03*
X16775000Y-16200000D03*
X16775000Y-16700000D03*
X16775000Y-17200000D03*
X16775000Y-17700000D03*
X16775000Y-18200000D03*
X16775000Y-18700000D03*
X16775000Y-19200000D03*
X16775000Y-19700000D03*
X16775000Y-20200000D03*
X16775000Y-20700000D03*
X16775000Y-21200000D03*
X16775000Y-21700000D03*
X16775000Y-22200000D03*
X16775000Y-22700000D03*
X16775000Y-23200000D03*
X16775000Y-23700000D03*
X16775000Y-24200000D03*
X16775000Y-24700000D03*
D45*
X15100000Y-26375000D03*
X14600000Y-26375000D03*
X14100000Y-26375000D03*
X13600000Y-26375000D03*
X13100000Y-26375000D03*
X12600000Y-26375000D03*
X12100000Y-26375000D03*
X11600000Y-26375000D03*
X11100000Y-26375000D03*
X10600000Y-26375000D03*
X10100000Y-26375000D03*
X9600000Y-26375000D03*
X9100000Y-26375000D03*
X8600000Y-26375000D03*
X8100000Y-26375000D03*
X7600000Y-26375000D03*
X7100000Y-26375000D03*
X6600000Y-26375000D03*
X6100000Y-26375000D03*
X5600000Y-26375000D03*
X5100000Y-26375000D03*
X4600000Y-26375000D03*
X4100000Y-26375000D03*
X3600000Y-26375000D03*
X3100000Y-26375000D03*
D44*
X1425000Y-24700000D03*
X1425000Y-24200000D03*
X1425000Y-23700000D03*
X1425000Y-23200000D03*
X1425000Y-22700000D03*
X1425000Y-22200000D03*
X1425000Y-21700000D03*
X1425000Y-21200000D03*
X1425000Y-20700000D03*
X1425000Y-20200000D03*
X1425000Y-19700000D03*
X1425000Y-19200000D03*
X1425000Y-18700000D03*
X1425000Y-18200000D03*
X1425000Y-17700000D03*
X1425000Y-17200000D03*
X1425000Y-16700000D03*
X1425000Y-16200000D03*
X1425000Y-15700000D03*
X1425000Y-15200000D03*
X1425000Y-14700000D03*
X1425000Y-14200000D03*
X1425000Y-13700000D03*
X1425000Y-13200000D03*
X1425000Y-12700000D03*
D45*
X3100000Y-11025000D03*
X3600000Y-11025000D03*
X4100000Y-11025000D03*
X4600000Y-11025000D03*
X5100000Y-11025000D03*
X5600000Y-11025000D03*
X6100000Y-11025000D03*
X6600000Y-11025000D03*
X7100000Y-11025000D03*
X7600000Y-11025000D03*
X8100000Y-11025000D03*
X8600000Y-11025000D03*
X9100000Y-11025000D03*
X9600000Y-11025000D03*
X10100000Y-11025000D03*
X10600000Y-11025000D03*
X11100000Y-11025000D03*
X11600000Y-11025000D03*
X12100000Y-11025000D03*
X12600000Y-11025000D03*
X13100000Y-11025000D03*
X13600000Y-11025000D03*
X14100000Y-11025000D03*
X14600000Y-11025000D03*
X15100000Y-11025000D03*
%TD*%
D27*
%TO.C,R3*%
X-16100000Y-12010000D03*
X-16100000Y-13030000D03*
%TD*%
D24*
%TO.C,R14*%
X85610000Y-23300000D03*
X84590000Y-23300000D03*
%TD*%
D46*
%TO.C,C29*%
X-5630000Y-23150000D03*
X-4670000Y-23150000D03*
%TD*%
D47*
%TO.C,R41*%
X-8425000Y-22850000D03*
X-6775000Y-22850000D03*
%TD*%
D18*
%TO.C,R53*%
X-9310000Y-700000D03*
X-8290000Y-700000D03*
%TD*%
D24*
%TO.C,R62*%
X33810000Y-16900000D03*
X32790000Y-16900000D03*
%TD*%
D22*
%TO.C,R19*%
X73000000Y-4010000D03*
X73000000Y-2990000D03*
%TD*%
D39*
%TO.C,C31*%
X-120000Y-13900000D03*
X-1080000Y-13900000D03*
%TD*%
D40*
%TO.C,D6*%
X-9100000Y-18150000D03*
X-11600000Y-18150000D03*
%TD*%
D22*
%TO.C,R28*%
X-13150000Y-4310000D03*
X-13150000Y-3290000D03*
%TD*%
D38*
%TO.C,C28*%
X22650000Y-37520000D03*
X22650000Y-38480000D03*
%TD*%
D48*
%TO.C,Q17*%
X-14780000Y-12930000D03*
X-14780000Y-11030000D03*
X-12380000Y-11980000D03*
%TD*%
D42*
%TO.C,Q11*%
X-8450000Y-11030000D03*
X-8450000Y-12930000D03*
X-10850000Y-11980000D03*
%TD*%
D18*
%TO.C,R46*%
X12190000Y-700000D03*
X13210000Y-700000D03*
%TD*%
D41*
%TO.C,Q12*%
X-11500000Y-9237500D03*
X-13400000Y-9237500D03*
X-12450000Y-7362500D03*
%TD*%
D18*
%TO.C,R61*%
X8090000Y-39700000D03*
X9110000Y-39700000D03*
%TD*%
D21*
%TO.C,C15*%
X-5000000Y-41730000D03*
X-5000000Y-40770000D03*
%TD*%
D24*
%TO.C,R63*%
X33810000Y-17900000D03*
X32790000Y-17900000D03*
%TD*%
D49*
%TO.C,U10*%
X61542500Y-13700000D03*
X62177500Y-13700000D03*
X62812500Y-13700000D03*
X63447500Y-13700000D03*
X64082500Y-13700000D03*
X64717500Y-13700000D03*
X65352500Y-13700000D03*
X65987500Y-13700000D03*
X66622500Y-13700000D03*
X67257500Y-13700000D03*
X67257500Y-18900000D03*
X66622500Y-18900000D03*
X65987500Y-18900000D03*
X65352500Y-18900000D03*
X64717500Y-18900000D03*
X64082500Y-18900000D03*
X63447500Y-18900000D03*
X62812500Y-18900000D03*
X62177500Y-18900000D03*
X61542500Y-18900000D03*
%TD*%
D50*
%TO.C,D5*%
X-9550000Y-6225000D03*
X-9550000Y-9525000D03*
%TD*%
D24*
%TO.C,R12*%
X85610000Y-21300000D03*
X84590000Y-21300000D03*
%TD*%
D21*
%TO.C,C33*%
X-22150000Y-6380000D03*
X-22150000Y-5420000D03*
%TD*%
D24*
%TO.C,R72*%
X-18973334Y-3000001D03*
X-19993334Y-3000001D03*
%TD*%
D39*
%TO.C,C7*%
X-120000Y-12400000D03*
X-1080000Y-12400000D03*
%TD*%
D51*
%TO.C,R4*%
X9925000Y-9250000D03*
X8275000Y-9250000D03*
%TD*%
D24*
%TO.C,R17*%
X50710000Y7900000D03*
X49690000Y7900000D03*
%TD*%
%TO.C,R29*%
X50810000Y6050000D03*
X49790000Y6050000D03*
%TD*%
D52*
%TO.C,Q18*%
X-20400000Y-14775000D03*
X-18500000Y-14775000D03*
X-19450000Y-16650000D03*
%TD*%
D16*
%TO.C,J3*%
X55300000Y-17980000D03*
D17*
X54030000Y-17980000D03*
X55300000Y-19250000D03*
X54030000Y-19250000D03*
X55300000Y-20520000D03*
X54030000Y-20520000D03*
X55300000Y-21790000D03*
X54030000Y-21790000D03*
X55300000Y-23060000D03*
X54030000Y-23060000D03*
X55300000Y-24330000D03*
X54030000Y-24330000D03*
X55300000Y-25600000D03*
X54030000Y-25600000D03*
X55300000Y-26870000D03*
X54030000Y-26870000D03*
X55300000Y-28140000D03*
X54030000Y-28140000D03*
X55300000Y-29410000D03*
X54030000Y-29410000D03*
%TD*%
D39*
%TO.C,C35*%
X67880000Y-6700000D03*
X66920000Y-6700000D03*
%TD*%
D24*
%TO.C,R13*%
X85610000Y-22300000D03*
X84590000Y-22300000D03*
%TD*%
D18*
%TO.C,R55*%
X-1110000Y-700000D03*
X-90000Y-700000D03*
%TD*%
D22*
%TO.C,R37*%
X22650000Y-42210000D03*
X22650000Y-41190000D03*
%TD*%
D53*
%TO.C,D3*%
X-9400000Y-14450000D03*
X-9400000Y-16950000D03*
%TD*%
D24*
%TO.C,R24*%
X-21400000Y-44480000D03*
X-22420000Y-44480000D03*
%TD*%
D52*
%TO.C,Q13*%
X14800000Y-5062500D03*
X16700000Y-5062500D03*
X15750000Y-6937500D03*
%TD*%
D29*
%TO.C,R74*%
X69187500Y-6400000D03*
X71012500Y-6400000D03*
%TD*%
D38*
%TO.C,C34*%
X84100000Y-3020000D03*
X84100000Y-3980000D03*
%TD*%
D24*
%TO.C,R34*%
X-23290000Y-22100000D03*
X-24310000Y-22100000D03*
%TD*%
D52*
%TO.C,Q14*%
X-50000Y-9562500D03*
X1850000Y-9562500D03*
X900000Y-11437500D03*
%TD*%
D39*
%TO.C,C2*%
X28680000Y-19550000D03*
X27720000Y-19550000D03*
%TD*%
D21*
%TO.C,C40*%
X65700000Y-21180000D03*
X65700000Y-20220000D03*
%TD*%
D18*
%TO.C,R42*%
X10290000Y-700000D03*
X11310000Y-700000D03*
%TD*%
D54*
%TO.C,C37*%
X65975000Y-24400000D03*
X67875000Y-24400000D03*
%TD*%
D27*
%TO.C,R64*%
X34800000Y-23980000D03*
X34800000Y-25000000D03*
%TD*%
D38*
%TO.C,C36*%
X64750000Y-20220000D03*
X64750000Y-21180000D03*
%TD*%
D24*
%TO.C,R40*%
X25250000Y-35000000D03*
X24230000Y-35000000D03*
%TD*%
D43*
%TO.C,R48*%
X-1450000Y-10825000D03*
X-1450000Y-9175000D03*
%TD*%
D22*
%TO.C,R73*%
X83100000Y-4010000D03*
X83100000Y-2990000D03*
%TD*%
%TO.C,R21*%
X-4000000Y-41760000D03*
X-4000000Y-40740000D03*
%TD*%
D18*
%TO.C,R5*%
X11040000Y-9100000D03*
X12060000Y-9100000D03*
%TD*%
D24*
%TO.C,R11*%
X-21365000Y-25462500D03*
X-22385000Y-25462500D03*
%TD*%
%TO.C,R8*%
X-12840000Y-17600000D03*
X-13860000Y-17600000D03*
%TD*%
D18*
%TO.C,R43*%
X14090000Y-700000D03*
X15110000Y-700000D03*
%TD*%
D23*
%TO.C,C39*%
X67750000Y-22700000D03*
X67750000Y-21150000D03*
%TD*%
D39*
%TO.C,C23*%
X-2670000Y-700000D03*
X-3630000Y-700000D03*
%TD*%
D24*
%TO.C,R1*%
X27410000Y-12550000D03*
X26390000Y-12550000D03*
%TD*%
D55*
%TO.C,C25*%
X18525000Y-24750000D03*
X20075000Y-24750000D03*
%TD*%
D30*
%TO.C,C10*%
X-17400000Y-10700000D03*
X-19300000Y-10700000D03*
%TD*%
D24*
%TO.C,R69*%
X-19973333Y-4100001D03*
X-20993333Y-4100001D03*
%TD*%
D22*
%TO.C,R51*%
X2700000Y-4660000D03*
X2700000Y-3640000D03*
%TD*%
D32*
%TO.C,C13*%
X-13075000Y-18700000D03*
X-14625000Y-18700000D03*
%TD*%
D46*
%TO.C,C16*%
X-8030000Y-14500000D03*
X-7070000Y-14500000D03*
%TD*%
D39*
%TO.C,C18*%
X9380000Y-700000D03*
X8420000Y-700000D03*
%TD*%
D18*
%TO.C,R65*%
X34390000Y-9100000D03*
X35410000Y-9100000D03*
%TD*%
D24*
%TO.C,R7*%
X85610000Y-20300000D03*
X84590000Y-20300000D03*
%TD*%
%TO.C,R22*%
X-21400000Y-40500000D03*
X-22420000Y-40500000D03*
%TD*%
D22*
%TO.C,R20*%
X-8000000Y-10010000D03*
X-8000000Y-8990000D03*
%TD*%
D18*
%TO.C,R58*%
X37790000Y-12100000D03*
X38810000Y-12100000D03*
%TD*%
D38*
%TO.C,C1*%
X14565714Y-27920000D03*
X14565714Y-28880000D03*
%TD*%
D28*
%TO.C,R76*%
X69250000Y-21100000D03*
X69250000Y-22750000D03*
%TD*%
D56*
%TO.C,D4*%
X-9600000Y-4650000D03*
X-9600000Y-2150000D03*
%TD*%
D26*
%TO.C,U6*%
X-3995000Y-7525000D03*
X-5265000Y-7525000D03*
X-6535000Y-7525000D03*
X-7805000Y-7525000D03*
X-7805000Y-2275000D03*
X-6535000Y-2275000D03*
X-5265000Y-2275000D03*
X-3995000Y-2275000D03*
%TD*%
D39*
%TO.C,C17*%
X-5320000Y-22300000D03*
X-6280000Y-22300000D03*
%TD*%
D27*
%TO.C,R49*%
X2700000Y-5540000D03*
X2700000Y-6560000D03*
%TD*%
D46*
%TO.C,C3*%
X18320000Y-16550000D03*
X19280000Y-16550000D03*
%TD*%
D24*
%TO.C,R39*%
X25260000Y-33500000D03*
X24240000Y-33500000D03*
%TD*%
%TO.C,R35*%
X-23290000Y-23050000D03*
X-24310000Y-23050000D03*
%TD*%
D57*
%TO.C,Y1*%
X20500000Y-19950000D03*
X22700000Y-19950000D03*
X22700000Y-21650000D03*
X20500000Y-21650000D03*
%TD*%
D28*
%TO.C,R31*%
X-2250000Y-11975000D03*
X-2250000Y-13625000D03*
%TD*%
D24*
%TO.C,R60*%
X33810000Y-15900000D03*
X32790000Y-15900000D03*
%TD*%
%TO.C,R68*%
X35410000Y-10600000D03*
X34390000Y-10600000D03*
%TD*%
D41*
%TO.C,Q16*%
X19920000Y-52870000D03*
X18020000Y-52870000D03*
X18970000Y-50995000D03*
%TD*%
D24*
%TO.C,R36*%
X5810000Y-9100000D03*
X4790000Y-9100000D03*
%TD*%
D21*
%TO.C,C27*%
X18350000Y-23280000D03*
X18350000Y-22320000D03*
%TD*%
D58*
%TO.C,C9*%
X-14850000Y-5375000D03*
X-14850000Y-2425000D03*
%TD*%
D32*
%TO.C,C5*%
X21975000Y-23250000D03*
X20425000Y-23250000D03*
%TD*%
D28*
%TO.C,R30*%
X-4100000Y-9175000D03*
X-4100000Y-10825000D03*
%TD*%
D59*
%TO.C,Q10*%
X-5737500Y-14150000D03*
X-5737500Y-12250000D03*
X-3862500Y-13200000D03*
%TD*%
D22*
%TO.C,R38*%
X23650000Y-38610000D03*
X23650000Y-37590000D03*
%TD*%
D38*
%TO.C,C30*%
X4115000Y-27870000D03*
X4115000Y-28830000D03*
%TD*%
%TO.C,C14*%
X74000000Y-3020000D03*
X74000000Y-3980000D03*
%TD*%
D22*
%TO.C,R6*%
X-18500000Y-21010000D03*
X-18500000Y-19990000D03*
%TD*%
D25*
%TO.C,Q8*%
X-3562500Y-37600000D03*
X-3562500Y-39500000D03*
X-5437500Y-38550000D03*
%TD*%
D26*
%TO.C,U4*%
X7805000Y-7525000D03*
X6535000Y-7525000D03*
X5265000Y-7525000D03*
X3995000Y-7525000D03*
X3995000Y-2275000D03*
X5265000Y-2275000D03*
X6535000Y-2275000D03*
X7805000Y-2275000D03*
%TD*%
D46*
%TO.C,C8*%
X18320000Y-17550000D03*
X19280000Y-17550000D03*
%TD*%
D24*
%TO.C,R33*%
X-23290000Y-21150000D03*
X-24310000Y-21150000D03*
%TD*%
D22*
%TO.C,R9*%
X-16100000Y-11210000D03*
X-16100000Y-10190000D03*
%TD*%
D18*
%TO.C,R70*%
X-17493333Y-4100001D03*
X-16473333Y-4100001D03*
%TD*%
D53*
%TO.C,D17*%
X-15100000Y-6850000D03*
X-15100000Y-9350000D03*
%TD*%
D60*
%TO.C,L1*%
X-11412500Y-5500000D03*
X-12987500Y-5500000D03*
%TD*%
D18*
%TO.C,R54*%
X-5510000Y-700000D03*
X-4490000Y-700000D03*
%TD*%
%TO.C,R71*%
X-6310000Y-11000000D03*
X-5290000Y-11000000D03*
%TD*%
D16*
%TO.C,J1*%
X19325000Y-3485000D03*
D17*
X19325000Y-4755000D03*
X19325000Y-6025000D03*
X19325000Y-7295000D03*
X19325000Y-8565000D03*
X19325000Y-9835000D03*
X19325000Y-11105000D03*
X19325000Y-12375000D03*
X19325000Y-13645000D03*
X19325000Y-14915000D03*
%TD*%
D26*
%TO.C,U5*%
X1405000Y-7525000D03*
X135000Y-7525000D03*
X-1135000Y-7525000D03*
X-2405000Y-7525000D03*
X-2405000Y-2275000D03*
X-1135000Y-2275000D03*
X135000Y-2275000D03*
X1405000Y-2275000D03*
%TD*%
D18*
%TO.C,R18*%
X-7110000Y-10050000D03*
X-6090000Y-10050000D03*
%TD*%
D38*
%TO.C,C12*%
X63900000Y-3020000D03*
X63900000Y-3980000D03*
%TD*%
M02*
