%TF.GenerationSoftware,KiCad,Pcbnew,7.0.11*%
%TF.CreationDate,2025-06-24T23:57:38+09:00*%
%TF.ProjectId,2ndLayer_3rdLayer,326e644c-6179-4657-925f-3372644c6179,rev?*%
%TF.SameCoordinates,Original*%
%TF.FileFunction,Legend,Bot*%
%TF.FilePolarity,Positive*%
%FSLAX46Y46*%
G04 Gerber Fmt 4.6, Leading zero omitted, Abs format (unit mm)*
G04 Created by KiCad (PCBNEW 7.0.11) date 2025-06-24 23:57:38*
%MOMM*%
%LPD*%
G01*
G04 APERTURE LIST*
G04 Aperture macros list*
%AMRoundRect*
0 Rectangle with rounded corners*
0 $1 Rounding radius*
0 $2 $3 $4 $5 $6 $7 $8 $9 X,Y pos of 4 corners*
0 Add a 4 corners polygon primitive as box body*
4,1,4,$2,$3,$4,$5,$6,$7,$8,$9,$2,$3,0*
0 Add four circle primitives for the rounded corners*
1,1,$1+$1,$2,$3*
1,1,$1+$1,$4,$5*
1,1,$1+$1,$6,$7*
1,1,$1+$1,$8,$9*
0 Add four rect primitives between the rounded corners*
20,1,$1+$1,$2,$3,$4,$5,0*
20,1,$1+$1,$4,$5,$6,$7,0*
20,1,$1+$1,$6,$7,$8,$9,0*
20,1,$1+$1,$8,$9,$2,$3,0*%
%AMHorizOval*
0 Thick line with rounded ends*
0 $1 width*
0 $2 $3 position (X,Y) of the first rounded end (center of the circle)*
0 $4 $5 position (X,Y) of the second rounded end (center of the circle)*
0 Add line between two ends*
20,1,$1,$2,$3,$4,$5,0*
0 Add two circle primitives to create the rounded ends*
1,1,$1,$2,$3*
1,1,$1,$4,$5*%
G04 Aperture macros list end*
%ADD10C,0.110000*%
%ADD11C,0.120000*%
%ADD12C,0.150000*%
%ADD13C,0.250000*%
%ADD14C,0.900000*%
%ADD15HorizOval,3.100000X0.424264X0.424264X-0.424264X-0.424264X0*%
%ADD16RoundRect,0.350000X-0.308129X0.387371X-0.387371X-0.308129X0.308129X-0.387371X0.387371X0.308129X0*%
%ADD17C,1.400000*%
%ADD18C,2.000000*%
%ADD19RoundRect,0.425000X0.425000X0.425000X-0.425000X0.425000X-0.425000X-0.425000X0.425000X-0.425000X0*%
%ADD20C,1.700000*%
%ADD21R,1.000000X1.000000*%
%ADD22O,1.000000X1.000000*%
%ADD23RoundRect,0.135000X-0.135000X-0.185000X0.135000X-0.185000X0.135000X0.185000X-0.135000X0.185000X0*%
%ADD24RoundRect,0.375000X-0.625000X-0.375000X0.625000X-0.375000X0.625000X0.375000X-0.625000X0.375000X0*%
%ADD25RoundRect,0.500000X-0.500000X-1.400000X0.500000X-1.400000X0.500000X1.400000X-0.500000X1.400000X0*%
%ADD26RoundRect,0.140000X-0.140000X-0.170000X0.140000X-0.170000X0.140000X0.170000X-0.140000X0.170000X0*%
%ADD27RoundRect,0.135000X-0.185000X0.135000X-0.185000X-0.135000X0.185000X-0.135000X0.185000X0.135000X0*%
%ADD28RoundRect,0.225000X0.250000X-0.225000X0.250000X0.225000X-0.250000X0.225000X-0.250000X-0.225000X0*%
%ADD29RoundRect,0.135000X0.185000X-0.135000X0.185000X0.135000X-0.185000X0.135000X-0.185000X-0.135000X0*%
%ADD30RoundRect,0.200000X-0.250000X-0.200000X0.250000X-0.200000X0.250000X0.200000X-0.250000X0.200000X0*%
%ADD31RoundRect,0.150000X0.150000X-0.675000X0.150000X0.675000X-0.150000X0.675000X-0.150000X-0.675000X0*%
%ADD32RoundRect,0.135000X0.135000X0.185000X-0.135000X0.185000X-0.135000X-0.185000X0.135000X-0.185000X0*%
%ADD33RoundRect,0.200000X0.275000X-0.200000X0.275000X0.200000X-0.275000X0.200000X-0.275000X-0.200000X0*%
%ADD34RoundRect,0.237500X0.250000X0.237500X-0.250000X0.237500X-0.250000X-0.237500X0.250000X-0.237500X0*%
%ADD35RoundRect,0.150000X0.587500X0.150000X-0.587500X0.150000X-0.587500X-0.150000X0.587500X-0.150000X0*%
%ADD36RoundRect,0.250000X0.250000X0.475000X-0.250000X0.475000X-0.250000X-0.475000X0.250000X-0.475000X0*%
%ADD37RoundRect,0.140000X-0.170000X0.140000X-0.170000X-0.140000X0.170000X-0.140000X0.170000X0.140000X0*%
%ADD38RoundRect,0.175000X0.175000X-0.325000X0.175000X0.325000X-0.175000X0.325000X-0.175000X-0.325000X0*%
%ADD39RoundRect,0.225000X0.225000X0.250000X-0.225000X0.250000X-0.225000X-0.250000X0.225000X-0.250000X0*%
%ADD40O,1.000000X2.100000*%
%ADD41O,1.000000X1.800000*%
%ADD42R,0.600000X1.240000*%
%ADD43R,0.300000X1.240000*%
%ADD44C,0.650000*%
%ADD45RoundRect,0.140000X0.170000X-0.140000X0.170000X0.140000X-0.170000X0.140000X-0.170000X-0.140000X0*%
%ADD46RoundRect,0.175000X0.175000X0.175000X-0.175000X0.175000X-0.175000X-0.175000X0.175000X-0.175000X0*%
%ADD47RoundRect,0.200000X0.200000X-0.250000X0.200000X0.250000X-0.200000X0.250000X-0.200000X-0.250000X0*%
%ADD48RoundRect,0.175000X0.325000X0.175000X-0.325000X0.175000X-0.325000X-0.175000X0.325000X-0.175000X0*%
%ADD49RoundRect,0.225000X-0.250000X0.225000X-0.250000X-0.225000X0.250000X-0.225000X0.250000X0.225000X0*%
%ADD50RoundRect,0.200000X-0.335876X-0.053033X-0.053033X-0.335876X0.335876X0.053033X0.053033X0.335876X0*%
%ADD51RoundRect,0.075000X0.725000X0.075000X-0.725000X0.075000X-0.725000X-0.075000X0.725000X-0.075000X0*%
%ADD52RoundRect,0.075000X0.075000X0.725000X-0.075000X0.725000X-0.075000X-0.725000X0.075000X-0.725000X0*%
%ADD53RoundRect,0.140000X0.140000X0.170000X-0.140000X0.170000X-0.140000X-0.170000X0.140000X-0.170000X0*%
%ADD54RoundRect,0.200000X-0.200000X-0.275000X0.200000X-0.275000X0.200000X0.275000X-0.200000X0.275000X0*%
%ADD55RoundRect,0.140000X0.219203X0.021213X0.021213X0.219203X-0.219203X-0.021213X-0.021213X-0.219203X0*%
%ADD56RoundRect,0.175000X-0.175000X0.175000X-0.175000X-0.175000X0.175000X-0.175000X0.175000X0.175000X0*%
%ADD57RoundRect,0.175000X-0.325000X-0.175000X0.325000X-0.175000X0.325000X0.175000X-0.325000X0.175000X0*%
%ADD58R,0.400000X1.200000*%
%ADD59RoundRect,0.225000X-0.375000X0.225000X-0.375000X-0.225000X0.375000X-0.225000X0.375000X0.225000X0*%
%ADD60RoundRect,0.200000X0.200000X0.275000X-0.200000X0.275000X-0.200000X-0.275000X0.200000X-0.275000X0*%
%ADD61RoundRect,0.150000X-0.587500X-0.150000X0.587500X-0.150000X0.587500X0.150000X-0.587500X0.150000X0*%
%ADD62RoundRect,0.150000X-0.150000X0.587500X-0.150000X-0.587500X0.150000X-0.587500X0.150000X0.587500X0*%
%ADD63RoundRect,0.225000X-0.225000X-0.250000X0.225000X-0.250000X0.225000X0.250000X-0.225000X0.250000X0*%
%ADD64RoundRect,0.175000X0.175000X-0.175000X0.175000X0.175000X-0.175000X0.175000X-0.175000X-0.175000X0*%
%ADD65R,1.400000X1.200000*%
%ADD66RoundRect,0.200000X-0.275000X0.200000X-0.275000X-0.200000X0.275000X-0.200000X0.275000X0.200000X0*%
%ADD67RoundRect,0.150000X0.150000X-0.587500X0.150000X0.587500X-0.150000X0.587500X-0.150000X-0.587500X0*%
%ADD68RoundRect,0.250000X0.650000X-0.325000X0.650000X0.325000X-0.650000X0.325000X-0.650000X-0.325000X0*%
%ADD69RoundRect,0.218750X-0.256250X0.218750X-0.256250X-0.218750X0.256250X-0.218750X0.256250X0.218750X0*%
G04 APERTURE END LIST*
D10*
X136908333Y-88929624D02*
X136908333Y-89729624D01*
X136908333Y-89729624D02*
X137098809Y-89729624D01*
X137098809Y-89729624D02*
X137213095Y-89691529D01*
X137213095Y-89691529D02*
X137289285Y-89615339D01*
X137289285Y-89615339D02*
X137327380Y-89539148D01*
X137327380Y-89539148D02*
X137365476Y-89386767D01*
X137365476Y-89386767D02*
X137365476Y-89272481D01*
X137365476Y-89272481D02*
X137327380Y-89120100D01*
X137327380Y-89120100D02*
X137289285Y-89043910D01*
X137289285Y-89043910D02*
X137213095Y-88967720D01*
X137213095Y-88967720D02*
X137098809Y-88929624D01*
X137098809Y-88929624D02*
X136908333Y-88929624D01*
X138013095Y-88967720D02*
X137936904Y-88929624D01*
X137936904Y-88929624D02*
X137784523Y-88929624D01*
X137784523Y-88929624D02*
X137708333Y-88967720D01*
X137708333Y-88967720D02*
X137670237Y-89043910D01*
X137670237Y-89043910D02*
X137670237Y-89348672D01*
X137670237Y-89348672D02*
X137708333Y-89424862D01*
X137708333Y-89424862D02*
X137784523Y-89462958D01*
X137784523Y-89462958D02*
X137936904Y-89462958D01*
X137936904Y-89462958D02*
X138013095Y-89424862D01*
X138013095Y-89424862D02*
X138051190Y-89348672D01*
X138051190Y-89348672D02*
X138051190Y-89272481D01*
X138051190Y-89272481D02*
X137670237Y-89196291D01*
X138355951Y-88967720D02*
X138432142Y-88929624D01*
X138432142Y-88929624D02*
X138584523Y-88929624D01*
X138584523Y-88929624D02*
X138660713Y-88967720D01*
X138660713Y-88967720D02*
X138698809Y-89043910D01*
X138698809Y-89043910D02*
X138698809Y-89082005D01*
X138698809Y-89082005D02*
X138660713Y-89158196D01*
X138660713Y-89158196D02*
X138584523Y-89196291D01*
X138584523Y-89196291D02*
X138470237Y-89196291D01*
X138470237Y-89196291D02*
X138394047Y-89234386D01*
X138394047Y-89234386D02*
X138355951Y-89310577D01*
X138355951Y-89310577D02*
X138355951Y-89348672D01*
X138355951Y-89348672D02*
X138394047Y-89424862D01*
X138394047Y-89424862D02*
X138470237Y-89462958D01*
X138470237Y-89462958D02*
X138584523Y-89462958D01*
X138584523Y-89462958D02*
X138660713Y-89424862D01*
X139041666Y-88929624D02*
X139041666Y-89462958D01*
X139041666Y-89729624D02*
X139003570Y-89691529D01*
X139003570Y-89691529D02*
X139041666Y-89653434D01*
X139041666Y-89653434D02*
X139079761Y-89691529D01*
X139079761Y-89691529D02*
X139041666Y-89729624D01*
X139041666Y-89729624D02*
X139041666Y-89653434D01*
X139765475Y-89462958D02*
X139765475Y-88815339D01*
X139765475Y-88815339D02*
X139727380Y-88739148D01*
X139727380Y-88739148D02*
X139689284Y-88701053D01*
X139689284Y-88701053D02*
X139613094Y-88662958D01*
X139613094Y-88662958D02*
X139498808Y-88662958D01*
X139498808Y-88662958D02*
X139422618Y-88701053D01*
X139765475Y-88967720D02*
X139689284Y-88929624D01*
X139689284Y-88929624D02*
X139536903Y-88929624D01*
X139536903Y-88929624D02*
X139460713Y-88967720D01*
X139460713Y-88967720D02*
X139422618Y-89005815D01*
X139422618Y-89005815D02*
X139384522Y-89082005D01*
X139384522Y-89082005D02*
X139384522Y-89310577D01*
X139384522Y-89310577D02*
X139422618Y-89386767D01*
X139422618Y-89386767D02*
X139460713Y-89424862D01*
X139460713Y-89424862D02*
X139536903Y-89462958D01*
X139536903Y-89462958D02*
X139689284Y-89462958D01*
X139689284Y-89462958D02*
X139765475Y-89424862D01*
X140146428Y-89462958D02*
X140146428Y-88929624D01*
X140146428Y-89386767D02*
X140184523Y-89424862D01*
X140184523Y-89424862D02*
X140260713Y-89462958D01*
X140260713Y-89462958D02*
X140374999Y-89462958D01*
X140374999Y-89462958D02*
X140451190Y-89424862D01*
X140451190Y-89424862D02*
X140489285Y-89348672D01*
X140489285Y-89348672D02*
X140489285Y-88929624D01*
X141175000Y-88967720D02*
X141098809Y-88929624D01*
X141098809Y-88929624D02*
X140946428Y-88929624D01*
X140946428Y-88929624D02*
X140870238Y-88967720D01*
X140870238Y-88967720D02*
X140832142Y-89043910D01*
X140832142Y-89043910D02*
X140832142Y-89348672D01*
X140832142Y-89348672D02*
X140870238Y-89424862D01*
X140870238Y-89424862D02*
X140946428Y-89462958D01*
X140946428Y-89462958D02*
X141098809Y-89462958D01*
X141098809Y-89462958D02*
X141175000Y-89424862D01*
X141175000Y-89424862D02*
X141213095Y-89348672D01*
X141213095Y-89348672D02*
X141213095Y-89272481D01*
X141213095Y-89272481D02*
X140832142Y-89196291D01*
X141898809Y-88929624D02*
X141898809Y-89729624D01*
X141898809Y-88967720D02*
X141822618Y-88929624D01*
X141822618Y-88929624D02*
X141670237Y-88929624D01*
X141670237Y-88929624D02*
X141594047Y-88967720D01*
X141594047Y-88967720D02*
X141555952Y-89005815D01*
X141555952Y-89005815D02*
X141517856Y-89082005D01*
X141517856Y-89082005D02*
X141517856Y-89310577D01*
X141517856Y-89310577D02*
X141555952Y-89386767D01*
X141555952Y-89386767D02*
X141594047Y-89424862D01*
X141594047Y-89424862D02*
X141670237Y-89462958D01*
X141670237Y-89462958D02*
X141822618Y-89462958D01*
X141822618Y-89462958D02*
X141898809Y-89424862D01*
X142889286Y-88929624D02*
X142889286Y-89729624D01*
X142889286Y-89424862D02*
X142965476Y-89462958D01*
X142965476Y-89462958D02*
X143117857Y-89462958D01*
X143117857Y-89462958D02*
X143194048Y-89424862D01*
X143194048Y-89424862D02*
X143232143Y-89386767D01*
X143232143Y-89386767D02*
X143270238Y-89310577D01*
X143270238Y-89310577D02*
X143270238Y-89082005D01*
X143270238Y-89082005D02*
X143232143Y-89005815D01*
X143232143Y-89005815D02*
X143194048Y-88967720D01*
X143194048Y-88967720D02*
X143117857Y-88929624D01*
X143117857Y-88929624D02*
X142965476Y-88929624D01*
X142965476Y-88929624D02*
X142889286Y-88967720D01*
X143536905Y-89462958D02*
X143727381Y-88929624D01*
X143917858Y-89462958D02*
X143727381Y-88929624D01*
X143727381Y-88929624D02*
X143651191Y-88739148D01*
X143651191Y-88739148D02*
X143613096Y-88701053D01*
X143613096Y-88701053D02*
X143536905Y-88662958D01*
X135822618Y-88022577D02*
X135784523Y-88060672D01*
X135784523Y-88060672D02*
X135708332Y-88098767D01*
X135708332Y-88098767D02*
X135632142Y-88098767D01*
X135632142Y-88098767D02*
X135555951Y-88060672D01*
X135555951Y-88060672D02*
X135517856Y-88022577D01*
X135517856Y-88022577D02*
X135479761Y-87946386D01*
X135479761Y-87946386D02*
X135479761Y-87870196D01*
X135479761Y-87870196D02*
X135517856Y-87794005D01*
X135517856Y-87794005D02*
X135555951Y-87755910D01*
X135555951Y-87755910D02*
X135632142Y-87717815D01*
X135632142Y-87717815D02*
X135708332Y-87717815D01*
X135708332Y-87717815D02*
X135784523Y-87755910D01*
X135784523Y-87755910D02*
X135822618Y-87794005D01*
X135822618Y-88098767D02*
X135822618Y-87794005D01*
X135822618Y-87794005D02*
X135860713Y-87755910D01*
X135860713Y-87755910D02*
X135898808Y-87755910D01*
X135898808Y-87755910D02*
X135974999Y-87794005D01*
X135974999Y-87794005D02*
X136013094Y-87870196D01*
X136013094Y-87870196D02*
X136013094Y-88060672D01*
X136013094Y-88060672D02*
X135936904Y-88174958D01*
X135936904Y-88174958D02*
X135822618Y-88251148D01*
X135822618Y-88251148D02*
X135670237Y-88289243D01*
X135670237Y-88289243D02*
X135517856Y-88251148D01*
X135517856Y-88251148D02*
X135403570Y-88174958D01*
X135403570Y-88174958D02*
X135327380Y-88060672D01*
X135327380Y-88060672D02*
X135289284Y-87908291D01*
X135289284Y-87908291D02*
X135327380Y-87755910D01*
X135327380Y-87755910D02*
X135403570Y-87641624D01*
X135403570Y-87641624D02*
X135517856Y-87565434D01*
X135517856Y-87565434D02*
X135670237Y-87527339D01*
X135670237Y-87527339D02*
X135822618Y-87565434D01*
X135822618Y-87565434D02*
X135936904Y-87641624D01*
X136698808Y-87679720D02*
X136622617Y-87641624D01*
X136622617Y-87641624D02*
X136470236Y-87641624D01*
X136470236Y-87641624D02*
X136394046Y-87679720D01*
X136394046Y-87679720D02*
X136355951Y-87717815D01*
X136355951Y-87717815D02*
X136317855Y-87794005D01*
X136317855Y-87794005D02*
X136317855Y-88022577D01*
X136317855Y-88022577D02*
X136355951Y-88098767D01*
X136355951Y-88098767D02*
X136394046Y-88136862D01*
X136394046Y-88136862D02*
X136470236Y-88174958D01*
X136470236Y-88174958D02*
X136622617Y-88174958D01*
X136622617Y-88174958D02*
X136698808Y-88136862D01*
X137384522Y-87641624D02*
X137384522Y-88060672D01*
X137384522Y-88060672D02*
X137346427Y-88136862D01*
X137346427Y-88136862D02*
X137270236Y-88174958D01*
X137270236Y-88174958D02*
X137117855Y-88174958D01*
X137117855Y-88174958D02*
X137041665Y-88136862D01*
X137384522Y-87679720D02*
X137308331Y-87641624D01*
X137308331Y-87641624D02*
X137117855Y-87641624D01*
X137117855Y-87641624D02*
X137041665Y-87679720D01*
X137041665Y-87679720D02*
X137003569Y-87755910D01*
X137003569Y-87755910D02*
X137003569Y-87832100D01*
X137003569Y-87832100D02*
X137041665Y-87908291D01*
X137041665Y-87908291D02*
X137117855Y-87946386D01*
X137117855Y-87946386D02*
X137308331Y-87946386D01*
X137308331Y-87946386D02*
X137384522Y-87984481D01*
X137651189Y-88174958D02*
X137955951Y-88174958D01*
X137765475Y-88441624D02*
X137765475Y-87755910D01*
X137765475Y-87755910D02*
X137803570Y-87679720D01*
X137803570Y-87679720D02*
X137879760Y-87641624D01*
X137879760Y-87641624D02*
X137955951Y-87641624D01*
X138032142Y-87565434D02*
X138641665Y-87565434D01*
X138832142Y-88174958D02*
X138832142Y-87641624D01*
X138832142Y-88098767D02*
X138870237Y-88136862D01*
X138870237Y-88136862D02*
X138946427Y-88174958D01*
X138946427Y-88174958D02*
X139060713Y-88174958D01*
X139060713Y-88174958D02*
X139136904Y-88136862D01*
X139136904Y-88136862D02*
X139174999Y-88060672D01*
X139174999Y-88060672D02*
X139174999Y-87641624D01*
X139860714Y-87679720D02*
X139784523Y-87641624D01*
X139784523Y-87641624D02*
X139632142Y-87641624D01*
X139632142Y-87641624D02*
X139555952Y-87679720D01*
X139555952Y-87679720D02*
X139517856Y-87755910D01*
X139517856Y-87755910D02*
X139517856Y-88060672D01*
X139517856Y-88060672D02*
X139555952Y-88136862D01*
X139555952Y-88136862D02*
X139632142Y-88174958D01*
X139632142Y-88174958D02*
X139784523Y-88174958D01*
X139784523Y-88174958D02*
X139860714Y-88136862D01*
X139860714Y-88136862D02*
X139898809Y-88060672D01*
X139898809Y-88060672D02*
X139898809Y-87984481D01*
X139898809Y-87984481D02*
X139517856Y-87908291D01*
X140241666Y-87641624D02*
X140241666Y-88441624D01*
X140317856Y-87946386D02*
X140546428Y-87641624D01*
X140546428Y-88174958D02*
X140241666Y-87870196D01*
X141003570Y-87641624D02*
X140927380Y-87679720D01*
X140927380Y-87679720D02*
X140889285Y-87717815D01*
X140889285Y-87717815D02*
X140851189Y-87794005D01*
X140851189Y-87794005D02*
X140851189Y-88022577D01*
X140851189Y-88022577D02*
X140889285Y-88098767D01*
X140889285Y-88098767D02*
X140927380Y-88136862D01*
X140927380Y-88136862D02*
X141003570Y-88174958D01*
X141003570Y-88174958D02*
X141117856Y-88174958D01*
X141117856Y-88174958D02*
X141194047Y-88136862D01*
X141194047Y-88136862D02*
X141232142Y-88098767D01*
X141232142Y-88098767D02*
X141270237Y-88022577D01*
X141270237Y-88022577D02*
X141270237Y-87794005D01*
X141270237Y-87794005D02*
X141232142Y-87717815D01*
X141232142Y-87717815D02*
X141194047Y-87679720D01*
X141194047Y-87679720D02*
X141117856Y-87641624D01*
X141117856Y-87641624D02*
X141003570Y-87641624D01*
X141613095Y-88174958D02*
X141613095Y-87641624D01*
X141613095Y-88098767D02*
X141651190Y-88136862D01*
X141651190Y-88136862D02*
X141727380Y-88174958D01*
X141727380Y-88174958D02*
X141841666Y-88174958D01*
X141841666Y-88174958D02*
X141917857Y-88136862D01*
X141917857Y-88136862D02*
X141955952Y-88060672D01*
X141955952Y-88060672D02*
X141955952Y-87641624D01*
X142641667Y-87679720D02*
X142565476Y-87641624D01*
X142565476Y-87641624D02*
X142413095Y-87641624D01*
X142413095Y-87641624D02*
X142336905Y-87679720D01*
X142336905Y-87679720D02*
X142298809Y-87755910D01*
X142298809Y-87755910D02*
X142298809Y-88060672D01*
X142298809Y-88060672D02*
X142336905Y-88136862D01*
X142336905Y-88136862D02*
X142413095Y-88174958D01*
X142413095Y-88174958D02*
X142565476Y-88174958D01*
X142565476Y-88174958D02*
X142641667Y-88136862D01*
X142641667Y-88136862D02*
X142679762Y-88060672D01*
X142679762Y-88060672D02*
X142679762Y-87984481D01*
X142679762Y-87984481D02*
X142298809Y-87908291D01*
X143022619Y-87641624D02*
X143022619Y-88441624D01*
X143098809Y-87946386D02*
X143327381Y-87641624D01*
X143327381Y-88174958D02*
X143022619Y-87870196D01*
X143784523Y-87641624D02*
X143708333Y-87679720D01*
X143708333Y-87679720D02*
X143670238Y-87717815D01*
X143670238Y-87717815D02*
X143632142Y-87794005D01*
X143632142Y-87794005D02*
X143632142Y-88022577D01*
X143632142Y-88022577D02*
X143670238Y-88098767D01*
X143670238Y-88098767D02*
X143708333Y-88136862D01*
X143708333Y-88136862D02*
X143784523Y-88174958D01*
X143784523Y-88174958D02*
X143898809Y-88174958D01*
X143898809Y-88174958D02*
X143975000Y-88136862D01*
X143975000Y-88136862D02*
X144013095Y-88098767D01*
X144013095Y-88098767D02*
X144051190Y-88022577D01*
X144051190Y-88022577D02*
X144051190Y-87794005D01*
X144051190Y-87794005D02*
X144013095Y-87717815D01*
X144013095Y-87717815D02*
X143975000Y-87679720D01*
X143975000Y-87679720D02*
X143898809Y-87641624D01*
X143898809Y-87641624D02*
X143784523Y-87641624D01*
X144394048Y-88174958D02*
X144394048Y-87641624D01*
X144394048Y-88098767D02*
X144432143Y-88136862D01*
X144432143Y-88136862D02*
X144508333Y-88174958D01*
X144508333Y-88174958D02*
X144622619Y-88174958D01*
X144622619Y-88174958D02*
X144698810Y-88136862D01*
X144698810Y-88136862D02*
X144736905Y-88060672D01*
X144736905Y-88060672D02*
X144736905Y-87641624D01*
X145422620Y-87679720D02*
X145346429Y-87641624D01*
X145346429Y-87641624D02*
X145194048Y-87641624D01*
X145194048Y-87641624D02*
X145117858Y-87679720D01*
X145117858Y-87679720D02*
X145079762Y-87755910D01*
X145079762Y-87755910D02*
X145079762Y-88060672D01*
X145079762Y-88060672D02*
X145117858Y-88136862D01*
X145117858Y-88136862D02*
X145194048Y-88174958D01*
X145194048Y-88174958D02*
X145346429Y-88174958D01*
X145346429Y-88174958D02*
X145422620Y-88136862D01*
X145422620Y-88136862D02*
X145460715Y-88060672D01*
X145460715Y-88060672D02*
X145460715Y-87984481D01*
X145460715Y-87984481D02*
X145079762Y-87908291D01*
X150796666Y-134140375D02*
X150796666Y-133340375D01*
X150796666Y-133340375D02*
X150606190Y-133340375D01*
X150606190Y-133340375D02*
X150491904Y-133378470D01*
X150491904Y-133378470D02*
X150415714Y-133454660D01*
X150415714Y-133454660D02*
X150377619Y-133530851D01*
X150377619Y-133530851D02*
X150339523Y-133683232D01*
X150339523Y-133683232D02*
X150339523Y-133797518D01*
X150339523Y-133797518D02*
X150377619Y-133949899D01*
X150377619Y-133949899D02*
X150415714Y-134026089D01*
X150415714Y-134026089D02*
X150491904Y-134102280D01*
X150491904Y-134102280D02*
X150606190Y-134140375D01*
X150606190Y-134140375D02*
X150796666Y-134140375D01*
X149691904Y-134102280D02*
X149768095Y-134140375D01*
X149768095Y-134140375D02*
X149920476Y-134140375D01*
X149920476Y-134140375D02*
X149996666Y-134102280D01*
X149996666Y-134102280D02*
X150034762Y-134026089D01*
X150034762Y-134026089D02*
X150034762Y-133721327D01*
X150034762Y-133721327D02*
X149996666Y-133645137D01*
X149996666Y-133645137D02*
X149920476Y-133607041D01*
X149920476Y-133607041D02*
X149768095Y-133607041D01*
X149768095Y-133607041D02*
X149691904Y-133645137D01*
X149691904Y-133645137D02*
X149653809Y-133721327D01*
X149653809Y-133721327D02*
X149653809Y-133797518D01*
X149653809Y-133797518D02*
X150034762Y-133873708D01*
X149349048Y-134102280D02*
X149272857Y-134140375D01*
X149272857Y-134140375D02*
X149120476Y-134140375D01*
X149120476Y-134140375D02*
X149044286Y-134102280D01*
X149044286Y-134102280D02*
X149006190Y-134026089D01*
X149006190Y-134026089D02*
X149006190Y-133987994D01*
X149006190Y-133987994D02*
X149044286Y-133911803D01*
X149044286Y-133911803D02*
X149120476Y-133873708D01*
X149120476Y-133873708D02*
X149234762Y-133873708D01*
X149234762Y-133873708D02*
X149310952Y-133835613D01*
X149310952Y-133835613D02*
X149349048Y-133759422D01*
X149349048Y-133759422D02*
X149349048Y-133721327D01*
X149349048Y-133721327D02*
X149310952Y-133645137D01*
X149310952Y-133645137D02*
X149234762Y-133607041D01*
X149234762Y-133607041D02*
X149120476Y-133607041D01*
X149120476Y-133607041D02*
X149044286Y-133645137D01*
X148663333Y-134140375D02*
X148663333Y-133607041D01*
X148663333Y-133340375D02*
X148701429Y-133378470D01*
X148701429Y-133378470D02*
X148663333Y-133416565D01*
X148663333Y-133416565D02*
X148625238Y-133378470D01*
X148625238Y-133378470D02*
X148663333Y-133340375D01*
X148663333Y-133340375D02*
X148663333Y-133416565D01*
X147939524Y-133607041D02*
X147939524Y-134254660D01*
X147939524Y-134254660D02*
X147977619Y-134330851D01*
X147977619Y-134330851D02*
X148015715Y-134368946D01*
X148015715Y-134368946D02*
X148091905Y-134407041D01*
X148091905Y-134407041D02*
X148206191Y-134407041D01*
X148206191Y-134407041D02*
X148282381Y-134368946D01*
X147939524Y-134102280D02*
X148015715Y-134140375D01*
X148015715Y-134140375D02*
X148168096Y-134140375D01*
X148168096Y-134140375D02*
X148244286Y-134102280D01*
X148244286Y-134102280D02*
X148282381Y-134064184D01*
X148282381Y-134064184D02*
X148320477Y-133987994D01*
X148320477Y-133987994D02*
X148320477Y-133759422D01*
X148320477Y-133759422D02*
X148282381Y-133683232D01*
X148282381Y-133683232D02*
X148244286Y-133645137D01*
X148244286Y-133645137D02*
X148168096Y-133607041D01*
X148168096Y-133607041D02*
X148015715Y-133607041D01*
X148015715Y-133607041D02*
X147939524Y-133645137D01*
X147558571Y-133607041D02*
X147558571Y-134140375D01*
X147558571Y-133683232D02*
X147520476Y-133645137D01*
X147520476Y-133645137D02*
X147444286Y-133607041D01*
X147444286Y-133607041D02*
X147330000Y-133607041D01*
X147330000Y-133607041D02*
X147253809Y-133645137D01*
X147253809Y-133645137D02*
X147215714Y-133721327D01*
X147215714Y-133721327D02*
X147215714Y-134140375D01*
X146529999Y-134102280D02*
X146606190Y-134140375D01*
X146606190Y-134140375D02*
X146758571Y-134140375D01*
X146758571Y-134140375D02*
X146834761Y-134102280D01*
X146834761Y-134102280D02*
X146872857Y-134026089D01*
X146872857Y-134026089D02*
X146872857Y-133721327D01*
X146872857Y-133721327D02*
X146834761Y-133645137D01*
X146834761Y-133645137D02*
X146758571Y-133607041D01*
X146758571Y-133607041D02*
X146606190Y-133607041D01*
X146606190Y-133607041D02*
X146529999Y-133645137D01*
X146529999Y-133645137D02*
X146491904Y-133721327D01*
X146491904Y-133721327D02*
X146491904Y-133797518D01*
X146491904Y-133797518D02*
X146872857Y-133873708D01*
X145806190Y-134140375D02*
X145806190Y-133340375D01*
X145806190Y-134102280D02*
X145882381Y-134140375D01*
X145882381Y-134140375D02*
X146034762Y-134140375D01*
X146034762Y-134140375D02*
X146110952Y-134102280D01*
X146110952Y-134102280D02*
X146149047Y-134064184D01*
X146149047Y-134064184D02*
X146187143Y-133987994D01*
X146187143Y-133987994D02*
X146187143Y-133759422D01*
X146187143Y-133759422D02*
X146149047Y-133683232D01*
X146149047Y-133683232D02*
X146110952Y-133645137D01*
X146110952Y-133645137D02*
X146034762Y-133607041D01*
X146034762Y-133607041D02*
X145882381Y-133607041D01*
X145882381Y-133607041D02*
X145806190Y-133645137D01*
X144815713Y-134140375D02*
X144815713Y-133340375D01*
X144815713Y-133645137D02*
X144739523Y-133607041D01*
X144739523Y-133607041D02*
X144587142Y-133607041D01*
X144587142Y-133607041D02*
X144510951Y-133645137D01*
X144510951Y-133645137D02*
X144472856Y-133683232D01*
X144472856Y-133683232D02*
X144434761Y-133759422D01*
X144434761Y-133759422D02*
X144434761Y-133987994D01*
X144434761Y-133987994D02*
X144472856Y-134064184D01*
X144472856Y-134064184D02*
X144510951Y-134102280D01*
X144510951Y-134102280D02*
X144587142Y-134140375D01*
X144587142Y-134140375D02*
X144739523Y-134140375D01*
X144739523Y-134140375D02*
X144815713Y-134102280D01*
X144168094Y-133607041D02*
X143977618Y-134140375D01*
X143787141Y-133607041D02*
X143977618Y-134140375D01*
X143977618Y-134140375D02*
X144053808Y-134330851D01*
X144053808Y-134330851D02*
X144091903Y-134368946D01*
X144091903Y-134368946D02*
X144168094Y-134407041D01*
X151882381Y-135047422D02*
X151920476Y-135009327D01*
X151920476Y-135009327D02*
X151996667Y-134971232D01*
X151996667Y-134971232D02*
X152072857Y-134971232D01*
X152072857Y-134971232D02*
X152149048Y-135009327D01*
X152149048Y-135009327D02*
X152187143Y-135047422D01*
X152187143Y-135047422D02*
X152225238Y-135123613D01*
X152225238Y-135123613D02*
X152225238Y-135199803D01*
X152225238Y-135199803D02*
X152187143Y-135275994D01*
X152187143Y-135275994D02*
X152149048Y-135314089D01*
X152149048Y-135314089D02*
X152072857Y-135352184D01*
X152072857Y-135352184D02*
X151996667Y-135352184D01*
X151996667Y-135352184D02*
X151920476Y-135314089D01*
X151920476Y-135314089D02*
X151882381Y-135275994D01*
X151882381Y-134971232D02*
X151882381Y-135275994D01*
X151882381Y-135275994D02*
X151844286Y-135314089D01*
X151844286Y-135314089D02*
X151806191Y-135314089D01*
X151806191Y-135314089D02*
X151730000Y-135275994D01*
X151730000Y-135275994D02*
X151691905Y-135199803D01*
X151691905Y-135199803D02*
X151691905Y-135009327D01*
X151691905Y-135009327D02*
X151768096Y-134895041D01*
X151768096Y-134895041D02*
X151882381Y-134818851D01*
X151882381Y-134818851D02*
X152034762Y-134780756D01*
X152034762Y-134780756D02*
X152187143Y-134818851D01*
X152187143Y-134818851D02*
X152301429Y-134895041D01*
X152301429Y-134895041D02*
X152377619Y-135009327D01*
X152377619Y-135009327D02*
X152415715Y-135161708D01*
X152415715Y-135161708D02*
X152377619Y-135314089D01*
X152377619Y-135314089D02*
X152301429Y-135428375D01*
X152301429Y-135428375D02*
X152187143Y-135504565D01*
X152187143Y-135504565D02*
X152034762Y-135542660D01*
X152034762Y-135542660D02*
X151882381Y-135504565D01*
X151882381Y-135504565D02*
X151768096Y-135428375D01*
X151006191Y-135390280D02*
X151082382Y-135428375D01*
X151082382Y-135428375D02*
X151234763Y-135428375D01*
X151234763Y-135428375D02*
X151310953Y-135390280D01*
X151310953Y-135390280D02*
X151349048Y-135352184D01*
X151349048Y-135352184D02*
X151387144Y-135275994D01*
X151387144Y-135275994D02*
X151387144Y-135047422D01*
X151387144Y-135047422D02*
X151349048Y-134971232D01*
X151349048Y-134971232D02*
X151310953Y-134933137D01*
X151310953Y-134933137D02*
X151234763Y-134895041D01*
X151234763Y-134895041D02*
X151082382Y-134895041D01*
X151082382Y-134895041D02*
X151006191Y-134933137D01*
X150320477Y-135428375D02*
X150320477Y-135009327D01*
X150320477Y-135009327D02*
X150358572Y-134933137D01*
X150358572Y-134933137D02*
X150434763Y-134895041D01*
X150434763Y-134895041D02*
X150587144Y-134895041D01*
X150587144Y-134895041D02*
X150663334Y-134933137D01*
X150320477Y-135390280D02*
X150396668Y-135428375D01*
X150396668Y-135428375D02*
X150587144Y-135428375D01*
X150587144Y-135428375D02*
X150663334Y-135390280D01*
X150663334Y-135390280D02*
X150701430Y-135314089D01*
X150701430Y-135314089D02*
X150701430Y-135237899D01*
X150701430Y-135237899D02*
X150663334Y-135161708D01*
X150663334Y-135161708D02*
X150587144Y-135123613D01*
X150587144Y-135123613D02*
X150396668Y-135123613D01*
X150396668Y-135123613D02*
X150320477Y-135085518D01*
X150053810Y-134895041D02*
X149749048Y-134895041D01*
X149939524Y-134628375D02*
X149939524Y-135314089D01*
X149939524Y-135314089D02*
X149901429Y-135390280D01*
X149901429Y-135390280D02*
X149825239Y-135428375D01*
X149825239Y-135428375D02*
X149749048Y-135428375D01*
X149672858Y-135504565D02*
X149063334Y-135504565D01*
X148872857Y-134895041D02*
X148872857Y-135428375D01*
X148872857Y-134971232D02*
X148834762Y-134933137D01*
X148834762Y-134933137D02*
X148758572Y-134895041D01*
X148758572Y-134895041D02*
X148644286Y-134895041D01*
X148644286Y-134895041D02*
X148568095Y-134933137D01*
X148568095Y-134933137D02*
X148530000Y-135009327D01*
X148530000Y-135009327D02*
X148530000Y-135428375D01*
X147844285Y-135390280D02*
X147920476Y-135428375D01*
X147920476Y-135428375D02*
X148072857Y-135428375D01*
X148072857Y-135428375D02*
X148149047Y-135390280D01*
X148149047Y-135390280D02*
X148187143Y-135314089D01*
X148187143Y-135314089D02*
X148187143Y-135009327D01*
X148187143Y-135009327D02*
X148149047Y-134933137D01*
X148149047Y-134933137D02*
X148072857Y-134895041D01*
X148072857Y-134895041D02*
X147920476Y-134895041D01*
X147920476Y-134895041D02*
X147844285Y-134933137D01*
X147844285Y-134933137D02*
X147806190Y-135009327D01*
X147806190Y-135009327D02*
X147806190Y-135085518D01*
X147806190Y-135085518D02*
X148187143Y-135161708D01*
X147463333Y-135428375D02*
X147463333Y-134628375D01*
X147387143Y-135123613D02*
X147158571Y-135428375D01*
X147158571Y-134895041D02*
X147463333Y-135199803D01*
X146701429Y-135428375D02*
X146777619Y-135390280D01*
X146777619Y-135390280D02*
X146815714Y-135352184D01*
X146815714Y-135352184D02*
X146853810Y-135275994D01*
X146853810Y-135275994D02*
X146853810Y-135047422D01*
X146853810Y-135047422D02*
X146815714Y-134971232D01*
X146815714Y-134971232D02*
X146777619Y-134933137D01*
X146777619Y-134933137D02*
X146701429Y-134895041D01*
X146701429Y-134895041D02*
X146587143Y-134895041D01*
X146587143Y-134895041D02*
X146510952Y-134933137D01*
X146510952Y-134933137D02*
X146472857Y-134971232D01*
X146472857Y-134971232D02*
X146434762Y-135047422D01*
X146434762Y-135047422D02*
X146434762Y-135275994D01*
X146434762Y-135275994D02*
X146472857Y-135352184D01*
X146472857Y-135352184D02*
X146510952Y-135390280D01*
X146510952Y-135390280D02*
X146587143Y-135428375D01*
X146587143Y-135428375D02*
X146701429Y-135428375D01*
X146091904Y-134895041D02*
X146091904Y-135428375D01*
X146091904Y-134971232D02*
X146053809Y-134933137D01*
X146053809Y-134933137D02*
X145977619Y-134895041D01*
X145977619Y-134895041D02*
X145863333Y-134895041D01*
X145863333Y-134895041D02*
X145787142Y-134933137D01*
X145787142Y-134933137D02*
X145749047Y-135009327D01*
X145749047Y-135009327D02*
X145749047Y-135428375D01*
X145063332Y-135390280D02*
X145139523Y-135428375D01*
X145139523Y-135428375D02*
X145291904Y-135428375D01*
X145291904Y-135428375D02*
X145368094Y-135390280D01*
X145368094Y-135390280D02*
X145406190Y-135314089D01*
X145406190Y-135314089D02*
X145406190Y-135009327D01*
X145406190Y-135009327D02*
X145368094Y-134933137D01*
X145368094Y-134933137D02*
X145291904Y-134895041D01*
X145291904Y-134895041D02*
X145139523Y-134895041D01*
X145139523Y-134895041D02*
X145063332Y-134933137D01*
X145063332Y-134933137D02*
X145025237Y-135009327D01*
X145025237Y-135009327D02*
X145025237Y-135085518D01*
X145025237Y-135085518D02*
X145406190Y-135161708D01*
X144682380Y-135428375D02*
X144682380Y-134628375D01*
X144606190Y-135123613D02*
X144377618Y-135428375D01*
X144377618Y-134895041D02*
X144682380Y-135199803D01*
X143920476Y-135428375D02*
X143996666Y-135390280D01*
X143996666Y-135390280D02*
X144034761Y-135352184D01*
X144034761Y-135352184D02*
X144072857Y-135275994D01*
X144072857Y-135275994D02*
X144072857Y-135047422D01*
X144072857Y-135047422D02*
X144034761Y-134971232D01*
X144034761Y-134971232D02*
X143996666Y-134933137D01*
X143996666Y-134933137D02*
X143920476Y-134895041D01*
X143920476Y-134895041D02*
X143806190Y-134895041D01*
X143806190Y-134895041D02*
X143729999Y-134933137D01*
X143729999Y-134933137D02*
X143691904Y-134971232D01*
X143691904Y-134971232D02*
X143653809Y-135047422D01*
X143653809Y-135047422D02*
X143653809Y-135275994D01*
X143653809Y-135275994D02*
X143691904Y-135352184D01*
X143691904Y-135352184D02*
X143729999Y-135390280D01*
X143729999Y-135390280D02*
X143806190Y-135428375D01*
X143806190Y-135428375D02*
X143920476Y-135428375D01*
X143310951Y-134895041D02*
X143310951Y-135428375D01*
X143310951Y-134971232D02*
X143272856Y-134933137D01*
X143272856Y-134933137D02*
X143196666Y-134895041D01*
X143196666Y-134895041D02*
X143082380Y-134895041D01*
X143082380Y-134895041D02*
X143006189Y-134933137D01*
X143006189Y-134933137D02*
X142968094Y-135009327D01*
X142968094Y-135009327D02*
X142968094Y-135428375D01*
X142282379Y-135390280D02*
X142358570Y-135428375D01*
X142358570Y-135428375D02*
X142510951Y-135428375D01*
X142510951Y-135428375D02*
X142587141Y-135390280D01*
X142587141Y-135390280D02*
X142625237Y-135314089D01*
X142625237Y-135314089D02*
X142625237Y-135009327D01*
X142625237Y-135009327D02*
X142587141Y-134933137D01*
X142587141Y-134933137D02*
X142510951Y-134895041D01*
X142510951Y-134895041D02*
X142358570Y-134895041D01*
X142358570Y-134895041D02*
X142282379Y-134933137D01*
X142282379Y-134933137D02*
X142244284Y-135009327D01*
X142244284Y-135009327D02*
X142244284Y-135085518D01*
X142244284Y-135085518D02*
X142625237Y-135161708D01*
D11*
X139316666Y-76043620D02*
X139316666Y-75329335D01*
X139316666Y-75329335D02*
X139269047Y-75186478D01*
X139269047Y-75186478D02*
X139173809Y-75091240D01*
X139173809Y-75091240D02*
X139030952Y-75043620D01*
X139030952Y-75043620D02*
X138935714Y-75043620D01*
X140221428Y-75710287D02*
X140221428Y-75043620D01*
X139983333Y-76091240D02*
X139745238Y-75376954D01*
X139745238Y-75376954D02*
X140364285Y-75376954D01*
%TO.C,R56*%
X132771359Y-103570000D02*
X133078641Y-103570000D01*
X132771359Y-104330000D02*
X133078641Y-104330000D01*
%TO.C,U7*%
X134100000Y-118340000D02*
X137860000Y-118340000D01*
X134100000Y-125160000D02*
X137860000Y-125160000D01*
X137860000Y-118340000D02*
X137860000Y-119600000D01*
X137860000Y-125160000D02*
X137860000Y-123900000D01*
X133060000Y-125390000D02*
X132580000Y-125390000D01*
X132820000Y-125060000D01*
X133060000Y-125390000D01*
G36*
X133060000Y-125390000D02*
G01*
X132580000Y-125390000D01*
X132820000Y-125060000D01*
X133060000Y-125390000D01*
G37*
%TO.C,C11*%
X154862164Y-104530000D02*
X155077836Y-104530000D01*
X154862164Y-105250000D02*
X155077836Y-105250000D01*
%TO.C,R16*%
X147530000Y-96596359D02*
X147530000Y-96903641D01*
X146770000Y-96596359D02*
X146770000Y-96903641D01*
%TO.C,C22*%
X136770000Y-113390580D02*
X136770000Y-113109420D01*
X137790000Y-113390580D02*
X137790000Y-113109420D01*
%TO.C,R59*%
X151210000Y-131833641D02*
X151210000Y-131526359D01*
X151970000Y-131833641D02*
X151970000Y-131526359D01*
%TO.C,Q2*%
X119030000Y-129071662D02*
X120890000Y-129071662D01*
X119090000Y-125771662D02*
X120890000Y-125771662D01*
X120890000Y-125771662D02*
X120890000Y-126821662D01*
X120890000Y-129071662D02*
X120890000Y-128021662D01*
X118820000Y-129363338D02*
X118340000Y-129363338D01*
X118580000Y-129033338D01*
X118820000Y-129363338D01*
G36*
X118820000Y-129363338D02*
G01*
X118340000Y-129363338D01*
X118580000Y-129033338D01*
X118820000Y-129363338D01*
G37*
%TO.C,R57*%
X156605000Y-113686359D02*
X156605000Y-113993641D01*
X155845000Y-113686359D02*
X155845000Y-113993641D01*
%TO.C,R45*%
X147071359Y-103570000D02*
X147378641Y-103570000D01*
X147071359Y-104330000D02*
X147378641Y-104330000D01*
%TO.C,R10*%
X117560000Y-125796359D02*
X117560000Y-126103641D01*
X116800000Y-125796359D02*
X116800000Y-126103641D01*
%TO.C,U3*%
X148790000Y-108150000D02*
X148790000Y-110100000D01*
X148790000Y-108150000D02*
X148790000Y-106200000D01*
X153910000Y-108150000D02*
X153910000Y-110100000D01*
X153910000Y-108150000D02*
X153910000Y-106200000D01*
X154145000Y-111090000D02*
X153815000Y-110850000D01*
X154145000Y-110610000D01*
X154145000Y-111090000D01*
G36*
X154145000Y-111090000D02*
G01*
X153815000Y-110850000D01*
X154145000Y-110610000D01*
X154145000Y-111090000D01*
G37*
%TO.C,R27*%
X133353641Y-114830000D02*
X133046359Y-114830000D01*
X133353641Y-114070000D02*
X133046359Y-114070000D01*
%TO.C,R77*%
X138777500Y-78562258D02*
X138777500Y-78087742D01*
X139822500Y-78562258D02*
X139822500Y-78087742D01*
%TO.C,R47*%
X145271359Y-103570000D02*
X145578641Y-103570000D01*
X145271359Y-104330000D02*
X145578641Y-104330000D01*
%TO.C,R75*%
X136904724Y-94112500D02*
X136395276Y-94112500D01*
X136904724Y-93067500D02*
X136395276Y-93067500D01*
%TO.C,Q15*%
X155925000Y-111835000D02*
X156575000Y-111835000D01*
X155925000Y-111835000D02*
X155275000Y-111835000D01*
X155925000Y-108715000D02*
X156575000Y-108715000D01*
X155925000Y-108715000D02*
X155275000Y-108715000D01*
X157087500Y-108765000D02*
X156847500Y-108435000D01*
X157327500Y-108435000D01*
X157087500Y-108765000D01*
G36*
X157087500Y-108765000D02*
G01*
X156847500Y-108435000D01*
X157327500Y-108435000D01*
X157087500Y-108765000D01*
G37*
%TO.C,R15*%
X118470000Y-122601359D02*
X118470000Y-122908641D01*
X117710000Y-122601359D02*
X117710000Y-122908641D01*
%TO.C,R44*%
X143471359Y-103570000D02*
X143778641Y-103570000D01*
X143471359Y-104330000D02*
X143778641Y-104330000D01*
%TO.C,R52*%
X141696359Y-103570000D02*
X142003641Y-103570000D01*
X141696359Y-104330000D02*
X142003641Y-104330000D01*
%TO.C,C32*%
X121826252Y-114470000D02*
X121303748Y-114470000D01*
X121826252Y-113000000D02*
X121303748Y-113000000D01*
%TO.C,R26*%
X131355000Y-110446359D02*
X131355000Y-110753641D01*
X130595000Y-110446359D02*
X130595000Y-110753641D01*
%TO.C,C1*%
X154980000Y-131572164D02*
X154980000Y-131787836D01*
X154260000Y-131572164D02*
X154260000Y-131787836D01*
%TO.C,Q1*%
X122790000Y-119950000D02*
X122790000Y-117800000D01*
X126010000Y-119400000D02*
X126010000Y-117800000D01*
X123700000Y-117800000D02*
X122790000Y-117800000D01*
X126010000Y-117800000D02*
X125100000Y-117800000D01*
X126290000Y-120140000D02*
X125960000Y-119900000D01*
X126290000Y-119660000D01*
X126290000Y-120140000D01*
G36*
X126290000Y-120140000D02*
G01*
X125960000Y-119900000D01*
X126290000Y-119660000D01*
X126290000Y-120140000D01*
G37*
%TO.C,C4*%
X161190580Y-122110000D02*
X160909420Y-122110000D01*
X161190580Y-121090000D02*
X160909420Y-121090000D01*
%TO.C,R2*%
X152456359Y-112340000D02*
X152763641Y-112340000D01*
X152456359Y-113100000D02*
X152763641Y-113100000D01*
%TO.C,J4*%
X144630000Y-69930000D02*
X144630000Y-71850000D01*
X144630000Y-67920000D02*
X144630000Y-66215000D01*
X144630000Y-66215000D02*
X135470000Y-66215000D01*
X135470000Y-71850000D02*
X135470000Y-69930000D01*
X135470000Y-66215000D02*
X135470000Y-67920000D01*
%TO.C,C6*%
X143224999Y-131492164D02*
X143224999Y-131707836D01*
X142504999Y-131492164D02*
X142504999Y-131707836D01*
%TO.C,C20*%
X142390000Y-105482836D02*
X142390000Y-105267164D01*
X143110000Y-105482836D02*
X143110000Y-105267164D01*
%TO.C,D1*%
X161010000Y-105625000D02*
X158350000Y-105625000D01*
X161010000Y-103925000D02*
X161010000Y-105625000D01*
X161010000Y-103925000D02*
X158350000Y-103925000D01*
%TO.C,R23*%
X125328641Y-110630000D02*
X125021359Y-110630000D01*
X125328641Y-109870000D02*
X125021359Y-109870000D01*
%TO.C,Q4*%
X121975000Y-124585000D02*
X121975000Y-122725000D01*
X118675000Y-124525000D02*
X118675000Y-122725000D01*
X118675000Y-122725000D02*
X119725000Y-122725000D01*
X121975000Y-122725000D02*
X120925000Y-122725000D01*
X122266676Y-125275000D02*
X121936676Y-125035000D01*
X122266676Y-124795000D01*
X122266676Y-125275000D01*
G36*
X122266676Y-125275000D02*
G01*
X121936676Y-125035000D01*
X122266676Y-124795000D01*
X122266676Y-125275000D01*
G37*
%TO.C,R78*%
X140570000Y-75978641D02*
X140570000Y-75671359D01*
X141330000Y-75978641D02*
X141330000Y-75671359D01*
%TO.C,Q3*%
X128995000Y-121185000D02*
X126845000Y-121185000D01*
X128445000Y-117965000D02*
X126845000Y-117965000D01*
X126845000Y-120275000D02*
X126845000Y-121185000D01*
X126845000Y-117965000D02*
X126845000Y-118875000D01*
X128945000Y-118015000D02*
X128705000Y-117685000D01*
X129185000Y-117685000D01*
X128945000Y-118015000D01*
G36*
X128945000Y-118015000D02*
G01*
X128705000Y-117685000D01*
X129185000Y-117685000D01*
X128945000Y-118015000D01*
G37*
%TO.C,C38*%
X138310000Y-78184420D02*
X138310000Y-78465580D01*
X137290000Y-78184420D02*
X137290000Y-78465580D01*
%TO.C,R25*%
X132603641Y-113580000D02*
X132296359Y-113580000D01*
X132603641Y-112820000D02*
X132296359Y-112820000D01*
%TO.C,R67*%
X140253641Y-134734882D02*
X139946359Y-134734882D01*
X140253641Y-133974882D02*
X139946359Y-133974882D01*
%TO.C,R79*%
X138046359Y-75894999D02*
X138353641Y-75894999D01*
X138046359Y-76654999D02*
X138353641Y-76654999D01*
%TO.C,C41*%
X154800000Y-112022164D02*
X154800000Y-112237836D01*
X154080000Y-112022164D02*
X154080000Y-112237836D01*
%TO.C,R50*%
X135180000Y-112586359D02*
X135180000Y-112893641D01*
X134420000Y-112586359D02*
X134420000Y-112893641D01*
%TO.C,R32*%
X138941697Y-117892770D02*
X139277230Y-118228303D01*
X138202770Y-118631697D02*
X138538303Y-118967230D01*
%TO.C,U8*%
X156260000Y-129060000D02*
X156260000Y-128360000D01*
X156260000Y-114840000D02*
X156260000Y-115540000D01*
X155560000Y-129060000D02*
X156260000Y-129060000D01*
X155560000Y-114840000D02*
X156260000Y-114840000D01*
X142740000Y-129060000D02*
X142040000Y-129060000D01*
X142740000Y-114840000D02*
X142040000Y-114840000D01*
X142040000Y-129060000D02*
X142040000Y-128360000D01*
X142040000Y-114840000D02*
X142040000Y-115540000D01*
X156887500Y-115540000D02*
X156547500Y-115070000D01*
X157227500Y-115070000D01*
X156887500Y-115540000D01*
G36*
X156887500Y-115540000D02*
G01*
X156547500Y-115070000D01*
X157227500Y-115070000D01*
X156887500Y-115540000D01*
G37*
%TO.C,R3*%
X120778641Y-117755000D02*
X120471359Y-117755000D01*
X120778641Y-116995000D02*
X120471359Y-116995000D01*
%TO.C,R14*%
X124796360Y-76570000D02*
X125103642Y-76570000D01*
X124796360Y-77330000D02*
X125103642Y-77330000D01*
%TO.C,C29*%
X134607836Y-127160000D02*
X134392164Y-127160000D01*
X134607836Y-126440000D02*
X134392164Y-126440000D01*
%TO.C,R41*%
X131592742Y-126117500D02*
X132067258Y-126117500D01*
X131592742Y-127162500D02*
X132067258Y-127162500D01*
%TO.C,R53*%
X130971359Y-103570000D02*
X131278641Y-103570000D01*
X130971359Y-104330000D02*
X131278641Y-104330000D01*
%TO.C,R62*%
X149340000Y-131833641D02*
X149340000Y-131526359D01*
X150100000Y-131833641D02*
X150100000Y-131526359D01*
%TO.C,R19*%
X137430000Y-96176359D02*
X137430000Y-96483641D01*
X136670000Y-96176359D02*
X136670000Y-96483641D01*
%TO.C,C31*%
X139421693Y-117655810D02*
X139269190Y-117503307D01*
X139930810Y-117146693D02*
X139778307Y-116994190D01*
%TO.C,D6*%
X131550000Y-119160000D02*
X131550000Y-121820000D01*
X129850000Y-119160000D02*
X131550000Y-119160000D01*
X129850000Y-119160000D02*
X129850000Y-121820000D01*
%TO.C,R28*%
X128905000Y-110496359D02*
X128905000Y-110803641D01*
X128145000Y-110496359D02*
X128145000Y-110803641D01*
%TO.C,C28*%
X140857836Y-129760000D02*
X140642164Y-129760000D01*
X140857836Y-129040000D02*
X140642164Y-129040000D01*
%TO.C,Q17*%
X125875000Y-114515000D02*
X128025000Y-114515000D01*
X126425000Y-117735000D02*
X128025000Y-117735000D01*
X128025000Y-115425000D02*
X128025000Y-114515000D01*
X128025000Y-117735000D02*
X128025000Y-116825000D01*
X126165000Y-118015000D02*
X125685000Y-118015000D01*
X125925000Y-117685000D01*
X126165000Y-118015000D01*
G36*
X126165000Y-118015000D02*
G01*
X125685000Y-118015000D01*
X125925000Y-117685000D01*
X126165000Y-118015000D01*
G37*
%TO.C,Q11*%
X132175000Y-118010000D02*
X130025000Y-118010000D01*
X131625000Y-114790000D02*
X130025000Y-114790000D01*
X130025000Y-117100000D02*
X130025000Y-118010000D01*
X130025000Y-114790000D02*
X130025000Y-115700000D01*
X132125000Y-114840000D02*
X131885000Y-114510000D01*
X132365000Y-114510000D01*
X132125000Y-114840000D01*
G36*
X132125000Y-114840000D02*
G01*
X131885000Y-114510000D01*
X132365000Y-114510000D01*
X132125000Y-114840000D01*
G37*
%TO.C,R46*%
X152571359Y-103570000D02*
X152878641Y-103570000D01*
X152571359Y-104330000D02*
X152878641Y-104330000D01*
%TO.C,Q12*%
X131410000Y-113660000D02*
X131410000Y-111800000D01*
X128110000Y-113600000D02*
X128110000Y-111800000D01*
X128110000Y-111800000D02*
X129160000Y-111800000D01*
X131410000Y-111800000D02*
X130360000Y-111800000D01*
X131701676Y-114350000D02*
X131371676Y-114110000D01*
X131701676Y-113870000D01*
X131701676Y-114350000D01*
G36*
X131701676Y-114350000D02*
G01*
X131371676Y-114110000D01*
X131701676Y-113870000D01*
X131701676Y-114350000D01*
G37*
%TO.C,R61*%
X152900000Y-131526359D02*
X152900000Y-131833641D01*
X152140000Y-131526359D02*
X152140000Y-131833641D01*
%TO.C,C15*%
X127132836Y-110610000D02*
X126917164Y-110610000D01*
X127132836Y-109890000D02*
X126917164Y-109890000D01*
%TO.C,R63*%
X148410000Y-131833641D02*
X148410000Y-131526359D01*
X149170000Y-131833641D02*
X149170000Y-131526359D01*
D12*
%TO.C,U10*%
X140375000Y-85354999D02*
X141485000Y-85354999D01*
X140375000Y-85354999D02*
X140375000Y-81204999D01*
X148215000Y-85354999D02*
X149325000Y-85354999D01*
X149325000Y-85354999D02*
X149325000Y-81204999D01*
X140375000Y-81204999D02*
X141485000Y-81204999D01*
X149325000Y-81204999D02*
X148215000Y-81204999D01*
D11*
X148545000Y-86157499D02*
X148215000Y-85917499D01*
X148545000Y-85677499D01*
X148545000Y-86157499D01*
G36*
X148545000Y-86157499D02*
G01*
X148215000Y-85917499D01*
X148545000Y-85677499D01*
X148545000Y-86157499D01*
G37*
%TO.C,D5*%
X129700000Y-105065000D02*
X129700000Y-109075000D01*
X127700000Y-105065000D02*
X129700000Y-105065000D01*
X127700000Y-105065000D02*
X127700000Y-109075000D01*
%TO.C,R12*%
X124796359Y-78570000D02*
X125103641Y-78570000D01*
X124796359Y-79330000D02*
X125103641Y-79330000D01*
%TO.C,C33*%
X118410000Y-109242164D02*
X118410000Y-109457836D01*
X117690000Y-109242164D02*
X117690000Y-109457836D01*
%TO.C,R72*%
X120745307Y-104705001D02*
X120438025Y-104705001D01*
X120745307Y-103945001D02*
X120438025Y-103945001D01*
%TO.C,C7*%
X139582836Y-116435000D02*
X139367164Y-116435000D01*
X139582836Y-115715000D02*
X139367164Y-115715000D01*
%TO.C,R4*%
X148637258Y-113032500D02*
X148162742Y-113032500D01*
X148637258Y-111987500D02*
X148162742Y-111987500D01*
%TO.C,R17*%
X115900000Y-124653641D02*
X115900000Y-124346359D01*
X116660000Y-124653641D02*
X116660000Y-124346359D01*
%TO.C,R29*%
X125070000Y-123553641D02*
X125070000Y-123246359D01*
X125830000Y-123553641D02*
X125830000Y-123246359D01*
%TO.C,Q18*%
X119490000Y-121580000D02*
X121350000Y-121580000D01*
X119550000Y-118280000D02*
X121350000Y-118280000D01*
X121350000Y-118280000D02*
X121350000Y-119330000D01*
X121350000Y-121580000D02*
X121350000Y-120530000D01*
X119280000Y-121871676D02*
X118800000Y-121871676D01*
X119040000Y-121541676D01*
X119280000Y-121871676D01*
G36*
X119280000Y-121871676D02*
G01*
X118800000Y-121871676D01*
X119040000Y-121541676D01*
X119280000Y-121871676D01*
G37*
%TO.C,J3*%
X154819905Y-69855033D02*
X155642375Y-69855033D01*
X154819905Y-81220033D02*
X154819905Y-69855033D01*
X154819905Y-81220033D02*
X155386434Y-81220033D01*
X154819905Y-81980033D02*
X154819905Y-82740033D01*
X154819905Y-82740033D02*
X155949905Y-82740033D01*
X156257435Y-69855033D02*
X156912375Y-69855033D01*
X156513376Y-81220033D02*
X156656434Y-81220033D01*
X156709905Y-81273504D02*
X156709905Y-81416562D01*
X156709905Y-82543504D02*
X156709905Y-82675033D01*
X156709905Y-82675033D02*
X156912375Y-82675033D01*
X157527435Y-69855033D02*
X158349905Y-69855033D01*
X157527435Y-82675033D02*
X158349905Y-82675033D01*
X158349905Y-82675033D02*
X158349905Y-69855033D01*
%TO.C,C35*%
X142542164Y-93190000D02*
X142757836Y-93190000D01*
X142542164Y-93910000D02*
X142757836Y-93910000D01*
%TO.C,R13*%
X124796359Y-77570000D02*
X125103641Y-77570000D01*
X124796359Y-78330000D02*
X125103641Y-78330000D01*
%TO.C,R55*%
X139921359Y-103570000D02*
X140228641Y-103570000D01*
X139921359Y-104330000D02*
X140228641Y-104330000D01*
%TO.C,R37*%
X140305000Y-127176359D02*
X140305000Y-127483641D01*
X139545000Y-127176359D02*
X139545000Y-127483641D01*
%TO.C,R24*%
X116900000Y-128606359D02*
X116900000Y-128913641D01*
X116140000Y-128606359D02*
X116140000Y-128913641D01*
%TO.C,Q13*%
X155940000Y-105415000D02*
X155290000Y-105415000D01*
X155940000Y-105415000D02*
X156590000Y-105415000D01*
X155940000Y-108535000D02*
X155290000Y-108535000D01*
X155940000Y-108535000D02*
X156590000Y-108535000D01*
X155017500Y-108815000D02*
X154537500Y-108815000D01*
X154777500Y-108485000D01*
X155017500Y-108815000D01*
G36*
X155017500Y-108815000D02*
G01*
X154537500Y-108815000D01*
X154777500Y-108485000D01*
X155017500Y-108815000D01*
G37*
%TO.C,R74*%
X140204724Y-94112500D02*
X139695276Y-94112500D01*
X140204724Y-93067500D02*
X139695276Y-93067500D01*
%TO.C,C34*%
X125590000Y-95977836D02*
X125590000Y-95762164D01*
X126310000Y-95977836D02*
X126310000Y-95762164D01*
%TO.C,R34*%
X116800000Y-124203641D02*
X116800000Y-123896359D01*
X117560000Y-124203641D02*
X117560000Y-123896359D01*
%TO.C,Q14*%
X142510000Y-113675000D02*
X142510000Y-113025000D01*
X142510000Y-113675000D02*
X142510000Y-114325000D01*
X139390000Y-113675000D02*
X139390000Y-113025000D01*
X139390000Y-113675000D02*
X139390000Y-114325000D01*
X139440000Y-112512500D02*
X139110000Y-112752500D01*
X139110000Y-112272500D01*
X139440000Y-112512500D01*
G36*
X139440000Y-112512500D02*
G01*
X139110000Y-112752500D01*
X139110000Y-112272500D01*
X139440000Y-112512500D01*
G37*
%TO.C,C2*%
X160617164Y-119790000D02*
X160832836Y-119790000D01*
X160617164Y-120510000D02*
X160832836Y-120510000D01*
%TO.C,C40*%
X143920000Y-78792164D02*
X143920000Y-79007836D01*
X143200000Y-78792164D02*
X143200000Y-79007836D01*
%TO.C,R42*%
X150696359Y-103570000D02*
X151003641Y-103570000D01*
X150696359Y-104330000D02*
X151003641Y-104330000D01*
%TO.C,C37*%
X143386252Y-76585000D02*
X142863748Y-76585000D01*
X143386252Y-75115000D02*
X142863748Y-75115000D01*
%TO.C,R64*%
X157705000Y-112421359D02*
X157705000Y-112728641D01*
X156945000Y-112421359D02*
X156945000Y-112728641D01*
%TO.C,C36*%
X144872164Y-78960001D02*
X145087836Y-78960001D01*
X144872164Y-79680001D02*
X145087836Y-79680001D01*
%TO.C,R48*%
X138077500Y-113487258D02*
X138077500Y-113012742D01*
X139122500Y-113487258D02*
X139122500Y-113012742D01*
%TO.C,R73*%
X127330000Y-95716359D02*
X127330000Y-96023641D01*
X126570000Y-95716359D02*
X126570000Y-96023641D01*
%TO.C,R21*%
X127955000Y-111471359D02*
X127955000Y-111778641D01*
X127195000Y-111471359D02*
X127195000Y-111778641D01*
%TO.C,R80*%
X120720000Y-88653641D02*
X120720000Y-88346359D01*
X121480000Y-88653641D02*
X121480000Y-88346359D01*
%TO.C,R5*%
X156920000Y-105513641D02*
X156920000Y-105206359D01*
X157680000Y-105513641D02*
X157680000Y-105206359D01*
%TO.C,R11*%
X120986000Y-129121641D02*
X120986000Y-128814359D01*
X121746000Y-129121641D02*
X121746000Y-128814359D01*
%TO.C,R8*%
X122628641Y-115505000D02*
X122321359Y-115505000D01*
X122628641Y-114745000D02*
X122321359Y-114745000D01*
%TO.C,R43*%
X154446359Y-103570000D02*
X154753641Y-103570000D01*
X154446359Y-104330000D02*
X154753641Y-104330000D01*
%TO.C,C39*%
X142810000Y-78184420D02*
X142810000Y-78465580D01*
X141790000Y-78184420D02*
X141790000Y-78465580D01*
%TO.C,C23*%
X136607836Y-104310000D02*
X136392164Y-104310000D01*
X136607836Y-103590000D02*
X136392164Y-103590000D01*
%TO.C,R1*%
X161555000Y-108396359D02*
X161555000Y-108703641D01*
X160795000Y-108396359D02*
X160795000Y-108703641D01*
%TO.C,C25*%
X159209420Y-127490000D02*
X159490580Y-127490000D01*
X159209420Y-128510000D02*
X159490580Y-128510000D01*
%TO.C,C10*%
X121826252Y-112770000D02*
X121303748Y-112770000D01*
X121826252Y-111300000D02*
X121303748Y-111300000D01*
%TO.C,R69*%
X119745308Y-105805001D02*
X119438026Y-105805001D01*
X119745308Y-105045001D02*
X119438026Y-105045001D01*
%TO.C,R51*%
X138121359Y-103570000D02*
X138428641Y-103570000D01*
X138121359Y-104330000D02*
X138428641Y-104330000D01*
%TO.C,C13*%
X120909420Y-115740000D02*
X121190580Y-115740000D01*
X120909420Y-116760000D02*
X121190580Y-116760000D01*
%TO.C,C16*%
X130612164Y-118280000D02*
X130827836Y-118280000D01*
X130612164Y-119000000D02*
X130827836Y-119000000D01*
%TO.C,C18*%
X149107836Y-104310000D02*
X148892164Y-104310000D01*
X149107836Y-103590000D02*
X148892164Y-103590000D01*
%TO.C,R65*%
X150536359Y-112340000D02*
X150843641Y-112340000D01*
X150536359Y-113100000D02*
X150843641Y-113100000D01*
%TO.C,R7*%
X124796359Y-79570000D02*
X125103641Y-79570000D01*
X124796359Y-80330000D02*
X125103641Y-80330000D01*
%TO.C,R22*%
X127955000Y-113321359D02*
X127955000Y-113628641D01*
X127195000Y-113321359D02*
X127195000Y-113628641D01*
%TO.C,R20*%
X132296359Y-111895000D02*
X132603641Y-111895000D01*
X132296359Y-112655000D02*
X132603641Y-112655000D01*
%TO.C,R58*%
X157705000Y-114246359D02*
X157705000Y-114553641D01*
X156945000Y-114246359D02*
X156945000Y-114553641D01*
%TO.C,R76*%
X140277500Y-78562258D02*
X140277500Y-78087742D01*
X141322500Y-78562258D02*
X141322500Y-78087742D01*
%TO.C,D4*%
X129725000Y-109010000D02*
X129725000Y-106350000D01*
X131425000Y-109010000D02*
X129725000Y-109010000D01*
X131425000Y-109010000D02*
X131425000Y-106350000D01*
%TO.C,U6*%
X131590000Y-108150000D02*
X131590000Y-110100000D01*
X131590000Y-108150000D02*
X131590000Y-106200000D01*
X136710000Y-108150000D02*
X136710000Y-110100000D01*
X136710000Y-108150000D02*
X136710000Y-106200000D01*
X136945000Y-111090000D02*
X136615000Y-110850000D01*
X136945000Y-110610000D01*
X136945000Y-111090000D01*
G36*
X136945000Y-111090000D02*
G01*
X136615000Y-110850000D01*
X136945000Y-110610000D01*
X136945000Y-111090000D01*
G37*
%TO.C,C17*%
X133337836Y-125880000D02*
X133122164Y-125880000D01*
X133337836Y-125160000D02*
X133122164Y-125160000D01*
%TO.C,R49*%
X139613641Y-115555000D02*
X139306359Y-115555000D01*
X139613641Y-114795000D02*
X139306359Y-114795000D01*
%TO.C,C3*%
X159660000Y-120267164D02*
X159660000Y-120482836D01*
X158940000Y-120267164D02*
X158940000Y-120482836D01*
%TO.C,R35*%
X117890000Y-127716359D02*
X117890000Y-128023641D01*
X117130000Y-127716359D02*
X117130000Y-128023641D01*
%TO.C,Y1*%
X159650000Y-122400000D02*
X163650000Y-122400000D01*
X159650000Y-125700000D02*
X159650000Y-122400000D01*
%TO.C,R31*%
X137797500Y-115737742D02*
X137797500Y-116212258D01*
X136752500Y-115737742D02*
X136752500Y-116212258D01*
%TO.C,R60*%
X150270000Y-131833641D02*
X150270000Y-131526359D01*
X151030000Y-131833641D02*
X151030000Y-131526359D01*
%TO.C,R68*%
X155746359Y-112020000D02*
X156053641Y-112020000D01*
X155746359Y-112780000D02*
X156053641Y-112780000D01*
%TO.C,Q16*%
X138490000Y-131925000D02*
X138490000Y-132575000D01*
X138490000Y-131925000D02*
X138490000Y-131275000D01*
X141610000Y-131925000D02*
X141610000Y-132575000D01*
X141610000Y-131925000D02*
X141610000Y-131275000D01*
X141890000Y-133327500D02*
X141560000Y-133087500D01*
X141890000Y-132847500D01*
X141890000Y-133327500D01*
G36*
X141890000Y-133327500D02*
G01*
X141560000Y-133087500D01*
X141890000Y-132847500D01*
X141890000Y-133327500D01*
G37*
%TO.C,R36*%
X145033641Y-112760000D02*
X144726359Y-112760000D01*
X145033641Y-112000000D02*
X144726359Y-112000000D01*
%TO.C,C27*%
X158717164Y-125990000D02*
X158932836Y-125990000D01*
X158717164Y-126710000D02*
X158932836Y-126710000D01*
%TO.C,C9*%
X124240000Y-106461252D02*
X124240000Y-105038748D01*
X126060000Y-106461252D02*
X126060000Y-105038748D01*
%TO.C,C5*%
X161390580Y-127010000D02*
X161109420Y-127010000D01*
X161390580Y-125990000D02*
X161109420Y-125990000D01*
%TO.C,R30*%
X136472500Y-113012742D02*
X136472500Y-113487258D01*
X135427500Y-113012742D02*
X135427500Y-113487258D01*
%TO.C,Q10*%
X136512500Y-117135000D02*
X136512500Y-115275000D01*
X133212500Y-117075000D02*
X133212500Y-115275000D01*
X133212500Y-115275000D02*
X134262500Y-115275000D01*
X136512500Y-115275000D02*
X135462500Y-115275000D01*
X136804176Y-117825000D02*
X136474176Y-117585000D01*
X136804176Y-117345000D01*
X136804176Y-117825000D01*
G36*
X136804176Y-117825000D02*
G01*
X136474176Y-117585000D01*
X136804176Y-117345000D01*
X136804176Y-117825000D01*
G37*
%TO.C,R38*%
X141753641Y-130805000D02*
X141446359Y-130805000D01*
X141753641Y-130045000D02*
X141446359Y-130045000D01*
%TO.C,C30*%
X144525000Y-131492164D02*
X144525000Y-131707836D01*
X143805000Y-131492164D02*
X143805000Y-131707836D01*
D12*
%TO.C,U1*%
X123400001Y-111049999D02*
X123400001Y-110899999D01*
X123400001Y-111049999D02*
X119199999Y-111049999D01*
X123400001Y-106050499D02*
X123400001Y-106025000D01*
X123400001Y-106025000D02*
X122350000Y-106025000D01*
X120250000Y-106025000D02*
X119199999Y-106025000D01*
X119199999Y-111049999D02*
X119199999Y-110899999D01*
X119199999Y-106050499D02*
X119199999Y-106025000D01*
D13*
X124425001Y-106663000D02*
G75*
G03*
X124174999Y-106663000I-125001J0D01*
G01*
X124174999Y-106663000D02*
G75*
G03*
X124425001Y-106663000I125001J0D01*
G01*
D11*
%TO.C,C14*%
X135689999Y-96437836D02*
X135689999Y-96222164D01*
X136409999Y-96437836D02*
X136409999Y-96222164D01*
%TO.C,R6*%
X125978641Y-122105000D02*
X125671359Y-122105000D01*
X125978641Y-121345000D02*
X125671359Y-121345000D01*
%TO.C,Q8*%
X127050000Y-113460000D02*
X127050000Y-111600000D01*
X123750000Y-113400000D02*
X123750000Y-111600000D01*
X123750000Y-111600000D02*
X124800000Y-111600000D01*
X127050000Y-111600000D02*
X126000000Y-111600000D01*
X127341676Y-114150000D02*
X127011676Y-113910000D01*
X127341676Y-113670000D01*
X127341676Y-114150000D01*
G36*
X127341676Y-114150000D02*
G01*
X127011676Y-113910000D01*
X127341676Y-113670000D01*
X127341676Y-114150000D01*
G37*
%TO.C,U4*%
X143390000Y-108150000D02*
X143390000Y-110100000D01*
X143390000Y-108150000D02*
X143390000Y-106200000D01*
X148510000Y-108150000D02*
X148510000Y-110100000D01*
X148510000Y-108150000D02*
X148510000Y-106200000D01*
X148745000Y-111090000D02*
X148415000Y-110850000D01*
X148745000Y-110610000D01*
X148745000Y-111090000D01*
G36*
X148745000Y-111090000D02*
G01*
X148415000Y-110850000D01*
X148745000Y-110610000D01*
X148745000Y-111090000D01*
G37*
%TO.C,C8*%
X157990000Y-120482836D02*
X157990000Y-120267164D01*
X158710000Y-120482836D02*
X158710000Y-120267164D01*
%TO.C,R33*%
X118470000Y-124771359D02*
X118470000Y-125078641D01*
X117710000Y-124771359D02*
X117710000Y-125078641D01*
%TO.C,R9*%
X120828641Y-115505000D02*
X120521359Y-115505000D01*
X120828641Y-114745000D02*
X120521359Y-114745000D01*
%TO.C,R70*%
X122938026Y-105045001D02*
X123245308Y-105045001D01*
X122938026Y-105805001D02*
X123245308Y-105805001D01*
%TO.C,D17*%
X127435000Y-109725000D02*
X124775000Y-109725000D01*
X127435000Y-108025000D02*
X127435000Y-109725000D01*
X127435000Y-108025000D02*
X124775000Y-108025000D01*
%TO.C,L1*%
X127460000Y-106287221D02*
X127460000Y-106612779D01*
X126440000Y-106287221D02*
X126440000Y-106612779D01*
%TO.C,R54*%
X134571359Y-103570000D02*
X134878641Y-103570000D01*
X134571359Y-104330000D02*
X134878641Y-104330000D01*
%TO.C,R71*%
X129178641Y-115430000D02*
X128871359Y-115430000D01*
X129178641Y-114670000D02*
X128871359Y-114670000D01*
%TO.C,J1*%
X160485000Y-118860000D02*
X159682530Y-118860000D01*
X160485000Y-107495000D02*
X160485000Y-118860000D01*
X160485000Y-107495000D02*
X159938471Y-107495000D01*
X160485000Y-106735000D02*
X160485000Y-105975000D01*
X160485000Y-105975000D02*
X159375000Y-105975000D01*
X159067470Y-118860000D02*
X158265000Y-118860000D01*
X158811529Y-107495000D02*
X158265000Y-107495000D01*
X158265000Y-107495000D02*
X158265000Y-118860000D01*
%TO.C,U5*%
X136990000Y-108150000D02*
X136990000Y-110100000D01*
X136990000Y-108150000D02*
X136990000Y-106200000D01*
X142110000Y-108150000D02*
X142110000Y-110100000D01*
X142110000Y-108150000D02*
X142110000Y-106200000D01*
X142345000Y-111090000D02*
X142015000Y-110850000D01*
X142345000Y-110610000D01*
X142345000Y-111090000D01*
G36*
X142345000Y-111090000D02*
G01*
X142015000Y-110850000D01*
X142345000Y-110610000D01*
X142345000Y-111090000D01*
G37*
%TO.C,R18*%
X134230000Y-112586359D02*
X134230000Y-112893641D01*
X133470000Y-112586359D02*
X133470000Y-112893641D01*
%TO.C,C12*%
X145790000Y-96857836D02*
X145790000Y-96642164D01*
X146510000Y-96857836D02*
X146510000Y-96642164D01*
%TD*%
%LPC*%
%TO.C,U1*%
G36*
X123800000Y-108125000D02*
G01*
X122150000Y-108125000D01*
X122150000Y-107825000D01*
X123800000Y-107825000D01*
X123800000Y-108125000D01*
G37*
G36*
X123800000Y-107625000D02*
G01*
X122150000Y-107625000D01*
X122150000Y-107325000D01*
X123800000Y-107325000D01*
X123800000Y-107625000D01*
G37*
G36*
X123800000Y-106925000D02*
G01*
X122150000Y-106925000D01*
X122150000Y-106425000D01*
X123800000Y-106425000D01*
X123800000Y-106925000D01*
G37*
G36*
X121950000Y-107025000D02*
G01*
X121650000Y-107025000D01*
X121650000Y-105625000D01*
X121950000Y-105625000D01*
X121950000Y-107025000D01*
G37*
G36*
X120950000Y-107025000D02*
G01*
X120650000Y-107025000D01*
X120650000Y-105625000D01*
X120950000Y-105625000D01*
X120950000Y-107025000D01*
G37*
G36*
X120450000Y-108125000D02*
G01*
X118800000Y-108125000D01*
X118800000Y-107825000D01*
X120450000Y-107825000D01*
X120450000Y-108125000D01*
G37*
G36*
X120450000Y-107625000D02*
G01*
X118800000Y-107625000D01*
X118800000Y-107325000D01*
X120450000Y-107325000D01*
X120450000Y-107625000D01*
G37*
G36*
X120450000Y-106925000D02*
G01*
X118800000Y-106925000D01*
X118800000Y-106425000D01*
X120450000Y-106425000D01*
X120450000Y-106925000D01*
G37*
G36*
X121450000Y-107650501D02*
G01*
X121400000Y-107700501D01*
X121200000Y-107700501D01*
X121150000Y-107650501D01*
X121150000Y-105625000D01*
X121450000Y-105625000D01*
X121450000Y-107650501D01*
G37*
G36*
X123724996Y-108649973D02*
G01*
X123725001Y-110600000D01*
X122824998Y-110650000D01*
X121799996Y-110650000D01*
X121749997Y-110599997D01*
X121749999Y-108650001D01*
X121799999Y-108600011D01*
X122825001Y-108600001D01*
X123724996Y-108649973D01*
G37*
G36*
X120850001Y-108650001D02*
G01*
X120850006Y-110600025D01*
X120800003Y-110650028D01*
X119775001Y-110650028D01*
X118875002Y-110600025D01*
X118875004Y-108650029D01*
X119775004Y-108600039D01*
X120800006Y-108600029D01*
X120850001Y-108650001D01*
G37*
%TD*%
D14*
%TO.C,SW11*%
X123100000Y-85400001D03*
X123100000Y-88400001D03*
%TD*%
D15*
%TO.C,U2*%
X129325000Y-124700000D03*
%TD*%
D16*
%TO.C,SW1*%
X132152804Y-134772723D03*
D17*
X130031125Y-131310285D03*
X127184945Y-134206707D03*
%TD*%
D18*
%TO.C,TP1*%
X157050000Y-132350000D03*
%TD*%
D19*
%TO.C,U9*%
X143860000Y-91884999D03*
D20*
X141320000Y-91884999D03*
X138780000Y-91884999D03*
X136240000Y-91884999D03*
%TD*%
D21*
%TO.C,J2*%
X124150000Y-121520000D03*
D22*
X122880000Y-121520000D03*
X124150000Y-122790000D03*
X122880000Y-122790000D03*
X124150000Y-124060000D03*
X122880000Y-124060000D03*
X124150000Y-125330000D03*
X122880000Y-125330000D03*
X124150000Y-126600000D03*
X122880000Y-126600000D03*
X124150000Y-127870000D03*
X122880000Y-127870000D03*
X124150000Y-129140000D03*
X122880000Y-129140000D03*
X124150000Y-130410000D03*
X122880000Y-130410000D03*
X124150000Y-131680000D03*
X122880000Y-131680000D03*
X124150000Y-132950000D03*
X122880000Y-132950000D03*
%TD*%
D23*
%TO.C,R56*%
X132415000Y-103950000D03*
X133435000Y-103950000D03*
%TD*%
D24*
%TO.C,U7*%
X132800000Y-124050000D03*
X132800000Y-121750000D03*
D25*
X139100000Y-121750000D03*
D24*
X132800000Y-119450000D03*
%TD*%
D26*
%TO.C,C11*%
X154490000Y-104890000D03*
X155450000Y-104890000D03*
%TD*%
D27*
%TO.C,R16*%
X147150000Y-96240000D03*
X147150000Y-97260000D03*
%TD*%
D28*
%TO.C,C22*%
X137280000Y-114025000D03*
X137280000Y-112475000D03*
%TD*%
D29*
%TO.C,R59*%
X151590000Y-132190000D03*
X151590000Y-131170000D03*
%TD*%
D30*
%TO.C,Q2*%
X118740000Y-128371662D03*
X118740000Y-126471662D03*
X121140000Y-127421662D03*
%TD*%
D27*
%TO.C,R57*%
X156225000Y-113330000D03*
X156225000Y-114350000D03*
%TD*%
D23*
%TO.C,R45*%
X146715000Y-103950000D03*
X147735000Y-103950000D03*
%TD*%
D27*
%TO.C,R10*%
X117180000Y-125440000D03*
X117180000Y-126460000D03*
%TD*%
D31*
%TO.C,U3*%
X153255000Y-110775000D03*
X151985000Y-110775000D03*
X150715000Y-110775000D03*
X149445000Y-110775000D03*
X149445000Y-105525000D03*
X150715000Y-105525000D03*
X151985000Y-105525000D03*
X153255000Y-105525000D03*
%TD*%
D32*
%TO.C,R27*%
X133710000Y-114450000D03*
X132690000Y-114450000D03*
%TD*%
D33*
%TO.C,R77*%
X139300000Y-79150000D03*
X139300000Y-77500000D03*
%TD*%
D23*
%TO.C,R47*%
X144915000Y-103950000D03*
X145935000Y-103950000D03*
%TD*%
D34*
%TO.C,R75*%
X137562500Y-93590000D03*
X135737500Y-93590000D03*
%TD*%
D35*
%TO.C,Q15*%
X156862500Y-109325000D03*
X156862500Y-111225000D03*
X154987500Y-110275000D03*
%TD*%
D27*
%TO.C,R15*%
X118090000Y-122245000D03*
X118090000Y-123265000D03*
%TD*%
D23*
%TO.C,R44*%
X143115000Y-103950000D03*
X144135000Y-103950000D03*
%TD*%
%TO.C,R52*%
X141340000Y-103950000D03*
X142360000Y-103950000D03*
%TD*%
D36*
%TO.C,C32*%
X122515000Y-113735000D03*
X120615000Y-113735000D03*
%TD*%
D27*
%TO.C,R26*%
X130975000Y-110090000D03*
X130975000Y-111110000D03*
%TD*%
D37*
%TO.C,C1*%
X154620000Y-131200000D03*
X154620000Y-132160000D03*
%TD*%
D38*
%TO.C,Q1*%
X125350000Y-120075000D03*
X123450000Y-120075000D03*
X124400000Y-117675000D03*
%TD*%
D39*
%TO.C,C4*%
X161825000Y-121600000D03*
X160275000Y-121600000D03*
%TD*%
D23*
%TO.C,R2*%
X152100000Y-112720000D03*
X153120000Y-112720000D03*
%TD*%
D40*
%TO.C,J4*%
X144370000Y-73125000D03*
D41*
X144370000Y-68925000D03*
D40*
X135730000Y-73125000D03*
D41*
X135730000Y-68925000D03*
D42*
X136850000Y-73725000D03*
X137650000Y-73725000D03*
D43*
X138300000Y-73725000D03*
X139300000Y-73725000D03*
X140800000Y-73725000D03*
X141800000Y-73725000D03*
D42*
X142450000Y-73725000D03*
X143250000Y-73725000D03*
X143250000Y-73725000D03*
X142450000Y-73725000D03*
D43*
X141300000Y-73725000D03*
X140300000Y-73725000D03*
X139800000Y-73725000D03*
X138800000Y-73725000D03*
D42*
X137650000Y-73725000D03*
X136850000Y-73725000D03*
D44*
X142940000Y-72605000D03*
X137160000Y-72605000D03*
%TD*%
D37*
%TO.C,C6*%
X142864999Y-131120000D03*
X142864999Y-132080000D03*
%TD*%
D45*
%TO.C,C20*%
X142750000Y-105855000D03*
X142750000Y-104895000D03*
%TD*%
D46*
%TO.C,D1*%
X160475000Y-104775000D03*
X158325000Y-104775000D03*
%TD*%
D32*
%TO.C,R23*%
X125685000Y-110250000D03*
X124665000Y-110250000D03*
%TD*%
D47*
%TO.C,Q4*%
X121275000Y-124875000D03*
X119375000Y-124875000D03*
X120325000Y-122475000D03*
%TD*%
D29*
%TO.C,R78*%
X140950000Y-76335000D03*
X140950000Y-75315000D03*
%TD*%
D48*
%TO.C,Q3*%
X129120000Y-118625000D03*
X129120000Y-120525000D03*
X126720000Y-119575000D03*
%TD*%
D49*
%TO.C,C38*%
X137800000Y-77550000D03*
X137800000Y-79100000D03*
%TD*%
D32*
%TO.C,R25*%
X132960000Y-113200000D03*
X131940000Y-113200000D03*
%TD*%
%TO.C,R67*%
X140610000Y-134354882D03*
X139590000Y-134354882D03*
%TD*%
D23*
%TO.C,R79*%
X137690000Y-76274999D03*
X138710000Y-76274999D03*
%TD*%
D37*
%TO.C,C41*%
X154440000Y-111650000D03*
X154440000Y-112610000D03*
%TD*%
D27*
%TO.C,R50*%
X134800000Y-112230000D03*
X134800000Y-113250000D03*
%TD*%
D50*
%TO.C,R32*%
X138156637Y-117846637D03*
X139323363Y-119013363D03*
%TD*%
D51*
%TO.C,U8*%
X156825000Y-115950000D03*
X156825000Y-116450000D03*
X156825000Y-116950000D03*
X156825000Y-117450000D03*
X156825000Y-117950000D03*
X156825000Y-118450000D03*
X156825000Y-118950000D03*
X156825000Y-119450000D03*
X156825000Y-119950000D03*
X156825000Y-120450000D03*
X156825000Y-120950000D03*
X156825000Y-121450000D03*
X156825000Y-121950000D03*
X156825000Y-122450000D03*
X156825000Y-122950000D03*
X156825000Y-123450000D03*
X156825000Y-123950000D03*
X156825000Y-124450000D03*
X156825000Y-124950000D03*
X156825000Y-125450000D03*
X156825000Y-125950000D03*
X156825000Y-126450000D03*
X156825000Y-126950000D03*
X156825000Y-127450000D03*
X156825000Y-127950000D03*
D52*
X155150000Y-129625000D03*
X154650000Y-129625000D03*
X154150000Y-129625000D03*
X153650000Y-129625000D03*
X153150000Y-129625000D03*
X152650000Y-129625000D03*
X152150000Y-129625000D03*
X151650000Y-129625000D03*
X151150000Y-129625000D03*
X150650000Y-129625000D03*
X150150000Y-129625000D03*
X149650000Y-129625000D03*
X149150000Y-129625000D03*
X148650000Y-129625000D03*
X148150000Y-129625000D03*
X147650000Y-129625000D03*
X147150000Y-129625000D03*
X146650000Y-129625000D03*
X146150000Y-129625000D03*
X145650000Y-129625000D03*
X145150000Y-129625000D03*
X144650000Y-129625000D03*
X144150000Y-129625000D03*
X143650000Y-129625000D03*
X143150000Y-129625000D03*
D51*
X141475000Y-127950000D03*
X141475000Y-127450000D03*
X141475000Y-126950000D03*
X141475000Y-126450000D03*
X141475000Y-125950000D03*
X141475000Y-125450000D03*
X141475000Y-124950000D03*
X141475000Y-124450000D03*
X141475000Y-123950000D03*
X141475000Y-123450000D03*
X141475000Y-122950000D03*
X141475000Y-122450000D03*
X141475000Y-121950000D03*
X141475000Y-121450000D03*
X141475000Y-120950000D03*
X141475000Y-120450000D03*
X141475000Y-119950000D03*
X141475000Y-119450000D03*
X141475000Y-118950000D03*
X141475000Y-118450000D03*
X141475000Y-117950000D03*
X141475000Y-117450000D03*
X141475000Y-116950000D03*
X141475000Y-116450000D03*
X141475000Y-115950000D03*
D52*
X143150000Y-114275000D03*
X143650000Y-114275000D03*
X144150000Y-114275000D03*
X144650000Y-114275000D03*
X145150000Y-114275000D03*
X145650000Y-114275000D03*
X146150000Y-114275000D03*
X146650000Y-114275000D03*
X147150000Y-114275000D03*
X147650000Y-114275000D03*
X148150000Y-114275000D03*
X148650000Y-114275000D03*
X149150000Y-114275000D03*
X149650000Y-114275000D03*
X150150000Y-114275000D03*
X150650000Y-114275000D03*
X151150000Y-114275000D03*
X151650000Y-114275000D03*
X152150000Y-114275000D03*
X152650000Y-114275000D03*
X153150000Y-114275000D03*
X153650000Y-114275000D03*
X154150000Y-114275000D03*
X154650000Y-114275000D03*
X155150000Y-114275000D03*
%TD*%
D32*
%TO.C,R3*%
X121135000Y-117375000D03*
X120115000Y-117375000D03*
%TD*%
D23*
%TO.C,R14*%
X124440001Y-76950000D03*
X125460001Y-76950000D03*
%TD*%
D53*
%TO.C,C29*%
X134980000Y-126800000D03*
X134020000Y-126800000D03*
%TD*%
D54*
%TO.C,R41*%
X131005000Y-126640000D03*
X132655000Y-126640000D03*
%TD*%
D23*
%TO.C,R53*%
X130615000Y-103950000D03*
X131635000Y-103950000D03*
%TD*%
D29*
%TO.C,R62*%
X149720000Y-132190000D03*
X149720000Y-131170000D03*
%TD*%
D27*
%TO.C,R19*%
X137050000Y-95820000D03*
X137050000Y-96840000D03*
%TD*%
D55*
%TO.C,C31*%
X139939411Y-117664411D03*
X139260589Y-116985589D03*
%TD*%
D56*
%TO.C,D6*%
X130700000Y-119695000D03*
X130700000Y-121845000D03*
%TD*%
D27*
%TO.C,R28*%
X128525000Y-110140000D03*
X128525000Y-111160000D03*
%TD*%
D53*
%TO.C,C28*%
X141230000Y-129400000D03*
X140270000Y-129400000D03*
%TD*%
D57*
%TO.C,Q17*%
X125750000Y-117075000D03*
X125750000Y-115175000D03*
X128150000Y-116125000D03*
%TD*%
D48*
%TO.C,Q11*%
X132300000Y-115450000D03*
X132300000Y-117350000D03*
X129900000Y-116400000D03*
%TD*%
D23*
%TO.C,R46*%
X152215000Y-103950000D03*
X153235000Y-103950000D03*
%TD*%
D47*
%TO.C,Q12*%
X130710000Y-113950000D03*
X128810000Y-113950000D03*
X129760000Y-111550000D03*
%TD*%
D27*
%TO.C,R61*%
X152520000Y-131170000D03*
X152520000Y-132190000D03*
%TD*%
D53*
%TO.C,C15*%
X127505000Y-110250000D03*
X126545000Y-110250000D03*
%TD*%
D29*
%TO.C,R63*%
X148790000Y-132190000D03*
X148790000Y-131170000D03*
%TD*%
D58*
%TO.C,U10*%
X147707500Y-85879999D03*
X147072500Y-85879999D03*
X146437500Y-85879999D03*
X145802500Y-85879999D03*
X145167500Y-85879999D03*
X144532500Y-85879999D03*
X143897500Y-85879999D03*
X143262500Y-85879999D03*
X142627500Y-85879999D03*
X141992500Y-85879999D03*
X141992500Y-80679999D03*
X142627500Y-80679999D03*
X143262500Y-80679999D03*
X143897500Y-80679999D03*
X144532500Y-80679999D03*
X145167500Y-80679999D03*
X145802500Y-80679999D03*
X146437500Y-80679999D03*
X147072500Y-80679999D03*
X147707500Y-80679999D03*
%TD*%
D59*
%TO.C,D5*%
X128700000Y-105775000D03*
X128700000Y-109075000D03*
%TD*%
D23*
%TO.C,R12*%
X124440000Y-78950000D03*
X125460000Y-78950000D03*
%TD*%
D37*
%TO.C,C33*%
X118050000Y-108870000D03*
X118050000Y-109830000D03*
%TD*%
D32*
%TO.C,R72*%
X121101666Y-104325001D03*
X120081666Y-104325001D03*
%TD*%
D53*
%TO.C,C7*%
X139955000Y-116075000D03*
X138995000Y-116075000D03*
%TD*%
D60*
%TO.C,R4*%
X149225000Y-112510000D03*
X147575000Y-112510000D03*
%TD*%
D29*
%TO.C,R17*%
X116280000Y-125010000D03*
X116280000Y-123990000D03*
%TD*%
%TO.C,R29*%
X125450000Y-123910000D03*
X125450000Y-122890000D03*
%TD*%
D30*
%TO.C,Q18*%
X119200000Y-120880000D03*
X119200000Y-118980000D03*
X121600000Y-119930000D03*
%TD*%
D21*
%TO.C,J3*%
X155949905Y-81980033D03*
D22*
X157219905Y-81980033D03*
X155949905Y-80710033D03*
X157219905Y-80710033D03*
X155949905Y-79440033D03*
X157219905Y-79440033D03*
X155949905Y-78170033D03*
X157219905Y-78170033D03*
X155949905Y-76900033D03*
X157219905Y-76900033D03*
X155949905Y-75630033D03*
X157219905Y-75630033D03*
X155949905Y-74360033D03*
X157219905Y-74360033D03*
X155949905Y-73090033D03*
X157219905Y-73090033D03*
X155949905Y-71820033D03*
X157219905Y-71820033D03*
X155949905Y-70550033D03*
X157219905Y-70550033D03*
%TD*%
D26*
%TO.C,C35*%
X142170000Y-93550000D03*
X143130000Y-93550000D03*
%TD*%
D23*
%TO.C,R13*%
X124440000Y-77950000D03*
X125460000Y-77950000D03*
%TD*%
%TO.C,R55*%
X139565000Y-103950000D03*
X140585000Y-103950000D03*
%TD*%
D27*
%TO.C,R37*%
X139925000Y-126820000D03*
X139925000Y-127840000D03*
%TD*%
%TO.C,R24*%
X116520000Y-128250000D03*
X116520000Y-129270000D03*
%TD*%
D61*
%TO.C,Q13*%
X155002500Y-107925000D03*
X155002500Y-106025000D03*
X156877500Y-106975000D03*
%TD*%
D34*
%TO.C,R74*%
X140862500Y-93590000D03*
X139037500Y-93590000D03*
%TD*%
D45*
%TO.C,C34*%
X125950000Y-96350000D03*
X125950000Y-95390000D03*
%TD*%
D29*
%TO.C,R34*%
X117180000Y-124560000D03*
X117180000Y-123540000D03*
%TD*%
D62*
%TO.C,Q14*%
X140000000Y-112737500D03*
X141900000Y-112737500D03*
X140950000Y-114612500D03*
%TD*%
D26*
%TO.C,C2*%
X160245000Y-120150000D03*
X161205000Y-120150000D03*
%TD*%
D37*
%TO.C,C40*%
X143560000Y-78420000D03*
X143560000Y-79380000D03*
%TD*%
D23*
%TO.C,R42*%
X150340000Y-103950000D03*
X151360000Y-103950000D03*
%TD*%
D36*
%TO.C,C37*%
X144075000Y-75850000D03*
X142175000Y-75850000D03*
%TD*%
D27*
%TO.C,R64*%
X157325000Y-112065000D03*
X157325000Y-113085000D03*
%TD*%
D26*
%TO.C,C36*%
X144500000Y-79320001D03*
X145460000Y-79320001D03*
%TD*%
D33*
%TO.C,R48*%
X138600000Y-114075000D03*
X138600000Y-112425000D03*
%TD*%
D27*
%TO.C,R73*%
X126950000Y-95360000D03*
X126950000Y-96380000D03*
%TD*%
%TO.C,R21*%
X127575000Y-111115000D03*
X127575000Y-112135000D03*
%TD*%
D29*
%TO.C,R80*%
X121100000Y-89010000D03*
X121100000Y-87990000D03*
%TD*%
%TO.C,R5*%
X157300000Y-105870000D03*
X157300000Y-104850000D03*
%TD*%
%TO.C,R11*%
X121366000Y-129478000D03*
X121366000Y-128458000D03*
%TD*%
D32*
%TO.C,R8*%
X122985000Y-115125000D03*
X121965000Y-115125000D03*
%TD*%
D23*
%TO.C,R43*%
X154090000Y-103950000D03*
X155110000Y-103950000D03*
%TD*%
D49*
%TO.C,C39*%
X142300000Y-77550000D03*
X142300000Y-79100000D03*
%TD*%
D53*
%TO.C,C23*%
X136980000Y-103950000D03*
X136020000Y-103950000D03*
%TD*%
D27*
%TO.C,R1*%
X161175000Y-108040000D03*
X161175000Y-109060000D03*
%TD*%
D63*
%TO.C,C25*%
X158575000Y-128000000D03*
X160125000Y-128000000D03*
%TD*%
D36*
%TO.C,C10*%
X122515000Y-112035000D03*
X120615000Y-112035000D03*
%TD*%
D32*
%TO.C,R69*%
X120101667Y-105425001D03*
X119081667Y-105425001D03*
%TD*%
D23*
%TO.C,R51*%
X137765000Y-103950000D03*
X138785000Y-103950000D03*
%TD*%
D63*
%TO.C,C13*%
X120275000Y-116250000D03*
X121825000Y-116250000D03*
%TD*%
D26*
%TO.C,C16*%
X130240000Y-118640000D03*
X131200000Y-118640000D03*
%TD*%
D53*
%TO.C,C18*%
X149480000Y-103950000D03*
X148520000Y-103950000D03*
%TD*%
D23*
%TO.C,R65*%
X150180000Y-112720000D03*
X151200000Y-112720000D03*
%TD*%
%TO.C,R7*%
X124440000Y-79950000D03*
X125460000Y-79950000D03*
%TD*%
D27*
%TO.C,R22*%
X127575000Y-112965000D03*
X127575000Y-113985000D03*
%TD*%
D23*
%TO.C,R20*%
X131940000Y-112275000D03*
X132960000Y-112275000D03*
%TD*%
D27*
%TO.C,R58*%
X157325000Y-113890000D03*
X157325000Y-114910000D03*
%TD*%
D33*
%TO.C,R76*%
X140800000Y-79150000D03*
X140800000Y-77500000D03*
%TD*%
D64*
%TO.C,D4*%
X130575000Y-108475000D03*
X130575000Y-106325000D03*
%TD*%
D31*
%TO.C,U6*%
X136055000Y-110775000D03*
X134785000Y-110775000D03*
X133515000Y-110775000D03*
X132245000Y-110775000D03*
X132245000Y-105525000D03*
X133515000Y-105525000D03*
X134785000Y-105525000D03*
X136055000Y-105525000D03*
%TD*%
D53*
%TO.C,C17*%
X133710000Y-125520000D03*
X132750000Y-125520000D03*
%TD*%
D32*
%TO.C,R49*%
X139970000Y-115175000D03*
X138950000Y-115175000D03*
%TD*%
D37*
%TO.C,C3*%
X159300000Y-119895000D03*
X159300000Y-120855000D03*
%TD*%
D27*
%TO.C,R35*%
X117510000Y-127360000D03*
X117510000Y-128380000D03*
%TD*%
D65*
%TO.C,Y1*%
X160550000Y-123200000D03*
X162750000Y-123200000D03*
X162750000Y-124900000D03*
X160550000Y-124900000D03*
%TD*%
D66*
%TO.C,R31*%
X137275000Y-115150000D03*
X137275000Y-116800000D03*
%TD*%
D29*
%TO.C,R60*%
X150650000Y-132190000D03*
X150650000Y-131170000D03*
%TD*%
D23*
%TO.C,R68*%
X155390000Y-112400000D03*
X156410000Y-112400000D03*
%TD*%
D67*
%TO.C,Q16*%
X141000000Y-132862500D03*
X139100000Y-132862500D03*
X140050000Y-130987500D03*
%TD*%
D32*
%TO.C,R36*%
X145390000Y-112380000D03*
X144370000Y-112380000D03*
%TD*%
D26*
%TO.C,C27*%
X158345000Y-126350000D03*
X159305000Y-126350000D03*
%TD*%
D68*
%TO.C,C9*%
X125150000Y-107225000D03*
X125150000Y-104275000D03*
%TD*%
D39*
%TO.C,C5*%
X162025000Y-126500000D03*
X160475000Y-126500000D03*
%TD*%
D66*
%TO.C,R30*%
X135950000Y-112425000D03*
X135950000Y-114075000D03*
%TD*%
D47*
%TO.C,Q10*%
X135812500Y-117425000D03*
X133912500Y-117425000D03*
X134862500Y-115025000D03*
%TD*%
D32*
%TO.C,R38*%
X142110000Y-130425000D03*
X141090000Y-130425000D03*
%TD*%
D37*
%TO.C,C30*%
X144165000Y-131120000D03*
X144165000Y-132080000D03*
%TD*%
D45*
%TO.C,C14*%
X136049999Y-96810000D03*
X136049999Y-95850000D03*
%TD*%
D32*
%TO.C,R6*%
X126335000Y-121725000D03*
X125315000Y-121725000D03*
%TD*%
D47*
%TO.C,Q8*%
X126350000Y-113750000D03*
X124450000Y-113750000D03*
X125400000Y-111350000D03*
%TD*%
D31*
%TO.C,U4*%
X147855000Y-110775000D03*
X146585000Y-110775000D03*
X145315000Y-110775000D03*
X144045000Y-110775000D03*
X144045000Y-105525000D03*
X145315000Y-105525000D03*
X146585000Y-105525000D03*
X147855000Y-105525000D03*
%TD*%
D45*
%TO.C,C8*%
X158350000Y-120855000D03*
X158350000Y-119895000D03*
%TD*%
D27*
%TO.C,R33*%
X118090000Y-124415000D03*
X118090000Y-125435000D03*
%TD*%
D32*
%TO.C,R9*%
X121185000Y-115125000D03*
X120165000Y-115125000D03*
%TD*%
D23*
%TO.C,R70*%
X122581667Y-105425001D03*
X123601667Y-105425001D03*
%TD*%
D46*
%TO.C,D17*%
X126900000Y-108875000D03*
X124750000Y-108875000D03*
%TD*%
D69*
%TO.C,L1*%
X126950000Y-105662500D03*
X126950000Y-107237500D03*
%TD*%
D23*
%TO.C,R54*%
X134215000Y-103950000D03*
X135235000Y-103950000D03*
%TD*%
D32*
%TO.C,R71*%
X129535000Y-115050000D03*
X128515000Y-115050000D03*
%TD*%
D21*
%TO.C,J1*%
X159375000Y-106735000D03*
D22*
X159375000Y-108005000D03*
X159375000Y-109275000D03*
X159375000Y-110545000D03*
X159375000Y-111815000D03*
X159375000Y-113085000D03*
X159375000Y-114355000D03*
X159375000Y-115625000D03*
X159375000Y-116895000D03*
X159375000Y-118165000D03*
%TD*%
D31*
%TO.C,U5*%
X141455000Y-110775000D03*
X140185000Y-110775000D03*
X138915000Y-110775000D03*
X137645000Y-110775000D03*
X137645000Y-105525000D03*
X138915000Y-105525000D03*
X140185000Y-105525000D03*
X141455000Y-105525000D03*
%TD*%
D27*
%TO.C,R18*%
X133850000Y-112230000D03*
X133850000Y-113250000D03*
%TD*%
D45*
%TO.C,C12*%
X146150000Y-97230000D03*
X146150000Y-96270000D03*
%TD*%
%LPD*%
M02*
