%TF.GenerationSoftware,KiCad,Pcbnew,7.0.11*%
%TF.CreationDate,2025-05-28T11:48:16+09:00*%
%TF.ProjectId,2ndLayer_3rdLayer,326e644c-6179-4657-925f-3372644c6179,rev?*%
%TF.SameCoordinates,Original*%
%TF.FileFunction,Copper,L2,Bot*%
%TF.FilePolarity,Positive*%
%FSLAX46Y46*%
G04 Gerber Fmt 4.6, Leading zero omitted, Abs format (unit mm)*
G04 Created by KiCad (PCBNEW 7.0.11) date 2025-05-28 11:48:16*
%MOMM*%
%LPD*%
G01*
G04 APERTURE LIST*
G04 Aperture macros list*
%AMRoundRect*
0 Rectangle with rounded corners*
0 $1 Rounding radius*
0 $2 $3 $4 $5 $6 $7 $8 $9 X,Y pos of 4 corners*
0 Add a 4 corners polygon primitive as box body*
4,1,4,$2,$3,$4,$5,$6,$7,$8,$9,$2,$3,0*
0 Add four circle primitives for the rounded corners*
1,1,$1+$1,$2,$3*
1,1,$1+$1,$4,$5*
1,1,$1+$1,$6,$7*
1,1,$1+$1,$8,$9*
0 Add four rect primitives between the rounded corners*
20,1,$1+$1,$2,$3,$4,$5,0*
20,1,$1+$1,$4,$5,$6,$7,0*
20,1,$1+$1,$6,$7,$8,$9,0*
20,1,$1+$1,$8,$9,$2,$3,0*%
G04 Aperture macros list end*
%TA.AperFunction,ComponentPad*%
%ADD10RoundRect,0.381000X-0.335420X0.421681X-0.421681X-0.335420X0.335420X-0.421681X0.421681X0.335420X0*%
%TD*%
%TA.AperFunction,ComponentPad*%
%ADD11C,1.524000*%
%TD*%
%TA.AperFunction,ComponentPad*%
%ADD12RoundRect,0.425000X-0.425000X-0.425000X0.425000X-0.425000X0.425000X0.425000X-0.425000X0.425000X0*%
%TD*%
%TA.AperFunction,ComponentPad*%
%ADD13C,1.700000*%
%TD*%
%TA.AperFunction,ComponentPad*%
%ADD14C,2.000000*%
%TD*%
%TA.AperFunction,ComponentPad*%
%ADD15R,1.000000X1.000000*%
%TD*%
%TA.AperFunction,ComponentPad*%
%ADD16O,1.000000X1.000000*%
%TD*%
%TA.AperFunction,SMDPad,CuDef*%
%ADD17RoundRect,0.135000X-0.135000X-0.185000X0.135000X-0.185000X0.135000X0.185000X-0.135000X0.185000X0*%
%TD*%
%TA.AperFunction,SMDPad,CuDef*%
%ADD18RoundRect,0.375000X-0.625000X-0.375000X0.625000X-0.375000X0.625000X0.375000X-0.625000X0.375000X0*%
%TD*%
%TA.AperFunction,SMDPad,CuDef*%
%ADD19RoundRect,0.500000X-0.500000X-1.400000X0.500000X-1.400000X0.500000X1.400000X-0.500000X1.400000X0*%
%TD*%
%TA.AperFunction,SMDPad,CuDef*%
%ADD20RoundRect,0.140000X0.170000X-0.140000X0.170000X0.140000X-0.170000X0.140000X-0.170000X-0.140000X0*%
%TD*%
%TA.AperFunction,SMDPad,CuDef*%
%ADD21RoundRect,0.135000X0.185000X-0.135000X0.185000X0.135000X-0.185000X0.135000X-0.185000X-0.135000X0*%
%TD*%
%TA.AperFunction,SMDPad,CuDef*%
%ADD22RoundRect,0.225000X0.250000X-0.225000X0.250000X0.225000X-0.250000X0.225000X-0.250000X-0.225000X0*%
%TD*%
%TA.AperFunction,SMDPad,CuDef*%
%ADD23RoundRect,0.135000X0.135000X0.185000X-0.135000X0.185000X-0.135000X-0.185000X0.135000X-0.185000X0*%
%TD*%
%TA.AperFunction,SMDPad,CuDef*%
%ADD24RoundRect,0.150000X0.587500X0.150000X-0.587500X0.150000X-0.587500X-0.150000X0.587500X-0.150000X0*%
%TD*%
%TA.AperFunction,SMDPad,CuDef*%
%ADD25RoundRect,0.150000X0.150000X-0.675000X0.150000X0.675000X-0.150000X0.675000X-0.150000X-0.675000X0*%
%TD*%
%TA.AperFunction,SMDPad,CuDef*%
%ADD26RoundRect,0.135000X-0.185000X0.135000X-0.185000X-0.135000X0.185000X-0.135000X0.185000X0.135000X0*%
%TD*%
%TA.AperFunction,SMDPad,CuDef*%
%ADD27RoundRect,0.200000X-0.275000X0.200000X-0.275000X-0.200000X0.275000X-0.200000X0.275000X0.200000X0*%
%TD*%
%TA.AperFunction,SMDPad,CuDef*%
%ADD28RoundRect,0.237500X-0.250000X-0.237500X0.250000X-0.237500X0.250000X0.237500X-0.250000X0.237500X0*%
%TD*%
%TA.AperFunction,SMDPad,CuDef*%
%ADD29RoundRect,0.250000X0.250000X0.475000X-0.250000X0.475000X-0.250000X-0.475000X0.250000X-0.475000X0*%
%TD*%
%TA.AperFunction,SMDPad,CuDef*%
%ADD30RoundRect,0.175000X0.175000X-0.325000X0.175000X0.325000X-0.175000X0.325000X-0.175000X-0.325000X0*%
%TD*%
%TA.AperFunction,SMDPad,CuDef*%
%ADD31RoundRect,0.225000X0.225000X0.250000X-0.225000X0.250000X-0.225000X-0.250000X0.225000X-0.250000X0*%
%TD*%
%TA.AperFunction,SMDPad,CuDef*%
%ADD32R,0.600000X1.240000*%
%TD*%
%TA.AperFunction,SMDPad,CuDef*%
%ADD33R,0.300000X1.240000*%
%TD*%
%TA.AperFunction,ComponentPad*%
%ADD34O,1.000000X1.800000*%
%TD*%
%TA.AperFunction,ComponentPad*%
%ADD35O,1.000000X2.100000*%
%TD*%
%TA.AperFunction,SMDPad,CuDef*%
%ADD36RoundRect,0.140000X-0.170000X0.140000X-0.170000X-0.140000X0.170000X-0.140000X0.170000X0.140000X0*%
%TD*%
%TA.AperFunction,SMDPad,CuDef*%
%ADD37RoundRect,0.140000X0.140000X0.170000X-0.140000X0.170000X-0.140000X-0.170000X0.140000X-0.170000X0*%
%TD*%
%TA.AperFunction,SMDPad,CuDef*%
%ADD38RoundRect,0.250000X0.250000X0.250000X-0.250000X0.250000X-0.250000X-0.250000X0.250000X-0.250000X0*%
%TD*%
%TA.AperFunction,SMDPad,CuDef*%
%ADD39RoundRect,0.150000X0.150000X-0.587500X0.150000X0.587500X-0.150000X0.587500X-0.150000X-0.587500X0*%
%TD*%
%TA.AperFunction,SMDPad,CuDef*%
%ADD40RoundRect,0.175000X0.325000X0.175000X-0.325000X0.175000X-0.325000X-0.175000X0.325000X-0.175000X0*%
%TD*%
%TA.AperFunction,SMDPad,CuDef*%
%ADD41RoundRect,0.200000X0.275000X-0.200000X0.275000X0.200000X-0.275000X0.200000X-0.275000X-0.200000X0*%
%TD*%
%TA.AperFunction,SMDPad,CuDef*%
%ADD42RoundRect,0.075000X0.725000X0.075000X-0.725000X0.075000X-0.725000X-0.075000X0.725000X-0.075000X0*%
%TD*%
%TA.AperFunction,SMDPad,CuDef*%
%ADD43RoundRect,0.075000X0.075000X0.725000X-0.075000X0.725000X-0.075000X-0.725000X0.075000X-0.725000X0*%
%TD*%
%TA.AperFunction,SMDPad,CuDef*%
%ADD44RoundRect,0.140000X-0.140000X-0.170000X0.140000X-0.170000X0.140000X0.170000X-0.140000X0.170000X0*%
%TD*%
%TA.AperFunction,SMDPad,CuDef*%
%ADD45RoundRect,0.200000X-0.200000X-0.275000X0.200000X-0.275000X0.200000X0.275000X-0.200000X0.275000X0*%
%TD*%
%TA.AperFunction,SMDPad,CuDef*%
%ADD46RoundRect,0.175000X-0.325000X-0.175000X0.325000X-0.175000X0.325000X0.175000X-0.325000X0.175000X0*%
%TD*%
%TA.AperFunction,SMDPad,CuDef*%
%ADD47R,0.400000X1.200000*%
%TD*%
%TA.AperFunction,SMDPad,CuDef*%
%ADD48RoundRect,0.225000X-0.375000X0.225000X-0.375000X-0.225000X0.375000X-0.225000X0.375000X0.225000X0*%
%TD*%
%TA.AperFunction,SMDPad,CuDef*%
%ADD49RoundRect,0.200000X0.200000X0.275000X-0.200000X0.275000X-0.200000X-0.275000X0.200000X-0.275000X0*%
%TD*%
%TA.AperFunction,SMDPad,CuDef*%
%ADD50RoundRect,0.150000X-0.150000X0.587500X-0.150000X-0.587500X0.150000X-0.587500X0.150000X0.587500X0*%
%TD*%
%TA.AperFunction,SMDPad,CuDef*%
%ADD51RoundRect,0.250000X-0.250000X0.250000X-0.250000X-0.250000X0.250000X-0.250000X0.250000X0.250000X0*%
%TD*%
%TA.AperFunction,SMDPad,CuDef*%
%ADD52RoundRect,0.250000X-0.250000X-0.475000X0.250000X-0.475000X0.250000X0.475000X-0.250000X0.475000X0*%
%TD*%
%TA.AperFunction,SMDPad,CuDef*%
%ADD53RoundRect,0.225000X-0.225000X-0.250000X0.225000X-0.250000X0.225000X0.250000X-0.225000X0.250000X0*%
%TD*%
%TA.AperFunction,SMDPad,CuDef*%
%ADD54RoundRect,0.250000X0.250000X-0.250000X0.250000X0.250000X-0.250000X0.250000X-0.250000X-0.250000X0*%
%TD*%
%TA.AperFunction,SMDPad,CuDef*%
%ADD55R,1.400000X1.200000*%
%TD*%
%TA.AperFunction,SMDPad,CuDef*%
%ADD56RoundRect,0.250000X0.650000X-0.325000X0.650000X0.325000X-0.650000X0.325000X-0.650000X-0.325000X0*%
%TD*%
%TA.AperFunction,SMDPad,CuDef*%
%ADD57RoundRect,0.150000X-0.587500X-0.150000X0.587500X-0.150000X0.587500X0.150000X-0.587500X0.150000X0*%
%TD*%
%TA.AperFunction,SMDPad,CuDef*%
%ADD58R,1.650000X0.499500*%
%TD*%
%TA.AperFunction,SMDPad,CuDef*%
%ADD59R,1.650000X0.300000*%
%TD*%
%TA.AperFunction,SMDPad,CuDef*%
%ADD60R,2.049998X2.149998*%
%TD*%
%TA.AperFunction,SMDPad,CuDef*%
%ADD61R,2.049998X2.150000*%
%TD*%
%TA.AperFunction,SMDPad,CuDef*%
%ADD62R,1.650000X0.500000*%
%TD*%
%TA.AperFunction,SMDPad,CuDef*%
%ADD63R,0.300000X1.400002*%
%TD*%
%TA.AperFunction,SMDPad,CuDef*%
%ADD64R,0.300000X5.050000*%
%TD*%
%TA.AperFunction,SMDPad,CuDef*%
%ADD65RoundRect,0.218750X0.218750X0.256250X-0.218750X0.256250X-0.218750X-0.256250X0.218750X-0.256250X0*%
%TD*%
%TA.AperFunction,ViaPad*%
%ADD66C,0.450000*%
%TD*%
%TA.AperFunction,Conductor*%
%ADD67C,0.200000*%
%TD*%
%TA.AperFunction,Conductor*%
%ADD68C,1.000000*%
%TD*%
%TA.AperFunction,Conductor*%
%ADD69C,0.250000*%
%TD*%
G04 APERTURE END LIST*
D10*
%TO.P,SW2,1,A*%
%TO.N,Net-(SW2-A)*%
X-7897196Y-31522723D03*
D11*
%TO.P,SW2,2,B*%
%TO.N,/2ndLayer/Power/S-S*%
X-10018875Y-28060285D03*
%TO.P,SW2,3,C*%
%TO.N,unconnected-(SW2-C-Pad3)*%
X-12865055Y-30956707D03*
%TD*%
D12*
%TO.P,U9,1,GND*%
%TO.N,GND*%
X66190000Y-8365000D03*
D13*
%TO.P,U9,2,VCC*%
%TO.N,+3.3V*%
X68730000Y-8365000D03*
%TO.P,U9,3,SCL*%
%TO.N,/3rdLayer/I2C_SCL*%
X71270000Y-8365000D03*
%TO.P,U9,4,SDA*%
%TO.N,/3rdLayer/I2C_SDA*%
X73810000Y-8365000D03*
%TD*%
D14*
%TO.P,TP3,1,1*%
%TO.N,GND*%
X-9600000Y-74900000D03*
%TD*%
D15*
%TO.P,J2,1,Pin_1*%
%TO.N,VBUS*%
X-15900000Y-18270000D03*
D16*
%TO.P,J2,2,Pin_2*%
X-17170000Y-18270000D03*
%TO.P,J2,3,Pin_3*%
%TO.N,+3.3V*%
X-15900000Y-19540000D03*
%TO.P,J2,4,Pin_4*%
%TO.N,GND*%
X-17170000Y-19540000D03*
%TO.P,J2,5,Pin_5*%
X-15900000Y-20810000D03*
%TO.P,J2,6,Pin_6*%
X-17170000Y-20810000D03*
%TO.P,J2,7,Pin_7*%
%TO.N,unconnected-(J2-Pin_7-Pad7)*%
X-15900000Y-22080000D03*
%TO.P,J2,8,Pin_8*%
%TO.N,/2ndLayer/DIPSW0_Twe*%
X-17170000Y-22080000D03*
%TO.P,J2,9,Pin_9*%
%TO.N,unconnected-(J2-Pin_9-Pad9)*%
X-15900000Y-23350000D03*
%TO.P,J2,10,Pin_10*%
%TO.N,/2ndLayer/DIPSW1_Twe*%
X-17170000Y-23350000D03*
%TO.P,J2,11,Pin_11*%
%TO.N,unconnected-(J2-Pin_11-Pad11)*%
X-15900000Y-24620000D03*
%TO.P,J2,12,Pin_12*%
%TO.N,/2ndLayer/DIPSW2_Twe*%
X-17170000Y-24620000D03*
%TO.P,J2,13,Pin_13*%
%TO.N,unconnected-(J2-Pin_13-Pad13)*%
X-15900000Y-25890000D03*
%TO.P,J2,14,Pin_14*%
%TO.N,/2ndLayer/DIPSW3_Twe*%
X-17170000Y-25890000D03*
%TO.P,J2,15,Pin_15*%
%TO.N,unconnected-(J2-Pin_15-Pad15)*%
X-15900000Y-27160000D03*
%TO.P,J2,16,Pin_16*%
%TO.N,/2ndLayer/PRG_Twe*%
X-17170000Y-27160000D03*
%TO.P,J2,17,Pin_17*%
%TO.N,unconnected-(J2-Pin_17-Pad17)*%
X-15900000Y-28430000D03*
%TO.P,J2,18,Pin_18*%
%TO.N,/2ndLayer/RST_Twe*%
X-17170000Y-28430000D03*
%TO.P,J2,19,Pin_19*%
%TO.N,unconnected-(J2-Pin_19-Pad19)*%
X-15900000Y-29700000D03*
%TO.P,J2,20,Pin_20*%
%TO.N,unconnected-(J2-Pin_20-Pad20)*%
X-17170000Y-29700000D03*
%TD*%
D14*
%TO.P,TP2,1,1*%
%TO.N,+3.3V*%
X-9600000Y-70850000D03*
%TD*%
%TO.P,TP1,1,1*%
%TO.N,+5V*%
X-9600000Y-66800000D03*
%TD*%
D17*
%TO.P,R56,1*%
%TO.N,/2ndLayer/RS485_RingNW/RS485Y_RA*%
X-7410000Y-700000D03*
%TO.P,R56,2*%
%TO.N,/2ndLayer/RS485_RingNW/RS485Y_RB*%
X-6390000Y-700000D03*
%TD*%
D18*
%TO.P,U7,1,GND*%
%TO.N,GND*%
X-7250000Y-20800000D03*
%TO.P,U7,2,VO*%
%TO.N,+3.3V*%
X-7250000Y-18500000D03*
D19*
X-950000Y-18500000D03*
D18*
%TO.P,U7,3,VI*%
%TO.N,+5V*%
X-7250000Y-16200000D03*
%TD*%
D17*
%TO.P,R66,1*%
%TO.N,Net-(D15-A)*%
X34390000Y-12100000D03*
%TO.P,R66,2*%
%TO.N,/2ndLayer/LED_Y0*%
X35410000Y-12100000D03*
%TD*%
D20*
%TO.P,C11,1*%
%TO.N,+3.3V*%
X14500000Y-2580000D03*
%TO.P,C11,2*%
%TO.N,GND*%
X14500000Y-1620000D03*
%TD*%
D21*
%TO.P,R16,1*%
%TO.N,/3rdLayer/TactSW0*%
X62900000Y-4010000D03*
%TO.P,R16,2*%
%TO.N,GND*%
X62900000Y-2990000D03*
%TD*%
D22*
%TO.P,C22,1*%
%TO.N,Net-(C22-Pad1)*%
X-2770000Y-10775000D03*
%TO.P,C22,2*%
%TO.N,GND*%
X-2770000Y-9225000D03*
%TD*%
D23*
%TO.P,R59,1*%
%TO.N,GND*%
X33810000Y-14900000D03*
%TO.P,R59,2*%
%TO.N,/2ndLayer/DIPSW0*%
X32790000Y-14900000D03*
%TD*%
D24*
%TO.P,Q2,1,B*%
%TO.N,Net-(Q2-B)*%
X-19962500Y-22287500D03*
%TO.P,Q2,2,E*%
%TO.N,/2ndLayer/Power/IND*%
X-19962500Y-24187500D03*
%TO.P,Q2,3,C*%
%TO.N,Net-(Q2-B)*%
X-21837500Y-23237500D03*
%TD*%
D17*
%TO.P,R57,1*%
%TO.N,Net-(D12-A)*%
X37790000Y-10600000D03*
%TO.P,R57,2*%
%TO.N,/2ndLayer/LED_B0*%
X38810000Y-10600000D03*
%TD*%
%TO.P,R45,1*%
%TO.N,/2ndLayer/RS485_RingNW/RS485X_RB*%
X6490000Y-700000D03*
%TO.P,R45,2*%
%TO.N,GND*%
X7510000Y-700000D03*
%TD*%
%TO.P,R10,1*%
%TO.N,GND*%
X-20485000Y-25462500D03*
%TO.P,R10,2*%
%TO.N,/2ndLayer/Power/IND*%
X-19465000Y-25462500D03*
%TD*%
D25*
%TO.P,U3,1,RO*%
%TO.N,unconnected-(U3-RO-Pad1)*%
X13205000Y-7525000D03*
%TO.P,U3,2,~{RE}*%
%TO.N,Net-(Q13-C)*%
X11935000Y-7525000D03*
%TO.P,U3,3,DE*%
X10665000Y-7525000D03*
%TO.P,U3,4,DI*%
%TO.N,/2ndLayer/MainTXx_RS485XRX*%
X9395000Y-7525000D03*
%TO.P,U3,5,GND*%
%TO.N,GND*%
X9395000Y-2275000D03*
%TO.P,U3,6,A*%
%TO.N,/2ndLayer/RS485_RingNW/RS485X_TA*%
X10665000Y-2275000D03*
%TO.P,U3,7,B*%
%TO.N,/2ndLayer/RS485_RingNW/RS485X_TB*%
X11935000Y-2275000D03*
%TO.P,U3,8,VCC*%
%TO.N,+3.3V*%
X13205000Y-2275000D03*
%TD*%
D26*
%TO.P,R27,1*%
%TO.N,GND*%
X-7200000Y-10890000D03*
%TO.P,R27,2*%
%TO.N,Net-(Q11-G)*%
X-7200000Y-11910000D03*
%TD*%
D27*
%TO.P,R77,1*%
%TO.N,Net-(U10-USBDM)*%
X70750000Y-21100000D03*
%TO.P,R77,2*%
%TO.N,Net-(C38-Pad1)*%
X70750000Y-22750000D03*
%TD*%
D17*
%TO.P,R47,1*%
%TO.N,/2ndLayer/RS485_RingNW/RS485X_RA*%
X4590000Y-700000D03*
%TO.P,R47,2*%
%TO.N,/2ndLayer/RS485_RingNW/RS485X_RB*%
X5610000Y-700000D03*
%TD*%
D28*
%TO.P,R75,1*%
%TO.N,+3.3V*%
X72487500Y-6400000D03*
%TO.P,R75,2*%
%TO.N,/3rdLayer/I2C_SDA*%
X74312500Y-6400000D03*
%TD*%
D24*
%TO.P,Q15,1,G*%
%TO.N,/2ndLayer/LED_nR0*%
X33287500Y-23590000D03*
%TO.P,Q15,2,S*%
%TO.N,GND*%
X33287500Y-25490000D03*
%TO.P,Q15,3,D*%
%TO.N,Net-(D16-A)*%
X31412500Y-24540000D03*
%TD*%
D21*
%TO.P,R15,1*%
%TO.N,GND*%
X-18500000Y-19110000D03*
%TO.P,R15,2*%
%TO.N,Net-(Q3-G)*%
X-18500000Y-18090000D03*
%TD*%
D17*
%TO.P,R44,1*%
%TO.N,+3.3V*%
X2690000Y-700000D03*
%TO.P,R44,2*%
%TO.N,/2ndLayer/RS485_RingNW/RS485X_RA*%
X3710000Y-700000D03*
%TD*%
D21*
%TO.P,R52,1*%
%TO.N,/2ndLayer/RS485_RingNW/RS485Y_TB*%
X2700000Y-2760000D03*
%TO.P,R52,2*%
%TO.N,GND*%
X2700000Y-1740000D03*
%TD*%
D29*
%TO.P,C32,1*%
%TO.N,/2ndLayer/Power/Vout*%
X-17400000Y-12600000D03*
%TO.P,C32,2*%
%TO.N,GND*%
X-19300000Y-12600000D03*
%TD*%
D26*
%TO.P,R26,1*%
%TO.N,VDD*%
X-5210000Y-9040000D03*
%TO.P,R26,2*%
%TO.N,GND*%
X-5210000Y-10060000D03*
%TD*%
D30*
%TO.P,Q1,1,G*%
%TO.N,Net-(Q1-G)*%
X-15010000Y-16810000D03*
%TO.P,Q1,2,S*%
%TO.N,VBUS*%
X-16910000Y-16810000D03*
%TO.P,Q1,3,D*%
%TO.N,/2ndLayer/Power/IND*%
X-15960000Y-14410000D03*
%TD*%
D31*
%TO.P,C4,1*%
%TO.N,GND*%
X21775000Y-18350000D03*
%TO.P,C4,2*%
%TO.N,/2ndLayer/HSE_IN*%
X20225000Y-18350000D03*
%TD*%
D17*
%TO.P,R2,1*%
%TO.N,/2ndLayer/BOOT0*%
X12940000Y-9500000D03*
%TO.P,R2,2*%
%TO.N,GND*%
X13960000Y-9500000D03*
%TD*%
D32*
%TO.P,J4,A1,GND*%
%TO.N,GND*%
X73200000Y-26525000D03*
%TO.P,J4,A4,VBUS*%
%TO.N,VBUS*%
X72400000Y-26525000D03*
D33*
%TO.P,J4,A5,CC1*%
%TO.N,Net-(J4-CC1)*%
X71250000Y-26525000D03*
%TO.P,J4,A6,D+*%
%TO.N,Net-(C39-Pad1)*%
X70250000Y-26525000D03*
%TO.P,J4,A7,D-*%
%TO.N,Net-(C38-Pad1)*%
X69750000Y-26525000D03*
%TO.P,J4,A8,SBU1*%
%TO.N,unconnected-(J4-SBU1-PadA8)*%
X68750000Y-26525000D03*
D32*
%TO.P,J4,A9,VBUS*%
%TO.N,VBUS*%
X67600000Y-26525000D03*
%TO.P,J4,A12,GND*%
%TO.N,GND*%
X66800000Y-26525000D03*
%TO.P,J4,B1,GND*%
X66800000Y-26525000D03*
%TO.P,J4,B4,VBUS*%
%TO.N,VBUS*%
X67600000Y-26525000D03*
D33*
%TO.P,J4,B5,CC2*%
%TO.N,Net-(J4-CC2)*%
X68250000Y-26525000D03*
%TO.P,J4,B6,D+*%
%TO.N,Net-(C39-Pad1)*%
X69250000Y-26525000D03*
%TO.P,J4,B7,D-*%
%TO.N,Net-(C38-Pad1)*%
X70750000Y-26525000D03*
%TO.P,J4,B8,SBU2*%
%TO.N,unconnected-(J4-SBU2-PadB8)*%
X71750000Y-26525000D03*
D32*
%TO.P,J4,B9,VBUS*%
%TO.N,VBUS*%
X72400000Y-26525000D03*
%TO.P,J4,B12,GND*%
%TO.N,GND*%
X73200000Y-26525000D03*
D34*
%TO.P,J4,S1,SHIELD*%
X74320000Y-31325000D03*
D35*
X74320000Y-27125000D03*
D34*
X65680000Y-31325000D03*
D35*
X65680000Y-27125000D03*
%TD*%
D36*
%TO.P,C6,1*%
%TO.N,+3.3V*%
X2814999Y-27870000D03*
%TO.P,C6,2*%
%TO.N,GND*%
X2814999Y-28830000D03*
%TD*%
D37*
%TO.P,C20,1*%
%TO.N,+3.3V*%
X1780000Y-700000D03*
%TO.P,C20,2*%
%TO.N,GND*%
X820000Y-700000D03*
%TD*%
D38*
%TO.P,D1,1,K*%
%TO.N,Net-(D1-K)*%
X28291190Y-14750000D03*
%TO.P,D1,2,A*%
%TO.N,+3.3V*%
X25791190Y-14750000D03*
%TD*%
D21*
%TO.P,R23,1*%
%TO.N,Net-(Q9-G)*%
X-6000000Y-41760000D03*
%TO.P,R23,2*%
%TO.N,Net-(Q8-D)*%
X-6000000Y-40740000D03*
%TD*%
D39*
%TO.P,Q4,1,B*%
%TO.N,Net-(Q2-B)*%
X-19750000Y-20537500D03*
%TO.P,Q4,2,E*%
%TO.N,+5V*%
X-21650000Y-20537500D03*
%TO.P,Q4,3,C*%
%TO.N,Net-(Q3-G)*%
X-20700000Y-18662500D03*
%TD*%
D26*
%TO.P,R78,1*%
%TO.N,GND*%
X69100000Y-23915000D03*
%TO.P,R78,2*%
%TO.N,Net-(J4-CC2)*%
X69100000Y-24935000D03*
%TD*%
D40*
%TO.P,Q3,1,G*%
%TO.N,Net-(Q3-G)*%
X-11100000Y-14550000D03*
%TO.P,Q3,2,S*%
%TO.N,+5V*%
X-11100000Y-16450000D03*
%TO.P,Q3,3,D*%
%TO.N,/2ndLayer/Power/IND*%
X-13500000Y-15500000D03*
%TD*%
D22*
%TO.P,C38,1*%
%TO.N,Net-(C38-Pad1)*%
X72250000Y-22700000D03*
%TO.P,C38,2*%
%TO.N,GND*%
X72250000Y-21150000D03*
%TD*%
D21*
%TO.P,R25,1*%
%TO.N,GND*%
X-7200000Y-13710000D03*
%TO.P,R25,2*%
%TO.N,Net-(Q10-B)*%
X-7200000Y-12690000D03*
%TD*%
D23*
%TO.P,R67,1*%
%TO.N,/2ndLayer/Main->RST_Twe*%
X19530000Y-54362382D03*
%TO.P,R67,2*%
%TO.N,GND*%
X18510000Y-54362382D03*
%TD*%
%TO.P,R79,1*%
%TO.N,GND*%
X72360000Y-23975000D03*
%TO.P,R79,2*%
%TO.N,Net-(J4-CC1)*%
X71340000Y-23975000D03*
%TD*%
D20*
%TO.P,C41,1*%
%TO.N,+3.3V*%
X15200000Y-9480000D03*
%TO.P,C41,2*%
%TO.N,GND*%
X15200000Y-8520000D03*
%TD*%
D23*
%TO.P,R50,1*%
%TO.N,Net-(U6-DE)*%
X-6090000Y-9000000D03*
%TO.P,R50,2*%
%TO.N,GND*%
X-7110000Y-9000000D03*
%TD*%
D41*
%TO.P,R32,1*%
%TO.N,/2ndLayer/V_Meas.*%
X-400000Y-16725000D03*
%TO.P,R32,2*%
%TO.N,GND*%
X-400000Y-15075000D03*
%TD*%
D42*
%TO.P,U8,1,PE2*%
%TO.N,unconnected-(U8-PE2-Pad1)*%
X16775000Y-12700000D03*
%TO.P,U8,2,PE3*%
%TO.N,unconnected-(U8-PE3-Pad2)*%
X16775000Y-13200000D03*
%TO.P,U8,3,PE4*%
%TO.N,unconnected-(U8-PE4-Pad3)*%
X16775000Y-13700000D03*
%TO.P,U8,4,PE5*%
%TO.N,unconnected-(U8-PE5-Pad4)*%
X16775000Y-14200000D03*
%TO.P,U8,5,PE6*%
%TO.N,unconnected-(U8-PE6-Pad5)*%
X16775000Y-14700000D03*
%TO.P,U8,6,VBAT*%
%TO.N,+3.3V*%
X16775000Y-15200000D03*
%TO.P,U8,7,PC13*%
%TO.N,unconnected-(U8-PC13-Pad7)*%
X16775000Y-15700000D03*
%TO.P,U8,8,PC14*%
%TO.N,unconnected-(U8-PC14-Pad8)*%
X16775000Y-16200000D03*
%TO.P,U8,9,PC15*%
%TO.N,unconnected-(U8-PC15-Pad9)*%
X16775000Y-16700000D03*
%TO.P,U8,10,VSS*%
%TO.N,GND*%
X16775000Y-17200000D03*
%TO.P,U8,11,VDD*%
%TO.N,+3.3V*%
X16775000Y-17700000D03*
%TO.P,U8,12,PH0*%
%TO.N,/2ndLayer/HSE_IN*%
X16775000Y-18200000D03*
%TO.P,U8,13,PH1*%
%TO.N,/2ndLayer/HSE_OUT*%
X16775000Y-18700000D03*
%TO.P,U8,14,NRST*%
%TO.N,/2ndLayer/NRST*%
X16775000Y-19200000D03*
%TO.P,U8,15,PC0*%
%TO.N,unconnected-(U8-PC0-Pad15)*%
X16775000Y-19700000D03*
%TO.P,U8,16,PC1*%
%TO.N,unconnected-(U8-PC1-Pad16)*%
X16775000Y-20200000D03*
%TO.P,U8,17,PC2_C*%
%TO.N,unconnected-(U8-PC2_C-Pad17)*%
X16775000Y-20700000D03*
%TO.P,U8,18,PC3_C*%
%TO.N,unconnected-(U8-PC3_C-Pad18)*%
X16775000Y-21200000D03*
%TO.P,U8,19,VSSA*%
%TO.N,GND*%
X16775000Y-21700000D03*
%TO.P,U8,20,VREF+*%
%TO.N,+3.3V*%
X16775000Y-22200000D03*
%TO.P,U8,21,VDDA*%
X16775000Y-22700000D03*
%TO.P,U8,22,PA0*%
%TO.N,unconnected-(U8-PA0-Pad22)*%
X16775000Y-23200000D03*
%TO.P,U8,23,PA1*%
%TO.N,unconnected-(U8-PA1-Pad23)*%
X16775000Y-23700000D03*
%TO.P,U8,24,PA2*%
%TO.N,unconnected-(U8-PA2-Pad24)*%
X16775000Y-24200000D03*
%TO.P,U8,25,PA3*%
%TO.N,unconnected-(U8-PA3-Pad25)*%
X16775000Y-24700000D03*
D43*
%TO.P,U8,26,VSS*%
%TO.N,GND*%
X15100000Y-26375000D03*
%TO.P,U8,27,VDD*%
%TO.N,+3.3V*%
X14600000Y-26375000D03*
%TO.P,U8,28,PA4*%
%TO.N,unconnected-(U8-PA4-Pad28)*%
X14100000Y-26375000D03*
%TO.P,U8,29,PA5*%
%TO.N,unconnected-(U8-PA5-Pad29)*%
X13600000Y-26375000D03*
%TO.P,U8,30,PA6*%
%TO.N,unconnected-(U8-PA6-Pad30)*%
X13100000Y-26375000D03*
%TO.P,U8,31,PA7*%
%TO.N,unconnected-(U8-PA7-Pad31)*%
X12600000Y-26375000D03*
%TO.P,U8,32,PC4*%
%TO.N,unconnected-(U8-PC4-Pad32)*%
X12100000Y-26375000D03*
%TO.P,U8,33,PC5*%
%TO.N,unconnected-(U8-PC5-Pad33)*%
X11600000Y-26375000D03*
%TO.P,U8,34,PB0*%
%TO.N,unconnected-(U8-PB0-Pad34)*%
X11100000Y-26375000D03*
%TO.P,U8,35,PB1*%
%TO.N,unconnected-(U8-PB1-Pad35)*%
X10600000Y-26375000D03*
%TO.P,U8,36,PB2*%
%TO.N,unconnected-(U8-PB2-Pad36)*%
X10100000Y-26375000D03*
%TO.P,U8,37,PE7*%
%TO.N,unconnected-(U8-PE7-Pad37)*%
X9600000Y-26375000D03*
%TO.P,U8,38,PE8*%
%TO.N,unconnected-(U8-PE8-Pad38)*%
X9100000Y-26375000D03*
%TO.P,U8,39,PE9*%
%TO.N,unconnected-(U8-PE9-Pad39)*%
X8600000Y-26375000D03*
%TO.P,U8,40,PE10*%
%TO.N,unconnected-(U8-PE10-Pad40)*%
X8100000Y-26375000D03*
%TO.P,U8,41,PE11*%
%TO.N,unconnected-(U8-PE11-Pad41)*%
X7600000Y-26375000D03*
%TO.P,U8,42,PE12*%
%TO.N,unconnected-(U8-PE12-Pad42)*%
X7100000Y-26375000D03*
%TO.P,U8,43,PE13*%
%TO.N,unconnected-(U8-PE13-Pad43)*%
X6600000Y-26375000D03*
%TO.P,U8,44,PE14*%
%TO.N,unconnected-(U8-PE14-Pad44)*%
X6100000Y-26375000D03*
%TO.P,U8,45,PE15*%
%TO.N,unconnected-(U8-PE15-Pad45)*%
X5600000Y-26375000D03*
%TO.P,U8,46,PB10*%
%TO.N,unconnected-(U8-PB10-Pad46)*%
X5100000Y-26375000D03*
%TO.P,U8,47,PB11*%
%TO.N,unconnected-(U8-PB11-Pad47)*%
X4600000Y-26375000D03*
%TO.P,U8,48,VCAP*%
%TO.N,Net-(C30-Pad1)*%
X4100000Y-26375000D03*
%TO.P,U8,49,VSS*%
%TO.N,GND*%
X3600000Y-26375000D03*
%TO.P,U8,50,VDD*%
%TO.N,+3.3V*%
X3100000Y-26375000D03*
D42*
%TO.P,U8,51,PB12*%
%TO.N,unconnected-(U8-PB12-Pad51)*%
X1425000Y-24700000D03*
%TO.P,U8,52,PB13*%
%TO.N,unconnected-(U8-PB13-Pad52)*%
X1425000Y-24200000D03*
%TO.P,U8,53,PB14*%
%TO.N,unconnected-(U8-PB14-Pad53)*%
X1425000Y-23700000D03*
%TO.P,U8,54,PB15*%
%TO.N,unconnected-(U8-PB15-Pad54)*%
X1425000Y-23200000D03*
%TO.P,U8,55,PD8*%
%TO.N,unconnected-(U8-PD8-Pad55)*%
X1425000Y-22700000D03*
%TO.P,U8,56,PD9*%
%TO.N,unconnected-(U8-PD9-Pad56)*%
X1425000Y-22200000D03*
%TO.P,U8,57,PD10*%
%TO.N,unconnected-(U8-PD10-Pad57)*%
X1425000Y-21700000D03*
%TO.P,U8,58,PD11*%
%TO.N,unconnected-(U8-PD11-Pad58)*%
X1425000Y-21200000D03*
%TO.P,U8,59,PD12*%
%TO.N,unconnected-(U8-PD12-Pad59)*%
X1425000Y-20700000D03*
%TO.P,U8,60,PD13*%
%TO.N,unconnected-(U8-PD13-Pad60)*%
X1425000Y-20200000D03*
%TO.P,U8,61,PD14*%
%TO.N,unconnected-(U8-PD14-Pad61)*%
X1425000Y-19700000D03*
%TO.P,U8,62,PD15*%
%TO.N,unconnected-(U8-PD15-Pad62)*%
X1425000Y-19200000D03*
%TO.P,U8,63,PC6*%
%TO.N,unconnected-(U8-PC6-Pad63)*%
X1425000Y-18700000D03*
%TO.P,U8,64,PC7*%
%TO.N,unconnected-(U8-PC7-Pad64)*%
X1425000Y-18200000D03*
%TO.P,U8,65,PC8*%
%TO.N,unconnected-(U8-PC8-Pad65)*%
X1425000Y-17700000D03*
%TO.P,U8,66,PC9*%
%TO.N,unconnected-(U8-PC9-Pad66)*%
X1425000Y-17200000D03*
%TO.P,U8,67,PA8*%
%TO.N,unconnected-(U8-PA8-Pad67)*%
X1425000Y-16700000D03*
%TO.P,U8,68,PA9*%
%TO.N,unconnected-(U8-PA9-Pad68)*%
X1425000Y-16200000D03*
%TO.P,U8,69,PA10*%
%TO.N,unconnected-(U8-PA10-Pad69)*%
X1425000Y-15700000D03*
%TO.P,U8,70,PA11*%
%TO.N,unconnected-(U8-PA11-Pad70)*%
X1425000Y-15200000D03*
%TO.P,U8,71,PA12*%
%TO.N,unconnected-(U8-PA12-Pad71)*%
X1425000Y-14700000D03*
%TO.P,U8,72,PA13(JTMS*%
%TO.N,/2ndLayer/SWDIO*%
X1425000Y-14200000D03*
%TO.P,U8,73,VCAP*%
%TO.N,Net-(C31-Pad1)*%
X1425000Y-13700000D03*
%TO.P,U8,74,VSS*%
%TO.N,GND*%
X1425000Y-13200000D03*
%TO.P,U8,75,VDD*%
%TO.N,+3.3V*%
X1425000Y-12700000D03*
D43*
%TO.P,U8,76,PA14(JTCK*%
%TO.N,/2ndLayer/SWCLK*%
X3100000Y-11025000D03*
%TO.P,U8,77,PA15(JTDI)*%
%TO.N,unconnected-(U8-PA15(JTDI)-Pad77)*%
X3600000Y-11025000D03*
%TO.P,U8,78,PC10*%
%TO.N,unconnected-(U8-PC10-Pad78)*%
X4100000Y-11025000D03*
%TO.P,U8,79,PC11*%
%TO.N,unconnected-(U8-PC11-Pad79)*%
X4600000Y-11025000D03*
%TO.P,U8,80,PC12*%
%TO.N,unconnected-(U8-PC12-Pad80)*%
X5100000Y-11025000D03*
%TO.P,U8,81,PD0*%
%TO.N,unconnected-(U8-PD0-Pad81)*%
X5600000Y-11025000D03*
%TO.P,U8,82,PD1*%
%TO.N,unconnected-(U8-PD1-Pad82)*%
X6100000Y-11025000D03*
%TO.P,U8,83,PD2*%
%TO.N,unconnected-(U8-PD2-Pad83)*%
X6600000Y-11025000D03*
%TO.P,U8,84,PD3*%
%TO.N,unconnected-(U8-PD3-Pad84)*%
X7100000Y-11025000D03*
%TO.P,U8,85,PD4*%
%TO.N,unconnected-(U8-PD4-Pad85)*%
X7600000Y-11025000D03*
%TO.P,U8,86,PD5*%
%TO.N,unconnected-(U8-PD5-Pad86)*%
X8100000Y-11025000D03*
%TO.P,U8,87,PD6*%
%TO.N,unconnected-(U8-PD6-Pad87)*%
X8600000Y-11025000D03*
%TO.P,U8,88,PD7*%
%TO.N,unconnected-(U8-PD7-Pad88)*%
X9100000Y-11025000D03*
%TO.P,U8,89,PB3(JTDO*%
%TO.N,/2ndLayer/SWO*%
X9600000Y-11025000D03*
%TO.P,U8,90,PB4(NJTRST)*%
%TO.N,unconnected-(U8-PB4(NJTRST)-Pad90)*%
X10100000Y-11025000D03*
%TO.P,U8,91,PB5*%
%TO.N,unconnected-(U8-PB5-Pad91)*%
X10600000Y-11025000D03*
%TO.P,U8,92,PB6*%
%TO.N,unconnected-(U8-PB6-Pad92)*%
X11100000Y-11025000D03*
%TO.P,U8,93,PB7*%
%TO.N,unconnected-(U8-PB7-Pad93)*%
X11600000Y-11025000D03*
%TO.P,U8,94,BOOT0*%
%TO.N,/2ndLayer/BOOT0*%
X12100000Y-11025000D03*
%TO.P,U8,95,PB8*%
%TO.N,unconnected-(U8-PB8-Pad95)*%
X12600000Y-11025000D03*
%TO.P,U8,96,PB9*%
%TO.N,unconnected-(U8-PB9-Pad96)*%
X13100000Y-11025000D03*
%TO.P,U8,97,PE0*%
%TO.N,unconnected-(U8-PE0-Pad97)*%
X13600000Y-11025000D03*
%TO.P,U8,98,PE1*%
%TO.N,unconnected-(U8-PE1-Pad98)*%
X14100000Y-11025000D03*
%TO.P,U8,99,VSS*%
%TO.N,GND*%
X14600000Y-11025000D03*
%TO.P,U8,100,VDD*%
%TO.N,+3.3V*%
X15100000Y-11025000D03*
%TD*%
D26*
%TO.P,R3,1*%
%TO.N,/2ndLayer/Power/Vout*%
X-16100000Y-12010000D03*
%TO.P,R3,2*%
%TO.N,Net-(Q17-G)*%
X-16100000Y-13030000D03*
%TD*%
D23*
%TO.P,R14,1*%
%TO.N,GND*%
X85610000Y-23300000D03*
%TO.P,R14,2*%
%TO.N,/3rdLayer/DIPSW3*%
X84590000Y-23300000D03*
%TD*%
D44*
%TO.P,C29,1*%
%TO.N,GND*%
X-5630000Y-23150000D03*
%TO.P,C29,2*%
%TO.N,+3.3V*%
X-4670000Y-23150000D03*
%TD*%
D45*
%TO.P,R41,1*%
%TO.N,Net-(U2-DO0{slash}PWM2)*%
X-8425000Y-22850000D03*
%TO.P,R41,2*%
%TO.N,+3.3V*%
X-6775000Y-22850000D03*
%TD*%
D17*
%TO.P,R53,1*%
%TO.N,+3.3V*%
X-9310000Y-700000D03*
%TO.P,R53,2*%
%TO.N,/2ndLayer/RS485_RingNW/RS485Y_RA*%
X-8290000Y-700000D03*
%TD*%
D23*
%TO.P,R62,1*%
%TO.N,GND*%
X33810000Y-16900000D03*
%TO.P,R62,2*%
%TO.N,/2ndLayer/DIPSW2*%
X32790000Y-16900000D03*
%TD*%
D21*
%TO.P,R19,1*%
%TO.N,/3rdLayer/TactSW1*%
X73000000Y-4010000D03*
%TO.P,R19,2*%
%TO.N,GND*%
X73000000Y-2990000D03*
%TD*%
D37*
%TO.P,C31,1*%
%TO.N,Net-(C31-Pad1)*%
X-120000Y-13900000D03*
%TO.P,C31,2*%
%TO.N,GND*%
X-1080000Y-13900000D03*
%TD*%
D38*
%TO.P,D6,1,K*%
%TO.N,+5V*%
X-9100000Y-18150000D03*
%TO.P,D6,2,A*%
%TO.N,+3.3V*%
X-11600000Y-18150000D03*
%TD*%
D21*
%TO.P,R28,1*%
%TO.N,VCC*%
X-13150000Y-4310000D03*
%TO.P,R28,2*%
%TO.N,GND*%
X-13150000Y-3290000D03*
%TD*%
D36*
%TO.P,C28,1*%
%TO.N,/2ndLayer/RST_Twe*%
X22650000Y-37520000D03*
%TO.P,C28,2*%
%TO.N,GND*%
X22650000Y-38480000D03*
%TD*%
D46*
%TO.P,Q17,1,G*%
%TO.N,Net-(Q17-G)*%
X-14780000Y-12930000D03*
%TO.P,Q17,2,S*%
%TO.N,/2ndLayer/Power/Vout*%
X-14780000Y-11030000D03*
%TO.P,Q17,3,D*%
%TO.N,/2ndLayer/Power/VSYS*%
X-12380000Y-11980000D03*
%TD*%
D40*
%TO.P,Q11,1,G*%
%TO.N,Net-(Q11-G)*%
X-8450000Y-11030000D03*
%TO.P,Q11,2,S*%
%TO.N,+5V*%
X-8450000Y-12930000D03*
%TO.P,Q11,3,D*%
%TO.N,/2ndLayer/Power/VSYS*%
X-10850000Y-11980000D03*
%TD*%
D17*
%TO.P,R46,1*%
%TO.N,/2ndLayer/RS485_RingNW/RS485X_TA*%
X12190000Y-700000D03*
%TO.P,R46,2*%
%TO.N,/2ndLayer/RS485_RingNW/RS485X_TB*%
X13210000Y-700000D03*
%TD*%
D39*
%TO.P,Q12,1,B*%
%TO.N,Net-(Q10-B)*%
X-11500000Y-9237500D03*
%TO.P,Q12,2,E*%
%TO.N,+5V*%
X-13400000Y-9237500D03*
%TO.P,Q12,3,C*%
%TO.N,Net-(Q11-G)*%
X-12450000Y-7362500D03*
%TD*%
D17*
%TO.P,R61,1*%
%TO.N,/2ndLayer/SlideSW0*%
X8090000Y-39700000D03*
%TO.P,R61,2*%
%TO.N,GND*%
X9110000Y-39700000D03*
%TD*%
D20*
%TO.P,C15,1*%
%TO.N,/2ndLayer/Power/S-S*%
X-5000000Y-41730000D03*
%TO.P,C15,2*%
%TO.N,Net-(Q9-G)*%
X-5000000Y-40770000D03*
%TD*%
D23*
%TO.P,R63,1*%
%TO.N,GND*%
X33810000Y-17900000D03*
%TO.P,R63,2*%
%TO.N,/2ndLayer/DIPSW3*%
X32790000Y-17900000D03*
%TD*%
D47*
%TO.P,U10,1,~{DTR}*%
%TO.N,unconnected-(U10-~{DTR}-Pad1)*%
X61542500Y-13700000D03*
%TO.P,U10,2,~{RTS}*%
%TO.N,unconnected-(U10-~{RTS}-Pad2)*%
X62177500Y-13700000D03*
%TO.P,U10,3,VCCIO*%
%TO.N,Net-(U10-3V3OUT)*%
X62812500Y-13700000D03*
%TO.P,U10,4,RXD*%
%TO.N,/3rdLayer/TweWriteRX_TweTX*%
X63447500Y-13700000D03*
%TO.P,U10,5,~{RI}*%
%TO.N,unconnected-(U10-~{RI}-Pad5)*%
X64082500Y-13700000D03*
%TO.P,U10,6,GND*%
%TO.N,GND*%
X64717500Y-13700000D03*
%TO.P,U10,7,~{DSR}*%
%TO.N,unconnected-(U10-~{DSR}-Pad7)*%
X65352500Y-13700000D03*
%TO.P,U10,8,~{DCD}*%
%TO.N,unconnected-(U10-~{DCD}-Pad8)*%
X65987500Y-13700000D03*
%TO.P,U10,9,~{CTS}*%
%TO.N,unconnected-(U10-~{CTS}-Pad9)*%
X66622500Y-13700000D03*
%TO.P,U10,10,CBUS2*%
%TO.N,/3rdLayer/RST_Twe*%
X67257500Y-13700000D03*
%TO.P,U10,11,USBDP*%
%TO.N,Net-(U10-USBDP)*%
X67257500Y-18900000D03*
%TO.P,U10,12,USBDM*%
%TO.N,Net-(U10-USBDM)*%
X66622500Y-18900000D03*
%TO.P,U10,13,3V3OUT*%
%TO.N,Net-(U10-3V3OUT)*%
X65987500Y-18900000D03*
%TO.P,U10,14,~{RESET}*%
X65352500Y-18900000D03*
%TO.P,U10,15,VCC*%
%TO.N,VBUS*%
X64717500Y-18900000D03*
%TO.P,U10,16,GND*%
%TO.N,GND*%
X64082500Y-18900000D03*
%TO.P,U10,17,CBUS1*%
%TO.N,unconnected-(U10-CBUS1-Pad17)*%
X63447500Y-18900000D03*
%TO.P,U10,18,CBUS0*%
%TO.N,unconnected-(U10-CBUS0-Pad18)*%
X62812500Y-18900000D03*
%TO.P,U10,19,CBUS3*%
%TO.N,/3rdLayer/PRG_Twe*%
X62177500Y-18900000D03*
%TO.P,U10,20,TXD*%
%TO.N,/3rdLayer/TweWriteTX_TweRX*%
X61542500Y-18900000D03*
%TD*%
D48*
%TO.P,D5,1,K*%
%TO.N,Net-(D5-K)*%
X-9550000Y-6225000D03*
%TO.P,D5,2,A*%
%TO.N,VDD*%
X-9550000Y-9525000D03*
%TD*%
D23*
%TO.P,R12,1*%
%TO.N,GND*%
X85610000Y-21300000D03*
%TO.P,R12,2*%
%TO.N,/3rdLayer/DIPSW1*%
X84590000Y-21300000D03*
%TD*%
D20*
%TO.P,C33,1*%
%TO.N,Net-(U1-RT)*%
X-22150000Y-6380000D03*
%TO.P,C33,2*%
%TO.N,GND*%
X-22150000Y-5420000D03*
%TD*%
D23*
%TO.P,R72,1*%
%TO.N,GND*%
X-18973334Y-3000001D03*
%TO.P,R72,2*%
%TO.N,Net-(U1-FB)*%
X-19993334Y-3000001D03*
%TD*%
D37*
%TO.P,C7,1*%
%TO.N,+3.3V*%
X-120000Y-12400000D03*
%TO.P,C7,2*%
%TO.N,GND*%
X-1080000Y-12400000D03*
%TD*%
D49*
%TO.P,R4,1*%
%TO.N,Net-(Q13-B)*%
X9925000Y-9250000D03*
%TO.P,R4,2*%
%TO.N,/2ndLayer/MainTXx_RS485XRX*%
X8275000Y-9250000D03*
%TD*%
D23*
%TO.P,R17,1*%
%TO.N,GND*%
X50710000Y7900000D03*
%TO.P,R17,2*%
%TO.N,+5V*%
X49690000Y7900000D03*
%TD*%
%TO.P,R29,1*%
%TO.N,GND*%
X50810000Y6050000D03*
%TO.P,R29,2*%
%TO.N,+3.3V*%
X49790000Y6050000D03*
%TD*%
D50*
%TO.P,Q18,1,G*%
%TO.N,/2ndLayer/Power/PG*%
X-20400000Y-14775000D03*
%TO.P,Q18,2,S*%
%TO.N,GND*%
X-18500000Y-14775000D03*
%TO.P,Q18,3,D*%
%TO.N,Net-(Q17-G)*%
X-19450000Y-16650000D03*
%TD*%
D15*
%TO.P,J3,1,Pin_1*%
%TO.N,VBUS*%
X55300000Y-17980000D03*
D16*
%TO.P,J3,2,Pin_2*%
X54030000Y-17980000D03*
%TO.P,J3,3,Pin_3*%
%TO.N,GND*%
X55300000Y-19250000D03*
%TO.P,J3,4,Pin_4*%
%TO.N,+3.3V*%
X54030000Y-19250000D03*
%TO.P,J3,5,Pin_5*%
%TO.N,GND*%
X55300000Y-20520000D03*
%TO.P,J3,6,Pin_6*%
X54030000Y-20520000D03*
%TO.P,J3,7,Pin_7*%
X55300000Y-21790000D03*
%TO.P,J3,8,Pin_8*%
%TO.N,unconnected-(J3-Pin_8-Pad8)*%
X54030000Y-21790000D03*
%TO.P,J3,9,Pin_9*%
%TO.N,/3rdLayer/DIPSW0*%
X55300000Y-23060000D03*
%TO.P,J3,10,Pin_10*%
%TO.N,unconnected-(J3-Pin_10-Pad10)*%
X54030000Y-23060000D03*
%TO.P,J3,11,Pin_11*%
%TO.N,/3rdLayer/DIPSW1*%
X55300000Y-24330000D03*
%TO.P,J3,12,Pin_12*%
%TO.N,unconnected-(J3-Pin_12-Pad12)*%
X54030000Y-24330000D03*
%TO.P,J3,13,Pin_13*%
%TO.N,/3rdLayer/DIPSW2*%
X55300000Y-25600000D03*
%TO.P,J3,14,Pin_14*%
%TO.N,unconnected-(J3-Pin_14-Pad14)*%
X54030000Y-25600000D03*
%TO.P,J3,15,Pin_15*%
%TO.N,/3rdLayer/DIPSW3*%
X55300000Y-26870000D03*
%TO.P,J3,16,Pin_16*%
%TO.N,unconnected-(J3-Pin_16-Pad16)*%
X54030000Y-26870000D03*
%TO.P,J3,17,Pin_17*%
%TO.N,/3rdLayer/PRG_Twe*%
X55300000Y-28140000D03*
%TO.P,J3,18,Pin_18*%
%TO.N,unconnected-(J3-Pin_18-Pad18)*%
X54030000Y-28140000D03*
%TO.P,J3,19,Pin_19*%
%TO.N,/3rdLayer/RST_Twe*%
X55300000Y-29410000D03*
%TO.P,J3,20,Pin_20*%
%TO.N,unconnected-(J3-Pin_20-Pad20)*%
X54030000Y-29410000D03*
%TD*%
D37*
%TO.P,C35,1*%
%TO.N,+3.3V*%
X67880000Y-6700000D03*
%TO.P,C35,2*%
%TO.N,GND*%
X66920000Y-6700000D03*
%TD*%
D23*
%TO.P,R13,1*%
%TO.N,GND*%
X85610000Y-22300000D03*
%TO.P,R13,2*%
%TO.N,/3rdLayer/DIPSW2*%
X84590000Y-22300000D03*
%TD*%
D17*
%TO.P,R55,1*%
%TO.N,/2ndLayer/RS485_RingNW/RS485Y_TA*%
X-1110000Y-700000D03*
%TO.P,R55,2*%
%TO.N,/2ndLayer/RS485_RingNW/RS485Y_TB*%
X-90000Y-700000D03*
%TD*%
D21*
%TO.P,R37,1*%
%TO.N,+3.3V*%
X22650000Y-42210000D03*
%TO.P,R37,2*%
%TO.N,/2ndLayer/PRG_Twe*%
X22650000Y-41190000D03*
%TD*%
D51*
%TO.P,D3,1,K*%
%TO.N,+5V*%
X-9400000Y-14450000D03*
%TO.P,D3,2,A*%
%TO.N,GND*%
X-9400000Y-16950000D03*
%TD*%
D23*
%TO.P,R24,1*%
%TO.N,/2ndLayer/Power/PowerSW*%
X-21400000Y-44480000D03*
%TO.P,R24,2*%
%TO.N,GND*%
X-22420000Y-44480000D03*
%TD*%
D50*
%TO.P,Q13,1,B*%
%TO.N,Net-(Q13-B)*%
X14800000Y-5062500D03*
%TO.P,Q13,2,E*%
%TO.N,+3.3V*%
X16700000Y-5062500D03*
%TO.P,Q13,3,C*%
%TO.N,Net-(Q13-C)*%
X15750000Y-6937500D03*
%TD*%
D28*
%TO.P,R74,1*%
%TO.N,+3.3V*%
X69187500Y-6400000D03*
%TO.P,R74,2*%
%TO.N,/3rdLayer/I2C_SCL*%
X71012500Y-6400000D03*
%TD*%
D36*
%TO.P,C34,1*%
%TO.N,+3.3V*%
X84100000Y-3020000D03*
%TO.P,C34,2*%
%TO.N,/3rdLayer/TactSW2*%
X84100000Y-3980000D03*
%TD*%
D23*
%TO.P,R34,1*%
%TO.N,Net-(D8-A)*%
X-23290000Y-22100000D03*
%TO.P,R34,2*%
%TO.N,+5V*%
X-24310000Y-22100000D03*
%TD*%
D50*
%TO.P,Q14,1,B*%
%TO.N,Net-(Q14-B)*%
X-50000Y-9562500D03*
%TO.P,Q14,2,E*%
%TO.N,+3.3V*%
X1850000Y-9562500D03*
%TO.P,Q14,3,C*%
%TO.N,Net-(Q14-C)*%
X900000Y-11437500D03*
%TD*%
D37*
%TO.P,C2,1*%
%TO.N,/2ndLayer/NRST*%
X28680000Y-19550000D03*
%TO.P,C2,2*%
%TO.N,GND*%
X27720000Y-19550000D03*
%TD*%
D20*
%TO.P,C40,1*%
%TO.N,GND*%
X65700000Y-21180000D03*
%TO.P,C40,2*%
%TO.N,Net-(U10-3V3OUT)*%
X65700000Y-20220000D03*
%TD*%
D17*
%TO.P,R42,1*%
%TO.N,+3.3V*%
X10290000Y-700000D03*
%TO.P,R42,2*%
%TO.N,/2ndLayer/RS485_RingNW/RS485X_TA*%
X11310000Y-700000D03*
%TD*%
D52*
%TO.P,C37,1*%
%TO.N,GND*%
X65975000Y-24400000D03*
%TO.P,C37,2*%
%TO.N,VBUS*%
X67875000Y-24400000D03*
%TD*%
D26*
%TO.P,R64,1*%
%TO.N,/2ndLayer/LED_nR0*%
X34800000Y-23980000D03*
%TO.P,R64,2*%
%TO.N,GND*%
X34800000Y-25000000D03*
%TD*%
D36*
%TO.P,C36,1*%
%TO.N,VBUS*%
X64750000Y-20220000D03*
%TO.P,C36,2*%
%TO.N,GND*%
X64750000Y-21180000D03*
%TD*%
D23*
%TO.P,R40,1*%
%TO.N,Net-(D11-A)*%
X25250000Y-35000000D03*
%TO.P,R40,2*%
%TO.N,/2ndLayer/TweLite/LED1*%
X24230000Y-35000000D03*
%TD*%
D41*
%TO.P,R48,1*%
%TO.N,Net-(Q14-B)*%
X-1450000Y-10825000D03*
%TO.P,R48,2*%
%TO.N,/2ndLayer/MainTXx_RS485YRX*%
X-1450000Y-9175000D03*
%TD*%
D21*
%TO.P,R73,1*%
%TO.N,/3rdLayer/TactSW2*%
X83100000Y-4010000D03*
%TO.P,R73,2*%
%TO.N,GND*%
X83100000Y-2990000D03*
%TD*%
%TO.P,R21,1*%
%TO.N,/2ndLayer/Power/S-S*%
X-4000000Y-41760000D03*
%TO.P,R21,2*%
%TO.N,Net-(Q9-G)*%
X-4000000Y-40740000D03*
%TD*%
D17*
%TO.P,R5,1*%
%TO.N,Net-(Q13-C)*%
X11040000Y-9100000D03*
%TO.P,R5,2*%
%TO.N,GND*%
X12060000Y-9100000D03*
%TD*%
D23*
%TO.P,R11,1*%
%TO.N,GND*%
X-21365000Y-25462500D03*
%TO.P,R11,2*%
%TO.N,Net-(Q2-B)*%
X-22385000Y-25462500D03*
%TD*%
%TO.P,R8,1*%
%TO.N,/2ndLayer/Power/Vout*%
X-12840000Y-17600000D03*
%TO.P,R8,2*%
%TO.N,Net-(Q1-G)*%
X-13860000Y-17600000D03*
%TD*%
D17*
%TO.P,R43,1*%
%TO.N,/2ndLayer/RS485_RingNW/RS485X_TB*%
X14090000Y-700000D03*
%TO.P,R43,2*%
%TO.N,GND*%
X15110000Y-700000D03*
%TD*%
D22*
%TO.P,C39,1*%
%TO.N,Net-(C39-Pad1)*%
X67750000Y-22700000D03*
%TO.P,C39,2*%
%TO.N,GND*%
X67750000Y-21150000D03*
%TD*%
D37*
%TO.P,C23,1*%
%TO.N,+3.3V*%
X-2670000Y-700000D03*
%TO.P,C23,2*%
%TO.N,GND*%
X-3630000Y-700000D03*
%TD*%
D23*
%TO.P,R1,1*%
%TO.N,Net-(D1-K)*%
X27410000Y-12550000D03*
%TO.P,R1,2*%
%TO.N,GND*%
X26390000Y-12550000D03*
%TD*%
D53*
%TO.P,C25,1*%
%TO.N,+3.3V*%
X18525000Y-24750000D03*
%TO.P,C25,2*%
%TO.N,GND*%
X20075000Y-24750000D03*
%TD*%
D29*
%TO.P,C10,1*%
%TO.N,/2ndLayer/Power/Vout*%
X-17400000Y-10700000D03*
%TO.P,C10,2*%
%TO.N,GND*%
X-19300000Y-10700000D03*
%TD*%
D23*
%TO.P,R69,1*%
%TO.N,Net-(U1-FB)*%
X-19973333Y-4100001D03*
%TO.P,R69,2*%
%TO.N,/2ndLayer/Power/Vout*%
X-20993333Y-4100001D03*
%TD*%
D21*
%TO.P,R51,1*%
%TO.N,+3.3V*%
X2700000Y-4660000D03*
%TO.P,R51,2*%
%TO.N,/2ndLayer/RS485_RingNW/RS485Y_TA*%
X2700000Y-3640000D03*
%TD*%
D31*
%TO.P,C13,1*%
%TO.N,GND*%
X-13075000Y-18700000D03*
%TO.P,C13,2*%
%TO.N,Net-(Q1-G)*%
X-14625000Y-18700000D03*
%TD*%
D44*
%TO.P,C16,1*%
%TO.N,+5V*%
X-8030000Y-14500000D03*
%TO.P,C16,2*%
%TO.N,GND*%
X-7070000Y-14500000D03*
%TD*%
D37*
%TO.P,C18,1*%
%TO.N,+3.3V*%
X9380000Y-700000D03*
%TO.P,C18,2*%
%TO.N,GND*%
X8420000Y-700000D03*
%TD*%
D17*
%TO.P,R65,1*%
%TO.N,Net-(D14-A)*%
X34390000Y-9100000D03*
%TO.P,R65,2*%
%TO.N,/2ndLayer/LED_LG0*%
X35410000Y-9100000D03*
%TD*%
D23*
%TO.P,R7,1*%
%TO.N,GND*%
X85610000Y-20300000D03*
%TO.P,R7,2*%
%TO.N,/3rdLayer/DIPSW0*%
X84590000Y-20300000D03*
%TD*%
%TO.P,R22,1*%
%TO.N,Net-(SW2-A)*%
X-21400000Y-40500000D03*
%TO.P,R22,2*%
%TO.N,/2ndLayer/Power/PowerSW*%
X-22420000Y-40500000D03*
%TD*%
D21*
%TO.P,R20,1*%
%TO.N,/2ndLayer/Power/S-S*%
X-8000000Y-10010000D03*
%TO.P,R20,2*%
%TO.N,Net-(Q7-G)*%
X-8000000Y-8990000D03*
%TD*%
D17*
%TO.P,R58,1*%
%TO.N,Net-(D13-A)*%
X37790000Y-12100000D03*
%TO.P,R58,2*%
%TO.N,/2ndLayer/LED_B1*%
X38810000Y-12100000D03*
%TD*%
D36*
%TO.P,C1,1*%
%TO.N,+3.3V*%
X14565714Y-27920000D03*
%TO.P,C1,2*%
%TO.N,GND*%
X14565714Y-28880000D03*
%TD*%
D27*
%TO.P,R76,1*%
%TO.N,Net-(U10-USBDP)*%
X69250000Y-21100000D03*
%TO.P,R76,2*%
%TO.N,Net-(C39-Pad1)*%
X69250000Y-22750000D03*
%TD*%
D54*
%TO.P,D4,1,K*%
%TO.N,VDD*%
X-9600000Y-4650000D03*
%TO.P,D4,2,A*%
%TO.N,GND*%
X-9600000Y-2150000D03*
%TD*%
D25*
%TO.P,U6,1,RO*%
%TO.N,/2ndLayer/MainRXx_RS485YTX*%
X-3995000Y-7525000D03*
%TO.P,U6,2,~{RE}*%
%TO.N,Net-(U6-DE)*%
X-5265000Y-7525000D03*
%TO.P,U6,3,DE*%
X-6535000Y-7525000D03*
%TO.P,U6,4,DI*%
%TO.N,unconnected-(U6-DI-Pad4)*%
X-7805000Y-7525000D03*
%TO.P,U6,5,GND*%
%TO.N,GND*%
X-7805000Y-2275000D03*
%TO.P,U6,6,A*%
%TO.N,/2ndLayer/RS485_RingNW/RS485Y_RA*%
X-6535000Y-2275000D03*
%TO.P,U6,7,B*%
%TO.N,/2ndLayer/RS485_RingNW/RS485Y_RB*%
X-5265000Y-2275000D03*
%TO.P,U6,8,VCC*%
%TO.N,+3.3V*%
X-3995000Y-2275000D03*
%TD*%
D37*
%TO.P,C17,1*%
%TO.N,+3.3V*%
X-5320000Y-22300000D03*
%TO.P,C17,2*%
%TO.N,GND*%
X-6280000Y-22300000D03*
%TD*%
D26*
%TO.P,R49,1*%
%TO.N,Net-(Q14-C)*%
X2700000Y-5540000D03*
%TO.P,R49,2*%
%TO.N,GND*%
X2700000Y-6560000D03*
%TD*%
D44*
%TO.P,C3,1*%
%TO.N,+3.3V*%
X18320000Y-16550000D03*
%TO.P,C3,2*%
%TO.N,GND*%
X19280000Y-16550000D03*
%TD*%
D23*
%TO.P,R39,1*%
%TO.N,Net-(D10-A)*%
X25260000Y-33500000D03*
%TO.P,R39,2*%
%TO.N,/2ndLayer/TweLite/LED0*%
X24240000Y-33500000D03*
%TD*%
%TO.P,R35,1*%
%TO.N,Net-(D9-A)*%
X-23290000Y-23050000D03*
%TO.P,R35,2*%
%TO.N,+3.3V*%
X-24310000Y-23050000D03*
%TD*%
D55*
%TO.P,Y1,1,1*%
%TO.N,/2ndLayer/HSE_IN*%
X20500000Y-19950000D03*
%TO.P,Y1,2,2*%
%TO.N,GND*%
X22700000Y-19950000D03*
%TO.P,Y1,3,3*%
%TO.N,/2ndLayer/HSE_OUT*%
X22700000Y-21650000D03*
%TO.P,Y1,4,4*%
%TO.N,GND*%
X20500000Y-21650000D03*
%TD*%
D27*
%TO.P,R31,1*%
%TO.N,Net-(C22-Pad1)*%
X-2250000Y-11975000D03*
%TO.P,R31,2*%
%TO.N,/2ndLayer/V_Meas.*%
X-2250000Y-13625000D03*
%TD*%
D23*
%TO.P,R60,1*%
%TO.N,GND*%
X33810000Y-15900000D03*
%TO.P,R60,2*%
%TO.N,/2ndLayer/DIPSW1*%
X32790000Y-15900000D03*
%TD*%
%TO.P,R68,1*%
%TO.N,+3.3V*%
X35410000Y-10600000D03*
%TO.P,R68,2*%
%TO.N,Net-(D16-A)*%
X34390000Y-10600000D03*
%TD*%
D39*
%TO.P,Q16,1,G*%
%TO.N,/2ndLayer/Main->RST_Twe*%
X19920000Y-52870000D03*
%TO.P,Q16,2,S*%
%TO.N,GND*%
X18020000Y-52870000D03*
%TO.P,Q16,3,D*%
%TO.N,/2ndLayer/RST_Twe*%
X18970000Y-50995000D03*
%TD*%
D23*
%TO.P,R36,1*%
%TO.N,Net-(U4-DE)*%
X5810000Y-9100000D03*
%TO.P,R36,2*%
%TO.N,GND*%
X4790000Y-9100000D03*
%TD*%
D20*
%TO.P,C27,1*%
%TO.N,+3.3V*%
X18350000Y-23280000D03*
%TO.P,C27,2*%
%TO.N,GND*%
X18350000Y-22320000D03*
%TD*%
D56*
%TO.P,C9,1*%
%TO.N,VCC*%
X-14850000Y-5375000D03*
%TO.P,C9,2*%
%TO.N,GND*%
X-14850000Y-2425000D03*
%TD*%
D31*
%TO.P,C5,1*%
%TO.N,GND*%
X21975000Y-23250000D03*
%TO.P,C5,2*%
%TO.N,/2ndLayer/HSE_OUT*%
X20425000Y-23250000D03*
%TD*%
D27*
%TO.P,R30,1*%
%TO.N,VDD*%
X-4100000Y-9175000D03*
%TO.P,R30,2*%
%TO.N,Net-(C22-Pad1)*%
X-4100000Y-10825000D03*
%TD*%
D57*
%TO.P,Q10,1,B*%
%TO.N,Net-(Q10-B)*%
X-5737500Y-14150000D03*
%TO.P,Q10,2,E*%
%TO.N,/2ndLayer/Power/VSYS*%
X-5737500Y-12250000D03*
%TO.P,Q10,3,C*%
%TO.N,Net-(Q10-B)*%
X-3862500Y-13200000D03*
%TD*%
D21*
%TO.P,R38,1*%
%TO.N,+3.3V*%
X23650000Y-38610000D03*
%TO.P,R38,2*%
%TO.N,/2ndLayer/RST_Twe*%
X23650000Y-37590000D03*
%TD*%
D36*
%TO.P,C30,1*%
%TO.N,Net-(C30-Pad1)*%
X4115000Y-27870000D03*
%TO.P,C30,2*%
%TO.N,GND*%
X4115000Y-28830000D03*
%TD*%
D58*
%TO.P,U1,1,PGOOD*%
%TO.N,/2ndLayer/Power/PG*%
X-17100000Y-5350250D03*
D59*
%TO.P,U1,2,EN*%
%TO.N,VCC*%
X-17100000Y-6150000D03*
%TO.P,U1,3,VIN*%
X-17100000Y-6649999D03*
D60*
%TO.P,U1,4,VOUT*%
%TO.N,/2ndLayer/Power/Vout*%
X-17300001Y-8300000D03*
D61*
%TO.P,U1,5,SW*%
%TO.N,unconnected-(U1-SW-Pad5)*%
X-20249999Y-8300001D03*
D59*
%TO.P,U1,6,SW*%
%TO.N,unconnected-(U1-SW-Pad6)*%
X-20450000Y-6649999D03*
%TO.P,U1,7,BOOT*%
%TO.N,unconnected-(U1-BOOT-Pad7)*%
X-20450000Y-6150000D03*
D62*
%TO.P,U1,8,VCC*%
%TO.N,Net-(U1-RT)*%
X-20450000Y-5350000D03*
D63*
%TO.P,U1,9,FB*%
%TO.N,Net-(U1-FB)*%
X-19274999Y-5000001D03*
D64*
%TO.P,U1,10,GND*%
%TO.N,GND*%
X-18775000Y-6825000D03*
D63*
%TO.P,U1,11,RT*%
%TO.N,Net-(U1-RT)*%
X-18275001Y-5000001D03*
%TD*%
D36*
%TO.P,C14,1*%
%TO.N,+3.3V*%
X74000000Y-3020000D03*
%TO.P,C14,2*%
%TO.N,/3rdLayer/TactSW1*%
X74000000Y-3980000D03*
%TD*%
D21*
%TO.P,R6,1*%
%TO.N,GND*%
X-18500000Y-21010000D03*
%TO.P,R6,2*%
%TO.N,VBUS*%
X-18500000Y-19990000D03*
%TD*%
D24*
%TO.P,Q8,1,G*%
%TO.N,/2ndLayer/Power/PowerSW*%
X-3562500Y-37600000D03*
%TO.P,Q8,2,S*%
%TO.N,GND*%
X-3562500Y-39500000D03*
%TO.P,Q8,3,D*%
%TO.N,Net-(Q8-D)*%
X-5437500Y-38550000D03*
%TD*%
D25*
%TO.P,U4,1,RO*%
%TO.N,/2ndLayer/MainRXx_RS485XTX*%
X7805000Y-7525000D03*
%TO.P,U4,2,~{RE}*%
%TO.N,Net-(U4-DE)*%
X6535000Y-7525000D03*
%TO.P,U4,3,DE*%
X5265000Y-7525000D03*
%TO.P,U4,4,DI*%
%TO.N,unconnected-(U4-DI-Pad4)*%
X3995000Y-7525000D03*
%TO.P,U4,5,GND*%
%TO.N,GND*%
X3995000Y-2275000D03*
%TO.P,U4,6,A*%
%TO.N,/2ndLayer/RS485_RingNW/RS485X_RA*%
X5265000Y-2275000D03*
%TO.P,U4,7,B*%
%TO.N,/2ndLayer/RS485_RingNW/RS485X_RB*%
X6535000Y-2275000D03*
%TO.P,U4,8,VCC*%
%TO.N,+3.3V*%
X7805000Y-2275000D03*
%TD*%
D44*
%TO.P,C8,1*%
%TO.N,+3.3V*%
X18320000Y-17550000D03*
%TO.P,C8,2*%
%TO.N,GND*%
X19280000Y-17550000D03*
%TD*%
D23*
%TO.P,R33,1*%
%TO.N,Net-(D7-A)*%
X-23290000Y-21150000D03*
%TO.P,R33,2*%
%TO.N,/2ndLayer/Power/IND*%
X-24310000Y-21150000D03*
%TD*%
D21*
%TO.P,R9,1*%
%TO.N,/2ndLayer/Power/Vout*%
X-16100000Y-11210000D03*
%TO.P,R9,2*%
%TO.N,GND*%
X-16100000Y-10190000D03*
%TD*%
D17*
%TO.P,R70,1*%
%TO.N,Net-(U1-RT)*%
X-17493333Y-4100001D03*
%TO.P,R70,2*%
%TO.N,/2ndLayer/Power/PG*%
X-16473333Y-4100001D03*
%TD*%
D51*
%TO.P,D17,1,K*%
%TO.N,VCC*%
X-15100000Y-6850000D03*
%TO.P,D17,2,A*%
%TO.N,/2ndLayer/Power/Vout*%
X-15100000Y-9350000D03*
%TD*%
D65*
%TO.P,L1,1,1*%
%TO.N,Net-(D5-K)*%
X-11412500Y-5500000D03*
%TO.P,L1,2,2*%
%TO.N,VCC*%
X-12987500Y-5500000D03*
%TD*%
D17*
%TO.P,R54,1*%
%TO.N,/2ndLayer/RS485_RingNW/RS485Y_RB*%
X-5510000Y-700000D03*
%TO.P,R54,2*%
%TO.N,GND*%
X-4490000Y-700000D03*
%TD*%
%TO.P,R71,1*%
%TO.N,GND*%
X-6310000Y-11000000D03*
%TO.P,R71,2*%
%TO.N,/2ndLayer/Power/VSYS*%
X-5290000Y-11000000D03*
%TD*%
D15*
%TO.P,J1,1,Pin_1*%
%TO.N,unconnected-(J1-Pin_1-Pad1)*%
X19325000Y-3485000D03*
D16*
%TO.P,J1,2,Pin_2*%
%TO.N,unconnected-(J1-Pin_2-Pad2)*%
X19325000Y-4755000D03*
%TO.P,J1,3,Pin_3*%
%TO.N,unconnected-(J1-Pin_3-Pad3)*%
X19325000Y-6025000D03*
%TO.P,J1,4,Pin_4*%
%TO.N,unconnected-(J1-Pin_4-Pad4)*%
X19325000Y-7295000D03*
%TO.P,J1,5,Pin_5*%
%TO.N,unconnected-(J1-Pin_5-Pad5)*%
X19325000Y-8565000D03*
%TO.P,J1,6,Pin_6*%
%TO.N,unconnected-(J1-Pin_6-Pad6)*%
X19325000Y-9835000D03*
%TO.P,J1,7,Pin_7*%
%TO.N,unconnected-(J1-Pin_7-Pad7)*%
X19325000Y-11105000D03*
%TO.P,J1,8,Pin_8*%
%TO.N,unconnected-(J1-Pin_8-Pad8)*%
X19325000Y-12375000D03*
%TO.P,J1,9,Pin_9*%
%TO.N,unconnected-(J1-Pin_9-Pad9)*%
X19325000Y-13645000D03*
%TO.P,J1,10,Pin_10*%
%TO.N,unconnected-(J1-Pin_10-Pad10)*%
X19325000Y-14915000D03*
%TD*%
D25*
%TO.P,U5,1,RO*%
%TO.N,unconnected-(U5-RO-Pad1)*%
X1405000Y-7525000D03*
%TO.P,U5,2,~{RE}*%
%TO.N,Net-(Q14-C)*%
X135000Y-7525000D03*
%TO.P,U5,3,DE*%
X-1135000Y-7525000D03*
%TO.P,U5,4,DI*%
%TO.N,/2ndLayer/MainTXx_RS485YRX*%
X-2405000Y-7525000D03*
%TO.P,U5,5,GND*%
%TO.N,GND*%
X-2405000Y-2275000D03*
%TO.P,U5,6,A*%
%TO.N,/2ndLayer/RS485_RingNW/RS485Y_TA*%
X-1135000Y-2275000D03*
%TO.P,U5,7,B*%
%TO.N,/2ndLayer/RS485_RingNW/RS485Y_TB*%
X135000Y-2275000D03*
%TO.P,U5,8,VCC*%
%TO.N,+3.3V*%
X1405000Y-2275000D03*
%TD*%
D17*
%TO.P,R18,1*%
%TO.N,Net-(Q7-G)*%
X-7110000Y-10050000D03*
%TO.P,R18,2*%
%TO.N,GND*%
X-6090000Y-10050000D03*
%TD*%
D36*
%TO.P,C12,1*%
%TO.N,+3.3V*%
X63900000Y-3020000D03*
%TO.P,C12,2*%
%TO.N,/3rdLayer/TactSW0*%
X63900000Y-3980000D03*
%TD*%
D66*
%TO.N,/2ndLayer/Power/Vout*%
X-18199998Y-7260000D03*
X-20810000Y-4674998D03*
%TO.N,Net-(U1-RT)*%
X-18091666Y-4698334D03*
X-19860000Y-5350000D03*
%TO.N,unconnected-(J2-Pin_11-Pad11)*%
X-11636045Y-26301724D03*
%TO.N,unconnected-(J2-Pin_13-Pad13)*%
X-12160023Y-26826724D03*
%TO.N,unconnected-(J2-Pin_15-Pad15)*%
X-8220000Y-26315000D03*
%TO.N,unconnected-(J2-Pin_17-Pad17)*%
X-5150000Y-26320000D03*
%TO.N,unconnected-(J2-Pin_19-Pad19)*%
X-3780000Y-26370000D03*
%TO.N,Net-(Q7-G)*%
X-7803450Y-8775000D03*
%TO.N,/2ndLayer/Power/PG*%
X-20450000Y-9940000D03*
X-16473333Y-4723583D03*
%TO.N,Net-(U2-DO0{slash}PWM2)*%
X-12117775Y-23652638D03*
%TD*%
D67*
%TO.N,*%
X-7475000Y-23295000D02*
X-7475000Y-23270000D01*
X-12335238Y-24177638D02*
X-8357638Y-24177638D01*
X-13090000Y-23422876D02*
X-12335238Y-24177638D01*
X-13090000Y-23290000D02*
X-13090000Y-23422876D01*
X-8357638Y-24177638D02*
X-7475000Y-23295000D01*
D68*
%TO.N,+3.3V*%
X67180000Y-9915000D02*
X60485000Y-9915000D01*
X60485000Y-9915000D02*
X54700000Y-15700000D01*
X68730000Y-8365000D02*
X67180000Y-9915000D01*
D67*
%TO.N,/2ndLayer/HSE_IN*%
X20500000Y-18625000D02*
X20500000Y-19950000D01*
X16775000Y-18200000D02*
X20075000Y-18200000D01*
X20075000Y-18200000D02*
X20500000Y-18625000D01*
%TO.N,/2ndLayer/HSE_OUT*%
X16775000Y-18700000D02*
X17605330Y-18700000D01*
X20425000Y-23250000D02*
X20757538Y-23250000D01*
X17605330Y-18700000D02*
X18400000Y-19494670D01*
X20757538Y-23250000D02*
X22357538Y-21650000D01*
X18400000Y-21300000D02*
X20350000Y-23250000D01*
X18400000Y-19494670D02*
X18400000Y-21300000D01*
X22357538Y-21650000D02*
X22700000Y-21650000D01*
X20350000Y-23250000D02*
X20425000Y-23250000D01*
%TO.N,/2ndLayer/Power/Vout*%
X-20810000Y-4674998D02*
X-20993333Y-4491665D01*
X-20993333Y-4491665D02*
X-20993333Y-4100001D01*
X-18199998Y-7400003D02*
X-17300001Y-8300000D01*
X-18199998Y-7260000D02*
X-18199998Y-7400003D01*
%TO.N,/2ndLayer/RST_Twe*%
X-17970000Y-29230000D02*
X-17970000Y-30031371D01*
X-10148707Y-32018707D02*
X-8530000Y-30400000D01*
X-17101371Y-30900000D02*
X-14423657Y-30900000D01*
X-8530000Y-30400000D02*
X-5053289Y-30400000D01*
X-14423657Y-30900000D02*
X-13304950Y-32018707D01*
X-5053289Y-30400000D02*
X-60000Y-25406711D01*
X-60000Y-25406711D02*
X-60000Y-22340000D01*
X-17970000Y-30031371D02*
X-17101371Y-30900000D01*
X-17170000Y-28430000D02*
X-17970000Y-29230000D01*
X-13304950Y-32018707D02*
X-10148707Y-32018707D01*
%TO.N,VDD*%
X-4235000Y-9040000D02*
X-4100000Y-9175000D01*
X-5210000Y-9040000D02*
X-4235000Y-9040000D01*
D69*
%TO.N,Net-(U1-RT)*%
X-18091666Y-4698334D02*
X-17493333Y-4100001D01*
X-22142390Y-6380000D02*
X-21112390Y-5350000D01*
X-21112390Y-5350000D02*
X-20450000Y-5350000D01*
X-18275001Y-5000001D02*
X-18275001Y-4881669D01*
X-18275001Y-4881669D02*
X-18091666Y-4698334D01*
X-20450000Y-5350000D02*
X-19860000Y-5350000D01*
X-22150000Y-6380000D02*
X-22142390Y-6380000D01*
D67*
%TO.N,Net-(Q17-G)*%
X-17900000Y-14610000D02*
X-16320000Y-13030000D01*
X-16320000Y-13030000D02*
X-16100000Y-13030000D01*
X-14780000Y-12930000D02*
X-16000000Y-12930000D01*
X-17900000Y-15548896D02*
X-17900000Y-14610000D01*
X-16000000Y-12930000D02*
X-16100000Y-13030000D01*
X-19001104Y-16650000D02*
X-17900000Y-15548896D01*
X-19450000Y-16650000D02*
X-19001104Y-16650000D01*
D69*
%TO.N,Net-(U1-FB)*%
X-19274999Y-5000001D02*
X-19274999Y-4798335D01*
X-19993334Y-4080000D02*
X-19973333Y-4100001D01*
X-19274999Y-4798335D02*
X-19973333Y-4100001D01*
X-19993334Y-3000001D02*
X-19993334Y-4080000D01*
D67*
%TO.N,unconnected-(J2-Pin_7-Pad7)*%
X-15900000Y-22080000D02*
X-13402362Y-24577638D01*
X-13402362Y-24577638D02*
X-4452638Y-24577638D01*
X-4452638Y-24577638D02*
X-3649264Y-23774264D01*
%TO.N,unconnected-(J2-Pin_9-Pad9)*%
X-13872362Y-25377638D02*
X-4177638Y-25377638D01*
X-4177638Y-25377638D02*
X-2974264Y-24174264D01*
X-15900000Y-23350000D02*
X-13872362Y-25377638D01*
%TO.N,unconnected-(J2-Pin_11-Pad11)*%
X-11636045Y-26301724D02*
X-14218276Y-26301724D01*
X-14218276Y-26301724D02*
X-15900000Y-24620000D01*
%TO.N,unconnected-(J2-Pin_13-Pad13)*%
X-14963276Y-26826724D02*
X-15900000Y-25890000D01*
X-12160023Y-26826724D02*
X-14963276Y-26826724D01*
%TO.N,unconnected-(J2-Pin_15-Pad15)*%
X-10769495Y-26177638D02*
X-11981857Y-27390000D01*
X-8220000Y-26315000D02*
X-8357362Y-26177638D01*
X-15670000Y-27390000D02*
X-15900000Y-27160000D01*
X-11981857Y-27390000D02*
X-15670000Y-27390000D01*
X-8357362Y-26177638D02*
X-10769495Y-26177638D01*
%TO.N,unconnected-(J2-Pin_17-Pad17)*%
X-11956171Y-27930000D02*
X-10603809Y-26577638D01*
X-8699825Y-26577638D02*
X-8437463Y-26840000D01*
X-8437463Y-26840000D02*
X-5670000Y-26840000D01*
X-5670000Y-26840000D02*
X-5150000Y-26320000D01*
X-15400000Y-27930000D02*
X-11956171Y-27930000D01*
X-15900000Y-28430000D02*
X-15400000Y-27930000D01*
X-10603809Y-26577638D02*
X-8699825Y-26577638D01*
%TO.N,unconnected-(J2-Pin_19-Pad19)*%
X-15900000Y-29700000D02*
X-14530000Y-28330000D01*
X-11790485Y-28330000D02*
X-10438123Y-26977638D01*
X-4650000Y-27240000D02*
X-3780000Y-26370000D01*
X-8865510Y-26977638D02*
X-8603148Y-27240000D01*
X-8603148Y-27240000D02*
X-4650000Y-27240000D01*
X-10438123Y-26977638D02*
X-8865510Y-26977638D01*
X-14530000Y-28330000D02*
X-11790485Y-28330000D01*
%TO.N,VBUS*%
X-16910000Y-16810000D02*
X-16910000Y-18010000D01*
X-16910000Y-18010000D02*
X-17170000Y-18270000D01*
%TO.N,Net-(Q2-B)*%
X-21837500Y-23237500D02*
X-21407500Y-23237500D01*
X-22385000Y-23785000D02*
X-21837500Y-23237500D01*
X-20457500Y-22287500D02*
X-19962500Y-22287500D01*
X-21407500Y-23237500D02*
X-20457500Y-22287500D01*
X-19750000Y-20537500D02*
X-19750000Y-22075000D01*
X-19750000Y-22075000D02*
X-19962500Y-22287500D01*
X-22385000Y-25462500D02*
X-22385000Y-23785000D01*
%TO.N,Net-(Q3-G)*%
X-18500000Y-16714582D02*
X-18500000Y-18090000D01*
X-17500000Y-14775686D02*
X-17500000Y-15714582D01*
X-20700000Y-18662500D02*
X-20127500Y-18090000D01*
X-17500000Y-15714582D02*
X-18500000Y-16714582D01*
X-16334314Y-13610000D02*
X-17500000Y-14775686D01*
X-11100000Y-14550000D02*
X-12040000Y-13610000D01*
X-12040000Y-13610000D02*
X-16334314Y-13610000D01*
X-20127500Y-18090000D02*
X-18500000Y-18090000D01*
%TO.N,/2ndLayer/Power/IND*%
X-15960000Y-14410000D02*
X-14590000Y-14410000D01*
X-19962500Y-24965000D02*
X-19465000Y-25462500D01*
X-19962500Y-24187500D02*
X-19962500Y-24965000D01*
X-14590000Y-14410000D02*
X-13500000Y-15500000D01*
%TO.N,Net-(Q7-G)*%
X-7803450Y-8775000D02*
X-7803450Y-9241734D01*
X-7803450Y-9241734D02*
X-7110000Y-9935184D01*
X-7110000Y-9935184D02*
X-7110000Y-10050000D01*
%TO.N,Net-(Q11-G)*%
X-7200000Y-11910000D02*
X-8080000Y-11030000D01*
X-9205000Y-10275000D02*
X-10150000Y-10275000D01*
X-12001104Y-7362500D02*
X-12450000Y-7362500D01*
X-10150000Y-10275000D02*
X-10450000Y-9975000D01*
X-10450000Y-8913604D02*
X-12001104Y-7362500D01*
X-8080000Y-11030000D02*
X-8450000Y-11030000D01*
X-10450000Y-9975000D02*
X-10450000Y-8913604D01*
X-8450000Y-11030000D02*
X-9205000Y-10275000D01*
%TO.N,/2ndLayer/PRG_Twe*%
X-9183616Y-32626384D02*
X3453616Y-32626384D01*
X-13470635Y-32418707D02*
X-9391293Y-32418707D01*
X-18370000Y-30197057D02*
X-17267056Y-31300000D01*
X-17170000Y-27160000D02*
X-18370000Y-28360000D01*
X-14589342Y-31300000D02*
X-13470635Y-32418707D01*
X-18370000Y-28360000D02*
X-18370000Y-30197057D01*
X3453616Y-32626384D02*
X6770000Y-29310000D01*
X-9391293Y-32418707D02*
X-9183616Y-32626384D01*
X-17267056Y-31300000D02*
X-14589342Y-31300000D01*
%TO.N,/2ndLayer/Power/PG*%
X-16473333Y-4100001D02*
X-16473333Y-4723583D01*
X-20400000Y-9990000D02*
X-20450000Y-9940000D01*
X-20400000Y-14775000D02*
X-20400000Y-9990000D01*
X-16473333Y-4723583D02*
X-17100000Y-5350250D01*
%TO.N,Net-(U2-DO0{slash}PWM2)*%
X-11936270Y-23774264D02*
X-9349264Y-23774264D01*
X-12117775Y-23652638D02*
X-12057896Y-23652638D01*
X-9349264Y-23774264D02*
X-8425000Y-22850000D01*
X-12057896Y-23652638D02*
X-11936270Y-23774264D01*
%TO.N,unconnected-(U8-PD12-Pad59)*%
X465686Y-20700000D02*
X-2696079Y-23861765D01*
X1425000Y-20700000D02*
X465686Y-20700000D01*
%TO.N,unconnected-(U8-PD13-Pad60)*%
X1425000Y-20200000D02*
X400000Y-20200000D01*
X-3024264Y-23374264D02*
X-3253922Y-23603922D01*
X-2774264Y-23374264D02*
X-3024264Y-23374264D01*
X400000Y-20200000D02*
X-2774264Y-23374264D01*
%TO.N,unconnected-(J2-Pin_20-Pad20)*%
X-5570000Y-29140000D02*
X-2250000Y-25820000D01*
X-14180000Y-29140000D02*
X-5570000Y-29140000D01*
X-16370000Y-30500000D02*
X-15540000Y-30500000D01*
X-2250000Y-25820000D02*
X-2250000Y-24790000D01*
X-17170000Y-29700000D02*
X-16370000Y-30500000D01*
X-15540000Y-30500000D02*
X-14180000Y-29140000D01*
D69*
%TO.N,Net-(C38-Pad1)*%
X69750000Y-26525000D02*
X69750000Y-27260000D01*
X69970000Y-27480000D02*
X70530000Y-27480000D01*
X69750000Y-27260000D02*
X69970000Y-27480000D01*
X70530000Y-27480000D02*
X70750000Y-27260000D01*
X70750000Y-27260000D02*
X70750000Y-26525000D01*
X70725000Y-22775000D02*
X70750000Y-22750000D01*
X70750000Y-26525000D02*
X70725000Y-26500000D01*
X70725000Y-26500000D02*
X70725000Y-22775000D01*
%TO.N,Net-(C39-Pad1)*%
X70030000Y-25570000D02*
X70250000Y-25790000D01*
X70275000Y-26500000D02*
X70275000Y-23775000D01*
X69470000Y-25570000D02*
X70030000Y-25570000D01*
X69250000Y-26525000D02*
X69250000Y-25790000D01*
X70250000Y-26525000D02*
X70275000Y-26500000D01*
X69250000Y-25790000D02*
X69470000Y-25570000D01*
X70275000Y-23775000D02*
X69250000Y-22750000D01*
X70250000Y-25790000D02*
X70250000Y-26525000D01*
%TO.N,Net-(J4-CC1)*%
X71250000Y-26525000D02*
X71250000Y-24065000D01*
X71250000Y-24065000D02*
X71340000Y-23975000D01*
%TO.N,Net-(J4-CC2)*%
X68250000Y-26525000D02*
X68250000Y-25785000D01*
X68250000Y-25785000D02*
X69100000Y-24935000D01*
%TD*%
%TA.AperFunction,Conductor*%
%TO.N,Net-(D5-K)*%
G36*
X-10691800Y-5004010D02*
G01*
X-10681807Y-5007536D01*
X-10571555Y-5053203D01*
X-10376771Y-5133885D01*
X-10352540Y-5148262D01*
X-10344664Y-5155335D01*
X-10000000Y-5500000D01*
X-8991008Y-5500000D01*
X-8963116Y-5504010D01*
X-8937485Y-5515716D01*
X-8921004Y-5528996D01*
X-8778996Y-5671004D01*
X-8762110Y-5693562D01*
X-8752262Y-5719964D01*
X-8750000Y-5741008D01*
X-8750000Y-6508992D01*
X-8754010Y-6536884D01*
X-8765716Y-6562515D01*
X-8778996Y-6578996D01*
X-8921004Y-6721004D01*
X-8943562Y-6737890D01*
X-8969964Y-6747738D01*
X-8991008Y-6750000D01*
X-11758992Y-6750000D01*
X-11786884Y-6745990D01*
X-11812515Y-6734284D01*
X-11828996Y-6721004D01*
X-11971004Y-6578996D01*
X-11987890Y-6556438D01*
X-11997738Y-6530036D01*
X-12000000Y-6508992D01*
X-12000000Y-5241008D01*
X-11995990Y-5213116D01*
X-11984284Y-5187485D01*
X-11971004Y-5171004D01*
X-11828996Y-5028996D01*
X-11806438Y-5012110D01*
X-11780036Y-5002262D01*
X-11758992Y-5000000D01*
X-10719692Y-5000000D01*
X-10691800Y-5004010D01*
G37*
%TD.AperFunction*%
%TD*%
%TA.AperFunction,Conductor*%
%TO.N,VCC*%
G36*
X-12713116Y-4004010D02*
G01*
X-12687485Y-4015716D01*
X-12671004Y-4028996D01*
X-12528996Y-4171004D01*
X-12512110Y-4193562D01*
X-12502262Y-4219964D01*
X-12500000Y-4241008D01*
X-12500000Y-6008992D01*
X-12504010Y-6036884D01*
X-12515716Y-6062515D01*
X-12528996Y-6078996D01*
X-12671004Y-6221004D01*
X-12693562Y-6237890D01*
X-12719964Y-6247738D01*
X-12741008Y-6250000D01*
X-13250000Y-6250000D01*
X-13391421Y-6391421D01*
X-13871286Y-6871286D01*
X-14344655Y-7344655D01*
X-14367213Y-7361541D01*
X-14376773Y-7366115D01*
X-14681806Y-7492464D01*
X-14709109Y-7499433D01*
X-14719692Y-7500000D01*
X-15674027Y-7500000D01*
X-15701919Y-7495990D01*
X-15727550Y-7484284D01*
X-15744031Y-7471004D01*
X-15952183Y-7262851D01*
X-15960030Y-7255416D01*
X-15967909Y-7248340D01*
X-15999724Y-7224966D01*
X-16023959Y-7210587D01*
X-16023968Y-7210582D01*
X-16040026Y-7202544D01*
X-16063172Y-7186473D01*
X-16080853Y-7164532D01*
X-16087640Y-7150757D01*
X-16087840Y-7150255D01*
X-16106727Y-7114098D01*
X-16132493Y-7082498D01*
X-16132499Y-7082492D01*
X-16164099Y-7056726D01*
X-16200245Y-7037844D01*
X-16239445Y-7026628D01*
X-16247422Y-7025919D01*
X-16263372Y-7024501D01*
X-16263376Y-7024501D01*
X-17794728Y-7024501D01*
X-17822620Y-7020491D01*
X-17848251Y-7008785D01*
X-17867081Y-6993073D01*
X-17908889Y-6948305D01*
X-17908895Y-6948300D01*
X-17954042Y-6911570D01*
X-17956813Y-6909615D01*
X-17956513Y-6909190D01*
X-17974201Y-6894610D01*
X-17990014Y-6871286D01*
X-17998616Y-6844453D01*
X-18000000Y-6827957D01*
X-18000000Y-5991008D01*
X-17995990Y-5963116D01*
X-17984284Y-5937485D01*
X-17971004Y-5921004D01*
X-17879496Y-5829496D01*
X-17856938Y-5812610D01*
X-17830536Y-5802762D01*
X-17809492Y-5800500D01*
X-16263374Y-5800500D01*
X-16263370Y-5800500D01*
X-16239445Y-5798373D01*
X-16219843Y-5792764D01*
X-16200243Y-5787156D01*
X-16200241Y-5787155D01*
X-16164097Y-5768275D01*
X-16132494Y-5742506D01*
X-16106725Y-5710903D01*
X-16087845Y-5674759D01*
X-16087843Y-5674756D01*
X-16076627Y-5635556D01*
X-16076201Y-5630770D01*
X-16074500Y-5611630D01*
X-16074500Y-5115508D01*
X-16070490Y-5087616D01*
X-16058784Y-5061985D01*
X-16045504Y-5045504D01*
X-15905344Y-4905344D01*
X-15882786Y-4888458D01*
X-15873232Y-4883886D01*
X-15568192Y-4757535D01*
X-15540891Y-4750567D01*
X-15530308Y-4750000D01*
X-14450001Y-4750000D01*
X-14450000Y-4750000D01*
X-14250000Y-4750000D01*
X-14108580Y-4608580D01*
X-13655343Y-4155344D01*
X-13632786Y-4138458D01*
X-13623232Y-4133886D01*
X-13318192Y-4007535D01*
X-13290891Y-4000567D01*
X-13280308Y-4000000D01*
X-12741008Y-4000000D01*
X-12713116Y-4004010D01*
G37*
%TD.AperFunction*%
%TD*%
%TA.AperFunction,Conductor*%
%TO.N,/2ndLayer/Power/Vout*%
G36*
X-16441800Y-7254010D02*
G01*
X-16431807Y-7257536D01*
X-16321555Y-7303203D01*
X-16126771Y-7383885D01*
X-16102540Y-7398262D01*
X-16094664Y-7405335D01*
X-14405341Y-9094658D01*
X-14388458Y-9117213D01*
X-14383884Y-9126774D01*
X-14257536Y-9431807D01*
X-14250567Y-9459110D01*
X-14250000Y-9469692D01*
X-14250000Y-11280307D01*
X-14254010Y-11308199D01*
X-14257536Y-11318192D01*
X-14383884Y-11623225D01*
X-14398262Y-11647459D01*
X-14405344Y-11655344D01*
X-15105026Y-12355026D01*
X-15127584Y-12371912D01*
X-15153986Y-12381760D01*
X-15155271Y-12382030D01*
X-15206865Y-12392538D01*
X-15258556Y-12411232D01*
X-15306975Y-12437256D01*
X-15351081Y-12470045D01*
X-15351085Y-12470048D01*
X-15389952Y-12508915D01*
X-15422745Y-12553027D01*
X-15431273Y-12568895D01*
X-15435827Y-12577368D01*
X-15452563Y-12600037D01*
X-15475008Y-12617073D01*
X-15501344Y-12627096D01*
X-15523030Y-12629500D01*
X-15677328Y-12629500D01*
X-15705220Y-12625490D01*
X-15730851Y-12613784D01*
X-15735828Y-12610367D01*
X-15737538Y-12609113D01*
X-15783265Y-12585371D01*
X-15832061Y-12568895D01*
X-15832075Y-12568891D01*
X-15882815Y-12560055D01*
X-15886037Y-12559900D01*
X-15894402Y-12559500D01*
X-16305598Y-12559500D01*
X-16315635Y-12559981D01*
X-16317182Y-12560055D01*
X-16317186Y-12560055D01*
X-16367924Y-12568891D01*
X-16367929Y-12568892D01*
X-16367932Y-12568893D01*
X-16367937Y-12568894D01*
X-16367938Y-12568895D01*
X-16416734Y-12585371D01*
X-16462463Y-12609114D01*
X-16504017Y-12639549D01*
X-16504021Y-12639552D01*
X-16540448Y-12675979D01*
X-16540450Y-12675982D01*
X-16570885Y-12717536D01*
X-16570887Y-12717540D01*
X-16594626Y-12763260D01*
X-16611107Y-12812068D01*
X-16619945Y-12862820D01*
X-16620235Y-12868876D01*
X-16625572Y-12896538D01*
X-16638488Y-12921582D01*
X-16649117Y-12934146D01*
X-17435975Y-13721004D01*
X-17458533Y-13737890D01*
X-17484935Y-13747738D01*
X-17505979Y-13750000D01*
X-17758992Y-13750000D01*
X-17786884Y-13745990D01*
X-17812515Y-13734284D01*
X-17828996Y-13721004D01*
X-17971004Y-13578996D01*
X-17987890Y-13556438D01*
X-17997738Y-13530036D01*
X-18000000Y-13508992D01*
X-18000000Y-10345598D01*
X-16620500Y-10345598D01*
X-16619945Y-10357180D01*
X-16611107Y-10407932D01*
X-16594626Y-10456740D01*
X-16570887Y-10502460D01*
X-16540448Y-10544021D01*
X-16504021Y-10580448D01*
X-16462460Y-10610887D01*
X-16416740Y-10634626D01*
X-16367932Y-10651107D01*
X-16317180Y-10659945D01*
X-16305598Y-10660500D01*
X-16305585Y-10660500D01*
X-15894415Y-10660500D01*
X-15894402Y-10660500D01*
X-15882820Y-10659945D01*
X-15882814Y-10659944D01*
X-15882813Y-10659944D01*
X-15857444Y-10655526D01*
X-15832068Y-10651107D01*
X-15799307Y-10640044D01*
X-15783265Y-10634628D01*
X-15783263Y-10634627D01*
X-15783260Y-10634626D01*
X-15737540Y-10610887D01*
X-15737536Y-10610885D01*
X-15695982Y-10580450D01*
X-15695979Y-10580448D01*
X-15659552Y-10544021D01*
X-15659549Y-10544017D01*
X-15629114Y-10502463D01*
X-15605371Y-10456734D01*
X-15588895Y-10407938D01*
X-15588891Y-10407924D01*
X-15580055Y-10357186D01*
X-15580055Y-10357182D01*
X-15579981Y-10355635D01*
X-15579500Y-10345598D01*
X-15579500Y-10034402D01*
X-15580055Y-10022820D01*
X-15580055Y-10022817D01*
X-15580055Y-10022813D01*
X-15588891Y-9972075D01*
X-15588895Y-9972061D01*
X-15605371Y-9923265D01*
X-15629114Y-9877536D01*
X-15659549Y-9835982D01*
X-15695982Y-9799549D01*
X-15737536Y-9769114D01*
X-15783265Y-9745371D01*
X-15832061Y-9728895D01*
X-15832075Y-9728891D01*
X-15882815Y-9720055D01*
X-15886037Y-9719900D01*
X-15894402Y-9719500D01*
X-16305598Y-9719500D01*
X-16315635Y-9719981D01*
X-16317182Y-9720055D01*
X-16317186Y-9720055D01*
X-16367924Y-9728891D01*
X-16367929Y-9728892D01*
X-16367932Y-9728893D01*
X-16367937Y-9728894D01*
X-16367938Y-9728895D01*
X-16416734Y-9745371D01*
X-16462463Y-9769114D01*
X-16504017Y-9799549D01*
X-16504021Y-9799552D01*
X-16540448Y-9835979D01*
X-16540450Y-9835982D01*
X-16570885Y-9877536D01*
X-16570887Y-9877540D01*
X-16594626Y-9923260D01*
X-16611107Y-9972068D01*
X-16619945Y-10022820D01*
X-16620500Y-10034402D01*
X-16620500Y-10345598D01*
X-18000000Y-10345598D01*
X-18000000Y-9926777D01*
X-17999999Y-9926777D01*
X-18000000Y-9926774D01*
X-18000000Y-9750000D01*
X-18125000Y-9625000D01*
X-18242464Y-9341416D01*
X-18249433Y-9314113D01*
X-18250000Y-9303530D01*
X-18250000Y-7491008D01*
X-18245990Y-7463116D01*
X-18234284Y-7437485D01*
X-18221004Y-7421004D01*
X-18078996Y-7278996D01*
X-18056438Y-7262110D01*
X-18030036Y-7252262D01*
X-18008992Y-7250000D01*
X-16469692Y-7250000D01*
X-16441800Y-7254010D01*
G37*
%TD.AperFunction*%
%TD*%
%TA.AperFunction,Conductor*%
%TO.N,VBUS*%
G36*
X-16694143Y-16754010D02*
G01*
X-16680053Y-16759342D01*
X-16391907Y-16894302D01*
X-16368362Y-16909757D01*
X-16357864Y-16920562D01*
X-15389153Y-18083016D01*
X-15374381Y-18107006D01*
X-15372134Y-18112659D01*
X-15280011Y-18367106D01*
X-15274290Y-18394685D01*
X-15274231Y-18405868D01*
X-15274257Y-18406380D01*
X-15274258Y-18406385D01*
X-15275500Y-18430611D01*
X-15275499Y-18719552D01*
X-15275499Y-18969392D01*
X-15274258Y-18993612D01*
X-15274258Y-18993616D01*
X-15271115Y-19011843D01*
X-15270327Y-19040011D01*
X-15277507Y-19067259D01*
X-15292072Y-19091381D01*
X-15298671Y-19098671D01*
X-15305759Y-19105759D01*
X-15328317Y-19122645D01*
X-15354719Y-19132493D01*
X-15382826Y-19134503D01*
X-15410360Y-19128513D01*
X-15435091Y-19115009D01*
X-15438066Y-19112692D01*
X-15487687Y-19072508D01*
X-15487698Y-19072501D01*
X-15549262Y-19032520D01*
X-15549287Y-19032506D01*
X-15614684Y-18999184D01*
X-15683236Y-18972871D01*
X-15683235Y-18972871D01*
X-15754163Y-18953866D01*
X-15826667Y-18942382D01*
X-15826688Y-18942380D01*
X-15899993Y-18938539D01*
X-15900007Y-18938539D01*
X-15973311Y-18942380D01*
X-15973332Y-18942382D01*
X-16045836Y-18953866D01*
X-16116764Y-18972871D01*
X-16185307Y-18999181D01*
X-16250724Y-19032513D01*
X-16312311Y-19072508D01*
X-16335617Y-19091381D01*
X-16369369Y-19118713D01*
X-16421287Y-19170631D01*
X-16421290Y-19170635D01*
X-16455842Y-19213303D01*
X-16476511Y-19232455D01*
X-16501738Y-19245008D01*
X-16529481Y-19249945D01*
X-16532779Y-19250000D01*
X-16537221Y-19250000D01*
X-16565113Y-19245990D01*
X-16590744Y-19234284D01*
X-16612040Y-19215831D01*
X-16614158Y-19213303D01*
X-16648709Y-19170635D01*
X-16700635Y-19118709D01*
X-16757688Y-19072508D01*
X-16757698Y-19072501D01*
X-16819262Y-19032520D01*
X-16819287Y-19032506D01*
X-16884684Y-18999184D01*
X-16953236Y-18972871D01*
X-16953235Y-18972871D01*
X-17024163Y-18953866D01*
X-17096667Y-18942382D01*
X-17096688Y-18942380D01*
X-17169993Y-18938539D01*
X-17170007Y-18938539D01*
X-17243311Y-18942380D01*
X-17243332Y-18942382D01*
X-17315836Y-18953866D01*
X-17386764Y-18972871D01*
X-17455307Y-18999181D01*
X-17520724Y-19032513D01*
X-17582313Y-19072509D01*
X-17582315Y-19072511D01*
X-17588700Y-19077681D01*
X-17612900Y-19092117D01*
X-17640186Y-19099150D01*
X-17668349Y-19098210D01*
X-17695106Y-19089374D01*
X-17718290Y-19073358D01*
X-17736022Y-19051459D01*
X-17746867Y-19025451D01*
X-17750000Y-19000742D01*
X-17750000Y-16991008D01*
X-17745990Y-16963116D01*
X-17734284Y-16937485D01*
X-17721004Y-16921004D01*
X-17578996Y-16778996D01*
X-17556438Y-16762110D01*
X-17530036Y-16752262D01*
X-17508992Y-16750000D01*
X-16722035Y-16750000D01*
X-16694143Y-16754010D01*
G37*
%TD.AperFunction*%
%TD*%
%TA.AperFunction,Conductor*%
%TO.N,/2ndLayer/Power/IND*%
G36*
X-12963116Y-14254010D02*
G01*
X-12937485Y-14265716D01*
X-12921004Y-14278996D01*
X-12778996Y-14421004D01*
X-12762110Y-14443562D01*
X-12752262Y-14469964D01*
X-12750000Y-14491008D01*
X-12750000Y-15758992D01*
X-12754010Y-15786884D01*
X-12765716Y-15812515D01*
X-12778996Y-15828996D01*
X-12921004Y-15971004D01*
X-12943562Y-15987890D01*
X-12969964Y-15997738D01*
X-12991008Y-16000000D01*
X-16258992Y-16000000D01*
X-16286884Y-15995990D01*
X-16312515Y-15984284D01*
X-16328996Y-15971004D01*
X-16471004Y-15828996D01*
X-16487890Y-15806438D01*
X-16497738Y-15780036D01*
X-16500000Y-15758992D01*
X-16500000Y-14491008D01*
X-16495990Y-14463116D01*
X-16484284Y-14437485D01*
X-16471004Y-14421004D01*
X-16328996Y-14278996D01*
X-16306438Y-14262110D01*
X-16280036Y-14252262D01*
X-16258992Y-14250000D01*
X-12991008Y-14250000D01*
X-12963116Y-14254010D01*
G37*
%TD.AperFunction*%
%TD*%
%TA.AperFunction,Conductor*%
%TO.N,+5V*%
G36*
X-7963116Y-12504010D02*
G01*
X-7937485Y-12515716D01*
X-7921004Y-12528996D01*
X-7778996Y-12671004D01*
X-7762110Y-12693562D01*
X-7752262Y-12719964D01*
X-7750000Y-12741008D01*
X-7750000Y-14000000D01*
X-7608579Y-14141421D01*
X-7571851Y-14178148D01*
X-7554970Y-14200698D01*
X-7545122Y-14227100D01*
X-7543111Y-14255206D01*
X-7544324Y-14265110D01*
X-7549937Y-14297341D01*
X-7550500Y-14309090D01*
X-7550500Y-14690910D01*
X-7549937Y-14702659D01*
X-7540967Y-14754168D01*
X-7524241Y-14803703D01*
X-7500148Y-14850105D01*
X-7469255Y-14892285D01*
X-7432285Y-14929255D01*
X-7390105Y-14960148D01*
X-7343703Y-14984241D01*
X-7294168Y-15000967D01*
X-7242659Y-15009937D01*
X-7230910Y-15010500D01*
X-7230897Y-15010500D01*
X-6909103Y-15010500D01*
X-6909090Y-15010500D01*
X-6897341Y-15009937D01*
X-6845832Y-15000967D01*
X-6831686Y-14996190D01*
X-6803986Y-14991068D01*
X-6775956Y-14993957D01*
X-6749875Y-15004626D01*
X-6730022Y-15019977D01*
X-6155341Y-15594658D01*
X-6138458Y-15617213D01*
X-6133884Y-15626774D01*
X-6007536Y-15931807D01*
X-6000567Y-15959110D01*
X-6000000Y-15969692D01*
X-6000000Y-17008992D01*
X-6004010Y-17036884D01*
X-6015716Y-17062515D01*
X-6028996Y-17078996D01*
X-6171004Y-17221004D01*
X-6193562Y-17237890D01*
X-6219964Y-17247738D01*
X-6241008Y-17250000D01*
X-8600500Y-17250000D01*
X-8628392Y-17245990D01*
X-8654023Y-17234284D01*
X-8675319Y-17215831D01*
X-8690554Y-17192126D01*
X-8698492Y-17165089D01*
X-8699500Y-17151000D01*
X-8699500Y-16682790D01*
X-8701576Y-16647315D01*
X-8701576Y-16647309D01*
X-8712601Y-16588010D01*
X-8731432Y-16530707D01*
X-8757732Y-16476426D01*
X-8791027Y-16426140D01*
X-8830733Y-16380738D01*
X-8830738Y-16380733D01*
X-8876140Y-16341027D01*
X-8926426Y-16307732D01*
X-8980707Y-16281432D01*
X-9038010Y-16262601D01*
X-9097296Y-16251578D01*
X-9097303Y-16251577D01*
X-9097306Y-16251577D01*
X-9132783Y-16249500D01*
X-9132792Y-16249500D01*
X-9132793Y-16249500D01*
X-9667209Y-16249500D01*
X-9702684Y-16251576D01*
X-9702690Y-16251576D01*
X-9761989Y-16262601D01*
X-9761990Y-16262601D01*
X-9761993Y-16262602D01*
X-9819293Y-16281432D01*
X-9873572Y-16307731D01*
X-9886144Y-16316055D01*
X-9923859Y-16341027D01*
X-9969261Y-16380733D01*
X-9969266Y-16380738D01*
X-10008972Y-16426140D01*
X-10025619Y-16451283D01*
X-10042269Y-16476428D01*
X-10068568Y-16530707D01*
X-10087398Y-16588007D01*
X-10098423Y-16647306D01*
X-10100500Y-16682783D01*
X-10100499Y-17008992D01*
X-10100499Y-17151000D01*
X-10104509Y-17178891D01*
X-10116215Y-17204523D01*
X-10134668Y-17225819D01*
X-10158373Y-17241053D01*
X-10185410Y-17248992D01*
X-10199499Y-17250000D01*
X-11508992Y-17250000D01*
X-11536884Y-17245990D01*
X-11562515Y-17234284D01*
X-11578996Y-17221004D01*
X-11721004Y-17078996D01*
X-11737890Y-17056438D01*
X-11747738Y-17030036D01*
X-11750000Y-17008992D01*
X-11750000Y-16469692D01*
X-11745990Y-16441800D01*
X-11742464Y-16431806D01*
X-11616115Y-16126773D01*
X-11601736Y-16102540D01*
X-11594655Y-16094655D01*
X-11126774Y-15626774D01*
X-10641421Y-15141421D01*
X-10500000Y-15000000D01*
X-10500000Y-14981037D01*
X-10490048Y-14971085D01*
X-10481916Y-14960146D01*
X-10457256Y-14926975D01*
X-10431232Y-14878556D01*
X-10412538Y-14826864D01*
X-10401570Y-14773013D01*
X-10401569Y-14773005D01*
X-10399500Y-14740692D01*
X-10399500Y-14359331D01*
X-10399501Y-14359302D01*
X-10401569Y-14326990D01*
X-10412538Y-14273135D01*
X-10431233Y-14221443D01*
X-10452853Y-14181216D01*
X-10462524Y-14154749D01*
X-10464348Y-14126630D01*
X-10458175Y-14099136D01*
X-10457113Y-14096464D01*
X-10366115Y-13876774D01*
X-10351737Y-13852540D01*
X-10344655Y-13844655D01*
X-9155344Y-12655344D01*
X-9132786Y-12638458D01*
X-9123232Y-12633886D01*
X-8818192Y-12507535D01*
X-8790891Y-12500567D01*
X-8780308Y-12500000D01*
X-7991008Y-12500000D01*
X-7963116Y-12504010D01*
G37*
%TD.AperFunction*%
%TD*%
%TA.AperFunction,Conductor*%
%TO.N,/2ndLayer/Power/VSYS*%
G36*
X-10463116Y-10754010D02*
G01*
X-10437485Y-10765716D01*
X-10421004Y-10778996D01*
X-10278996Y-10921004D01*
X-10262110Y-10943562D01*
X-10252262Y-10969964D01*
X-10250000Y-10991008D01*
X-10250000Y-13008992D01*
X-10254010Y-13036884D01*
X-10265716Y-13062515D01*
X-10278996Y-13078996D01*
X-10421004Y-13221004D01*
X-10443562Y-13237890D01*
X-10469964Y-13247738D01*
X-10491008Y-13250000D01*
X-12758992Y-13250000D01*
X-12786884Y-13245990D01*
X-12812515Y-13234284D01*
X-12828996Y-13221004D01*
X-12971004Y-13078996D01*
X-12987890Y-13056438D01*
X-12997738Y-13030036D01*
X-13000000Y-13008992D01*
X-13000000Y-10991008D01*
X-12995990Y-10963116D01*
X-12984284Y-10937485D01*
X-12971004Y-10921004D01*
X-12828996Y-10778996D01*
X-12806438Y-10762110D01*
X-12780036Y-10752262D01*
X-12758992Y-10750000D01*
X-10491008Y-10750000D01*
X-10463116Y-10754010D01*
G37*
%TD.AperFunction*%
%TD*%
M02*
