%TF.GenerationSoftware,KiCad,Pcbnew,7.0.11*%
%TF.CreationDate,2025-05-28T11:48:16+09:00*%
%TF.ProjectId,2ndLayer_3rdLayer,326e644c-6179-4657-925f-3372644c6179,rev?*%
%TF.SameCoordinates,Original*%
%TF.FileFunction,Legend,Top*%
%TF.FilePolarity,Positive*%
%FSLAX46Y46*%
G04 Gerber Fmt 4.6, Leading zero omitted, Abs format (unit mm)*
G04 Created by KiCad (PCBNEW 7.0.11) date 2025-05-28 11:48:16*
%MOMM*%
%LPD*%
G01*
G04 APERTURE LIST*
G04 Aperture macros list*
%AMRoundRect*
0 Rectangle with rounded corners*
0 $1 Rounding radius*
0 $2 $3 $4 $5 $6 $7 $8 $9 X,Y pos of 4 corners*
0 Add a 4 corners polygon primitive as box body*
4,1,4,$2,$3,$4,$5,$6,$7,$8,$9,$2,$3,0*
0 Add four circle primitives for the rounded corners*
1,1,$1+$1,$2,$3*
1,1,$1+$1,$4,$5*
1,1,$1+$1,$6,$7*
1,1,$1+$1,$8,$9*
0 Add four rect primitives between the rounded corners*
20,1,$1+$1,$2,$3,$4,$5,0*
20,1,$1+$1,$4,$5,$6,$7,0*
20,1,$1+$1,$6,$7,$8,$9,0*
20,1,$1+$1,$8,$9,$2,$3,0*%
%AMHorizOval*
0 Thick line with rounded ends*
0 $1 width*
0 $2 $3 position (X,Y) of the first rounded end (center of the circle)*
0 $4 $5 position (X,Y) of the second rounded end (center of the circle)*
0 Add line between two ends*
20,1,$1,$2,$3,$4,$5,0*
0 Add two circle primitives to create the rounded ends*
1,1,$1,$2,$3*
1,1,$1,$4,$5*%
%AMRotRect*
0 Rectangle, with rotation*
0 The origin of the aperture is its center*
0 $1 length*
0 $2 width*
0 $3 Rotation angle, in degrees counterclockwise*
0 Add horizontal line*
21,1,$1,$2,0,0,$3*%
G04 Aperture macros list end*
%ADD10C,0.100000*%
%ADD11C,0.150000*%
%ADD12C,0.120000*%
%ADD13C,0.200000*%
%ADD14R,1.600000X0.760000*%
%ADD15RoundRect,0.237500X0.287500X0.237500X-0.287500X0.237500X-0.287500X-0.237500X0.287500X-0.237500X0*%
%ADD16R,1.050000X0.650000*%
%ADD17R,1.600000X1.400000*%
%ADD18HorizOval,3.100000X0.424264X0.424264X-0.424264X-0.424264X0*%
%ADD19O,0.900000X1.400000*%
%ADD20O,1.400000X0.900000*%
%ADD21O,1.200000X0.900000*%
%ADD22RoundRect,0.200000X0.200000X0.600000X-0.200000X0.600000X-0.200000X-0.600000X0.200000X-0.600000X0*%
%ADD23RoundRect,0.250001X0.799999X1.249999X-0.799999X1.249999X-0.799999X-1.249999X0.799999X-1.249999X0*%
%ADD24RoundRect,0.381000X-0.335420X0.421681X-0.421681X-0.335420X0.335420X-0.421681X0.421681X0.335420X0*%
%ADD25C,1.524000*%
%ADD26RoundRect,0.237500X-0.287500X-0.237500X0.287500X-0.237500X0.287500X0.237500X-0.287500X0.237500X0*%
%ADD27R,1.000000X1.000000*%
%ADD28RotRect,0.970000X0.600000X97.000000*%
%ADD29RotRect,0.700000X1.150000X97.000000*%
%ADD30RoundRect,0.425000X-0.425000X-0.425000X0.425000X-0.425000X0.425000X0.425000X-0.425000X0.425000X0*%
%ADD31C,1.700000*%
%ADD32R,0.650000X1.050000*%
%ADD33R,0.575000X0.620000*%
%ADD34C,2.000000*%
%ADD35O,1.000000X1.000000*%
%ADD36R,0.620000X0.575000*%
%ADD37C,0.650000*%
%ADD38O,1.000000X1.800000*%
%ADD39O,1.000000X2.100000*%
G04 APERTURE END LIST*
D10*
X-5300000Y-25400000D02*
X5300000Y-25400000D01*
X5300000Y-34400000D02*
X-5300000Y-34400000D01*
X5300000Y-25400000D02*
X5300000Y-34400000D01*
X-5300000Y-34400000D02*
X-5300000Y-25400000D01*
D11*
X70775272Y-10351140D02*
X70842616Y-10485827D01*
X70842616Y-10485827D02*
X71010974Y-10654186D01*
X71010974Y-10654186D02*
X71111990Y-10687857D01*
X71111990Y-10687857D02*
X71179333Y-10687857D01*
X71179333Y-10687857D02*
X71280348Y-10654186D01*
X71280348Y-10654186D02*
X71347692Y-10586842D01*
X71347692Y-10586842D02*
X71381364Y-10485827D01*
X71381364Y-10485827D02*
X71381364Y-10418483D01*
X71381364Y-10418483D02*
X71347692Y-10317468D01*
X71347692Y-10317468D02*
X71246677Y-10149109D01*
X71246677Y-10149109D02*
X71213005Y-10048094D01*
X71213005Y-10048094D02*
X71213005Y-9980751D01*
X71213005Y-9980751D02*
X71246677Y-9879735D01*
X71246677Y-9879735D02*
X71314020Y-9812392D01*
X71314020Y-9812392D02*
X71415035Y-9778720D01*
X71415035Y-9778720D02*
X71482379Y-9778720D01*
X71482379Y-9778720D02*
X71583394Y-9812392D01*
X71583394Y-9812392D02*
X71751753Y-9980751D01*
X71751753Y-9980751D02*
X71819096Y-10115438D01*
X71920112Y-11428636D02*
X71852768Y-11428636D01*
X71852768Y-11428636D02*
X71718081Y-11361292D01*
X71718081Y-11361292D02*
X71650738Y-11293949D01*
X71650738Y-11293949D02*
X71583394Y-11159262D01*
X71583394Y-11159262D02*
X71583394Y-11024575D01*
X71583394Y-11024575D02*
X71617066Y-10923560D01*
X71617066Y-10923560D02*
X71718081Y-10755201D01*
X71718081Y-10755201D02*
X71819096Y-10654186D01*
X71819096Y-10654186D02*
X71987455Y-10553170D01*
X71987455Y-10553170D02*
X72088470Y-10519499D01*
X72088470Y-10519499D02*
X72223157Y-10519499D01*
X72223157Y-10519499D02*
X72357844Y-10586842D01*
X72357844Y-10586842D02*
X72425188Y-10654186D01*
X72425188Y-10654186D02*
X72492531Y-10788873D01*
X72492531Y-10788873D02*
X72492531Y-10856216D01*
X72492531Y-12135743D02*
X72155814Y-11799025D01*
X72155814Y-11799025D02*
X72862921Y-11091918D01*
X68807692Y-9576690D02*
X68336287Y-10519499D01*
X68336287Y-10519499D02*
X69279096Y-10048094D01*
X69279097Y-11327621D02*
X69211753Y-11327621D01*
X69211753Y-11327621D02*
X69077066Y-11260277D01*
X69077066Y-11260277D02*
X69009723Y-11192934D01*
X69009723Y-11192934D02*
X68942379Y-11058247D01*
X68942379Y-11058247D02*
X68942379Y-10923560D01*
X68942379Y-10923560D02*
X68976051Y-10822545D01*
X68976051Y-10822545D02*
X69077066Y-10654186D01*
X69077066Y-10654186D02*
X69178081Y-10553171D01*
X69178081Y-10553171D02*
X69346440Y-10452155D01*
X69346440Y-10452155D02*
X69447455Y-10418484D01*
X69447455Y-10418484D02*
X69582142Y-10418484D01*
X69582142Y-10418484D02*
X69716829Y-10485827D01*
X69716829Y-10485827D02*
X69784173Y-10553171D01*
X69784173Y-10553171D02*
X69851516Y-10687858D01*
X69851516Y-10687858D02*
X69851516Y-10755201D01*
X69986203Y-12034728D02*
X69918860Y-12034728D01*
X69918860Y-12034728D02*
X69784173Y-11967384D01*
X69784173Y-11967384D02*
X69716829Y-11900041D01*
X69716829Y-11900041D02*
X69649486Y-11765354D01*
X69649486Y-11765354D02*
X69649486Y-11630667D01*
X69649486Y-11630667D02*
X69683158Y-11529651D01*
X69683158Y-11529651D02*
X69784173Y-11361293D01*
X69784173Y-11361293D02*
X69885188Y-11260277D01*
X69885188Y-11260277D02*
X70053547Y-11159262D01*
X70053547Y-11159262D02*
X70154562Y-11125590D01*
X70154562Y-11125590D02*
X70289249Y-11125590D01*
X70289249Y-11125590D02*
X70423936Y-11192934D01*
X70423936Y-11192934D02*
X70491280Y-11260277D01*
X70491280Y-11260277D02*
X70558623Y-11394964D01*
X70558623Y-11394964D02*
X70558623Y-11462308D01*
X66638081Y-10014422D02*
X66604409Y-9913407D01*
X66604409Y-9913407D02*
X66503394Y-9812392D01*
X66503394Y-9812392D02*
X66368707Y-9745048D01*
X66368707Y-9745048D02*
X66234020Y-9745048D01*
X66234020Y-9745048D02*
X66133005Y-9778720D01*
X66133005Y-9778720D02*
X65964646Y-9879735D01*
X65964646Y-9879735D02*
X65863631Y-9980751D01*
X65863631Y-9980751D02*
X65762616Y-10149109D01*
X65762616Y-10149109D02*
X65728944Y-10250125D01*
X65728944Y-10250125D02*
X65728944Y-10384812D01*
X65728944Y-10384812D02*
X65796287Y-10519499D01*
X65796287Y-10519499D02*
X65863631Y-10586842D01*
X65863631Y-10586842D02*
X65998318Y-10654186D01*
X65998318Y-10654186D02*
X66065661Y-10654186D01*
X66065661Y-10654186D02*
X66301364Y-10418483D01*
X66301364Y-10418483D02*
X66166677Y-10283796D01*
X66301364Y-11024575D02*
X67008471Y-10317468D01*
X67008471Y-10317468D02*
X66705425Y-11428636D01*
X66705425Y-11428636D02*
X67412532Y-10721529D01*
X67042142Y-11765353D02*
X67749249Y-11058247D01*
X67749249Y-11058247D02*
X67917608Y-11226605D01*
X67917608Y-11226605D02*
X67984951Y-11361292D01*
X67984951Y-11361292D02*
X67984951Y-11495979D01*
X67984951Y-11495979D02*
X67951280Y-11596995D01*
X67951280Y-11596995D02*
X67850264Y-11765353D01*
X67850264Y-11765353D02*
X67749249Y-11866369D01*
X67749249Y-11866369D02*
X67580890Y-11967384D01*
X67580890Y-11967384D02*
X67479875Y-12001056D01*
X67479875Y-12001056D02*
X67345188Y-12001056D01*
X67345188Y-12001056D02*
X67210501Y-11933712D01*
X67210501Y-11933712D02*
X67042142Y-11765353D01*
X73298436Y-10334304D02*
X73365779Y-10468991D01*
X73365779Y-10468991D02*
X73534138Y-10637349D01*
X73534138Y-10637349D02*
X73635153Y-10671021D01*
X73635153Y-10671021D02*
X73702497Y-10671021D01*
X73702497Y-10671021D02*
X73803512Y-10637349D01*
X73803512Y-10637349D02*
X73870856Y-10570006D01*
X73870856Y-10570006D02*
X73904527Y-10468991D01*
X73904527Y-10468991D02*
X73904527Y-10401647D01*
X73904527Y-10401647D02*
X73870856Y-10300632D01*
X73870856Y-10300632D02*
X73769840Y-10132273D01*
X73769840Y-10132273D02*
X73736169Y-10031258D01*
X73736169Y-10031258D02*
X73736169Y-9963914D01*
X73736169Y-9963914D02*
X73769840Y-9862899D01*
X73769840Y-9862899D02*
X73837184Y-9795556D01*
X73837184Y-9795556D02*
X73938199Y-9761884D01*
X73938199Y-9761884D02*
X74005543Y-9761884D01*
X74005543Y-9761884D02*
X74106558Y-9795556D01*
X74106558Y-9795556D02*
X74274917Y-9963914D01*
X74274917Y-9963914D02*
X74342260Y-10098601D01*
X73971871Y-11075082D02*
X74678978Y-10367975D01*
X74678978Y-10367975D02*
X74847336Y-10536334D01*
X74847336Y-10536334D02*
X74914680Y-10671021D01*
X74914680Y-10671021D02*
X74914680Y-10805708D01*
X74914680Y-10805708D02*
X74881008Y-10906723D01*
X74881008Y-10906723D02*
X74779993Y-11075082D01*
X74779993Y-11075082D02*
X74678978Y-11176097D01*
X74678978Y-11176097D02*
X74510619Y-11277113D01*
X74510619Y-11277113D02*
X74409604Y-11310784D01*
X74409604Y-11310784D02*
X74274917Y-11310784D01*
X74274917Y-11310784D02*
X74140230Y-11243441D01*
X74140230Y-11243441D02*
X73971871Y-11075082D01*
X74847336Y-11546487D02*
X75184054Y-11883204D01*
X74577962Y-11681174D02*
X75520772Y-11209769D01*
X75520772Y-11209769D02*
X75049367Y-12152578D01*
D12*
%TO.C,SW10*%
X83390000Y-19165000D02*
X85240000Y-19165000D01*
X85240000Y-18515000D02*
X85240000Y-19165000D01*
X85240000Y-18515000D02*
X90760000Y-18515000D01*
X85240000Y-23715000D02*
X85240000Y-24985000D01*
X85240000Y-24985000D02*
X90760000Y-24985000D01*
X90760000Y-18515000D02*
X90760000Y-19784000D01*
X90760000Y-23715000D02*
X90760000Y-24985000D01*
%TO.C,SW5*%
X31990000Y-13815000D02*
X33840000Y-13815000D01*
X33840000Y-13165000D02*
X33840000Y-13815000D01*
X33840000Y-13165000D02*
X39360000Y-13165000D01*
X33840000Y-18365000D02*
X33840000Y-19635000D01*
X33840000Y-19635000D02*
X39360000Y-19635000D01*
X39360000Y-13165000D02*
X39360000Y-14434000D01*
X39360000Y-18365000D02*
X39360000Y-19635000D01*
%TO.C,D16*%
X36560000Y-11335000D02*
X36560000Y-9865000D01*
X36560000Y-9865000D02*
X34100000Y-9865000D01*
X34100000Y-11335000D02*
X36560000Y-11335000D01*
%TO.C,SW3*%
X22550000Y-38050000D02*
X22550000Y-37950000D01*
X22550000Y-39750000D02*
X26950000Y-39750000D01*
X26950000Y-36250000D02*
X22550000Y-36250000D01*
X26950000Y-38050000D02*
X26950000Y-37950000D01*
%TO.C,SW9*%
X85200000Y-6800000D02*
X84200000Y-6800000D01*
X85200000Y-5800000D02*
X85200000Y-6800000D01*
X83200000Y-4800000D02*
X83200000Y-2200000D01*
X77200000Y-6750000D02*
X83000000Y-6750000D01*
X77100000Y-250000D02*
X83100000Y-250000D01*
X77000000Y-4800000D02*
X77000000Y-2200000D01*
%TO.C,D9*%
X-19090000Y-24585000D02*
X-19090000Y-23115000D01*
X-19090000Y-23115000D02*
X-21550000Y-23115000D01*
X-21550000Y-24585000D02*
X-19090000Y-24585000D01*
%TO.C,U2*%
X-13925000Y-24850000D02*
X-12725000Y-24850000D01*
X-1625000Y-24850000D02*
X275000Y-24850000D01*
X275000Y-24850000D02*
X275000Y-22950000D01*
X-13925000Y-22950000D02*
X-13925000Y-24850000D01*
X-13925000Y-12550000D02*
X-13925000Y-10650000D01*
X275000Y-12550000D02*
X275000Y-10650000D01*
X-13925000Y-10650000D02*
X-12025000Y-10650000D01*
X275000Y-10650000D02*
X-1625000Y-10650000D01*
X-12025000Y-25350000D02*
X-12525000Y-24850000D01*
X-12025000Y-24850000D01*
X-12025000Y-25350000D01*
G36*
X-12025000Y-25350000D02*
G01*
X-12525000Y-24850000D01*
X-12025000Y-24850000D01*
X-12025000Y-25350000D01*
G37*
%TO.C,D10*%
X26410000Y-34235000D02*
X26410000Y-32765000D01*
X26410000Y-32765000D02*
X23950000Y-32765000D01*
X23950000Y-34235000D02*
X26410000Y-34235000D01*
%TO.C,SW8*%
X75100000Y-6800000D02*
X74100000Y-6800000D01*
X75100000Y-5800000D02*
X75100000Y-6800000D01*
X73100000Y-4800000D02*
X73100000Y-2200000D01*
X67100000Y-6750000D02*
X72900000Y-6750000D01*
X67000000Y-250000D02*
X73000000Y-250000D01*
X66900000Y-4800000D02*
X66900000Y-2200000D01*
%TO.C,D8*%
X-19090000Y-23085000D02*
X-19090000Y-21615000D01*
X-19090000Y-21615000D02*
X-21550000Y-21615000D01*
X-21550000Y-23085000D02*
X-19090000Y-23085000D01*
%TO.C,J10*%
X12735000Y-4410000D02*
X11785000Y-4410000D01*
X12735000Y-3960000D02*
X12735000Y-4410000D01*
X12735000Y-440000D02*
X12735000Y10000D01*
X12735000Y10000D02*
X3265000Y10000D01*
X11785000Y-4410000D02*
X11785000Y-5900000D01*
X3265000Y-4410000D02*
X4215000Y-4410000D01*
X3265000Y-3960000D02*
X3265000Y-4410000D01*
X3265000Y10000D02*
X3265000Y-440000D01*
%TO.C,SW2*%
X-5708481Y-28372241D02*
X-6111032Y-31905382D01*
X-14288968Y-27394618D02*
X-11008194Y-27768415D01*
X-9644174Y-31502832D02*
X-11865005Y-31249800D01*
X-14691519Y-30927759D02*
X-14288968Y-27394618D01*
X-14691519Y-30927759D02*
X-13883943Y-31019771D01*
X-3740635Y-26806945D02*
X-4545737Y-33873228D01*
X-10602551Y-33183142D01*
X-10343768Y-30911836D01*
X-8880038Y-31078607D01*
X-9000803Y-32138550D01*
X-8777190Y-32419671D01*
X-7262986Y-32592192D01*
X-6981865Y-32368579D01*
X-6861100Y-31308636D01*
X-6558259Y-31343141D01*
X-6270723Y-28819468D01*
X-9046763Y-28503178D01*
X-8972004Y-27847023D01*
X-9363007Y-27240059D01*
X-9900962Y-27025381D01*
X-9797449Y-26116858D01*
X-3740635Y-26806945D01*
G36*
X-3740635Y-26806945D02*
G01*
X-4545737Y-33873228D01*
X-10602551Y-33183142D01*
X-10343768Y-30911836D01*
X-8880038Y-31078607D01*
X-9000803Y-32138550D01*
X-8777190Y-32419671D01*
X-7262986Y-32592192D01*
X-6981865Y-32368579D01*
X-6861100Y-31308636D01*
X-6558259Y-31343141D01*
X-6270723Y-28819468D01*
X-9046763Y-28503178D01*
X-8972004Y-27847023D01*
X-9363007Y-27240059D01*
X-9900962Y-27025381D01*
X-9797449Y-26116858D01*
X-3740635Y-26806945D01*
G37*
%TO.C,D12*%
X36640000Y-9865000D02*
X36640000Y-11335000D01*
X36640000Y-11335000D02*
X39100000Y-11335000D01*
X39100000Y-9865000D02*
X36640000Y-9865000D01*
%TO.C,SW4*%
X22550000Y-41750000D02*
X22550000Y-41650000D01*
X22550000Y-43450000D02*
X26950000Y-43450000D01*
X26950000Y-39950000D02*
X22550000Y-39950000D01*
X26950000Y-41750000D02*
X26950000Y-41650000D01*
%TO.C,SW7*%
X65000000Y-6800000D02*
X64000000Y-6800000D01*
X65000000Y-5800000D02*
X65000000Y-6800000D01*
X63000000Y-4800000D02*
X63000000Y-2200000D01*
X57000000Y-6750000D02*
X62800000Y-6750000D01*
X56900000Y-250000D02*
X62900000Y-250000D01*
X56800000Y-4800000D02*
X56800000Y-2200000D01*
%TO.C,H3*%
X21350000Y-32600000D02*
X22750000Y-32600000D01*
X21350000Y-34000000D02*
X21350000Y-32600000D01*
X22750000Y-32600000D02*
X22750000Y-34000000D01*
X22750000Y-34000000D02*
X21350000Y-34000000D01*
D13*
%TO.C,SW6*%
X11373476Y-30851320D02*
X11428317Y-31297965D01*
X11428317Y-31297965D02*
X16887321Y-30627684D01*
X16582647Y-28146319D02*
X15441219Y-28286468D01*
X16661862Y-28791474D02*
X16582647Y-28146319D01*
X16887321Y-30627684D02*
X16832479Y-30181038D01*
D11*
X9704491Y-28335969D02*
X12235484Y-28025202D01*
X12235484Y-28025202D02*
X12406101Y-29414766D01*
X12406101Y-29414766D02*
X9875108Y-29725533D01*
X9875108Y-29725533D02*
X9704491Y-28335969D01*
G36*
X9704491Y-28335969D02*
G01*
X12235484Y-28025202D01*
X12406101Y-29414766D01*
X9875108Y-29725533D01*
X9704491Y-28335969D01*
G37*
X14322342Y-32302762D02*
X10252903Y-32802426D01*
X10252903Y-32802426D02*
X10012211Y-30842148D01*
X10012211Y-30842148D02*
X14081650Y-30342483D01*
X14081650Y-30342483D02*
X14322342Y-32302762D01*
G36*
X14322342Y-32302762D02*
G01*
X10252903Y-32802426D01*
X10012211Y-30842148D01*
X14081650Y-30342483D01*
X14322342Y-32302762D01*
G37*
X10266033Y-29627158D02*
X10091898Y-29850041D01*
X10195487Y-30693706D01*
X10362649Y-30824307D01*
X10649922Y-32753679D01*
X10252903Y-32802426D01*
X9704491Y-28335969D01*
X10101509Y-28287221D01*
X10266033Y-29627158D01*
G36*
X10266033Y-29627158D02*
G01*
X10091898Y-29850041D01*
X10195487Y-30693706D01*
X10362649Y-30824307D01*
X10649922Y-32753679D01*
X10252903Y-32802426D01*
X9704491Y-28335969D01*
X10101509Y-28287221D01*
X10266033Y-29627158D01*
G37*
X12518422Y-29098722D02*
X13907987Y-28928105D01*
X14090791Y-30416924D01*
X11559798Y-30727691D01*
X11727840Y-30455181D01*
X11630344Y-29661144D01*
X11463182Y-29530542D01*
X11427061Y-29031222D01*
X12295539Y-28924587D01*
X12518422Y-29098722D01*
G36*
X12518422Y-29098722D02*
G01*
X13907987Y-28928105D01*
X14090791Y-30416924D01*
X11559798Y-30727691D01*
X11727840Y-30455181D01*
X11630344Y-29661144D01*
X11463182Y-29530542D01*
X11427061Y-29031222D01*
X12295539Y-28924587D01*
X12518422Y-29098722D01*
G37*
D12*
%TO.C,H2*%
X41050000Y-11000000D02*
X42450000Y-11000000D01*
X41050000Y-12400000D02*
X41050000Y-11000000D01*
X42450000Y-11000000D02*
X42450000Y-12400000D01*
X42450000Y-12400000D02*
X41050000Y-12400000D01*
%TO.C,J11*%
X-3265000Y-4410000D02*
X-4215000Y-4410000D01*
X-3265000Y-3960000D02*
X-3265000Y-4410000D01*
X-3265000Y-440000D02*
X-3265000Y10000D01*
X-3265000Y10000D02*
X-12735000Y10000D01*
X-4215000Y-4410000D02*
X-4215000Y-5900000D01*
X-12735000Y-4410000D02*
X-11785000Y-4410000D01*
X-12735000Y-3960000D02*
X-12735000Y-4410000D01*
X-12735000Y10000D02*
X-12735000Y-440000D01*
%TO.C,D14*%
X36560000Y-9835000D02*
X36560000Y-8365000D01*
X36560000Y-8365000D02*
X34100000Y-8365000D01*
X34100000Y-9835000D02*
X36560000Y-9835000D01*
%TO.C,D11*%
X26410000Y-35735000D02*
X26410000Y-34265000D01*
X26410000Y-34265000D02*
X23950000Y-34265000D01*
X23950000Y-35735000D02*
X26410000Y-35735000D01*
%TO.C,U9*%
X57300000Y-7095000D02*
X82700000Y-7095000D01*
X82700000Y-7095000D02*
X82700000Y-33095000D01*
X82700000Y-33095000D02*
X57300000Y-33095000D01*
X57300000Y-33095000D02*
X57300000Y-7095000D01*
%TO.C,SW1*%
X28100000Y-19200000D02*
X28200000Y-19200000D01*
X26400000Y-19200000D02*
X26400000Y-23600000D01*
X29900000Y-23600000D02*
X29900000Y-19200000D01*
X28100000Y-23600000D02*
X28200000Y-23600000D01*
%TO.C,H4*%
X21350000Y-34500000D02*
X22750000Y-34500000D01*
X21350000Y-35900000D02*
X21350000Y-34500000D01*
X22750000Y-34500000D02*
X22750000Y-35900000D01*
X22750000Y-35900000D02*
X21350000Y-35900000D01*
%TO.C,D15*%
X36560000Y-12835000D02*
X36560000Y-11365000D01*
X36560000Y-11365000D02*
X34100000Y-11365000D01*
X34100000Y-12835000D02*
X36560000Y-12835000D01*
D13*
%TO.C,Q9*%
X-12175000Y-6740000D02*
X-11600000Y-6740000D01*
X-11250000Y-6800000D02*
X-9750000Y-6800000D01*
X-11250000Y-9700000D02*
X-11250000Y-6800000D01*
X-9750000Y-6800000D02*
X-9750000Y-9700000D01*
X-9750000Y-9700000D02*
X-11250000Y-9700000D01*
D12*
%TO.C,D13*%
X36640000Y-11365000D02*
X36640000Y-12835000D01*
X36640000Y-12835000D02*
X39100000Y-12835000D01*
X39100000Y-11365000D02*
X36640000Y-11365000D01*
%TO.C,H1*%
X41050000Y-9080000D02*
X42450000Y-9080000D01*
X41050000Y-10480000D02*
X41050000Y-9080000D01*
X42450000Y-9080000D02*
X42450000Y-10480000D01*
X42450000Y-10480000D02*
X41050000Y-10480000D01*
%TO.C,TP3*%
X-8400000Y-74900000D02*
G75*
G03*
X-10800000Y-74900000I-1200000J0D01*
G01*
X-10800000Y-74900000D02*
G75*
G03*
X-8400000Y-74900000I1200000J0D01*
G01*
%TO.C,J2*%
X-18120000Y-17575000D02*
X-18120000Y-30395000D01*
X-18120000Y-17575000D02*
X-17477530Y-17575000D01*
X-18120000Y-30395000D02*
X-17477530Y-30395000D01*
X-16862470Y-17575000D02*
X-16660000Y-17575000D01*
X-16862470Y-30395000D02*
X-16207530Y-30395000D01*
X-15900000Y-17510000D02*
X-14950000Y-17510000D01*
X-15592470Y-30395000D02*
X-14950000Y-30395000D01*
X-15140000Y-18905000D02*
X-14950000Y-18905000D01*
X-14950000Y-17510000D02*
X-14950000Y-18270000D01*
X-14950000Y-18905000D02*
X-14950000Y-30395000D01*
%TO.C,D7*%
X-19090000Y-21585000D02*
X-19090000Y-20115000D01*
X-19090000Y-20115000D02*
X-21550000Y-20115000D01*
X-21550000Y-21585000D02*
X-19090000Y-21585000D01*
D13*
%TO.C,Q7*%
X-5390000Y-6550000D02*
X-5390000Y-7125000D01*
X-5450000Y-7475000D02*
X-5450000Y-8975000D01*
X-8350000Y-7475000D02*
X-5450000Y-7475000D01*
X-5450000Y-8975000D02*
X-8350000Y-8975000D01*
X-8350000Y-8975000D02*
X-8350000Y-7475000D01*
D12*
%TO.C,TP2*%
X-8400000Y-70850000D02*
G75*
G03*
X-10800000Y-70850000I-1200000J0D01*
G01*
X-10800000Y-70850000D02*
G75*
G03*
X-8400000Y-70850000I1200000J0D01*
G01*
%TO.C,TP1*%
X-8400000Y-66800000D02*
G75*
G03*
X-10800000Y-66800000I-1200000J0D01*
G01*
X-10800000Y-66800000D02*
G75*
G03*
X-8400000Y-66800000I1200000J0D01*
G01*
%TD*%
%LPC*%
D14*
%TO.C,SW10*%
X84190000Y-19845000D03*
X84190000Y-21115000D03*
X84190000Y-22385000D03*
X84190000Y-23655000D03*
X91810000Y-23655000D03*
X91810000Y-22385000D03*
X91810000Y-21115000D03*
X91810000Y-19845000D03*
%TD*%
%TO.C,SW5*%
X32790000Y-14495000D03*
X32790000Y-15765000D03*
X32790000Y-17035000D03*
X32790000Y-18305000D03*
X40410000Y-18305000D03*
X40410000Y-17035000D03*
X40410000Y-15765000D03*
X40410000Y-14495000D03*
%TD*%
D15*
%TO.C,D16*%
X35775000Y-10600000D03*
X34025000Y-10600000D03*
%TD*%
D16*
%TO.C,SW3*%
X22675000Y-36925000D03*
X26825000Y-36925000D03*
X22675000Y-39075000D03*
X26800000Y-39075000D03*
%TD*%
D17*
%TO.C,SW9*%
X84100000Y-5750000D03*
X76100000Y-5750000D03*
X84100000Y-1250000D03*
X76100000Y-1250000D03*
%TD*%
D15*
%TO.C,D9*%
X-19875000Y-23850000D03*
X-21625000Y-23850000D03*
%TD*%
D18*
%TO.C,U2*%
X-10725000Y-21450000D03*
D19*
X-11270000Y-24485000D03*
X-10000000Y-24485000D03*
X-8730000Y-24485000D03*
X-7460000Y-24485000D03*
X-6190000Y-24485000D03*
X-4920000Y-24485000D03*
X-3650000Y-24485000D03*
X-2380000Y-24485000D03*
D20*
X-90000Y-22195000D03*
X-90000Y-20925000D03*
X-90000Y-19655000D03*
X-90000Y-18385000D03*
X-90000Y-17115000D03*
X-90000Y-15845000D03*
X-90000Y-14575000D03*
X-90000Y-13305000D03*
D19*
X-2380000Y-11015000D03*
X-3650000Y-11015000D03*
X-4920000Y-11015000D03*
X-6190000Y-11015000D03*
X-7460000Y-11015000D03*
X-8730000Y-11015000D03*
X-10000000Y-11015000D03*
X-11270000Y-11015000D03*
D20*
X-13560000Y-13305000D03*
X-13560000Y-14575000D03*
X-13560000Y-15845000D03*
X-13560000Y-17115000D03*
X-13560000Y-18385000D03*
X-13560000Y-19655000D03*
D21*
X-13660000Y-20925000D03*
X-13660000Y-22195000D03*
%TD*%
D15*
%TO.C,D10*%
X25625000Y-33500000D03*
X23875000Y-33500000D03*
%TD*%
D17*
%TO.C,SW8*%
X74000000Y-5750000D03*
X66000000Y-5750000D03*
X74000000Y-1250000D03*
X66000000Y-1250000D03*
%TD*%
D15*
%TO.C,D8*%
X-19875000Y-22350000D03*
X-21625000Y-22350000D03*
%TD*%
D22*
%TO.C,J10*%
X11125000Y-5100000D03*
X9875000Y-5100000D03*
X8625000Y-5100000D03*
X7375000Y-5100000D03*
X6125000Y-5100000D03*
X4875000Y-5100000D03*
D23*
X13675000Y-2200000D03*
X2325000Y-2200000D03*
%TD*%
D24*
%TO.C,SW2*%
X-7897196Y-31522723D03*
D25*
X-10018875Y-28060285D03*
X-12865055Y-30956707D03*
%TD*%
D26*
%TO.C,D12*%
X37425000Y-10600000D03*
X39175000Y-10600000D03*
%TD*%
D16*
%TO.C,SW4*%
X22675000Y-40625000D03*
X26825000Y-40625000D03*
X22675000Y-42775000D03*
X26800000Y-42775000D03*
%TD*%
D17*
%TO.C,SW7*%
X63900000Y-5750000D03*
X55900000Y-5750000D03*
X63900000Y-1250000D03*
X55900000Y-1250000D03*
%TD*%
D27*
%TO.C,H3*%
X22050000Y-33300000D03*
%TD*%
D28*
%TO.C,SW6*%
X12828304Y-28340304D03*
X13820850Y-28218435D03*
X14813396Y-28096565D03*
D29*
X10912306Y-30172462D03*
X17115720Y-29410779D03*
%TD*%
D27*
%TO.C,H2*%
X41750000Y-11700000D03*
%TD*%
D22*
%TO.C,J11*%
X-4875000Y-5100000D03*
X-6125000Y-5100000D03*
X-7375000Y-5100000D03*
X-8625000Y-5100000D03*
X-9875000Y-5100000D03*
X-11125000Y-5100000D03*
D23*
X-2325000Y-2200000D03*
X-13675000Y-2200000D03*
%TD*%
D15*
%TO.C,D14*%
X35775000Y-9100000D03*
X34025000Y-9100000D03*
%TD*%
%TO.C,D11*%
X25625000Y-35000000D03*
X23875000Y-35000000D03*
%TD*%
D30*
%TO.C,U9*%
X66190000Y-8365000D03*
D31*
X68730000Y-8365000D03*
X71270000Y-8365000D03*
X73810000Y-8365000D03*
%TD*%
D32*
%TO.C,SW1*%
X29225000Y-19325000D03*
X29225000Y-23475000D03*
X27075000Y-19325000D03*
X27075000Y-23450000D03*
%TD*%
D27*
%TO.C,H4*%
X22050000Y-35200000D03*
%TD*%
D15*
%TO.C,D15*%
X35775000Y-12100000D03*
X34025000Y-12100000D03*
%TD*%
D33*
%TO.C,Q9*%
X-11888000Y-7300000D03*
X-11888000Y-8250000D03*
X-11888000Y-9200000D03*
X-9112000Y-9200000D03*
X-9112000Y-8250000D03*
X-9112000Y-7300000D03*
%TD*%
D26*
%TO.C,D13*%
X37425000Y-12100000D03*
X39175000Y-12100000D03*
%TD*%
D27*
%TO.C,H1*%
X41750000Y-9780000D03*
%TD*%
D34*
%TO.C,TP3*%
X-9600000Y-74900000D03*
%TD*%
D27*
%TO.C,J2*%
X-15900000Y-18270000D03*
D35*
X-17170000Y-18270000D03*
X-15900000Y-19540000D03*
X-17170000Y-19540000D03*
X-15900000Y-20810000D03*
X-17170000Y-20810000D03*
X-15900000Y-22080000D03*
X-17170000Y-22080000D03*
X-15900000Y-23350000D03*
X-17170000Y-23350000D03*
X-15900000Y-24620000D03*
X-17170000Y-24620000D03*
X-15900000Y-25890000D03*
X-17170000Y-25890000D03*
X-15900000Y-27160000D03*
X-17170000Y-27160000D03*
X-15900000Y-28430000D03*
X-17170000Y-28430000D03*
X-15900000Y-29700000D03*
X-17170000Y-29700000D03*
%TD*%
D15*
%TO.C,D7*%
X-19875000Y-20850000D03*
X-21625000Y-20850000D03*
%TD*%
D36*
%TO.C,Q7*%
X-5950000Y-6837000D03*
X-6900000Y-6837000D03*
X-7850000Y-6837000D03*
X-7850000Y-9613000D03*
X-6900000Y-9613000D03*
X-5950000Y-9613000D03*
%TD*%
D34*
%TO.C,TP2*%
X-9600000Y-70850000D03*
%TD*%
%TO.C,TP1*%
X-9600000Y-66800000D03*
%TD*%
D37*
%TO.C,J4*%
X72890000Y-27645000D03*
X67110000Y-27645000D03*
D38*
X74320000Y-31325000D03*
D39*
X74320000Y-27125000D03*
D38*
X65680000Y-31325000D03*
D39*
X65680000Y-27125000D03*
%TD*%
D27*
%TO.C,J3*%
X55300000Y-17980000D03*
D35*
X54030000Y-17980000D03*
X55300000Y-19250000D03*
X54030000Y-19250000D03*
X55300000Y-20520000D03*
X54030000Y-20520000D03*
X55300000Y-21790000D03*
X54030000Y-21790000D03*
X55300000Y-23060000D03*
X54030000Y-23060000D03*
X55300000Y-24330000D03*
X54030000Y-24330000D03*
X55300000Y-25600000D03*
X54030000Y-25600000D03*
X55300000Y-26870000D03*
X54030000Y-26870000D03*
X55300000Y-28140000D03*
X54030000Y-28140000D03*
X55300000Y-29410000D03*
X54030000Y-29410000D03*
%TD*%
D27*
%TO.C,J1*%
X19325000Y-3485000D03*
D35*
X19325000Y-4755000D03*
X19325000Y-6025000D03*
X19325000Y-7295000D03*
X19325000Y-8565000D03*
X19325000Y-9835000D03*
X19325000Y-11105000D03*
X19325000Y-12375000D03*
X19325000Y-13645000D03*
X19325000Y-14915000D03*
%TD*%
%LPD*%
M02*
