%TF.GenerationSoftware,KiCad,Pcbnew,7.0.11*%
%TF.CreationDate,2025-06-24T23:57:38+09:00*%
%TF.ProjectId,2ndLayer_3rdLayer,326e644c-6179-4657-925f-3372644c6179,rev?*%
%TF.SameCoordinates,Original*%
%TF.FileFunction,Profile,NP*%
%FSLAX46Y46*%
G04 Gerber Fmt 4.6, Leading zero omitted, Abs format (unit mm)*
G04 Created by KiCad (PCBNEW 7.0.11) date 2025-06-24 23:57:38*
%MOMM*%
%LPD*%
G01*
G04 APERTURE LIST*
%TA.AperFunction,Profile*%
%ADD10C,0.200000*%
%TD*%
G04 APERTURE END LIST*
D10*
X115280720Y-80329605D02*
X116715476Y-81764361D01*
X116715476Y-121735639D02*
X115280720Y-123170395D01*
X166142240Y-95128679D02*
X163384524Y-92370963D01*
X139050000Y-102250000D02*
X139050000Y-101250000D01*
X119050000Y-103250000D02*
X116079080Y-103250000D01*
X119050000Y-103250000D02*
G75*
G03*
X120050000Y-102250000I1J999999D01*
G01*
X164020920Y-103250000D02*
X161050000Y-103250000D01*
X115941964Y-132578186D02*
G75*
G03*
X118123604Y-134835350I2929116J648205D01*
G01*
X142050000Y-100250000D02*
G75*
G03*
X141050000Y-101250000I0J-1000000D01*
G01*
X138050000Y-103250000D02*
X123050000Y-103250000D01*
X138050000Y-103250000D02*
G75*
G03*
X139050000Y-102250000I1J999999D01*
G01*
X116715476Y-92370963D02*
X113957760Y-95128679D01*
X141050000Y-101250000D02*
X141050000Y-102250000D01*
X163384526Y-111129039D02*
G75*
G03*
X163384524Y-121735639I5303304J-5303301D01*
G01*
X123050000Y-100250000D02*
G75*
G03*
X122050000Y-101250000I-1J-999999D01*
G01*
X164020920Y-100250014D02*
G75*
G03*
X166142240Y-95128679I-20J3000014D01*
G01*
X115280720Y-123170395D02*
G75*
G03*
X114472909Y-125939934I2121449J-2121357D01*
G01*
X138050000Y-100250000D02*
X123050000Y-100250000D01*
X157050000Y-103250000D02*
X142050000Y-103250000D01*
X165120920Y-97250000D02*
G75*
G03*
X162920920Y-97250000I-1100000J0D01*
G01*
X162920920Y-97250000D02*
G75*
G03*
X165120920Y-97250000I1100000J0D01*
G01*
X163384524Y-111129037D02*
X166142240Y-108371321D01*
X160050000Y-102250000D02*
G75*
G03*
X161050000Y-103250000I1000000J0D01*
G01*
X116715476Y-92370963D02*
G75*
G03*
X116715476Y-81764361I-5303322J5303301D01*
G01*
X122050000Y-102250000D02*
G75*
G03*
X123050000Y-103250000I999999J-1D01*
G01*
X158050000Y-102250000D02*
X158050000Y-101250000D01*
X161050000Y-100250000D02*
X164020920Y-100250000D01*
X120050000Y-101250000D02*
G75*
G03*
X119050000Y-100250000I-999999J1D01*
G01*
X157050000Y-103250000D02*
G75*
G03*
X158050000Y-102250000I0J1000000D01*
G01*
X166142230Y-108371311D02*
G75*
G03*
X164020920Y-103250000I-2121330J2121311D01*
G01*
X141050000Y-102250000D02*
G75*
G03*
X142050000Y-103250000I1000000J0D01*
G01*
X116715476Y-121735639D02*
G75*
G03*
X116715476Y-111129037I-5303298J5303301D01*
G01*
X118123604Y-68664650D02*
G75*
G03*
X115941963Y-70921814I747641J-2905529D01*
G01*
X117179080Y-97250000D02*
G75*
G03*
X114979080Y-97250000I-1100000J0D01*
G01*
X114979080Y-97250000D02*
G75*
G03*
X117179080Y-97250000I1100000J0D01*
G01*
X164819280Y-123170395D02*
X163384524Y-121735639D01*
X160050000Y-101250000D02*
X160050000Y-102250000D01*
X119971095Y-131929967D02*
G75*
G03*
X117771095Y-131929967I-1100000J0D01*
G01*
X117771095Y-131929967D02*
G75*
G03*
X119971095Y-131929967I1100000J0D01*
G01*
X139050000Y-101250000D02*
G75*
G03*
X138050000Y-100250000I-999999J1D01*
G01*
X115941963Y-70921814D02*
X114472909Y-77560066D01*
X161050000Y-100250000D02*
G75*
G03*
X160050000Y-101250000I0J-1000000D01*
G01*
X114472909Y-77560066D02*
G75*
G03*
X115280720Y-80329605I2929041J-648245D01*
G01*
X117179080Y-106250000D02*
G75*
G03*
X114979080Y-106250000I-1100000J0D01*
G01*
X114979080Y-106250000D02*
G75*
G03*
X117179080Y-106250000I1100000J0D01*
G01*
X163384522Y-81764359D02*
G75*
G03*
X163384524Y-92370963I5303298J-5303301D01*
G01*
X163384524Y-81764361D02*
X164819280Y-80329605D01*
X119050000Y-100250000D02*
X116079080Y-100250000D01*
X120050000Y-102250000D02*
X120050000Y-101250000D01*
X161976397Y-134835356D02*
G75*
G03*
X164158037Y-132578186I-747537J2905426D01*
G01*
X165120920Y-106250000D02*
G75*
G03*
X162920920Y-106250000I-1100000J0D01*
G01*
X162920920Y-106250000D02*
G75*
G03*
X165120920Y-106250000I1100000J0D01*
G01*
X113957760Y-108371321D02*
X116715476Y-111129037D01*
X118123604Y-134835351D02*
G75*
G03*
X161976396Y-134835351I21926396J85224598D01*
G01*
X165627114Y-125939939D02*
G75*
G03*
X164819279Y-123170396I-2929014J648239D01*
G01*
X164819279Y-80329604D02*
G75*
G03*
X165627090Y-77560066I-2121439J2121354D01*
G01*
X161976396Y-68664649D02*
G75*
G03*
X118123604Y-68664649I-21926396J-85224598D01*
G01*
X165627091Y-77560066D02*
X164158037Y-70921814D01*
X116079080Y-103250000D02*
G75*
G03*
X113957760Y-108371321I-5J-2999998D01*
G01*
X162328905Y-71570033D02*
G75*
G03*
X160128905Y-71570033I-1100000J0D01*
G01*
X160128905Y-71570033D02*
G75*
G03*
X162328905Y-71570033I1100000J0D01*
G01*
X114472909Y-125939934D02*
X115941963Y-132578186D01*
X164158037Y-132578186D02*
X165627091Y-125939934D01*
X113957760Y-95128679D02*
G75*
G03*
X116079080Y-100250000I2121348J-2121309D01*
G01*
X122050000Y-101250000D02*
X122050000Y-102250000D01*
X158050000Y-101250000D02*
G75*
G03*
X157050000Y-100250000I-1000000J0D01*
G01*
X164158039Y-70921814D02*
G75*
G03*
X161976396Y-68664650I-2929189J-648276D01*
G01*
X162328905Y-131929967D02*
G75*
G03*
X160128905Y-131929967I-1100000J0D01*
G01*
X160128905Y-131929967D02*
G75*
G03*
X162328905Y-131929967I1100000J0D01*
G01*
X157050000Y-100250000D02*
X142050000Y-100250000D01*
X119971095Y-71570033D02*
G75*
G03*
X117771095Y-71570033I-1100000J0D01*
G01*
X117771095Y-71570033D02*
G75*
G03*
X119971095Y-71570033I1100000J0D01*
G01*
M02*
