%TF.GenerationSoftware,KiCad,Pcbnew,7.0.11*%
%TF.CreationDate,2025-06-24T23:57:38+09:00*%
%TF.ProjectId,2ndLayer_3rdLayer,326e644c-6179-4657-925f-3372644c6179,rev?*%
%TF.SameCoordinates,Original*%
%TF.FileFunction,Soldermask,Bot*%
%TF.FilePolarity,Negative*%
%FSLAX46Y46*%
G04 Gerber Fmt 4.6, Leading zero omitted, Abs format (unit mm)*
G04 Created by KiCad (PCBNEW 7.0.11) date 2025-06-24 23:57:38*
%MOMM*%
%LPD*%
G01*
G04 APERTURE LIST*
G04 Aperture macros list*
%AMRoundRect*
0 Rectangle with rounded corners*
0 $1 Rounding radius*
0 $2 $3 $4 $5 $6 $7 $8 $9 X,Y pos of 4 corners*
0 Add a 4 corners polygon primitive as box body*
4,1,4,$2,$3,$4,$5,$6,$7,$8,$9,$2,$3,0*
0 Add four circle primitives for the rounded corners*
1,1,$1+$1,$2,$3*
1,1,$1+$1,$4,$5*
1,1,$1+$1,$6,$7*
1,1,$1+$1,$8,$9*
0 Add four rect primitives between the rounded corners*
20,1,$1+$1,$2,$3,$4,$5,0*
20,1,$1+$1,$4,$5,$6,$7,0*
20,1,$1+$1,$6,$7,$8,$9,0*
20,1,$1+$1,$8,$9,$2,$3,0*%
%AMHorizOval*
0 Thick line with rounded ends*
0 $1 width*
0 $2 $3 position (X,Y) of the first rounded end (center of the circle)*
0 $4 $5 position (X,Y) of the second rounded end (center of the circle)*
0 Add line between two ends*
20,1,$1,$2,$3,$4,$5,0*
0 Add two circle primitives to create the rounded ends*
1,1,$1,$2,$3*
1,1,$1,$4,$5*%
G04 Aperture macros list end*
%ADD10C,0.900000*%
%ADD11HorizOval,3.100000X0.424264X0.424264X-0.424264X-0.424264X0*%
%ADD12RoundRect,0.350000X-0.308129X0.387371X-0.387371X-0.308129X0.308129X-0.387371X0.387371X0.308129X0*%
%ADD13C,1.400000*%
%ADD14C,2.000000*%
%ADD15RoundRect,0.425000X0.425000X0.425000X-0.425000X0.425000X-0.425000X-0.425000X0.425000X-0.425000X0*%
%ADD16C,1.700000*%
%ADD17R,1.000000X1.000000*%
%ADD18O,1.000000X1.000000*%
%ADD19RoundRect,0.135000X-0.135000X-0.185000X0.135000X-0.185000X0.135000X0.185000X-0.135000X0.185000X0*%
%ADD20RoundRect,0.375000X-0.625000X-0.375000X0.625000X-0.375000X0.625000X0.375000X-0.625000X0.375000X0*%
%ADD21RoundRect,0.500000X-0.500000X-1.400000X0.500000X-1.400000X0.500000X1.400000X-0.500000X1.400000X0*%
%ADD22RoundRect,0.140000X-0.140000X-0.170000X0.140000X-0.170000X0.140000X0.170000X-0.140000X0.170000X0*%
%ADD23RoundRect,0.135000X-0.185000X0.135000X-0.185000X-0.135000X0.185000X-0.135000X0.185000X0.135000X0*%
%ADD24RoundRect,0.225000X0.250000X-0.225000X0.250000X0.225000X-0.250000X0.225000X-0.250000X-0.225000X0*%
%ADD25RoundRect,0.135000X0.185000X-0.135000X0.185000X0.135000X-0.185000X0.135000X-0.185000X-0.135000X0*%
%ADD26RoundRect,0.200000X-0.250000X-0.200000X0.250000X-0.200000X0.250000X0.200000X-0.250000X0.200000X0*%
%ADD27RoundRect,0.150000X0.150000X-0.675000X0.150000X0.675000X-0.150000X0.675000X-0.150000X-0.675000X0*%
%ADD28RoundRect,0.135000X0.135000X0.185000X-0.135000X0.185000X-0.135000X-0.185000X0.135000X-0.185000X0*%
%ADD29RoundRect,0.200000X0.275000X-0.200000X0.275000X0.200000X-0.275000X0.200000X-0.275000X-0.200000X0*%
%ADD30RoundRect,0.237500X0.250000X0.237500X-0.250000X0.237500X-0.250000X-0.237500X0.250000X-0.237500X0*%
%ADD31RoundRect,0.150000X0.587500X0.150000X-0.587500X0.150000X-0.587500X-0.150000X0.587500X-0.150000X0*%
%ADD32RoundRect,0.250000X0.250000X0.475000X-0.250000X0.475000X-0.250000X-0.475000X0.250000X-0.475000X0*%
%ADD33RoundRect,0.140000X-0.170000X0.140000X-0.170000X-0.140000X0.170000X-0.140000X0.170000X0.140000X0*%
%ADD34RoundRect,0.175000X0.175000X-0.325000X0.175000X0.325000X-0.175000X0.325000X-0.175000X-0.325000X0*%
%ADD35RoundRect,0.225000X0.225000X0.250000X-0.225000X0.250000X-0.225000X-0.250000X0.225000X-0.250000X0*%
%ADD36O,1.000000X2.100000*%
%ADD37O,1.000000X1.800000*%
%ADD38R,0.600000X1.240000*%
%ADD39R,0.300000X1.240000*%
%ADD40C,0.650000*%
%ADD41RoundRect,0.140000X0.170000X-0.140000X0.170000X0.140000X-0.170000X0.140000X-0.170000X-0.140000X0*%
%ADD42RoundRect,0.175000X0.175000X0.175000X-0.175000X0.175000X-0.175000X-0.175000X0.175000X-0.175000X0*%
%ADD43RoundRect,0.200000X0.200000X-0.250000X0.200000X0.250000X-0.200000X0.250000X-0.200000X-0.250000X0*%
%ADD44RoundRect,0.175000X0.325000X0.175000X-0.325000X0.175000X-0.325000X-0.175000X0.325000X-0.175000X0*%
%ADD45RoundRect,0.225000X-0.250000X0.225000X-0.250000X-0.225000X0.250000X-0.225000X0.250000X0.225000X0*%
%ADD46RoundRect,0.200000X-0.335876X-0.053033X-0.053033X-0.335876X0.335876X0.053033X0.053033X0.335876X0*%
%ADD47RoundRect,0.075000X0.725000X0.075000X-0.725000X0.075000X-0.725000X-0.075000X0.725000X-0.075000X0*%
%ADD48RoundRect,0.075000X0.075000X0.725000X-0.075000X0.725000X-0.075000X-0.725000X0.075000X-0.725000X0*%
%ADD49RoundRect,0.140000X0.140000X0.170000X-0.140000X0.170000X-0.140000X-0.170000X0.140000X-0.170000X0*%
%ADD50RoundRect,0.200000X-0.200000X-0.275000X0.200000X-0.275000X0.200000X0.275000X-0.200000X0.275000X0*%
%ADD51RoundRect,0.140000X0.219203X0.021213X0.021213X0.219203X-0.219203X-0.021213X-0.021213X-0.219203X0*%
%ADD52RoundRect,0.175000X-0.175000X0.175000X-0.175000X-0.175000X0.175000X-0.175000X0.175000X0.175000X0*%
%ADD53RoundRect,0.175000X-0.325000X-0.175000X0.325000X-0.175000X0.325000X0.175000X-0.325000X0.175000X0*%
%ADD54R,0.400000X1.200000*%
%ADD55RoundRect,0.225000X-0.375000X0.225000X-0.375000X-0.225000X0.375000X-0.225000X0.375000X0.225000X0*%
%ADD56RoundRect,0.200000X0.200000X0.275000X-0.200000X0.275000X-0.200000X-0.275000X0.200000X-0.275000X0*%
%ADD57RoundRect,0.150000X-0.587500X-0.150000X0.587500X-0.150000X0.587500X0.150000X-0.587500X0.150000X0*%
%ADD58RoundRect,0.150000X-0.150000X0.587500X-0.150000X-0.587500X0.150000X-0.587500X0.150000X0.587500X0*%
%ADD59RoundRect,0.225000X-0.225000X-0.250000X0.225000X-0.250000X0.225000X0.250000X-0.225000X0.250000X0*%
%ADD60RoundRect,0.175000X0.175000X-0.175000X0.175000X0.175000X-0.175000X0.175000X-0.175000X-0.175000X0*%
%ADD61R,1.400000X1.200000*%
%ADD62RoundRect,0.200000X-0.275000X0.200000X-0.275000X-0.200000X0.275000X-0.200000X0.275000X0.200000X0*%
%ADD63RoundRect,0.150000X0.150000X-0.587500X0.150000X0.587500X-0.150000X0.587500X-0.150000X-0.587500X0*%
%ADD64RoundRect,0.250000X0.650000X-0.325000X0.650000X0.325000X-0.650000X0.325000X-0.650000X-0.325000X0*%
%ADD65RoundRect,0.218750X-0.256250X0.218750X-0.256250X-0.218750X0.256250X-0.218750X0.256250X0.218750X0*%
G04 APERTURE END LIST*
%TO.C,U1*%
G36*
X123800000Y-108125000D02*
G01*
X122150000Y-108125000D01*
X122150000Y-107825000D01*
X123800000Y-107825000D01*
X123800000Y-108125000D01*
G37*
G36*
X123800000Y-107625000D02*
G01*
X122150000Y-107625000D01*
X122150000Y-107325000D01*
X123800000Y-107325000D01*
X123800000Y-107625000D01*
G37*
G36*
X123800000Y-106925000D02*
G01*
X122150000Y-106925000D01*
X122150000Y-106425000D01*
X123800000Y-106425000D01*
X123800000Y-106925000D01*
G37*
G36*
X121950000Y-107025000D02*
G01*
X121650000Y-107025000D01*
X121650000Y-105625000D01*
X121950000Y-105625000D01*
X121950000Y-107025000D01*
G37*
G36*
X120950000Y-107025000D02*
G01*
X120650000Y-107025000D01*
X120650000Y-105625000D01*
X120950000Y-105625000D01*
X120950000Y-107025000D01*
G37*
G36*
X120450000Y-108125000D02*
G01*
X118800000Y-108125000D01*
X118800000Y-107825000D01*
X120450000Y-107825000D01*
X120450000Y-108125000D01*
G37*
G36*
X120450000Y-107625000D02*
G01*
X118800000Y-107625000D01*
X118800000Y-107325000D01*
X120450000Y-107325000D01*
X120450000Y-107625000D01*
G37*
G36*
X120450000Y-106925000D02*
G01*
X118800000Y-106925000D01*
X118800000Y-106425000D01*
X120450000Y-106425000D01*
X120450000Y-106925000D01*
G37*
G36*
X121450000Y-107650501D02*
G01*
X121400000Y-107700501D01*
X121200000Y-107700501D01*
X121150000Y-107650501D01*
X121150000Y-105625000D01*
X121450000Y-105625000D01*
X121450000Y-107650501D01*
G37*
G36*
X123724996Y-108649973D02*
G01*
X123725001Y-110600000D01*
X122824998Y-110650000D01*
X121799996Y-110650000D01*
X121749997Y-110599997D01*
X121749999Y-108650001D01*
X121799999Y-108600011D01*
X122825001Y-108600001D01*
X123724996Y-108649973D01*
G37*
G36*
X120850001Y-108650001D02*
G01*
X120850006Y-110600025D01*
X120800003Y-110650028D01*
X119775001Y-110650028D01*
X118875002Y-110600025D01*
X118875004Y-108650029D01*
X119775004Y-108600039D01*
X120800006Y-108600029D01*
X120850001Y-108650001D01*
G37*
%TD*%
D10*
%TO.C,SW11*%
X123100000Y-85400001D03*
X123100000Y-88400001D03*
%TD*%
D11*
%TO.C,U2*%
X129325000Y-124700000D03*
%TD*%
D12*
%TO.C,SW1*%
X132152804Y-134772723D03*
D13*
X130031125Y-131310285D03*
X127184945Y-134206707D03*
%TD*%
D14*
%TO.C,TP1*%
X157050000Y-132350000D03*
%TD*%
D15*
%TO.C,U9*%
X143860000Y-91884999D03*
D16*
X141320000Y-91884999D03*
X138780000Y-91884999D03*
X136240000Y-91884999D03*
%TD*%
D17*
%TO.C,J2*%
X124150000Y-121520000D03*
D18*
X122880000Y-121520000D03*
X124150000Y-122790000D03*
X122880000Y-122790000D03*
X124150000Y-124060000D03*
X122880000Y-124060000D03*
X124150000Y-125330000D03*
X122880000Y-125330000D03*
X124150000Y-126600000D03*
X122880000Y-126600000D03*
X124150000Y-127870000D03*
X122880000Y-127870000D03*
X124150000Y-129140000D03*
X122880000Y-129140000D03*
X124150000Y-130410000D03*
X122880000Y-130410000D03*
X124150000Y-131680000D03*
X122880000Y-131680000D03*
X124150000Y-132950000D03*
X122880000Y-132950000D03*
%TD*%
D19*
%TO.C,R56*%
X132415000Y-103950000D03*
X133435000Y-103950000D03*
%TD*%
D20*
%TO.C,U7*%
X132800000Y-124050000D03*
X132800000Y-121750000D03*
D21*
X139100000Y-121750000D03*
D20*
X132800000Y-119450000D03*
%TD*%
D22*
%TO.C,C11*%
X154490000Y-104890000D03*
X155450000Y-104890000D03*
%TD*%
D23*
%TO.C,R16*%
X147150000Y-96240000D03*
X147150000Y-97260000D03*
%TD*%
D24*
%TO.C,C22*%
X137280000Y-114025000D03*
X137280000Y-112475000D03*
%TD*%
D25*
%TO.C,R59*%
X151590000Y-132190000D03*
X151590000Y-131170000D03*
%TD*%
D26*
%TO.C,Q2*%
X118740000Y-128371662D03*
X118740000Y-126471662D03*
X121140000Y-127421662D03*
%TD*%
D23*
%TO.C,R57*%
X156225000Y-113330000D03*
X156225000Y-114350000D03*
%TD*%
D19*
%TO.C,R45*%
X146715000Y-103950000D03*
X147735000Y-103950000D03*
%TD*%
D23*
%TO.C,R10*%
X117180000Y-125440000D03*
X117180000Y-126460000D03*
%TD*%
D27*
%TO.C,U3*%
X153255000Y-110775000D03*
X151985000Y-110775000D03*
X150715000Y-110775000D03*
X149445000Y-110775000D03*
X149445000Y-105525000D03*
X150715000Y-105525000D03*
X151985000Y-105525000D03*
X153255000Y-105525000D03*
%TD*%
D28*
%TO.C,R27*%
X133710000Y-114450000D03*
X132690000Y-114450000D03*
%TD*%
D29*
%TO.C,R77*%
X139300000Y-79150000D03*
X139300000Y-77500000D03*
%TD*%
D19*
%TO.C,R47*%
X144915000Y-103950000D03*
X145935000Y-103950000D03*
%TD*%
D30*
%TO.C,R75*%
X137562500Y-93590000D03*
X135737500Y-93590000D03*
%TD*%
D31*
%TO.C,Q15*%
X156862500Y-109325000D03*
X156862500Y-111225000D03*
X154987500Y-110275000D03*
%TD*%
D23*
%TO.C,R15*%
X118090000Y-122245000D03*
X118090000Y-123265000D03*
%TD*%
D19*
%TO.C,R44*%
X143115000Y-103950000D03*
X144135000Y-103950000D03*
%TD*%
%TO.C,R52*%
X141340000Y-103950000D03*
X142360000Y-103950000D03*
%TD*%
D32*
%TO.C,C32*%
X122515000Y-113735000D03*
X120615000Y-113735000D03*
%TD*%
D23*
%TO.C,R26*%
X130975000Y-110090000D03*
X130975000Y-111110000D03*
%TD*%
D33*
%TO.C,C1*%
X154620000Y-131200000D03*
X154620000Y-132160000D03*
%TD*%
D34*
%TO.C,Q1*%
X125350000Y-120075000D03*
X123450000Y-120075000D03*
X124400000Y-117675000D03*
%TD*%
D35*
%TO.C,C4*%
X161825000Y-121600000D03*
X160275000Y-121600000D03*
%TD*%
D19*
%TO.C,R2*%
X152100000Y-112720000D03*
X153120000Y-112720000D03*
%TD*%
D36*
%TO.C,J4*%
X144370000Y-73125000D03*
D37*
X144370000Y-68925000D03*
D36*
X135730000Y-73125000D03*
D37*
X135730000Y-68925000D03*
D38*
X136850000Y-73725000D03*
X137650000Y-73725000D03*
D39*
X138300000Y-73725000D03*
X139300000Y-73725000D03*
X140800000Y-73725000D03*
X141800000Y-73725000D03*
D38*
X142450000Y-73725000D03*
X143250000Y-73725000D03*
X143250000Y-73725000D03*
X142450000Y-73725000D03*
D39*
X141300000Y-73725000D03*
X140300000Y-73725000D03*
X139800000Y-73725000D03*
X138800000Y-73725000D03*
D38*
X137650000Y-73725000D03*
X136850000Y-73725000D03*
D40*
X142940000Y-72605000D03*
X137160000Y-72605000D03*
%TD*%
D33*
%TO.C,C6*%
X142864999Y-131120000D03*
X142864999Y-132080000D03*
%TD*%
D41*
%TO.C,C20*%
X142750000Y-105855000D03*
X142750000Y-104895000D03*
%TD*%
D42*
%TO.C,D1*%
X160475000Y-104775000D03*
X158325000Y-104775000D03*
%TD*%
D28*
%TO.C,R23*%
X125685000Y-110250000D03*
X124665000Y-110250000D03*
%TD*%
D43*
%TO.C,Q4*%
X121275000Y-124875000D03*
X119375000Y-124875000D03*
X120325000Y-122475000D03*
%TD*%
D25*
%TO.C,R78*%
X140950000Y-76335000D03*
X140950000Y-75315000D03*
%TD*%
D44*
%TO.C,Q3*%
X129120000Y-118625000D03*
X129120000Y-120525000D03*
X126720000Y-119575000D03*
%TD*%
D45*
%TO.C,C38*%
X137800000Y-77550000D03*
X137800000Y-79100000D03*
%TD*%
D28*
%TO.C,R25*%
X132960000Y-113200000D03*
X131940000Y-113200000D03*
%TD*%
%TO.C,R67*%
X140610000Y-134354882D03*
X139590000Y-134354882D03*
%TD*%
D19*
%TO.C,R79*%
X137690000Y-76274999D03*
X138710000Y-76274999D03*
%TD*%
D33*
%TO.C,C41*%
X154440000Y-111650000D03*
X154440000Y-112610000D03*
%TD*%
D23*
%TO.C,R50*%
X134800000Y-112230000D03*
X134800000Y-113250000D03*
%TD*%
D46*
%TO.C,R32*%
X138156637Y-117846637D03*
X139323363Y-119013363D03*
%TD*%
D47*
%TO.C,U8*%
X156825000Y-115950000D03*
X156825000Y-116450000D03*
X156825000Y-116950000D03*
X156825000Y-117450000D03*
X156825000Y-117950000D03*
X156825000Y-118450000D03*
X156825000Y-118950000D03*
X156825000Y-119450000D03*
X156825000Y-119950000D03*
X156825000Y-120450000D03*
X156825000Y-120950000D03*
X156825000Y-121450000D03*
X156825000Y-121950000D03*
X156825000Y-122450000D03*
X156825000Y-122950000D03*
X156825000Y-123450000D03*
X156825000Y-123950000D03*
X156825000Y-124450000D03*
X156825000Y-124950000D03*
X156825000Y-125450000D03*
X156825000Y-125950000D03*
X156825000Y-126450000D03*
X156825000Y-126950000D03*
X156825000Y-127450000D03*
X156825000Y-127950000D03*
D48*
X155150000Y-129625000D03*
X154650000Y-129625000D03*
X154150000Y-129625000D03*
X153650000Y-129625000D03*
X153150000Y-129625000D03*
X152650000Y-129625000D03*
X152150000Y-129625000D03*
X151650000Y-129625000D03*
X151150000Y-129625000D03*
X150650000Y-129625000D03*
X150150000Y-129625000D03*
X149650000Y-129625000D03*
X149150000Y-129625000D03*
X148650000Y-129625000D03*
X148150000Y-129625000D03*
X147650000Y-129625000D03*
X147150000Y-129625000D03*
X146650000Y-129625000D03*
X146150000Y-129625000D03*
X145650000Y-129625000D03*
X145150000Y-129625000D03*
X144650000Y-129625000D03*
X144150000Y-129625000D03*
X143650000Y-129625000D03*
X143150000Y-129625000D03*
D47*
X141475000Y-127950000D03*
X141475000Y-127450000D03*
X141475000Y-126950000D03*
X141475000Y-126450000D03*
X141475000Y-125950000D03*
X141475000Y-125450000D03*
X141475000Y-124950000D03*
X141475000Y-124450000D03*
X141475000Y-123950000D03*
X141475000Y-123450000D03*
X141475000Y-122950000D03*
X141475000Y-122450000D03*
X141475000Y-121950000D03*
X141475000Y-121450000D03*
X141475000Y-120950000D03*
X141475000Y-120450000D03*
X141475000Y-119950000D03*
X141475000Y-119450000D03*
X141475000Y-118950000D03*
X141475000Y-118450000D03*
X141475000Y-117950000D03*
X141475000Y-117450000D03*
X141475000Y-116950000D03*
X141475000Y-116450000D03*
X141475000Y-115950000D03*
D48*
X143150000Y-114275000D03*
X143650000Y-114275000D03*
X144150000Y-114275000D03*
X144650000Y-114275000D03*
X145150000Y-114275000D03*
X145650000Y-114275000D03*
X146150000Y-114275000D03*
X146650000Y-114275000D03*
X147150000Y-114275000D03*
X147650000Y-114275000D03*
X148150000Y-114275000D03*
X148650000Y-114275000D03*
X149150000Y-114275000D03*
X149650000Y-114275000D03*
X150150000Y-114275000D03*
X150650000Y-114275000D03*
X151150000Y-114275000D03*
X151650000Y-114275000D03*
X152150000Y-114275000D03*
X152650000Y-114275000D03*
X153150000Y-114275000D03*
X153650000Y-114275000D03*
X154150000Y-114275000D03*
X154650000Y-114275000D03*
X155150000Y-114275000D03*
%TD*%
D28*
%TO.C,R3*%
X121135000Y-117375000D03*
X120115000Y-117375000D03*
%TD*%
D19*
%TO.C,R14*%
X124440001Y-76950000D03*
X125460001Y-76950000D03*
%TD*%
D49*
%TO.C,C29*%
X134980000Y-126800000D03*
X134020000Y-126800000D03*
%TD*%
D50*
%TO.C,R41*%
X131005000Y-126640000D03*
X132655000Y-126640000D03*
%TD*%
D19*
%TO.C,R53*%
X130615000Y-103950000D03*
X131635000Y-103950000D03*
%TD*%
D25*
%TO.C,R62*%
X149720000Y-132190000D03*
X149720000Y-131170000D03*
%TD*%
D23*
%TO.C,R19*%
X137050000Y-95820000D03*
X137050000Y-96840000D03*
%TD*%
D51*
%TO.C,C31*%
X139939411Y-117664411D03*
X139260589Y-116985589D03*
%TD*%
D52*
%TO.C,D6*%
X130700000Y-119695000D03*
X130700000Y-121845000D03*
%TD*%
D23*
%TO.C,R28*%
X128525000Y-110140000D03*
X128525000Y-111160000D03*
%TD*%
D49*
%TO.C,C28*%
X141230000Y-129400000D03*
X140270000Y-129400000D03*
%TD*%
D53*
%TO.C,Q17*%
X125750000Y-117075000D03*
X125750000Y-115175000D03*
X128150000Y-116125000D03*
%TD*%
D44*
%TO.C,Q11*%
X132300000Y-115450000D03*
X132300000Y-117350000D03*
X129900000Y-116400000D03*
%TD*%
D19*
%TO.C,R46*%
X152215000Y-103950000D03*
X153235000Y-103950000D03*
%TD*%
D43*
%TO.C,Q12*%
X130710000Y-113950000D03*
X128810000Y-113950000D03*
X129760000Y-111550000D03*
%TD*%
D23*
%TO.C,R61*%
X152520000Y-131170000D03*
X152520000Y-132190000D03*
%TD*%
D49*
%TO.C,C15*%
X127505000Y-110250000D03*
X126545000Y-110250000D03*
%TD*%
D25*
%TO.C,R63*%
X148790000Y-132190000D03*
X148790000Y-131170000D03*
%TD*%
D54*
%TO.C,U10*%
X147707500Y-85879999D03*
X147072500Y-85879999D03*
X146437500Y-85879999D03*
X145802500Y-85879999D03*
X145167500Y-85879999D03*
X144532500Y-85879999D03*
X143897500Y-85879999D03*
X143262500Y-85879999D03*
X142627500Y-85879999D03*
X141992500Y-85879999D03*
X141992500Y-80679999D03*
X142627500Y-80679999D03*
X143262500Y-80679999D03*
X143897500Y-80679999D03*
X144532500Y-80679999D03*
X145167500Y-80679999D03*
X145802500Y-80679999D03*
X146437500Y-80679999D03*
X147072500Y-80679999D03*
X147707500Y-80679999D03*
%TD*%
D55*
%TO.C,D5*%
X128700000Y-105775000D03*
X128700000Y-109075000D03*
%TD*%
D19*
%TO.C,R12*%
X124440000Y-78950000D03*
X125460000Y-78950000D03*
%TD*%
D33*
%TO.C,C33*%
X118050000Y-108870000D03*
X118050000Y-109830000D03*
%TD*%
D28*
%TO.C,R72*%
X121101666Y-104325001D03*
X120081666Y-104325001D03*
%TD*%
D49*
%TO.C,C7*%
X139955000Y-116075000D03*
X138995000Y-116075000D03*
%TD*%
D56*
%TO.C,R4*%
X149225000Y-112510000D03*
X147575000Y-112510000D03*
%TD*%
D25*
%TO.C,R17*%
X116280000Y-125010000D03*
X116280000Y-123990000D03*
%TD*%
%TO.C,R29*%
X125450000Y-123910000D03*
X125450000Y-122890000D03*
%TD*%
D26*
%TO.C,Q18*%
X119200000Y-120880000D03*
X119200000Y-118980000D03*
X121600000Y-119930000D03*
%TD*%
D17*
%TO.C,J3*%
X155949905Y-81980033D03*
D18*
X157219905Y-81980033D03*
X155949905Y-80710033D03*
X157219905Y-80710033D03*
X155949905Y-79440033D03*
X157219905Y-79440033D03*
X155949905Y-78170033D03*
X157219905Y-78170033D03*
X155949905Y-76900033D03*
X157219905Y-76900033D03*
X155949905Y-75630033D03*
X157219905Y-75630033D03*
X155949905Y-74360033D03*
X157219905Y-74360033D03*
X155949905Y-73090033D03*
X157219905Y-73090033D03*
X155949905Y-71820033D03*
X157219905Y-71820033D03*
X155949905Y-70550033D03*
X157219905Y-70550033D03*
%TD*%
D22*
%TO.C,C35*%
X142170000Y-93550000D03*
X143130000Y-93550000D03*
%TD*%
D19*
%TO.C,R13*%
X124440000Y-77950000D03*
X125460000Y-77950000D03*
%TD*%
%TO.C,R55*%
X139565000Y-103950000D03*
X140585000Y-103950000D03*
%TD*%
D23*
%TO.C,R37*%
X139925000Y-126820000D03*
X139925000Y-127840000D03*
%TD*%
%TO.C,R24*%
X116520000Y-128250000D03*
X116520000Y-129270000D03*
%TD*%
D57*
%TO.C,Q13*%
X155002500Y-107925000D03*
X155002500Y-106025000D03*
X156877500Y-106975000D03*
%TD*%
D30*
%TO.C,R74*%
X140862500Y-93590000D03*
X139037500Y-93590000D03*
%TD*%
D41*
%TO.C,C34*%
X125950000Y-96350000D03*
X125950000Y-95390000D03*
%TD*%
D25*
%TO.C,R34*%
X117180000Y-124560000D03*
X117180000Y-123540000D03*
%TD*%
D58*
%TO.C,Q14*%
X140000000Y-112737500D03*
X141900000Y-112737500D03*
X140950000Y-114612500D03*
%TD*%
D22*
%TO.C,C2*%
X160245000Y-120150000D03*
X161205000Y-120150000D03*
%TD*%
D33*
%TO.C,C40*%
X143560000Y-78420000D03*
X143560000Y-79380000D03*
%TD*%
D19*
%TO.C,R42*%
X150340000Y-103950000D03*
X151360000Y-103950000D03*
%TD*%
D32*
%TO.C,C37*%
X144075000Y-75850000D03*
X142175000Y-75850000D03*
%TD*%
D23*
%TO.C,R64*%
X157325000Y-112065000D03*
X157325000Y-113085000D03*
%TD*%
D22*
%TO.C,C36*%
X144500000Y-79320001D03*
X145460000Y-79320001D03*
%TD*%
D29*
%TO.C,R48*%
X138600000Y-114075000D03*
X138600000Y-112425000D03*
%TD*%
D23*
%TO.C,R73*%
X126950000Y-95360000D03*
X126950000Y-96380000D03*
%TD*%
%TO.C,R21*%
X127575000Y-111115000D03*
X127575000Y-112135000D03*
%TD*%
D25*
%TO.C,R80*%
X121100000Y-89010000D03*
X121100000Y-87990000D03*
%TD*%
%TO.C,R5*%
X157300000Y-105870000D03*
X157300000Y-104850000D03*
%TD*%
%TO.C,R11*%
X121366000Y-129478000D03*
X121366000Y-128458000D03*
%TD*%
D28*
%TO.C,R8*%
X122985000Y-115125000D03*
X121965000Y-115125000D03*
%TD*%
D19*
%TO.C,R43*%
X154090000Y-103950000D03*
X155110000Y-103950000D03*
%TD*%
D45*
%TO.C,C39*%
X142300000Y-77550000D03*
X142300000Y-79100000D03*
%TD*%
D49*
%TO.C,C23*%
X136980000Y-103950000D03*
X136020000Y-103950000D03*
%TD*%
D23*
%TO.C,R1*%
X161175000Y-108040000D03*
X161175000Y-109060000D03*
%TD*%
D59*
%TO.C,C25*%
X158575000Y-128000000D03*
X160125000Y-128000000D03*
%TD*%
D32*
%TO.C,C10*%
X122515000Y-112035000D03*
X120615000Y-112035000D03*
%TD*%
D28*
%TO.C,R69*%
X120101667Y-105425001D03*
X119081667Y-105425001D03*
%TD*%
D19*
%TO.C,R51*%
X137765000Y-103950000D03*
X138785000Y-103950000D03*
%TD*%
D59*
%TO.C,C13*%
X120275000Y-116250000D03*
X121825000Y-116250000D03*
%TD*%
D22*
%TO.C,C16*%
X130240000Y-118640000D03*
X131200000Y-118640000D03*
%TD*%
D49*
%TO.C,C18*%
X149480000Y-103950000D03*
X148520000Y-103950000D03*
%TD*%
D19*
%TO.C,R65*%
X150180000Y-112720000D03*
X151200000Y-112720000D03*
%TD*%
%TO.C,R7*%
X124440000Y-79950000D03*
X125460000Y-79950000D03*
%TD*%
D23*
%TO.C,R22*%
X127575000Y-112965000D03*
X127575000Y-113985000D03*
%TD*%
D19*
%TO.C,R20*%
X131940000Y-112275000D03*
X132960000Y-112275000D03*
%TD*%
D23*
%TO.C,R58*%
X157325000Y-113890000D03*
X157325000Y-114910000D03*
%TD*%
D29*
%TO.C,R76*%
X140800000Y-79150000D03*
X140800000Y-77500000D03*
%TD*%
D60*
%TO.C,D4*%
X130575000Y-108475000D03*
X130575000Y-106325000D03*
%TD*%
D27*
%TO.C,U6*%
X136055000Y-110775000D03*
X134785000Y-110775000D03*
X133515000Y-110775000D03*
X132245000Y-110775000D03*
X132245000Y-105525000D03*
X133515000Y-105525000D03*
X134785000Y-105525000D03*
X136055000Y-105525000D03*
%TD*%
D49*
%TO.C,C17*%
X133710000Y-125520000D03*
X132750000Y-125520000D03*
%TD*%
D28*
%TO.C,R49*%
X139970000Y-115175000D03*
X138950000Y-115175000D03*
%TD*%
D33*
%TO.C,C3*%
X159300000Y-119895000D03*
X159300000Y-120855000D03*
%TD*%
D23*
%TO.C,R35*%
X117510000Y-127360000D03*
X117510000Y-128380000D03*
%TD*%
D61*
%TO.C,Y1*%
X160550000Y-123200000D03*
X162750000Y-123200000D03*
X162750000Y-124900000D03*
X160550000Y-124900000D03*
%TD*%
D62*
%TO.C,R31*%
X137275000Y-115150000D03*
X137275000Y-116800000D03*
%TD*%
D25*
%TO.C,R60*%
X150650000Y-132190000D03*
X150650000Y-131170000D03*
%TD*%
D19*
%TO.C,R68*%
X155390000Y-112400000D03*
X156410000Y-112400000D03*
%TD*%
D63*
%TO.C,Q16*%
X141000000Y-132862500D03*
X139100000Y-132862500D03*
X140050000Y-130987500D03*
%TD*%
D28*
%TO.C,R36*%
X145390000Y-112380000D03*
X144370000Y-112380000D03*
%TD*%
D22*
%TO.C,C27*%
X158345000Y-126350000D03*
X159305000Y-126350000D03*
%TD*%
D64*
%TO.C,C9*%
X125150000Y-107225000D03*
X125150000Y-104275000D03*
%TD*%
D35*
%TO.C,C5*%
X162025000Y-126500000D03*
X160475000Y-126500000D03*
%TD*%
D62*
%TO.C,R30*%
X135950000Y-112425000D03*
X135950000Y-114075000D03*
%TD*%
D43*
%TO.C,Q10*%
X135812500Y-117425000D03*
X133912500Y-117425000D03*
X134862500Y-115025000D03*
%TD*%
D28*
%TO.C,R38*%
X142110000Y-130425000D03*
X141090000Y-130425000D03*
%TD*%
D33*
%TO.C,C30*%
X144165000Y-131120000D03*
X144165000Y-132080000D03*
%TD*%
D41*
%TO.C,C14*%
X136049999Y-96810000D03*
X136049999Y-95850000D03*
%TD*%
D28*
%TO.C,R6*%
X126335000Y-121725000D03*
X125315000Y-121725000D03*
%TD*%
D43*
%TO.C,Q8*%
X126350000Y-113750000D03*
X124450000Y-113750000D03*
X125400000Y-111350000D03*
%TD*%
D27*
%TO.C,U4*%
X147855000Y-110775000D03*
X146585000Y-110775000D03*
X145315000Y-110775000D03*
X144045000Y-110775000D03*
X144045000Y-105525000D03*
X145315000Y-105525000D03*
X146585000Y-105525000D03*
X147855000Y-105525000D03*
%TD*%
D41*
%TO.C,C8*%
X158350000Y-120855000D03*
X158350000Y-119895000D03*
%TD*%
D23*
%TO.C,R33*%
X118090000Y-124415000D03*
X118090000Y-125435000D03*
%TD*%
D28*
%TO.C,R9*%
X121185000Y-115125000D03*
X120165000Y-115125000D03*
%TD*%
D19*
%TO.C,R70*%
X122581667Y-105425001D03*
X123601667Y-105425001D03*
%TD*%
D42*
%TO.C,D17*%
X126900000Y-108875000D03*
X124750000Y-108875000D03*
%TD*%
D65*
%TO.C,L1*%
X126950000Y-105662500D03*
X126950000Y-107237500D03*
%TD*%
D19*
%TO.C,R54*%
X134215000Y-103950000D03*
X135235000Y-103950000D03*
%TD*%
D28*
%TO.C,R71*%
X129535000Y-115050000D03*
X128515000Y-115050000D03*
%TD*%
D17*
%TO.C,J1*%
X159375000Y-106735000D03*
D18*
X159375000Y-108005000D03*
X159375000Y-109275000D03*
X159375000Y-110545000D03*
X159375000Y-111815000D03*
X159375000Y-113085000D03*
X159375000Y-114355000D03*
X159375000Y-115625000D03*
X159375000Y-116895000D03*
X159375000Y-118165000D03*
%TD*%
D27*
%TO.C,U5*%
X141455000Y-110775000D03*
X140185000Y-110775000D03*
X138915000Y-110775000D03*
X137645000Y-110775000D03*
X137645000Y-105525000D03*
X138915000Y-105525000D03*
X140185000Y-105525000D03*
X141455000Y-105525000D03*
%TD*%
D23*
%TO.C,R18*%
X133850000Y-112230000D03*
X133850000Y-113250000D03*
%TD*%
D41*
%TO.C,C12*%
X146150000Y-97230000D03*
X146150000Y-96270000D03*
%TD*%
M02*
