%TF.GenerationSoftware,KiCad,Pcbnew,7.0.11*%
%TF.CreationDate,2025-07-19T14:24:56+09:00*%
%TF.ProjectId,RasPi,52617350-692e-46b6-9963-61645f706362,rev?*%
%TF.SameCoordinates,Original*%
%TF.FileFunction,Soldermask,Bot*%
%TF.FilePolarity,Negative*%
%FSLAX46Y46*%
G04 Gerber Fmt 4.6, Leading zero omitted, Abs format (unit mm)*
G04 Created by KiCad (PCBNEW 7.0.11) date 2025-07-19 14:24:56*
%MOMM*%
%LPD*%
G01*
G04 APERTURE LIST*
G04 Aperture macros list*
%AMRoundRect*
0 Rectangle with rounded corners*
0 $1 Rounding radius*
0 $2 $3 $4 $5 $6 $7 $8 $9 X,Y pos of 4 corners*
0 Add a 4 corners polygon primitive as box body*
4,1,4,$2,$3,$4,$5,$6,$7,$8,$9,$2,$3,0*
0 Add four circle primitives for the rounded corners*
1,1,$1+$1,$2,$3*
1,1,$1+$1,$4,$5*
1,1,$1+$1,$6,$7*
1,1,$1+$1,$8,$9*
0 Add four rect primitives between the rounded corners*
20,1,$1+$1,$2,$3,$4,$5,0*
20,1,$1+$1,$4,$5,$6,$7,0*
20,1,$1+$1,$6,$7,$8,$9,0*
20,1,$1+$1,$8,$9,$2,$3,0*%
%AMRotRect*
0 Rectangle, with rotation*
0 The origin of the aperture is its center*
0 $1 length*
0 $2 width*
0 $3 Rotation angle, in degrees counterclockwise*
0 Add horizontal line*
21,1,$1,$2,0,0,$3*%
%AMFreePoly0*
4,1,33,0.000000,0.749013,0.031395,0.749013,0.093691,0.741144,0.154508,0.725528,0.212890,0.702414,0.267913,0.672164,0.318712,0.635257,0.364484,0.592274,0.404508,0.543893,0.438153,0.490877,0.464888,0.434062,0.484292,0.374345,0.496057,0.312667,0.500000,0.250000,0.500000,-0.250000,0.496057,-0.312667,0.484292,-0.374345,0.464888,-0.434062,0.438153,-0.490877,0.404508,-0.543893,
0.364484,-0.592274,0.318712,-0.635257,0.267913,-0.672164,0.212890,-0.702414,0.154508,-0.725528,0.093691,-0.741144,0.031395,-0.749013,0.000000,-0.749013,0.000000,-0.750000,-0.550000,-0.750000,-0.550000,0.750000,0.000000,0.750000,0.000000,0.749013,0.000000,0.749013,$1*%
%AMFreePoly1*
4,1,33,0.550000,-0.750000,0.000000,-0.750000,0.000000,-0.749013,-0.031395,-0.749013,-0.093691,-0.741144,-0.154508,-0.725528,-0.212890,-0.702414,-0.267913,-0.672164,-0.318712,-0.635257,-0.364484,-0.592274,-0.404508,-0.543893,-0.438153,-0.490877,-0.464888,-0.434062,-0.484292,-0.374345,-0.496057,-0.312667,-0.500000,-0.250000,-0.500000,0.250000,-0.496057,0.312667,-0.484292,0.374345,-0.464888,0.434062,
-0.438153,0.490877,-0.404508,0.543893,-0.364484,0.592274,-0.318712,0.635257,-0.267913,0.672164,-0.212890,0.702414,-0.154508,0.725528,-0.093691,0.741144,-0.031395,0.749013,0.000000,0.749013,0.000000,0.750000,0.550000,0.750000,0.550000,-0.750000,0.550000,-0.750000,$1*%
G04 Aperture macros list end*
%ADD10RoundRect,0.250000X-0.650000X0.325000X-0.650000X-0.325000X0.650000X-0.325000X0.650000X0.325000X0*%
%ADD11RoundRect,0.250000X0.229810X-0.689429X0.689429X-0.229810X-0.229810X0.689429X-0.689429X0.229810X0*%
%ADD12RoundRect,0.250000X0.325000X0.650000X-0.325000X0.650000X-0.325000X-0.650000X0.325000X-0.650000X0*%
%ADD13R,2.400000X3.100000*%
%ADD14RoundRect,0.150000X0.737500X0.150000X-0.737500X0.150000X-0.737500X-0.150000X0.737500X-0.150000X0*%
%ADD15RoundRect,0.200000X-0.250000X-0.200000X0.250000X-0.200000X0.250000X0.200000X-0.250000X0.200000X0*%
%ADD16RoundRect,0.250000X0.750000X-0.600000X0.750000X0.600000X-0.750000X0.600000X-0.750000X-0.600000X0*%
%ADD17O,2.000000X1.700000*%
%ADD18C,1.000000*%
%ADD19R,1.000000X1.000000*%
%ADD20C,3.250000*%
%ADD21RoundRect,0.350000X-0.350000X0.350000X-0.350000X-0.350000X0.350000X-0.350000X0.350000X0.350000X0*%
%ADD22C,1.400000*%
%ADD23C,1.500000*%
%ADD24C,2.500000*%
%ADD25C,2.000000*%
%ADD26C,0.900000*%
%ADD27R,1.700000X1.700000*%
%ADD28O,1.700000X1.700000*%
%ADD29RoundRect,0.135000X-0.135000X-0.185000X0.135000X-0.185000X0.135000X0.185000X-0.135000X0.185000X0*%
%ADD30RoundRect,0.250000X-0.250000X-0.475000X0.250000X-0.475000X0.250000X0.475000X-0.250000X0.475000X0*%
%ADD31RoundRect,0.140000X-0.170000X0.140000X-0.170000X-0.140000X0.170000X-0.140000X0.170000X0.140000X0*%
%ADD32RoundRect,0.150000X-0.150000X0.675000X-0.150000X-0.675000X0.150000X-0.675000X0.150000X0.675000X0*%
%ADD33RoundRect,0.150000X-0.587500X-0.150000X0.587500X-0.150000X0.587500X0.150000X-0.587500X0.150000X0*%
%ADD34RoundRect,0.140000X-0.021213X0.219203X-0.219203X0.021213X0.021213X-0.219203X0.219203X-0.021213X0*%
%ADD35RoundRect,0.135000X0.185000X-0.135000X0.185000X0.135000X-0.185000X0.135000X-0.185000X-0.135000X0*%
%ADD36RoundRect,0.250000X0.250000X0.475000X-0.250000X0.475000X-0.250000X-0.475000X0.250000X-0.475000X0*%
%ADD37RoundRect,0.135000X0.143756X-0.178282X0.213637X0.082518X-0.143756X0.178282X-0.213637X-0.082518X0*%
%ADD38RoundRect,0.140000X0.140000X0.170000X-0.140000X0.170000X-0.140000X-0.170000X0.140000X-0.170000X0*%
%ADD39RoundRect,0.200000X-0.275000X0.200000X-0.275000X-0.200000X0.275000X-0.200000X0.275000X0.200000X0*%
%ADD40RoundRect,0.140000X0.170000X-0.140000X0.170000X0.140000X-0.170000X0.140000X-0.170000X-0.140000X0*%
%ADD41RoundRect,0.150000X-0.150000X0.512500X-0.150000X-0.512500X0.150000X-0.512500X0.150000X0.512500X0*%
%ADD42RoundRect,0.175000X0.325000X0.175000X-0.325000X0.175000X-0.325000X-0.175000X0.325000X-0.175000X0*%
%ADD43RoundRect,0.135000X0.135000X0.185000X-0.135000X0.185000X-0.135000X-0.185000X0.135000X-0.185000X0*%
%ADD44RoundRect,0.250000X-0.500000X-0.510000X0.500000X-0.510000X0.500000X0.510000X-0.500000X0.510000X0*%
%ADD45RoundRect,0.250000X-1.300000X-0.850000X1.300000X-0.850000X1.300000X0.850000X-1.300000X0.850000X0*%
%ADD46RoundRect,0.250001X1.249999X-0.799999X1.249999X0.799999X-1.249999X0.799999X-1.249999X-0.799999X0*%
%ADD47RoundRect,0.200000X0.600000X-0.200000X0.600000X0.200000X-0.600000X0.200000X-0.600000X-0.200000X0*%
%ADD48RoundRect,0.135000X-0.185000X0.135000X-0.185000X-0.135000X0.185000X-0.135000X0.185000X0.135000X0*%
%ADD49RoundRect,0.200000X0.200000X0.275000X-0.200000X0.275000X-0.200000X-0.275000X0.200000X-0.275000X0*%
%ADD50RoundRect,0.140000X-0.140000X-0.170000X0.140000X-0.170000X0.140000X0.170000X-0.140000X0.170000X0*%
%ADD51RoundRect,0.175000X-0.175000X0.325000X-0.175000X-0.325000X0.175000X-0.325000X0.175000X0.325000X0*%
%ADD52RoundRect,0.175000X0.175000X0.175000X-0.175000X0.175000X-0.175000X-0.175000X0.175000X-0.175000X0*%
%ADD53R,1.200000X0.400000*%
%ADD54RoundRect,0.200000X0.200000X-0.250000X0.200000X0.250000X-0.200000X0.250000X-0.200000X-0.250000X0*%
%ADD55RoundRect,0.175000X0.175000X-0.325000X0.175000X0.325000X-0.175000X0.325000X-0.175000X-0.325000X0*%
%ADD56RoundRect,0.150000X0.675000X0.150000X-0.675000X0.150000X-0.675000X-0.150000X0.675000X-0.150000X0*%
%ADD57RoundRect,0.225000X0.225000X0.250000X-0.225000X0.250000X-0.225000X-0.250000X0.225000X-0.250000X0*%
%ADD58RoundRect,0.140000X0.219203X0.021213X0.021213X0.219203X-0.219203X-0.021213X-0.021213X-0.219203X0*%
%ADD59RoundRect,0.135000X-0.035355X0.226274X-0.226274X0.035355X0.035355X-0.226274X0.226274X-0.035355X0*%
%ADD60RoundRect,0.100000X0.637500X0.100000X-0.637500X0.100000X-0.637500X-0.100000X0.637500X-0.100000X0*%
%ADD61RoundRect,0.075000X0.459619X-0.565685X0.565685X-0.459619X-0.459619X0.565685X-0.565685X0.459619X0*%
%ADD62RoundRect,0.075000X-0.459619X-0.565685X0.565685X0.459619X0.459619X0.565685X-0.565685X-0.459619X0*%
%ADD63C,0.650000*%
%ADD64R,1.240000X0.600000*%
%ADD65R,1.240000X0.300000*%
%ADD66O,1.800000X1.000000*%
%ADD67O,2.100000X1.000000*%
%ADD68RoundRect,0.225000X-0.225000X-0.250000X0.225000X-0.250000X0.225000X0.250000X-0.225000X0.250000X0*%
%ADD69RoundRect,0.200000X0.250000X0.200000X-0.250000X0.200000X-0.250000X-0.200000X0.250000X-0.200000X0*%
%ADD70RoundRect,0.175000X-0.325000X-0.175000X0.325000X-0.175000X0.325000X0.175000X-0.325000X0.175000X0*%
%ADD71RoundRect,0.250001X-0.799999X-1.249999X0.799999X-1.249999X0.799999X1.249999X-0.799999X1.249999X0*%
%ADD72RoundRect,0.200000X-0.200000X-0.600000X0.200000X-0.600000X0.200000X0.600000X-0.200000X0.600000X0*%
%ADD73R,2.500000X2.450000*%
%ADD74RoundRect,0.140000X-0.219203X-0.021213X-0.021213X-0.219203X0.219203X0.021213X0.021213X0.219203X0*%
%ADD75RoundRect,0.150000X0.150000X-0.512500X0.150000X0.512500X-0.150000X0.512500X-0.150000X-0.512500X0*%
%ADD76RoundRect,0.150000X0.587500X0.150000X-0.587500X0.150000X-0.587500X-0.150000X0.587500X-0.150000X0*%
%ADD77RoundRect,0.225000X-0.017678X0.335876X-0.335876X0.017678X0.017678X-0.335876X0.335876X-0.017678X0*%
%ADD78R,0.670001X0.299999*%
%ADD79RoundRect,0.140000X0.021213X-0.219203X0.219203X-0.021213X-0.021213X0.219203X-0.219203X0.021213X0*%
%ADD80RoundRect,0.225000X0.017678X-0.335876X0.335876X-0.017678X-0.017678X0.335876X-0.335876X0.017678X0*%
%ADD81RoundRect,0.150000X-0.150000X0.587500X-0.150000X-0.587500X0.150000X-0.587500X0.150000X0.587500X0*%
%ADD82RoundRect,0.250000X1.075000X-0.375000X1.075000X0.375000X-1.075000X0.375000X-1.075000X-0.375000X0*%
%ADD83RoundRect,0.250000X0.650000X-0.325000X0.650000X0.325000X-0.650000X0.325000X-0.650000X-0.325000X0*%
%ADD84RoundRect,0.250001X-1.249999X0.799999X-1.249999X-0.799999X1.249999X-0.799999X1.249999X0.799999X0*%
%ADD85RoundRect,0.200000X-0.600000X0.200000X-0.600000X-0.200000X0.600000X-0.200000X0.600000X0.200000X0*%
%ADD86RoundRect,0.200000X-0.200000X-0.275000X0.200000X-0.275000X0.200000X0.275000X-0.200000X0.275000X0*%
%ADD87RoundRect,0.150000X-0.675000X-0.150000X0.675000X-0.150000X0.675000X0.150000X-0.675000X0.150000X0*%
%ADD88FreePoly0,0.000000*%
%ADD89R,1.000000X1.500000*%
%ADD90FreePoly1,0.000000*%
%ADD91RotRect,1.400000X1.200000X225.000000*%
%ADD92RoundRect,0.375000X-0.375000X0.625000X-0.375000X-0.625000X0.375000X-0.625000X0.375000X0.625000X0*%
%ADD93RoundRect,0.500000X-1.400000X0.500000X-1.400000X-0.500000X1.400000X-0.500000X1.400000X0.500000X0*%
%ADD94RoundRect,0.135000X-0.226274X-0.035355X-0.035355X-0.226274X0.226274X0.035355X0.035355X0.226274X0*%
%ADD95RoundRect,0.175000X-0.175000X-0.175000X0.175000X-0.175000X0.175000X0.175000X-0.175000X0.175000X0*%
%ADD96RoundRect,0.150000X0.150000X-0.587500X0.150000X0.587500X-0.150000X0.587500X-0.150000X-0.587500X0*%
%ADD97RoundRect,0.250000X0.512652X0.159099X0.159099X0.512652X-0.512652X-0.159099X-0.159099X-0.512652X0*%
%ADD98RoundRect,0.225000X-0.250000X0.225000X-0.250000X-0.225000X0.250000X-0.225000X0.250000X0.225000X0*%
%ADD99RoundRect,0.135000X0.035355X-0.226274X0.226274X-0.035355X-0.035355X0.226274X-0.226274X0.035355X0*%
%ADD100RoundRect,0.102000X0.650000X0.950000X-0.650000X0.950000X-0.650000X-0.950000X0.650000X-0.950000X0*%
%ADD101RoundRect,0.102000X0.500000X0.600000X-0.500000X0.600000X-0.500000X-0.600000X0.500000X-0.600000X0*%
%ADD102RoundRect,0.102000X0.500000X1.400000X-0.500000X1.400000X-0.500000X-1.400000X0.500000X-1.400000X0*%
%ADD103RoundRect,0.102000X0.350000X0.600000X-0.350000X0.600000X-0.350000X-0.600000X0.350000X-0.600000X0*%
%ADD104RoundRect,0.102000X0.500000X0.400000X-0.500000X0.400000X-0.500000X-0.400000X0.500000X-0.400000X0*%
%ADD105RoundRect,0.135000X0.226274X0.035355X0.035355X0.226274X-0.226274X-0.035355X-0.035355X-0.226274X0*%
%ADD106RoundRect,0.175000X-0.175000X0.175000X-0.175000X-0.175000X0.175000X-0.175000X0.175000X0.175000X0*%
%ADD107R,1.100000X0.400000*%
%ADD108RoundRect,0.200000X0.275000X-0.200000X0.275000X0.200000X-0.275000X0.200000X-0.275000X-0.200000X0*%
%ADD109RoundRect,0.150000X0.512500X0.150000X-0.512500X0.150000X-0.512500X-0.150000X0.512500X-0.150000X0*%
%ADD110RoundRect,0.250000X-0.787500X-1.025000X0.787500X-1.025000X0.787500X1.025000X-0.787500X1.025000X0*%
G04 APERTURE END LIST*
D10*
%TO.C,C75*%
X141469000Y-84859000D03*
X141469000Y-81909000D03*
%TD*%
%TO.C,C74*%
X139249000Y-84859000D03*
X139249000Y-81909000D03*
%TD*%
%TO.C,C73*%
X143689000Y-81909000D03*
X143689000Y-84859000D03*
%TD*%
%TO.C,C70*%
X145909000Y-81919000D03*
X145909000Y-84869000D03*
%TD*%
%TO.C,C56*%
X148119000Y-82029000D03*
X148119000Y-84979000D03*
%TD*%
D11*
%TO.C,C34*%
X146421983Y-87181017D03*
X144336017Y-89266983D03*
%TD*%
D12*
%TO.C,C32*%
X161954000Y-83084000D03*
X164904000Y-83084000D03*
%TD*%
D13*
%TO.C,U13*%
X190009000Y-108374000D03*
D14*
X192571500Y-106469000D03*
X192571500Y-107739000D03*
X192571500Y-109009000D03*
X192571500Y-110279000D03*
X187446500Y-110279000D03*
X187446500Y-109009000D03*
X187446500Y-107739000D03*
X187446500Y-106469000D03*
%TD*%
D15*
%TO.C,Q5*%
X132466000Y-103311000D03*
X130066000Y-102361000D03*
X130066000Y-104261000D03*
%TD*%
%TO.C,Q20*%
X164600000Y-106151000D03*
X162200000Y-105201000D03*
X162200000Y-107101000D03*
%TD*%
D16*
%TO.C,J5*%
X178998999Y-104134000D03*
D17*
X178998999Y-101634000D03*
%TD*%
D15*
%TO.C,Q18*%
X132605000Y-97829000D03*
X130205000Y-96879000D03*
X130205000Y-98779000D03*
%TD*%
%TO.C,Q4*%
X132659000Y-108924000D03*
X130259000Y-107974000D03*
X130259000Y-109874000D03*
%TD*%
%TO.C,Q3*%
X130321000Y-114966000D03*
X130321000Y-113066000D03*
X132721000Y-114016000D03*
%TD*%
%TO.C,Q2*%
X134247000Y-119693000D03*
X131847000Y-118743000D03*
X131847000Y-120643000D03*
%TD*%
D18*
%TO.C,J1*%
X195519000Y-82844000D03*
X194249000Y-82844000D03*
X195519000Y-81574000D03*
X194249000Y-81574000D03*
X195519000Y-80304000D03*
X194249000Y-80304000D03*
X195519000Y-79034000D03*
X194249000Y-79034000D03*
X195519000Y-77764000D03*
X194249000Y-77764000D03*
X195519000Y-76494000D03*
X194249000Y-76494000D03*
X195519000Y-75224000D03*
D19*
X194249000Y-75224000D03*
%TD*%
D20*
%TO.C,J13*%
X124599000Y-75409000D03*
X124599000Y-85059000D03*
D21*
X131199000Y-79214000D03*
D22*
X131199000Y-77184000D03*
X131199000Y-75154000D03*
X133739000Y-78194000D03*
X133739000Y-76164000D03*
X133739000Y-74134000D03*
D23*
X118249000Y-87754000D03*
X115709000Y-87754000D03*
X118249000Y-72714000D03*
X115709000Y-72714000D03*
D24*
X124599000Y-89024000D03*
%TD*%
D25*
%TO.C,TP1*%
X117811000Y-121769000D03*
%TD*%
D26*
%TO.C,SW7*%
X126104000Y-118833000D03*
X123104000Y-118833000D03*
%TD*%
D22*
%TO.C,SW2*%
X184597000Y-82101000D03*
X187137000Y-82101000D03*
D21*
X189677000Y-82101000D03*
%TD*%
D27*
%TO.C,J6*%
X114349000Y-111084000D03*
D28*
X114349000Y-113624000D03*
X114349000Y-116164000D03*
X114349000Y-118704000D03*
X114349000Y-121244000D03*
%TD*%
D26*
%TO.C,SW4*%
X187519000Y-95884000D03*
X184519000Y-95884000D03*
%TD*%
D29*
%TO.C,R60*%
X187869000Y-111394000D03*
X186849000Y-111394000D03*
%TD*%
D30*
%TO.C,C52*%
X169409000Y-115794000D03*
X167509000Y-115794000D03*
%TD*%
D29*
%TO.C,R66*%
X200509000Y-110914000D03*
X199489000Y-110914000D03*
%TD*%
D31*
%TO.C,C7*%
X148429000Y-101864000D03*
X148429000Y-100904000D03*
%TD*%
D15*
%TO.C,Q11*%
X196649000Y-109784000D03*
X194249000Y-108834000D03*
X194249000Y-110734000D03*
%TD*%
D32*
%TO.C,U4*%
X191284000Y-89719000D03*
X192554000Y-89719000D03*
X193824000Y-89719000D03*
X195094000Y-89719000D03*
X195094000Y-84469000D03*
X193824000Y-84469000D03*
X192554000Y-84469000D03*
X191284000Y-84469000D03*
%TD*%
D33*
%TO.C,Q25*%
X180356500Y-97804000D03*
X178481500Y-96854000D03*
X178481500Y-98754000D03*
%TD*%
D34*
%TO.C,C3*%
X143249589Y-91303411D03*
X143928411Y-90624589D03*
%TD*%
D35*
%TO.C,R136*%
X164599000Y-117024000D03*
X164599000Y-118044000D03*
%TD*%
D36*
%TO.C,C45*%
X151099000Y-108364000D03*
X152999000Y-108364000D03*
%TD*%
D37*
%TO.C,R20*%
X193360998Y-82221378D03*
X193097002Y-83206622D03*
%TD*%
D38*
%TO.C,C2*%
X168429000Y-83834000D03*
X169389000Y-83834000D03*
%TD*%
D31*
%TO.C,C38*%
X196129000Y-90414000D03*
X196129000Y-89454000D03*
%TD*%
D39*
%TO.C,R151*%
X167379000Y-119091000D03*
X167379000Y-117441000D03*
%TD*%
D40*
%TO.C,C65*%
X185029000Y-107534000D03*
X185029000Y-108494000D03*
%TD*%
D41*
%TO.C,U17*%
X168849000Y-119901500D03*
X170749000Y-119901500D03*
X170749000Y-117626500D03*
X169799000Y-117626500D03*
X168849000Y-117626500D03*
%TD*%
D42*
%TO.C,Q28*%
X150729000Y-105744000D03*
X153129000Y-106694000D03*
X153129000Y-104794000D03*
%TD*%
D43*
%TO.C,R94*%
X120759000Y-87734000D03*
X119739000Y-87734000D03*
%TD*%
D35*
%TO.C,R123*%
X160269000Y-122524000D03*
X160269000Y-123544000D03*
%TD*%
D44*
%TO.C,D17*%
X190729000Y-104194000D03*
D45*
X187509000Y-104194000D03*
%TD*%
D31*
%TO.C,C61*%
X183559000Y-124474000D03*
X183559000Y-123514000D03*
%TD*%
D33*
%TO.C,Q19*%
X132286500Y-92434000D03*
X130411500Y-91484000D03*
X130411500Y-93384000D03*
%TD*%
D46*
%TO.C,J14*%
X113429000Y-89339000D03*
X113429000Y-103189000D03*
D47*
X116329000Y-91889000D03*
X116329000Y-93139000D03*
X116329000Y-94389000D03*
X116329000Y-95639000D03*
X116329000Y-96889000D03*
X116329000Y-98139000D03*
X116329000Y-99389000D03*
X116329000Y-100639000D03*
%TD*%
D35*
%TO.C,R138*%
X154940000Y-81663000D03*
X154940000Y-82683000D03*
%TD*%
D40*
%TO.C,C50*%
X185899000Y-107574000D03*
X185899000Y-108534000D03*
%TD*%
D36*
%TO.C,C71*%
X192989000Y-122544000D03*
X194889000Y-122544000D03*
%TD*%
D48*
%TO.C,R92*%
X165977000Y-102970000D03*
X165977000Y-101950000D03*
%TD*%
D49*
%TO.C,R128*%
X196074000Y-121874000D03*
X197724000Y-121874000D03*
%TD*%
D43*
%TO.C,R91*%
X177699000Y-118754000D03*
X178719000Y-118754000D03*
%TD*%
D48*
%TO.C,R25*%
X134763000Y-122379000D03*
X134763000Y-121359000D03*
%TD*%
D32*
%TO.C,U3*%
X179554000Y-89659000D03*
X180824000Y-89659000D03*
X182094000Y-89659000D03*
X183364000Y-89659000D03*
X183364000Y-84409000D03*
X182094000Y-84409000D03*
X180824000Y-84409000D03*
X179554000Y-84409000D03*
%TD*%
D50*
%TO.C,C37*%
X176709000Y-95044000D03*
X175749000Y-95044000D03*
%TD*%
D51*
%TO.C,Q35*%
X181849000Y-110314000D03*
X182799000Y-107914000D03*
X180899000Y-107914000D03*
%TD*%
D48*
%TO.C,R74*%
X133789000Y-98884000D03*
X133789000Y-97864000D03*
%TD*%
%TO.C,R31*%
X132849000Y-117234000D03*
X132849000Y-116214000D03*
%TD*%
D52*
%TO.C,D18*%
X180544000Y-115044000D03*
X182694000Y-115044000D03*
%TD*%
D38*
%TO.C,C25*%
X168025000Y-89273000D03*
X168985000Y-89273000D03*
%TD*%
D29*
%TO.C,R133*%
X178528000Y-117700000D03*
X177508000Y-117700000D03*
%TD*%
%TO.C,R48*%
X185669000Y-126154000D03*
X184649000Y-126154000D03*
%TD*%
%TO.C,R116*%
X185989000Y-109394000D03*
X184969000Y-109394000D03*
%TD*%
D53*
%TO.C,U6*%
X182219000Y-126661500D03*
X182219000Y-126026500D03*
X182219000Y-125391500D03*
X182219000Y-124756500D03*
X182219000Y-124121500D03*
X182219000Y-123486500D03*
X182219000Y-122851500D03*
X182219000Y-122216500D03*
X182219000Y-121581500D03*
X182219000Y-120946500D03*
X177019000Y-120946500D03*
X177019000Y-121581500D03*
X177019000Y-122216500D03*
X177019000Y-122851500D03*
X177019000Y-123486500D03*
X177019000Y-124121500D03*
X177019000Y-124756500D03*
X177019000Y-125391500D03*
X177019000Y-126026500D03*
X177019000Y-126661500D03*
%TD*%
D54*
%TO.C,Q27*%
X156786000Y-105740000D03*
X155836000Y-108140000D03*
X157736000Y-108140000D03*
%TD*%
D29*
%TO.C,R119*%
X191499000Y-111394000D03*
X190479000Y-111394000D03*
%TD*%
D55*
%TO.C,Q26*%
X182259000Y-93044000D03*
X181309000Y-95444000D03*
X183209000Y-95444000D03*
%TD*%
D43*
%TO.C,R114*%
X174999000Y-79594000D03*
X176019000Y-79594000D03*
%TD*%
D29*
%TO.C,R144*%
X191969000Y-126824000D03*
X190949000Y-126824000D03*
%TD*%
D43*
%TO.C,R85*%
X120439000Y-100034000D03*
X121459000Y-100034000D03*
%TD*%
%TO.C,R19*%
X182109000Y-91204000D03*
X183129000Y-91204000D03*
%TD*%
D56*
%TO.C,U8*%
X123004000Y-112869000D03*
X123004000Y-114139000D03*
X123004000Y-115409000D03*
X123004000Y-116679000D03*
X128254000Y-116679000D03*
X128254000Y-115409000D03*
X128254000Y-114139000D03*
X128254000Y-112869000D03*
%TD*%
D29*
%TO.C,R44*%
X191869000Y-122614000D03*
X190849000Y-122614000D03*
%TD*%
%TO.C,R120*%
X176019000Y-80544000D03*
X174999000Y-80544000D03*
%TD*%
%TO.C,R62*%
X189689000Y-111395000D03*
X188669000Y-111395000D03*
%TD*%
D43*
%TO.C,R93*%
X119739000Y-72734000D03*
X120759000Y-72734000D03*
%TD*%
D31*
%TO.C,C23*%
X200439000Y-110014000D03*
X200439000Y-109054000D03*
%TD*%
D57*
%TO.C,C58*%
X184144000Y-119314000D03*
X185694000Y-119314000D03*
%TD*%
D48*
%TO.C,R153*%
X172959000Y-119294000D03*
X172959000Y-118274000D03*
%TD*%
D15*
%TO.C,Q10*%
X166709000Y-87064000D03*
X164309000Y-86114000D03*
X164309000Y-88014000D03*
%TD*%
D36*
%TO.C,C55*%
X176769000Y-106434000D03*
X178669000Y-106434000D03*
%TD*%
D58*
%TO.C,C1*%
X152979589Y-82414589D03*
X153658411Y-83093411D03*
%TD*%
D43*
%TO.C,R86*%
X120439000Y-101034000D03*
X121459000Y-101034000D03*
%TD*%
D59*
%TO.C,R21*%
X195708376Y-92034624D03*
X196429624Y-91313376D03*
%TD*%
D60*
%TO.C,U22*%
X193446500Y-124659000D03*
X193446500Y-125309000D03*
X193446500Y-125959000D03*
X193446500Y-126609000D03*
X199171500Y-126609000D03*
X199171500Y-125959000D03*
X199171500Y-125309000D03*
X199171500Y-124659000D03*
%TD*%
D48*
%TO.C,R103*%
X176919000Y-97914000D03*
X176919000Y-96894000D03*
%TD*%
D35*
%TO.C,R150*%
X171989000Y-119254000D03*
X171989000Y-120274000D03*
%TD*%
%TO.C,R16*%
X182649000Y-81644000D03*
X182649000Y-82664000D03*
%TD*%
%TO.C,R51*%
X191169000Y-120584000D03*
X191169000Y-121604000D03*
%TD*%
%TO.C,R102*%
X184479000Y-93724000D03*
X184479000Y-94744000D03*
%TD*%
D61*
%TO.C,U15*%
X155359788Y-103145980D03*
X155713341Y-102792427D03*
X156066895Y-102438873D03*
X156420448Y-102085320D03*
X156774001Y-101731767D03*
X157127555Y-101378213D03*
X157481108Y-101024660D03*
X157834662Y-100671106D03*
X158188215Y-100317553D03*
X158541768Y-99964000D03*
X158895322Y-99610446D03*
X159248875Y-99256893D03*
X159602429Y-98903340D03*
X159955982Y-98549786D03*
X160309535Y-98196233D03*
X160663089Y-97842679D03*
X161016642Y-97489126D03*
X161370195Y-97135573D03*
X161723749Y-96782019D03*
X162077302Y-96428466D03*
X162430856Y-96074912D03*
X162784409Y-95721359D03*
X163137962Y-95367806D03*
X163491516Y-95014252D03*
X163845069Y-94660699D03*
D62*
X163845069Y-92291891D03*
X163491516Y-91938338D03*
X163137962Y-91584784D03*
X162784409Y-91231231D03*
X162430856Y-90877678D03*
X162077302Y-90524124D03*
X161723749Y-90170571D03*
X161370195Y-89817017D03*
X161016642Y-89463464D03*
X160663089Y-89109911D03*
X160309535Y-88756357D03*
X159955982Y-88402804D03*
X159602429Y-88049250D03*
X159248875Y-87695697D03*
X158895322Y-87342144D03*
X158541768Y-86988590D03*
X158188215Y-86635037D03*
X157834662Y-86281484D03*
X157481108Y-85927930D03*
X157127555Y-85574377D03*
X156774001Y-85220823D03*
X156420448Y-84867270D03*
X156066895Y-84513717D03*
X155713341Y-84160163D03*
X155359788Y-83806610D03*
D61*
X152990980Y-83806610D03*
X152637427Y-84160163D03*
X152283873Y-84513717D03*
X151930320Y-84867270D03*
X151576767Y-85220823D03*
X151223213Y-85574377D03*
X150869660Y-85927930D03*
X150516106Y-86281484D03*
X150162553Y-86635037D03*
X149809000Y-86988590D03*
X149455446Y-87342144D03*
X149101893Y-87695697D03*
X148748339Y-88049250D03*
X148394786Y-88402804D03*
X148041233Y-88756357D03*
X147687679Y-89109911D03*
X147334126Y-89463464D03*
X146980573Y-89817017D03*
X146627019Y-90170571D03*
X146273466Y-90524124D03*
X145919912Y-90877678D03*
X145566359Y-91231231D03*
X145212806Y-91584784D03*
X144859252Y-91938338D03*
X144505699Y-92291891D03*
D62*
X144505699Y-94660699D03*
X144859252Y-95014252D03*
X145212806Y-95367806D03*
X145566359Y-95721359D03*
X145919912Y-96074912D03*
X146273466Y-96428466D03*
X146627019Y-96782019D03*
X146980573Y-97135573D03*
X147334126Y-97489126D03*
X147687679Y-97842679D03*
X148041233Y-98196233D03*
X148394786Y-98549786D03*
X148748339Y-98903340D03*
X149101893Y-99256893D03*
X149455446Y-99610446D03*
X149809000Y-99964000D03*
X150162553Y-100317553D03*
X150516106Y-100671106D03*
X150869660Y-101024660D03*
X151223213Y-101378213D03*
X151576767Y-101731767D03*
X151930320Y-102085320D03*
X152283873Y-102438873D03*
X152637427Y-102792427D03*
X152990980Y-103145980D03*
%TD*%
D56*
%TO.C,U11*%
X123024000Y-96859000D03*
X123024000Y-98129000D03*
X123024000Y-99399000D03*
X123024000Y-100669000D03*
X128274000Y-100669000D03*
X128274000Y-99399000D03*
X128274000Y-98129000D03*
X128274000Y-96859000D03*
%TD*%
D63*
%TO.C,J11*%
X193944000Y-113344000D03*
X193944000Y-119124000D03*
D64*
X192824000Y-113034000D03*
X192824000Y-113834000D03*
D65*
X192824000Y-114984000D03*
X192824000Y-115984000D03*
X192824000Y-116484000D03*
X192824000Y-117484000D03*
D64*
X192824000Y-118634000D03*
X192824000Y-119434000D03*
X192824000Y-119434000D03*
X192824000Y-118634000D03*
D65*
X192824000Y-117984000D03*
X192824000Y-116984000D03*
X192824000Y-115484000D03*
X192824000Y-114484000D03*
D64*
X192824000Y-113834000D03*
X192824000Y-113034000D03*
D66*
X197624000Y-111914000D03*
D67*
X193424000Y-111914000D03*
D66*
X197624000Y-120554000D03*
D67*
X193424000Y-120554000D03*
%TD*%
D43*
%TO.C,R141*%
X189779000Y-123854000D03*
X190799000Y-123854000D03*
%TD*%
D68*
%TO.C,C30*%
X165783000Y-109459000D03*
X164233000Y-109459000D03*
%TD*%
D43*
%TO.C,R154*%
X170639000Y-116214000D03*
X171659000Y-116214000D03*
%TD*%
D38*
%TO.C,C35*%
X120469000Y-96634000D03*
X121429000Y-96634000D03*
%TD*%
D69*
%TO.C,Q37*%
X180739000Y-112524000D03*
X183139000Y-113474000D03*
X183139000Y-111574000D03*
%TD*%
D29*
%TO.C,R80*%
X119209000Y-91384000D03*
X118189000Y-91384000D03*
%TD*%
D70*
%TO.C,Q16*%
X184529000Y-97814000D03*
X182129000Y-96864000D03*
X182129000Y-98764000D03*
%TD*%
D48*
%TO.C,R113*%
X173209000Y-80594000D03*
X173209000Y-79574000D03*
%TD*%
%TO.C,R104*%
X154409000Y-106404000D03*
X154409000Y-105384000D03*
%TD*%
D71*
%TO.C,J10*%
X153759000Y-77424000D03*
X144909000Y-77424000D03*
D72*
X151209000Y-80324000D03*
X149959000Y-80324000D03*
X148709000Y-80324000D03*
X147459000Y-80324000D03*
%TD*%
D73*
%TO.C,L2*%
X182729000Y-100984000D03*
X182729000Y-105584000D03*
%TD*%
D29*
%TO.C,R95*%
X200039000Y-77684000D03*
X199019000Y-77684000D03*
%TD*%
D15*
%TO.C,Q7*%
X189419000Y-125884000D03*
X187019000Y-124934000D03*
X187019000Y-126834000D03*
%TD*%
D38*
%TO.C,C31*%
X120469000Y-107434000D03*
X121429000Y-107434000D03*
%TD*%
D35*
%TO.C,R29*%
X112629000Y-112644000D03*
X112629000Y-113664000D03*
%TD*%
D56*
%TO.C,U12*%
X123024000Y-91529000D03*
X123024000Y-92799000D03*
X123024000Y-94069000D03*
X123024000Y-95339000D03*
X128274000Y-95339000D03*
X128274000Y-94069000D03*
X128274000Y-92799000D03*
X128274000Y-91529000D03*
%TD*%
D39*
%TO.C,R90*%
X200109000Y-80559000D03*
X200109000Y-78909000D03*
%TD*%
D35*
%TO.C,R122*%
X184079000Y-107524000D03*
X184079000Y-108544000D03*
%TD*%
D38*
%TO.C,C36*%
X120469000Y-91234000D03*
X121429000Y-91234000D03*
%TD*%
D43*
%TO.C,R23*%
X194129000Y-91154000D03*
X195149000Y-91154000D03*
%TD*%
D50*
%TO.C,C12*%
X179539000Y-91224000D03*
X178579000Y-91224000D03*
%TD*%
%TO.C,C47*%
X169129000Y-121314000D03*
X168169000Y-121314000D03*
%TD*%
D38*
%TO.C,C33*%
X120469000Y-102034000D03*
X121429000Y-102034000D03*
%TD*%
%TO.C,C24*%
X169808000Y-89251000D03*
X170768000Y-89251000D03*
%TD*%
D74*
%TO.C,C63*%
X145838411Y-98133411D03*
X145159589Y-97454589D03*
%TD*%
D75*
%TO.C,U25*%
X161858000Y-113543500D03*
X160908000Y-113543500D03*
X159958000Y-113543500D03*
X159958000Y-111268500D03*
X161858000Y-111268500D03*
%TD*%
D32*
%TO.C,U2*%
X185894000Y-90659000D03*
X187164000Y-90659000D03*
X188434000Y-90659000D03*
X189704000Y-90659000D03*
X189704000Y-85409000D03*
X188434000Y-85409000D03*
X187164000Y-85409000D03*
X185894000Y-85409000D03*
%TD*%
D35*
%TO.C,R33*%
X120449000Y-113714000D03*
X120449000Y-114734000D03*
%TD*%
D29*
%TO.C,R1*%
X197729000Y-73464000D03*
X196709000Y-73464000D03*
%TD*%
D72*
%TO.C,J9*%
X163179000Y-80314000D03*
X164429000Y-80314000D03*
X165679000Y-80314000D03*
D71*
X160629000Y-77414000D03*
X168229000Y-77414000D03*
%TD*%
D38*
%TO.C,C14*%
X122059000Y-117704000D03*
X123019000Y-117704000D03*
%TD*%
D43*
%TO.C,R109*%
X164449000Y-84954000D03*
X165469000Y-84954000D03*
%TD*%
%TO.C,R117*%
X174199000Y-85234000D03*
X175219000Y-85234000D03*
%TD*%
D76*
%TO.C,Q15*%
X189991500Y-94834000D03*
X191866500Y-95784000D03*
X191866500Y-93884000D03*
%TD*%
D59*
%TO.C,R9*%
X161138376Y-85814624D03*
X161859624Y-85093376D03*
%TD*%
D57*
%TO.C,C9*%
X188816500Y-101984000D03*
X190366500Y-101984000D03*
%TD*%
D43*
%TO.C,R135*%
X163009000Y-122554000D03*
X164029000Y-122554000D03*
%TD*%
D29*
%TO.C,R146*%
X162689000Y-118004000D03*
X161669000Y-118004000D03*
%TD*%
D43*
%TO.C,R12*%
X186089000Y-83834000D03*
X187109000Y-83834000D03*
%TD*%
D48*
%TO.C,R35*%
X121449000Y-109344000D03*
X121449000Y-108324000D03*
%TD*%
D38*
%TO.C,C13*%
X190619000Y-91174000D03*
X191579000Y-91174000D03*
%TD*%
D77*
%TO.C,C20*%
X143100992Y-97852008D03*
X144197008Y-96755992D03*
%TD*%
D32*
%TO.C,U14*%
X196724000Y-87579000D03*
X197994000Y-87579000D03*
X199264000Y-87579000D03*
X200534000Y-87579000D03*
X200534000Y-82329000D03*
X199264000Y-82329000D03*
X197994000Y-82329000D03*
X196724000Y-82329000D03*
%TD*%
D48*
%TO.C,R26*%
X121975000Y-119624000D03*
X121975000Y-118604000D03*
%TD*%
%TO.C,R147*%
X163619000Y-118054000D03*
X163619000Y-117034000D03*
%TD*%
D49*
%TO.C,R37*%
X130024000Y-105804000D03*
X131674000Y-105804000D03*
%TD*%
D35*
%TO.C,R40*%
X120449000Y-102924000D03*
X120449000Y-103944000D03*
%TD*%
D43*
%TO.C,R84*%
X120309000Y-122514000D03*
X121329000Y-122514000D03*
%TD*%
D35*
%TO.C,R52*%
X190779000Y-115504000D03*
X190779000Y-116524000D03*
%TD*%
D78*
%TO.C,U19*%
X175398001Y-112561002D03*
X175398001Y-112061003D03*
X175398001Y-111561001D03*
X173917999Y-111561001D03*
X173917999Y-112061003D03*
X173917999Y-112561002D03*
%TD*%
D79*
%TO.C,C22*%
X165328411Y-92231035D03*
X164649589Y-92909857D03*
%TD*%
%TO.C,C6*%
X157178411Y-103504589D03*
X156499589Y-104183411D03*
%TD*%
D43*
%TO.C,R96*%
X199629000Y-89134000D03*
X200649000Y-89134000D03*
%TD*%
D15*
%TO.C,Q17*%
X188479000Y-94824000D03*
X186079000Y-93874000D03*
X186079000Y-95774000D03*
%TD*%
D55*
%TO.C,Q29*%
X185349000Y-111894000D03*
X184399000Y-114294000D03*
X186299000Y-114294000D03*
%TD*%
D80*
%TO.C,C5*%
X144107008Y-99605992D03*
X143010992Y-100702008D03*
%TD*%
D81*
%TO.C,Q1*%
X192030000Y-81957500D03*
X192980000Y-80082500D03*
X191080000Y-80082500D03*
%TD*%
D82*
%TO.C,L4*%
X174279000Y-107214000D03*
X174279000Y-110014000D03*
%TD*%
D50*
%TO.C,C49*%
X160819000Y-117984000D03*
X159859000Y-117984000D03*
%TD*%
D72*
%TO.C,J8*%
X179524000Y-80254000D03*
X180774000Y-80254000D03*
D71*
X176974000Y-77354000D03*
X183324000Y-77354000D03*
%TD*%
D43*
%TO.C,R72*%
X186829000Y-123624000D03*
X187849000Y-123624000D03*
%TD*%
D35*
%TO.C,R130*%
X176629000Y-117654000D03*
X176629000Y-118674000D03*
%TD*%
D76*
%TO.C,Q21*%
X138671500Y-112784000D03*
X140546500Y-113734000D03*
X140546500Y-111834000D03*
%TD*%
D59*
%TO.C,R7*%
X160488376Y-85164624D03*
X161209624Y-84443376D03*
%TD*%
%TO.C,R107*%
X161548376Y-87344624D03*
X162269624Y-86623376D03*
%TD*%
D35*
%TO.C,R63*%
X193229000Y-96054000D03*
X193229000Y-95034000D03*
%TD*%
D48*
%TO.C,R89*%
X142039000Y-112894000D03*
X142039000Y-111874000D03*
%TD*%
D33*
%TO.C,Q36*%
X178806500Y-115574000D03*
X176931500Y-114624000D03*
X176931500Y-116524000D03*
%TD*%
D48*
%TO.C,R75*%
X121449000Y-98544000D03*
X121449000Y-97524000D03*
%TD*%
D83*
%TO.C,C67*%
X179089003Y-109949000D03*
X179089003Y-112899000D03*
%TD*%
D48*
%TO.C,R15*%
X184629000Y-89534000D03*
X184629000Y-88514000D03*
%TD*%
D84*
%TO.C,J3*%
X199249000Y-102509000D03*
X199249000Y-91159000D03*
D85*
X196349000Y-99959000D03*
X196349000Y-98709000D03*
X196349000Y-97459000D03*
X196349000Y-96209000D03*
X196349000Y-94959000D03*
X196349000Y-93709000D03*
%TD*%
D70*
%TO.C,Q8*%
X190279000Y-117384000D03*
X187879000Y-116434000D03*
X187879000Y-118334000D03*
%TD*%
D51*
%TO.C,Q6*%
X189839000Y-115224000D03*
X190789000Y-112824000D03*
X188889000Y-112824000D03*
%TD*%
D29*
%TO.C,R155*%
X170939000Y-121324000D03*
X169919000Y-121324000D03*
%TD*%
D43*
%TO.C,R61*%
X197669000Y-110584000D03*
X198689000Y-110584000D03*
%TD*%
D59*
%TO.C,R112*%
X177308376Y-81334624D03*
X178029624Y-80613376D03*
%TD*%
D38*
%TO.C,C15*%
X130939000Y-106814000D03*
X131899000Y-106814000D03*
%TD*%
D35*
%TO.C,R76*%
X120449000Y-97524000D03*
X120449000Y-98544000D03*
%TD*%
D48*
%TO.C,R131*%
X179799000Y-108394000D03*
X179799000Y-107374000D03*
%TD*%
D33*
%TO.C,Q34*%
X176236500Y-119624000D03*
X174361500Y-118674000D03*
X174361500Y-120574000D03*
%TD*%
D86*
%TO.C,R101*%
X185654000Y-122074000D03*
X184004000Y-122074000D03*
%TD*%
D48*
%TO.C,R78*%
X132849000Y-95644000D03*
X132849000Y-94624000D03*
%TD*%
%TO.C,R39*%
X121449000Y-103944000D03*
X121449000Y-102924000D03*
%TD*%
D40*
%TO.C,C72*%
X163109000Y-111699000D03*
X163109000Y-112659000D03*
%TD*%
D54*
%TO.C,Q24*%
X171686000Y-80930000D03*
X170736000Y-83330000D03*
X172636000Y-83330000D03*
%TD*%
D43*
%TO.C,R14*%
X186529000Y-92094000D03*
X187549000Y-92094000D03*
%TD*%
D87*
%TO.C,U18*%
X132734000Y-90009000D03*
X132734000Y-88739000D03*
X132734000Y-87469000D03*
X132734000Y-86199000D03*
X127484000Y-86199000D03*
X127484000Y-87469000D03*
X127484000Y-88739000D03*
X127484000Y-90009000D03*
%TD*%
D48*
%TO.C,R34*%
X132849000Y-111974000D03*
X132849000Y-110954000D03*
%TD*%
D49*
%TO.C,R28*%
X130024000Y-111386000D03*
X131674000Y-111386000D03*
%TD*%
D48*
%TO.C,R111*%
X174129000Y-80594000D03*
X174129000Y-79574000D03*
%TD*%
%TO.C,R59*%
X199559000Y-110064000D03*
X199559000Y-109044000D03*
%TD*%
D59*
%TO.C,R108*%
X162597376Y-88058624D03*
X163318624Y-87337376D03*
%TD*%
D56*
%TO.C,U9*%
X123024000Y-107529000D03*
X123024000Y-108799000D03*
X123024000Y-110069000D03*
X123024000Y-111339000D03*
X128274000Y-111339000D03*
X128274000Y-110069000D03*
X128274000Y-108799000D03*
X128274000Y-107529000D03*
%TD*%
D39*
%TO.C,R100*%
X172590000Y-112765000D03*
X172590000Y-114415000D03*
%TD*%
D56*
%TO.C,U5*%
X124609000Y-118197000D03*
X124609000Y-119467000D03*
X124609000Y-120737000D03*
X124609000Y-122007000D03*
X129859000Y-122007000D03*
X129859000Y-120737000D03*
X129859000Y-119467000D03*
X129859000Y-118197000D03*
%TD*%
D48*
%TO.C,R3*%
X177519000Y-84474000D03*
X177519000Y-83454000D03*
%TD*%
D35*
%TO.C,R156*%
X172009000Y-117334000D03*
X172009000Y-118354000D03*
%TD*%
%TO.C,R105*%
X163049000Y-84754000D03*
X163049000Y-85774000D03*
%TD*%
D88*
%TO.C,JP1*%
X162749000Y-115654000D03*
D89*
X161449000Y-115654000D03*
D90*
X160149000Y-115654000D03*
%TD*%
D43*
%TO.C,R17*%
X184035000Y-92128000D03*
X185055000Y-92128000D03*
%TD*%
D91*
%TO.C,Y1*%
X145152162Y-100797437D03*
X143596527Y-102353072D03*
X144798608Y-103555153D03*
X146354243Y-101999518D03*
%TD*%
D92*
%TO.C,U16*%
X171520000Y-90979000D03*
D93*
X169220000Y-97279000D03*
D92*
X169220000Y-90979000D03*
X166920000Y-90979000D03*
%TD*%
D35*
%TO.C,R50*%
X186799000Y-117814000D03*
X186799000Y-118834000D03*
%TD*%
D43*
%TO.C,R98*%
X197829000Y-89124000D03*
X198849000Y-89124000D03*
%TD*%
D69*
%TO.C,Q40*%
X167179000Y-113024000D03*
X169579000Y-113974000D03*
X169579000Y-112074000D03*
%TD*%
D40*
%TO.C,C43*%
X170299000Y-78764000D03*
X170299000Y-79724000D03*
%TD*%
D35*
%TO.C,R73*%
X158478000Y-110834000D03*
X158478000Y-111854000D03*
%TD*%
D49*
%TO.C,R24*%
X131676000Y-122113000D03*
X133326000Y-122113000D03*
%TD*%
D48*
%TO.C,R134*%
X166299000Y-121164000D03*
X166299000Y-120144000D03*
%TD*%
D29*
%TO.C,R81*%
X119209000Y-92294000D03*
X118189000Y-92294000D03*
%TD*%
D35*
%TO.C,R87*%
X120449000Y-92124000D03*
X120449000Y-93144000D03*
%TD*%
D54*
%TO.C,Q23*%
X175239000Y-81694000D03*
X174289000Y-84094000D03*
X176189000Y-84094000D03*
%TD*%
D94*
%TO.C,R2*%
X159259624Y-102844624D03*
X158538376Y-102123376D03*
%TD*%
D48*
%TO.C,R32*%
X121449000Y-114734000D03*
X121449000Y-113714000D03*
%TD*%
D35*
%TO.C,R49*%
X190629000Y-124734000D03*
X190629000Y-125754000D03*
%TD*%
D95*
%TO.C,D16*%
X175554000Y-116574000D03*
X173404000Y-116574000D03*
%TD*%
D43*
%TO.C,R67*%
X115709000Y-86184000D03*
X116729000Y-86184000D03*
%TD*%
D29*
%TO.C,R53*%
X187759000Y-119684000D03*
X186739000Y-119684000D03*
%TD*%
D43*
%TO.C,R132*%
X195939000Y-123174000D03*
X196959000Y-123174000D03*
%TD*%
D35*
%TO.C,R27*%
X120929000Y-118604000D03*
X120929000Y-119624000D03*
%TD*%
D48*
%TO.C,R38*%
X132849000Y-106444000D03*
X132849000Y-105424000D03*
%TD*%
D50*
%TO.C,C39*%
X176709000Y-94184000D03*
X175749000Y-94184000D03*
%TD*%
D35*
%TO.C,R137*%
X159529000Y-118844000D03*
X159529000Y-119864000D03*
%TD*%
D96*
%TO.C,Q22*%
X197679000Y-78386500D03*
X196729000Y-80261500D03*
X198629000Y-80261500D03*
%TD*%
D35*
%TO.C,R36*%
X120449000Y-108324000D03*
X120449000Y-109344000D03*
%TD*%
%TO.C,R106*%
X154409000Y-107274000D03*
X154409000Y-108294000D03*
%TD*%
D29*
%TO.C,R121*%
X186009000Y-110644000D03*
X184989000Y-110644000D03*
%TD*%
D35*
%TO.C,R110*%
X173259000Y-84274000D03*
X173259000Y-85294000D03*
%TD*%
D43*
%TO.C,R148*%
X159995000Y-109857000D03*
X161015000Y-109857000D03*
%TD*%
D52*
%TO.C,D8*%
X168074000Y-87834000D03*
X170224000Y-87834000D03*
%TD*%
D50*
%TO.C,C44*%
X176709000Y-90744000D03*
X175749000Y-90744000D03*
%TD*%
D15*
%TO.C,Q13*%
X169620000Y-81520000D03*
X167220000Y-80570000D03*
X167220000Y-82470000D03*
%TD*%
D97*
%TO.C,C10*%
X195407249Y-101372249D03*
X196750751Y-102715751D03*
%TD*%
D43*
%TO.C,R18*%
X180309000Y-91214000D03*
X181329000Y-91214000D03*
%TD*%
D49*
%TO.C,R30*%
X131714000Y-116524000D03*
X130064000Y-116524000D03*
%TD*%
D15*
%TO.C,Q30*%
X182156000Y-117634000D03*
X179756000Y-116684000D03*
X179756000Y-118584000D03*
%TD*%
D29*
%TO.C,R82*%
X119209000Y-93204000D03*
X118189000Y-93204000D03*
%TD*%
D40*
%TO.C,C60*%
X184499000Y-123284000D03*
X184499000Y-124244000D03*
%TD*%
D86*
%TO.C,R115*%
X185654000Y-120694000D03*
X184004000Y-120694000D03*
%TD*%
D36*
%TO.C,C53*%
X130969000Y-83744000D03*
X132869000Y-83744000D03*
%TD*%
D97*
%TO.C,C16*%
X194457249Y-102852249D03*
X195800751Y-104195751D03*
%TD*%
D50*
%TO.C,C42*%
X176709000Y-91604000D03*
X175749000Y-91604000D03*
%TD*%
D29*
%TO.C,R64*%
X198699000Y-109564000D03*
X197679000Y-109564000D03*
%TD*%
D43*
%TO.C,R71*%
X184869000Y-127124000D03*
X185889000Y-127124000D03*
%TD*%
D58*
%TO.C,C19*%
X150349589Y-82964589D03*
X151028411Y-83643411D03*
%TD*%
D33*
%TO.C,Q38*%
X170646500Y-109494000D03*
X168771500Y-108544000D03*
X168771500Y-110444000D03*
%TD*%
D38*
%TO.C,C51*%
X192079000Y-105474000D03*
X193039000Y-105474000D03*
%TD*%
D29*
%TO.C,R145*%
X162189000Y-122564000D03*
X161169000Y-122564000D03*
%TD*%
D38*
%TO.C,C57*%
X173869000Y-113664000D03*
X174829000Y-113664000D03*
%TD*%
D98*
%TO.C,C59*%
X185609000Y-124979000D03*
X185609000Y-123429000D03*
%TD*%
D97*
%TO.C,C17*%
X193297249Y-104132249D03*
X194640751Y-105475751D03*
%TD*%
D48*
%TO.C,R55*%
X167249000Y-121164000D03*
X167249000Y-120144000D03*
%TD*%
D99*
%TO.C,R8*%
X159249624Y-82483376D03*
X158528376Y-83204624D03*
%TD*%
D40*
%TO.C,C11*%
X184639000Y-90334000D03*
X184639000Y-91294000D03*
%TD*%
D54*
%TO.C,Q9*%
X188829000Y-120054000D03*
X187879000Y-122454000D03*
X189779000Y-122454000D03*
%TD*%
D58*
%TO.C,C8*%
X149419589Y-101724589D03*
X150098411Y-102403411D03*
%TD*%
D29*
%TO.C,R124*%
X173055000Y-111429000D03*
X172035000Y-111429000D03*
%TD*%
D80*
%TO.C,C4*%
X147397008Y-103215992D03*
X146300992Y-104312008D03*
%TD*%
D48*
%TO.C,R79*%
X121449000Y-93144000D03*
X121449000Y-92124000D03*
%TD*%
%TO.C,R43*%
X184059000Y-110344000D03*
X184059000Y-109324000D03*
%TD*%
D100*
%TO.C,J12*%
X143676500Y-125221500D03*
D101*
X146026500Y-110121500D03*
X157176500Y-114421500D03*
D102*
X157176500Y-124771500D03*
D103*
X156226500Y-110121500D03*
D104*
X157176500Y-120621500D03*
D103*
X155276500Y-110121500D03*
X154176500Y-110121500D03*
X153076500Y-110121500D03*
X151976500Y-110121500D03*
X150876500Y-110121500D03*
X149776500Y-110121500D03*
X148676500Y-110121500D03*
X147576500Y-110121500D03*
%TD*%
D48*
%TO.C,R56*%
X193189000Y-102634000D03*
X193189000Y-101614000D03*
%TD*%
D38*
%TO.C,C46*%
X128569000Y-77134000D03*
X129529000Y-77134000D03*
%TD*%
D49*
%TO.C,R70*%
X164254000Y-113594000D03*
X165904000Y-113594000D03*
%TD*%
D105*
%TO.C,R88*%
X157078376Y-83193376D03*
X157799624Y-83914624D03*
%TD*%
D48*
%TO.C,R13*%
X184629000Y-87734000D03*
X184629000Y-86714000D03*
%TD*%
D59*
%TO.C,R10*%
X159178376Y-83854624D03*
X159899624Y-83133376D03*
%TD*%
%TO.C,R58*%
X193838376Y-100764624D03*
X194559624Y-100043376D03*
%TD*%
D106*
%TO.C,D1*%
X197199000Y-76769000D03*
X197199000Y-74619000D03*
%TD*%
D86*
%TO.C,R99*%
X175406000Y-114888000D03*
X173756000Y-114888000D03*
%TD*%
D35*
%TO.C,R45*%
X182659000Y-118764000D03*
X182659000Y-119784000D03*
%TD*%
D107*
%TO.C,U24*%
X160749000Y-119299000D03*
X160749000Y-119949000D03*
X160749000Y-120599000D03*
X160749000Y-121249000D03*
X165049000Y-121249000D03*
X165049000Y-120599000D03*
X165049000Y-119949000D03*
X165049000Y-119299000D03*
%TD*%
D43*
%TO.C,R129*%
X197739000Y-123174000D03*
X198759000Y-123174000D03*
%TD*%
%TO.C,R118*%
X174559000Y-105824000D03*
X175579000Y-105824000D03*
%TD*%
D108*
%TO.C,R142*%
X191859000Y-123999000D03*
X191859000Y-125649000D03*
%TD*%
D56*
%TO.C,U10*%
X123014000Y-102189000D03*
X123014000Y-103459000D03*
X123014000Y-104729000D03*
X123014000Y-105999000D03*
X128264000Y-105999000D03*
X128264000Y-104729000D03*
X128264000Y-103459000D03*
X128264000Y-102189000D03*
%TD*%
D72*
%TO.C,J7*%
X188264000Y-80254000D03*
X189514000Y-80254000D03*
D71*
X185714000Y-77354000D03*
X192064000Y-77354000D03*
%TD*%
D48*
%TO.C,R54*%
X159529000Y-121774000D03*
X159529000Y-120754000D03*
%TD*%
D36*
%TO.C,C64*%
X130969000Y-81984000D03*
X132869000Y-81984000D03*
%TD*%
D86*
%TO.C,R69*%
X165904000Y-112224000D03*
X164254000Y-112224000D03*
%TD*%
D50*
%TO.C,C40*%
X176709000Y-93324000D03*
X175749000Y-93324000D03*
%TD*%
D49*
%TO.C,R68*%
X164254000Y-110844000D03*
X165904000Y-110844000D03*
%TD*%
D29*
%TO.C,R65*%
X179169000Y-100014000D03*
X178149000Y-100014000D03*
%TD*%
%TO.C,R83*%
X119209000Y-90484000D03*
X118189000Y-90484000D03*
%TD*%
D43*
%TO.C,R47*%
X182373000Y-116543000D03*
X183393000Y-116543000D03*
%TD*%
D98*
%TO.C,C21*%
X187597000Y-114178000D03*
X187597000Y-112628000D03*
%TD*%
D48*
%TO.C,R97*%
X196999000Y-90034000D03*
X196999000Y-89014000D03*
%TD*%
D43*
%TO.C,R22*%
X192349000Y-91154000D03*
X193369000Y-91154000D03*
%TD*%
D29*
%TO.C,R42*%
X180979000Y-82234000D03*
X179959000Y-82234000D03*
%TD*%
D109*
%TO.C,U23*%
X161621500Y-123834000D03*
X161621500Y-125734000D03*
X163896500Y-125734000D03*
X163896500Y-124784000D03*
X163896500Y-123834000D03*
%TD*%
D59*
%TO.C,R6*%
X159838376Y-84514624D03*
X160559624Y-83793376D03*
%TD*%
D49*
%TO.C,R77*%
X130024000Y-94934000D03*
X131674000Y-94934000D03*
%TD*%
%TO.C,R11*%
X188194000Y-83804000D03*
X189844000Y-83804000D03*
%TD*%
D36*
%TO.C,C68*%
X176769003Y-108184000D03*
X178669003Y-108184000D03*
%TD*%
D74*
%TO.C,C62*%
X165018411Y-91313411D03*
X164339589Y-90634589D03*
%TD*%
D50*
%TO.C,C41*%
X176709000Y-92464000D03*
X175749000Y-92464000D03*
%TD*%
D43*
%TO.C,R46*%
X186919000Y-115304000D03*
X187939000Y-115304000D03*
%TD*%
D33*
%TO.C,Q32*%
X186346500Y-116754000D03*
X184471500Y-115804000D03*
X184471500Y-117704000D03*
%TD*%
D110*
%TO.C,C18*%
X192791500Y-98884000D03*
X186566500Y-98884000D03*
%TD*%
D38*
%TO.C,C28*%
X120469000Y-112824000D03*
X121429000Y-112824000D03*
%TD*%
D83*
%TO.C,C66*%
X176939003Y-109949002D03*
X176939003Y-112899002D03*
%TD*%
D48*
%TO.C,R57*%
X158609000Y-121764000D03*
X158609000Y-120744000D03*
%TD*%
D38*
%TO.C,C54*%
X131839000Y-85054000D03*
X132799000Y-85054000D03*
%TD*%
D49*
%TO.C,R41*%
X130024000Y-100334000D03*
X131674000Y-100334000D03*
%TD*%
M02*
