M48
; DRILL file {KiCad 7.0.11} date Sat Jul 19 14:24:56 2025
; FORMAT={-:-/ absolute / inch / decimal}
; #@! TF.CreationDate,2025-07-19T14:24:56+09:00
; #@! TF.GenerationSoftware,Kicad,Pcbnew,7.0.11
; #@! TF.FileFunction,Plated,1,4,PTH
FMAT,2
INCH
; #@! TA.AperFunction,Plated,PTH,ViaDrill
T1C0.0118
; #@! TA.AperFunction,Plated,PTH,ComponentDrill
T2C0.0236
; #@! TA.AperFunction,Plated,PTH,ComponentDrill
T3C0.0256
; #@! TA.AperFunction,Plated,PTH,ComponentDrill
T4C0.0315
; #@! TA.AperFunction,Plated,PTH,ComponentDrill
T5C0.0350
; #@! TA.AperFunction,Plated,PTH,ComponentDrill
T6C0.0394
; #@! TA.AperFunction,Plated,PTH,ComponentDrill
T7C0.0618
%
G90
G05
T1
X4.4193Y-3.9742
X4.4232Y-2.9069
X4.4232Y-3.1037
X4.4232Y-3.3006
X4.4232Y-3.4974
X4.4232Y-3.6943
X4.4232Y-3.8911
X4.4232Y-4.088
X4.4232Y-4.2848
X4.4232Y-4.4423
X4.4232Y-4.6785
X4.4232Y-4.8754
X4.4278Y-3.8031
X4.4677Y-4.5246
X4.483Y-4.8261
X4.4835Y-4.2781
X4.4858Y-4.6238
X4.4889Y-3.5824
X4.4996Y-5.0143
X4.5055Y-3.4852
X4.5055Y-4.0348
X4.5098Y-2.8439
X4.522Y-4.7214
X4.5252Y-3.4104
X4.5259Y-3.8706
X4.5271Y-3.6616
X4.5279Y-3.9502
X4.5303Y-3.2887
X4.5309Y-3.8264
X4.5322Y-3.0978
X4.533Y-2.9057
X4.5456Y-3.582
X4.5543Y-4.5486
X4.5547Y-4.6604
X4.557Y-4.7604
X4.5657Y-4.949
X4.5665Y-4.4431
X4.5681Y-3.5025
X4.5719Y-4.0798
X4.5732Y-4.2494
X4.5775Y-2.9053
X4.5834Y-3.0679
X4.5834Y-3.2647
X4.5838Y-4.1639
X4.5862Y-3.4128
X4.5937Y-4.3265
X4.5996Y-3.5817
X4.6015Y-4.6202
X4.6019Y-4.5009
X4.6023Y-4.01
X4.6025Y-4.2914
X4.6027Y-4.4021
X4.6028Y-4.0414
X4.6031Y-4.2128
X4.6051Y-2.8403
X4.6078Y-3.4687
X4.6165Y-4.7009
X4.6195Y-3.5552
X4.6224Y-4.8718
X4.6299Y-3.7742
X4.6461Y-3.6689
X4.6462Y-3.6391
X4.6464Y-2.9943
X4.6475Y-3.5631
X4.6475Y-4.5413
X4.6483Y-4.5956
X4.6486Y-3.5964
X4.6496Y-3.5116
X4.6498Y-4.4524
X4.6502Y-4.3545
X4.6506Y-4.6591
X4.6507Y-3.795
X4.6515Y-3.736
X4.6523Y-3.1191
X4.6685Y-3.284
X4.6913Y-3.4872
X4.6913Y-4.1194
X4.6925Y-3.4226
X4.6927Y-3.6383
X4.6929Y-4.1793
X4.6933Y-3.5624
X4.6935Y-3.5961
X4.6952Y-2.838
X4.6976Y-4.7002
X4.7011Y-5.01
X4.7033Y-3.6783
X4.7122Y-3.9209
X4.7122Y-4.6411
X4.7127Y-3.9587
X4.7149Y-4.0769
X4.7208Y-4.2065
X4.7271Y-2.8946
X4.7273Y-4.3976
X4.7275Y-3.5612
X4.7275Y-3.8053
X4.728Y-4.4567
X4.7283Y-3.295
X4.7283Y-3.421
X4.7283Y-4.7305
X4.7317Y-4.0162
X4.7319Y-3.0431
X4.733Y-4.147
X4.7338Y-3.4856
X4.7348Y-3.7368
X4.7366Y-4.1836
X4.7368Y-3.9777
X4.7397Y-3.1549
X4.7433Y-4.5773
X4.7448Y-3.5939
X4.7448Y-3.7712
X4.7468Y-3.6352
X4.7468Y-4.8218
X4.7492Y-4.4876
X4.7559Y-4.3549
X4.7685Y-3.6943
X4.7712Y-4.6183
X4.7722Y-4.6781
X4.7791Y-3.012
X4.7795Y-3.4265
X4.7799Y-4.8206
X4.7815Y-2.8411
X4.7838Y-4.7356
X4.785Y-4.7852
X4.7863Y-4.5671
X4.7937Y-3.5513
X4.7976Y-3.9395
X4.7977Y-3.983
X4.7993Y-3.7376
X4.7994Y-3.7711
X4.8055Y-4.4037
X4.8078Y-4.5907
X4.809Y-3.4809
X4.8102Y-4.1939
X4.8123Y-4.6243
X4.8169Y-2.9069
X4.8169Y-3.3006
X4.8169Y-3.9612
X4.8177Y-4.9135
X4.836Y-4.7321
X4.8378Y-4.1659
X4.8396Y-4.3633
X4.8543Y-3.1604
X4.8594Y-3.4242
X4.8611Y-4.3863
X4.8614Y-3.7698
X4.8618Y-3.7344
X4.8622Y-4.7326
X4.8633Y-4.5868
X4.8641Y-3.9446
X4.8641Y-3.9824
X4.8838Y-3.2124
X4.8909Y-3.0525
X4.8937Y-4.4831
X4.9035Y-3.6337
X4.9035Y-3.6655
X4.91Y-4.6252
X4.9106Y-2.8443
X4.9106Y-3.1458
X4.9141Y-4.7954
X4.9248Y-3.6072
X4.9279Y-3.2663
X4.9399Y-4.1461
X4.9417Y-4.0726
X4.9422Y-3.651
X4.9425Y-5.0131
X4.9433Y-3.9793
X4.9436Y-3.727
X4.9444Y-3.8116
X4.9444Y-3.8616
X4.9448Y-4.8462
X4.9578Y-4.7738
X4.9584Y-4.1666
X4.9602Y-4.7336
X4.961Y-3.4135
X4.974Y-3.9104
X4.9754Y-3.4878
X4.9763Y-4.0242
X4.9791Y-4.2053
X4.9811Y-3.0167
X4.9935Y-4.514
X4.9948Y-3.7596
X4.9952Y-3.9576
X4.9976Y-3.8128
X4.9979Y-4.694
X4.9988Y-4.0021
X4.9991Y-3.6661
X4.9992Y-3.862
X5.0007Y-3.6065
X5.0037Y-4.2166
X5.0074Y-3.5777
X5.0098Y-3.1443
X5.0133Y-3.2155
X5.0137Y-2.9069
X5.0137Y-3.3006
X5.0148Y-4.0264
X5.0191Y-3.4378
X5.02Y-3.0935
X5.0253Y-4.6571
X5.0289Y-4.2211
X5.0324Y-3.5511
X5.033Y-4.736
X5.0448Y-4.793
X5.047Y-3.9601
X5.0498Y-4.1732
X5.0502Y-3.8133
X5.0543Y-3.5726
X5.0551Y-4.9265
X5.0555Y-4.8407
X5.059Y-3.408
X5.0696Y-2.9915
X5.0716Y-3.5191
X5.0838Y-3.6041
X5.0891Y-4.5684
X5.0902Y-3.8882
X5.0929Y-4.3076
X5.0937Y-3.7848
X5.0941Y-3.5706
X5.0951Y-4.515
X5.0984Y-4.4294
X5.0986Y-4.2217
X5.1Y-3.7037
X5.1086Y-3.3631
X5.1126Y-3.2187
X5.113Y-3.2907
X5.1165Y-3.4694
X5.1177Y-2.8411
X5.1191Y-3.7376
X5.1196Y-4.4717
X5.1204Y-3.1439
X5.1216Y-2.9336
X5.1232Y-3.0765
X5.1248Y-3.008
X5.137Y-4.1994
X5.1441Y-3.7793
X5.1488Y-3.6309
X5.1515Y-4.1671
X5.1515Y-4.3871
X5.1554Y-4.0502
X5.1559Y-4.6788
X5.161Y-4.3037
X5.1653Y-4.8561
X5.1657Y-3.5592
X5.1689Y-5.0112
X5.1728Y-4.4723
X5.1769Y-4.4294
X5.1787Y-3.4112
X5.1795Y-3.4679
X5.1822Y-4.634
X5.1846Y-3.312
X5.1846Y-4.2517
X5.1854Y-3.6049
X5.1897Y-3.2194
X5.1937Y-3.8112
X5.2017Y-4.2346
X5.2069Y-4.3432
X5.2106Y-2.9069
X5.2157Y-4.837
X5.2172Y-4.6072
X5.2189Y-4.2531
X5.2196Y-3.7572
X5.2263Y-4.647
X5.2291Y-4.2296
X5.2306Y-4.6922
X5.2342Y-2.9572
X5.236Y-4.4296
X5.239Y-4.7383
X5.2472Y-3.825
X5.2472Y-4.2076
X5.2472Y-4.2591
X5.2524Y-4.5242
X5.2531Y-3.6604
X5.2556Y-4.0252
X5.2563Y-3.586
X5.2563Y-3.925
X5.257Y-3.8809
X5.257Y-4.5966
X5.2591Y-4.3872
X5.2596Y-3.9809
X5.2684Y-4.4742
X5.2693Y-3.7494
X5.27Y-3.3116
X5.27Y-4.9092
X5.2703Y-4.0043
X5.2708Y-4.0459
X5.2724Y-3.4679
X5.2759Y-3.3931
X5.2842Y-3.9045
X5.2844Y-4.8053
X5.2858Y-3.9596
X5.287Y-3.825
X5.2881Y-4.0647
X5.2901Y-4.5624
X5.2909Y-3.2628
X5.2915Y-4.4313
X5.2921Y-3.9305
X5.2925Y-4.1037
X5.2925Y-4.1509
X5.2925Y-4.1982
X5.2925Y-4.2454
X5.2925Y-4.2927
X5.2974Y-2.8847
X5.2976Y-4.6458
X5.3092Y-4.5135
X5.311Y-2.8423
X5.3118Y-3.095
X5.3189Y-3.4289
X5.32Y-4.6929
X5.32Y-3.5667
X5.3204Y-3.6163
X5.3208Y-3.5151
X5.3216Y-3.7238
X5.3216Y-3.7722
X5.3216Y-3.8175
X5.322Y-3.6718
X5.3263Y-3.3159
X5.328Y-4.3942
X5.3287Y-3.0588
X5.3291Y-3.2628
X5.335Y-4.4719
X5.3357Y-4.7385
X5.3429Y-4.6017
X5.3496Y-4.2092
X5.3496Y-4.234
X5.3498Y-4.1147
X5.3498Y-4.1395
X5.35Y-4.5554
X5.3519Y-3.2781
X5.3567Y-3.3962
X5.3674Y-2.9502
X5.3676Y-4.4319
X5.3689Y-4.6479
X5.3721Y-4.3685
X5.3733Y-4.5127
X5.3737Y-3.0992
X5.3803Y-4.7813
X5.3803Y-5.0092
X5.3819Y-3.3175
X5.3925Y-4.2565
X5.3925Y-4.2813
X5.3933Y-4.162
X5.3933Y-4.1868
X5.3944Y-3.4364
X5.3948Y-3.273
X5.4067Y-3.3013
X5.4074Y-2.9069
X5.4105Y-4.467
X5.4181Y-4.873
X5.42Y-4.6943
X5.4212Y-4.4138
X5.4228Y-3.1485
X5.4295Y-4.7391
X5.4309Y-4.3703
X5.4322Y-3.3958
X5.434Y-3.012
X5.437Y-3.3147
X5.4448Y-3.4242
X5.4549Y-3.514
X5.455Y-3.4568
X5.4561Y-3.5395
X5.4594Y-4.558
X5.4641Y-4.6013
X5.4641Y-4.6486
X5.4736Y-3.5572
X5.4783Y-3.4092
X5.4811Y-4.5147
X5.4846Y-4.41
X5.4881Y-4.373
X5.4902Y-4.7895
X5.4917Y-4.4691
X5.4968Y-4.9565
X5.4975Y-2.9077
X5.4976Y-3.6317
X5.4985Y-3.0714
X5.5055Y-2.8423
X5.5088Y-3.4726
X5.5088Y-3.4982
X5.5122Y-4.2856
X5.5149Y-3.4352
X5.5152Y-3.5671
X5.5152Y-3.5927
X5.5157Y-3.6494
X5.524Y-3.397
X5.5277Y-4.6943
X5.5385Y-3.2643
X5.5464Y-4.7391
X5.5539Y-4.2439
X5.5567Y-4.4663
X5.559Y-3.4242
X5.5618Y-4.6478
X5.5652Y-3.1465
X5.5677Y-4.6021
X5.5678Y-4.5581
X5.5728Y-3.462
X5.5728Y-3.5092
X5.5728Y-3.5565
X5.5728Y-3.6037
X5.5728Y-3.6509
X5.574Y-3.699
X5.5759Y-3.7939
X5.5771Y-3.7454
X5.5771Y-3.9817
X5.5771Y-4.0285
X5.5775Y-4.0765
X5.5775Y-4.1222
X5.5787Y-4.5147
X5.5799Y-3.9344
X5.5799Y-4.1694
X5.5833Y-3.86
X5.5864Y-2.9897
X5.5876Y-3.3137
X5.5909Y-4.895
X5.5921Y-4.4045
X5.5988Y-4.3714
X5.6043Y-2.9069
X5.6059Y-5.012
X5.6074Y-4.2533
X5.6074Y-4.7832
X5.612Y-3.823
X5.6172Y-4.0625
X5.6196Y-4.4679
X5.622Y-3.538
X5.6224Y-3.4911
X5.6226Y-3.9102
X5.6244Y-3.1555
X5.6252Y-3.5939
X5.6288Y-3.7449
X5.6366Y-3.6549
X5.6384Y-4.1845
X5.6405Y-4.4183
X5.641Y-3.0822
X5.6472Y-3.1761
X5.6502Y-4.6943
X5.6506Y-4.1009
X5.6519Y-4.2848
X5.6527Y-3.5683
X5.6531Y-3.5407
X5.6533Y-4.6488
X5.6537Y-4.5579
X5.657Y-4.6013
X5.66Y-4.7391
X5.6625Y-3.7718
X5.6628Y-3.7121
X5.6665Y-3.6202
X5.6682Y-3.8652
X5.6688Y-3.3944
X5.6748Y-4.5793
X5.6771Y-3.2647
X5.6807Y-3.1796
X5.6822Y-3.5687
X5.6858Y-4.9498
X5.6929Y-4.5147
X5.6941Y-2.8419
X5.6944Y-3.8265
X5.6948Y-4.4147
X5.6996Y-4.1435
X5.6997Y-3.4252
X5.7019Y-4.3702
X5.7028Y-3.894
X5.7035Y-3.0092
X5.7098Y-4.5769
X5.7099Y-4.2211
X5.7151Y-4.4972
X5.7248Y-3.6718
X5.7261Y-4.4185
X5.7291Y-3.3159
X5.7317Y-3.4579
X5.7338Y-4.8013
X5.7346Y-4.3269
X5.7397Y-4.5572
X5.7401Y-4.8793
X5.7413Y-4.4809
X5.7419Y-3.8554
X5.7429Y-4.5832
X5.7448Y-4.4387
X5.748Y-3.1506
X5.748Y-3.9423
X5.7513Y-4.6943
X5.757Y-3.0738
X5.7615Y-4.7391
X5.7628Y-3.4889
X5.7635Y-4.6488
X5.7635Y-4.5421
X5.7645Y-3.6305
X5.7652Y-4.6053
X5.7724Y-3.6824
X5.7728Y-3.7376
X5.774Y-4.2907
X5.7763Y-4.3387
X5.7775Y-3.9659
X5.7795Y-3.2631
X5.7799Y-4.145
X5.7834Y-3.8931
X5.7842Y-4.5242
X5.7846Y-4.3872
X5.8011Y-2.9069
X5.8042Y-3.7788
X5.8046Y-3.3932
X5.8051Y-3.9403
X5.8078Y-3.0111
X5.8151Y-3.3144
X5.8191Y-3.1825
X5.8196Y-3.9951
X5.822Y-3.6887
X5.8306Y-3.4187
X5.8307Y-4.1012
X5.8319Y-3.7435
X5.833Y-3.5588
X5.8397Y-4.2313
X5.8437Y-3.9726
X5.8456Y-4.4387
X5.8464Y-4.523
X5.8474Y-4.4812
X5.8476Y-3.8112
X5.849Y-4.6053
X5.8494Y-4.0246
X5.8534Y-4.6488
X5.8541Y-4.3511
X5.8563Y-5.0167
X5.8574Y-2.8454
X5.8618Y-4.7836
X5.8633Y-3.5891
X5.8646Y-4.6943
X5.8673Y-4.7391
X5.8708Y-3.7403
X5.8724Y-4.3915
X5.8728Y-3.8513
X5.8735Y-3.1101
X5.8752Y-4.0592
X5.8799Y-3.313
X5.8811Y-4.8903
X5.8821Y-3.2607
X5.8893Y-4.2509
X5.8902Y-4.2826
X5.896Y-4.1604
X5.8965Y-3.8666
X5.8969Y-3.6229
X5.8984Y-2.9647
X5.9019Y-3.4899
X5.9021Y-4.3052
X5.9039Y-3.1624
X5.9094Y-4.0316
X5.9173Y-3.8216
X5.9181Y-3.7852
X5.9228Y-4.1317
X5.9262Y-3.3165
X5.9281Y-3.6541
X5.9284Y-3.246
X5.9284Y-3.9054
X5.9346Y-3.5222
X5.9366Y-3.1117
X5.9378Y-3.0293
X5.938Y-4.0461
X5.9437Y-3.4486
X5.9441Y-4.4383
X5.9445Y-4.6488
X5.9446Y-4.6053
X5.9456Y-4.523
X5.9487Y-4.4812
X5.9531Y-3.1624
X5.9637Y-4.6943
X5.9637Y-4.3895
X5.9638Y-4.7391
X5.9649Y-3.8324
X5.9656Y-3.5537
X5.9683Y-3.9046
X5.9688Y-3.9333
X5.9736Y-4.8935
X5.974Y-3.4187
X5.9752Y-3.701
X5.9763Y-3.8772
X5.9763Y-3.4809
X5.9767Y-4.7998
X5.9783Y-3.2706
X5.9874Y-3.1639
X5.9885Y-4.2041
X5.9901Y-4.2572
X5.9913Y-4.1214
X5.9944Y-4.3789
X5.9956Y-2.8427
X5.9971Y-3.5851
X5.9976Y-2.9565
X5.998Y-3.1037
X6.007Y-3.4521
X6.0074Y-3.512
X6.0082Y-3.3931
X6.0118Y-4.1805
X6.0135Y-3.7387
X6.0149Y-3.8844
X6.0166Y-3.9691
X6.0175Y-3.2503
X6.0266Y-4.2403
X6.0279Y-4.1569
X6.0283Y-4.3273
X6.0295Y-4.1982
X6.0346Y-4.084
X6.0374Y-4.649
X6.0378Y-3.4828
X6.0383Y-3.6256
X6.0392Y-3.5441
X6.0421Y-3.41
X6.046Y-4.6943
X6.0466Y-4.7391
X6.0491Y-3.7742
X6.0495Y-3.2714
X6.0534Y-4.0166
X6.054Y-4.523
X6.0543Y-4.4813
X6.0547Y-4.4387
X6.0549Y-4.6053
X6.0586Y-3.9301
X6.0602Y-4.084
X6.0637Y-4.1104
X6.0665Y-3.4374
X6.0677Y-3.1458
X6.068Y-3.5134
X6.0708Y-4.7813
X6.0712Y-3.2431
X6.0716Y-5.0155
X6.072Y-4.2926
X6.079Y-3.5837
X6.0791Y-3.6666
X6.0811Y-3.2943
X6.0865Y-4.271
X6.0866Y-4.0301
X6.0894Y-3.8151
X6.0899Y-3.3409
X6.0905Y-4.1104
X6.0939Y-3.4574
X6.1085Y-3.5533
X6.1097Y-3.4837
X6.1132Y-4.3305
X6.1161Y-4.9021
X6.1165Y-3.9856
X6.1178Y-3.6229
X6.1204Y-3.7079
X6.1212Y-4.6939
X6.1213Y-4.7391
X6.1225Y-4.6053
X6.1229Y-4.6488
X6.1235Y-4.2065
X6.1296Y-3.855
X6.1306Y-3.3842
X6.1433Y-4.1239
X6.1437Y-3.1643
X6.1456Y-3.2454
X6.1492Y-3.5202
X6.1498Y-3.5949
X6.1523Y-4.2365
X6.1551Y-4.5265
X6.1587Y-3.7462
X6.1597Y-3.8854
X6.1602Y-3.665
X6.1626Y-4.4813
X6.1633Y-4.4391
X6.1644Y-3.418
X6.1774Y-4.27
X6.1795Y-4.9147
X6.1826Y-3.2883
X6.1838Y-4.7911
X6.1842Y-4.6943
X6.1893Y-3.5612
X6.1895Y-3.6343
X6.1903Y-3.9165
X6.1971Y-4.133
X6.1979Y-3.7855
X6.2007Y-3.4519
X6.2007Y-3.7056
X6.201Y-4.0704
X6.2137Y-4.293
X6.2137Y-3.1474
X6.2155Y-5.0091
X6.22Y-3.3017
X6.2269Y-3.8147
X6.227Y-4.1618
X6.2279Y-3.5998
X6.2296Y-4.1885
X6.23Y-3.6751
X6.231Y-4.0991
X6.233Y-4.2146
X6.234Y-3.5405
X6.2394Y-3.7443
X6.2417Y-4.4813
X6.2421Y-4.4383
X6.2442Y-4.6053
X6.2446Y-3.3372
X6.246Y-4.6935
X6.2462Y-4.3197
X6.2468Y-4.7848
X6.2468Y-4.8474
X6.248Y-3.2423
X6.2504Y-4.899
X6.2511Y-4.649
X6.2519Y-4.5265
X6.2555Y-3.562
X6.2556Y-3.5064
X6.2596Y-4.1291
X6.2599Y-3.3577
X6.2602Y-3.8478
X6.2645Y-3.6383
X6.2682Y-3.7732
X6.2689Y-4.357
X6.2691Y-3.7141
X6.2728Y-3.9985
X6.2763Y-3.5828
X6.2783Y-4.2286
X6.2844Y-4.4807
X6.2868Y-4.4385
X6.2879Y-3.3589
X6.2893Y-3.1647
X6.29Y-4.1576
X6.2914Y-3.3846
X6.2916Y-3.5436
X6.2921Y-4.6053
X6.2933Y-5.0183
X6.2944Y-4.6496
X6.2968Y-3.6033
X6.2983Y-3.7433
X6.3002Y-3.8048
X6.3022Y-4.0278
X6.3024Y-4.2638
X6.3082Y-3.2521
X6.3118Y-3.6726
X6.3149Y-4.8238
X6.3188Y-4.1877
X6.3191Y-3.3862
X6.3191Y-4.909
X6.3226Y-3.412
X6.3246Y-3.5774
X6.3259Y-3.7088
X6.3305Y-3.7752
X6.3313Y-4.0574
X6.3358Y-4.6494
X6.3365Y-4.2914
X6.3422Y-3.9292
X6.3455Y-3.7269
X6.3482Y-4.4237
X6.3487Y-3.5998
X6.3489Y-4.2172
X6.3551Y-3.1458
X6.3564Y-3.4076
X6.3611Y-4.0865
X6.3653Y-4.9797
X6.3687Y-4.3272
X6.3693Y-3.2521
X6.3713Y-3.9587
X6.3727Y-3.7337
X6.3774Y-4.2501
X6.3813Y-4.4012
X6.3834Y-3.888
X6.3885Y-4.6054
X6.3903Y-4.1164
X6.3905Y-4.792
X6.3956Y-3.7101
X6.3983Y-3.4039
X6.4004Y-3.9883
X6.4085Y-4.9021
X6.4088Y-4.9493
X6.4094Y-4.8587
X6.4104Y-4.3613
X6.4128Y-3.9173
X6.4131Y-3.8582
X6.4185Y-4.7376
X6.4188Y-4.2728
X6.419Y-4.4809
X6.4203Y-4.1456
X6.422Y-3.4417
X6.424Y-4.6745
X6.4281Y-4.79
X6.43Y-4.0175
X6.4303Y-3.1572
X6.4366Y-3.2521
X6.4369Y-3.7088
X6.4419Y-3.9468
X6.4424Y-3.8876
X6.4519Y-4.5291
X6.4595Y-4.0473
X6.4715Y-3.9761
X6.4719Y-3.9169
X6.4798Y-4.4994
X6.4839Y-3.5948
X6.485Y-4.847
X6.4854Y-4.9096
X6.4881Y-4.7801
X6.4916Y-4.5483
X6.4933Y-3.778
X6.4975Y-4.4636
X6.4985Y-4.2724
X6.4991Y-4.342
X6.5008Y-4.0057
X6.5013Y-3.9463
X6.5023Y-4.9785
X6.5105Y-3.627
X6.5113Y-4.6461
X6.512Y-4.0987
X6.518Y-3.5715
X6.5221Y-3.5462
X6.5226Y-3.8074
X6.523Y-4.5756
X6.5308Y-3.9758
X6.5317Y-4.4494
X6.5319Y-4.5079
X6.5374Y-3.4663
X6.5405Y-4.3006
X6.5415Y-3.5244
X6.5459Y-4.6939
X6.5487Y-3.6029
X6.5511Y-3.2309
X6.552Y-3.8367
X6.5536Y-4.6039
X6.5539Y-4.7588
X6.5562Y-3.1644
X6.5581Y-4.5404
X6.559Y-4.0338
X6.5615Y-3.4856
X6.5673Y-4.3326
X6.5685Y-4.4015
X6.5706Y-4.2705
X6.5727Y-3.8748
X6.5728Y-3.4211
X6.5803Y-4.8939
X6.5815Y-3.2092
X6.5846Y-4.7702
X6.5884Y-3.4881
X6.5972Y-4.7998
X6.5994Y-4.3607
X6.6018Y-4.0966
X6.6118Y-3.5966
X6.6141Y-3.5228
X6.6149Y-4.66
X6.6177Y-3.9925
X6.6196Y-3.2506
X6.6202Y-3.8865
X6.6207Y-4.0501
X6.6207Y-4.0759
X6.6211Y-4.5995
X6.6232Y-2.847
X6.6236Y-3.1139
X6.6265Y-4.472
X6.6283Y-2.9687
X6.6294Y-4.2705
X6.6295Y-4.5279
X6.6342Y-3.1954
X6.6424Y-4.3974
X6.6433Y-3.597
X6.644Y-3.9921
X6.6496Y-3.2502
X6.65Y-4.3167
X6.6523Y-4.7683
X6.6535Y-4.9805
X6.6556Y-4.7285
X6.6559Y-4.5622
X6.658Y-3.4808
X6.6649Y-4.8872
X6.6685Y-3.5966
X6.6689Y-3.2681
X6.6696Y-3.9925
X6.6732Y-4.6773
X6.6735Y-4.4843
X6.6799Y-3.5734
X6.682Y-3.6531
X6.685Y-4.6218
X6.6866Y-4.2813
X6.687Y-4.7053
X6.6905Y-3.9507
X6.6913Y-4.7545
X6.6985Y-4.3413
X6.6997Y-3.6353
X6.7002Y-4.5499
X6.7011Y-3.082
X6.7026Y-3.9925
X6.7035Y-4.8041
X6.7047Y-3.1387
X6.7059Y-3.908
X6.7098Y-3.1899
X6.71Y-4.508
X6.7112Y-4.4463
X6.7164Y-3.95
X6.717Y-3.7454
X6.7177Y-3.5911
X6.7178Y-3.6172
X6.7187Y-4.3798
X6.7204Y-4.247
X6.7212Y-3.7712
X6.7216Y-3.2509
X6.7259Y-4.5832
X6.7291Y-4.8864
X6.7331Y-3.6816
X6.7332Y-3.7245
X6.7336Y-3.9082
X6.7336Y-3.4511
X6.7342Y-3.1336
X6.7346Y-4.1183
X6.7351Y-3.9925
X6.7351Y-4.0338
X6.7409Y-4.6765
X6.7448Y-4.5454
X6.7449Y-4.2228
X6.7456Y-3.0344
X6.7456Y-4.8163
X6.7492Y-4.4748
X6.7495Y-4.408
X6.7539Y-2.923
X6.7541Y-4.2858
X6.7578Y-4.3407
X6.7586Y-4.7639
X6.7815Y-4.9801
X6.7843Y-4.3143
X6.7866Y-3.132
X6.787Y-4.2214
X6.7875Y-4.25
X6.7876Y-4.4315
X6.7901Y-4.1706
X6.7901Y-4.467
X6.7909Y-4.0599
X6.7909Y-4.1231
X6.7943Y-3.8643
X6.795Y-3.9434
X6.7953Y-3.4756
X6.796Y-3.2016
X6.7967Y-4.3606
X6.7973Y-3.8389
X6.8023Y-2.8466
X6.8031Y-3.4511
X6.805Y-3.0805
X6.8057Y-3.5525
X6.8082Y-3.9133
X6.8094Y-4.6966
X6.8103Y-4.2882
X6.8157Y-4.7612
X6.8181Y-3.2502
X6.8196Y-3.1868
X6.8268Y-3.7266
X6.8283Y-3.7011
X6.8293Y-3.4511
X6.8363Y-4.675
X6.8381Y-4.7122
X6.844Y-3.9998
X6.8456Y-4.8029
X6.8502Y-3.9187
X6.8507Y-3.6824
X6.8515Y-4.3886
X6.8519Y-3.145
X6.8539Y-3.9482
X6.8541Y-3.8176
X6.8541Y-3.8934
X6.8543Y-3.6565
X6.8546Y-3.709
X6.8547Y-3.7572
X6.8547Y-3.9765
X6.8549Y-3.4511
X6.855Y-3.8668
X6.855Y-3.7866
X6.86Y-4.9345
X6.8627Y-4.5881
X6.8634Y-4.625
X6.866Y-3.2049
X6.872Y-4.2806
X6.8722Y-4.5037
X6.8853Y-4.7148
X6.896Y-3.0832
X6.8997Y-4.8501
X6.9041Y-4.9003
X6.9055Y-4.7805
X6.9114Y-2.9761
X6.9143Y-3.788
X6.9145Y-4.0868
X6.9147Y-4.4804
X6.9151Y-4.649
X6.9158Y-4.0363
X6.9159Y-4.6207
X6.916Y-4.1367
X6.9161Y-3.6336
X6.9163Y-3.9046
X6.9168Y-3.9311
X6.9168Y-4.678
X6.9169Y-3.6801
X6.9193Y-4.2926
X6.9214Y-4.0622
X6.9214Y-4.1115
X6.9215Y-3.8437
X6.9236Y-3.8128
X6.9244Y-4.984
X6.9273Y-3.881
X6.9283Y-3.7065
X6.9293Y-3.611
X6.9295Y-3.6553
X6.9335Y-4.9117
X6.9346Y-3.7714
X6.937Y-4.5584
X6.942Y-3.2511
X6.9431Y-3.9039
X6.9555Y-3.1252
X6.9598Y-3.0147
X6.9599Y-3.8076
X6.96Y-3.4669
X6.9649Y-2.9143
X6.9842Y-3.1257
X6.9889Y-3.4701
X6.99Y-3.6007
X6.9914Y-4.6861
X6.9917Y-3.6431
X6.9917Y-3.6706
X6.9917Y-3.6982
X6.9917Y-3.7257
X6.9917Y-3.7533
X6.9917Y-3.7809
X6.9948Y-2.8478
X7.0109Y-4.9617
X7.0159Y-3.2065
X7.0193Y-3.6431
X7.0193Y-3.6706
X7.0193Y-3.6982
X7.0193Y-3.7257
X7.0193Y-3.7533
X7.0193Y-3.7809
X7.0206Y-3.4991
X7.0348Y-3.145
X7.0348Y-3.2484
X7.0388Y-5.0019
X7.0457Y-3.4874
X7.0468Y-3.6431
X7.0468Y-3.6706
X7.0468Y-3.6982
X7.0468Y-3.7257
X7.0468Y-3.7533
X7.0468Y-3.7809
X7.0529Y-4.9206
X7.0555Y-3.4631
X7.0663Y-3.6081
X7.0665Y-3.0502
X7.0669Y-2.884
X7.0669Y-2.9954
X7.0717Y-4.1517
X7.0744Y-3.6431
X7.0744Y-3.6706
X7.0744Y-3.6982
X7.0744Y-3.7257
X7.0744Y-3.7533
X7.0744Y-3.7809
X7.0771Y-3.8809
X7.0787Y-3.1348
X7.0789Y-4.1813
X7.0843Y-3.1889
X7.0856Y-3.5632
X7.0891Y-3.9444
X7.1017Y-3.0773
X7.1058Y-3.5924
X7.1063Y-3.661
X7.1072Y-3.4042
X7.1096Y-4.9359
X7.1177Y-3.6976
X7.1215Y-3.9107
X7.1216Y-4.1962
X7.1252Y-4.6482
X7.1256Y-3.9406
X7.1295Y-4.998
X7.1374Y-3.1517
X7.1429Y-3.2484
X7.1451Y-3.6969
X7.1454Y-3.2033
X7.1476Y-3.0273
X7.1492Y-2.932
X7.155Y-4.2651
X7.155Y-4.2899
X7.1555Y-3.1045
X7.1562Y-4.2411
X7.1571Y-3.6263
X7.1594Y-3.0537
X7.1622Y-3.0793
X7.1661Y-3.1517
X7.174Y-4.9867
X7.1748Y-3.7145
X7.1793Y-4.2651
X7.1793Y-4.2895
X7.1794Y-4.2407
X7.185Y-3.4464
X7.1909Y-3.1698
X7.1969Y-3.4894
X7.2004Y-2.8419
X7.204Y-3.9092
X7.2098Y-3.2202
X7.2126Y-3.67
X7.2156Y-4.9583
X7.2165Y-3.1411
X7.2204Y-3.515
X7.222Y-3.2466
X7.2261Y-3.4462
X7.2271Y-4.986
X7.2341Y-4.6623
X7.2362Y-4.9021
X7.2364Y-4.5306
X7.2372Y-3.5979
X7.2389Y-4.873
X7.241Y-5.0178
X7.2432Y-4.4175
X7.2446Y-4.3939
X7.2504Y-3.0053
X7.2524Y-3.1837
X7.2555Y-4.4891
X7.2559Y-4.5135
X7.2581Y-4.3734
X7.2637Y-4.4293
X7.2646Y-3.9119
X7.2651Y-4.4015
X7.2693Y-3.0852
X7.2701Y-4.5318
X7.2734Y-3.6252
X7.2799Y-4.4852
X7.2799Y-4.5092
X7.2809Y-4.9531
X7.281Y-4.9008
X7.2817Y-4.4167
X7.2859Y-4.3877
X7.287Y-2.9206
X7.2893Y-3.1431
X7.2935Y-3.5862
X7.296Y-4.5325
X7.3035Y-4.4856
X7.3039Y-4.5092
X7.3094Y-4.5628
X7.3094Y-3.2502
X7.3208Y-4.3596
X7.3215Y-4.9284
X7.3222Y-3.7327
X7.3248Y-3.8478
X7.3248Y-3.8734
X7.3248Y-3.899
X7.3279Y-4.3858
X7.328Y-3.6306
X7.3322Y-3.0297
X7.3428Y-5.0238
X7.3444Y-3.6098
X7.3452Y-3.1402
X7.3496Y-3.0887
X7.3504Y-3.8478
X7.3504Y-3.8734
X7.3504Y-3.899
X7.3563Y-3.6308
X7.358Y-4.3856
X7.3632Y-3.6905
X7.3639Y-4.9511
X7.3759Y-3.8478
X7.3759Y-3.8734
X7.3759Y-3.899
X7.3931Y-3.4032
X7.3992Y-2.8458
X7.3992Y-4.5338
X7.4004Y-4.6277
X7.4015Y-4.7424
X7.4017Y-4.591
X7.4021Y-4.9002
X7.4039Y-4.4352
X7.4094Y-4.8067
X7.4141Y-5.01
X7.4153Y-4.1529
X7.4181Y-4.6092
X7.4193Y-2.9183
X7.4207Y-4.4771
X7.4253Y-3.1454
X7.4255Y-4.6344
X7.4259Y-4.6915
X7.4295Y-3.197
X7.435Y-4.8067
X7.4362Y-3.2718
X7.4366Y-4.5909
X7.4424Y-3.8196
X7.4429Y-3.9006
X7.4429Y-3.8727
X7.4436Y-4.4923
X7.4439Y-4.6175
X7.444Y-3.8452
X7.4468Y-3.0269
X7.4484Y-3.0856
X7.4545Y-4.6858
X7.4563Y-4.3167
X7.4567Y-4.2202
X7.457Y-4.2651
X7.4589Y-3.7969
X7.4627Y-4.9964
X7.4636Y-3.92
X7.4646Y-3.6887
X7.4662Y-3.8939
X7.4665Y-3.8689
X7.4673Y-3.8195
X7.4691Y-3.8447
X7.471Y-4.485
X7.4768Y-4.8965
X7.4797Y-3.784
X7.4811Y-3.3644
X7.4872Y-3.9073
X7.4889Y-3.882
X7.4889Y-2.947
X7.4894Y-3.807
X7.4895Y-3.8582
X7.49Y-3.8319
X7.4901Y-3.1061
X7.4946Y-3.6888
X7.4948Y-4.4624
X7.4952Y-3.1899
X7.4996Y-4.4974
X7.5031Y-4.2206
X7.5033Y-3.7825
X7.5039Y-4.2647
X7.5039Y-4.3155
X7.507Y-3.4254
X7.5076Y-3.4881
X7.5078Y-4.844
X7.5081Y-3.5917
X7.5086Y-4.8698
X7.51Y-3.8693
X7.5102Y-3.8445
X7.5108Y-3.8193
X7.5122Y-4.4769
X7.5126Y-4.5773
X7.5177Y-4.9721
X7.5213Y-3.7985
X7.5226Y-4.5068
X7.5298Y-3.733
X7.5307Y-5.022
X7.5309Y-3.5303
X7.5313Y-3.443
X7.5338Y-2.8946
X7.5342Y-4.484
X7.5347Y-3.8207
X7.5352Y-4.9146
X7.536Y-3.8447
X7.5371Y-3.8702
X7.5456Y-4.4612
X7.546Y-3.8004
X7.5488Y-4.6915
X7.5492Y-4.7152
X7.5496Y-3.0009
X7.55Y-4.5061
X7.5507Y-3.1183
X7.5535Y-4.896
X7.5581Y-3.8327
X7.5595Y-3.857
X7.5606Y-3.1757
X7.5653Y-4.6734
X7.5674Y-3.8096
X7.5704Y-4.4817
X7.5712Y-4.1596
X7.5759Y-3.7407
X7.5775Y-3.3772
X7.5778Y-3.5905
X7.5799Y-3.4411
X7.5833Y-3.8334
X7.5845Y-3.8572
X7.5897Y-3.0789
X7.592Y-3.804
X7.5925Y-2.9443
X7.5962Y-5.017
X7.5974Y-4.9324
X7.5976Y-4.8151
X7.6015Y-3.7715
X7.6067Y-3.0155
X7.6067Y-3.4885
X7.6074Y-2.8431
X7.609Y-3.8454
X7.6091Y-3.8216
X7.6103Y-4.7094
X7.6118Y-3.792
X7.6122Y-4.6683
X7.6126Y-3.2371
X7.613Y-3.197
X7.6197Y-3.4189
X7.6299Y-4.8715
X7.6314Y-3.9671
X7.6326Y-4.6309
X7.6346Y-4.6569
X7.638Y-4.5187
X7.6535Y-4.2855
X7.6559Y-4.5917
X7.6561Y-4.8154
X7.657Y-3.3738
X7.657Y-3.4886
X7.6606Y-3.4439
X7.662Y-3.9641
X7.6623Y-3.5154
X7.6624Y-4.9234
X7.6643Y-4.6659
X7.6658Y-3.6099
X7.6779Y-3.6344
X7.6807Y-4.3065
X7.6807Y-4.334
X7.6834Y-4.2817
X7.6933Y-4.3584
X7.6951Y-5.0157
X7.6977Y-4.8799
X7.698Y-4.9522
X7.7009Y-4.7537
X7.7074Y-4.0211
X7.7074Y-4.3348
X7.7078Y-4.3053
X7.7092Y-3.9733
X7.7114Y-2.8935
X7.7117Y-4.8495
X7.7181Y-3.3546
X7.7208Y-3.4014
X7.7216Y-4.8067
X7.7216Y-3.5218
X7.7224Y-4.358
X7.7225Y-4.8993
X7.7227Y-4.5563
X7.7248Y-3.0368
X7.7252Y-3.5919
X7.729Y-3.3063
X7.7297Y-3.6562
X7.7367Y-3.6265
X7.7416Y-4.9695
X7.7433Y-3.9716
X7.7539Y-2.9891
X7.7543Y-4.8494
X7.7557Y-4.4887
X7.7576Y-4.6676
X7.7664Y-3.9973
X7.7724Y-4.2509
X7.7756Y-2.9033
X7.7757Y-3.3429
X7.7775Y-3.8586
X7.7775Y-3.9088
X7.7795Y-3.8832
X7.7804Y-3.9381
X7.7925Y-3.5098
X7.7929Y-4.1115
X7.7955Y-3.5649
X7.7956Y-3.0356
X7.7957Y-4.3257
X7.7978Y-3.6189
X7.8008Y-4.5934
X7.8015Y-4.0316
X7.8031Y-3.8586
X7.8031Y-3.8832
X7.8031Y-3.9088
X7.8061Y-3.9696
X7.8074Y-2.8466
X7.8078Y-4.9875
X7.8078Y-4.9106
X7.8088Y-4.8815
X7.8108Y-3.3816
X7.8144Y-3.6928
X7.8155Y-4.827
X7.8178Y-4.2788
X7.8181Y-3.5092
X7.821Y-5.0203
X7.821Y-3.2861
X7.822Y-4.3486
X7.8224Y-3.543
X7.824Y-3.6406
X7.8259Y-3.1072
X7.8263Y-4.0741
X7.8291Y-3.9992
X7.8295Y-3.5856
X7.8296Y-3.7645
X7.8301Y-3.9302
X7.8304Y-4.4823
X7.8328Y-3.8761
X7.8364Y-3.8156
X7.8381Y-2.971
X7.8399Y-4.3977
X7.8414Y-4.9334
X7.8452Y-4.1129
X7.8503Y-3.6609
X7.8503Y-3.9676
X7.8539Y-4.3667
X7.8552Y-4.305
X7.8569Y-4.0281
X7.857Y-3.3536
X7.8579Y-3.7104
X7.8585Y-3.6106
X7.8606Y-3.8428
X7.8615Y-3.5628
X7.8627Y-3.7459
X7.8672Y-3.9035
X7.8679Y-3.7864
X7.8826Y-3.2765
X7.8881Y-2.9139
X7.8899Y-4.9469
X7.8903Y-4.1513
X7.891Y-3.9426
X7.8911Y-3.3055
X7.8921Y-3.0616
X7.8921Y-4.0839
X7.8924Y-4.6995
X7.8925Y-4.8115
X7.8926Y-3.9891
X7.893Y-3.6247
X7.8936Y-3.3941
X7.8939Y-3.6766
X7.8943Y-4.5917
X7.8945Y-4.259
X7.8949Y-3.8114
X7.8956Y-3.7355
X7.8957Y-3.5448
X7.8958Y-3.4739
X7.8965Y-4.364
X7.8975Y-4.4801
X7.8982Y-3.8738
T3
X7.2676Y-3.2323
X7.3676Y-3.2323
X7.4676Y-3.2323
X7.6476Y-2.9616
X7.6476Y-3.0116
X7.6476Y-3.0616
X7.6476Y-3.1116
X7.6476Y-3.1616
X7.6476Y-3.2116
X7.6476Y-3.2616
X7.6976Y-2.9616
X7.6976Y-3.0116
X7.6976Y-3.0616
X7.6976Y-3.1116
X7.6976Y-3.1616
X7.6976Y-3.2116
X7.6976Y-3.2616
T4
X5.1653Y-2.9588
X5.1653Y-3.0387
X5.1653Y-3.1187
X5.2653Y-2.9187
X5.2653Y-2.9986
X5.2653Y-3.0785
T5
X4.5555Y-2.8628
X4.5555Y-3.4549
X4.6555Y-2.8628
X4.6555Y-3.4549
T6
X4.5019Y-4.3734
X4.5019Y-4.4734
X4.5019Y-4.5734
X4.5019Y-4.6734
X4.5019Y-4.7734
X4.6382Y-4.7941
X7.0472Y-4.0013
X7.0472Y-4.0998
T7
X4.9055Y-3.5049
T2
G00X7.6368Y-4.4061
M15
G01X7.5935Y-4.4061
M16
G05
G00X7.6368Y-4.7462
M15
G01X7.5935Y-4.7462
M16
G05
G00X7.7962Y-4.4061
M15
G01X7.7647Y-4.4061
M16
G05
G00X7.7962Y-4.7462
M15
G01X7.7647Y-4.7462
M16
G05
M30
