%TF.GenerationSoftware,KiCad,Pcbnew,7.0.11*%
%TF.CreationDate,2025-07-19T14:24:56+09:00*%
%TF.ProjectId,RasPi,52617350-692e-46b6-9963-61645f706362,rev?*%
%TF.SameCoordinates,Original*%
%TF.FileFunction,Soldermask,Top*%
%TF.FilePolarity,Negative*%
%FSLAX46Y46*%
G04 Gerber Fmt 4.6, Leading zero omitted, Abs format (unit mm)*
G04 Created by KiCad (PCBNEW 7.0.11) date 2025-07-19 14:24:56*
%MOMM*%
%LPD*%
G01*
G04 APERTURE LIST*
G04 Aperture macros list*
%AMRoundRect*
0 Rectangle with rounded corners*
0 $1 Rounding radius*
0 $2 $3 $4 $5 $6 $7 $8 $9 X,Y pos of 4 corners*
0 Add a 4 corners polygon primitive as box body*
4,1,4,$2,$3,$4,$5,$6,$7,$8,$9,$2,$3,0*
0 Add four circle primitives for the rounded corners*
1,1,$1+$1,$2,$3*
1,1,$1+$1,$4,$5*
1,1,$1+$1,$6,$7*
1,1,$1+$1,$8,$9*
0 Add four rect primitives between the rounded corners*
20,1,$1+$1,$2,$3,$4,$5,0*
20,1,$1+$1,$4,$5,$6,$7,0*
20,1,$1+$1,$6,$7,$8,$9,0*
20,1,$1+$1,$8,$9,$2,$3,0*%
G04 Aperture macros list end*
%ADD10RoundRect,0.102000X-0.350000X0.100000X-0.350000X-0.100000X0.350000X-0.100000X0.350000X0.100000X0*%
%ADD11R,1.600000X1.400000*%
%ADD12RoundRect,0.102000X0.350000X-0.100000X0.350000X0.100000X-0.350000X0.100000X-0.350000X-0.100000X0*%
%ADD13RoundRect,0.250000X0.750000X-0.600000X0.750000X0.600000X-0.750000X0.600000X-0.750000X-0.600000X0*%
%ADD14O,2.000000X1.700000*%
%ADD15RoundRect,0.200000X0.275000X-0.200000X0.275000X0.200000X-0.275000X0.200000X-0.275000X-0.200000X0*%
%ADD16R,0.620000X0.575000*%
%ADD17R,1.000000X1.000000*%
%ADD18RoundRect,0.250000X-0.550000X1.500000X-0.550000X-1.500000X0.550000X-1.500000X0.550000X1.500000X0*%
%ADD19RoundRect,0.237500X0.287500X0.237500X-0.287500X0.237500X-0.287500X-0.237500X0.287500X-0.237500X0*%
%ADD20R,1.200000X1.400000*%
%ADD21RoundRect,0.237500X0.237500X-0.287500X0.237500X0.287500X-0.237500X0.287500X-0.237500X-0.287500X0*%
%ADD22RoundRect,0.175000X0.175000X-0.175000X0.175000X0.175000X-0.175000X0.175000X-0.175000X-0.175000X0*%
%ADD23RoundRect,0.250000X-0.262500X-0.450000X0.262500X-0.450000X0.262500X0.450000X-0.262500X0.450000X0*%
%ADD24C,1.000000*%
%ADD25RoundRect,0.200000X-0.200000X-0.275000X0.200000X-0.275000X0.200000X0.275000X-0.200000X0.275000X0*%
%ADD26R,0.575000X0.620000*%
%ADD27RoundRect,0.200000X-0.450000X0.200000X-0.450000X-0.200000X0.450000X-0.200000X0.450000X0.200000X0*%
%ADD28RoundRect,0.250001X-1.249999X0.799999X-1.249999X-0.799999X1.249999X-0.799999X1.249999X0.799999X0*%
%ADD29C,3.250000*%
%ADD30RoundRect,0.350000X-0.350000X0.350000X-0.350000X-0.350000X0.350000X-0.350000X0.350000X0.350000X0*%
%ADD31C,1.400000*%
%ADD32C,1.500000*%
%ADD33C,2.500000*%
%ADD34RoundRect,0.237500X-0.287500X-0.237500X0.287500X-0.237500X0.287500X0.237500X-0.287500X0.237500X0*%
%ADD35C,2.000000*%
%ADD36RoundRect,0.225000X0.375000X-0.225000X0.375000X0.225000X-0.375000X0.225000X-0.375000X-0.225000X0*%
%ADD37RoundRect,0.175000X-0.175000X0.325000X-0.175000X-0.325000X0.175000X-0.325000X0.175000X0.325000X0*%
%ADD38C,0.900000*%
%ADD39R,0.700000X1.500000*%
%ADD40R,1.000000X0.800000*%
%ADD41RoundRect,0.175000X-0.175000X0.175000X-0.175000X-0.175000X0.175000X-0.175000X0.175000X0.175000X0*%
%ADD42RoundRect,0.200000X0.600000X-0.200000X0.600000X0.200000X-0.600000X0.200000X-0.600000X-0.200000X0*%
%ADD43RoundRect,0.250001X1.249999X-0.799999X1.249999X0.799999X-1.249999X0.799999X-1.249999X-0.799999X0*%
%ADD44RoundRect,0.250000X0.850000X0.350000X-0.850000X0.350000X-0.850000X-0.350000X0.850000X-0.350000X0*%
%ADD45RoundRect,0.249997X2.950003X2.650003X-2.950003X2.650003X-2.950003X-2.650003X2.950003X-2.650003X0*%
%ADD46R,1.600000X0.760000*%
%ADD47R,1.700000X1.700000*%
%ADD48O,1.700000X1.700000*%
%ADD49RoundRect,0.175000X0.175000X0.175000X-0.175000X0.175000X-0.175000X-0.175000X0.175000X-0.175000X0*%
%ADD50RoundRect,0.250000X-0.475000X0.250000X-0.475000X-0.250000X0.475000X-0.250000X0.475000X0.250000X0*%
%ADD51R,0.650000X1.050000*%
%ADD52RoundRect,0.218750X-0.218750X-0.256250X0.218750X-0.256250X0.218750X0.256250X-0.218750X0.256250X0*%
%ADD53RoundRect,0.250000X0.362500X1.425000X-0.362500X1.425000X-0.362500X-1.425000X0.362500X-1.425000X0*%
%ADD54RoundRect,0.250000X0.475000X-0.250000X0.475000X0.250000X-0.475000X0.250000X-0.475000X-0.250000X0*%
%ADD55C,0.650000*%
%ADD56O,1.800000X1.000000*%
%ADD57O,2.100000X1.000000*%
G04 APERTURE END LIST*
D10*
%TO.C,U1*%
X137809000Y-87534000D03*
X140889000Y-87534000D03*
X137809000Y-87934000D03*
X140889000Y-87934000D03*
X137809000Y-88334000D03*
X140889000Y-88334000D03*
X137809000Y-88734000D03*
X140889000Y-88734000D03*
X137809000Y-89134000D03*
X140889000Y-89134000D03*
X137809000Y-89534000D03*
X140889000Y-89534000D03*
X137809000Y-89934000D03*
X140889000Y-89934000D03*
X137809000Y-90334000D03*
X140889000Y-90334000D03*
X137809000Y-90734000D03*
X140889000Y-90734000D03*
X137809000Y-91134000D03*
X140889000Y-91134000D03*
X137809000Y-91534000D03*
X140889000Y-91534000D03*
X137809000Y-91934000D03*
X140889000Y-91934000D03*
X137809000Y-92334000D03*
X140889000Y-92334000D03*
X137809000Y-92734000D03*
X140889000Y-92734000D03*
X137809000Y-93134000D03*
X140889000Y-93134000D03*
X137809000Y-93534000D03*
X140889000Y-93534000D03*
X137809000Y-93934000D03*
X140889000Y-93934000D03*
X137809000Y-94334000D03*
X140889000Y-94334000D03*
X137809000Y-94734000D03*
X140889000Y-94734000D03*
X137809000Y-95134000D03*
X140889000Y-95134000D03*
X137809000Y-95534000D03*
X140889000Y-95534000D03*
X137809000Y-95934000D03*
X140889000Y-95934000D03*
X137809000Y-96334000D03*
X140889000Y-96334000D03*
X137809000Y-96734000D03*
X140889000Y-96734000D03*
X137809000Y-97134000D03*
X140889000Y-97134000D03*
X137809000Y-97534000D03*
X140889000Y-97534000D03*
X137809000Y-97934000D03*
X140889000Y-97934000D03*
X137809000Y-98334000D03*
X140889000Y-98334000D03*
X137809000Y-98734000D03*
X140889000Y-98734000D03*
X137809000Y-99134000D03*
X140889000Y-99134000D03*
X137809000Y-99534000D03*
X140889000Y-99534000D03*
X137809000Y-99934000D03*
X140889000Y-99934000D03*
X137809000Y-100334000D03*
X140889000Y-100334000D03*
X137809000Y-100734000D03*
X140889000Y-100734000D03*
X137809000Y-101134000D03*
X140889000Y-101134000D03*
X137809000Y-101534000D03*
X140889000Y-101534000D03*
X137809000Y-101934000D03*
X140889000Y-101934000D03*
X137809000Y-102334000D03*
X140889000Y-102334000D03*
X137809000Y-102734000D03*
X140889000Y-102734000D03*
X137809000Y-103134000D03*
X140889000Y-103134000D03*
X137809000Y-103534000D03*
X140889000Y-103534000D03*
X137809000Y-103934000D03*
X140889000Y-103934000D03*
X137809000Y-104334000D03*
X140889000Y-104334000D03*
X137809000Y-104734000D03*
X140889000Y-104734000D03*
X137809000Y-105134000D03*
X140889000Y-105134000D03*
X137809000Y-105534000D03*
X140889000Y-105534000D03*
X137809000Y-105934000D03*
X140889000Y-105934000D03*
X137809000Y-106334000D03*
X140889000Y-106334000D03*
X137809000Y-106734000D03*
X140889000Y-106734000D03*
X137809000Y-107134000D03*
X140889000Y-107134000D03*
X171809000Y-87534000D03*
X174889000Y-87534000D03*
X171809000Y-87934000D03*
X174889000Y-87934000D03*
X171809000Y-88334000D03*
X174889000Y-88334000D03*
X171809000Y-88734000D03*
X174889000Y-88734000D03*
X171809000Y-89134000D03*
X174889000Y-89134000D03*
X171809000Y-89534000D03*
X174889000Y-89534000D03*
X171809000Y-89934000D03*
X174889000Y-89934000D03*
X171809000Y-90334000D03*
X174889000Y-90334000D03*
X171809000Y-90734000D03*
X174889000Y-90734000D03*
X171809000Y-91134000D03*
X174889000Y-91134000D03*
X171809000Y-91534000D03*
X174889000Y-91534000D03*
X171809000Y-91934000D03*
X174889000Y-91934000D03*
X171809000Y-92334000D03*
X174889000Y-92334000D03*
X171809000Y-92734000D03*
X174889000Y-92734000D03*
X171809000Y-93134000D03*
X174889000Y-93134000D03*
X171809000Y-93534000D03*
X174889000Y-93534000D03*
X171809000Y-93934000D03*
X174889000Y-93934000D03*
X171809000Y-94334000D03*
X174889000Y-94334000D03*
X171809000Y-94734000D03*
X174889000Y-94734000D03*
X171809000Y-95134000D03*
X174889000Y-95134000D03*
X171809000Y-95534000D03*
X174889000Y-95534000D03*
X171809000Y-95934000D03*
X174889000Y-95934000D03*
X171809000Y-96334000D03*
X174889000Y-96334000D03*
X171809000Y-96734000D03*
X174889000Y-96734000D03*
X171809000Y-97134000D03*
X174889000Y-97134000D03*
X171809000Y-97534000D03*
X174889000Y-97534000D03*
X171809000Y-97934000D03*
X174889000Y-97934000D03*
X171809000Y-98334000D03*
X174889000Y-98334000D03*
X171809000Y-98734000D03*
X174889000Y-98734000D03*
X171809000Y-99134000D03*
X174889000Y-99134000D03*
X171809000Y-99534000D03*
X174889000Y-99534000D03*
X171809000Y-99934000D03*
X174889000Y-99934000D03*
X171809000Y-100334000D03*
X174889000Y-100334000D03*
X171809000Y-100734000D03*
X174889000Y-100734000D03*
X171809000Y-101134000D03*
X174889000Y-101134000D03*
X171809000Y-101534000D03*
X174889000Y-101534000D03*
X171809000Y-101934000D03*
X174889000Y-101934000D03*
X171809000Y-102334000D03*
X174889000Y-102334000D03*
X171809000Y-102734000D03*
X174889000Y-102734000D03*
X171809000Y-103134000D03*
X174889000Y-103134000D03*
X171809000Y-103534000D03*
X174889000Y-103534000D03*
X171809000Y-103934000D03*
X174889000Y-103934000D03*
X171809000Y-104334000D03*
X174889000Y-104334000D03*
X171809000Y-104734000D03*
X174889000Y-104734000D03*
X171809000Y-105134000D03*
X174889000Y-105134000D03*
X171809000Y-105534000D03*
X174889000Y-105534000D03*
X171809000Y-105934000D03*
X174889000Y-105934000D03*
X171809000Y-106334000D03*
X174889000Y-106334000D03*
X171809000Y-106734000D03*
X174889000Y-106734000D03*
X171809000Y-107134000D03*
X174889000Y-107134000D03*
%TD*%
D11*
%TO.C,SW1*%
X183149000Y-73044000D03*
X191149000Y-73044000D03*
X183149000Y-77544000D03*
X191149000Y-77544000D03*
%TD*%
D12*
%TO.C,U7*%
X135089000Y-97433999D03*
X132009000Y-97433999D03*
X135089000Y-97833999D03*
X132009000Y-97833999D03*
X135089000Y-98233999D03*
X132009000Y-98233999D03*
X135089000Y-98633999D03*
X132009000Y-98633999D03*
X135089000Y-99033999D03*
X132009000Y-99033999D03*
X135089000Y-99433999D03*
X132009000Y-99433999D03*
X135089000Y-99833999D03*
X132009000Y-99833999D03*
X135089000Y-100233999D03*
X132009000Y-100233999D03*
X135089000Y-100633999D03*
X132009000Y-100633999D03*
X135089000Y-101033999D03*
X132009000Y-101033999D03*
X135089000Y-101433999D03*
X132009000Y-101433999D03*
X135089000Y-101833999D03*
X132009000Y-101833999D03*
X135089000Y-102233999D03*
X132009000Y-102233999D03*
X135089000Y-102633999D03*
X132009000Y-102633999D03*
X135089000Y-103033999D03*
X132009000Y-103033999D03*
X135089000Y-103433999D03*
X132009000Y-103433999D03*
X135089000Y-103833999D03*
X132009000Y-103833999D03*
X135089000Y-104233999D03*
X132009000Y-104233999D03*
X135089000Y-104633999D03*
X132009000Y-104633999D03*
X135089000Y-105033999D03*
X132009000Y-105033999D03*
X135089000Y-105433999D03*
X132009000Y-105433999D03*
X135089000Y-105833999D03*
X132009000Y-105833999D03*
X135089000Y-106233999D03*
X132009000Y-106233999D03*
X135089000Y-106633999D03*
X132009000Y-106633999D03*
X135089000Y-107033999D03*
X132009000Y-107033999D03*
X135089000Y-107433999D03*
X132009000Y-107433999D03*
X135089000Y-107833999D03*
X132009000Y-107833999D03*
X135089000Y-108233999D03*
X132009000Y-108233999D03*
X135089000Y-108633999D03*
X132009000Y-108633999D03*
X135089000Y-109033999D03*
X132009000Y-109033999D03*
X121089000Y-97434000D03*
X118009000Y-97434000D03*
X121089000Y-97834000D03*
X118009000Y-97834000D03*
X121089000Y-98234000D03*
X118009000Y-98234000D03*
X121089000Y-98634000D03*
X118009000Y-98634000D03*
X121089000Y-99034000D03*
X118009000Y-99034000D03*
X121089000Y-99434000D03*
X118009000Y-99434000D03*
X121089000Y-99834000D03*
X118009000Y-99834000D03*
X121089000Y-100234000D03*
X118009000Y-100234000D03*
X121089000Y-100634000D03*
X118009000Y-100634000D03*
X121089000Y-101034000D03*
X118009000Y-101034000D03*
X121089000Y-101434000D03*
X118009000Y-101434000D03*
X121089000Y-101834000D03*
X118009000Y-101834000D03*
X121089000Y-102234000D03*
X118009000Y-102234000D03*
X121089000Y-102634000D03*
X118009000Y-102634000D03*
X121089000Y-103034000D03*
X118009000Y-103034000D03*
X121089000Y-103434000D03*
X118009000Y-103434000D03*
X121089000Y-103834000D03*
X118009000Y-103834000D03*
X121089000Y-104234000D03*
X118009000Y-104234000D03*
X121089000Y-104634000D03*
X118009000Y-104634000D03*
X121089000Y-105034000D03*
X118009000Y-105034000D03*
X121089000Y-105434000D03*
X118009000Y-105434000D03*
X121089000Y-105834000D03*
X118009000Y-105834000D03*
X121089000Y-106234000D03*
X118009000Y-106234000D03*
X121089000Y-106634000D03*
X118009000Y-106634000D03*
X121089000Y-107034000D03*
X118009000Y-107034000D03*
X121089000Y-107434000D03*
X118009000Y-107434000D03*
X121089000Y-107834000D03*
X118009000Y-107834000D03*
X121089000Y-108234000D03*
X118009000Y-108234000D03*
X121089000Y-108634000D03*
X118009000Y-108634000D03*
X121089000Y-109034000D03*
X118009000Y-109034000D03*
%TD*%
D13*
%TO.C,J5*%
X178998999Y-104134000D03*
D14*
X178998999Y-101634000D03*
%TD*%
D15*
%TO.C,R4*%
X184459000Y-85979000D03*
X184459000Y-87629000D03*
%TD*%
D16*
%TO.C,Q14*%
X192489000Y-102126000D03*
X193439000Y-102126000D03*
X194389000Y-102126000D03*
X194389000Y-104902000D03*
X193439000Y-104902000D03*
X192489000Y-104902000D03*
%TD*%
D17*
%TO.C,H3*%
X115949000Y-99534000D03*
%TD*%
D18*
%TO.C,C29*%
X195569000Y-119044000D03*
X195569000Y-113444000D03*
%TD*%
D19*
%TO.C,D19*%
X178634000Y-80944000D03*
X180384000Y-80944000D03*
%TD*%
D20*
%TO.C,SW6*%
X184619000Y-101124000D03*
X184619000Y-105524000D03*
X187119000Y-101124000D03*
X187119000Y-105524000D03*
X189619000Y-101124000D03*
X189619000Y-105524000D03*
%TD*%
D21*
%TO.C,D11*%
X189679000Y-125499000D03*
X189679000Y-127249000D03*
%TD*%
D17*
%TO.C,H6*%
X181459000Y-86344000D03*
%TD*%
D22*
%TO.C,D5*%
X188855000Y-112790000D03*
X188855000Y-114940000D03*
%TD*%
D23*
%TO.C,R140*%
X186961500Y-121634000D03*
X185136500Y-121634000D03*
%TD*%
D15*
%TO.C,R5*%
X185789000Y-85979000D03*
X185789000Y-87629000D03*
%TD*%
D19*
%TO.C,D25*%
X178634000Y-79554000D03*
X180384000Y-79554000D03*
%TD*%
D24*
%TO.C,J1*%
X195519000Y-82844000D03*
X194249000Y-82844000D03*
X195519000Y-81574000D03*
X194249000Y-81574000D03*
X195519000Y-80304000D03*
X194249000Y-80304000D03*
X195519000Y-79034000D03*
X194249000Y-79034000D03*
X195519000Y-77764000D03*
X194249000Y-77764000D03*
X195519000Y-76494000D03*
X194249000Y-76494000D03*
X195519000Y-75224000D03*
D17*
X194249000Y-75224000D03*
%TD*%
D25*
%TO.C,C69*%
X199144000Y-124844000D03*
X197494000Y-124844000D03*
%TD*%
D19*
%TO.C,D2*%
X184374000Y-89034000D03*
X186124000Y-89034000D03*
%TD*%
%TO.C,D28*%
X178634000Y-82344000D03*
X180384000Y-82344000D03*
%TD*%
%TO.C,D21*%
X181174000Y-87634000D03*
X182924000Y-87634000D03*
%TD*%
D26*
%TO.C,Q12*%
X194807000Y-99004000D03*
X194807000Y-99954000D03*
X194807000Y-100904000D03*
X192031000Y-100904000D03*
X192031000Y-99954000D03*
X192031000Y-99004000D03*
%TD*%
D27*
%TO.C,J4*%
X180799000Y-93084000D03*
X180799000Y-94334000D03*
X180799000Y-95584000D03*
D28*
X178049000Y-90534000D03*
X178049000Y-98134000D03*
%TD*%
D29*
%TO.C,J13*%
X124599000Y-75409000D03*
X124599000Y-85059000D03*
D30*
X131199000Y-79214000D03*
D31*
X131199000Y-77184000D03*
X131199000Y-75154000D03*
X133739000Y-78194000D03*
X133739000Y-76164000D03*
X133739000Y-74134000D03*
D32*
X118249000Y-87754000D03*
X115709000Y-87754000D03*
X118249000Y-72714000D03*
X115709000Y-72714000D03*
D33*
X124599000Y-89024000D03*
%TD*%
D17*
%TO.C,H5*%
X182969000Y-86014000D03*
%TD*%
%TO.C,H7*%
X181655000Y-80986000D03*
%TD*%
D19*
%TO.C,D20*%
X181174000Y-89034000D03*
X182924000Y-89034000D03*
%TD*%
D25*
%TO.C,C26*%
X194624000Y-125054000D03*
X192974000Y-125054000D03*
%TD*%
D34*
%TO.C,D13*%
X114124000Y-96084000D03*
X112374000Y-96084000D03*
%TD*%
D35*
%TO.C,TP1*%
X117811000Y-121769000D03*
%TD*%
D36*
%TO.C,D7*%
X191949000Y-106564000D03*
X191949000Y-109864000D03*
%TD*%
D37*
%TO.C,Q33*%
X186049000Y-109724000D03*
X185099000Y-107324000D03*
X186999000Y-107324000D03*
%TD*%
D19*
%TO.C,D26*%
X178634000Y-76774000D03*
X180384000Y-76774000D03*
%TD*%
D38*
%TO.C,SW7*%
X126104000Y-118833000D03*
X123104000Y-118833000D03*
D39*
X126854000Y-121383000D03*
X123854000Y-121383000D03*
X122354000Y-121383000D03*
X126854000Y-116283000D03*
X123854000Y-116283000D03*
X122354000Y-116283000D03*
D40*
X128104000Y-120683000D03*
X121104000Y-120683000D03*
X128104000Y-116983000D03*
X121104000Y-116983000D03*
%TD*%
D34*
%TO.C,D12*%
X114124000Y-94584000D03*
X112374000Y-94584000D03*
%TD*%
D25*
%TO.C,R126*%
X199144000Y-126224000D03*
X197494000Y-126224000D03*
%TD*%
D21*
%TO.C,D10*%
X188319000Y-127254000D03*
X188319000Y-125504000D03*
%TD*%
D25*
%TO.C,R127*%
X199144000Y-123454000D03*
X197494000Y-123454000D03*
%TD*%
D17*
%TO.C,H2*%
X115949000Y-97934000D03*
%TD*%
D31*
%TO.C,SW2*%
X184597000Y-82101000D03*
X187137000Y-82101000D03*
D30*
X189677000Y-82101000D03*
%TD*%
D17*
%TO.C,H1*%
X115949000Y-96334000D03*
%TD*%
D41*
%TO.C,D6*%
X194049000Y-108219000D03*
X194049000Y-106069000D03*
%TD*%
D34*
%TO.C,D15*%
X114124000Y-99084000D03*
X112374000Y-99084000D03*
%TD*%
D42*
%TO.C,J2*%
X196349000Y-99959000D03*
X196349000Y-98709000D03*
X196349000Y-97459000D03*
X196349000Y-96209000D03*
X196349000Y-94959000D03*
X196349000Y-93709000D03*
D43*
X199249000Y-102509000D03*
X199249000Y-91159000D03*
%TD*%
D44*
%TO.C,Q39*%
X186489000Y-119354000D03*
D45*
X180189000Y-121634000D03*
D44*
X186489000Y-123914000D03*
%TD*%
%TO.C,Q31*%
X186479000Y-112424000D03*
D45*
X180179000Y-114704000D03*
D44*
X186479000Y-116984000D03*
%TD*%
D17*
%TO.C,H4*%
X115949000Y-101134000D03*
%TD*%
D21*
%TO.C,D9*%
X186959000Y-125499000D03*
X186959000Y-127249000D03*
%TD*%
D19*
%TO.C,D22*%
X181174000Y-90434000D03*
X182924000Y-90434000D03*
%TD*%
%TO.C,D3*%
X184374000Y-90534000D03*
X186124000Y-90534000D03*
%TD*%
D46*
%TO.C,SW3*%
X195859000Y-87259000D03*
X195859000Y-88529000D03*
X195859000Y-89799000D03*
X195859000Y-91069000D03*
X188239000Y-91069000D03*
X188239000Y-89799000D03*
X188239000Y-88529000D03*
X188239000Y-87259000D03*
%TD*%
D34*
%TO.C,D14*%
X114124000Y-97584000D03*
X112374000Y-97584000D03*
%TD*%
D47*
%TO.C,J6*%
X114349000Y-111084000D03*
D48*
X114349000Y-113624000D03*
X114349000Y-116164000D03*
X114349000Y-118704000D03*
X114349000Y-121244000D03*
%TD*%
D49*
%TO.C,D4*%
X187874000Y-110944000D03*
X190024000Y-110944000D03*
%TD*%
D50*
%TO.C,C48*%
X191349000Y-113754000D03*
X191349000Y-111854000D03*
%TD*%
D25*
%TO.C,R139*%
X194624000Y-123694000D03*
X192974000Y-123694000D03*
%TD*%
D38*
%TO.C,SW4*%
X187519000Y-95884000D03*
X184519000Y-95884000D03*
D39*
X188269000Y-98434000D03*
X185269000Y-98434000D03*
X183769000Y-98434000D03*
X188269000Y-93334000D03*
X185269000Y-93334000D03*
X183769000Y-93334000D03*
D40*
X189519000Y-97734000D03*
X182519000Y-97734000D03*
X189519000Y-94034000D03*
X182519000Y-94034000D03*
%TD*%
D19*
%TO.C,D23*%
X178634000Y-73974000D03*
X180384000Y-73974000D03*
%TD*%
%TO.C,D29*%
X178634000Y-78164000D03*
X180384000Y-78164000D03*
%TD*%
D17*
%TO.C,H8*%
X181656000Y-82289000D03*
%TD*%
D25*
%TO.C,R143*%
X194624000Y-126414000D03*
X192974000Y-126414000D03*
%TD*%
D51*
%TO.C,SW5*%
X194034000Y-93359000D03*
X194034000Y-97509000D03*
X191884000Y-93359000D03*
X191884000Y-97484000D03*
%TD*%
D52*
%TO.C,L1*%
X195256500Y-109864000D03*
X193681500Y-109864000D03*
%TD*%
D53*
%TO.C,R149*%
X177466500Y-109354000D03*
X183391500Y-109354000D03*
%TD*%
D19*
%TO.C,D24*%
X178634000Y-75374000D03*
X180384000Y-75374000D03*
%TD*%
D23*
%TO.C,R125*%
X186961500Y-114734000D03*
X185136500Y-114734000D03*
%TD*%
D54*
%TO.C,C27*%
X196089000Y-101584000D03*
X196089000Y-103484000D03*
%TD*%
D55*
%TO.C,J11*%
X193944000Y-113344000D03*
X193944000Y-119124000D03*
D56*
X197624000Y-111914000D03*
D57*
X193424000Y-111914000D03*
D56*
X197624000Y-120554000D03*
D57*
X193424000Y-120554000D03*
%TD*%
M02*
