%TF.GenerationSoftware,KiCad,Pcbnew,7.0.11*%
%TF.CreationDate,2025-07-19T14:24:56+09:00*%
%TF.ProjectId,RasPi,52617350-692e-46b6-9963-61645f706362,rev?*%
%TF.SameCoordinates,Original*%
%TF.FileFunction,Profile,NP*%
%FSLAX46Y46*%
G04 Gerber Fmt 4.6, Leading zero omitted, Abs format (unit mm)*
G04 Created by KiCad (PCBNEW 7.0.11) date 2025-07-19 14:24:56*
%MOMM*%
%LPD*%
G01*
G04 APERTURE LIST*
%TA.AperFunction,Profile*%
%ADD10C,0.200000*%
%TD*%
G04 APERTURE END LIST*
D10*
X173949000Y-123834000D02*
G75*
G03*
X171749000Y-123834000I-1100000J0D01*
G01*
X171749000Y-123834000D02*
G75*
G03*
X173949000Y-123834000I1100000J0D01*
G01*
X114349000Y-128334000D02*
X198349000Y-128334000D01*
X173949000Y-75834000D02*
G75*
G03*
X171749000Y-75834000I-1100000J0D01*
G01*
X171749000Y-75834000D02*
G75*
G03*
X173949000Y-75834000I1100000J0D01*
G01*
X199449000Y-106334000D02*
G75*
G03*
X197249000Y-106334000I-1100000J0D01*
G01*
X197249000Y-106334000D02*
G75*
G03*
X199449000Y-106334000I1100000J0D01*
G01*
X201349000Y-125334000D02*
X201349000Y-74334000D01*
X114349000Y-71334000D02*
G75*
G03*
X111349000Y-74334000I1J-3000001D01*
G01*
X111349000Y-74334000D02*
X111349000Y-125334000D01*
X140949000Y-123834000D02*
G75*
G03*
X138749000Y-123834000I-1100000J0D01*
G01*
X138749000Y-123834000D02*
G75*
G03*
X140949000Y-123834000I1100000J0D01*
G01*
X201349000Y-74334000D02*
G75*
G03*
X198349000Y-71334000I-3000000J0D01*
G01*
X198349000Y-71334000D02*
X114349000Y-71334000D01*
X140949000Y-75834000D02*
G75*
G03*
X138749000Y-75834000I-1100000J0D01*
G01*
X138749000Y-75834000D02*
G75*
G03*
X140949000Y-75834000I1100000J0D01*
G01*
X111349000Y-125334000D02*
G75*
G03*
X114349000Y-128334000I3000001J1D01*
G01*
X198349000Y-128334000D02*
G75*
G03*
X201349000Y-125334000I0J3000000D01*
G01*
X115449000Y-106334000D02*
G75*
G03*
X113249000Y-106334000I-1100000J0D01*
G01*
X113249000Y-106334000D02*
G75*
G03*
X115449000Y-106334000I1100000J0D01*
G01*
M02*
